<svg width="24" height="24" viewBox="0 0 24 24" fill="none" xmlns="http://www.w3.org/2000/svg">
<circle cx="12.1817" cy="11.781" r="4.44046" stroke="#0000FF"/>
<path d="M20.9059 9.31915L21.0062 9.68796H21.3884H23.2226V13.856L21.3885 13.8558L21.0062 13.8557L20.9059 14.2246C20.7015 14.9766 20.4048 15.6917 20.0296 16.355L19.8434 16.6843L20.1097 16.9531L21.4141 18.2694L18.4981 21.2129L17.2003 19.9036L16.9292 19.6301L16.5956 19.8223C15.9373 20.2016 15.2312 20.5003 14.4867 20.707L14.1205 20.8086V21.1887V23.0443H10.0011V21.1879V20.8076L9.63462 20.7061C8.8915 20.5002 8.18342 20.2015 7.52899 19.8228L7.19507 19.6296L6.92347 19.9036L5.62561 21.2129L2.70893 18.2694L4.01324 16.9531L4.27928 16.6846L4.09353 16.3554C3.7188 15.6914 3.4208 14.9762 3.21711 14.2249L3.11702 13.8558H2.73453H0.900391V9.68796H2.73426H3.1168L3.21685 9.31873C3.42019 8.56835 3.71839 7.85425 4.09333 7.18927L4.27884 6.86026L4.01308 6.59187L2.70854 5.27447L5.62528 2.33086L6.92313 3.64064L7.19465 3.91465L7.52859 3.72155C8.18337 3.34293 8.89153 3.04347 9.63435 2.83766L10.0008 2.73612V2.35582V0.5H14.1205V2.35582V2.73633L14.4872 2.83774C15.231 3.04338 15.937 3.34303 16.5959 3.7221L16.9295 3.91403L17.2004 3.64064L18.4982 2.3309L21.4142 5.27443L20.1096 6.59187L19.8435 6.86056L20.0296 7.18973C20.4048 7.85357 20.7016 8.56759 20.9059 9.31915Z" stroke="#DF0112"/>
<line x1="12.3013" y1="4.56055" x2="12.3013" y2="11.4012" stroke="#0000FF"/>
</svg>
