<svg width="34" height="30" viewBox="0 0 34 30" fill="none" xmlns="http://www.w3.org/2000/svg">
<path d="M12.0572 8.16222L11.8406 7.78743H11.4078H8.51625L12.5955 0.75H21.4378L25.6536 8.08472L24.0059 10.9606H20.9434L17.6471 5.28954L16.997 4.17115L16.3494 5.29097L13.3725 10.4386L12.0572 8.16222Z" stroke="#DF0112" stroke-width="1.5"/>
<path d="M11.9679 25.3878L11.752 25.7614L11.9665 26.1358L13.4009 28.6395H5.26866L0.866271 21.0041L5.11648 13.6691H8.44217L9.97663 16.3544L6.7172 21.9875L6.0659 23.1131H7.36637H13.2821L11.9679 25.3878Z" stroke="#DF0112" stroke-width="1.5"/>
<path d="M27.2836 21.9889L24.3421 16.8801H26.9736H27.4044L27.6215 16.508L29.086 13.9973L33.134 21.0036L28.7313 28.6395H20.2269L18.5479 25.7612L20.0779 23.1131H26.6336H27.9309L27.2836 21.9889Z" stroke="#0000FF" stroke-width="1.5"/>
</svg>
