<svg width="343" height="302" viewBox="0 0 343 302" fill="none" xmlns="http://www.w3.org/2000/svg">
    <path d="M262.113 163C304.314 147.9 332 122.544 332 93.8125C332 47.5241 260.142 10 171.5 9.99999C82.8583 9.99999 11 47.5241 11 93.8125C11 122.544 38.6862 147.9 80.8872 163" stroke="#DADADA" id="theMotionPath"></path>
    <path d="M166 9.5L174.25 4.73686L174.25 14.2631L166 9.5Z" fill="#DADADA"></path>
    <path d="M166 53L174.25 48.6699L174.25 57.3301L166 53Z" fill="#DADADA"></path>
    <path d="M23.0499 125.148L14.2892 121.406L21.9099 115.69L23.0499 125.148Z" fill="#DADADA"></path>
    <path d="M325.927 116.519L326.383 126.034L317.915 121.671L325.927 116.519Z" fill="#DADADA"></path>
    <path d="M255.018 39.1181L264.441 37.7147L260.945 46.5764L255.018 39.1181Z" fill="#DADADA"></path>
    <path d="M78.0163 43.1525L83.9456 35.6964L87.4381 44.5594L78.0163 43.1525Z" fill="#DADADA"></path>
    <path d="M255.903 167C295.211 153.084 321 129.717 321 103.239C321 60.5811 254.067 26 171.5 26C88.9334 26 22 60.5811 22 103.239C22 129.717 47.7887 153.084 87.0974 167" stroke="#DADADA"></path>
    <path d="M250.821 169C287.764 157.551 312 138.328 312 116.544C312 81.4497 249.096 53 171.5 53C93.904 53 31 81.4497 31 116.544C31 138.328 55.2362 157.551 92.1785 169" stroke="#DADADA"></path>
    <path d="M262.113 138C304.314 153.1 332 178.456 332 207.187C332 253.476 260.142 291 171.5 291C82.8583 291 11 253.476 11 207.188C11 178.456 38.6862 153.1 80.8872 138" stroke="#DADADA" id="theMotionPath2"></path>
    <path d="M166 291.5L174.25 296.263L174.25 286.737L166 291.5Z" fill="#DADADA"></path>
    <path d="M166 248L174.25 252.33L174.25 243.67L166 248Z" fill="#DADADA"></path>
    <path d="M23.0499 175.852L14.2892 179.594L21.9099 185.31L23.0499 175.852Z" fill="#DADADA"></path>
    <path d="M325.927 184.481L326.383 174.966L317.915 179.329L325.927 184.481Z" fill="#DADADA"></path>
    <path d="M255.018 261.882L264.441 263.285L260.945 254.424L255.018 261.882Z" fill="#DADADA"></path>
    <path d="M78.0163 257.848L83.9456 265.304L87.4381 256.441L78.0163 257.848Z" fill="#DADADA"></path>
    <path d="M255.903 134C295.211 147.916 321 171.283 321 197.761C321 240.419 254.067 275 171.5 275C88.9334 275 22 240.419 22 197.761C22 171.283 47.7887 147.916 87.0974 134" stroke="#DADADA"></path>
    <path d="M250.821 132C287.764 143.449 312 162.672 312 184.456C312 219.55 249.096 248 171.5 248C93.904 248 31 219.55 31 184.456C31 162.672 55.2362 143.449 92.1785 132" stroke="#DADADA"></path>
    <circle class="circleOne" r="6" fill="#DF0112">
        <animateMotion dur="5s" repeatCount="indefinite">
<!--            <mpath xlink:href="#theMotionPath"></mpath>-->
        </animateMotion>
        <animate attributeName="fill" values="#0000BD;#DF0112;#0000BD" dur="5s" repeatCount="indefinite"></animate>
        <animate attributeName="r" values="6;10;6" dur="5s" repeatCount="indefinite"></animate>
        <animate attributeType="CSS" attributeName="opacity" from="0" to="1" dur="0.1s" repeatCount="once" fill="freeze"></animate>
    </circle>
    <circle class="circleTwo" r="6" fill="#DF0112">
        <animateMotion dur="5s" repeatCount="indefinite">
<!--            <mpath xlink:href="#theMotionPath2"></mpath>-->
        </animateMotion>
        <animate attributeName="fill" values="#0000BD;#DF0112;#0000BD" dur="5s" repeatCount="indefinite"></animate>
        <animate attributeName="r" values="6;10;6" dur="5s" repeatCount="indefinite"></animate>
        <animate attributeType="CSS" attributeName="opacity" from="0" to="1" dur="0.1s" repeatCount="once" fill="freeze"></animate>
    </circle>
    <rect x="51" y="109" width="125" height="80" fill="#0000BD"></rect>
    <rect x="176" y="109" width="115" height="80" fill="#DF0112"></rect>
    <path d="M87.55 131.55C91.5833 131.55 95.1167 132.25 98.15 133.65C101.217 135.017 103.567 136.983 105.2 139.55C106.867 142.083 107.7 145.033 107.7 148.4V148.8C107.7 152.2 106.867 155.167 105.2 157.7C103.567 160.233 101.233 162.2 98.2 163.6C95.1667 164.967 91.6167 165.65 87.55 165.65C83.7833 165.65 80.4 165.033 77.4 163.8C74.4 162.533 72.05 160.817 70.35 158.65C68.6833 156.45 67.85 153.983 67.85 151.25V151.05H76.9V151.25C76.9 153.217 77.85 154.8 79.75 156C81.6833 157.167 84.2833 157.75 87.55 157.75C90.3833 157.75 92.7167 157.283 94.55 156.35C96.3833 155.383 97.6167 154 98.25 152.2H82.05V145H98.25C97.05 141.3 93.5333 139.45 87.7 139.45C85.5667 139.45 83.6833 139.733 82.05 140.3C80.4167 140.833 79.15 141.6 78.25 142.6C77.35 143.6 76.9 144.75 76.9 146.05V146.25H67.85V146.05C67.85 143.283 68.6833 140.8 70.35 138.6C72.05 136.4 74.4 134.683 77.4 133.45C80.4 132.183 83.7833 131.55 87.55 131.55ZM151.801 132.2C155.835 132.2 158.985 133.167 161.251 135.1C163.551 137 164.701 139.633 164.701 143V143.5C164.701 146.867 163.551 149.517 161.251 151.45C158.985 153.383 155.835 154.35 151.801 154.35H139.601V165H130.751V132.2H151.801ZM151.601 146.65C152.935 146.65 153.951 146.383 154.651 145.85C155.351 145.317 155.701 144.533 155.701 143.5V143C155.701 142 155.351 141.233 154.651 140.7C153.951 140.167 152.935 139.9 151.601 139.9H139.601V146.65H151.601ZM214.707 132.2V140.1H196.457V165H187.607V132.2H214.707ZM274.696 163.65V165H265.946L263.396 158.95H248.096L245.546 165H236.796V163.65L250.846 132.2H260.646L274.696 163.65ZM260.296 151.5L255.746 140.65L251.196 151.5H260.296Z" fill="white"></path>
</svg>
