<svg width="1600" height="9" viewBox="0 0 1600 9" fill="none" xmlns="http://www.w3.org/2000/svg">
<path d="M-219.57 7.13C-220.377 7.13 -221.087 6.99333 -221.7 6.72C-222.307 6.44 -222.777 6.04667 -223.11 5.54C-223.437 5.03333 -223.6 4.44 -223.6 3.76V3.69C-223.6 3.01 -223.437 2.41667 -223.11 1.91C-222.777 1.39667 -222.307 1.00333 -221.7 0.73C-221.087 0.45 -220.377 0.31 -219.57 0.31C-218.817 0.31 -218.14 0.433333 -217.54 0.68C-216.94 0.926666 -216.473 1.26667 -216.14 1.7C-215.8 2.13333 -215.63 2.62333 -215.63 3.17V3.25H-217.44V3.17C-217.44 2.80333 -217.637 2.51 -218.03 2.29C-218.417 2.07 -218.93 1.96 -219.57 1.96C-221.057 1.96 -221.8 2.53 -221.8 3.67V3.79C-221.8 4.35667 -221.617 4.78 -221.25 5.06C-220.883 5.34 -220.323 5.48 -219.57 5.48C-218.91 5.48 -218.39 5.37333 -218.01 5.16C-217.63 4.94667 -217.44 4.65333 -217.44 4.28V4.21H-215.63V4.28C-215.63 4.82667 -215.8 5.31667 -216.14 5.75C-216.473 6.18333 -216.94 6.52333 -217.54 6.77C-218.14 7.01 -218.817 7.13 -219.57 7.13ZM-207.19 5.42V8.33H-208.96V7H-213.76V8.33H-215.53V5.42H-214.7C-214.367 4.89333 -214.19 4.22333 -214.17 3.41L-214.11 0.44H-208.2V5.42H-207.19ZM-212.54 3.42C-212.56 4.24667 -212.717 4.91333 -213.01 5.42H-209.97V2.02L-212.51 2.03L-212.54 3.42ZM-200.309 0.44V1.97H-204.499V2.96H-200.509V4.47H-204.499V5.47H-200.309V7H-206.269V0.44H-200.309ZM-192.522 7H-194.292V2.02L-196.792 2.03L-196.842 4.22C-196.882 6.07333 -197.659 7 -199.172 7H-199.752V5.42H-199.512C-199.139 5.42 -198.875 5.32 -198.722 5.12C-198.562 4.92 -198.475 4.57333 -198.462 4.08L-198.392 0.44H-192.522V7ZM-184.172 6.73V7H-185.922L-186.432 5.79H-189.492L-190.002 7H-191.752V6.73L-188.942 0.44H-186.982L-184.172 6.73ZM-187.052 4.3L-187.962 2.13L-188.873 4.3H-187.052ZM-181.637 0.44V2.93H-178.407V0.44H-176.637V7H-178.407V4.51H-181.637V7H-183.407V0.44H-181.637ZM-171.544 7.13C-172.337 7.13 -173.037 6.99333 -173.644 6.72C-174.244 6.44 -174.707 6.04667 -175.034 5.54C-175.36 5.02667 -175.524 4.43333 -175.524 3.76V3.69C-175.524 3.01 -175.36 2.41667 -175.034 1.91C-174.707 1.39667 -174.244 1.00333 -173.644 0.73C-173.037 0.45 -172.337 0.31 -171.544 0.31C-170.737 0.31 -170.034 0.45 -169.434 0.73C-168.834 1.00333 -168.37 1.39667 -168.044 1.91C-167.717 2.41667 -167.554 3.01 -167.554 3.69V3.76C-167.554 4.44 -167.717 5.03333 -168.044 5.54C-168.37 6.04667 -168.834 6.44 -169.434 6.72C-170.034 6.99333 -170.737 7.13 -171.544 7.13ZM-171.544 5.48C-170.084 5.48 -169.354 4.91667 -169.354 3.79V3.67C-169.354 3.11 -169.54 2.68667 -169.914 2.4C-170.28 2.10667 -170.824 1.96 -171.544 1.96C-172.25 1.96 -172.79 2.10667 -173.164 2.4C-173.537 2.69333 -173.724 3.11667 -173.724 3.67V3.79C-173.724 4.34333 -173.54 4.76333 -173.174 5.05C-172.807 5.33667 -172.264 5.48 -171.544 5.48ZM-156.66 3.65C-156.367 3.80333 -156.144 4 -155.99 4.24C-155.837 4.48 -155.76 4.76 -155.76 5.08V5.18C-155.76 5.74667 -155.984 6.19333 -156.43 6.52C-156.87 6.84 -157.48 7 -158.26 7H-162.44V0.44H-158.46C-157.667 0.44 -157.054 0.593333 -156.62 0.9C-156.187 1.20667 -155.97 1.64333 -155.97 2.21V2.31C-155.97 2.88333 -156.2 3.33 -156.66 3.65ZM-160.67 1.96V3H-158.46C-158.214 3 -158.034 2.96333 -157.92 2.89C-157.8 2.81 -157.74 2.69 -157.74 2.53V2.43C-157.74 2.11667 -157.98 1.96 -158.46 1.96H-160.67ZM-157.57 4.88C-157.57 4.55333 -157.814 4.39 -158.3 4.39H-160.67V5.48H-158.3C-157.814 5.48 -157.57 5.31333 -157.57 4.98V4.88ZM-61.2399 7.13C-62.0466 7.13 -62.7566 6.99333 -63.3699 6.72C-63.9766 6.44 -64.4466 6.04667 -64.7799 5.54C-65.1066 5.03333 -65.2699 4.44 -65.2699 3.76V3.69C-65.2699 3.01 -65.1066 2.41667 -64.7799 1.91C-64.4466 1.39667 -63.9766 1.00333 -63.3699 0.73C-62.7566 0.45 -62.0466 0.31 -61.2399 0.31C-60.4866 0.31 -59.8099 0.433333 -59.2099 0.68C-58.6099 0.926666 -58.1433 1.26667 -57.8099 1.7C-57.4699 2.13333 -57.2999 2.62333 -57.2999 3.17V3.25H-59.1099V3.17C-59.1099 2.80333 -59.3066 2.51 -59.6999 2.29C-60.0866 2.07 -60.5999 1.96 -61.2399 1.96C-62.7266 1.96 -63.4699 2.53 -63.4699 3.67V3.79C-63.4699 4.35667 -63.2866 4.78 -62.9199 5.06C-62.5533 5.34 -61.9933 5.48 -61.2399 5.48C-60.5799 5.48 -60.0599 5.37333 -59.6799 5.16C-59.2999 4.94667 -59.1099 4.65333 -59.1099 4.28V4.21H-57.2999V4.28C-57.2999 4.82667 -57.4699 5.31667 -57.8099 5.75C-58.1433 6.18333 -58.6099 6.52333 -59.2099 6.77C-59.8099 7.01 -60.4866 7.13 -61.2399 7.13ZM-48.8603 5.42V8.33H-50.6303V7H-55.4303V8.33H-57.2003V5.42H-56.3703C-56.037 4.89333 -55.8603 4.22333 -55.8403 3.41L-55.7803 0.44H-49.8703V5.42H-48.8603ZM-54.2103 3.42C-54.2303 4.24667 -54.387 4.91333 -54.6803 5.42H-51.6403V2.02L-54.1803 2.03L-54.2103 3.42ZM-41.9784 0.44V1.97H-46.1684V2.96H-42.1784V4.47H-46.1684V5.47H-41.9784V7H-47.9384V0.44H-41.9784ZM-34.1919 7H-35.9619V2.02L-38.4619 2.03L-38.5119 4.22C-38.5519 6.07333 -39.3285 7 -40.8419 7H-41.4219V5.42H-41.1819C-40.8085 5.42 -40.5452 5.32 -40.3919 5.12C-40.2319 4.92 -40.1452 4.57333 -40.1319 4.08L-40.0619 0.44H-34.1919V7ZM-25.8424 6.73V7H-27.5924L-28.1024 5.79H-31.1624L-31.6724 7H-33.4224V6.73L-30.6124 0.44H-28.6524L-25.8424 6.73ZM-28.7224 4.3L-29.6324 2.13L-30.5424 4.3H-28.7224ZM-23.3071 0.44V2.93H-20.0771V0.44H-18.3071V7H-20.0771V4.51H-23.3071V7H-25.0771V0.44H-23.3071ZM-13.2137 7.13C-14.0071 7.13 -14.7071 6.99333 -15.3137 6.72C-15.9137 6.44 -16.3771 6.04667 -16.7037 5.54C-17.0304 5.02667 -17.1937 4.43333 -17.1937 3.76V3.69C-17.1937 3.01 -17.0304 2.41667 -16.7037 1.91C-16.3771 1.39667 -15.9137 1.00333 -15.3137 0.73C-14.7071 0.45 -14.0071 0.31 -13.2137 0.31C-12.4071 0.31 -11.7037 0.45 -11.1037 0.73C-10.5037 1.00333 -10.0404 1.39667 -9.71375 1.91C-9.38708 2.41667 -9.22375 3.01 -9.22375 3.69V3.76C-9.22375 4.44 -9.38708 5.03333 -9.71375 5.54C-10.0404 6.04667 -10.5037 6.44 -11.1037 6.72C-11.7037 6.99333 -12.4071 7.13 -13.2137 7.13ZM-13.2137 5.48C-11.7537 5.48 -11.0237 4.91667 -11.0237 3.79V3.67C-11.0237 3.11 -11.2104 2.68667 -11.5837 2.4C-11.9504 2.10667 -12.4937 1.96 -13.2137 1.96C-13.9204 1.96 -14.4604 2.10667 -14.8337 2.4C-15.2071 2.69333 -15.3937 3.11667 -15.3937 3.67V3.79C-15.3937 4.34333 -15.2104 4.76333 -14.8437 5.05C-14.4771 5.33667 -13.9337 5.48 -13.2137 5.48ZM1.66969 3.65C1.96302 3.80333 2.18635 4 2.33969 4.24C2.49302 4.48 2.56969 4.76 2.56969 5.08V5.18C2.56969 5.74667 2.34635 6.19333 1.89969 6.52C1.45969 6.84 0.849688 7 0.0696877 7H-4.11031V0.44H-0.130312C0.663021 0.44 1.27635 0.593333 1.70969 0.9C2.14302 1.20667 2.35969 1.64333 2.35969 2.21V2.31C2.35969 2.88333 2.12969 3.33 1.66969 3.65ZM-2.34031 1.96V3H-0.130312C0.116354 3 0.296354 2.96333 0.409688 2.89C0.529688 2.81 0.589688 2.69 0.589688 2.53V2.43C0.589688 2.11667 0.349688 1.96 -0.130312 1.96H-2.34031ZM0.759688 4.88C0.759688 4.55333 0.516354 4.39 0.0296876 4.39H-2.34031V5.48H0.0296876C0.516354 5.48 0.759688 5.31333 0.759688 4.98V4.88ZM97.0902 7.13C96.2835 7.13 95.5735 6.99333 94.9602 6.72C94.3535 6.44 93.8835 6.04667 93.5502 5.54C93.2235 5.03333 93.0602 4.44 93.0602 3.76V3.69C93.0602 3.01 93.2235 2.41667 93.5502 1.91C93.8835 1.39667 94.3535 1.00333 94.9602 0.73C95.5735 0.45 96.2835 0.31 97.0902 0.31C97.8435 0.31 98.5202 0.433333 99.1202 0.68C99.7202 0.926666 100.187 1.26667 100.52 1.7C100.86 2.13333 101.03 2.62333 101.03 3.17V3.25H99.2202V3.17C99.2202 2.80333 99.0235 2.51 98.6302 2.29C98.2435 2.07 97.7302 1.96 97.0902 1.96C95.6035 1.96 94.8602 2.53 94.8602 3.67V3.79C94.8602 4.35667 95.0435 4.78 95.4102 5.06C95.7768 5.34 96.3368 5.48 97.0902 5.48C97.7502 5.48 98.2702 5.37333 98.6502 5.16C99.0302 4.94667 99.2202 4.65333 99.2202 4.28V4.21H101.03V4.28C101.03 4.82667 100.86 5.31667 100.52 5.75C100.187 6.18333 99.7202 6.52333 99.1202 6.77C98.5202 7.01 97.8435 7.13 97.0902 7.13ZM109.47 5.42V8.33H107.7V7H102.9V8.33H101.13V5.42H101.96C102.293 4.89333 102.47 4.22333 102.49 3.41L102.55 0.44H108.46V5.42H109.47ZM104.12 3.42C104.1 4.24667 103.943 4.91333 103.65 5.42H106.69V2.02L104.15 2.03L104.12 3.42ZM116.352 0.44V1.97H112.162V2.96H116.152V4.47H112.162V5.47H116.352V7H110.392V0.44H116.352ZM124.138 7H122.368V2.02L119.868 2.03L119.818 4.22C119.778 6.07333 119.002 7 117.488 7H116.908V5.42H117.148C117.522 5.42 117.785 5.32 117.938 5.12C118.098 4.92 118.185 4.57333 118.198 4.08L118.268 0.44H124.138V7ZM132.488 6.73V7H130.738L130.228 5.79H127.168L126.658 7H124.908V6.73L127.718 0.44H129.678L132.488 6.73ZM129.608 4.3L128.698 2.13L127.788 4.3H129.608ZM135.023 0.44V2.93H138.253V0.44H140.023V7H138.253V4.51H135.023V7H133.253V0.44H135.023ZM145.116 7.13C144.323 7.13 143.623 6.99333 143.016 6.72C142.416 6.44 141.953 6.04667 141.626 5.54C141.3 5.02667 141.136 4.43333 141.136 3.76V3.69C141.136 3.01 141.3 2.41667 141.626 1.91C141.953 1.39667 142.416 1.00333 143.016 0.73C143.623 0.45 144.323 0.31 145.116 0.31C145.923 0.31 146.626 0.45 147.226 0.73C147.826 1.00333 148.29 1.39667 148.616 1.91C148.943 2.41667 149.106 3.01 149.106 3.69V3.76C149.106 4.44 148.943 5.03333 148.616 5.54C148.29 6.04667 147.826 6.44 147.226 6.72C146.626 6.99333 145.923 7.13 145.116 7.13ZM145.116 5.48C146.576 5.48 147.306 4.91667 147.306 3.79V3.67C147.306 3.11 147.12 2.68667 146.746 2.4C146.38 2.10667 145.836 1.96 145.116 1.96C144.41 1.96 143.87 2.10667 143.496 2.4C143.123 2.69333 142.936 3.11667 142.936 3.67V3.79C142.936 4.34333 143.12 4.76333 143.486 5.05C143.853 5.33667 144.396 5.48 145.116 5.48ZM160 3.65C160.293 3.80333 160.516 4 160.67 4.24C160.823 4.48 160.9 4.76 160.9 5.08V5.18C160.9 5.74667 160.676 6.19333 160.23 6.52C159.79 6.84 159.18 7 158.4 7H154.22V0.44H158.2C158.993 0.44 159.606 0.593333 160.04 0.9C160.473 1.20667 160.69 1.64333 160.69 2.21V2.31C160.69 2.88333 160.46 3.33 160 3.65ZM155.99 1.96V3H158.2C158.446 3 158.626 2.96333 158.74 2.89C158.86 2.81 158.92 2.69 158.92 2.53V2.43C158.92 2.11667 158.68 1.96 158.2 1.96H155.99ZM159.09 4.88C159.09 4.55333 158.846 4.39 158.36 4.39H155.99V5.48H158.36C158.846 5.48 159.09 5.31333 159.09 4.98V4.88ZM255.42 7.13C254.614 7.13 253.904 6.99333 253.29 6.72C252.684 6.44 252.214 6.04667 251.88 5.54C251.554 5.03333 251.39 4.44 251.39 3.76V3.69C251.39 3.01 251.554 2.41667 251.88 1.91C252.214 1.39667 252.684 1.00333 253.29 0.73C253.904 0.45 254.614 0.31 255.42 0.31C256.174 0.31 256.85 0.433333 257.45 0.68C258.05 0.926666 258.517 1.26667 258.85 1.7C259.19 2.13333 259.36 2.62333 259.36 3.17V3.25H257.55V3.17C257.55 2.80333 257.354 2.51 256.96 2.29C256.574 2.07 256.06 1.96 255.42 1.96C253.934 1.96 253.19 2.53 253.19 3.67V3.79C253.19 4.35667 253.374 4.78 253.74 5.06C254.107 5.34 254.667 5.48 255.42 5.48C256.08 5.48 256.6 5.37333 256.98 5.16C257.36 4.94667 257.55 4.65333 257.55 4.28V4.21H259.36V4.28C259.36 4.82667 259.19 5.31667 258.85 5.75C258.517 6.18333 258.05 6.52333 257.45 6.77C256.85 7.01 256.174 7.13 255.42 7.13ZM267.8 5.42V8.33H266.03V7H261.23V8.33H259.46V5.42H260.29C260.623 4.89333 260.8 4.22333 260.82 3.41L260.88 0.44H266.79V5.42H267.8ZM262.45 3.42C262.43 4.24667 262.273 4.91333 261.98 5.42H265.02V2.02L262.48 2.03L262.45 3.42ZM274.682 0.44V1.97H270.492V2.96H274.482V4.47H270.492V5.47H274.682V7H268.722V0.44H274.682ZM282.468 7H280.698V2.02L278.198 2.03L278.148 4.22C278.108 6.07333 277.332 7 275.818 7H275.238V5.42H275.478C275.852 5.42 276.115 5.32 276.268 5.12C276.428 4.92 276.515 4.57333 276.528 4.08L276.598 0.44H282.468V7ZM290.818 6.73V7H289.068L288.558 5.79H285.498L284.988 7H283.238V6.73L286.048 0.44H288.008L290.818 6.73ZM287.938 4.3L287.028 2.13L286.118 4.3H287.938ZM293.353 0.44V2.93H296.583V0.44H298.353V7H296.583V4.51H293.353V7H291.583V0.44H293.353ZM303.446 7.13C302.653 7.13 301.953 6.99333 301.346 6.72C300.746 6.44 300.283 6.04667 299.956 5.54C299.63 5.02667 299.466 4.43333 299.466 3.76V3.69C299.466 3.01 299.63 2.41667 299.956 1.91C300.283 1.39667 300.746 1.00333 301.346 0.73C301.953 0.45 302.653 0.31 303.446 0.31C304.253 0.31 304.956 0.45 305.556 0.73C306.156 1.00333 306.62 1.39667 306.946 1.91C307.273 2.41667 307.436 3.01 307.436 3.69V3.76C307.436 4.44 307.273 5.03333 306.946 5.54C306.62 6.04667 306.156 6.44 305.556 6.72C304.956 6.99333 304.253 7.13 303.446 7.13ZM303.446 5.48C304.906 5.48 305.636 4.91667 305.636 3.79V3.67C305.636 3.11 305.45 2.68667 305.076 2.4C304.71 2.10667 304.166 1.96 303.446 1.96C302.74 1.96 302.2 2.10667 301.826 2.4C301.453 2.69333 301.266 3.11667 301.266 3.67V3.79C301.266 4.34333 301.45 4.76333 301.816 5.05C302.183 5.33667 302.726 5.48 303.446 5.48ZM318.33 3.65C318.623 3.80333 318.847 4 319 4.24C319.153 4.48 319.23 4.76 319.23 5.08V5.18C319.23 5.74667 319.007 6.19333 318.56 6.52C318.12 6.84 317.51 7 316.73 7H312.55V0.44H316.53C317.323 0.44 317.937 0.593333 318.37 0.9C318.803 1.20667 319.02 1.64333 319.02 2.21V2.31C319.02 2.88333 318.79 3.33 318.33 3.65ZM314.32 1.96V3H316.53C316.777 3 316.957 2.96333 317.07 2.89C317.19 2.81 317.25 2.69 317.25 2.53V2.43C317.25 2.11667 317.01 1.96 316.53 1.96H314.32ZM317.42 4.88C317.42 4.55333 317.177 4.39 316.69 4.39H314.32V5.48H316.69C317.177 5.48 317.42 5.31333 317.42 4.98V4.88ZM413.75 7.13C412.944 7.13 412.234 6.99333 411.62 6.72C411.014 6.44 410.544 6.04667 410.21 5.54C409.884 5.03333 409.72 4.44 409.72 3.76V3.69C409.72 3.01 409.884 2.41667 410.21 1.91C410.544 1.39667 411.014 1.00333 411.62 0.73C412.234 0.45 412.944 0.31 413.75 0.31C414.504 0.31 415.18 0.433333 415.78 0.68C416.38 0.926666 416.847 1.26667 417.18 1.7C417.52 2.13333 417.69 2.62333 417.69 3.17V3.25H415.88V3.17C415.88 2.80333 415.684 2.51 415.29 2.29C414.904 2.07 414.39 1.96 413.75 1.96C412.264 1.96 411.52 2.53 411.52 3.67V3.79C411.52 4.35667 411.704 4.78 412.07 5.06C412.437 5.34 412.997 5.48 413.75 5.48C414.41 5.48 414.93 5.37333 415.31 5.16C415.69 4.94667 415.88 4.65333 415.88 4.28V4.21H417.69V4.28C417.69 4.82667 417.52 5.31667 417.18 5.75C416.847 6.18333 416.38 6.52333 415.78 6.77C415.18 7.01 414.504 7.13 413.75 7.13ZM426.13 5.42V8.33H424.36V7H419.56V8.33H417.79V5.42H418.62C418.953 4.89333 419.13 4.22333 419.15 3.41L419.21 0.44H425.12V5.42H426.13ZM420.78 3.42C420.76 4.24667 420.603 4.91333 420.31 5.42H423.35V2.02L420.81 2.03L420.78 3.42ZM433.012 0.44V1.97H428.822V2.96H432.812V4.47H428.822V5.47H433.012V7H427.052V0.44H433.012ZM440.798 7H439.028V2.02L436.528 2.03L436.478 4.22C436.438 6.07333 435.662 7 434.148 7H433.568V5.42H433.808C434.182 5.42 434.445 5.32 434.598 5.12C434.758 4.92 434.845 4.57333 434.858 4.08L434.928 0.44H440.798V7ZM449.148 6.73V7H447.398L446.888 5.79H443.828L443.318 7H441.568V6.73L444.378 0.44H446.338L449.148 6.73ZM446.268 4.3L445.358 2.13L444.448 4.3H446.268ZM451.683 0.44V2.93H454.913V0.44H456.683V7H454.913V4.51H451.683V7H449.913V0.44H451.683ZM461.776 7.13C460.983 7.13 460.283 6.99333 459.676 6.72C459.076 6.44 458.613 6.04667 458.286 5.54C457.96 5.02667 457.796 4.43333 457.796 3.76V3.69C457.796 3.01 457.96 2.41667 458.286 1.91C458.613 1.39667 459.076 1.00333 459.676 0.73C460.283 0.45 460.983 0.31 461.776 0.31C462.583 0.31 463.286 0.45 463.886 0.73C464.486 1.00333 464.95 1.39667 465.276 1.91C465.603 2.41667 465.766 3.01 465.766 3.69V3.76C465.766 4.44 465.603 5.03333 465.276 5.54C464.95 6.04667 464.486 6.44 463.886 6.72C463.286 6.99333 462.583 7.13 461.776 7.13ZM461.776 5.48C463.236 5.48 463.966 4.91667 463.966 3.79V3.67C463.966 3.11 463.78 2.68667 463.406 2.4C463.04 2.10667 462.496 1.96 461.776 1.96C461.07 1.96 460.53 2.10667 460.156 2.4C459.783 2.69333 459.596 3.11667 459.596 3.67V3.79C459.596 4.34333 459.78 4.76333 460.146 5.05C460.513 5.33667 461.056 5.48 461.776 5.48ZM476.66 3.65C476.953 3.80333 477.177 4 477.33 4.24C477.483 4.48 477.56 4.76 477.56 5.08V5.18C477.56 5.74667 477.337 6.19333 476.89 6.52C476.45 6.84 475.84 7 475.06 7H470.88V0.44H474.86C475.653 0.44 476.267 0.593333 476.7 0.9C477.133 1.20667 477.35 1.64333 477.35 2.21V2.31C477.35 2.88333 477.12 3.33 476.66 3.65ZM472.65 1.96V3H474.86C475.107 3 475.287 2.96333 475.4 2.89C475.52 2.81 475.58 2.69 475.58 2.53V2.43C475.58 2.11667 475.34 1.96 474.86 1.96H472.65ZM475.75 4.88C475.75 4.55333 475.507 4.39 475.02 4.39H472.65V5.48H475.02C475.507 5.48 475.75 5.31333 475.75 4.98V4.88ZM572.08 7.13C571.274 7.13 570.564 6.99333 569.95 6.72C569.344 6.44 568.874 6.04667 568.54 5.54C568.214 5.03333 568.05 4.44 568.05 3.76V3.69C568.05 3.01 568.214 2.41667 568.54 1.91C568.874 1.39667 569.344 1.00333 569.95 0.73C570.564 0.45 571.274 0.31 572.08 0.31C572.834 0.31 573.51 0.433333 574.11 0.68C574.71 0.926666 575.177 1.26667 575.51 1.7C575.85 2.13333 576.02 2.62333 576.02 3.17V3.25H574.21V3.17C574.21 2.80333 574.014 2.51 573.62 2.29C573.234 2.07 572.72 1.96 572.08 1.96C570.594 1.96 569.85 2.53 569.85 3.67V3.79C569.85 4.35667 570.034 4.78 570.4 5.06C570.767 5.34 571.327 5.48 572.08 5.48C572.74 5.48 573.26 5.37333 573.64 5.16C574.02 4.94667 574.21 4.65333 574.21 4.28V4.21H576.02V4.28C576.02 4.82667 575.85 5.31667 575.51 5.75C575.177 6.18333 574.71 6.52333 574.11 6.77C573.51 7.01 572.834 7.13 572.08 7.13ZM584.46 5.42V8.33H582.69V7H577.89V8.33H576.12V5.42H576.95C577.283 4.89333 577.46 4.22333 577.48 3.41L577.54 0.44H583.45V5.42H584.46ZM579.11 3.42C579.09 4.24667 578.933 4.91333 578.64 5.42H581.68V2.02L579.14 2.03L579.11 3.42ZM591.342 0.44V1.97H587.152V2.96H591.142V4.47H587.152V5.47H591.342V7H585.382V0.44H591.342ZM599.128 7H597.358V2.02L594.858 2.03L594.808 4.22C594.768 6.07333 593.992 7 592.478 7H591.898V5.42H592.138C592.512 5.42 592.775 5.32 592.928 5.12C593.088 4.92 593.175 4.57333 593.188 4.08L593.258 0.44H599.128V7ZM607.478 6.73V7H605.728L605.218 5.79H602.158L601.648 7H599.898V6.73L602.708 0.44H604.668L607.478 6.73ZM604.598 4.3L603.688 2.13L602.778 4.3H604.598ZM610.013 0.44V2.93H613.243V0.44H615.013V7H613.243V4.51H610.013V7H608.243V0.44H610.013ZM620.107 7.13C619.313 7.13 618.613 6.99333 618.007 6.72C617.407 6.44 616.943 6.04667 616.617 5.54C616.29 5.02667 616.127 4.43333 616.127 3.76V3.69C616.127 3.01 616.29 2.41667 616.617 1.91C616.943 1.39667 617.407 1.00333 618.007 0.73C618.613 0.45 619.313 0.31 620.107 0.31C620.913 0.31 621.617 0.45 622.217 0.73C622.817 1.00333 623.28 1.39667 623.607 1.91C623.933 2.41667 624.097 3.01 624.097 3.69V3.76C624.097 4.44 623.933 5.03333 623.607 5.54C623.28 6.04667 622.817 6.44 622.217 6.72C621.617 6.99333 620.913 7.13 620.107 7.13ZM620.107 5.48C621.567 5.48 622.297 4.91667 622.297 3.79V3.67C622.297 3.11 622.11 2.68667 621.737 2.4C621.37 2.10667 620.827 1.96 620.107 1.96C619.4 1.96 618.86 2.10667 618.487 2.4C618.113 2.69333 617.927 3.11667 617.927 3.67V3.79C617.927 4.34333 618.11 4.76333 618.477 5.05C618.843 5.33667 619.387 5.48 620.107 5.48ZM634.99 3.65C635.283 3.80333 635.507 4 635.66 4.24C635.813 4.48 635.89 4.76 635.89 5.08V5.18C635.89 5.74667 635.667 6.19333 635.22 6.52C634.78 6.84 634.17 7 633.39 7H629.21V0.44H633.19C633.983 0.44 634.597 0.593333 635.03 0.9C635.463 1.20667 635.68 1.64333 635.68 2.21V2.31C635.68 2.88333 635.45 3.33 634.99 3.65ZM630.98 1.96V3H633.19C633.437 3 633.617 2.96333 633.73 2.89C633.85 2.81 633.91 2.69 633.91 2.53V2.43C633.91 2.11667 633.67 1.96 633.19 1.96H630.98ZM634.08 4.88C634.08 4.55333 633.837 4.39 633.35 4.39H630.98V5.48H633.35C633.837 5.48 634.08 5.31333 634.08 4.98V4.88ZM730.41 7.13C729.604 7.13 728.894 6.99333 728.28 6.72C727.674 6.44 727.204 6.04667 726.87 5.54C726.544 5.03333 726.38 4.44 726.38 3.76V3.69C726.38 3.01 726.544 2.41667 726.87 1.91C727.204 1.39667 727.674 1.00333 728.28 0.73C728.894 0.45 729.604 0.31 730.41 0.31C731.164 0.31 731.84 0.433333 732.44 0.68C733.04 0.926666 733.507 1.26667 733.84 1.7C734.18 2.13333 734.35 2.62333 734.35 3.17V3.25H732.54V3.17C732.54 2.80333 732.344 2.51 731.95 2.29C731.564 2.07 731.05 1.96 730.41 1.96C728.924 1.96 728.18 2.53 728.18 3.67V3.79C728.18 4.35667 728.364 4.78 728.73 5.06C729.097 5.34 729.657 5.48 730.41 5.48C731.07 5.48 731.59 5.37333 731.97 5.16C732.35 4.94667 732.54 4.65333 732.54 4.28V4.21H734.35V4.28C734.35 4.82667 734.18 5.31667 733.84 5.75C733.507 6.18333 733.04 6.52333 732.44 6.77C731.84 7.01 731.164 7.13 730.41 7.13ZM742.79 5.42V8.33H741.02V7H736.22V8.33H734.45V5.42H735.28C735.613 4.89333 735.79 4.22333 735.81 3.41L735.87 0.44H741.78V5.42H742.79ZM737.44 3.42C737.42 4.24667 737.263 4.91333 736.97 5.42H740.01V2.02L737.47 2.03L737.44 3.42ZM749.672 0.44V1.97H745.482V2.96H749.472V4.47H745.482V5.47H749.672V7H743.712V0.44H749.672ZM757.459 7H755.689V2.02L753.189 2.03L753.139 4.22C753.099 6.07333 752.322 7 750.809 7H750.229V5.42H750.469C750.842 5.42 751.105 5.32 751.259 5.12C751.419 4.92 751.505 4.57333 751.519 4.08L751.589 0.44H757.459V7ZM765.808 6.73V7H764.058L763.548 5.79H760.488L759.978 7H758.228V6.73L761.038 0.44H762.998L765.808 6.73ZM762.928 4.3L762.018 2.13L761.108 4.3H762.928ZM768.343 0.44V2.93H771.573V0.44H773.343V7H771.573V4.51H768.343V7H766.573V0.44H768.343ZM778.437 7.13C777.643 7.13 776.943 6.99333 776.337 6.72C775.737 6.44 775.273 6.04667 774.947 5.54C774.62 5.02667 774.457 4.43333 774.457 3.76V3.69C774.457 3.01 774.62 2.41667 774.947 1.91C775.273 1.39667 775.737 1.00333 776.337 0.73C776.943 0.45 777.643 0.31 778.437 0.31C779.243 0.31 779.947 0.45 780.547 0.73C781.147 1.00333 781.61 1.39667 781.937 1.91C782.263 2.41667 782.427 3.01 782.427 3.69V3.76C782.427 4.44 782.263 5.03333 781.937 5.54C781.61 6.04667 781.147 6.44 780.547 6.72C779.947 6.99333 779.243 7.13 778.437 7.13ZM778.437 5.48C779.897 5.48 780.627 4.91667 780.627 3.79V3.67C780.627 3.11 780.44 2.68667 780.067 2.4C779.7 2.10667 779.157 1.96 778.437 1.96C777.73 1.96 777.19 2.10667 776.817 2.4C776.443 2.69333 776.257 3.11667 776.257 3.67V3.79C776.257 4.34333 776.44 4.76333 776.807 5.05C777.173 5.33667 777.717 5.48 778.437 5.48ZM793.32 3.65C793.613 3.80333 793.837 4 793.99 4.24C794.143 4.48 794.22 4.76 794.22 5.08V5.18C794.22 5.74667 793.997 6.19333 793.55 6.52C793.11 6.84 792.5 7 791.72 7H787.54V0.44H791.52C792.313 0.44 792.927 0.593333 793.36 0.9C793.793 1.20667 794.01 1.64333 794.01 2.21V2.31C794.01 2.88333 793.78 3.33 793.32 3.65ZM789.31 1.96V3H791.52C791.767 3 791.947 2.96333 792.06 2.89C792.18 2.81 792.24 2.69 792.24 2.53V2.43C792.24 2.11667 792 1.96 791.52 1.96H789.31ZM792.41 4.88C792.41 4.55333 792.167 4.39 791.68 4.39H789.31V5.48H791.68C792.167 5.48 792.41 5.31333 792.41 4.98V4.88ZM888.741 7.13C887.934 7.13 887.224 6.99333 886.611 6.72C886.004 6.44 885.534 6.04667 885.201 5.54C884.874 5.03333 884.711 4.44 884.711 3.76V3.69C884.711 3.01 884.874 2.41667 885.201 1.91C885.534 1.39667 886.004 1.00333 886.611 0.73C887.224 0.45 887.934 0.31 888.741 0.31C889.494 0.31 890.171 0.433333 890.771 0.68C891.371 0.926666 891.837 1.26667 892.171 1.7C892.511 2.13333 892.681 2.62333 892.681 3.17V3.25H890.871V3.17C890.871 2.80333 890.674 2.51 890.281 2.29C889.894 2.07 889.381 1.96 888.741 1.96C887.254 1.96 886.511 2.53 886.511 3.67V3.79C886.511 4.35667 886.694 4.78 887.061 5.06C887.427 5.34 887.987 5.48 888.741 5.48C889.401 5.48 889.921 5.37333 890.301 5.16C890.681 4.94667 890.871 4.65333 890.871 4.28V4.21H892.681V4.28C892.681 4.82667 892.511 5.31667 892.171 5.75C891.837 6.18333 891.371 6.52333 890.771 6.77C890.171 7.01 889.494 7.13 888.741 7.13ZM901.12 5.42V8.33H899.35V7H894.55V8.33H892.78V5.42H893.61C893.943 4.89333 894.12 4.22333 894.14 3.41L894.2 0.44H900.11V5.42H901.12ZM895.77 3.42C895.75 4.24667 895.593 4.91333 895.3 5.42H898.34V2.02L895.8 2.03L895.77 3.42ZM908.002 0.44V1.97H903.812V2.96H907.802V4.47H903.812V5.47H908.002V7H902.042V0.44H908.002ZM915.789 7H914.019V2.02L911.519 2.03L911.469 4.22C911.429 6.07333 910.652 7 909.139 7H908.559V5.42H908.799C909.172 5.42 909.435 5.32 909.589 5.12C909.749 4.92 909.835 4.57333 909.849 4.08L909.919 0.44H915.789V7ZM924.138 6.73V7H922.388L921.878 5.79H918.818L918.308 7H916.558V6.73L919.368 0.44H921.328L924.138 6.73ZM921.258 4.3L920.348 2.13L919.438 4.3H921.258ZM926.673 0.44V2.93H929.903V0.44H931.673V7H929.903V4.51H926.673V7H924.903V0.44H926.673ZM936.767 7.13C935.973 7.13 935.273 6.99333 934.667 6.72C934.067 6.44 933.603 6.04667 933.277 5.54C932.95 5.02667 932.787 4.43333 932.787 3.76V3.69C932.787 3.01 932.95 2.41667 933.277 1.91C933.603 1.39667 934.067 1.00333 934.667 0.73C935.273 0.45 935.973 0.31 936.767 0.31C937.573 0.31 938.277 0.45 938.877 0.73C939.477 1.00333 939.94 1.39667 940.267 1.91C940.593 2.41667 940.757 3.01 940.757 3.69V3.76C940.757 4.44 940.593 5.03333 940.267 5.54C939.94 6.04667 939.477 6.44 938.877 6.72C938.277 6.99333 937.573 7.13 936.767 7.13ZM936.767 5.48C938.227 5.48 938.957 4.91667 938.957 3.79V3.67C938.957 3.11 938.77 2.68667 938.397 2.4C938.03 2.10667 937.487 1.96 936.767 1.96C936.06 1.96 935.52 2.10667 935.147 2.4C934.773 2.69333 934.587 3.11667 934.587 3.67V3.79C934.587 4.34333 934.77 4.76333 935.137 5.05C935.503 5.33667 936.047 5.48 936.767 5.48ZM951.65 3.65C951.943 3.80333 952.167 4 952.32 4.24C952.473 4.48 952.55 4.76 952.55 5.08V5.18C952.55 5.74667 952.327 6.19333 951.88 6.52C951.44 6.84 950.83 7 950.05 7H945.87V0.44H949.85C950.643 0.44 951.257 0.593333 951.69 0.9C952.123 1.20667 952.34 1.64333 952.34 2.21V2.31C952.34 2.88333 952.11 3.33 951.65 3.65ZM947.64 1.96V3H949.85C950.097 3 950.277 2.96333 950.39 2.89C950.51 2.81 950.57 2.69 950.57 2.53V2.43C950.57 2.11667 950.33 1.96 949.85 1.96H947.64ZM950.74 4.88C950.74 4.55333 950.497 4.39 950.01 4.39H947.64V5.48H950.01C950.497 5.48 950.74 5.31333 950.74 4.98V4.88ZM1047.07 7.13C1046.26 7.13 1045.55 6.99333 1044.94 6.72C1044.33 6.44 1043.86 6.04667 1043.53 5.54C1043.2 5.03333 1043.04 4.44 1043.04 3.76V3.69C1043.04 3.01 1043.2 2.41667 1043.53 1.91C1043.86 1.39667 1044.33 1.00333 1044.94 0.73C1045.55 0.45 1046.26 0.31 1047.07 0.31C1047.82 0.31 1048.5 0.433333 1049.1 0.68C1049.7 0.926666 1050.17 1.26667 1050.5 1.7C1050.84 2.13333 1051.01 2.62333 1051.01 3.17V3.25H1049.2V3.17C1049.2 2.80333 1049 2.51 1048.61 2.29C1048.22 2.07 1047.71 1.96 1047.07 1.96C1045.58 1.96 1044.84 2.53 1044.84 3.67V3.79C1044.84 4.35667 1045.02 4.78 1045.39 5.06C1045.76 5.34 1046.32 5.48 1047.07 5.48C1047.73 5.48 1048.25 5.37333 1048.63 5.16C1049.01 4.94667 1049.2 4.65333 1049.2 4.28V4.21H1051.01V4.28C1051.01 4.82667 1050.84 5.31667 1050.5 5.75C1050.17 6.18333 1049.7 6.52333 1049.1 6.77C1048.5 7.01 1047.82 7.13 1047.07 7.13ZM1059.45 5.42V8.33H1057.68V7H1052.88V8.33H1051.11V5.42H1051.94C1052.27 4.89333 1052.45 4.22333 1052.47 3.41L1052.53 0.44H1058.44V5.42H1059.45ZM1054.1 3.42C1054.08 4.24667 1053.92 4.91333 1053.63 5.42H1056.67V2.02L1054.13 2.03L1054.1 3.42ZM1066.33 0.44V1.97H1062.14V2.96H1066.13V4.47H1062.14V5.47H1066.33V7H1060.37V0.44H1066.33ZM1074.12 7H1072.35V2.02L1069.85 2.03L1069.8 4.22C1069.76 6.07333 1068.98 7 1067.47 7H1066.89V5.42H1067.13C1067.5 5.42 1067.77 5.32 1067.92 5.12C1068.08 4.92 1068.17 4.57333 1068.18 4.08L1068.25 0.44H1074.12V7ZM1082.47 6.73V7H1080.72L1080.21 5.79H1077.15L1076.64 7H1074.89V6.73L1077.7 0.44H1079.66L1082.47 6.73ZM1079.59 4.3L1078.68 2.13L1077.77 4.3H1079.59ZM1085 0.44V2.93H1088.23V0.44H1090V7H1088.23V4.51H1085V7H1083.23V0.44H1085ZM1095.1 7.13C1094.3 7.13 1093.6 6.99333 1093 6.72C1092.4 6.44 1091.93 6.04667 1091.61 5.54C1091.28 5.02667 1091.12 4.43333 1091.12 3.76V3.69C1091.12 3.01 1091.28 2.41667 1091.61 1.91C1091.93 1.39667 1092.4 1.00333 1093 0.73C1093.6 0.45 1094.3 0.31 1095.1 0.31C1095.9 0.31 1096.61 0.45 1097.21 0.73C1097.81 1.00333 1098.27 1.39667 1098.6 1.91C1098.92 2.41667 1099.09 3.01 1099.09 3.69V3.76C1099.09 4.44 1098.92 5.03333 1098.6 5.54C1098.27 6.04667 1097.81 6.44 1097.21 6.72C1096.61 6.99333 1095.9 7.13 1095.1 7.13ZM1095.1 5.48C1096.56 5.48 1097.29 4.91667 1097.29 3.79V3.67C1097.29 3.11 1097.1 2.68667 1096.73 2.4C1096.36 2.10667 1095.82 1.96 1095.1 1.96C1094.39 1.96 1093.85 2.10667 1093.48 2.4C1093.1 2.69333 1092.92 3.11667 1092.92 3.67V3.79C1092.92 4.34333 1093.1 4.76333 1093.47 5.05C1093.83 5.33667 1094.38 5.48 1095.1 5.48ZM1109.98 3.65C1110.27 3.80333 1110.5 4 1110.65 4.24C1110.8 4.48 1110.88 4.76 1110.88 5.08V5.18C1110.88 5.74667 1110.66 6.19333 1110.21 6.52C1109.77 6.84 1109.16 7 1108.38 7H1104.2V0.44H1108.18C1108.97 0.44 1109.59 0.593333 1110.02 0.9C1110.45 1.20667 1110.67 1.64333 1110.67 2.21V2.31C1110.67 2.88333 1110.44 3.33 1109.98 3.65ZM1105.97 1.96V3H1108.18C1108.43 3 1108.61 2.96333 1108.72 2.89C1108.84 2.81 1108.9 2.69 1108.9 2.53V2.43C1108.9 2.11667 1108.66 1.96 1108.18 1.96H1105.97ZM1109.07 4.88C1109.07 4.55333 1108.83 4.39 1108.34 4.39H1105.97V5.48H1108.34C1108.83 5.48 1109.07 5.31333 1109.07 4.98V4.88ZM1205.4 7.13C1204.59 7.13 1203.88 6.99333 1203.27 6.72C1202.66 6.44 1202.19 6.04667 1201.86 5.54C1201.53 5.03333 1201.37 4.44 1201.37 3.76V3.69C1201.37 3.01 1201.53 2.41667 1201.86 1.91C1202.19 1.39667 1202.66 1.00333 1203.27 0.73C1203.88 0.45 1204.59 0.31 1205.4 0.31C1206.15 0.31 1206.83 0.433333 1207.43 0.68C1208.03 0.926666 1208.5 1.26667 1208.83 1.7C1209.17 2.13333 1209.34 2.62333 1209.34 3.17V3.25H1207.53V3.17C1207.53 2.80333 1207.33 2.51 1206.94 2.29C1206.55 2.07 1206.04 1.96 1205.4 1.96C1203.91 1.96 1203.17 2.53 1203.17 3.67V3.79C1203.17 4.35667 1203.35 4.78 1203.72 5.06C1204.09 5.34 1204.65 5.48 1205.4 5.48C1206.06 5.48 1206.58 5.37333 1206.96 5.16C1207.34 4.94667 1207.53 4.65333 1207.53 4.28V4.21H1209.34V4.28C1209.34 4.82667 1209.17 5.31667 1208.83 5.75C1208.5 6.18333 1208.03 6.52333 1207.43 6.77C1206.83 7.01 1206.15 7.13 1205.4 7.13ZM1217.78 5.42V8.33H1216.01V7H1211.21V8.33H1209.44V5.42H1210.27C1210.6 4.89333 1210.78 4.22333 1210.8 3.41L1210.86 0.44H1216.77V5.42H1217.78ZM1212.43 3.42C1212.41 4.24667 1212.25 4.91333 1211.96 5.42H1215V2.02L1212.46 2.03L1212.43 3.42ZM1224.66 0.44V1.97H1220.47V2.96H1224.46V4.47H1220.47V5.47H1224.66V7H1218.7V0.44H1224.66ZM1232.45 7H1230.68V2.02L1228.18 2.03L1228.13 4.22C1228.09 6.07333 1227.31 7 1225.8 7H1225.22V5.42H1225.46C1225.83 5.42 1226.1 5.32 1226.25 5.12C1226.41 4.92 1226.5 4.57333 1226.51 4.08L1226.58 0.44H1232.45V7ZM1240.8 6.73V7H1239.05L1238.54 5.79H1235.48L1234.97 7H1233.22V6.73L1236.03 0.44H1237.99L1240.8 6.73ZM1237.92 4.3L1237.01 2.13L1236.1 4.3H1237.92ZM1243.33 0.44V2.93H1246.56V0.44H1248.33V7H1246.56V4.51H1243.33V7H1241.56V0.44H1243.33ZM1253.43 7.13C1252.63 7.13 1251.93 6.99333 1251.33 6.72C1250.73 6.44 1250.26 6.04667 1249.94 5.54C1249.61 5.02667 1249.45 4.43333 1249.45 3.76V3.69C1249.45 3.01 1249.61 2.41667 1249.94 1.91C1250.26 1.39667 1250.73 1.00333 1251.33 0.73C1251.93 0.45 1252.63 0.31 1253.43 0.31C1254.23 0.31 1254.94 0.45 1255.54 0.73C1256.14 1.00333 1256.6 1.39667 1256.93 1.91C1257.25 2.41667 1257.42 3.01 1257.42 3.69V3.76C1257.42 4.44 1257.25 5.03333 1256.93 5.54C1256.6 6.04667 1256.14 6.44 1255.54 6.72C1254.94 6.99333 1254.23 7.13 1253.43 7.13ZM1253.43 5.48C1254.89 5.48 1255.62 4.91667 1255.62 3.79V3.67C1255.62 3.11 1255.43 2.68667 1255.06 2.4C1254.69 2.10667 1254.15 1.96 1253.43 1.96C1252.72 1.96 1252.18 2.10667 1251.81 2.4C1251.43 2.69333 1251.25 3.11667 1251.25 3.67V3.79C1251.25 4.34333 1251.43 4.76333 1251.8 5.05C1252.16 5.33667 1252.71 5.48 1253.43 5.48ZM1268.31 3.65C1268.6 3.80333 1268.83 4 1268.98 4.24C1269.13 4.48 1269.21 4.76 1269.21 5.08V5.18C1269.21 5.74667 1268.99 6.19333 1268.54 6.52C1268.1 6.84 1267.49 7 1266.71 7H1262.53V0.44H1266.51C1267.3 0.44 1267.92 0.593333 1268.35 0.9C1268.78 1.20667 1269 1.64333 1269 2.21V2.31C1269 2.88333 1268.77 3.33 1268.31 3.65ZM1264.3 1.96V3H1266.51C1266.76 3 1266.94 2.96333 1267.05 2.89C1267.17 2.81 1267.23 2.69 1267.23 2.53V2.43C1267.23 2.11667 1266.99 1.96 1266.51 1.96H1264.3ZM1267.4 4.88C1267.4 4.55333 1267.16 4.39 1266.67 4.39H1264.3V5.48H1266.67C1267.16 5.48 1267.4 5.31333 1267.4 4.98V4.88ZM1363.73 7.13C1362.92 7.13 1362.21 6.99333 1361.6 6.72C1360.99 6.44 1360.52 6.04667 1360.19 5.54C1359.86 5.03333 1359.7 4.44 1359.7 3.76V3.69C1359.7 3.01 1359.86 2.41667 1360.19 1.91C1360.52 1.39667 1360.99 1.00333 1361.6 0.73C1362.21 0.45 1362.92 0.31 1363.73 0.31C1364.48 0.31 1365.16 0.433333 1365.76 0.68C1366.36 0.926666 1366.83 1.26667 1367.16 1.7C1367.5 2.13333 1367.67 2.62333 1367.67 3.17V3.25H1365.86V3.17C1365.86 2.80333 1365.66 2.51 1365.27 2.29C1364.88 2.07 1364.37 1.96 1363.73 1.96C1362.24 1.96 1361.5 2.53 1361.5 3.67V3.79C1361.5 4.35667 1361.68 4.78 1362.05 5.06C1362.42 5.34 1362.98 5.48 1363.73 5.48C1364.39 5.48 1364.91 5.37333 1365.29 5.16C1365.67 4.94667 1365.86 4.65333 1365.86 4.28V4.21H1367.67V4.28C1367.67 4.82667 1367.5 5.31667 1367.16 5.75C1366.83 6.18333 1366.36 6.52333 1365.76 6.77C1365.16 7.01 1364.48 7.13 1363.73 7.13ZM1376.11 5.42V8.33H1374.34V7H1369.54V8.33H1367.77V5.42H1368.6C1368.93 4.89333 1369.11 4.22333 1369.13 3.41L1369.19 0.44H1375.1V5.42H1376.11ZM1370.76 3.42C1370.74 4.24667 1370.58 4.91333 1370.29 5.42H1373.33V2.02L1370.79 2.03L1370.76 3.42ZM1382.99 0.44V1.97H1378.8V2.96H1382.79V4.47H1378.8V5.47H1382.99V7H1377.03V0.44H1382.99ZM1390.78 7H1389.01V2.02L1386.51 2.03L1386.46 4.22C1386.42 6.07333 1385.64 7 1384.13 7H1383.55V5.42H1383.79C1384.16 5.42 1384.43 5.32 1384.58 5.12C1384.74 4.92 1384.83 4.57333 1384.84 4.08L1384.91 0.44H1390.78V7ZM1399.13 6.73V7H1397.38L1396.87 5.79H1393.81L1393.3 7H1391.55V6.73L1394.36 0.44H1396.32L1399.13 6.73ZM1396.25 4.3L1395.34 2.13L1394.43 4.3H1396.25ZM1401.66 0.44V2.93H1404.89V0.44H1406.66V7H1404.89V4.51H1401.66V7H1399.89V0.44H1401.66ZM1411.76 7.13C1410.96 7.13 1410.26 6.99333 1409.66 6.72C1409.06 6.44 1408.59 6.04667 1408.27 5.54C1407.94 5.02667 1407.78 4.43333 1407.78 3.76V3.69C1407.78 3.01 1407.94 2.41667 1408.27 1.91C1408.59 1.39667 1409.06 1.00333 1409.66 0.73C1410.26 0.45 1410.96 0.31 1411.76 0.31C1412.56 0.31 1413.27 0.45 1413.87 0.73C1414.47 1.00333 1414.93 1.39667 1415.26 1.91C1415.58 2.41667 1415.75 3.01 1415.75 3.69V3.76C1415.75 4.44 1415.58 5.03333 1415.26 5.54C1414.93 6.04667 1414.47 6.44 1413.87 6.72C1413.27 6.99333 1412.56 7.13 1411.76 7.13ZM1411.76 5.48C1413.22 5.48 1413.95 4.91667 1413.95 3.79V3.67C1413.95 3.11 1413.76 2.68667 1413.39 2.4C1413.02 2.10667 1412.48 1.96 1411.76 1.96C1411.05 1.96 1410.51 2.10667 1410.14 2.4C1409.76 2.69333 1409.58 3.11667 1409.58 3.67V3.79C1409.58 4.34333 1409.76 4.76333 1410.13 5.05C1410.49 5.33667 1411.04 5.48 1411.76 5.48ZM1426.64 3.65C1426.93 3.80333 1427.16 4 1427.31 4.24C1427.46 4.48 1427.54 4.76 1427.54 5.08V5.18C1427.54 5.74667 1427.32 6.19333 1426.87 6.52C1426.43 6.84 1425.82 7 1425.04 7H1420.86V0.44H1424.84C1425.63 0.44 1426.25 0.593333 1426.68 0.9C1427.11 1.20667 1427.33 1.64333 1427.33 2.21V2.31C1427.33 2.88333 1427.1 3.33 1426.64 3.65ZM1422.63 1.96V3H1424.84C1425.09 3 1425.27 2.96333 1425.38 2.89C1425.5 2.81 1425.56 2.69 1425.56 2.53V2.43C1425.56 2.11667 1425.32 1.96 1424.84 1.96H1422.63ZM1425.73 4.88C1425.73 4.55333 1425.49 4.39 1425 4.39H1422.63V5.48H1425C1425.49 5.48 1425.73 5.31333 1425.73 4.98V4.88ZM1522.06 7.13C1521.25 7.13 1520.54 6.99333 1519.93 6.72C1519.32 6.44 1518.85 6.04667 1518.52 5.54C1518.19 5.03333 1518.03 4.44 1518.03 3.76V3.69C1518.03 3.01 1518.19 2.41667 1518.52 1.91C1518.85 1.39667 1519.32 1.00333 1519.93 0.73C1520.54 0.45 1521.25 0.31 1522.06 0.31C1522.81 0.31 1523.49 0.433333 1524.09 0.68C1524.69 0.926666 1525.16 1.26667 1525.49 1.7C1525.83 2.13333 1526 2.62333 1526 3.17V3.25H1524.19V3.17C1524.19 2.80333 1523.99 2.51 1523.6 2.29C1523.21 2.07 1522.7 1.96 1522.06 1.96C1520.57 1.96 1519.83 2.53 1519.83 3.67V3.79C1519.83 4.35667 1520.01 4.78 1520.38 5.06C1520.75 5.34 1521.31 5.48 1522.06 5.48C1522.72 5.48 1523.24 5.37333 1523.62 5.16C1524 4.94667 1524.19 4.65333 1524.19 4.28V4.21H1526V4.28C1526 4.82667 1525.83 5.31667 1525.49 5.75C1525.16 6.18333 1524.69 6.52333 1524.09 6.77C1523.49 7.01 1522.81 7.13 1522.06 7.13ZM1534.44 5.42V8.33H1532.67V7H1527.87V8.33H1526.1V5.42H1526.93C1527.26 4.89333 1527.44 4.22333 1527.46 3.41L1527.52 0.44H1533.43V5.42H1534.44ZM1529.09 3.42C1529.07 4.24667 1528.91 4.91333 1528.62 5.42H1531.66V2.02L1529.12 2.03L1529.09 3.42ZM1541.32 0.44V1.97H1537.13V2.96H1541.12V4.47H1537.13V5.47H1541.32V7H1535.36V0.44H1541.32ZM1549.11 7H1547.34V2.02L1544.84 2.03L1544.79 4.22C1544.75 6.07333 1543.97 7 1542.46 7H1541.88V5.42H1542.12C1542.49 5.42 1542.76 5.32 1542.91 5.12C1543.07 4.92 1543.16 4.57333 1543.17 4.08L1543.24 0.44H1549.11V7ZM1557.46 6.73V7H1555.71L1555.2 5.79H1552.14L1551.63 7H1549.88V6.73L1552.69 0.44H1554.65L1557.46 6.73ZM1554.58 4.3L1553.67 2.13L1552.76 4.3H1554.58ZM1559.99 0.44V2.93H1563.22V0.44H1564.99V7H1563.22V4.51H1559.99V7H1558.22V0.44H1559.99ZM1570.09 7.13C1569.29 7.13 1568.59 6.99333 1567.99 6.72C1567.39 6.44 1566.92 6.04667 1566.6 5.54C1566.27 5.02667 1566.11 4.43333 1566.11 3.76V3.69C1566.11 3.01 1566.27 2.41667 1566.6 1.91C1566.92 1.39667 1567.39 1.00333 1567.99 0.73C1568.59 0.45 1569.29 0.31 1570.09 0.31C1570.89 0.31 1571.6 0.45 1572.2 0.73C1572.8 1.00333 1573.26 1.39667 1573.59 1.91C1573.91 2.41667 1574.08 3.01 1574.08 3.69V3.76C1574.08 4.44 1573.91 5.03333 1573.59 5.54C1573.26 6.04667 1572.8 6.44 1572.2 6.72C1571.6 6.99333 1570.89 7.13 1570.09 7.13ZM1570.09 5.48C1571.55 5.48 1572.28 4.91667 1572.28 3.79V3.67C1572.28 3.11 1572.09 2.68667 1571.72 2.4C1571.35 2.10667 1570.81 1.96 1570.09 1.96C1569.38 1.96 1568.84 2.10667 1568.47 2.4C1568.09 2.69333 1567.91 3.11667 1567.91 3.67V3.79C1567.91 4.34333 1568.09 4.76333 1568.46 5.05C1568.82 5.33667 1569.37 5.48 1570.09 5.48ZM1584.97 3.65C1585.26 3.80333 1585.49 4 1585.64 4.24C1585.79 4.48 1585.87 4.76 1585.87 5.08V5.18C1585.87 5.74667 1585.65 6.19333 1585.2 6.52C1584.76 6.84 1584.15 7 1583.37 7H1579.19V0.44H1583.17C1583.96 0.44 1584.58 0.593333 1585.01 0.9C1585.44 1.20667 1585.66 1.64333 1585.66 2.21V2.31C1585.66 2.88333 1585.43 3.33 1584.97 3.65ZM1580.96 1.96V3H1583.17C1583.42 3 1583.6 2.96333 1583.71 2.89C1583.83 2.81 1583.89 2.69 1583.89 2.53V2.43C1583.89 2.11667 1583.65 1.96 1583.17 1.96H1580.96ZM1584.06 4.88C1584.06 4.55333 1583.82 4.39 1583.33 4.39H1580.96V5.48H1583.33C1583.82 5.48 1584.06 5.31333 1584.06 4.98V4.88ZM1680.39 7.13C1679.58 7.13 1678.87 6.99333 1678.26 6.72C1677.65 6.44 1677.18 6.04667 1676.85 5.54C1676.52 5.03333 1676.36 4.44 1676.36 3.76V3.69C1676.36 3.01 1676.52 2.41667 1676.85 1.91C1677.18 1.39667 1677.65 1.00333 1678.26 0.73C1678.87 0.45 1679.58 0.31 1680.39 0.31C1681.14 0.31 1681.82 0.433333 1682.42 0.68C1683.02 0.926666 1683.49 1.26667 1683.82 1.7C1684.16 2.13333 1684.33 2.62333 1684.33 3.17V3.25H1682.52V3.17C1682.52 2.80333 1682.32 2.51 1681.93 2.29C1681.54 2.07 1681.03 1.96 1680.39 1.96C1678.9 1.96 1678.16 2.53 1678.16 3.67V3.79C1678.16 4.35667 1678.34 4.78 1678.71 5.06C1679.08 5.34 1679.64 5.48 1680.39 5.48C1681.05 5.48 1681.57 5.37333 1681.95 5.16C1682.33 4.94667 1682.52 4.65333 1682.52 4.28V4.21H1684.33V4.28C1684.33 4.82667 1684.16 5.31667 1683.82 5.75C1683.49 6.18333 1683.02 6.52333 1682.42 6.77C1681.82 7.01 1681.14 7.13 1680.39 7.13ZM1692.77 5.42V8.33H1691V7H1686.2V8.33H1684.43V5.42H1685.26C1685.59 4.89333 1685.77 4.22333 1685.79 3.41L1685.85 0.44H1691.76V5.42H1692.77ZM1687.42 3.42C1687.4 4.24667 1687.24 4.91333 1686.95 5.42H1689.99V2.02L1687.45 2.03L1687.42 3.42ZM1699.65 0.44V1.97H1695.46V2.96H1699.45V4.47H1695.46V5.47H1699.65V7H1693.69V0.44H1699.65ZM1707.44 7H1705.67V2.02L1703.17 2.03L1703.12 4.22C1703.08 6.07333 1702.3 7 1700.79 7H1700.21V5.42H1700.45C1700.82 5.42 1701.09 5.32 1701.24 5.12C1701.4 4.92 1701.49 4.57333 1701.5 4.08L1701.57 0.44H1707.44V7ZM1715.79 6.73V7H1714.04L1713.53 5.79H1710.47L1709.96 7H1708.21V6.73L1711.02 0.44H1712.98L1715.79 6.73ZM1712.91 4.3L1712 2.13L1711.09 4.3H1712.91ZM1718.32 0.44V2.93H1721.55V0.44H1723.32V7H1721.55V4.51H1718.32V7H1716.55V0.44H1718.32ZM1728.42 7.13C1727.62 7.13 1726.92 6.99333 1726.32 6.72C1725.72 6.44 1725.25 6.04667 1724.93 5.54C1724.6 5.02667 1724.44 4.43333 1724.44 3.76V3.69C1724.44 3.01 1724.6 2.41667 1724.93 1.91C1725.25 1.39667 1725.72 1.00333 1726.32 0.73C1726.92 0.45 1727.62 0.31 1728.42 0.31C1729.22 0.31 1729.93 0.45 1730.53 0.73C1731.13 1.00333 1731.59 1.39667 1731.92 1.91C1732.24 2.41667 1732.41 3.01 1732.41 3.69V3.76C1732.41 4.44 1732.24 5.03333 1731.92 5.54C1731.59 6.04667 1731.13 6.44 1730.53 6.72C1729.93 6.99333 1729.22 7.13 1728.42 7.13ZM1728.42 5.48C1729.88 5.48 1730.61 4.91667 1730.61 3.79V3.67C1730.61 3.11 1730.42 2.68667 1730.05 2.4C1729.68 2.10667 1729.14 1.96 1728.42 1.96C1727.71 1.96 1727.17 2.10667 1726.8 2.4C1726.42 2.69333 1726.24 3.11667 1726.24 3.67V3.79C1726.24 4.34333 1726.42 4.76333 1726.79 5.05C1727.15 5.33667 1727.7 5.48 1728.42 5.48ZM1743.3 3.65C1743.59 3.80333 1743.82 4 1743.97 4.24C1744.12 4.48 1744.2 4.76 1744.2 5.08V5.18C1744.2 5.74667 1743.98 6.19333 1743.53 6.52C1743.09 6.84 1742.48 7 1741.7 7H1737.52V0.44H1741.5C1742.29 0.44 1742.91 0.593333 1743.34 0.9C1743.77 1.20667 1743.99 1.64333 1743.99 2.21V2.31C1743.99 2.88333 1743.76 3.33 1743.3 3.65ZM1739.29 1.96V3H1741.5C1741.75 3 1741.93 2.96333 1742.04 2.89C1742.16 2.81 1742.22 2.69 1742.22 2.53V2.43C1742.22 2.11667 1741.98 1.96 1741.5 1.96H1739.29ZM1742.39 4.88C1742.39 4.55333 1742.15 4.39 1741.66 4.39H1739.29V5.48H1741.66C1742.15 5.48 1742.39 5.31333 1742.39 4.98V4.88ZM1838.72 7.13C1837.91 7.13 1837.2 6.99333 1836.59 6.72C1835.98 6.44 1835.51 6.04667 1835.18 5.54C1834.85 5.03333 1834.69 4.44 1834.69 3.76V3.69C1834.69 3.01 1834.85 2.41667 1835.18 1.91C1835.51 1.39667 1835.98 1.00333 1836.59 0.73C1837.2 0.45 1837.91 0.31 1838.72 0.31C1839.47 0.31 1840.15 0.433333 1840.75 0.68C1841.35 0.926666 1841.82 1.26667 1842.15 1.7C1842.49 2.13333 1842.66 2.62333 1842.66 3.17V3.25H1840.85V3.17C1840.85 2.80333 1840.65 2.51 1840.26 2.29C1839.87 2.07 1839.36 1.96 1838.72 1.96C1837.23 1.96 1836.49 2.53 1836.49 3.67V3.79C1836.49 4.35667 1836.67 4.78 1837.04 5.06C1837.41 5.34 1837.97 5.48 1838.72 5.48C1839.38 5.48 1839.9 5.37333 1840.28 5.16C1840.66 4.94667 1840.85 4.65333 1840.85 4.28V4.21H1842.66V4.28C1842.66 4.82667 1842.49 5.31667 1842.15 5.75C1841.82 6.18333 1841.35 6.52333 1840.75 6.77C1840.15 7.01 1839.47 7.13 1838.72 7.13ZM1851.1 5.42V8.33H1849.33V7H1844.53V8.33H1842.76V5.42H1843.59C1843.92 4.89333 1844.1 4.22333 1844.12 3.41L1844.18 0.44H1850.09V5.42H1851.1ZM1845.75 3.42C1845.73 4.24667 1845.57 4.91333 1845.28 5.42H1848.32V2.02L1845.78 2.03L1845.75 3.42ZM1857.98 0.44V1.97H1853.79V2.96H1857.78V4.47H1853.79V5.47H1857.98V7H1852.02V0.44H1857.98ZM1865.77 7H1864V2.02L1861.5 2.03L1861.45 4.22C1861.41 6.07333 1860.63 7 1859.12 7H1858.54V5.42H1858.78C1859.15 5.42 1859.42 5.32 1859.57 5.12C1859.73 4.92 1859.82 4.57333 1859.83 4.08L1859.9 0.44H1865.77V7ZM1874.12 6.73V7H1872.37L1871.86 5.79H1868.8L1868.29 7H1866.54V6.73L1869.35 0.44H1871.31L1874.12 6.73ZM1871.24 4.3L1870.33 2.13L1869.42 4.3H1871.24ZM1876.65 0.44V2.93H1879.88V0.44H1881.65V7H1879.88V4.51H1876.65V7H1874.88V0.44H1876.65ZM1886.75 7.13C1885.95 7.13 1885.25 6.99333 1884.65 6.72C1884.05 6.44 1883.58 6.04667 1883.26 5.54C1882.93 5.02667 1882.77 4.43333 1882.77 3.76V3.69C1882.77 3.01 1882.93 2.41667 1883.26 1.91C1883.58 1.39667 1884.05 1.00333 1884.65 0.73C1885.25 0.45 1885.95 0.31 1886.75 0.31C1887.55 0.31 1888.26 0.45 1888.86 0.73C1889.46 1.00333 1889.92 1.39667 1890.25 1.91C1890.57 2.41667 1890.74 3.01 1890.74 3.69V3.76C1890.74 4.44 1890.57 5.03333 1890.25 5.54C1889.92 6.04667 1889.46 6.44 1888.86 6.72C1888.26 6.99333 1887.55 7.13 1886.75 7.13ZM1886.75 5.48C1888.21 5.48 1888.94 4.91667 1888.94 3.79V3.67C1888.94 3.11 1888.75 2.68667 1888.38 2.4C1888.01 2.10667 1887.47 1.96 1886.75 1.96C1886.04 1.96 1885.5 2.10667 1885.13 2.4C1884.75 2.69333 1884.57 3.11667 1884.57 3.67V3.79C1884.57 4.34333 1884.75 4.76333 1885.12 5.05C1885.48 5.33667 1886.03 5.48 1886.75 5.48ZM1901.63 3.65C1901.92 3.80333 1902.15 4 1902.3 4.24C1902.45 4.48 1902.53 4.76 1902.53 5.08V5.18C1902.53 5.74667 1902.31 6.19333 1901.86 6.52C1901.42 6.84 1900.81 7 1900.03 7H1895.85V0.44H1899.83C1900.62 0.44 1901.24 0.593333 1901.67 0.9C1902.1 1.20667 1902.32 1.64333 1902.32 2.21V2.31C1902.32 2.88333 1902.09 3.33 1901.63 3.65ZM1897.62 1.96V3H1899.83C1900.08 3 1900.26 2.96333 1900.37 2.89C1900.49 2.81 1900.55 2.69 1900.55 2.53V2.43C1900.55 2.11667 1900.31 1.96 1899.83 1.96H1897.62ZM1900.72 4.88C1900.72 4.55333 1900.48 4.39 1899.99 4.39H1897.62V5.48H1899.99C1900.48 5.48 1900.72 5.31333 1900.72 4.98V4.88Z" fill="#9090FF"/>
<path d="M-146.865 7.13C-147.672 7.13 -148.382 6.99333 -148.995 6.72C-149.602 6.44 -150.072 6.04667 -150.405 5.54C-150.732 5.03333 -150.895 4.44 -150.895 3.76V3.69C-150.895 3.01 -150.732 2.41667 -150.405 1.91C-150.072 1.39667 -149.602 1.00333 -148.995 0.73C-148.382 0.45 -147.672 0.31 -146.865 0.31C-146.112 0.31 -145.435 0.433333 -144.835 0.68C-144.235 0.926666 -143.768 1.26667 -143.435 1.7C-143.095 2.13333 -142.925 2.62333 -142.925 3.17V3.25H-144.735V3.17C-144.735 2.80333 -144.932 2.51 -145.325 2.29C-145.712 2.07 -146.225 1.96 -146.865 1.96C-148.352 1.96 -149.095 2.53 -149.095 3.67V3.79C-149.095 4.35667 -148.912 4.78 -148.545 5.06C-148.178 5.34 -147.618 5.48 -146.865 5.48C-146.205 5.48 -145.685 5.37333 -145.305 5.16C-144.925 4.94667 -144.735 4.65333 -144.735 4.28V4.21H-142.925V4.28C-142.925 4.82667 -143.095 5.31667 -143.435 5.75C-143.768 6.18333 -144.235 6.52333 -144.835 6.77C-145.435 7.01 -146.112 7.13 -146.865 7.13ZM-140.075 0.44V5.42H-135.825V7H-141.845V0.44H-140.075ZM-131.602 7.13C-132.396 7.13 -133.096 6.99333 -133.702 6.72C-134.302 6.44 -134.766 6.04667 -135.092 5.54C-135.419 5.02667 -135.582 4.43333 -135.582 3.76V3.69C-135.582 3.01 -135.419 2.41667 -135.092 1.91C-134.766 1.39667 -134.302 1.00333 -133.702 0.73C-133.096 0.45 -132.396 0.31 -131.602 0.31C-130.796 0.31 -130.092 0.45 -129.492 0.73C-128.892 1.00333 -128.429 1.39667 -128.102 1.91C-127.776 2.41667 -127.612 3.01 -127.612 3.69V3.76C-127.612 4.44 -127.776 5.03333 -128.102 5.54C-128.429 6.04667 -128.892 6.44 -129.492 6.72C-130.092 6.99333 -130.796 7.13 -131.602 7.13ZM-131.602 5.48C-130.142 5.48 -129.412 4.91667 -129.412 3.79V3.67C-129.412 3.11 -129.599 2.68667 -129.972 2.4C-130.339 2.10667 -130.882 1.96 -131.602 1.96C-132.309 1.96 -132.849 2.10667 -133.222 2.4C-133.596 2.69333 -133.782 3.11667 -133.782 3.67V3.79C-133.782 4.34333 -133.599 4.76333 -133.232 5.05C-132.866 5.33667 -132.322 5.48 -131.602 5.48ZM-123.253 7.13C-123.926 7.13 -124.516 7 -125.023 6.74C-125.53 6.47333 -125.92 6.09667 -126.193 5.61C-126.466 5.12333 -126.603 4.56 -126.603 3.92V0.44H-124.833V3.95C-124.833 4.45 -124.7 4.83 -124.433 5.09C-124.166 5.35 -123.773 5.48 -123.253 5.48C-122.726 5.48 -122.33 5.35 -122.063 5.09C-121.796 4.83 -121.663 4.45 -121.663 3.95V0.44H-119.893V3.92C-119.893 4.56667 -120.033 5.13333 -120.313 5.62C-120.586 6.1 -120.976 6.47333 -121.483 6.74C-121.99 7 -122.58 7.13 -123.253 7.13ZM-115.213 0.44C-113.96 0.44 -113.017 0.713333 -112.383 1.26C-111.743 1.8 -111.423 2.60667 -111.423 3.68V3.77C-111.423 5.92333 -112.687 7 -115.213 7H-118.573V0.44H-115.213ZM-115.213 5.42C-114.52 5.42 -114.017 5.29 -113.703 5.03C-113.383 4.77 -113.223 4.36 -113.223 3.8V3.66C-113.223 3.10667 -113.387 2.69667 -113.713 2.43C-114.04 2.15667 -114.543 2.02 -115.223 2.02H-116.803V5.42H-115.213ZM-101.441 7H-103.181V2.9L-105.001 7H-106.751L-108.561 2.92V7H-110.311V0.44H-107.921L-105.871 5.02L-103.841 0.44H-101.441V7ZM-98.3485 0.44V7H-100.119V0.44H-98.3485ZM-95.2602 0.44V5.42H-91.0102V7H-97.0302V0.44H-95.2602ZM-88.395 0.44V5.42H-84.145V7H-90.165V0.44H-88.395ZM-70.3745 3.46V4.98H-80.1945V3.46H-70.3745ZM11.4652 7.13C10.6585 7.13 9.94849 6.99333 9.33516 6.72C8.72849 6.44 8.25849 6.04667 7.92516 5.54C7.59849 5.03333 7.43516 4.44 7.43516 3.76V3.69C7.43516 3.01 7.59849 2.41667 7.92516 1.91C8.25849 1.39667 8.72849 1.00333 9.33516 0.73C9.94849 0.45 10.6585 0.31 11.4652 0.31C12.2185 0.31 12.8952 0.433333 13.4952 0.68C14.0952 0.926666 14.5618 1.26667 14.8952 1.7C15.2352 2.13333 15.4052 2.62333 15.4052 3.17V3.25H13.5952V3.17C13.5952 2.80333 13.3985 2.51 13.0052 2.29C12.6185 2.07 12.1052 1.96 11.4652 1.96C9.97849 1.96 9.23516 2.53 9.23516 3.67V3.79C9.23516 4.35667 9.41849 4.78 9.78516 5.06C10.1518 5.34 10.7118 5.48 11.4652 5.48C12.1252 5.48 12.6452 5.37333 13.0252 5.16C13.4052 4.94667 13.5952 4.65333 13.5952 4.28V4.21H15.4052V4.28C15.4052 4.82667 15.2352 5.31667 14.8952 5.75C14.5618 6.18333 14.0952 6.52333 13.4952 6.77C12.8952 7.01 12.2185 7.13 11.4652 7.13ZM18.2554 0.44V5.42H22.5054V7H16.4854V0.44H18.2554ZM26.7277 7.13C25.9343 7.13 25.2343 6.99333 24.6277 6.72C24.0277 6.44 23.5643 6.04667 23.2377 5.54C22.911 5.02667 22.7477 4.43333 22.7477 3.76V3.69C22.7477 3.01 22.911 2.41667 23.2377 1.91C23.5643 1.39667 24.0277 1.00333 24.6277 0.73C25.2343 0.45 25.9343 0.31 26.7277 0.31C27.5343 0.31 28.2377 0.45 28.8377 0.73C29.4377 1.00333 29.901 1.39667 30.2277 1.91C30.5543 2.41667 30.7177 3.01 30.7177 3.69V3.76C30.7177 4.44 30.5543 5.03333 30.2277 5.54C29.901 6.04667 29.4377 6.44 28.8377 6.72C28.2377 6.99333 27.5343 7.13 26.7277 7.13ZM26.7277 5.48C28.1877 5.48 28.9177 4.91667 28.9177 3.79V3.67C28.9177 3.11 28.731 2.68667 28.3577 2.4C27.991 2.10667 27.4477 1.96 26.7277 1.96C26.021 1.96 25.481 2.10667 25.1077 2.4C24.7343 2.69333 24.5477 3.11667 24.5477 3.67V3.79C24.5477 4.34333 24.731 4.76333 25.0977 5.05C25.4643 5.33667 26.0077 5.48 26.7277 5.48ZM35.0772 7.13C34.4039 7.13 33.8139 7 33.3072 6.74C32.8005 6.47333 32.4105 6.09667 32.1372 5.61C31.8639 5.12333 31.7272 4.56 31.7272 3.92V0.44H33.4972V3.95C33.4972 4.45 33.6305 4.83 33.8972 5.09C34.1639 5.35 34.5572 5.48 35.0772 5.48C35.6039 5.48 36.0005 5.35 36.2672 5.09C36.5339 4.83 36.6672 4.45 36.6672 3.95V0.44H38.4372V3.92C38.4372 4.56667 38.2972 5.13333 38.0172 5.62C37.7439 6.1 37.3539 6.47333 36.8472 6.74C36.3405 7 35.7505 7.13 35.0772 7.13ZM43.1169 0.44C44.3702 0.44 45.3135 0.713333 45.9469 1.26C46.5869 1.8 46.9069 2.60667 46.9069 3.68V3.77C46.9069 5.92333 45.6435 7 43.1169 7H39.7569V0.44H43.1169ZM43.1169 5.42C43.8102 5.42 44.3135 5.29 44.6269 5.03C44.9469 4.77 45.1069 4.36 45.1069 3.8V3.66C45.1069 3.10667 44.9435 2.69667 44.6169 2.43C44.2902 2.15667 43.7869 2.02 43.1069 2.02H41.5269V5.42H43.1169ZM56.8886 7H55.1486V2.9L53.3286 7H51.5786L49.7686 2.92V7H48.0186V0.44H50.4086L52.4586 5.02L54.4886 0.44H56.8886V7ZM59.9816 0.44V7H58.2116V0.44H59.9816ZM63.0698 0.44V5.42H67.3198V7H61.2998V0.44H63.0698ZM69.9351 0.44V5.42H74.1851V7H68.1651V0.44H69.9351ZM87.9555 3.46V4.98H78.1355V3.46H87.9555ZM169.795 7.13C168.989 7.13 168.279 6.99333 167.665 6.72C167.059 6.44 166.589 6.04667 166.255 5.54C165.929 5.03333 165.765 4.44 165.765 3.76V3.69C165.765 3.01 165.929 2.41667 166.255 1.91C166.589 1.39667 167.059 1.00333 167.665 0.73C168.279 0.45 168.989 0.31 169.795 0.31C170.549 0.31 171.225 0.433333 171.825 0.68C172.425 0.926666 172.892 1.26667 173.225 1.7C173.565 2.13333 173.735 2.62333 173.735 3.17V3.25H171.925V3.17C171.925 2.80333 171.729 2.51 171.335 2.29C170.949 2.07 170.435 1.96 169.795 1.96C168.309 1.96 167.565 2.53 167.565 3.67V3.79C167.565 4.35667 167.749 4.78 168.115 5.06C168.482 5.34 169.042 5.48 169.795 5.48C170.455 5.48 170.975 5.37333 171.355 5.16C171.735 4.94667 171.925 4.65333 171.925 4.28V4.21H173.735V4.28C173.735 4.82667 173.565 5.31667 173.225 5.75C172.892 6.18333 172.425 6.52333 171.825 6.77C171.225 7.01 170.549 7.13 169.795 7.13ZM176.585 0.44V5.42H180.835V7H174.815V0.44H176.585ZM185.058 7.13C184.264 7.13 183.564 6.99333 182.958 6.72C182.358 6.44 181.894 6.04667 181.568 5.54C181.241 5.02667 181.078 4.43333 181.078 3.76V3.69C181.078 3.01 181.241 2.41667 181.568 1.91C181.894 1.39667 182.358 1.00333 182.958 0.73C183.564 0.45 184.264 0.31 185.058 0.31C185.864 0.31 186.568 0.45 187.168 0.73C187.768 1.00333 188.231 1.39667 188.558 1.91C188.884 2.41667 189.048 3.01 189.048 3.69V3.76C189.048 4.44 188.884 5.03333 188.558 5.54C188.231 6.04667 187.768 6.44 187.168 6.72C186.568 6.99333 185.864 7.13 185.058 7.13ZM185.058 5.48C186.518 5.48 187.248 4.91667 187.248 3.79V3.67C187.248 3.11 187.061 2.68667 186.688 2.4C186.321 2.10667 185.778 1.96 185.058 1.96C184.351 1.96 183.811 2.10667 183.438 2.4C183.064 2.69333 182.878 3.11667 182.878 3.67V3.79C182.878 4.34333 183.061 4.76333 183.428 5.05C183.794 5.33667 184.338 5.48 185.058 5.48ZM193.407 7.13C192.734 7.13 192.144 7 191.637 6.74C191.131 6.47333 190.741 6.09667 190.467 5.61C190.194 5.12333 190.057 4.56 190.057 3.92V0.44H191.827V3.95C191.827 4.45 191.961 4.83 192.227 5.09C192.494 5.35 192.887 5.48 193.407 5.48C193.934 5.48 194.331 5.35 194.597 5.09C194.864 4.83 194.997 4.45 194.997 3.95V0.44H196.767V3.92C196.767 4.56667 196.627 5.13333 196.347 5.62C196.074 6.1 195.684 6.47333 195.177 6.74C194.671 7 194.081 7.13 193.407 7.13ZM201.447 0.44C202.7 0.44 203.644 0.713333 204.277 1.26C204.917 1.8 205.237 2.60667 205.237 3.68V3.77C205.237 5.92333 203.974 7 201.447 7H198.087V0.44H201.447ZM201.447 5.42C202.14 5.42 202.644 5.29 202.957 5.03C203.277 4.77 203.437 4.36 203.437 3.8V3.66C203.437 3.10667 203.274 2.69667 202.947 2.43C202.62 2.15667 202.117 2.02 201.437 2.02H199.857V5.42H201.447ZM215.219 7H213.479V2.9L211.659 7H209.909L208.099 2.92V7H206.349V0.44H208.739L210.789 5.02L212.819 0.44H215.219V7ZM218.312 0.44V7H216.542V0.44H218.312ZM221.4 0.44V5.42H225.65V7H219.63V0.44H221.4ZM228.265 0.44V5.42H232.515V7H226.495V0.44H228.265ZM246.286 3.46V4.98H236.466V3.46H246.286ZM328.125 7.13C327.319 7.13 326.609 6.99333 325.995 6.72C325.389 6.44 324.919 6.04667 324.585 5.54C324.259 5.03333 324.095 4.44 324.095 3.76V3.69C324.095 3.01 324.259 2.41667 324.585 1.91C324.919 1.39667 325.389 1.00333 325.995 0.73C326.609 0.45 327.319 0.31 328.125 0.31C328.879 0.31 329.555 0.433333 330.155 0.68C330.755 0.926666 331.222 1.26667 331.555 1.7C331.895 2.13333 332.065 2.62333 332.065 3.17V3.25H330.255V3.17C330.255 2.80333 330.059 2.51 329.665 2.29C329.279 2.07 328.765 1.96 328.125 1.96C326.639 1.96 325.895 2.53 325.895 3.67V3.79C325.895 4.35667 326.079 4.78 326.445 5.06C326.812 5.34 327.372 5.48 328.125 5.48C328.785 5.48 329.305 5.37333 329.685 5.16C330.065 4.94667 330.255 4.65333 330.255 4.28V4.21H332.065V4.28C332.065 4.82667 331.895 5.31667 331.555 5.75C331.222 6.18333 330.755 6.52333 330.155 6.77C329.555 7.01 328.879 7.13 328.125 7.13ZM334.916 0.44V5.42H339.166V7H333.146V0.44H334.916ZM343.388 7.13C342.594 7.13 341.894 6.99333 341.288 6.72C340.688 6.44 340.224 6.04667 339.898 5.54C339.571 5.02667 339.408 4.43333 339.408 3.76V3.69C339.408 3.01 339.571 2.41667 339.898 1.91C340.224 1.39667 340.688 1.00333 341.288 0.73C341.894 0.45 342.594 0.31 343.388 0.31C344.194 0.31 344.898 0.45 345.498 0.73C346.098 1.00333 346.561 1.39667 346.888 1.91C347.214 2.41667 347.378 3.01 347.378 3.69V3.76C347.378 4.44 347.214 5.03333 346.888 5.54C346.561 6.04667 346.098 6.44 345.498 6.72C344.898 6.99333 344.194 7.13 343.388 7.13ZM343.388 5.48C344.848 5.48 345.578 4.91667 345.578 3.79V3.67C345.578 3.11 345.391 2.68667 345.018 2.4C344.651 2.10667 344.108 1.96 343.388 1.96C342.681 1.96 342.141 2.10667 341.768 2.4C341.394 2.69333 341.208 3.11667 341.208 3.67V3.79C341.208 4.34333 341.391 4.76333 341.758 5.05C342.124 5.33667 342.668 5.48 343.388 5.48ZM351.737 7.13C351.064 7.13 350.474 7 349.967 6.74C349.461 6.47333 349.071 6.09667 348.797 5.61C348.524 5.12333 348.387 4.56 348.387 3.92V0.44H350.157V3.95C350.157 4.45 350.291 4.83 350.557 5.09C350.824 5.35 351.217 5.48 351.737 5.48C352.264 5.48 352.661 5.35 352.927 5.09C353.194 4.83 353.327 4.45 353.327 3.95V0.44H355.097V3.92C355.097 4.56667 354.957 5.13333 354.677 5.62C354.404 6.1 354.014 6.47333 353.507 6.74C353.001 7 352.411 7.13 351.737 7.13ZM359.777 0.44C361.03 0.44 361.974 0.713333 362.607 1.26C363.247 1.8 363.567 2.60667 363.567 3.68V3.77C363.567 5.92333 362.304 7 359.777 7H356.417V0.44H359.777ZM359.777 5.42C360.47 5.42 360.974 5.29 361.287 5.03C361.607 4.77 361.767 4.36 361.767 3.8V3.66C361.767 3.10667 361.604 2.69667 361.277 2.43C360.95 2.15667 360.447 2.02 359.767 2.02H358.187V5.42H359.777ZM373.549 7H371.809V2.9L369.989 7H368.239L366.429 2.92V7H364.679V0.44H367.069L369.119 5.02L371.149 0.44H373.549V7ZM376.642 0.44V7H374.872V0.44H376.642ZM379.73 0.44V5.42H383.98V7H377.96V0.44H379.73ZM386.595 0.44V5.42H390.845V7H384.825V0.44H386.595ZM404.616 3.46V4.98H394.796V3.46H404.616ZM486.455 7.13C485.649 7.13 484.939 6.99333 484.325 6.72C483.719 6.44 483.249 6.04667 482.915 5.54C482.589 5.03333 482.425 4.44 482.425 3.76V3.69C482.425 3.01 482.589 2.41667 482.915 1.91C483.249 1.39667 483.719 1.00333 484.325 0.73C484.939 0.45 485.649 0.31 486.455 0.31C487.209 0.31 487.885 0.433333 488.485 0.68C489.085 0.926666 489.552 1.26667 489.885 1.7C490.225 2.13333 490.395 2.62333 490.395 3.17V3.25H488.585V3.17C488.585 2.80333 488.389 2.51 487.995 2.29C487.609 2.07 487.095 1.96 486.455 1.96C484.969 1.96 484.225 2.53 484.225 3.67V3.79C484.225 4.35667 484.409 4.78 484.775 5.06C485.142 5.34 485.702 5.48 486.455 5.48C487.115 5.48 487.635 5.37333 488.015 5.16C488.395 4.94667 488.585 4.65333 488.585 4.28V4.21H490.395V4.28C490.395 4.82667 490.225 5.31667 489.885 5.75C489.552 6.18333 489.085 6.52333 488.485 6.77C487.885 7.01 487.209 7.13 486.455 7.13ZM493.246 0.44V5.42H497.496V7H491.476V0.44H493.246ZM501.718 7.13C500.925 7.13 500.225 6.99333 499.618 6.72C499.018 6.44 498.555 6.04667 498.228 5.54C497.901 5.02667 497.738 4.43333 497.738 3.76V3.69C497.738 3.01 497.901 2.41667 498.228 1.91C498.555 1.39667 499.018 1.00333 499.618 0.73C500.225 0.45 500.925 0.31 501.718 0.31C502.525 0.31 503.228 0.45 503.828 0.73C504.428 1.00333 504.891 1.39667 505.218 1.91C505.545 2.41667 505.708 3.01 505.708 3.69V3.76C505.708 4.44 505.545 5.03333 505.218 5.54C504.891 6.04667 504.428 6.44 503.828 6.72C503.228 6.99333 502.525 7.13 501.718 7.13ZM501.718 5.48C503.178 5.48 503.908 4.91667 503.908 3.79V3.67C503.908 3.11 503.721 2.68667 503.348 2.4C502.981 2.10667 502.438 1.96 501.718 1.96C501.011 1.96 500.471 2.10667 500.098 2.4C499.725 2.69333 499.538 3.11667 499.538 3.67V3.79C499.538 4.34333 499.721 4.76333 500.088 5.05C500.455 5.33667 500.998 5.48 501.718 5.48ZM510.067 7.13C509.394 7.13 508.804 7 508.297 6.74C507.791 6.47333 507.401 6.09667 507.127 5.61C506.854 5.12333 506.717 4.56 506.717 3.92V0.44H508.487V3.95C508.487 4.45 508.621 4.83 508.887 5.09C509.154 5.35 509.547 5.48 510.067 5.48C510.594 5.48 510.991 5.35 511.257 5.09C511.524 4.83 511.657 4.45 511.657 3.95V0.44H513.427V3.92C513.427 4.56667 513.287 5.13333 513.007 5.62C512.734 6.1 512.344 6.47333 511.837 6.74C511.331 7 510.741 7.13 510.067 7.13ZM518.107 0.44C519.36 0.44 520.304 0.713333 520.937 1.26C521.577 1.8 521.897 2.60667 521.897 3.68V3.77C521.897 5.92333 520.634 7 518.107 7H514.747V0.44H518.107ZM518.107 5.42C518.8 5.42 519.304 5.29 519.617 5.03C519.937 4.77 520.097 4.36 520.097 3.8V3.66C520.097 3.10667 519.934 2.69667 519.607 2.43C519.28 2.15667 518.777 2.02 518.097 2.02H516.517V5.42H518.107ZM531.879 7H530.139V2.9L528.319 7H526.569L524.759 2.92V7H523.009V0.44H525.399L527.449 5.02L529.479 0.44H531.879V7ZM534.972 0.44V7H533.202V0.44H534.972ZM538.06 0.44V5.42H542.31V7H536.29V0.44H538.06ZM544.925 0.44V5.42H549.175V7H543.155V0.44H544.925ZM562.946 3.46V4.98H553.126V3.46H562.946ZM644.785 7.13C643.979 7.13 643.269 6.99333 642.655 6.72C642.049 6.44 641.579 6.04667 641.245 5.54C640.919 5.03333 640.755 4.44 640.755 3.76V3.69C640.755 3.01 640.919 2.41667 641.245 1.91C641.579 1.39667 642.049 1.00333 642.655 0.73C643.269 0.45 643.979 0.31 644.785 0.31C645.539 0.31 646.215 0.433333 646.815 0.68C647.415 0.926666 647.882 1.26667 648.215 1.7C648.555 2.13333 648.725 2.62333 648.725 3.17V3.25H646.915V3.17C646.915 2.80333 646.719 2.51 646.325 2.29C645.939 2.07 645.425 1.96 644.785 1.96C643.299 1.96 642.555 2.53 642.555 3.67V3.79C642.555 4.35667 642.739 4.78 643.105 5.06C643.472 5.34 644.032 5.48 644.785 5.48C645.445 5.48 645.965 5.37333 646.345 5.16C646.725 4.94667 646.915 4.65333 646.915 4.28V4.21H648.725V4.28C648.725 4.82667 648.555 5.31667 648.215 5.75C647.882 6.18333 647.415 6.52333 646.815 6.77C646.215 7.01 645.539 7.13 644.785 7.13ZM651.576 0.44V5.42H655.826V7H649.806V0.44H651.576ZM660.048 7.13C659.255 7.13 658.555 6.99333 657.948 6.72C657.348 6.44 656.885 6.04667 656.558 5.54C656.231 5.02667 656.068 4.43333 656.068 3.76V3.69C656.068 3.01 656.231 2.41667 656.558 1.91C656.885 1.39667 657.348 1.00333 657.948 0.73C658.555 0.45 659.255 0.31 660.048 0.31C660.855 0.31 661.558 0.45 662.158 0.73C662.758 1.00333 663.221 1.39667 663.548 1.91C663.875 2.41667 664.038 3.01 664.038 3.69V3.76C664.038 4.44 663.875 5.03333 663.548 5.54C663.221 6.04667 662.758 6.44 662.158 6.72C661.558 6.99333 660.855 7.13 660.048 7.13ZM660.048 5.48C661.508 5.48 662.238 4.91667 662.238 3.79V3.67C662.238 3.11 662.051 2.68667 661.678 2.4C661.311 2.10667 660.768 1.96 660.048 1.96C659.341 1.96 658.801 2.10667 658.428 2.4C658.055 2.69333 657.868 3.11667 657.868 3.67V3.79C657.868 4.34333 658.051 4.76333 658.418 5.05C658.785 5.33667 659.328 5.48 660.048 5.48ZM668.398 7.13C667.724 7.13 667.134 7 666.628 6.74C666.121 6.47333 665.731 6.09667 665.458 5.61C665.184 5.12333 665.048 4.56 665.048 3.92V0.44H666.818V3.95C666.818 4.45 666.951 4.83 667.218 5.09C667.484 5.35 667.878 5.48 668.398 5.48C668.924 5.48 669.321 5.35 669.588 5.09C669.854 4.83 669.988 4.45 669.988 3.95V0.44H671.758V3.92C671.758 4.56667 671.618 5.13333 671.338 5.62C671.064 6.1 670.674 6.47333 670.168 6.74C669.661 7 669.071 7.13 668.398 7.13ZM676.437 0.44C677.691 0.44 678.634 0.713333 679.267 1.26C679.907 1.8 680.227 2.60667 680.227 3.68V3.77C680.227 5.92333 678.964 7 676.437 7H673.077V0.44H676.437ZM676.437 5.42C677.131 5.42 677.634 5.29 677.947 5.03C678.267 4.77 678.427 4.36 678.427 3.8V3.66C678.427 3.10667 678.264 2.69667 677.937 2.43C677.611 2.15667 677.107 2.02 676.427 2.02H674.847V5.42H676.437ZM690.209 7H688.469V2.9L686.649 7H684.899L683.089 2.92V7H681.339V0.44H683.729L685.779 5.02L687.809 0.44H690.209V7ZM693.302 0.44V7H691.532V0.44H693.302ZM696.39 0.44V5.42H700.64V7H694.62V0.44H696.39ZM703.255 0.44V5.42H707.505V7H701.485V0.44H703.255ZM721.276 3.46V4.98H711.456V3.46H721.276ZM803.116 7.13C802.309 7.13 801.599 6.99333 800.986 6.72C800.379 6.44 799.909 6.04667 799.576 5.54C799.249 5.03333 799.086 4.44 799.086 3.76V3.69C799.086 3.01 799.249 2.41667 799.576 1.91C799.909 1.39667 800.379 1.00333 800.986 0.73C801.599 0.45 802.309 0.31 803.116 0.31C803.869 0.31 804.546 0.433333 805.146 0.68C805.746 0.926666 806.212 1.26667 806.546 1.7C806.886 2.13333 807.056 2.62333 807.056 3.17V3.25H805.246V3.17C805.246 2.80333 805.049 2.51 804.656 2.29C804.269 2.07 803.756 1.96 803.116 1.96C801.629 1.96 800.886 2.53 800.886 3.67V3.79C800.886 4.35667 801.069 4.78 801.436 5.06C801.802 5.34 802.362 5.48 803.116 5.48C803.776 5.48 804.296 5.37333 804.676 5.16C805.056 4.94667 805.246 4.65333 805.246 4.28V4.21H807.056V4.28C807.056 4.82667 806.886 5.31667 806.546 5.75C806.212 6.18333 805.746 6.52333 805.146 6.77C804.546 7.01 803.869 7.13 803.116 7.13ZM809.906 0.44V5.42H814.156V7H808.136V0.44H809.906ZM818.378 7.13C817.585 7.13 816.885 6.99333 816.278 6.72C815.678 6.44 815.215 6.04667 814.888 5.54C814.561 5.02667 814.398 4.43333 814.398 3.76V3.69C814.398 3.01 814.561 2.41667 814.888 1.91C815.215 1.39667 815.678 1.00333 816.278 0.73C816.885 0.45 817.585 0.31 818.378 0.31C819.185 0.31 819.888 0.45 820.488 0.73C821.088 1.00333 821.551 1.39667 821.878 1.91C822.205 2.41667 822.368 3.01 822.368 3.69V3.76C822.368 4.44 822.205 5.03333 821.878 5.54C821.551 6.04667 821.088 6.44 820.488 6.72C819.888 6.99333 819.185 7.13 818.378 7.13ZM818.378 5.48C819.838 5.48 820.568 4.91667 820.568 3.79V3.67C820.568 3.11 820.381 2.68667 820.008 2.4C819.641 2.10667 819.098 1.96 818.378 1.96C817.671 1.96 817.131 2.10667 816.758 2.4C816.385 2.69333 816.198 3.11667 816.198 3.67V3.79C816.198 4.34333 816.381 4.76333 816.748 5.05C817.115 5.33667 817.658 5.48 818.378 5.48ZM826.728 7.13C826.054 7.13 825.464 7 824.958 6.74C824.451 6.47333 824.061 6.09667 823.788 5.61C823.514 5.12333 823.378 4.56 823.378 3.92V0.44H825.148V3.95C825.148 4.45 825.281 4.83 825.548 5.09C825.814 5.35 826.208 5.48 826.728 5.48C827.254 5.48 827.651 5.35 827.918 5.09C828.184 4.83 828.318 4.45 828.318 3.95V0.44H830.088V3.92C830.088 4.56667 829.948 5.13333 829.668 5.62C829.394 6.1 829.004 6.47333 828.498 6.74C827.991 7 827.401 7.13 826.728 7.13ZM834.767 0.44C836.021 0.44 836.964 0.713333 837.597 1.26C838.237 1.8 838.557 2.60667 838.557 3.68V3.77C838.557 5.92333 837.294 7 834.767 7H831.407V0.44H834.767ZM834.767 5.42C835.461 5.42 835.964 5.29 836.277 5.03C836.597 4.77 836.757 4.36 836.757 3.8V3.66C836.757 3.10667 836.594 2.69667 836.267 2.43C835.941 2.15667 835.437 2.02 834.757 2.02H833.177V5.42H834.767ZM848.539 7H846.799V2.9L844.979 7H843.229L841.419 2.92V7H839.669V0.44H842.059L844.109 5.02L846.139 0.44H848.539V7ZM851.632 0.44V7H849.862V0.44H851.632ZM854.72 0.44V5.42H858.97V7H852.95V0.44H854.72ZM861.585 0.44V5.42H865.835V7H859.815V0.44H861.585ZM879.606 3.46V4.98H869.786V3.46H879.606ZM961.446 7.13C960.639 7.13 959.929 6.99333 959.316 6.72C958.709 6.44 958.239 6.04667 957.906 5.54C957.579 5.03333 957.416 4.44 957.416 3.76V3.69C957.416 3.01 957.579 2.41667 957.906 1.91C958.239 1.39667 958.709 1.00333 959.316 0.73C959.929 0.45 960.639 0.31 961.446 0.31C962.199 0.31 962.876 0.433333 963.476 0.68C964.076 0.926666 964.542 1.26667 964.876 1.7C965.216 2.13333 965.386 2.62333 965.386 3.17V3.25H963.576V3.17C963.576 2.80333 963.379 2.51 962.986 2.29C962.599 2.07 962.086 1.96 961.446 1.96C959.959 1.96 959.216 2.53 959.216 3.67V3.79C959.216 4.35667 959.399 4.78 959.766 5.06C960.132 5.34 960.692 5.48 961.446 5.48C962.106 5.48 962.626 5.37333 963.006 5.16C963.386 4.94667 963.576 4.65333 963.576 4.28V4.21H965.386V4.28C965.386 4.82667 965.216 5.31667 964.876 5.75C964.542 6.18333 964.076 6.52333 963.476 6.77C962.876 7.01 962.199 7.13 961.446 7.13ZM968.236 0.44V5.42H972.486V7H966.466V0.44H968.236ZM976.708 7.13C975.915 7.13 975.215 6.99333 974.608 6.72C974.008 6.44 973.545 6.04667 973.218 5.54C972.891 5.02667 972.728 4.43333 972.728 3.76V3.69C972.728 3.01 972.891 2.41667 973.218 1.91C973.545 1.39667 974.008 1.00333 974.608 0.73C975.215 0.45 975.915 0.31 976.708 0.31C977.515 0.31 978.218 0.45 978.818 0.73C979.418 1.00333 979.881 1.39667 980.208 1.91C980.535 2.41667 980.698 3.01 980.698 3.69V3.76C980.698 4.44 980.535 5.03333 980.208 5.54C979.881 6.04667 979.418 6.44 978.818 6.72C978.218 6.99333 977.515 7.13 976.708 7.13ZM976.708 5.48C978.168 5.48 978.898 4.91667 978.898 3.79V3.67C978.898 3.11 978.711 2.68667 978.338 2.4C977.971 2.10667 977.428 1.96 976.708 1.96C976.001 1.96 975.461 2.10667 975.088 2.4C974.715 2.69333 974.528 3.11667 974.528 3.67V3.79C974.528 4.34333 974.711 4.76333 975.078 5.05C975.445 5.33667 975.988 5.48 976.708 5.48ZM985.058 7.13C984.384 7.13 983.794 7 983.288 6.74C982.781 6.47333 982.391 6.09667 982.118 5.61C981.844 5.12333 981.708 4.56 981.708 3.92V0.44H983.478V3.95C983.478 4.45 983.611 4.83 983.878 5.09C984.144 5.35 984.538 5.48 985.058 5.48C985.584 5.48 985.981 5.35 986.248 5.09C986.514 4.83 986.648 4.45 986.648 3.95V0.44H988.418V3.92C988.418 4.56667 988.278 5.13333 987.998 5.62C987.724 6.1 987.334 6.47333 986.828 6.74C986.321 7 985.731 7.13 985.058 7.13ZM993.097 0.44C994.351 0.44 995.294 0.713333 995.927 1.26C996.567 1.8 996.887 2.60667 996.887 3.68V3.77C996.887 5.92333 995.624 7 993.097 7H989.737V0.44H993.097ZM993.097 5.42C993.791 5.42 994.294 5.29 994.607 5.03C994.927 4.77 995.087 4.36 995.087 3.8V3.66C995.087 3.10667 994.924 2.69667 994.597 2.43C994.271 2.15667 993.767 2.02 993.087 2.02H991.507V5.42H993.097ZM1006.87 7H1005.13V2.9L1003.31 7H1001.56L999.749 2.92V7H997.999V0.44H1000.39L1002.44 5.02L1004.47 0.44H1006.87V7ZM1009.96 0.44V7H1008.19V0.44H1009.96ZM1013.05 0.44V5.42H1017.3V7H1011.28V0.44H1013.05ZM1019.92 0.44V5.42H1024.17V7H1018.15V0.44H1019.92ZM1037.94 3.46V4.98H1028.12V3.46H1037.94ZM1119.78 7.13C1118.97 7.13 1118.26 6.99333 1117.65 6.72C1117.04 6.44 1116.57 6.04667 1116.24 5.54C1115.91 5.03333 1115.75 4.44 1115.75 3.76V3.69C1115.75 3.01 1115.91 2.41667 1116.24 1.91C1116.57 1.39667 1117.04 1.00333 1117.65 0.73C1118.26 0.45 1118.97 0.31 1119.78 0.31C1120.53 0.31 1121.21 0.433333 1121.81 0.68C1122.41 0.926666 1122.87 1.26667 1123.21 1.7C1123.55 2.13333 1123.72 2.62333 1123.72 3.17V3.25H1121.91V3.17C1121.91 2.80333 1121.71 2.51 1121.32 2.29C1120.93 2.07 1120.42 1.96 1119.78 1.96C1118.29 1.96 1117.55 2.53 1117.55 3.67V3.79C1117.55 4.35667 1117.73 4.78 1118.1 5.06C1118.46 5.34 1119.02 5.48 1119.78 5.48C1120.44 5.48 1120.96 5.37333 1121.34 5.16C1121.72 4.94667 1121.91 4.65333 1121.91 4.28V4.21H1123.72V4.28C1123.72 4.82667 1123.55 5.31667 1123.21 5.75C1122.87 6.18333 1122.41 6.52333 1121.81 6.77C1121.21 7.01 1120.53 7.13 1119.78 7.13ZM1126.57 0.44V5.42H1130.82V7H1124.8V0.44H1126.57ZM1135.04 7.13C1134.24 7.13 1133.54 6.99333 1132.94 6.72C1132.34 6.44 1131.87 6.04667 1131.55 5.54C1131.22 5.02667 1131.06 4.43333 1131.06 3.76V3.69C1131.06 3.01 1131.22 2.41667 1131.55 1.91C1131.87 1.39667 1132.34 1.00333 1132.94 0.73C1133.54 0.45 1134.24 0.31 1135.04 0.31C1135.84 0.31 1136.55 0.45 1137.15 0.73C1137.75 1.00333 1138.21 1.39667 1138.54 1.91C1138.86 2.41667 1139.03 3.01 1139.03 3.69V3.76C1139.03 4.44 1138.86 5.03333 1138.54 5.54C1138.21 6.04667 1137.75 6.44 1137.15 6.72C1136.55 6.99333 1135.84 7.13 1135.04 7.13ZM1135.04 5.48C1136.5 5.48 1137.23 4.91667 1137.23 3.79V3.67C1137.23 3.11 1137.04 2.68667 1136.67 2.4C1136.3 2.10667 1135.76 1.96 1135.04 1.96C1134.33 1.96 1133.79 2.10667 1133.42 2.4C1133.04 2.69333 1132.86 3.11667 1132.86 3.67V3.79C1132.86 4.34333 1133.04 4.76333 1133.41 5.05C1133.77 5.33667 1134.32 5.48 1135.04 5.48ZM1143.39 7.13C1142.71 7.13 1142.12 7 1141.62 6.74C1141.11 6.47333 1140.72 6.09667 1140.45 5.61C1140.17 5.12333 1140.04 4.56 1140.04 3.92V0.44H1141.81V3.95C1141.81 4.45 1141.94 4.83 1142.21 5.09C1142.47 5.35 1142.87 5.48 1143.39 5.48C1143.91 5.48 1144.31 5.35 1144.58 5.09C1144.84 4.83 1144.98 4.45 1144.98 3.95V0.44H1146.75V3.92C1146.75 4.56667 1146.61 5.13333 1146.33 5.62C1146.05 6.1 1145.66 6.47333 1145.16 6.74C1144.65 7 1144.06 7.13 1143.39 7.13ZM1151.43 0.44C1152.68 0.44 1153.62 0.713333 1154.26 1.26C1154.9 1.8 1155.22 2.60667 1155.22 3.68V3.77C1155.22 5.92333 1153.95 7 1151.43 7H1148.07V0.44H1151.43ZM1151.43 5.42C1152.12 5.42 1152.62 5.29 1152.94 5.03C1153.26 4.77 1153.42 4.36 1153.42 3.8V3.66C1153.42 3.10667 1153.25 2.69667 1152.93 2.43C1152.6 2.15667 1152.1 2.02 1151.42 2.02H1149.84V5.42H1151.43ZM1165.2 7H1163.46V2.9L1161.64 7H1159.89L1158.08 2.92V7H1156.33V0.44H1158.72L1160.77 5.02L1162.8 0.44H1165.2V7ZM1168.29 0.44V7H1166.52V0.44H1168.29ZM1171.38 0.44V5.42H1175.63V7H1169.61V0.44H1171.38ZM1178.25 0.44V5.42H1182.5V7H1176.48V0.44H1178.25ZM1196.27 3.46V4.98H1186.45V3.46H1196.27ZM1278.11 7.13C1277.3 7.13 1276.59 6.99333 1275.98 6.72C1275.37 6.44 1274.9 6.04667 1274.57 5.54C1274.24 5.03333 1274.08 4.44 1274.08 3.76V3.69C1274.08 3.01 1274.24 2.41667 1274.57 1.91C1274.9 1.39667 1275.37 1.00333 1275.98 0.73C1276.59 0.45 1277.3 0.31 1278.11 0.31C1278.86 0.31 1279.54 0.433333 1280.14 0.68C1280.74 0.926666 1281.2 1.26667 1281.54 1.7C1281.88 2.13333 1282.05 2.62333 1282.05 3.17V3.25H1280.24V3.17C1280.24 2.80333 1280.04 2.51 1279.65 2.29C1279.26 2.07 1278.75 1.96 1278.11 1.96C1276.62 1.96 1275.88 2.53 1275.88 3.67V3.79C1275.88 4.35667 1276.06 4.78 1276.43 5.06C1276.79 5.34 1277.35 5.48 1278.11 5.48C1278.77 5.48 1279.29 5.37333 1279.67 5.16C1280.05 4.94667 1280.24 4.65333 1280.24 4.28V4.21H1282.05V4.28C1282.05 4.82667 1281.88 5.31667 1281.54 5.75C1281.2 6.18333 1280.74 6.52333 1280.14 6.77C1279.54 7.01 1278.86 7.13 1278.11 7.13ZM1284.9 0.44V5.42H1289.15V7H1283.13V0.44H1284.9ZM1293.37 7.13C1292.57 7.13 1291.87 6.99333 1291.27 6.72C1290.67 6.44 1290.2 6.04667 1289.88 5.54C1289.55 5.02667 1289.39 4.43333 1289.39 3.76V3.69C1289.39 3.01 1289.55 2.41667 1289.88 1.91C1290.2 1.39667 1290.67 1.00333 1291.27 0.73C1291.87 0.45 1292.57 0.31 1293.37 0.31C1294.17 0.31 1294.88 0.45 1295.48 0.73C1296.08 1.00333 1296.54 1.39667 1296.87 1.91C1297.19 2.41667 1297.36 3.01 1297.36 3.69V3.76C1297.36 4.44 1297.19 5.03333 1296.87 5.54C1296.54 6.04667 1296.08 6.44 1295.48 6.72C1294.88 6.99333 1294.17 7.13 1293.37 7.13ZM1293.37 5.48C1294.83 5.48 1295.56 4.91667 1295.56 3.79V3.67C1295.56 3.11 1295.37 2.68667 1295 2.4C1294.63 2.10667 1294.09 1.96 1293.37 1.96C1292.66 1.96 1292.12 2.10667 1291.75 2.4C1291.37 2.69333 1291.19 3.11667 1291.19 3.67V3.79C1291.19 4.34333 1291.37 4.76333 1291.74 5.05C1292.1 5.33667 1292.65 5.48 1293.37 5.48ZM1301.72 7.13C1301.04 7.13 1300.45 7 1299.95 6.74C1299.44 6.47333 1299.05 6.09667 1298.78 5.61C1298.5 5.12333 1298.37 4.56 1298.37 3.92V0.44H1300.14V3.95C1300.14 4.45 1300.27 4.83 1300.54 5.09C1300.8 5.35 1301.2 5.48 1301.72 5.48C1302.24 5.48 1302.64 5.35 1302.91 5.09C1303.17 4.83 1303.31 4.45 1303.31 3.95V0.44H1305.08V3.92C1305.08 4.56667 1304.94 5.13333 1304.66 5.62C1304.38 6.1 1303.99 6.47333 1303.49 6.74C1302.98 7 1302.39 7.13 1301.72 7.13ZM1309.76 0.44C1311.01 0.44 1311.95 0.713333 1312.59 1.26C1313.23 1.8 1313.55 2.60667 1313.55 3.68V3.77C1313.55 5.92333 1312.28 7 1309.76 7H1306.4V0.44H1309.76ZM1309.76 5.42C1310.45 5.42 1310.95 5.29 1311.27 5.03C1311.59 4.77 1311.75 4.36 1311.75 3.8V3.66C1311.75 3.10667 1311.58 2.69667 1311.26 2.43C1310.93 2.15667 1310.43 2.02 1309.75 2.02H1308.17V5.42H1309.76ZM1323.53 7H1321.79V2.9L1319.97 7H1318.22L1316.41 2.92V7H1314.66V0.44H1317.05L1319.1 5.02L1321.13 0.44H1323.53V7ZM1326.62 0.44V7H1324.85V0.44H1326.62ZM1329.71 0.44V5.42H1333.96V7H1327.94V0.44H1329.71ZM1336.58 0.44V5.42H1340.83V7H1334.81V0.44H1336.58ZM1354.6 3.46V4.98H1344.78V3.46H1354.6ZM1436.44 7.13C1435.63 7.13 1434.92 6.99333 1434.31 6.72C1433.7 6.44 1433.23 6.04667 1432.9 5.54C1432.57 5.03333 1432.41 4.44 1432.41 3.76V3.69C1432.41 3.01 1432.57 2.41667 1432.9 1.91C1433.23 1.39667 1433.7 1.00333 1434.31 0.73C1434.92 0.45 1435.63 0.31 1436.44 0.31C1437.19 0.31 1437.87 0.433333 1438.47 0.68C1439.07 0.926666 1439.53 1.26667 1439.87 1.7C1440.21 2.13333 1440.38 2.62333 1440.38 3.17V3.25H1438.57V3.17C1438.57 2.80333 1438.37 2.51 1437.98 2.29C1437.59 2.07 1437.08 1.96 1436.44 1.96C1434.95 1.96 1434.21 2.53 1434.21 3.67V3.79C1434.21 4.35667 1434.39 4.78 1434.76 5.06C1435.12 5.34 1435.68 5.48 1436.44 5.48C1437.1 5.48 1437.62 5.37333 1438 5.16C1438.38 4.94667 1438.57 4.65333 1438.57 4.28V4.21H1440.38V4.28C1440.38 4.82667 1440.21 5.31667 1439.87 5.75C1439.53 6.18333 1439.07 6.52333 1438.47 6.77C1437.87 7.01 1437.19 7.13 1436.44 7.13ZM1443.23 0.44V5.42H1447.48V7H1441.46V0.44H1443.23ZM1451.7 7.13C1450.91 7.13 1450.21 6.99333 1449.6 6.72C1449 6.44 1448.54 6.04667 1448.21 5.54C1447.88 5.02667 1447.72 4.43333 1447.72 3.76V3.69C1447.72 3.01 1447.88 2.41667 1448.21 1.91C1448.54 1.39667 1449 1.00333 1449.6 0.73C1450.21 0.45 1450.91 0.31 1451.7 0.31C1452.51 0.31 1453.21 0.45 1453.81 0.73C1454.41 1.00333 1454.87 1.39667 1455.2 1.91C1455.53 2.41667 1455.69 3.01 1455.69 3.69V3.76C1455.69 4.44 1455.53 5.03333 1455.2 5.54C1454.87 6.04667 1454.41 6.44 1453.81 6.72C1453.21 6.99333 1452.51 7.13 1451.7 7.13ZM1451.7 5.48C1453.16 5.48 1453.89 4.91667 1453.89 3.79V3.67C1453.89 3.11 1453.7 2.68667 1453.33 2.4C1452.96 2.10667 1452.42 1.96 1451.7 1.96C1450.99 1.96 1450.45 2.10667 1450.08 2.4C1449.71 2.69333 1449.52 3.11667 1449.52 3.67V3.79C1449.52 4.34333 1449.7 4.76333 1450.07 5.05C1450.44 5.33667 1450.98 5.48 1451.7 5.48ZM1460.05 7.13C1459.37 7.13 1458.78 7 1458.28 6.74C1457.77 6.47333 1457.38 6.09667 1457.11 5.61C1456.83 5.12333 1456.7 4.56 1456.7 3.92V0.44H1458.47V3.95C1458.47 4.45 1458.6 4.83 1458.87 5.09C1459.13 5.35 1459.53 5.48 1460.05 5.48C1460.57 5.48 1460.97 5.35 1461.24 5.09C1461.5 4.83 1461.64 4.45 1461.64 3.95V0.44H1463.41V3.92C1463.41 4.56667 1463.27 5.13333 1462.99 5.62C1462.71 6.1 1462.32 6.47333 1461.82 6.74C1461.31 7 1460.72 7.13 1460.05 7.13ZM1468.09 0.44C1469.34 0.44 1470.28 0.713333 1470.92 1.26C1471.56 1.8 1471.88 2.60667 1471.88 3.68V3.77C1471.88 5.92333 1470.61 7 1468.09 7H1464.73V0.44H1468.09ZM1468.09 5.42C1468.78 5.42 1469.28 5.29 1469.6 5.03C1469.92 4.77 1470.08 4.36 1470.08 3.8V3.66C1470.08 3.10667 1469.91 2.69667 1469.59 2.43C1469.26 2.15667 1468.76 2.02 1468.08 2.02H1466.5V5.42H1468.09ZM1481.86 7H1480.12V2.9L1478.3 7H1476.55L1474.74 2.92V7H1472.99V0.44H1475.38L1477.43 5.02L1479.46 0.44H1481.86V7ZM1484.95 0.44V7H1483.18V0.44H1484.95ZM1488.04 0.44V5.42H1492.29V7H1486.27V0.44H1488.04ZM1494.91 0.44V5.42H1499.16V7H1493.14V0.44H1494.91ZM1512.93 3.46V4.98H1503.11V3.46H1512.93ZM1594.77 7.13C1593.96 7.13 1593.25 6.99333 1592.64 6.72C1592.03 6.44 1591.56 6.04667 1591.23 5.54C1590.9 5.03333 1590.74 4.44 1590.74 3.76V3.69C1590.74 3.01 1590.9 2.41667 1591.23 1.91C1591.56 1.39667 1592.03 1.00333 1592.64 0.73C1593.25 0.45 1593.96 0.31 1594.77 0.31C1595.52 0.31 1596.2 0.433333 1596.8 0.68C1597.4 0.926666 1597.86 1.26667 1598.2 1.7C1598.54 2.13333 1598.71 2.62333 1598.71 3.17V3.25H1596.9V3.17C1596.9 2.80333 1596.7 2.51 1596.31 2.29C1595.92 2.07 1595.41 1.96 1594.77 1.96C1593.28 1.96 1592.54 2.53 1592.54 3.67V3.79C1592.54 4.35667 1592.72 4.78 1593.09 5.06C1593.45 5.34 1594.01 5.48 1594.77 5.48C1595.43 5.48 1595.95 5.37333 1596.33 5.16C1596.71 4.94667 1596.9 4.65333 1596.9 4.28V4.21H1598.71V4.28C1598.71 4.82667 1598.54 5.31667 1598.2 5.75C1597.86 6.18333 1597.4 6.52333 1596.8 6.77C1596.2 7.01 1595.52 7.13 1594.77 7.13ZM1601.56 0.44V5.42H1605.81V7H1599.79V0.44H1601.56ZM1610.03 7.13C1609.24 7.13 1608.54 6.99333 1607.93 6.72C1607.33 6.44 1606.87 6.04667 1606.54 5.54C1606.21 5.02667 1606.05 4.43333 1606.05 3.76V3.69C1606.05 3.01 1606.21 2.41667 1606.54 1.91C1606.87 1.39667 1607.33 1.00333 1607.93 0.73C1608.54 0.45 1609.24 0.31 1610.03 0.31C1610.84 0.31 1611.54 0.45 1612.14 0.73C1612.74 1.00333 1613.2 1.39667 1613.53 1.91C1613.86 2.41667 1614.02 3.01 1614.02 3.69V3.76C1614.02 4.44 1613.86 5.03333 1613.53 5.54C1613.2 6.04667 1612.74 6.44 1612.14 6.72C1611.54 6.99333 1610.84 7.13 1610.03 7.13ZM1610.03 5.48C1611.49 5.48 1612.22 4.91667 1612.22 3.79V3.67C1612.22 3.11 1612.03 2.68667 1611.66 2.4C1611.29 2.10667 1610.75 1.96 1610.03 1.96C1609.32 1.96 1608.78 2.10667 1608.41 2.4C1608.04 2.69333 1607.85 3.11667 1607.85 3.67V3.79C1607.85 4.34333 1608.03 4.76333 1608.4 5.05C1608.77 5.33667 1609.31 5.48 1610.03 5.48ZM1618.38 7.13C1617.7 7.13 1617.11 7 1616.61 6.74C1616.1 6.47333 1615.71 6.09667 1615.44 5.61C1615.16 5.12333 1615.03 4.56 1615.03 3.92V0.44H1616.8V3.95C1616.8 4.45 1616.93 4.83 1617.2 5.09C1617.46 5.35 1617.86 5.48 1618.38 5.48C1618.9 5.48 1619.3 5.35 1619.57 5.09C1619.83 4.83 1619.97 4.45 1619.97 3.95V0.44H1621.74V3.92C1621.74 4.56667 1621.6 5.13333 1621.32 5.62C1621.04 6.1 1620.65 6.47333 1620.15 6.74C1619.64 7 1619.05 7.13 1618.38 7.13ZM1626.42 0.44C1627.67 0.44 1628.61 0.713333 1629.25 1.26C1629.89 1.8 1630.21 2.60667 1630.21 3.68V3.77C1630.21 5.92333 1628.94 7 1626.42 7H1623.06V0.44H1626.42ZM1626.42 5.42C1627.11 5.42 1627.61 5.29 1627.93 5.03C1628.25 4.77 1628.41 4.36 1628.41 3.8V3.66C1628.41 3.10667 1628.24 2.69667 1627.92 2.43C1627.59 2.15667 1627.09 2.02 1626.41 2.02H1624.83V5.42H1626.42ZM1640.19 7H1638.45V2.9L1636.63 7H1634.88L1633.07 2.92V7H1631.32V0.44H1633.71L1635.76 5.02L1637.79 0.44H1640.19V7ZM1643.28 0.44V7H1641.51V0.44H1643.28ZM1646.37 0.44V5.42H1650.62V7H1644.6V0.44H1646.37ZM1653.24 0.44V5.42H1657.49V7H1651.47V0.44H1653.24ZM1671.26 3.46V4.98H1661.44V3.46H1671.26ZM1753.1 7.13C1752.29 7.13 1751.58 6.99333 1750.97 6.72C1750.36 6.44 1749.89 6.04667 1749.56 5.54C1749.23 5.03333 1749.07 4.44 1749.07 3.76V3.69C1749.07 3.01 1749.23 2.41667 1749.56 1.91C1749.89 1.39667 1750.36 1.00333 1750.97 0.73C1751.58 0.45 1752.29 0.31 1753.1 0.31C1753.85 0.31 1754.53 0.433333 1755.13 0.68C1755.73 0.926666 1756.19 1.26667 1756.53 1.7C1756.87 2.13333 1757.04 2.62333 1757.04 3.17V3.25H1755.23V3.17C1755.23 2.80333 1755.03 2.51 1754.64 2.29C1754.25 2.07 1753.74 1.96 1753.1 1.96C1751.61 1.96 1750.87 2.53 1750.87 3.67V3.79C1750.87 4.35667 1751.05 4.78 1751.42 5.06C1751.78 5.34 1752.34 5.48 1753.1 5.48C1753.76 5.48 1754.28 5.37333 1754.66 5.16C1755.04 4.94667 1755.23 4.65333 1755.23 4.28V4.21H1757.04V4.28C1757.04 4.82667 1756.87 5.31667 1756.53 5.75C1756.19 6.18333 1755.73 6.52333 1755.13 6.77C1754.53 7.01 1753.85 7.13 1753.1 7.13ZM1759.89 0.44V5.42H1764.14V7H1758.12V0.44H1759.89ZM1768.36 7.13C1767.57 7.13 1766.87 6.99333 1766.26 6.72C1765.66 6.44 1765.2 6.04667 1764.87 5.54C1764.54 5.02667 1764.38 4.43333 1764.38 3.76V3.69C1764.38 3.01 1764.54 2.41667 1764.87 1.91C1765.2 1.39667 1765.66 1.00333 1766.26 0.73C1766.87 0.45 1767.57 0.31 1768.36 0.31C1769.17 0.31 1769.87 0.45 1770.47 0.73C1771.07 1.00333 1771.53 1.39667 1771.86 1.91C1772.19 2.41667 1772.35 3.01 1772.35 3.69V3.76C1772.35 4.44 1772.19 5.03333 1771.86 5.54C1771.53 6.04667 1771.07 6.44 1770.47 6.72C1769.87 6.99333 1769.17 7.13 1768.36 7.13ZM1768.36 5.48C1769.82 5.48 1770.55 4.91667 1770.55 3.79V3.67C1770.55 3.11 1770.36 2.68667 1769.99 2.4C1769.62 2.10667 1769.08 1.96 1768.36 1.96C1767.65 1.96 1767.11 2.10667 1766.74 2.4C1766.37 2.69333 1766.18 3.11667 1766.18 3.67V3.79C1766.18 4.34333 1766.36 4.76333 1766.73 5.05C1767.1 5.33667 1767.64 5.48 1768.36 5.48ZM1776.71 7.13C1776.03 7.13 1775.44 7 1774.94 6.74C1774.43 6.47333 1774.04 6.09667 1773.77 5.61C1773.49 5.12333 1773.36 4.56 1773.36 3.92V0.44H1775.13V3.95C1775.13 4.45 1775.26 4.83 1775.53 5.09C1775.79 5.35 1776.19 5.48 1776.71 5.48C1777.23 5.48 1777.63 5.35 1777.9 5.09C1778.16 4.83 1778.3 4.45 1778.3 3.95V0.44H1780.07V3.92C1780.07 4.56667 1779.93 5.13333 1779.65 5.62C1779.37 6.1 1778.98 6.47333 1778.48 6.74C1777.97 7 1777.38 7.13 1776.71 7.13ZM1784.75 0.44C1786 0.44 1786.94 0.713333 1787.58 1.26C1788.22 1.8 1788.54 2.60667 1788.54 3.68V3.77C1788.54 5.92333 1787.27 7 1784.75 7H1781.39V0.44H1784.75ZM1784.75 5.42C1785.44 5.42 1785.94 5.29 1786.26 5.03C1786.58 4.77 1786.74 4.36 1786.74 3.8V3.66C1786.74 3.10667 1786.57 2.69667 1786.25 2.43C1785.92 2.15667 1785.42 2.02 1784.74 2.02H1783.16V5.42H1784.75ZM1798.52 7H1796.78V2.9L1794.96 7H1793.21L1791.4 2.92V7H1789.65V0.44H1792.04L1794.09 5.02L1796.12 0.44H1798.52V7ZM1801.61 0.44V7H1799.84V0.44H1801.61ZM1804.7 0.44V5.42H1808.95V7H1802.93V0.44H1804.7ZM1811.57 0.44V5.42H1815.82V7H1809.8V0.44H1811.57ZM1829.59 3.46V4.98H1819.77V3.46H1829.59ZM1911.43 7.13C1910.62 7.13 1909.91 6.99333 1909.3 6.72C1908.69 6.44 1908.22 6.04667 1907.89 5.54C1907.56 5.03333 1907.4 4.44 1907.4 3.76V3.69C1907.4 3.01 1907.56 2.41667 1907.89 1.91C1908.22 1.39667 1908.69 1.00333 1909.3 0.73C1909.91 0.45 1910.62 0.31 1911.43 0.31C1912.18 0.31 1912.86 0.433333 1913.46 0.68C1914.06 0.926666 1914.52 1.26667 1914.86 1.7C1915.2 2.13333 1915.37 2.62333 1915.37 3.17V3.25H1913.56V3.17C1913.56 2.80333 1913.36 2.51 1912.97 2.29C1912.58 2.07 1912.07 1.96 1911.43 1.96C1909.94 1.96 1909.2 2.53 1909.2 3.67V3.79C1909.2 4.35667 1909.38 4.78 1909.75 5.06C1910.11 5.34 1910.67 5.48 1911.43 5.48C1912.09 5.48 1912.61 5.37333 1912.99 5.16C1913.37 4.94667 1913.56 4.65333 1913.56 4.28V4.21H1915.37V4.28C1915.37 4.82667 1915.2 5.31667 1914.86 5.75C1914.52 6.18333 1914.06 6.52333 1913.46 6.77C1912.86 7.01 1912.18 7.13 1911.43 7.13ZM1918.22 0.44V5.42H1922.47V7H1916.45V0.44H1918.22ZM1926.69 7.13C1925.9 7.13 1925.2 6.99333 1924.59 6.72C1923.99 6.44 1923.53 6.04667 1923.2 5.54C1922.87 5.02667 1922.71 4.43333 1922.71 3.76V3.69C1922.71 3.01 1922.87 2.41667 1923.2 1.91C1923.53 1.39667 1923.99 1.00333 1924.59 0.73C1925.2 0.45 1925.9 0.31 1926.69 0.31C1927.5 0.31 1928.2 0.45 1928.8 0.73C1929.4 1.00333 1929.86 1.39667 1930.19 1.91C1930.52 2.41667 1930.68 3.01 1930.68 3.69V3.76C1930.68 4.44 1930.52 5.03333 1930.19 5.54C1929.86 6.04667 1929.4 6.44 1928.8 6.72C1928.2 6.99333 1927.5 7.13 1926.69 7.13ZM1926.69 5.48C1928.15 5.48 1928.88 4.91667 1928.88 3.79V3.67C1928.88 3.11 1928.69 2.68667 1928.32 2.4C1927.95 2.10667 1927.41 1.96 1926.69 1.96C1925.98 1.96 1925.44 2.10667 1925.07 2.4C1924.7 2.69333 1924.51 3.11667 1924.51 3.67V3.79C1924.51 4.34333 1924.69 4.76333 1925.06 5.05C1925.43 5.33667 1925.97 5.48 1926.69 5.48ZM1935.04 7.13C1934.36 7.13 1933.77 7 1933.27 6.74C1932.76 6.47333 1932.37 6.09667 1932.1 5.61C1931.82 5.12333 1931.69 4.56 1931.69 3.92V0.44H1933.46V3.95C1933.46 4.45 1933.59 4.83 1933.86 5.09C1934.12 5.35 1934.52 5.48 1935.04 5.48C1935.56 5.48 1935.96 5.35 1936.23 5.09C1936.49 4.83 1936.63 4.45 1936.63 3.95V0.44H1938.4V3.92C1938.4 4.56667 1938.26 5.13333 1937.98 5.62C1937.7 6.1 1937.31 6.47333 1936.81 6.74C1936.3 7 1935.71 7.13 1935.04 7.13ZM1943.08 0.44C1944.33 0.44 1945.27 0.713333 1945.91 1.26C1946.55 1.8 1946.87 2.60667 1946.87 3.68V3.77C1946.87 5.92333 1945.6 7 1943.08 7H1939.72V0.44H1943.08ZM1943.08 5.42C1943.77 5.42 1944.27 5.29 1944.59 5.03C1944.91 4.77 1945.07 4.36 1945.07 3.8V3.66C1945.07 3.10667 1944.9 2.69667 1944.58 2.43C1944.25 2.15667 1943.75 2.02 1943.07 2.02H1941.49V5.42H1943.08ZM1956.85 7H1955.11V2.9L1953.29 7H1951.54L1949.73 2.92V7H1947.98V0.44H1950.37L1952.42 5.02L1954.45 0.44H1956.85V7ZM1959.94 0.44V7H1958.17V0.44H1959.94ZM1963.03 0.44V5.42H1967.28V7H1961.26V0.44H1963.03ZM1969.9 0.44V5.42H1974.15V7H1968.13V0.44H1969.9ZM1987.92 3.46V4.98H1978.1V3.46H1987.92Z" fill="white"/>
</svg>
