<svg width="165" height="56" viewBox="0 0 165 56" fill="none" xmlns="http://www.w3.org/2000/svg">
<path fill-rule="evenodd" clip-rule="evenodd" d="M74.6132 26.164C75.1726 26.164 75.7319 26.0526 76.1793 25.9413C76.4031 25.9413 76.6268 25.8299 76.8505 25.7186C77.0743 25.6073 77.298 25.4959 77.4098 25.3846C77.6336 25.2733 77.7454 25.1619 77.8573 25.0506C77.9692 24.9393 78.081 24.8279 78.1929 24.6053C78.3048 24.4939 78.4166 24.2712 78.4166 24.1599C78.4166 23.9372 78.5285 23.8259 78.5285 23.6032C78.5285 23.1579 78.3048 22.7125 77.9692 22.4899C77.7454 22.3785 77.5217 22.2672 77.1861 22.1559C76.8505 22.0445 76.5149 22.0445 76.0675 22.0445H74.0539L73.2709 26.0526H74.6132V26.164ZM145.759 29.2814H150.681L149.451 23.0465L145.759 29.2814ZM151.128 31.5081H144.528L142.627 34.7368L142.515 34.8482H139.383L139.718 34.4028L148.556 20.1518L148.667 20.0405H151.24L151.352 20.2631L154.708 34.5142L154.82 34.9595H152.023V34.7368L151.128 31.5081ZM128.756 32.2874H126.295L126.183 32.0648L123.61 24.7166L121.149 34.6255L121.037 34.8482H118.352L118.576 34.5142L122.156 20.2631L122.267 20.0405H124.728L124.84 20.2631L128.084 29.7267L134.908 20.1518L135.02 20.0405H137.705V20.3745L135.691 34.6255V34.8482H133.006V34.5142L134.237 25.0506L129.091 32.1761L128.979 32.2874H128.756ZM107.278 26.498C107.054 27.2773 106.942 27.9453 106.718 28.6133C106.495 29.2814 106.271 29.838 106.047 30.2834C105.823 30.8401 105.6 31.2854 105.376 31.7308C105.152 32.1761 104.928 32.5101 104.593 32.8441C104.369 33.1781 104.034 33.5121 103.81 33.7348C103.586 33.9575 103.251 34.1802 103.027 34.4028C102.803 34.6255 102.467 34.7368 102.244 34.8482C101.908 34.9595 101.684 35.0708 101.349 35.1822L101.125 35.2935L101.013 35.0708L100.23 33.4008L100.118 33.0668L100.454 32.9555C100.901 32.7328 101.461 32.5101 101.796 32.1761C102.244 31.8421 102.579 31.2854 102.915 30.7287C103.251 30.1721 103.586 29.504 103.81 28.7247C104.145 27.9453 104.369 27.166 104.593 26.2753L106.159 20.1518L106.271 20.0405H116.115L116.003 20.3745L113.206 34.6255V34.8482H110.41L110.522 34.5142L112.871 22.2672H108.173L107.278 26.498ZM91.5048 19.7065C92.0641 19.7065 92.5115 19.7065 93.0709 19.8178C93.5183 19.9291 94.0776 20.0405 94.4132 20.1518C94.8607 20.2631 95.1963 20.4858 95.6437 20.7085C95.9793 20.9312 96.3149 21.1538 96.6505 21.4878C96.9861 21.8219 97.2098 22.0445 97.4336 22.4899C97.6573 22.8239 97.881 23.1579 97.9929 23.6032C98.1048 24.0486 98.2166 24.3826 98.3285 24.8279C98.4404 25.2733 98.4404 25.7186 98.4404 26.164C98.4404 26.832 98.4404 27.3887 98.3285 28.0567C98.2166 28.6133 98.1048 29.2814 97.881 29.7267C97.6573 30.2834 97.4336 30.8401 97.098 31.2854C96.7624 31.7308 96.4268 32.1761 95.9793 32.6214C95.5319 33.0668 95.0844 33.4008 94.5251 33.6235C93.9658 33.9575 93.4065 34.1802 92.8471 34.4028C92.2878 34.6255 91.6166 34.7368 90.8336 34.8482C90.1624 34.9595 89.3793 34.9595 88.5963 34.9595C88.1488 34.9595 87.8132 34.9595 87.3658 34.9595C86.9183 34.9595 86.5827 34.8482 86.1353 34.8482C85.7997 34.7368 85.3522 34.7368 85.0166 34.6255C84.681 34.5142 84.3454 34.4028 84.1217 34.2915L83.7861 34.1802L83.898 33.8461L84.5692 32.2874L84.681 32.0648L84.9048 32.1761C85.1285 32.2874 85.3522 32.2874 85.6878 32.3988C85.9115 32.5101 86.2471 32.5101 86.5827 32.6214C86.9183 32.6214 87.142 32.7328 87.4776 32.7328C87.8132 32.7328 88.1488 32.7328 88.4844 32.7328C89.0437 32.7328 89.4912 32.7328 89.9387 32.6214C90.3861 32.5101 90.8336 32.5101 91.1692 32.3988C91.5048 32.2874 91.9522 32.1761 92.2878 31.9534C92.6234 31.8421 92.959 31.6194 93.1827 31.3968C93.4065 31.1741 93.742 30.9514 93.9658 30.7287C94.1895 30.5061 94.4132 30.1721 94.5251 29.838C94.7488 29.504 94.8607 29.17 94.9726 28.836C95.0844 28.6133 95.0844 28.3907 95.1963 28.168H87.5895L87.7014 27.834L88.037 26.2753V26.0526H95.6437C95.6437 24.7166 95.1963 23.7146 94.5251 23.0465C94.1895 22.7125 93.6302 22.3785 93.0709 22.1559C92.5115 21.9332 91.7285 21.8219 90.9454 21.8219C90.6098 21.8219 90.1624 21.8219 89.8268 21.8219C89.4912 21.8219 89.1556 21.9332 88.82 21.9332C88.4844 22.0445 88.1488 22.0445 87.9251 22.1559C87.5895 22.2672 87.3658 22.2672 87.1421 22.3785L86.6946 22.4899V22.0445V20.4858V20.2631L86.9183 20.1518C87.2539 20.0405 87.5895 19.9291 87.9251 19.8178C88.2607 19.7065 88.7081 19.7065 89.0437 19.5951C89.4912 19.4838 89.9387 19.4838 90.2742 19.4838C90.6098 19.8178 91.0573 19.7065 91.5048 19.7065ZM78.081 30.3947C78.081 30.1721 78.081 30.0607 77.9692 29.9494C77.9692 29.838 77.8573 29.7267 77.8573 29.504C77.7454 29.3927 77.7454 29.2814 77.6336 29.17C77.5217 29.0587 77.4098 28.9474 77.298 28.836L76.8505 28.6133C76.8505 28.6133 76.4031 28.502 76.2912 28.502C76.0675 28.502 75.8437 28.3907 75.62 28.3907C75.3963 28.3907 75.1726 28.3907 74.9488 28.3907H73.159L72.2641 32.8441H74.3895C74.837 32.8441 75.2844 32.8441 75.8437 32.7328C76.0675 32.7328 76.2912 32.6214 76.5149 32.5101C76.6268 32.5101 77.0743 32.2874 77.0743 32.2874C77.298 32.1761 77.4099 32.0648 77.5217 31.9534C77.5217 31.9534 77.8573 31.6194 77.8573 31.5081C77.9692 31.3967 78.081 31.1741 78.081 31.0627C77.9692 30.8401 78.081 30.6174 78.081 30.3947ZM69.02 34.5142L71.8166 20.2631V20.0405H76.7387C77.0743 20.0405 77.4098 20.0405 77.7454 20.1518C78.081 20.1518 78.4166 20.2631 78.6404 20.3745C78.976 20.4858 79.1997 20.5972 79.4234 20.7085C79.6471 20.8198 79.8709 20.9312 80.0946 21.0425C80.3183 21.1538 80.542 21.3765 80.6539 21.4878C80.8776 21.7105 80.9895 21.8219 81.1014 22.0445C81.2132 22.2672 81.3251 22.4899 81.3251 22.7125C81.437 22.9352 81.437 23.1579 81.437 23.4919C81.437 23.8259 81.437 24.0486 81.3251 24.3826C81.2132 24.6053 81.2132 24.9393 80.9895 25.1619C80.8776 25.3846 80.6539 25.6073 80.5421 25.8299C80.4302 26.0526 80.2065 26.2753 79.9827 26.3866C79.759 26.6093 79.5353 26.7206 79.3115 26.832C79.0878 26.9433 78.8641 27.0546 78.6404 27.166C78.5285 27.2773 78.3048 27.2773 78.1929 27.3887C78.3048 27.3887 78.3048 27.5 78.4166 27.5C78.6404 27.6113 78.8641 27.7227 78.9759 27.834C79.1997 27.9453 79.3115 28.0567 79.5353 28.2793C79.6471 28.3907 79.8709 28.6133 79.9827 28.7247C80.0946 28.9474 80.2065 29.0587 80.3183 29.2814C80.4302 29.504 80.5421 29.7267 80.5421 29.9494C80.5421 30.1721 80.6539 30.3947 80.6539 30.6174C80.6539 31.0627 80.6539 31.3968 80.5421 31.7308C80.4302 32.0648 80.3183 32.3988 80.0946 32.7328C79.8709 33.0668 79.6471 33.2895 79.4234 33.5121C79.1997 33.7348 78.8641 33.9575 78.5285 34.1802C78.1929 34.4028 77.8573 34.5142 77.5217 34.6255C77.1861 34.7368 76.7387 34.8482 76.4031 34.9595C76.0675 35.0708 75.62 35.0708 75.1726 35.1822C74.7251 35.1822 74.3895 35.2935 74.0539 35.2935H69.02V34.5142Z" fill="#333232"/>
<path d="M40.3828 0.667924C40.8303 1.00193 41.6133 1.44728 42.3964 2.00396C43.1794 2.67197 44.2981 3.45133 45.3049 4.45335C45.5286 4.67602 45.8642 5.01003 46.0879 5.2327C46.3116 5.56671 46.5354 5.78938 46.871 6.12339C47.0947 6.4574 47.4303 6.79141 47.654 7.01408C47.8777 7.45942 48.1015 7.79343 48.4371 8.12744C48.6608 8.46145 48.9964 8.90679 49.2201 9.2408C49.4438 9.57481 49.6676 10.0202 49.8913 10.4655C50.115 10.9108 50.3388 11.2448 50.5625 11.6902C50.7862 12.1355 51.0099 12.5809 51.2337 13.0262C51.6811 13.9169 52.0167 14.9189 52.3523 15.921C52.6879 16.923 52.9116 18.0363 53.1354 19.0384C53.2472 20.1517 53.5828 21.2651 53.5828 22.3785C53.5828 22.9351 53.6947 23.4918 53.6947 24.0485C53.6947 24.6052 53.6947 25.1619 53.5828 25.7185C53.5828 26.2752 53.471 26.8319 53.471 27.3886C53.3591 27.9453 53.3591 28.5019 53.2472 29.0586C53.0235 30.172 52.7998 31.3967 52.3523 32.3987C52.1286 32.9554 52.0167 33.5121 51.793 34.0687L51.1218 35.6274C51.0099 35.8501 50.8981 36.1841 50.7862 36.4068L50.3388 37.1861C50.0032 37.7428 49.7794 38.1882 49.4438 38.6335C48.2133 40.5262 46.6472 42.1963 44.8574 43.421C43.0676 44.757 41.2777 45.8704 39.376 46.5384C38.9286 46.761 38.4811 46.8724 37.9218 46.9837C37.4744 47.0951 37.0269 47.3177 36.5794 47.4291C35.6845 47.6517 34.7896 47.8744 33.8947 47.8744C33.4472 47.8744 32.9998 47.9857 32.5523 47.9857C32.1049 47.9857 31.6574 47.9857 31.3218 47.9857C30.5388 47.9857 29.7557 47.8744 28.9727 47.8744C27.5184 47.7631 26.2879 47.4291 25.2811 47.0951C24.2744 46.8724 23.4913 46.5384 22.932 46.3157C22.3727 46.093 22.1489 45.9817 22.1489 45.9817C22.1489 45.9817 22.3727 46.093 22.932 46.427C23.4913 46.6497 24.1625 47.0951 25.1693 47.4291C26.176 47.8744 27.4066 48.2084 28.8608 48.5424C30.315 48.7651 31.993 48.9878 33.8947 48.8764C34.7896 48.8764 35.7964 48.6538 36.8032 48.5424C37.2506 48.4311 37.8099 48.3197 38.2574 48.2084C38.8167 48.0971 39.2642 47.9857 39.8235 47.7631C41.8371 47.0951 43.9625 46.093 45.8642 44.757C47.7659 43.421 49.5557 41.7509 51.0099 39.6355C52.3523 37.6315 53.5828 35.4048 54.254 32.9554C54.7015 31.842 54.9252 30.506 55.1489 29.3926C55.2608 28.8359 55.3727 28.1679 55.3727 27.6112C55.4845 26.9432 55.5964 26.3865 55.4845 25.7185C55.4845 25.1619 55.4845 24.4938 55.4845 23.9372C55.4845 23.3805 55.3727 22.7125 55.3727 22.1558C55.3727 20.9311 55.0371 19.8177 54.8133 18.7044C54.7015 18.1477 54.4777 17.591 54.3659 17.0343C54.1421 16.4776 54.0303 15.921 53.8066 15.4756C53.3591 14.4736 53.0235 13.3602 52.4642 12.4695C52.2405 12.0242 52.0167 11.5789 51.793 11.1335C51.5693 10.6882 51.2337 10.2428 51.0099 9.79748C50.7862 9.35214 50.4506 9.01813 50.2269 8.57278C49.8913 8.23878 49.6676 7.79343 49.332 7.45942C48.7727 6.68007 48.2133 6.12339 47.5421 5.45537C47.2066 5.12137 46.9828 4.89869 46.6472 4.56469C46.3116 4.34201 46.0879 4.11934 45.7523 3.78533C44.6337 2.78331 43.515 2.11529 42.6201 1.55861C41.7252 1.11327 40.9421 0.890596 40.3828 0.667924C39.9354 0.333916 39.7116 0.22258 39.7116 0.22258C39.7116 0.22258 39.8235 0.333916 40.3828 0.667924Z" fill="#DD8C50"/>
<path d="M19.3524 0.890688C18.905 1.00202 18.3456 1.11336 17.8982 1.2247C17.4507 1.33603 17.0033 1.5587 16.6677 1.67004C16.2202 1.78138 15.8846 2.00405 15.4372 2.11538C15.1016 2.22672 14.766 2.44939 14.4304 2.56073C13.7592 2.89474 13.1999 3.11741 12.7524 3.45142C12.305 3.78542 11.8575 4.0081 11.5219 4.23077C10.8507 4.67611 10.5151 4.89879 10.5151 4.89879C10.5151 4.89879 10.8507 4.67611 11.5219 4.34211C11.8575 4.11943 12.305 3.89676 12.7524 3.67409C13.1999 3.45142 13.8711 3.22874 14.5423 2.89474C14.8778 2.7834 15.2134 2.56073 15.549 2.44939C15.8846 2.33806 16.3321 2.22672 16.7795 2.11538C17.227 2.00405 17.5626 1.89271 18.0101 1.78138C18.4575 1.67004 18.905 1.5587 19.4643 1.5587C21.366 1.11336 23.6033 1.00202 26.0643 1.11336C28.5253 1.2247 31.0982 1.67004 33.6711 2.56073C36.2439 3.45142 38.8168 4.89879 41.2778 6.56883C43.627 8.3502 45.8643 10.5769 47.5422 13.249C47.9897 13.8057 48.3253 14.585 48.7728 15.253C49.1083 15.9211 49.4439 16.5891 49.6677 17.3684C50.227 18.8158 50.6745 20.3745 50.7863 21.9332C51.2338 25.0506 51.01 28.2794 50.1151 31.1741C49.2202 34.0688 47.6541 36.8522 45.6406 38.9676C43.627 41.1943 41.2778 42.9757 38.8168 43.9777C36.3558 45.0911 33.6711 45.4251 31.3219 45.3138C28.9728 45.2024 26.7355 44.6457 24.9456 43.8664C23.1558 43.087 21.7016 42.085 20.6948 41.1943C20.1355 40.749 19.688 40.3036 19.3524 39.8583C18.905 39.5243 18.6812 39.0789 18.4575 38.8563C18.0101 38.2996 17.6745 37.9656 17.6745 37.9656C17.6745 37.9656 17.8982 38.2996 18.3456 38.9676C18.5694 39.3016 18.7931 39.6356 19.2406 40.081C19.4643 40.3036 19.5762 40.5263 19.7999 40.749C20.0236 40.9717 20.2473 41.1943 20.5829 41.417C21.5897 42.419 23.0439 43.5324 24.8338 44.4231C26.6236 45.3138 28.8609 46.0931 31.4338 46.3158C34.0067 46.5385 36.8033 46.2045 39.488 45.0911C42.1728 43.9777 44.7456 42.1964 46.9829 39.8583C49.1083 37.5202 50.8982 34.6255 51.905 31.5081C52.9117 28.2794 53.2473 24.8279 52.7999 21.4879C52.5761 19.8178 52.1287 18.1478 51.4575 16.5891C51.1219 15.8097 50.7863 15.0304 50.3389 14.251C49.8914 13.583 49.5558 12.915 49.1083 12.1356C47.3185 9.35223 44.8575 7.01417 42.3965 5.12146C39.8236 3.22874 37.027 1.89271 34.2304 1.11336C31.3219 0.445344 28.6372 0 26.0643 0C23.6033 0 21.2541 0.334008 19.3524 0.890688Z" fill="#DD8C50"/>
<path d="M26.9593 2.7836C26.6237 2.7836 26.2881 2.7836 25.9525 2.7836C24.9457 2.89494 24.0508 3.00627 23.044 3.11761C19.2406 3.67429 15.7728 5.12166 12.7525 7.01437C9.95588 8.90708 7.49487 11.1338 5.70504 13.5832C3.91521 16.0326 2.46097 18.482 1.67792 20.7087C1.45419 21.2654 1.23046 21.8221 1.1186 22.3787C1.00673 22.9354 0.783003 23.4921 0.671139 23.9374C0.44741 24.9395 0.335545 25.9415 0.223681 26.8322C0.111816 27.7229 0.111816 28.5022 0.111816 29.1702C0.111816 29.8383 0.111816 30.3949 0.111816 30.8403C0.111816 31.731 0.111816 32.2876 0.111816 32.2876C0.111816 32.2876 0.111816 31.8423 0.111816 30.8403C0.111816 30.3949 0.111816 29.8383 0.223681 29.1702C0.335545 28.5022 0.44741 27.7229 0.559274 26.9435C0.783003 26.0528 1.00673 25.1621 1.23046 24.1601C1.34233 23.7148 1.56605 23.1581 1.78978 22.6014C2.01351 22.0447 2.12538 21.4881 2.46097 21.0427C2.6847 20.486 2.90843 19.9293 3.24402 19.3727C3.57961 18.816 3.91521 18.2593 4.2508 17.7026C4.58639 17.1459 5.03385 16.5893 5.36944 16.0326C5.70504 15.4759 6.1525 14.9192 6.71182 14.3625C8.61351 12.1358 10.9627 10.0204 13.8711 8.23907C16.7796 6.56903 20.1355 5.34433 23.7152 4.78765C24.6101 4.67631 25.505 4.56498 26.4 4.56498C26.7355 4.56498 26.9593 4.56498 27.2949 4.56498C27.9661 4.56498 28.5254 4.56498 29.0847 4.67631H30.2033C30.6508 4.78765 31.0983 4.89898 31.5457 4.89898C32.4406 5.01032 33.3355 5.34433 34.2305 5.67834C37.6983 7.01437 41.0542 9.24109 43.4034 12.1358C45.8644 15.0306 47.4305 18.7047 47.9898 22.3787L48.1017 23.7148C48.1017 23.9374 48.2135 24.2715 48.2135 24.3828V25.0508C48.2135 26.0528 48.1017 26.9435 48.1017 27.8342C47.8779 29.6156 47.2067 31.397 46.4237 32.9557C45.6406 34.5144 44.522 35.9617 43.2915 37.1864C42.061 38.4111 40.7186 39.4132 39.2644 40.1925C37.8101 40.9719 36.3559 41.5285 34.7898 41.8625C33.3356 42.1965 31.7694 42.3079 30.3152 42.1966C28.9728 42.0852 27.5186 41.7512 26.2881 41.1945C25.0576 40.7492 23.9389 40.0812 23.044 39.3018C21.1423 37.8544 19.9118 36.1844 19.1288 34.6257C18.3457 33.067 18.0101 31.731 17.7864 30.8403C17.6745 29.9496 17.5627 29.3929 17.5627 29.3929C17.5627 29.3929 17.5627 29.8383 17.6745 30.8403C17.7864 31.731 18.0101 33.1783 18.7932 34.737C19.4644 36.2957 20.6949 38.1885 22.5966 39.7472C24.4983 41.3059 27.0711 42.7532 30.2033 43.0872C31.7694 43.3099 33.3355 43.1986 35.0135 42.8646C36.6915 42.6419 38.2576 41.9739 39.9356 41.3059C43.0678 39.7472 46.0881 37.0751 47.8779 33.6237C48.7728 31.9536 49.444 30.0609 49.7796 28.0569C49.8915 27.0549 50.0034 25.9415 50.0034 25.0508V24.2715C50.0034 23.9374 50.0033 23.7148 49.8915 23.4921L49.7796 21.9334C49.1084 17.9253 47.5423 14.0285 44.8576 10.7998C42.2847 7.57105 38.705 5.23299 34.9017 3.78562C33 3.11761 30.9864 2.67226 28.9728 2.56093C28.6372 2.56093 28.1898 2.56093 27.8542 2.56093C27.5186 2.7836 27.2949 2.7836 26.9593 2.7836Z" fill="#DD8C50"/>
<path d="M24.7217 5.56693C22.3725 5.67827 20.0234 6.23495 17.898 7.12564C13.5352 8.79568 9.95558 11.8017 7.49456 15.5872C5.14541 19.1499 3.80303 23.3807 3.35558 27.2775C2.90812 31.1742 3.35558 34.9596 4.36236 38.2997C5.36914 41.6398 6.93524 44.4232 8.50134 46.6499C8.9488 47.2066 9.39625 47.7633 9.73185 48.2086C10.1793 48.7653 10.6268 49.0993 10.9624 49.5447C11.7454 50.4354 12.6403 51.1034 13.4234 51.7714C14.2064 52.4394 14.9895 52.8847 15.5488 53.3301C16.22 53.7754 16.7793 54.1094 17.2268 54.3321C18.1217 54.7775 18.681 55.1115 18.681 55.1115C18.681 55.1115 18.2335 54.7775 17.3386 54.2208C16.4437 53.6641 15.2132 52.7734 13.6471 51.5487C12.9759 50.8807 12.081 50.2127 11.2979 49.322C10.9624 48.8766 10.5149 48.4313 10.0674 47.8746C9.73185 47.3179 9.28439 46.8726 8.9488 46.3159C7.49456 44.0892 6.04032 41.3058 5.25727 38.0771C4.36236 34.8483 4.02676 31.2856 4.58609 27.5001C5.14541 23.7147 6.48778 19.9293 8.72507 16.4779C10.9624 13.1378 14.4302 10.3544 18.4573 8.79568C20.4708 8.01632 22.5963 7.57098 24.7217 7.34831C26.8471 7.23697 29.0844 7.34831 31.2098 7.90499C33.3352 8.46167 35.3488 9.12968 37.2505 10.3544C39.0403 11.4677 40.6064 12.9151 41.8369 14.6965C44.298 18.1479 45.4166 22.3787 44.9691 26.3868C44.7454 28.3908 44.0742 30.2835 43.2912 32.0649C43.0674 32.5103 42.8437 32.9556 42.5081 33.4009C42.1725 33.7349 42.0607 34.1803 41.7251 34.5143C41.1657 35.2937 40.4946 35.9617 39.7115 36.5183C36.803 38.8564 33.1115 39.7471 29.8674 39.4131C26.6234 39.0791 23.7149 37.6317 21.9251 35.6277C20.1352 33.6236 19.2403 31.2856 19.1285 29.3928C18.9047 27.5001 19.2403 25.9414 19.5759 24.9394C19.6878 24.3827 19.9115 24.0487 20.0234 23.826C20.1352 23.3807 20.1352 23.2694 20.1352 23.2694C20.1352 23.2694 20.1352 23.3807 20.0234 23.6034C19.9115 23.826 19.6878 24.16 19.5759 24.7167C19.2403 25.7188 18.7929 27.2775 18.9047 29.2815C19.0166 31.2856 19.7996 33.7349 21.5895 35.9617C23.3793 38.1884 26.3996 39.8584 29.8674 40.3038C33.3352 40.7491 37.3624 39.8584 40.6064 37.409C41.3895 36.8524 42.1725 36.073 42.8437 35.2937C43.1793 34.9596 43.5149 34.403 43.8505 34.069C44.1861 33.6236 44.4098 33.1783 44.6335 32.7329C45.6403 30.8402 46.3115 28.7248 46.6471 26.6094C47.2064 22.2673 46.1996 17.4799 43.403 13.6945C42.0607 11.8017 40.2708 10.1317 38.2573 8.90701C36.3556 7.68232 34.0064 6.79163 31.7691 6.23495C30.0912 5.7896 28.3013 5.56693 26.6234 5.56693C25.9522 5.45559 25.281 5.45559 24.7217 5.56693Z" fill="#DD8C50"/>
<path d="M25.0575 8.46176C23.1558 8.5731 21.1423 8.9071 19.2406 9.57512C18.3457 9.90913 17.3389 10.3545 16.5558 10.9112L15.8847 11.2452C15.5491 11.4678 15.4372 11.5792 15.2135 11.6905L13.983 12.5812C10.8508 15.1419 8.16602 18.482 6.82364 22.3788C5.36941 26.2755 5.03381 30.5063 5.81686 34.5144C6.26432 36.5184 6.82364 38.4111 7.71856 40.1925C8.16602 41.1945 8.61347 41.8626 9.1728 42.7533C9.73212 43.5326 10.2914 44.312 10.8508 45.0913C13.3118 48.0974 16.2203 50.3241 19.3525 51.9941C22.4847 53.5529 25.7287 54.5549 28.6372 54.8889C31.6575 55.2229 34.4542 55.2229 36.9152 54.6662C37.4745 54.5549 38.1457 54.4435 38.705 54.3322C39.2643 54.2209 39.8236 54.1095 40.2711 53.8869C41.2779 53.5529 42.1728 53.2188 42.9558 52.8848C43.7389 52.5508 44.4101 52.1055 45.0813 51.8828C45.6406 51.5488 46.1999 51.2148 46.5355 50.9921C47.3186 50.5468 47.766 50.2128 47.766 50.2128C47.766 50.2128 47.3186 50.4354 46.5355 50.8808C46.0881 51.1035 45.6406 51.4375 44.9694 51.6601C44.4101 51.8828 43.627 52.2168 42.844 52.5508C42.0609 52.7735 41.0542 53.1075 40.1592 53.4415C39.5999 53.5529 39.1525 53.6642 38.5931 53.7755C38.0338 53.8869 37.4745 53.9982 36.9152 53.9982C36.3558 54.1095 35.6847 54.1095 35.1253 54.2209C34.4542 54.2209 33.783 54.2209 33.1118 54.2209C32.4406 54.2209 31.7694 54.1095 31.0982 54.1095C30.427 54.1095 29.644 53.9982 28.9728 53.8869C26.0643 53.4415 23.044 52.4395 20.1355 50.7695C17.227 49.0994 14.5423 46.8727 12.1931 44.0893C11.6338 43.3099 11.1864 42.6419 10.627 41.8626C10.1796 41.0832 9.62025 40.1925 9.28466 39.4132L8.72534 38.1885C8.50161 37.7431 8.38975 37.2978 8.27788 36.8524C7.94229 35.9618 7.83042 35.0711 7.60669 34.1804C6.93551 30.5063 7.2711 26.6095 8.61347 23.0468C9.84398 19.484 12.305 16.3666 15.2135 14.0286L16.3321 13.2492C16.5558 13.1379 16.7796 12.9152 16.8914 12.9152L17.5626 12.5812C18.4575 12.0245 19.2406 11.6905 20.0236 11.3565C21.7016 10.6885 23.4914 10.3545 25.2813 10.2431C27.0711 10.1318 28.8609 10.3545 30.427 10.7998C32.105 11.2452 33.6711 11.9132 35.0135 12.8039C36.3558 13.6946 37.6982 14.6966 38.705 15.8099C39.2643 16.3666 39.7118 17.0346 40.1592 17.5913C40.4948 18.148 40.9423 18.9273 41.2779 19.484C41.8372 20.7087 42.2847 22.1561 42.3965 23.3808C42.6203 24.7168 42.6203 25.9415 42.3965 27.0549C42.0609 29.3929 41.2779 31.2856 40.2711 32.733C39.3762 34.1804 38.3694 35.0711 37.6982 35.7391C36.9152 36.2958 36.5796 36.6298 36.5796 36.6298C36.5796 36.6298 37.027 36.4071 37.8101 35.8504C38.4813 35.2937 39.5999 34.4031 40.6067 32.9557C41.6135 31.5083 42.6203 29.6156 43.0677 27.1662C43.5152 24.7168 43.4033 21.8221 42.1728 19.0387C41.6135 17.5913 40.7186 16.2553 39.5999 15.0306C38.5931 13.6946 37.2508 12.5812 35.7965 11.6905C32.9999 9.90913 29.644 8.68443 25.9525 8.68443C25.6169 8.35042 25.3931 8.35042 25.0575 8.46176Z" fill="#DD8C50"/>
<path d="M58.0575 24.6054C58.0575 24.9394 58.0575 25.2735 57.9456 25.6075C57.8337 25.9415 57.8337 26.2755 57.7219 26.7208C57.61 27.5002 57.4981 28.3909 57.1626 29.3929C57.0507 29.8382 56.9388 30.3949 56.7151 30.8403C56.4914 31.2856 56.3795 31.8423 56.1558 32.399C55.8202 33.5123 55.2609 34.5143 54.8134 35.6277C54.1422 36.6297 53.5829 37.8544 52.9117 38.8564C52.2405 39.9698 51.3456 40.8605 50.5626 41.8625C49.6676 42.7532 48.7727 43.7552 47.7659 44.5346C46.871 45.4253 45.7524 46.0933 44.7456 46.7613C43.627 47.318 42.732 48.0973 41.6134 48.5427C41.0541 48.7654 40.6066 48.988 40.1592 49.2107C39.5998 49.4334 39.1524 49.5447 38.7049 49.7674C37.81 50.1014 36.9151 50.4354 36.1321 50.6581C35.6846 50.7694 35.349 50.8807 35.0134 50.9921C34.6778 51.1034 34.3422 51.1034 34.0066 51.2147C32.888 51.4374 32.2168 51.5487 32.2168 51.5487C32.2168 51.5487 32.888 51.5487 34.1185 51.5487C34.4541 51.5487 34.7897 51.5487 35.1253 51.5487C35.4609 51.5487 35.9083 51.4374 36.2439 51.4374C37.027 51.3261 38.0337 51.2147 39.0405 50.8807C39.488 50.7694 40.0473 50.6581 40.6066 50.4354C41.1659 50.2127 41.6134 49.99 42.1727 49.7674C43.2914 49.4334 44.41 48.7654 45.5287 48.2087C46.6473 47.5407 47.7659 46.8726 48.7727 45.8706C49.8914 45.0913 50.7863 43.9779 51.7931 43.0872C52.688 41.9739 53.5829 40.9718 54.2541 39.7471C55.0371 38.6338 55.5965 37.4091 56.1558 36.2957C56.6032 35.071 57.1626 33.9577 57.3863 32.733C57.4981 32.1763 57.7219 31.6196 57.8337 31.0629C57.9456 30.5062 57.9456 29.9496 58.0575 29.5042C58.2812 28.5022 58.2812 27.5002 58.2812 26.7208C58.2812 26.2755 58.2812 25.9415 58.2812 25.6075C58.2812 25.2735 58.1693 24.9394 58.1693 24.6054C58.2812 23.3807 58.1693 22.7127 58.1693 22.7127C58.1693 22.7127 58.0575 23.3807 58.0575 24.6054Z" fill="#DD8C50"/>
<path d="M163.993 13.2491C163.322 12.5811 162.539 12.2471 161.644 12.2471C160.749 12.2471 159.966 12.5811 159.295 13.2491C158.624 13.9171 158.288 14.6964 158.288 15.5871C158.288 16.4778 158.624 17.2572 159.295 17.9252C159.966 18.5932 160.749 18.9272 161.644 18.9272C162.539 18.9272 163.322 18.5932 163.993 17.9252C164.664 17.2572 165 16.4778 165 15.5871C165 14.6964 164.664 13.9171 163.993 13.2491ZM163.658 17.5912C163.098 18.1479 162.427 18.4819 161.644 18.4819C160.861 18.4819 160.19 18.1479 159.63 17.5912C159.071 17.0345 158.736 16.3665 158.736 15.4758C158.736 14.6964 159.071 14.0284 159.63 13.3604C160.19 12.8037 160.861 12.4697 161.644 12.4697C162.427 12.4697 163.098 12.8037 163.658 13.3604C164.217 13.9171 164.552 14.5851 164.552 15.4758C164.552 16.3665 164.217 17.0345 163.658 17.5912ZM162.315 15.6985C162.539 15.5871 162.763 15.4758 162.875 15.2531C162.986 15.1418 163.098 14.9191 163.098 14.5851C163.098 14.3624 163.098 14.2511 162.986 14.1398C162.875 14.0284 162.763 13.9171 162.651 13.8058C162.539 13.6944 162.315 13.6944 162.203 13.6944C162.091 13.6944 161.868 13.6944 161.644 13.6944H160.413V17.2572H161.085V15.9211H161.756L163.098 17.2572H163.993L162.315 15.6985ZM162.315 15.0305C162.315 15.1418 162.203 15.1418 162.091 15.2531C161.98 15.3645 161.868 15.3645 161.756 15.3645C161.644 15.3645 161.532 15.3645 161.308 15.3645H160.861V14.1398H161.42C161.532 14.1398 161.644 14.1398 161.756 14.1398C161.868 14.1398 161.98 14.1398 161.98 14.2511C162.091 14.2511 162.091 14.3624 162.203 14.4738C162.203 14.5851 162.203 14.5851 162.203 14.6964C162.427 14.9191 162.427 14.9191 162.315 15.0305Z" fill="#333030"/>
</svg>
