<svg width="68" height="76" fill="none" xmlns="http://www.w3.org/2000/svg"><path d="M11.747 68.133l.008.01a21.889 21.889 0 009.416 6.54c.76.24 2.292.426 4.283.557 1.977.13 4.346.203 6.73.237 4.77.067 9.568-.024 11.34-.128m-31.777-7.216l31.806 7.715m-31.806-7.715l-.009-.009A42.116 42.116 0 01.508 38.672m11.239 29.461L.007 38.661M43.525 75.35l.029.499m-.03-.5s0 0 0 0l.03.5m-.03-.5c5.16-.305 9.598-2.878 13.99-8.219m-13.96 8.719c5.338-.317 9.896-2.989 14.348-8.403m-.388-.316l-.002.002.39.314m-.388-.316a44.812 44.812 0 009.646-23.468l.001-.009h0c.736-6.067-.188-11.008-2.771-15.145h0c-4.082-6.549-12.144-9.677-20.592-7.886h0c-.417.088-.92.234-1.521.42M57.514 67.13l.002-.002.386.318m0 0L42.276 21.04m0 0l.008-.003-.165-.472m.157.475l1.417-.909c-.443.094-.968.246-1.574.434m.157.475a25.197 25.197 0 01-12.644 1.037l-.008-.001h0l-1.166-.223-.011-.002-.012-.003a47.66 47.66 0 00-9.323-1.287m23.164.479l-23.153-.98m23.153.98l-.009.002-.148-.477m.157.475l-.157-.475m-23.008-.004h.008l.004-.5m-.012.5h-.007l.019-.5m-.012.5a18.432 18.432 0 00-12.978 5.23 18.64 18.64 0 00-5.625 12.88m18.615-18.61a18.932 18.932 0 00-13.338 5.371A19.14 19.14 0 00.008 38.661m.5.011v-.002l-.5-.009m.5.011v.002l-.5-.013" stroke="#DF0112"/><path d="M32.738 5.896C28.884.294 13.281 1.032 13.281 1.032s2.432 10.913 8.513 14.56c4.053 2.432 12.16 2.464 12.16 2.464s1.49-8.228-1.216-12.16z" stroke="#00F"/></svg>