<svg width="1600" height="60" fill="none" xmlns="http://www.w3.org/2000/svg"><path d="M-206 12S30.256 38.51 180.318 35.525c132.306-2.631 201.615-19.999 333.937-21.805 144.014-1.967 211.299 32.846 354.827 21.805 96.117-7.393 129.912-22.008 226.368-21.805 95.6.2 167.56 21.82 263.16 21.805 95.54-.014 139.55-22.024 235.09-21.805 94.63.216 256.3 44.672 256.3 44.672" stroke="#00F" stroke-width="1.5" stroke-dasharray="4 4"/><path d="M-199.141 58.322S30.256-.79 180.318 2.195c132.306 2.632 200.991 54.32 333.313 56.127C657.645 60.29 733.817-8.845 877.344 2.195c96.117 7.394 142.856 56.33 239.306 56.128 95.6-.201 141.45-56.142 237.04-56.128 95.54.014 141.35 56.346 236.89 56.128 94.63-.217 234.48-56.128 234.48-56.128" stroke="#DF0112" stroke-width="1.5"/></svg>