<svg width="53" height="53" viewBox="0 0 53 53" fill="none" xmlns="http://www.w3.org/2000/svg">
<circle cx="26.5" cy="26.5" r="26.5" fill="transition"/>
<mask id="path-2-inside-1" fill="white">
<path fill-rule="evenodd" clip-rule="evenodd" d="M22.3983 23.7085C23.563 24.8732 25.4514 24.8732 26.6161 23.7085C26.6162 23.7085 26.6162 23.7085 26.6162 23.7084L31.3614 28.4536L21.344 38.471L16.0718 38.471L7.6361 30.0353L7.6361 24.763L17.6534 14.7457L22.3984 19.4906C22.3983 19.4906 22.3983 19.4907 22.3983 19.4907C21.2336 20.6554 21.2336 22.5438 22.3983 23.7085Z"/>
</mask>
<path d="M26.6162 23.7084L27.3233 23.0013L26.6162 22.2942L25.9091 23.0013L26.6162 23.7084ZM31.3614 28.4536L32.0685 29.1607L32.7756 28.4536L32.0685 27.7465L31.3614 28.4536ZM21.344 38.471L21.344 39.471L21.7583 39.471L22.0512 39.1781L21.344 38.471ZM16.0718 38.471L15.3647 39.1781L15.6575 39.471L16.0718 39.471V38.471ZM7.6361 30.0353L6.6361 30.0353L6.6361 30.4495L6.92899 30.7424L7.6361 30.0353ZM7.6361 24.763L6.92899 24.0559L6.6361 24.3488L6.6361 24.763L7.6361 24.763ZM17.6534 14.7457L18.3605 14.0386L17.6534 13.3315L16.9463 14.0386L17.6534 14.7457ZM22.3984 19.4906L23.1055 20.1977L23.8126 19.4906L23.1055 18.7835L22.3984 19.4906ZM25.909 23.0014C25.1348 23.7756 23.8796 23.7756 23.1054 23.0014L21.6912 24.4156C23.2464 25.9709 25.768 25.9709 27.3232 24.4156L25.909 23.0014ZM25.9091 23.0013C25.9091 23.0013 25.9091 23.0014 25.9091 23.0014C25.909 23.0014 25.909 23.0014 25.909 23.0014L27.3232 24.4156C27.3232 24.4156 27.3233 24.4156 27.3233 24.4156C27.3233 24.4156 27.3233 24.4156 27.3233 24.4156L25.9091 23.0013ZM25.9091 24.4156L30.6543 29.1607L32.0685 27.7465L27.3233 23.0013L25.9091 24.4156ZM30.6543 27.7465L20.6369 37.7639L22.0512 39.1781L32.0685 29.1607L30.6543 27.7465ZM21.344 37.471L16.0718 37.471L16.0718 39.471L21.344 39.471L21.344 37.471ZM16.7789 37.7639L8.34321 29.3282L6.92899 30.7424L15.3647 39.1781L16.7789 37.7639ZM8.6361 30.0353L8.6361 24.763L6.6361 24.763L6.6361 30.0353L8.6361 30.0353ZM8.34321 25.4701L18.3605 15.4528L16.9463 14.0386L6.92899 24.0559L8.34321 25.4701ZM16.9463 15.4528L21.6913 20.1977L23.1055 18.7835L18.3605 14.0386L16.9463 15.4528ZM23.1054 20.1978C23.1054 20.1978 23.1054 20.1978 23.1054 20.1978C23.1054 20.1978 23.1054 20.1978 23.1054 20.1978C23.1054 20.1978 23.1054 20.1978 23.1054 20.1978C23.1054 20.1978 23.1054 20.1978 23.1054 20.1978C23.1054 20.1978 23.1054 20.1978 23.1054 20.1978C23.1054 20.1978 23.1054 20.1978 23.1054 20.1978C23.1054 20.1978 23.1054 20.1978 23.1054 20.1978C23.1054 20.1978 23.1054 20.1978 23.1054 20.1978C23.1054 20.1978 23.1054 20.1978 23.1054 20.1978C23.1054 20.1978 23.1054 20.1978 23.1054 20.1978C23.1054 20.1978 23.1054 20.1978 23.1054 20.1978C23.1054 20.1978 23.1054 20.1978 23.1054 20.1978C23.1054 20.1978 23.1054 20.1978 23.1054 20.1978C23.1054 20.1978 23.1054 20.1978 23.1054 20.1978C23.1054 20.1978 23.1054 20.1978 23.1054 20.1978C23.1054 20.1978 23.1054 20.1978 23.1054 20.1978C23.1054 20.1978 23.1054 20.1978 23.1054 20.1978C23.1054 20.1978 23.1054 20.1978 23.1054 20.1978C23.1054 20.1978 23.1054 20.1978 23.1054 20.1978C23.1054 20.1978 23.1054 20.1978 23.1054 20.1978C23.1054 20.1978 23.1054 20.1978 23.1054 20.1978C23.1054 20.1978 23.1054 20.1978 23.1054 20.1978C23.1054 20.1978 23.1054 20.1978 23.1054 20.1978C23.1054 20.1978 23.1054 20.1978 23.1054 20.1978C23.1054 20.1978 23.1054 20.1978 23.1054 20.1978C23.1054 20.1978 23.1054 20.1978 23.1054 20.1978C23.1054 20.1978 23.1054 20.1978 23.1054 20.1978C23.1054 20.1978 23.1054 20.1978 23.1054 20.1978C23.1054 20.1978 23.1054 20.1978 23.1054 20.1978C23.1054 20.1978 23.1054 20.1978 23.1054 20.1978C23.1054 20.1978 23.1054 20.1978 23.1054 20.1978C23.1054 20.1978 23.1054 20.1978 23.1054 20.1978C23.1054 20.1978 23.1054 20.1978 23.1054 20.1978C23.1054 20.1978 23.1054 20.1978 23.1054 20.1978C23.1054 20.1978 23.1054 20.1978 23.1054 20.1978C23.1054 20.1978 23.1054 20.1978 23.1054 20.1978C23.1054 20.1978 23.1054 20.1978 23.1054 20.1978C23.1054 20.1978 23.1054 20.1978 23.1054 20.1978C23.1054 20.1978 23.1054 20.1978 23.1054 20.1978C23.1054 20.1978 23.1054 20.1978 23.1054 20.1978C23.1054 20.1978 23.1054 20.1978 23.1054 20.1978C23.1054 20.1978 23.1054 20.1978 23.1054 20.1978C23.1054 20.1978 23.1054 20.1978 23.1054 20.1978C23.1054 20.1978 23.1054 20.1978 23.1054 20.1978C23.1054 20.1978 23.1054 20.1978 23.1054 20.1978C23.1054 20.1978 23.1054 20.1978 23.1054 20.1978C23.1054 20.1978 23.1054 20.1978 23.1054 20.1978C23.1054 20.1978 23.1054 20.1978 23.1054 20.1978C23.1054 20.1978 23.1054 20.1978 23.1054 20.1978C23.1054 20.1978 23.1054 20.1978 23.1054 20.1978C23.1054 20.1978 23.1054 20.1978 23.1054 20.1978C23.1054 20.1978 23.1054 20.1978 23.1054 20.1978C23.1054 20.1978 23.1054 20.1978 23.1054 20.1978C23.1054 20.1978 23.1054 20.1978 23.1054 20.1978C23.1054 20.1978 23.1054 20.1978 23.1054 20.1978C23.1054 20.1978 23.1054 20.1978 23.1054 20.1978C23.1054 20.1978 23.1054 20.1978 23.1054 20.1978C23.1054 20.1978 23.1054 20.1978 23.1054 20.1978C23.1054 20.1978 23.1054 20.1978 23.1054 20.1978C23.1054 20.1978 23.1054 20.1978 23.1054 20.1978C23.1054 20.1978 23.1054 20.1978 23.1054 20.1978C23.1054 20.1978 23.1054 20.1978 23.1054 20.1978C23.1054 20.1978 23.1054 20.1978 23.1054 20.1978C23.1054 20.1978 23.1054 20.1978 23.1054 20.1978C23.1054 20.1978 23.1054 20.1978 23.1054 20.1978C23.1054 20.1978 23.1054 20.1978 23.1054 20.1978C23.1054 20.1978 23.1054 20.1978 23.1054 20.1978C23.1054 20.1978 23.1054 20.1978 23.1054 20.1978C23.1054 20.1978 23.1054 20.1978 23.1054 20.1978C23.1054 20.1978 23.1054 20.1978 23.1054 20.1978C23.1054 20.1978 23.1054 20.1978 23.1054 20.1978C23.1054 20.1978 23.1054 20.1978 23.1054 20.1978C23.1054 20.1978 23.1054 20.1978 23.1054 20.1978C23.1054 20.1978 23.1054 20.1978 23.1054 20.1978C23.1054 20.1978 23.1054 20.1978 23.1054 20.1978C23.1054 20.1978 23.1054 20.1978 23.1054 20.1978C23.1054 20.1978 23.1054 20.1978 23.1054 20.1978C23.1054 20.1978 23.1054 20.1978 23.1054 20.1978C23.1054 20.1978 23.1054 20.1978 23.1054 20.1978C23.1054 20.1978 23.1054 20.1978 23.1054 20.1978C23.1054 20.1978 23.1054 20.1978 23.1054 20.1978C23.1054 20.1978 23.1054 20.1978 23.1054 20.1978C23.1054 20.1978 23.1054 20.1978 23.1054 20.1978C23.1054 20.1978 23.1054 20.1978 23.1054 20.1978C23.1054 20.1978 23.1054 20.1978 23.1054 20.1978C23.1054 20.1978 23.1054 20.1978 23.1054 20.1978C23.1054 20.1978 23.1054 20.1978 23.1054 20.1978C23.1054 20.1978 23.1054 20.1978 23.1054 20.1978C23.1054 20.1978 23.1054 20.1978 23.1054 20.1978C23.1054 20.1978 23.1054 20.1978 23.1054 20.1978C23.1054 20.1978 23.1054 20.1978 23.1054 20.1978C23.1054 20.1978 23.1054 20.1978 23.1054 20.1978C23.1054 20.1978 23.1054 20.1978 23.1054 20.1978C23.1054 20.1978 23.1054 20.1978 23.1054 20.1978C23.1054 20.1978 23.1054 20.1978 23.1054 20.1978C23.1054 20.1978 23.1054 20.1978 23.1054 20.1978C23.1054 20.1978 23.1054 20.1978 23.1054 20.1978C23.1054 20.1978 23.1054 20.1978 23.1054 20.1978C23.1054 20.1978 23.1054 20.1978 23.1054 20.1978C23.1054 20.1978 23.1054 20.1978 23.1054 20.1978C23.1054 20.1978 23.1054 20.1978 23.1054 20.1978C23.1054 20.1978 23.1054 20.1978 23.1054 20.1978C23.1054 20.1978 23.1054 20.1978 23.1054 20.1978C23.1054 20.1978 23.1054 20.1978 23.1054 20.1978C23.1054 20.1978 23.1054 20.1978 23.1054 20.1978C23.1054 20.1978 23.1054 20.1978 23.1054 20.1978C23.1054 20.1978 23.1054 20.1978 23.1054 20.1978C23.1054 20.1978 23.1054 20.1978 23.1054 20.1978C23.1054 20.1978 23.1054 20.1978 23.1054 20.1978C23.1054 20.1978 23.1054 20.1978 23.1054 20.1978C23.1054 20.1978 23.1054 20.1978 23.1054 20.1978C23.1054 20.1978 23.1054 20.1978 23.1054 20.1978C23.1054 20.1978 23.1054 20.1978 23.1054 20.1978C23.1054 20.1978 23.1054 20.1978 23.1054 20.1978C23.1054 20.1978 23.1054 20.1978 23.1054 20.1978C23.1054 20.1978 23.1054 20.1978 23.1054 20.1978C23.1054 20.1978 23.1054 20.1978 23.1054 20.1978C23.1054 20.1978 23.1054 20.1978 23.1054 20.1978C23.1054 20.1978 23.1054 20.1978 23.1054 20.1978C23.1054 20.1978 23.1054 20.1978 23.1054 20.1978C23.1054 20.1978 23.1054 20.1978 23.1054 20.1978C23.1054 20.1978 23.1054 20.1978 23.1054 20.1978C23.1054 20.1978 23.1054 20.1978 23.1054 20.1978C23.1054 20.1978 23.1054 20.1978 23.1054 20.1978C23.1054 20.1978 23.1054 20.1978 23.1054 20.1978C23.1054 20.1978 23.1054 20.1978 23.1054 20.1978C23.1054 20.1978 23.1054 20.1978 23.1054 20.1978C23.1054 20.1978 23.1054 20.1978 23.1054 20.1978C23.1054 20.1978 23.1054 20.1978 23.1054 20.1978C23.1054 20.1978 23.1054 20.1978 23.1054 20.1978C23.1054 20.1978 23.1054 20.1978 23.1054 20.1978C23.1054 20.1978 23.1054 20.1978 23.1054 20.1978C23.1054 20.1978 23.1054 20.1978 23.1054 20.1978C23.1054 20.1978 23.1054 20.1978 23.1054 20.1978C23.1054 20.1978 23.1054 20.1978 23.1054 20.1978C23.1054 20.1978 23.1054 20.1978 23.1054 20.1978C23.1054 20.1978 23.1054 20.1978 23.1054 20.1978C23.1054 20.1978 23.1054 20.1978 23.1054 20.1978C23.1054 20.1978 23.1054 20.1978 23.1054 20.1978C23.1054 20.1978 23.1054 20.1978 23.1054 20.1978C23.1054 20.1978 23.1054 20.1978 23.1054 20.1978C23.1054 20.1978 23.1054 20.1978 23.1054 20.1978C23.1054 20.1978 23.1054 20.1978 23.1054 20.1978C23.1054 20.1978 23.1054 20.1978 23.1054 20.1978C23.1054 20.1978 23.1054 20.1978 23.1054 20.1978C23.1054 20.1978 23.1054 20.1978 23.1054 20.1978C23.1054 20.1978 23.1054 20.1978 23.1054 20.1978C23.1054 20.1978 23.1054 20.1978 23.1054 20.1978C23.1054 20.1978 23.1054 20.1978 23.1054 20.1978C23.1054 20.1978 23.1054 20.1978 23.1054 20.1978C23.1054 20.1978 23.1054 20.1978 23.1054 20.1978C23.1054 20.1978 23.1054 20.1978 23.1054 20.1978C23.1054 20.1978 23.1054 20.1978 23.1054 20.1978C23.1054 20.1978 23.1054 20.1978 23.1054 20.1978C23.1054 20.1978 23.1054 20.1978 23.1054 20.1978C23.1054 20.1978 23.1054 20.1978 23.1054 20.1978C23.1054 20.1978 23.1054 20.1978 23.1054 20.1978C23.1054 20.1978 23.1054 20.1978 23.1054 20.1978C23.1054 20.1978 23.1054 20.1978 23.1054 20.1978C23.1054 20.1978 23.1054 20.1978 23.1054 20.1978C23.1054 20.1978 23.1054 20.1978 23.1054 20.1978C23.1054 20.1978 23.1054 20.1978 23.1054 20.1978C23.1054 20.1978 23.1054 20.1978 23.1054 20.1978C23.1054 20.1978 23.1054 20.1978 23.1054 20.1978C23.1054 20.1978 23.1054 20.1978 23.1054 20.1978C23.1054 20.1978 23.1054 20.1978 23.1054 20.1978C23.1054 20.1978 23.1054 20.1978 23.1054 20.1978C23.1054 20.1978 23.1054 20.1978 23.1054 20.1978C23.1054 20.1978 23.1054 20.1978 23.1054 20.1978C23.1054 20.1978 23.1054 20.1978 23.1054 20.1978C23.1054 20.1978 23.1054 20.1978 23.1054 20.1978C23.1054 20.1978 23.1054 20.1978 23.1054 20.1978C23.1054 20.1978 23.1054 20.1978 23.1054 20.1978C23.1054 20.1978 23.1054 20.1978 23.1054 20.1978C23.1054 20.1978 23.1054 20.1978 23.1054 20.1978C23.1054 20.1978 23.1054 20.1978 23.1054 20.1978C23.1054 20.1978 23.1054 20.1978 23.1054 20.1978C23.1054 20.1978 23.1054 20.1978 23.1054 20.1978C23.1054 20.1978 23.1054 20.1978 23.1054 20.1978C23.1054 20.1978 23.1054 20.1978 23.1054 20.1978C23.1054 20.1978 23.1054 20.1978 23.1054 20.1978C23.1054 20.1978 23.1054 20.1978 23.1054 20.1978C23.1054 20.1978 23.1054 20.1978 23.1054 20.1978C23.1054 20.1978 23.1054 20.1978 23.1054 20.1978C23.1054 20.1978 23.1054 20.1978 23.1054 20.1978C23.1054 20.1978 23.1054 20.1978 23.1054 20.1978C23.1054 20.1978 23.1054 20.1978 23.1054 20.1978C23.1054 20.1978 23.1054 20.1978 23.1054 20.1978C23.1054 20.1978 23.1054 20.1978 23.1054 20.1978C23.1054 20.1978 23.1054 20.1978 23.1054 20.1978C23.1054 20.1978 23.1054 20.1978 23.1054 20.1978C23.1054 20.1978 23.1054 20.1978 23.1054 20.1978C23.1054 20.1978 23.1054 20.1978 23.1054 20.1978C23.1054 20.1978 23.1054 20.1978 23.1054 20.1978C23.1054 20.1978 23.1054 20.1978 23.1054 20.1978C23.1054 20.1978 23.1054 20.1978 23.1054 20.1978C23.1054 20.1978 23.1054 20.1978 23.1054 20.1978C23.1054 20.1978 23.1054 20.1978 23.1054 20.1978C23.1054 20.1978 23.1054 20.1978 23.1054 20.1978C23.1054 20.1978 23.1054 20.1978 23.1054 20.1978C23.1054 20.1978 23.1054 20.1978 23.1054 20.1978C23.1054 20.1978 23.1054 20.1978 23.1054 20.1978C23.1054 20.1978 23.1054 20.1978 23.1054 20.1978C23.1054 20.1978 23.1054 20.1978 23.1054 20.1978C23.1054 20.1978 23.1054 20.1978 23.1054 20.1978C23.1054 20.1978 23.1054 20.1978 23.1054 20.1978C23.1054 20.1978 23.1054 20.1978 23.1054 20.1978C23.1054 20.1978 23.1054 20.1978 23.1054 20.1978C23.1054 20.1978 23.1054 20.1978 23.1054 20.1978C23.1054 20.1978 23.1054 20.1978 23.1054 20.1978C23.1054 20.1978 23.1054 20.1978 23.1054 20.1978C23.1054 20.1978 23.1054 20.1978 23.1054 20.1978C23.1054 20.1978 23.1054 20.1978 23.1054 20.1978C23.1054 20.1978 23.1054 20.1978 23.1054 20.1978C23.1054 20.1978 23.1054 20.1978 23.1054 20.1978C23.1054 20.1978 23.1054 20.1978 23.1054 20.1978C23.1054 20.1978 23.1054 20.1978 23.1054 20.1978C23.1054 20.1978 23.1054 20.1978 23.1054 20.1978C23.1054 20.1978 23.1054 20.1978 23.1054 20.1978C23.1054 20.1978 23.1054 20.1978 23.1054 20.1978C23.1054 20.1978 23.1054 20.1978 23.1054 20.1978C23.1054 20.1978 23.1054 20.1978 23.1054 20.1978C23.1054 20.1978 23.1054 20.1978 23.1054 20.1978C23.1054 20.1978 23.1054 20.1978 23.1054 20.1978C23.1054 20.1978 23.1054 20.1978 23.1054 20.1978C23.1054 20.1978 23.1054 20.1978 23.1054 20.1978C23.1054 20.1978 23.1054 20.1978 23.1054 20.1978C23.1054 20.1978 23.1054 20.1978 23.1054 20.1978C23.1054 20.1978 23.1054 20.1978 23.1054 20.1978C23.1054 20.1978 23.1054 20.1978 23.1054 20.1978C23.1054 20.1978 23.1054 20.1978 23.1054 20.1978C23.1054 20.1978 23.1054 20.1978 23.1054 20.1978C23.1054 20.1978 23.1054 20.1978 23.1054 20.1978C23.1054 20.1978 23.1054 20.1978 23.1054 20.1978C23.1054 20.1978 23.1054 20.1978 23.1054 20.1978C23.1054 20.1978 23.1054 20.1978 23.1054 20.1978C23.1054 20.1978 23.1054 20.1978 23.1054 20.1978C23.1054 20.1978 23.1054 20.1978 23.1054 20.1978C23.1054 20.1978 23.1054 20.1978 23.1054 20.1978C23.1054 20.1978 23.1054 20.1978 23.1054 20.1978C23.1054 20.1978 23.1054 20.1978 23.1054 20.1978C23.1054 20.1978 23.1054 20.1978 23.1054 20.1978C23.1054 20.1978 23.1054 20.1978 23.1054 20.1978C23.1054 20.1978 23.1054 20.1978 23.1054 20.1978C23.1054 20.1978 23.1054 20.1978 23.1054 20.1978C23.1054 20.1978 23.1054 20.1978 23.1054 20.1978C23.1054 20.1978 23.1054 20.1978 23.1054 20.1978C23.1054 20.1978 23.1054 20.1978 23.1054 20.1978C23.1054 20.1978 23.1054 20.1978 23.1054 20.1978C23.1054 20.1978 23.1054 20.1978 23.1054 20.1978C23.1054 20.1978 23.1054 20.1978 23.1054 20.1978C23.1054 20.1978 23.1054 20.1978 23.1054 20.1978C23.1054 20.1978 23.1054 20.1978 23.1054 20.1978C23.1054 20.1978 23.1054 20.1978 23.1054 20.1978C23.1054 20.1978 23.1054 20.1978 23.1054 20.1978C23.1054 20.1978 23.1054 20.1978 23.1054 20.1978C23.1054 20.1978 23.1054 20.1978 23.1054 20.1978C23.1054 20.1978 23.1054 20.1978 23.1054 20.1978C23.1054 20.1978 23.1054 20.1978 23.1054 20.1978C23.1054 20.1978 23.1054 20.1978 23.1054 20.1978C23.1054 20.1978 23.1054 20.1978 23.1054 20.1978C23.1054 20.1978 23.1054 20.1978 23.1054 20.1978C23.1054 20.1978 23.1054 20.1978 23.1054 20.1978C23.1054 20.1978 23.1054 20.1978 23.1054 20.1978C23.1054 20.1978 23.1054 20.1978 23.1054 20.1978C23.1054 20.1978 23.1054 20.1978 23.1054 20.1978C23.1054 20.1978 23.1054 20.1978 23.1054 20.1978C23.1054 20.1978 23.1054 20.1978 23.1054 20.1978C23.1054 20.1978 23.1054 20.1978 23.1054 20.1978C23.1054 20.1978 23.1054 20.1978 23.1054 20.1978C23.1054 20.1978 23.1054 20.1978 23.1054 20.1978C23.1054 20.1978 23.1054 20.1978 23.1054 20.1978C23.1054 20.1978 23.1054 20.1978 23.1054 20.1978C23.1054 20.1978 23.1054 20.1978 23.1054 20.1978C23.1054 20.1978 23.1054 20.1978 23.1054 20.1978C23.1054 20.1978 23.1054 20.1978 23.1054 20.1978C23.1054 20.1978 23.1054 20.1978 23.1054 20.1978C23.1054 20.1978 23.1054 20.1978 23.1054 20.1978C23.1054 20.1978 23.1054 20.1978 23.1054 20.1978C23.1054 20.1978 23.1054 20.1978 23.1054 20.1978C23.1054 20.1978 23.1054 20.1978 23.1054 20.1978C23.1054 20.1978 23.1054 20.1978 23.1054 20.1978C23.1054 20.1978 23.1054 20.1978 23.1054 20.1978C23.1054 20.1978 23.1054 20.1978 23.1054 20.1978C23.1054 20.1978 23.1054 20.1978 23.1054 20.1978C23.1054 20.1978 23.1054 20.1978 23.1054 20.1978C23.1054 20.1978 23.1054 20.1978 23.1054 20.1978C23.1054 20.1978 23.1054 20.1978 23.1054 20.1978C23.1054 20.1978 23.1054 20.1978 23.1054 20.1978C23.1054 20.1977 23.1054 20.1977 23.1054 20.1977C23.1054 20.1977 23.1054 20.1977 23.1054 20.1977C23.1054 20.1977 23.1054 20.1977 23.1054 20.1977C23.1054 20.1977 23.1054 20.1977 23.1054 20.1977C23.1054 20.1977 23.1054 20.1977 23.1054 20.1977C23.1054 20.1977 23.1054 20.1977 23.1054 20.1977C23.1054 20.1977 23.1054 20.1977 23.1054 20.1977C23.1054 20.1977 23.1054 20.1977 23.1054 20.1977C23.1054 20.1977 23.1054 20.1977 23.1054 20.1977C23.1054 20.1977 23.1054 20.1977 23.1054 20.1977C23.1054 20.1977 23.1054 20.1977 23.1054 20.1977C23.1054 20.1977 23.1054 20.1977 23.1054 20.1977C23.1054 20.1977 23.1054 20.1977 23.1054 20.1977C23.1054 20.1977 23.1054 20.1977 23.1054 20.1977C23.1054 20.1977 23.1054 20.1977 23.1054 20.1977C23.1054 20.1977 23.1054 20.1977 23.1054 20.1977C23.1054 20.1977 23.1054 20.1977 23.1054 20.1977C23.1054 20.1977 23.1054 20.1977 23.1054 20.1977C23.1054 20.1977 23.1054 20.1977 23.1054 20.1977C23.1054 20.1977 23.1054 20.1977 23.1054 20.1977C23.1054 20.1977 23.1054 20.1977 23.1054 20.1977C23.1054 20.1977 23.1054 20.1977 23.1054 20.1977C23.1054 20.1977 23.1054 20.1977 23.1054 20.1977C23.1054 20.1977 23.1054 20.1977 23.1054 20.1977C23.1054 20.1977 23.1054 20.1977 23.1054 20.1977C23.1054 20.1977 23.1054 20.1977 23.1054 20.1977C23.1054 20.1977 23.1054 20.1977 23.1054 20.1977C23.1054 20.1977 23.1054 20.1977 23.1054 20.1977C23.1054 20.1977 23.1054 20.1977 23.1054 20.1977C23.1054 20.1977 23.1054 20.1977 23.1054 20.1977C23.1054 20.1977 23.1054 20.1977 23.1054 20.1977C23.1054 20.1977 23.1054 20.1977 23.1054 20.1977C23.1054 20.1977 23.1054 20.1977 23.1054 20.1977C23.1054 20.1977 23.1054 20.1977 23.1054 20.1977C23.1054 20.1977 23.1054 20.1977 23.1054 20.1977C23.1054 20.1977 23.1054 20.1977 23.1054 20.1977C23.1054 20.1977 23.1054 20.1977 23.1054 20.1977C23.1054 20.1977 23.1054 20.1977 23.1054 20.1977C23.1054 20.1977 23.1054 20.1977 23.1054 20.1977C23.1054 20.1977 23.1054 20.1977 23.1054 20.1977C23.1054 20.1977 23.1054 20.1977 23.1054 20.1977C23.1054 20.1977 23.1054 20.1977 23.1054 20.1977C23.1054 20.1977 23.1054 20.1977 23.1054 20.1977C23.1054 20.1977 23.1054 20.1977 23.1054 20.1977C23.1054 20.1977 23.1054 20.1977 23.1054 20.1977C23.1054 20.1977 23.1054 20.1977 23.1054 20.1977C23.1054 20.1977 23.1054 20.1977 23.1054 20.1977C23.1054 20.1977 23.1054 20.1977 23.1054 20.1977C23.1054 20.1977 23.1054 20.1977 23.1054 20.1977C23.1054 20.1977 23.1054 20.1977 23.1054 20.1977C23.1054 20.1977 23.1054 20.1977 23.1054 20.1977C23.1054 20.1977 23.1054 20.1977 23.1054 20.1977C23.1054 20.1977 23.1054 20.1977 23.1054 20.1977C23.1054 20.1977 23.1054 20.1977 23.1054 20.1977C23.1054 20.1977 23.1054 20.1977 23.1054 20.1977C23.1054 20.1977 23.1054 20.1977 23.1054 20.1977C23.1054 20.1977 23.1054 20.1977 23.1054 20.1977C23.1054 20.1977 23.1054 20.1977 23.1054 20.1977C23.1054 20.1977 23.1054 20.1977 23.1054 20.1977C23.1054 20.1977 23.1054 20.1977 23.1054 20.1977C23.1054 20.1977 23.1054 20.1977 23.1054 20.1977C23.1054 20.1977 23.1054 20.1977 23.1054 20.1977C23.1054 20.1977 23.1054 20.1977 23.1054 20.1977C23.1054 20.1977 23.1054 20.1977 23.1054 20.1977C23.1054 20.1977 23.1054 20.1977 23.1054 20.1977C23.1054 20.1977 23.1054 20.1977 23.1054 20.1977C23.1054 20.1977 23.1054 20.1977 23.1054 20.1977C23.1054 20.1977 23.1054 20.1977 23.1054 20.1977C23.1054 20.1977 23.1055 20.1977 23.1055 20.1977C23.1055 20.1977 23.1055 20.1977 23.1055 20.1977C23.1055 20.1977 23.1055 20.1977 23.1055 20.1977C23.1055 20.1977 23.1055 20.1977 23.1055 20.1977C23.1055 20.1977 23.1055 20.1977 23.1055 20.1977C23.1055 20.1977 23.1055 20.1977 23.1055 20.1977C23.1055 20.1977 23.1055 20.1977 23.1055 20.1977C23.1055 20.1977 23.1055 20.1977 23.1055 20.1977C23.1055 20.1977 23.1055 20.1977 23.1055 20.1977C23.1055 20.1977 23.1055 20.1977 23.1055 20.1977C23.1055 20.1977 23.1055 20.1977 23.1055 20.1977C23.1055 20.1977 23.1055 20.1977 23.1055 20.1977C23.1055 20.1977 23.1055 20.1977 23.1055 20.1977C23.1055 20.1977 23.1055 20.1977 23.1055 20.1977C23.1055 20.1977 23.1055 20.1977 23.1055 20.1977C23.1055 20.1977 23.1055 20.1977 23.1055 20.1977C23.1055 20.1977 23.1055 20.1977 23.1055 20.1977C23.1055 20.1977 23.1055 20.1977 23.1055 20.1977C23.1055 20.1977 23.1055 20.1977 23.1055 20.1977C23.1055 20.1977 23.1055 20.1977 23.1055 20.1977C23.1055 20.1977 23.1055 20.1977 23.1055 20.1977C23.1055 20.1977 23.1055 20.1977 23.1055 20.1977C23.1055 20.1977 23.1055 20.1977 23.1055 20.1977C23.1055 20.1977 23.1055 20.1977 23.1055 20.1977C23.1055 20.1977 23.1055 20.1977 23.1055 20.1977C23.1055 20.1977 23.1055 20.1977 23.1055 20.1977C23.1055 20.1977 23.1055 20.1977 23.1055 20.1977C23.1055 20.1977 23.1055 20.1977 23.1055 20.1977C23.1055 20.1977 23.1055 20.1977 23.1055 20.1977C23.1055 20.1977 23.1055 20.1977 23.1055 20.1977C23.1055 20.1977 23.1055 20.1977 23.1055 20.1977C23.1055 20.1977 23.1055 20.1977 23.1055 20.1977C23.1055 20.1977 23.1055 20.1977 23.1055 20.1977C23.1055 20.1977 23.1055 20.1977 23.1055 20.1977C23.1055 20.1977 23.1055 20.1977 23.1055 20.1977C23.1055 20.1977 23.1055 20.1977 23.1055 20.1977C23.1055 20.1977 23.1055 20.1977 23.1055 20.1977C23.1055 20.1977 23.1055 20.1977 23.1055 20.1977C23.1055 20.1977 23.1055 20.1977 23.1055 20.1977C23.1055 20.1977 23.1055 20.1977 23.1055 20.1977C23.1055 20.1977 23.1055 20.1977 23.1055 20.1977C23.1055 20.1977 23.1055 20.1977 23.1055 20.1977C23.1055 20.1977 23.1055 20.1977 23.1055 20.1977C23.1055 20.1977 23.1055 20.1977 23.1055 20.1977C23.1055 20.1977 23.1055 20.1977 23.1055 20.1977C23.1055 20.1977 23.1055 20.1977 23.1055 20.1977C23.1055 20.1977 23.1055 20.1977 23.1055 20.1977C23.1055 20.1977 23.1055 20.1977 23.1055 20.1977C23.1055 20.1977 23.1055 20.1977 23.1055 20.1977C23.1055 20.1977 23.1055 20.1977 23.1055 20.1977C23.1055 20.1977 23.1055 20.1977 23.1055 20.1977C23.1055 20.1977 23.1055 20.1977 23.1055 20.1977C23.1055 20.1977 23.1055 20.1977 23.1055 20.1977C23.1055 20.1977 23.1055 20.1977 23.1055 20.1977C23.1055 20.1977 23.1055 20.1977 23.1055 20.1977C23.1055 20.1977 23.1055 20.1977 23.1055 20.1977C23.1055 20.1977 23.1055 20.1977 23.1055 20.1977C23.1055 20.1977 23.1055 20.1977 23.1055 20.1977C23.1055 20.1977 23.1055 20.1977 23.1055 20.1977C23.1055 20.1977 23.1055 20.1977 23.1055 20.1977C23.1055 20.1977 23.1055 20.1977 23.1055 20.1977C23.1055 20.1977 23.1055 20.1977 23.1055 20.1977C23.1055 20.1977 23.1055 20.1977 23.1055 20.1977C23.1055 20.1977 23.1055 20.1977 23.1055 20.1977C23.1055 20.1977 23.1055 20.1977 23.1055 20.1977C23.1055 20.1977 23.1055 20.1977 23.1055 20.1977C23.1055 20.1977 23.1055 20.1977 23.1055 20.1977C23.1055 20.1977 23.1055 20.1977 23.1055 20.1977C23.1055 20.1977 23.1055 20.1977 23.1055 20.1977C23.1055 20.1977 23.1055 20.1977 23.1055 20.1977C23.1055 20.1977 23.1055 20.1977 23.1055 20.1977C23.1055 20.1977 23.1055 20.1977 23.1055 20.1977C23.1055 20.1977 23.1055 20.1977 23.1055 20.1977C23.1055 20.1977 23.1055 20.1977 23.1055 20.1977C23.1055 20.1977 23.1055 20.1977 23.1055 20.1977C23.1055 20.1977 23.1055 20.1977 23.1055 20.1977C23.1055 20.1977 23.1055 20.1977 23.1055 20.1977C23.1055 20.1977 23.1055 20.1977 23.1055 20.1977C23.1055 20.1977 23.1055 20.1977 23.1055 20.1977C23.1055 20.1977 23.1055 20.1977 23.1055 20.1977C23.1055 20.1977 23.1055 20.1977 23.1055 20.1977C23.1055 20.1977 23.1055 20.1977 23.1055 20.1977C23.1055 20.1977 23.1055 20.1977 23.1055 20.1977C23.1055 20.1977 23.1055 20.1977 23.1055 20.1977C23.1055 20.1977 23.1055 20.1977 23.1055 20.1977C23.1055 20.1977 23.1055 20.1977 23.1055 20.1977C23.1055 20.1977 23.1055 20.1977 23.1055 20.1977C23.1055 20.1977 23.1055 20.1977 23.1055 20.1977C23.1055 20.1977 23.1055 20.1977 23.1055 20.1977C23.1055 20.1977 23.1055 20.1977 23.1055 20.1977C23.1055 20.1977 23.1055 20.1977 23.1055 20.1977C23.1055 20.1977 23.1055 20.1977 23.1055 20.1977C23.1055 20.1977 23.1055 20.1977 23.1055 20.1977C23.1055 20.1977 23.1055 20.1977 23.1055 20.1977C23.1055 20.1977 23.1055 20.1977 23.1055 20.1977C23.1055 20.1977 23.1055 20.1977 23.1055 20.1977C23.1055 20.1977 23.1055 20.1977 23.1055 20.1977C23.1055 20.1977 23.1055 20.1977 23.1055 20.1977C23.1055 20.1977 23.1055 20.1977 23.1055 20.1977C23.1055 20.1977 23.1055 20.1977 23.1055 20.1977C23.1055 20.1977 23.1055 20.1977 23.1055 20.1977C23.1055 20.1977 23.1055 20.1977 23.1055 20.1977C23.1055 20.1977 23.1055 20.1977 23.1055 20.1977C23.1055 20.1977 23.1055 20.1977 23.1055 20.1977C23.1055 20.1977 23.1055 20.1977 23.1055 20.1977C23.1055 20.1977 23.1055 20.1977 23.1055 20.1977C23.1055 20.1977 23.1055 20.1977 23.1055 20.1977C23.1055 20.1977 23.1055 20.1977 23.1055 20.1977C23.1055 20.1977 23.1055 20.1977 23.1055 20.1977C23.1055 20.1977 23.1055 20.1977 23.1055 20.1977C23.1055 20.1977 23.1055 20.1977 23.1055 20.1977C23.1055 20.1977 23.1055 20.1977 23.1055 20.1977C23.1055 20.1977 23.1055 20.1977 23.1055 20.1977C23.1055 20.1977 23.1055 20.1977 23.1055 20.1977C23.1055 20.1977 23.1055 20.1977 23.1055 20.1977C23.1055 20.1977 23.1055 20.1977 23.1055 20.1977C23.1055 20.1977 23.1055 20.1977 23.1055 20.1977C23.1055 20.1977 23.1055 20.1977 23.1055 20.1977C23.1055 20.1977 23.1055 20.1977 23.1055 20.1977C23.1055 20.1977 23.1055 20.1977 23.1055 20.1977C23.1055 20.1977 23.1055 20.1977 23.1055 20.1977C23.1055 20.1977 23.1055 20.1977 23.1055 20.1977C23.1055 20.1977 23.1055 20.1977 23.1055 20.1977C23.1055 20.1977 23.1055 20.1977 23.1055 20.1977C23.1055 20.1977 23.1055 20.1977 23.1055 20.1977C23.1055 20.1977 23.1055 20.1977 23.1055 20.1977C23.1055 20.1977 23.1055 20.1977 23.1055 20.1977C23.1055 20.1977 23.1055 20.1977 23.1055 20.1977C23.1055 20.1977 23.1055 20.1977 23.1055 20.1977C23.1055 20.1977 23.1055 20.1977 23.1055 20.1977C23.1055 20.1977 23.1055 20.1977 23.1055 20.1977C23.1055 20.1977 23.1055 20.1977 23.1055 20.1977C23.1055 20.1977 23.1055 20.1977 23.1055 20.1977C23.1055 20.1977 23.1055 20.1977 23.1055 20.1977C23.1055 20.1977 23.1055 20.1977 23.1055 20.1977C23.1055 20.1977 23.1055 20.1977 23.1055 20.1977C23.1055 20.1977 23.1055 20.1977 23.1055 20.1977C23.1055 20.1977 23.1055 20.1977 23.1055 20.1977C23.1055 20.1977 23.1055 20.1977 23.1055 20.1977C23.1055 20.1977 23.1055 20.1977 23.1055 20.1977C23.1055 20.1977 23.1055 20.1977 23.1055 20.1977C23.1055 20.1977 23.1055 20.1977 23.1055 20.1977C23.1055 20.1977 23.1055 20.1977 23.1055 20.1977C23.1055 20.1977 23.1055 20.1977 23.1055 20.1977C23.1055 20.1977 23.1055 20.1977 23.1055 20.1977C23.1055 20.1977 23.1055 20.1977 23.1055 20.1977C23.1055 20.1977 23.1055 20.1977 23.1055 20.1977C23.1055 20.1977 23.1055 20.1977 23.1055 20.1977C23.1055 20.1977 23.1055 20.1977 23.1055 20.1977C23.1055 20.1977 23.1055 20.1977 23.1055 20.1977C23.1055 20.1977 23.1055 20.1977 23.1055 20.1977C23.1055 20.1977 23.1055 20.1977 23.1055 20.1977C23.1055 20.1977 23.1055 20.1977 23.1055 20.1977C23.1055 20.1977 23.1055 20.1977 23.1055 20.1977C23.1055 20.1977 23.1055 20.1977 23.1055 20.1977L21.6913 18.7835C21.6913 18.7835 21.6913 18.7835 21.6913 18.7835C21.6913 18.7835 21.6913 18.7835 21.6913 18.7835C21.6913 18.7835 21.6913 18.7835 21.6913 18.7835C21.6913 18.7835 21.6913 18.7835 21.6913 18.7835C21.6913 18.7835 21.6913 18.7835 21.6913 18.7835C21.6913 18.7835 21.6913 18.7835 21.6913 18.7835C21.6913 18.7835 21.6913 18.7835 21.6913 18.7835C21.6913 18.7835 21.6913 18.7835 21.6913 18.7835C21.6913 18.7835 21.6913 18.7835 21.6913 18.7835C21.6913 18.7835 21.6913 18.7835 21.6913 18.7835C21.6913 18.7835 21.6913 18.7835 21.6913 18.7835C21.6913 18.7835 21.6913 18.7835 21.6913 18.7835C21.6913 18.7835 21.6913 18.7835 21.6913 18.7835C21.6913 18.7835 21.6913 18.7835 21.6913 18.7835C21.6913 18.7835 21.6913 18.7835 21.6913 18.7835C21.6913 18.7835 21.6913 18.7835 21.6913 18.7835C21.6913 18.7835 21.6913 18.7835 21.6913 18.7835C21.6913 18.7835 21.6913 18.7835 21.6913 18.7835C21.6913 18.7835 21.6913 18.7835 21.6913 18.7835C21.6913 18.7835 21.6913 18.7835 21.6913 18.7835C21.6913 18.7835 21.6913 18.7835 21.6913 18.7835C21.6913 18.7835 21.6913 18.7835 21.6913 18.7835C21.6913 18.7835 21.6913 18.7835 21.6913 18.7835C21.6913 18.7835 21.6913 18.7835 21.6913 18.7835C21.6913 18.7835 21.6913 18.7835 21.6913 18.7835C21.6913 18.7835 21.6913 18.7835 21.6913 18.7835C21.6913 18.7835 21.6913 18.7835 21.6913 18.7835C21.6913 18.7835 21.6913 18.7835 21.6913 18.7835C21.6913 18.7835 21.6913 18.7835 21.6913 18.7835C21.6913 18.7835 21.6913 18.7835 21.6913 18.7835C21.6913 18.7835 21.6913 18.7835 21.6913 18.7835C21.6913 18.7835 21.6913 18.7835 21.6913 18.7835C21.6913 18.7835 21.6913 18.7835 21.6913 18.7835C21.6913 18.7835 21.6913 18.7835 21.6913 18.7835C21.6913 18.7835 21.6913 18.7835 21.6913 18.7835C21.6913 18.7835 21.6913 18.7835 21.6913 18.7835C21.6913 18.7835 21.6913 18.7835 21.6913 18.7835C21.6913 18.7835 21.6913 18.7835 21.6913 18.7835C21.6913 18.7835 21.6913 18.7835 21.6913 18.7835C21.6913 18.7835 21.6913 18.7835 21.6913 18.7835C21.6913 18.7835 21.6913 18.7835 21.6913 18.7835C21.6913 18.7835 21.6913 18.7835 21.6913 18.7835C21.6912 18.7835 21.6912 18.7835 21.6912 18.7835C21.6912 18.7835 21.6912 18.7835 21.6912 18.7835C21.6912 18.7835 21.6912 18.7835 21.6912 18.7835C21.6912 18.7835 21.6912 18.7835 21.6912 18.7835C21.6912 18.7835 21.6912 18.7835 21.6912 18.7835C21.6912 18.7835 21.6912 18.7835 21.6912 18.7835C21.6912 18.7835 21.6912 18.7835 21.6912 18.7835C21.6912 18.7835 21.6912 18.7835 21.6912 18.7835C21.6912 18.7835 21.6912 18.7835 21.6912 18.7835C21.6912 18.7835 21.6912 18.7835 21.6912 18.7835C21.6912 18.7835 21.6912 18.7835 21.6912 18.7835C21.6912 18.7835 21.6912 18.7835 21.6912 18.7835C21.6912 18.7835 21.6912 18.7835 21.6912 18.7835C21.6912 18.7835 21.6912 18.7835 21.6912 18.7835C21.6912 18.7835 21.6912 18.7835 21.6912 18.7835C21.6912 18.7835 21.6912 18.7835 21.6912 18.7835C21.6912 18.7835 21.6912 18.7835 21.6912 18.7835C21.6912 18.7835 21.6912 18.7835 21.6912 18.7835C21.6912 18.7835 21.6912 18.7835 21.6912 18.7835C21.6912 18.7835 21.6912 18.7835 21.6912 18.7835C21.6912 18.7835 21.6912 18.7835 21.6912 18.7835C21.6912 18.7835 21.6912 18.7835 21.6912 18.7835C21.6912 18.7835 21.6912 18.7835 21.6912 18.7835C21.6912 18.7835 21.6912 18.7835 21.6912 18.7835C21.6912 18.7835 21.6912 18.7835 21.6912 18.7835C21.6912 18.7835 21.6912 18.7835 21.6912 18.7835C21.6912 18.7835 21.6912 18.7835 21.6912 18.7835C21.6912 18.7835 21.6912 18.7835 21.6912 18.7835C21.6912 18.7835 21.6912 18.7835 21.6912 18.7835C21.6912 18.7835 21.6912 18.7835 21.6912 18.7835C21.6912 18.7835 21.6912 18.7835 21.6912 18.7835C21.6912 18.7835 21.6912 18.7835 21.6912 18.7835C21.6912 18.7835 21.6912 18.7835 21.6912 18.7835C21.6912 18.7835 21.6912 18.7835 21.6912 18.7835C21.6912 18.7835 21.6912 18.7835 21.6912 18.7835C21.6912 18.7835 21.6912 18.7835 21.6912 18.7835C21.6912 18.7835 21.6912 18.7835 21.6912 18.7835C21.6912 18.7835 21.6912 18.7835 21.6912 18.7835C21.6912 18.7835 21.6912 18.7835 21.6912 18.7835C21.6912 18.7835 21.6912 18.7835 21.6912 18.7835C21.6912 18.7835 21.6912 18.7835 21.6912 18.7835C21.6912 18.7835 21.6912 18.7835 21.6912 18.7835C21.6912 18.7835 21.6912 18.7835 21.6912 18.7835C21.6912 18.7835 21.6912 18.7835 21.6912 18.7835C21.6912 18.7835 21.6912 18.7835 21.6912 18.7835C21.6912 18.7835 21.6912 18.7835 21.6912 18.7835C21.6912 18.7835 21.6912 18.7835 21.6912 18.7835C21.6912 18.7835 21.6912 18.7835 21.6912 18.7835C21.6912 18.7835 21.6912 18.7835 21.6912 18.7835C21.6912 18.7835 21.6912 18.7835 21.6912 18.7835C21.6912 18.7835 21.6912 18.7835 21.6912 18.7835C21.6912 18.7835 21.6912 18.7835 21.6912 18.7835C21.6912 18.7835 21.6912 18.7835 21.6912 18.7835C21.6912 18.7835 21.6912 18.7835 21.6912 18.7835C21.6912 18.7835 21.6912 18.7835 21.6912 18.7835C21.6912 18.7835 21.6912 18.7835 21.6912 18.7835C21.6912 18.7835 21.6912 18.7835 21.6912 18.7835C21.6912 18.7835 21.6912 18.7835 21.6912 18.7835C21.6912 18.7835 21.6912 18.7835 21.6912 18.7835C21.6912 18.7835 21.6912 18.7835 21.6912 18.7835C21.6912 18.7835 21.6912 18.7835 21.6912 18.7835C21.6912 18.7835 21.6912 18.7835 21.6912 18.7835C21.6912 18.7835 21.6912 18.7835 21.6912 18.7835C21.6912 18.7835 21.6912 18.7835 21.6912 18.7835C21.6912 18.7835 21.6912 18.7835 21.6912 18.7835C21.6912 18.7835 21.6912 18.7835 21.6912 18.7835C21.6912 18.7835 21.6912 18.7835 21.6912 18.7835C21.6912 18.7835 21.6912 18.7835 21.6912 18.7835C21.6912 18.7835 21.6912 18.7835 21.6912 18.7835C21.6912 18.7835 21.6912 18.7835 21.6912 18.7835C21.6912 18.7835 21.6912 18.7835 21.6912 18.7835C21.6912 18.7835 21.6912 18.7835 21.6912 18.7835C21.6912 18.7835 21.6912 18.7835 21.6912 18.7835C21.6912 18.7835 21.6912 18.7835 21.6912 18.7835C21.6912 18.7835 21.6912 18.7835 21.6912 18.7835C21.6912 18.7835 21.6912 18.7835 21.6912 18.7835C21.6912 18.7835 21.6912 18.7835 21.6912 18.7835C21.6912 18.7835 21.6912 18.7835 21.6912 18.7835C21.6912 18.7835 21.6912 18.7835 21.6912 18.7835C21.6912 18.7835 21.6912 18.7835 21.6912 18.7835C21.6912 18.7835 21.6912 18.7835 21.6912 18.7835C21.6912 18.7835 21.6912 18.7835 21.6912 18.7835C21.6912 18.7835 21.6912 18.7835 21.6912 18.7835C21.6912 18.7835 21.6912 18.7835 21.6912 18.7835C21.6912 18.7835 21.6912 18.7835 21.6912 18.7835C21.6912 18.7835 21.6912 18.7835 21.6912 18.7835C21.6912 18.7835 21.6912 18.7835 21.6912 18.7835C21.6912 18.7835 21.6912 18.7835 21.6912 18.7835C21.6912 18.7835 21.6912 18.7835 21.6912 18.7835C21.6912 18.7835 21.6912 18.7835 21.6912 18.7835C21.6912 18.7835 21.6912 18.7835 21.6912 18.7835C21.6912 18.7835 21.6912 18.7835 21.6912 18.7835C21.6912 18.7835 21.6912 18.7835 21.6912 18.7835C21.6912 18.7835 21.6912 18.7835 21.6912 18.7835C21.6912 18.7835 21.6912 18.7835 21.6912 18.7835C21.6912 18.7835 21.6912 18.7835 21.6912 18.7835C21.6912 18.7835 21.6912 18.7835 21.6912 18.7835C21.6912 18.7835 21.6912 18.7835 21.6912 18.7835C21.6912 18.7835 21.6912 18.7835 21.6912 18.7835C21.6912 18.7835 21.6912 18.7835 21.6912 18.7835C21.6912 18.7835 21.6912 18.7835 21.6912 18.7835C21.6912 18.7835 21.6912 18.7835 21.6912 18.7835C21.6912 18.7835 21.6912 18.7835 21.6912 18.7835C21.6912 18.7835 21.6912 18.7835 21.6912 18.7835C21.6912 18.7835 21.6912 18.7835 21.6912 18.7835C21.6912 18.7835 21.6912 18.7835 21.6912 18.7835C21.6912 18.7835 21.6912 18.7835 21.6912 18.7835C21.6912 18.7835 21.6912 18.7835 21.6912 18.7835C21.6912 18.7835 21.6912 18.7835 21.6912 18.7835C21.6912 18.7835 21.6912 18.7835 21.6912 18.7835C21.6912 18.7835 21.6912 18.7835 21.6912 18.7835C21.6912 18.7835 21.6912 18.7835 21.6912 18.7835C21.6912 18.7835 21.6912 18.7835 21.6912 18.7835C21.6912 18.7835 21.6912 18.7835 21.6912 18.7835C21.6912 18.7835 21.6912 18.7835 21.6912 18.7835C21.6912 18.7835 21.6912 18.7835 21.6912 18.7835C21.6912 18.7835 21.6912 18.7835 21.6912 18.7835C21.6912 18.7835 21.6912 18.7835 21.6912 18.7835C21.6912 18.7835 21.6912 18.7835 21.6912 18.7835C21.6912 18.7835 21.6912 18.7835 21.6912 18.7835C21.6912 18.7835 21.6912 18.7835 21.6912 18.7835C21.6912 18.7835 21.6912 18.7835 21.6912 18.7835C21.6912 18.7835 21.6912 18.7835 21.6912 18.7835C21.6912 18.7835 21.6912 18.7835 21.6912 18.7835C21.6912 18.7835 21.6912 18.7835 21.6912 18.7835C21.6912 18.7835 21.6912 18.7835 21.6912 18.7835C21.6912 18.7835 21.6912 18.7835 21.6912 18.7835C21.6912 18.7835 21.6912 18.7835 21.6912 18.7835C21.6912 18.7835 21.6912 18.7835 21.6912 18.7835C21.6912 18.7835 21.6912 18.7835 21.6912 18.7835C21.6912 18.7835 21.6912 18.7835 21.6912 18.7835C21.6912 18.7835 21.6912 18.7835 21.6912 18.7835C21.6912 18.7835 21.6912 18.7835 21.6912 18.7835C21.6912 18.7835 21.6912 18.7835 21.6912 18.7835C21.6912 18.7835 21.6912 18.7835 21.6912 18.7835C21.6912 18.7835 21.6912 18.7835 21.6912 18.7835C21.6912 18.7835 21.6912 18.7835 21.6912 18.7835C21.6912 18.7835 21.6912 18.7835 21.6912 18.7835C21.6912 18.7835 21.6912 18.7835 21.6912 18.7835C21.6912 18.7835 21.6912 18.7835 21.6912 18.7835C21.6912 18.7835 21.6912 18.7835 21.6912 18.7835C21.6912 18.7835 21.6912 18.7835 21.6912 18.7835C21.6912 18.7835 21.6912 18.7835 21.6912 18.7835C21.6912 18.7835 21.6912 18.7835 21.6912 18.7835C21.6912 18.7835 21.6912 18.7835 21.6912 18.7835C21.6912 18.7835 21.6912 18.7835 21.6912 18.7835C21.6912 18.7835 21.6912 18.7835 21.6912 18.7835C21.6912 18.7835 21.6912 18.7835 21.6912 18.7835C21.6912 18.7835 21.6912 18.7835 21.6912 18.7835C21.6912 18.7835 21.6912 18.7835 21.6912 18.7835C21.6912 18.7835 21.6912 18.7835 21.6912 18.7835C21.6912 18.7835 21.6912 18.7835 21.6912 18.7835C21.6912 18.7835 21.6912 18.7835 21.6912 18.7835C21.6912 18.7835 21.6912 18.7835 21.6912 18.7835C21.6912 18.7835 21.6912 18.7835 21.6912 18.7835C21.6912 18.7835 21.6912 18.7835 21.6912 18.7835C21.6912 18.7835 21.6912 18.7835 21.6912 18.7835C21.6912 18.7835 21.6912 18.7835 21.6912 18.7835C21.6912 18.7835 21.6912 18.7835 21.6912 18.7835C21.6912 18.7835 21.6912 18.7835 21.6912 18.7835C21.6912 18.7835 21.6912 18.7835 21.6912 18.7835C21.6912 18.7835 21.6912 18.7835 21.6912 18.7835C21.6912 18.7835 21.6912 18.7835 21.6912 18.7835C21.6912 18.7835 21.6912 18.7835 21.6912 18.7835C21.6912 18.7835 21.6912 18.7835 21.6912 18.7835C21.6912 18.7835 21.6912 18.7835 21.6912 18.7835C21.6912 18.7835 21.6912 18.7835 21.6912 18.7835C21.6912 18.7835 21.6912 18.7835 21.6912 18.7835C21.6912 18.7835 21.6912 18.7835 21.6912 18.7835C21.6912 18.7835 21.6912 18.7835 21.6912 18.7835C21.6912 18.7835 21.6912 18.7835 21.6912 18.7835C21.6912 18.7835 21.6912 18.7835 21.6912 18.7835C21.6912 18.7835 21.6912 18.7835 21.6912 18.7835C21.6912 18.7835 21.6912 18.7835 21.6912 18.7835C21.6912 18.7835 21.6912 18.7835 21.6912 18.7835C21.6912 18.7835 21.6912 18.7835 21.6912 18.7835C21.6912 18.7835 21.6912 18.7835 21.6912 18.7835C21.6912 18.7835 21.6912 18.7835 21.6912 18.7835C21.6912 18.7835 21.6912 18.7835 21.6912 18.7835C21.6912 18.7835 21.6912 18.7835 21.6912 18.7835C21.6912 18.7835 21.6912 18.7835 21.6912 18.7835C21.6912 18.7835 21.6912 18.7835 21.6912 18.7835C21.6912 18.7835 21.6912 18.7835 21.6912 18.7835C21.6912 18.7835 21.6912 18.7835 21.6912 18.7835C21.6912 18.7835 21.6912 18.7835 21.6912 18.7835C21.6912 18.7835 21.6912 18.7835 21.6912 18.7835C21.6912 18.7835 21.6912 18.7835 21.6912 18.7835C21.6912 18.7835 21.6912 18.7835 21.6912 18.7835C21.6912 18.7835 21.6912 18.7835 21.6912 18.7835C21.6912 18.7835 21.6912 18.7835 21.6912 18.7835C21.6912 18.7835 21.6912 18.7835 21.6912 18.7835C21.6912 18.7835 21.6912 18.7835 21.6912 18.7835C21.6912 18.7835 21.6912 18.7835 21.6912 18.7835C21.6912 18.7835 21.6912 18.7835 21.6912 18.7835C21.6912 18.7835 21.6912 18.7835 21.6912 18.7835C21.6912 18.7835 21.6912 18.7835 21.6912 18.7835C21.6912 18.7835 21.6912 18.7835 21.6912 18.7835C21.6912 18.7835 21.6912 18.7835 21.6912 18.7835C21.6912 18.7835 21.6912 18.7835 21.6912 18.7835C21.6912 18.7835 21.6912 18.7835 21.6912 18.7835C21.6912 18.7835 21.6912 18.7835 21.6912 18.7835C21.6912 18.7835 21.6912 18.7835 21.6912 18.7835C21.6912 18.7835 21.6912 18.7835 21.6912 18.7835C21.6912 18.7835 21.6912 18.7835 21.6912 18.7835C21.6912 18.7835 21.6912 18.7835 21.6912 18.7835C21.6912 18.7835 21.6912 18.7835 21.6912 18.7835C21.6912 18.7835 21.6912 18.7835 21.6912 18.7835C21.6912 18.7835 21.6912 18.7835 21.6912 18.7835C21.6912 18.7835 21.6912 18.7835 21.6912 18.7835C21.6912 18.7835 21.6912 18.7835 21.6912 18.7835C21.6912 18.7835 21.6912 18.7835 21.6912 18.7835C21.6912 18.7835 21.6912 18.7835 21.6912 18.7835C21.6912 18.7835 21.6912 18.7835 21.6912 18.7835C21.6912 18.7835 21.6912 18.7835 21.6912 18.7835C21.6912 18.7835 21.6912 18.7835 21.6912 18.7835C21.6912 18.7835 21.6912 18.7835 21.6912 18.7835C21.6912 18.7835 21.6912 18.7835 21.6912 18.7835C21.6912 18.7835 21.6912 18.7835 21.6912 18.7835C21.6912 18.7835 21.6912 18.7835 21.6912 18.7835C21.6912 18.7835 21.6912 18.7835 21.6912 18.7835C21.6912 18.7835 21.6912 18.7835 21.6912 18.7835C21.6912 18.7835 21.6912 18.7835 21.6912 18.7835C21.6912 18.7835 21.6912 18.7835 21.6912 18.7835C21.6912 18.7835 21.6912 18.7835 21.6912 18.7835C21.6912 18.7835 21.6912 18.7835 21.6912 18.7835C21.6912 18.7835 21.6912 18.7835 21.6912 18.7835C21.6912 18.7835 21.6912 18.7835 21.6912 18.7835C21.6912 18.7835 21.6912 18.7835 21.6912 18.7835C21.6912 18.7835 21.6912 18.7835 21.6912 18.7835C21.6912 18.7835 21.6912 18.7835 21.6912 18.7835C21.6912 18.7835 21.6912 18.7835 21.6912 18.7835C21.6912 18.7835 21.6912 18.7835 21.6912 18.7835C21.6912 18.7835 21.6912 18.7835 21.6912 18.7835C21.6912 18.7835 21.6912 18.7835 21.6912 18.7835C21.6912 18.7835 21.6912 18.7835 21.6912 18.7835C21.6912 18.7835 21.6912 18.7835 21.6912 18.7835C21.6912 18.7835 21.6912 18.7835 21.6912 18.7835C21.6912 18.7835 21.6912 18.7835 21.6912 18.7835C21.6912 18.7835 21.6912 18.7835 21.6912 18.7835C21.6912 18.7835 21.6912 18.7835 21.6912 18.7835C21.6912 18.7835 21.6912 18.7835 21.6912 18.7835C21.6912 18.7835 21.6912 18.7835 21.6912 18.7835C21.6912 18.7835 21.6912 18.7835 21.6912 18.7835C21.6912 18.7835 21.6912 18.7835 21.6912 18.7835C21.6912 18.7835 21.6912 18.7835 21.6912 18.7835C21.6912 18.7835 21.6912 18.7835 21.6912 18.7835C21.6912 18.7835 21.6912 18.7835 21.6912 18.7835C21.6912 18.7835 21.6912 18.7835 21.6912 18.7835C21.6912 18.7835 21.6912 18.7835 21.6912 18.7835C21.6912 18.7835 21.6912 18.7835 21.6912 18.7835C21.6912 18.7835 21.6912 18.7835 21.6912 18.7835C21.6912 18.7835 21.6912 18.7835 21.6912 18.7835C21.6912 18.7835 21.6912 18.7835 21.6912 18.7835C21.6912 18.7835 21.6912 18.7835 21.6912 18.7835C21.6912 18.7835 21.6912 18.7835 21.6912 18.7835C21.6912 18.7835 21.6912 18.7835 21.6912 18.7835C21.6912 18.7835 21.6912 18.7835 21.6912 18.7835C21.6912 18.7835 21.6912 18.7835 21.6912 18.7835C21.6912 18.7835 21.6912 18.7835 21.6912 18.7835C21.6912 18.7835 21.6912 18.7835 21.6912 18.7835C21.6912 18.7835 21.6912 18.7835 21.6912 18.7835C21.6912 18.7835 21.6912 18.7835 21.6912 18.7835C21.6912 18.7835 21.6912 18.7835 21.6912 18.7835C21.6912 18.7835 21.6912 18.7835 21.6912 18.7835C21.6912 18.7835 21.6912 18.7835 21.6912 18.7835C21.6912 18.7835 21.6912 18.7835 21.6912 18.7835C21.6912 18.7835 21.6912 18.7835 21.6912 18.7835C21.6912 18.7835 21.6912 18.7835 21.6912 18.7835C21.6912 18.7835 21.6912 18.7835 21.6912 18.7835C21.6912 18.7835 21.6912 18.7835 21.6912 18.7835C21.6912 18.7835 21.6912 18.7835 21.6912 18.7835C21.6912 18.7835 21.6912 18.7835 21.6912 18.7835C21.6912 18.7835 21.6912 18.7835 21.6912 18.7835C21.6912 18.7835 21.6912 18.7835 21.6912 18.7835C21.6912 18.7835 21.6912 18.7835 21.6912 18.7835C21.6912 18.7835 21.6912 18.7835 21.6912 18.7835C21.6912 18.7835 21.6912 18.7835 21.6912 18.7835C21.6912 18.7835 21.6912 18.7835 21.6912 18.7835C21.6912 18.7835 21.6912 18.7835 21.6912 18.7835C21.6912 18.7835 21.6912 18.7835 21.6912 18.7835C21.6912 18.7835 21.6912 18.7835 21.6912 18.7835C21.6912 18.7835 21.6912 18.7835 21.6912 18.7835C21.6912 18.7835 21.6912 18.7835 21.6912 18.7835C21.6912 18.7835 21.6912 18.7835 21.6912 18.7835C21.6912 18.7835 21.6912 18.7835 21.6912 18.7835C21.6912 18.7835 21.6912 18.7835 21.6912 18.7835C21.6912 18.7835 21.6912 18.7835 21.6912 18.7835C21.6912 18.7835 21.6912 18.7835 21.6912 18.7835C21.6912 18.7835 21.6912 18.7835 21.6912 18.7835C21.6912 18.7835 21.6912 18.7835 21.6912 18.7835C21.6912 18.7835 21.6912 18.7835 21.6912 18.7835C21.6912 18.7835 21.6912 18.7835 21.6912 18.7835C21.6912 18.7835 21.6912 18.7835 21.6912 18.7835C21.6912 18.7835 21.6912 18.7836 21.6912 18.7836C21.6912 18.7836 21.6912 18.7836 21.6912 18.7836C21.6912 18.7836 21.6912 18.7836 21.6912 18.7836C21.6912 18.7836 21.6912 18.7836 21.6912 18.7836C21.6912 18.7836 21.6912 18.7836 21.6912 18.7836C21.6912 18.7836 21.6912 18.7836 21.6912 18.7836C21.6912 18.7836 21.6912 18.7836 21.6912 18.7836C21.6912 18.7836 21.6912 18.7836 21.6912 18.7836C21.6912 18.7836 21.6912 18.7836 21.6912 18.7836C21.6912 18.7836 21.6912 18.7836 21.6912 18.7836C21.6912 18.7836 21.6912 18.7836 21.6912 18.7836C21.6912 18.7836 21.6912 18.7836 21.6912 18.7836C21.6912 18.7836 21.6912 18.7836 21.6912 18.7836C21.6912 18.7836 21.6912 18.7836 21.6912 18.7836C21.6912 18.7836 21.6912 18.7836 21.6912 18.7836C21.6912 18.7836 21.6912 18.7836 21.6912 18.7836C21.6912 18.7836 21.6912 18.7836 21.6912 18.7836C21.6912 18.7836 21.6912 18.7836 21.6912 18.7836C21.6912 18.7836 21.6912 18.7836 21.6912 18.7836C21.6912 18.7836 21.6912 18.7836 21.6912 18.7836C21.6912 18.7836 21.6912 18.7836 21.6912 18.7836C21.6912 18.7836 21.6912 18.7836 21.6912 18.7836C21.6912 18.7836 21.6912 18.7836 21.6912 18.7836C21.6912 18.7836 21.6912 18.7836 21.6912 18.7836C21.6912 18.7836 21.6912 18.7836 21.6912 18.7836C21.6912 18.7836 21.6912 18.7836 21.6912 18.7836C21.6912 18.7836 21.6912 18.7836 21.6912 18.7836C21.6912 18.7836 21.6912 18.7836 21.6912 18.7836C21.6912 18.7836 21.6912 18.7836 21.6912 18.7836C21.6912 18.7836 21.6912 18.7836 21.6912 18.7836C21.6912 18.7836 21.6912 18.7836 21.6912 18.7836C21.6912 18.7836 21.6912 18.7836 21.6912 18.7836C21.6912 18.7836 21.6912 18.7836 21.6912 18.7836C21.6912 18.7836 21.6912 18.7836 21.6912 18.7836C21.6912 18.7836 21.6912 18.7836 21.6912 18.7836C21.6912 18.7836 21.6912 18.7836 21.6912 18.7836C21.6912 18.7836 21.6912 18.7836 21.6912 18.7836C21.6912 18.7836 21.6912 18.7836 21.6912 18.7836C21.6912 18.7836 21.6912 18.7836 21.6912 18.7836C21.6912 18.7836 21.6912 18.7836 21.6912 18.7836C21.6912 18.7836 21.6912 18.7836 21.6912 18.7836C21.6912 18.7836 21.6912 18.7836 21.6912 18.7836C21.6912 18.7836 21.6912 18.7836 21.6912 18.7836C21.6912 18.7836 21.6912 18.7836 21.6912 18.7836C21.6912 18.7836 21.6912 18.7836 21.6912 18.7836C21.6912 18.7836 21.6912 18.7836 21.6912 18.7836C21.6912 18.7836 21.6912 18.7836 21.6912 18.7836C21.6912 18.7836 21.6912 18.7836 21.6912 18.7836C21.6912 18.7836 21.6912 18.7836 21.6912 18.7836C21.6912 18.7836 21.6912 18.7836 21.6912 18.7836C21.6912 18.7836 21.6912 18.7836 21.6912 18.7836C21.6912 18.7836 21.6912 18.7836 21.6912 18.7836C21.6912 18.7836 21.6912 18.7836 21.6912 18.7836C21.6912 18.7836 21.6912 18.7836 21.6912 18.7836C21.6912 18.7836 21.6912 18.7836 21.6912 18.7836C21.6912 18.7836 21.6912 18.7836 21.6912 18.7836C21.6912 18.7836 21.6912 18.7836 21.6912 18.7836C21.6912 18.7836 21.6912 18.7836 21.6912 18.7836C21.6912 18.7836 21.6912 18.7836 21.6912 18.7836C21.6912 18.7836 21.6912 18.7836 21.6912 18.7836C21.6912 18.7836 21.6912 18.7836 21.6912 18.7836C21.6912 18.7836 21.6912 18.7836 21.6912 18.7836C21.6912 18.7836 21.6912 18.7836 21.6912 18.7836C21.6912 18.7836 21.6912 18.7836 21.6912 18.7836C21.6912 18.7836 21.6912 18.7836 21.6912 18.7836C21.6912 18.7836 21.6912 18.7836 21.6912 18.7836C21.6912 18.7836 21.6912 18.7836 21.6912 18.7836C21.6912 18.7836 21.6912 18.7836 21.6912 18.7836C21.6912 18.7836 21.6912 18.7836 21.6912 18.7836C21.6912 18.7836 21.6912 18.7836 21.6912 18.7836C21.6912 18.7836 21.6912 18.7836 21.6912 18.7836C21.6912 18.7836 21.6912 18.7836 21.6912 18.7836C21.6912 18.7836 21.6912 18.7836 21.6912 18.7836C21.6912 18.7836 21.6912 18.7836 21.6912 18.7836C21.6912 18.7836 21.6912 18.7836 21.6912 18.7836C21.6912 18.7836 21.6912 18.7836 21.6912 18.7836C21.6912 18.7836 21.6912 18.7836 21.6912 18.7836C21.6912 18.7836 21.6912 18.7836 21.6912 18.7836C21.6912 18.7836 21.6912 18.7836 21.6912 18.7836C21.6912 18.7836 21.6912 18.7836 21.6912 18.7836C21.6912 18.7836 21.6912 18.7836 21.6912 18.7836C21.6912 18.7836 21.6912 18.7836 21.6912 18.7836C21.6912 18.7836 21.6912 18.7836 21.6912 18.7836C21.6912 18.7836 21.6912 18.7836 21.6912 18.7836C21.6912 18.7836 21.6912 18.7836 21.6912 18.7836C21.6912 18.7836 21.6912 18.7836 21.6912 18.7836C21.6912 18.7836 21.6912 18.7836 21.6912 18.7836C21.6912 18.7836 21.6912 18.7836 21.6912 18.7836C21.6912 18.7836 21.6912 18.7836 21.6912 18.7836C21.6912 18.7836 21.6912 18.7836 21.6912 18.7836C21.6912 18.7836 21.6912 18.7836 21.6912 18.7836C21.6912 18.7836 21.6912 18.7836 21.6912 18.7836C21.6912 18.7836 21.6912 18.7836 21.6912 18.7836C21.6912 18.7836 21.6912 18.7836 21.6912 18.7836C21.6912 18.7836 21.6912 18.7836 21.6912 18.7836C21.6912 18.7836 21.6912 18.7836 21.6912 18.7836C21.6912 18.7836 21.6912 18.7836 21.6912 18.7836C21.6912 18.7836 21.6912 18.7836 21.6912 18.7836C21.6912 18.7836 21.6912 18.7836 21.6912 18.7836C21.6912 18.7836 21.6912 18.7836 21.6912 18.7836C21.6912 18.7836 21.6912 18.7836 21.6912 18.7836C21.6912 18.7836 21.6912 18.7836 21.6912 18.7836C21.6912 18.7836 21.6912 18.7836 21.6912 18.7836C21.6912 18.7836 21.6912 18.7836 21.6912 18.7836C21.6912 18.7836 21.6912 18.7836 21.6912 18.7836C21.6912 18.7836 21.6912 18.7836 21.6912 18.7836C21.6912 18.7836 21.6912 18.7836 21.6912 18.7836C21.6912 18.7836 21.6912 18.7836 21.6912 18.7836C21.6912 18.7836 21.6912 18.7836 21.6912 18.7836C21.6912 18.7836 21.6912 18.7836 21.6912 18.7836C21.6912 18.7836 21.6912 18.7836 21.6912 18.7836C21.6912 18.7836 21.6912 18.7836 21.6912 18.7836C21.6912 18.7836 21.6912 18.7836 21.6912 18.7836C21.6912 18.7836 21.6912 18.7836 21.6912 18.7836C21.6912 18.7836 21.6912 18.7836 21.6912 18.7836C21.6912 18.7836 21.6912 18.7836 21.6912 18.7836C21.6912 18.7836 21.6912 18.7836 21.6912 18.7836C21.6912 18.7836 21.6912 18.7836 21.6912 18.7836C21.6912 18.7836 21.6912 18.7836 21.6912 18.7836C21.6912 18.7836 21.6912 18.7836 21.6912 18.7836C21.6912 18.7836 21.6912 18.7836 21.6912 18.7836C21.6912 18.7836 21.6912 18.7836 21.6912 18.7836C21.6912 18.7836 21.6912 18.7836 21.6912 18.7836C21.6912 18.7836 21.6912 18.7836 21.6912 18.7836C21.6912 18.7836 21.6912 18.7836 21.6912 18.7836C21.6912 18.7836 21.6912 18.7836 21.6912 18.7836C21.6912 18.7836 21.6912 18.7836 21.6912 18.7836C21.6912 18.7836 21.6912 18.7836 21.6912 18.7836C21.6912 18.7836 21.6912 18.7836 21.6912 18.7836C21.6912 18.7836 21.6912 18.7836 21.6912 18.7836C21.6912 18.7836 21.6912 18.7836 21.6912 18.7836C21.6912 18.7836 21.6912 18.7836 21.6912 18.7836C21.6912 18.7836 21.6912 18.7836 21.6912 18.7836C21.6912 18.7836 21.6912 18.7836 21.6912 18.7836C21.6912 18.7836 21.6912 18.7836 21.6912 18.7836C21.6912 18.7836 21.6912 18.7836 21.6912 18.7836C21.6912 18.7836 21.6912 18.7836 21.6912 18.7836C21.6912 18.7836 21.6912 18.7836 21.6912 18.7836C21.6912 18.7836 21.6912 18.7836 21.6912 18.7836C21.6912 18.7836 21.6912 18.7836 21.6912 18.7836C21.6912 18.7836 21.6912 18.7836 21.6912 18.7836C21.6912 18.7836 21.6912 18.7836 21.6912 18.7836C21.6912 18.7836 21.6912 18.7836 21.6912 18.7836C21.6912 18.7836 21.6912 18.7836 21.6912 18.7836C21.6912 18.7836 21.6912 18.7836 21.6912 18.7836C21.6912 18.7836 21.6912 18.7836 21.6912 18.7836C21.6912 18.7836 21.6912 18.7836 21.6912 18.7836C21.6912 18.7836 21.6912 18.7836 21.6912 18.7836C21.6912 18.7836 21.6912 18.7836 21.6912 18.7836C21.6912 18.7836 21.6912 18.7836 21.6912 18.7836C21.6912 18.7836 21.6912 18.7836 21.6912 18.7836C21.6912 18.7836 21.6912 18.7836 21.6912 18.7836C21.6912 18.7836 21.6912 18.7836 21.6912 18.7836C21.6912 18.7836 21.6912 18.7836 21.6912 18.7836C21.6912 18.7836 21.6912 18.7836 21.6912 18.7836C21.6912 18.7836 21.6912 18.7836 21.6912 18.7836C21.6912 18.7836 21.6912 18.7836 21.6912 18.7836C21.6912 18.7836 21.6912 18.7836 21.6912 18.7836C21.6912 18.7836 21.6912 18.7836 21.6912 18.7836C21.6912 18.7836 21.6912 18.7836 21.6912 18.7836C21.6912 18.7836 21.6912 18.7836 21.6912 18.7836C21.6912 18.7836 21.6912 18.7836 21.6912 18.7836C21.6912 18.7836 21.6912 18.7836 21.6912 18.7836C21.6912 18.7836 21.6912 18.7836 21.6912 18.7836C21.6912 18.7836 21.6912 18.7836 21.6912 18.7836C21.6912 18.7836 21.6912 18.7836 21.6912 18.7836C21.6912 18.7836 21.6912 18.7836 21.6912 18.7836C21.6912 18.7836 21.6912 18.7836 21.6912 18.7836C21.6912 18.7836 21.6912 18.7836 21.6912 18.7836C21.6912 18.7836 21.6912 18.7836 21.6912 18.7836C21.6912 18.7836 21.6912 18.7836 21.6912 18.7836C21.6912 18.7836 21.6912 18.7836 21.6912 18.7836C21.6912 18.7836 21.6912 18.7836 21.6912 18.7836C21.6912 18.7836 21.6912 18.7836 21.6912 18.7836C21.6912 18.7836 21.6912 18.7836 21.6912 18.7836C21.6912 18.7836 21.6912 18.7836 21.6912 18.7836C21.6912 18.7836 21.6912 18.7836 21.6912 18.7836L23.1054 20.1978ZM23.1054 23.0014C22.3312 22.2272 22.3312 20.972 23.1054 20.1978L21.6912 18.7836C20.1359 20.3388 20.1359 22.8604 21.6912 24.4156L23.1054 23.0014Z" fill="#fff" mask="url(#path-2-inside-1)"/>
<circle cx="24.5089" cy="21.5988" r="1.73684" transform="rotate(45 24.5089 21.5988)" stroke="#fff"/>
<mask id="path-5-inside-2" fill="white">
<path fill-rule="evenodd" clip-rule="evenodd" d="M19.2386 11.4142L34.6958 26.8713L33.4738 28.0932L27.4552 22.0747C27.3971 22.4364 27.2722 22.7895 27.0805 23.1141L32.7667 28.8004L33.4738 29.5075L34.1809 28.8004L35.4029 27.5784L36.11 26.8713L35.4029 26.1642L19.9458 10.7071L19.2386 10L18.5315 10.7071L17.3096 11.929L16.6025 12.6361L17.3096 13.3433L22.9955 19.0291C23.3201 18.8374 23.6732 18.7125 24.0349 18.6543L18.0167 12.6361L19.2386 11.4142Z"/>
</mask>
<path fill-rule="evenodd" clip-rule="evenodd" d="M19.2386 11.4142L34.6958 26.8713L33.4738 28.0932L27.4552 22.0747C27.3971 22.4364 27.2722 22.7895 27.0805 23.1141L32.7667 28.8004L33.4738 29.5075L34.1809 28.8004L35.4029 27.5784L36.11 26.8713L35.4029 26.1642L19.9458 10.7071L19.2386 10L18.5315 10.7071L17.3096 11.929L16.6025 12.6361L17.3096 13.3433L22.9955 19.0291C23.3201 18.8374 23.6732 18.7125 24.0349 18.6543L18.0167 12.6361L19.2386 11.4142Z" fill="#fff"/>
<path d="M34.6958 26.8713L35.4029 27.5784L36.11 26.8713L35.4029 26.1642L34.6958 26.8713ZM19.2386 11.4142L19.9458 10.7071L19.2386 10L18.5315 10.7071L19.2386 11.4142ZM33.4738 28.0932L32.7667 28.8004L33.4738 29.5075L34.1809 28.8004L33.4738 28.0932ZM27.4552 22.0747L28.1624 21.3676L26.7785 19.9838L26.4679 21.916L27.4552 22.0747ZM27.0805 23.1141L26.2194 22.6056L25.8252 23.273L26.3734 23.8212L27.0805 23.1141ZM33.4738 29.5075L32.7667 30.2146L33.4738 30.9217L34.1809 30.2146L33.4738 29.5075ZM36.11 26.8713L36.8171 27.5784L37.5242 26.8713L36.8171 26.1642L36.11 26.8713ZM19.2386 10L19.9458 9.29289L19.2386 8.58579L18.5315 9.29289L19.2386 10ZM16.6025 12.6361L15.8954 11.929L15.1883 12.6361L15.8954 13.3433L16.6025 12.6361ZM17.3096 13.3433L18.0167 12.6361L17.3096 13.3433ZM22.9955 19.0291L22.2884 19.7362L22.8366 20.2844L23.504 19.8902L22.9955 19.0291ZM24.0349 18.6543L24.1936 19.6417L26.1258 19.331L24.742 17.9472L24.0349 18.6543ZM18.0167 12.6361L17.3096 11.929L16.6025 12.6361L17.3096 13.3433L18.0167 12.6361ZM35.4029 26.1642L19.9458 10.7071L18.5315 12.1213L33.9886 27.5784L35.4029 26.1642ZM34.1809 28.8004L35.4029 27.5784L33.9886 26.1642L32.7667 27.3861L34.1809 28.8004ZM26.7481 22.7818L32.7667 28.8004L34.1809 27.3861L28.1624 21.3676L26.7481 22.7818ZM26.4679 21.916C26.4292 22.1568 26.3462 22.3909 26.2194 22.6056L27.9415 23.6226C28.1981 23.1882 28.365 22.7161 28.4426 22.2334L26.4679 21.916ZM26.3734 23.8212L32.0596 29.5075L33.4738 28.0932L27.7876 22.407L26.3734 23.8212ZM32.0596 29.5075L32.7667 30.2146L34.1809 28.8004L33.4738 28.0932L32.0596 29.5075ZM34.1809 30.2146L34.888 29.5075L33.4738 28.0932L32.7667 28.8004L34.1809 30.2146ZM34.888 29.5075L36.11 28.2855L34.6958 26.8713L33.4738 28.0932L34.888 29.5075ZM36.11 28.2855L36.8171 27.5784L35.4029 26.1642L34.6958 26.8713L36.11 28.2855ZM36.8171 26.1642L36.11 25.4571L34.6958 26.8713L35.4029 27.5784L36.8171 26.1642ZM36.11 25.4571L20.6529 10L19.2386 11.4142L34.6958 26.8713L36.11 25.4571ZM20.6529 10L19.9458 9.29289L18.5315 10.7071L19.2386 11.4142L20.6529 10ZM18.5315 9.29289L17.8244 10L19.2386 11.4142L19.9458 10.7071L18.5315 9.29289ZM17.8244 10L16.6025 11.2219L18.0167 12.6361L19.2386 11.4142L17.8244 10ZM16.6025 11.2219L15.8954 11.929L17.3096 13.3433L18.0167 12.6361L16.6025 11.2219ZM15.8954 13.3433L16.6025 14.0504L18.0167 12.6361L17.3096 11.929L15.8954 13.3433ZM16.6025 14.0504L22.2884 19.7362L23.7026 18.322L18.0167 12.6361L16.6025 14.0504ZM23.504 19.8902C23.7187 19.7634 23.9528 19.6804 24.1936 19.6417L23.8762 17.667C23.3935 17.7446 22.9214 17.9115 22.4869 18.1681L23.504 19.8902ZM17.3096 13.3433L23.3278 19.3615L24.742 17.9472L18.7238 11.929L17.3096 13.3433ZM18.5315 10.7071L17.3096 11.929L18.7238 13.3433L19.9458 12.1213L18.5315 10.7071Z" fill="#fff" mask="url(#path-5-inside-2)"/>
<path d="M37.4372 25.658L32.5907 20.8115C32.5907 20.8115 36.6916 20.0657 40.0468 24.9123C43.4021 29.7589 42.6565 37.9606 42.6565 37.9606H37.4372V25.658Z" stroke="#fff"/>
</svg>
