<?xml version="1.0" standalone="no"?>
<!DOCTYPE svg PUBLIC "-//W3C//DTD SVG 1.1//EN" "http://www.w3.org/Graphics/SVG/1.1/DTD/svg11.dtd" >
<svg>
<metadata>
Created by FontForge 20090622 at Fri Feb 14 12:45:42 2020
 By deploy user
Copyright 2017 Production Systems SAS - Design Yoann Minet. Original art direction with Emmanuel Labard - All rights reserved - End-User License Agreement:  http://www.productiontype.com/license
</metadata>
<defs>
<font id="StratosLCWeb-Regular" horiz-adv-x="1126" >
  <font-face 
    font-family="Stratos LC Web"
    font-weight="400"
    font-stretch="normal"
    units-per-em="2048"
    panose-1="2 0 0 0 0 0 0 0 0 0"
    ascent="1516"
    descent="-532"
    x-height="1024"
    cap-height="1536"
    bbox="-502 -752 2527 2396"
    underline-thickness="139"
    underline-position="-296"
    unicode-range="U+0020-U+FB02"
  />
<missing-glyph horiz-adv-x="1044" 
d="M20 0v1536h1004v-1536h-1004zM184 1427l338 -559l338 559h-676zM125 209l338 559l-338 557v-1116zM922 209v1116l-338 -557zM184 113h676l-338 555z" />
    <glyph glyph-name="fi" unicode="fi" horiz-adv-x="1212" 
d="M422 1178v-154h639v-1024h-205v844h-434v-844h-205v844h-176v180h176v160q0 176 94.5 274t249.5 98q99 0 144 -14v-188q-37 14 -125 14q-158 0 -158 -190zM958 1247q-58 0 -96.5 39t-38.5 98t38.5 97.5t96.5 38.5q60 0 98 -38.5t38 -97.5t-38 -98t-98 -39z" />
    <glyph glyph-name="fl" unicode="fl" horiz-adv-x="1212" 
d="M422 1178v-154h287v-180h-287v-844h-205v844h-176v180h176v160q0 176 104 274t273 98q84 0 143 -18v-188q-55 18 -125 18q-91 0 -140.5 -47.5t-49.5 -142.5zM1061 0h-205v1536h205v-1536z" />
    <glyph glyph-name="f_b" unicode="fb" horiz-adv-x="1964" 
d="M422 1178v-154h295v-180h-295v-844h-205v844h-176v180h176v160q0 176 104 274t273 98q84 0 143 -18v-188q-55 18 -125 18q-91 0 -140.5 -47.5t-49.5 -142.5zM1888 512q0 -233 -139.5 -382.5t-351.5 -149.5q-102 0 -188.5 45.5t-147.5 128.5v-154h-205v1536h205v-666
q61 83 147.5 128.5t188.5 45.5q212 0 351.5 -149.5t139.5 -382.5zM1372 856q-135 0 -223 -95.5t-88 -248.5t88 -248.5t223 -95.5t223 95.5t88 248.5t-88 248.5t-223 95.5z" />
    <glyph glyph-name="f_f_b" unicode="ffb" horiz-adv-x="2603" 
d="M856 0v844h-434v-844h-205v844h-176v180h176v160q0 176 104 274t273 98q84 0 143 -18v-188q-55 18 -125 18q-91 0 -140.5 -47.5t-49.5 -142.5v-154h434v160q0 176 104 274t273 98q85 0 143 -18v-188q-55 18 -125 18q-91 0 -140.5 -47.5t-49.5 -142.5v-154h295v-180h-295
v-844h-205zM2527 512q0 -233 -139.5 -382.5t-351.5 -149.5q-102 0 -188.5 45.5t-147.5 128.5v-154h-205v1536h205v-666q61 83 147.5 128.5t188.5 45.5q212 0 351.5 -149.5t139.5 -382.5zM2011 856q-135 0 -223 -95.5t-88 -248.5t88 -248.5t223 -95.5t223 95.5t88 248.5
t-88 248.5t-223 95.5z" />
    <glyph glyph-name="f_f" unicode="ff" horiz-adv-x="1417" 
d="M856 0v844h-434v-844h-205v844h-176v180h176v160q0 176 104 274t273 98q84 0 143 -18v-188q-55 18 -125 18q-91 0 -140.5 -47.5t-49.5 -142.5v-154h434v160q0 176 104 274t273 98q85 0 143 -18v-188q-55 18 -125 18q-91 0 -140.5 -47.5t-49.5 -142.5v-154h295v-180h-295
v-844h-205z" />
    <glyph glyph-name="f_h" unicode="fh" horiz-adv-x="1902" 
d="M422 1178v-154h295v-180h-295v-844h-205v844h-176v180h176v160q0 176 104 274t273 98q84 0 143 -18v-188q-55 18 -125 18q-91 0 -140.5 -47.5t-49.5 -142.5zM1061 559v-559h-205v1536h205v-674q47 88 128 135t183 47q175 0 282 -113t107 -331v-600h-205v559
q0 150 -65 227.5t-182 77.5q-118 0 -183 -77.5t-65 -227.5z" />
    <glyph glyph-name="f_f_h" unicode="ffh" horiz-adv-x="2541" 
d="M856 0v844h-434v-844h-205v844h-176v180h176v160q0 176 104 274t273 98q84 0 143 -18v-188q-55 18 -125 18q-91 0 -140.5 -47.5t-49.5 -142.5v-154h434v160q0 176 104 274t273 98q85 0 143 -18v-188q-55 18 -125 18q-91 0 -140.5 -47.5t-49.5 -142.5v-154h295v-180h-295
v-844h-205zM1700 559v-559h-205v1536h205v-674q47 88 128 135t183 47q175 0 282 -113t107 -331v-600h-205v559q0 150 -65 227.5t-182 77.5q-118 0 -183 -77.5t-65 -227.5z" />
    <glyph glyph-name="f_f_i" unicode="ffi" horiz-adv-x="1851" 
d="M856 0v844h-434v-844h-205v844h-176v180h176v160q0 176 104 274t273 98q84 0 143 -18v-188q-55 18 -125 18q-91 0 -140.5 -47.5t-49.5 -142.5v-154h434v160q0 176 94.5 274t249.5 98q98 0 143 -14v-188q-37 14 -124 14q-158 0 -158 -190v-154h639v-1024h-205v844h-434
v-844h-205zM1597 1247q-58 0 -96.5 39t-38.5 98t38.5 97.5t96.5 38.5q60 0 98 -38.5t38 -97.5t-38 -98t-98 -39z" />
    <glyph glyph-name="f_j" unicode="fj" horiz-adv-x="1212" 
d="M422 1178v-154h639v-1206q0 -330 -328 -330q-70 0 -102 8v187q40 -7 76 -7q75 0 112 31.5t37 114.5v1022h-434v-844h-205v844h-176v180h176v160q0 176 104 274t273 98q84 0 143 -18v-188q-55 18 -125 18q-91 0 -140.5 -47.5t-49.5 -142.5zM958 1247q-58 0 -96.5 39
t-38.5 98t38.5 97.5t96.5 38.5q60 0 98 -38.5t38 -97.5t-38 -98t-98 -39z" />
    <glyph glyph-name="f_f_j" unicode="ffj" horiz-adv-x="1851" 
d="M1061 1178v-154h639v-1206q0 -330 -328 -330q-70 0 -102 8v187q40 -7 76 -7q75 0 112 31.5t37 114.5v1022h-434v-844h-205v844h-434v-844h-205v844h-176v180h176v160q0 176 104 274t273 98q84 0 143 -18v-188q-55 18 -125 18q-91 0 -140.5 -47.5t-49.5 -142.5v-154h434
v160q0 176 94.5 274t249.5 98q98 0 143 -14v-188q-37 14 -124 14q-158 0 -158 -190zM1597 1247q-58 0 -96.5 39t-38.5 98t38.5 97.5t96.5 38.5q60 0 98 -38.5t38 -97.5t-38 -98t-98 -39z" />
    <glyph glyph-name="f_k" unicode="fk" horiz-adv-x="1835" 
d="M422 1178v-154h287v-180h-287v-844h-205v844h-176v180h176v160q0 176 104 274t273 98q84 0 143 -18v-188q-55 18 -125 18q-91 0 -140.5 -47.5t-49.5 -142.5zM1550 0l-489 539v-539h-205v1536h205v-967l440 455h273l-482 -467l518 -557h-260z" />
    <glyph glyph-name="f_f_k" unicode="ffk" horiz-adv-x="2473" 
d="M856 0v844h-434v-844h-205v844h-176v180h176v160q0 176 104 274t273 98q84 0 143 -18v-188q-55 18 -125 18q-91 0 -140.5 -47.5t-49.5 -142.5v-154h434v160q0 176 104 274t273 98q85 0 143 -18v-188q-55 18 -125 18q-91 0 -140.5 -47.5t-49.5 -142.5v-154h287v-180h-287
v-844h-205zM2189 0l-489 539v-539h-205v1536h205v-967l440 455h273l-482 -467l518 -557h-260z" />
    <glyph glyph-name="f_f_l" unicode="ffl" horiz-adv-x="1851" 
d="M856 0v844h-434v-844h-205v844h-176v180h176v160q0 176 104 274t273 98q84 0 143 -18v-188q-55 18 -125 18q-91 0 -140.5 -47.5t-49.5 -142.5v-154h434v160q0 176 104 274t273 98q85 0 143 -18v-188q-55 18 -125 18q-91 0 -140.5 -47.5t-49.5 -142.5v-154h287v-180h-287
v-844h-205zM1700 0h-205v1536h205v-1536z" />
    <glyph glyph-name="f_t" unicode="ft" horiz-adv-x="1445" 
d="M422 1178v-154h434v287h205v-287h295v-180h-295v-494q0 -95 42 -138.5t132 -43.5q69 0 121 18v-182q-74 -24 -160 -24q-78 0 -137 17t-106 56.5t-72 111t-25 173.5v506h-434v-844h-205v844h-176v180h176v160q0 176 104 274t273 98q84 0 143 -18v-188q-55 18 -125 18
q-91 0 -140.5 -47.5t-49.5 -142.5z" />
    <glyph glyph-name="f_f_t" unicode="fft" horiz-adv-x="2084" 
d="M1061 1178v-154h434v287h205v-287h295v-180h-295v-494q0 -95 42 -138.5t132 -43.5q68 0 121 18v-182q-74 -24 -160 -24q-78 0 -137 17t-106 56.5t-72 111t-25 173.5v506h-434v-844h-205v844h-434v-844h-205v844h-176v180h176v160q0 176 104 274t273 98q84 0 143 -18v-188
q-55 18 -125 18q-91 0 -140.5 -47.5t-49.5 -142.5v-154h434v160q0 176 104 274t273 98q85 0 143 -18v-188q-55 18 -125 18q-91 0 -140.5 -47.5t-49.5 -142.5z" />
    <glyph glyph-name=".notdef" horiz-adv-x="1044" 
d="M20 0v1536h1004v-1536h-1004zM184 1427l338 -559l338 559h-676zM125 209l338 559l-338 557v-1116zM922 209v1116l-338 -557zM184 113h676l-338 555z" />
    <glyph glyph-name=".null" horiz-adv-x="0" 
 />
    <glyph glyph-name="nonmarkingreturn" horiz-adv-x="682" 
 />
    <glyph glyph-name="space" unicode=" " horiz-adv-x="471" 
 />
    <glyph glyph-name="exclam" unicode="!" horiz-adv-x="524" 
d="M356 512h-188l-16 1024h221zM262 -20q-52 0 -90.5 37.5t-38.5 88.5q0 53 38.5 91.5t90.5 38.5q53 0 90 -38.5t37 -91.5q0 -52 -37 -89t-90 -37z" />
    <glyph glyph-name="quotedbl" unicode="&#x22;" horiz-adv-x="841" 
d="M162 1024l-19 512h191l-19 -512h-153zM526 1024l-18 512h190l-18 -512h-154z" />
    <glyph glyph-name="numbersign" unicode="#" 
d="M518 0l107 422h-297l-107 -422h-155l106 422h-172v139h207l104 414h-190v139h225l107 422h155l-106 -422h297l106 422h156l-107 -422h172v-139h-206l-105 -414h191v-139h-226l-106 -422h-156zM362 561h297l105 414h-297z" />
    <glyph glyph-name="dollar" unicode="$" 
d="M991 389q0 -179 -99.5 -283t-262.5 -122v-240h-123v238q-165 18 -268 124.5t-103 282.5v115h205v-101q0 -100 44 -157.5t122 -71.5v528l-96 64q-57 38 -99.5 77t-78.5 89t-55 112.5t-19 135.5q0 166 96.5 262t251.5 112v238h123v-240q154 -21 247 -130t93 -292v-94h-205
v88q0 199 -135 236v-490l114 -77q116 -76 182 -172t66 -232zM362 1180q0 -72 37 -125.5t107 -102.5v410q-67 -12 -105.5 -59.5t-38.5 -122.5zM786 365q0 81 -40.5 141t-116.5 115v-447q74 15 115.5 65t41.5 126z" />
    <glyph glyph-name="percent" unicode="%" horiz-adv-x="1650" 
d="M367 727q-142 0 -228 103t-86 307q0 203 86 307t228 104q141 0 226 -104t85 -307q0 -204 -84.5 -307t-226.5 -103zM231 0l1065 1536h123l-1065 -1536h-123zM367 874q147 0 147 263q0 268 -147 268q-71 0 -110.5 -67t-39.5 -201q0 -133 39.5 -198t110.5 -65zM1284 -12
q-142 0 -227.5 102.5t-85.5 306.5q0 203 86 307.5t227 104.5t226 -104.5t85 -307.5q0 -204 -84.5 -306.5t-226.5 -102.5zM1284 135q148 0 148 262q0 135 -38.5 202t-109.5 67t-110 -67t-39 -202q0 -262 149 -262z" />
    <glyph glyph-name="ampersand" unicode="&#x26;" horiz-adv-x="1187" 
d="M795 0v139q-83 -159 -291 -159q-193 0 -295.5 107.5t-102.5 318.5v73q0 119 60 204t164 128q-86 43 -134.5 119.5t-48.5 183.5v70q0 177 110.5 274.5t285.5 97.5q174 0 284.5 -97.5t110.5 -274.5v-99h-205v82q0 201 -190 201q-91 0 -141 -49t-50 -152v-53
q0 -112 53 -163.5t146 -51.5h612v-186h-184v-713h-184zM543 166q116 0 173.5 58t57.5 182v307h-227q-110 0 -173 -57t-63 -179v-69q0 -128 56.5 -185t175.5 -57z" />
    <glyph glyph-name="quotesingle" unicode="'" horiz-adv-x="477" 
d="M162 1024l-19 512h191l-19 -512h-153z" />
    <glyph glyph-name="parenleft" unicode="(" horiz-adv-x="696" 
d="M197 584q0 534 315 952h172q-299 -399 -299 -952q0 -554 299 -953h-172q-315 418 -315 953z" />
    <glyph glyph-name="parenright" unicode=")" horiz-adv-x="696" 
d="M500 584q0 -534 -316 -953h-172q299 399 299 953q0 553 -299 952h172q316 -419 316 -952z" />
    <glyph glyph-name="asterisk" unicode="*" horiz-adv-x="796" 
d="M504 913l-111 207l-104 -207l-154 109l156 172l-223 33l57 178l201 -100l-25 231h186l-22 -231l205 100l59 -178l-229 -33l155 -170z" />
    <glyph glyph-name="plus" unicode="+" 
d="M973 551h-336v-354h-148v354h-335v139h335v354h148v-354h336v-139z" />
    <glyph glyph-name="comma" unicode="," horiz-adv-x="436" 
d="M358 98q0 -146 -143 -364h-117q93 156 117 246q-58 1 -95.5 40t-37.5 95q0 59 38.5 98t98.5 39t99.5 -42t39.5 -112z" />
    <glyph glyph-name="hyphen" unicode="-" horiz-adv-x="716" 
d="M606 469h-495v188h495v-188z" />
    <glyph glyph-name="period" unicode="." horiz-adv-x="436" 
d="M217 -20q-58 0 -96.5 39t-38.5 96q0 59 38.5 98t96.5 39q61 0 99 -39t38 -98q0 -58 -38 -96.5t-99 -38.5z" />
    <glyph glyph-name="slash" unicode="/" horiz-adv-x="800" 
d="M219 0h-149l512 1536h149z" />
    <glyph glyph-name="zero" unicode="0" 
d="M563 -20q-205 0 -318.5 127t-113.5 376v570q0 248 113.5 375.5t318.5 127.5q206 0 319 -127.5t113 -375.5v-570q0 -249 -113 -376t-319 -127zM563 168q111 0 169.5 74t58.5 241v570q0 166 -58.5 240.5t-169.5 74.5q-110 0 -168.5 -74.5t-58.5 -240.5v-570
q0 -167 57.5 -241t169.5 -74z" />
    <glyph glyph-name="one" unicode="1" 
d="M520 1432v104h205v-1536h-205v1057h-293v172h88q109 0 157 47.5t48 155.5z" />
    <glyph glyph-name="two" unicode="2" 
d="M954 1128q0 -86 -29 -167t-77 -147t-106 -128.5t-118.5 -121.5t-112 -117t-89.5 -125t-49 -134h602v-188h-823v102q0 99 33 190t85.5 161.5t116.5 137.5l128 129.5t116.5 124.5t85.5 134.5t33 148.5q0 122 -51 181t-138 59q-92 0 -142 -60t-50 -198v-119h-205v135
q0 207 111.5 318.5t285.5 111.5q171 0 282 -112t111 -316z" />
    <glyph glyph-name="three" unicode="3" 
d="M1016 387q0 -191 -122.5 -299t-309.5 -108q-189 0 -313 108.5t-124 302.5v90h205v-71q0 -122 62 -182t170 -60t167.5 58.5t59.5 179.5v45q0 237 -227 237h-115v205h115q186 0 186 215v61q0 102 -49.5 150.5t-136.5 48.5q-88 0 -139.5 -48t-51.5 -146v-56h-205v74
q0 172 112 268t284 96q109 0 196.5 -41t141 -126t53.5 -201v-74q0 -106 -48 -183t-132 -120q103 -43 162 -128t59 -206v-90z" />
    <glyph glyph-name="four" unicode="4" 
d="M102 471l412 1065h309v-1065h197v-188h-197v-283h-205v283h-516v188zM272 471h346v905z" />
    <glyph glyph-name="five" unicode="5" 
d="M565 864q-87 0 -136 -44t-60 -113h-197v829h766v-188h-569v-435q84 131 249 131q175 0 266 -113.5t91 -332.5v-164q0 -217 -115.5 -335.5t-294.5 -118.5q-180 0 -296.5 113t-116.5 317v57h204v-25q0 -274 209 -274q95 0 150 66.5t55 199.5v152q0 278 -205 278z" />
    <glyph glyph-name="six" unicode="6" 
d="M995 446q0 -222 -120.5 -344t-311.5 -122t-311.5 127.5t-120.5 359.5v602q0 232 120.5 359.5t311.5 127.5q184 0 300 -114.5t116 -323.5v-35h-205v19q0 266 -211 266q-227 0 -227 -315v-258q91 159 280 159q166 0 272.5 -121.5t106.5 -345.5v-41zM336 485v-36
q0 -281 227 -281q108 0 168 69t60 212v36q0 281 -228 281q-227 0 -227 -281z" />
    <glyph glyph-name="seven" unicode="7" 
d="M614 104v-104h-204v70q0 141 12 266t37.5 234t54.5 199.5t73 187t82 171l93 176.5q6 10 8.5 15.5t7 13.5l8.5 15h-614v188h782v-256q-139 -267 -173 -344q-115 -252 -148 -512q-19 -145 -19 -320z" />
    <glyph glyph-name="eight" unicode="8" 
d="M1004 391q0 -194 -125 -302.5t-316 -108.5t-315.5 108.5t-124.5 302.5v90q0 121 60 207.5t163 130.5q-83 43 -130.5 119t-47.5 180v74q0 172 111.5 268t283.5 96t283.5 -96t111.5 -268v-74q0 -104 -47.5 -180t-130.5 -119q104 -44 164 -130.5t60 -207.5v-90zM373 1174
v-54q0 -107 50 -159t140 -52q91 0 141 52t50 159v54q0 99 -51 146.5t-140 47.5q-88 0 -139 -47.5t-51 -146.5zM328 479v-69q0 -122 62.5 -182t172.5 -60q111 0 173.5 60t62.5 182v69q0 124 -62 183t-174 59q-111 0 -173 -59t-62 -183z" />
    <glyph glyph-name="nine" unicode="9" 
d="M995 467q0 -232 -120.5 -359.5t-311.5 -127.5q-184 0 -300 114.5t-116 323.5v35h205v-19q0 -266 211 -266q108 0 168 76.5t60 238.5v258q-91 -159 -281 -159q-166 0 -272.5 121.5t-106.5 345.5v41q0 222 120.5 344t311.5 122t311.5 -127.5t120.5 -359.5v-602zM791 1051
v36q0 281 -228 281q-108 0 -167.5 -69t-59.5 -212v-36q0 -281 227 -281q228 0 228 281z" />
    <glyph glyph-name="colon" unicode=":" horiz-adv-x="436" 
d="M217 772q-58 0 -96.5 39t-38.5 96q0 59 38.5 98t96.5 39q61 0 99 -39t38 -98q0 -58 -38 -96.5t-99 -38.5zM217 -20q-58 0 -96.5 39t-38.5 96q0 59 38.5 98t96.5 39q61 0 99 -39t38 -98q0 -58 -38 -96.5t-99 -38.5z" />
    <glyph glyph-name="semicolon" unicode=";" horiz-adv-x="436" 
d="M217 772q-58 0 -96.5 39t-38.5 96q0 59 38.5 98t96.5 39q61 0 99 -39t38 -98q0 -58 -38 -96.5t-99 -38.5zM358 98q0 -146 -143 -364h-117q93 156 117 246q-58 1 -95.5 40t-37.5 95q0 59 38.5 98t98.5 39t99.5 -42t39.5 -112z" />
    <glyph glyph-name="less" unicode="&#x3c;" 
d="M973 305v-158l-819 400v147l819 400v-158l-645 -315z" />
    <glyph glyph-name="equal" unicode="=" 
d="M154 756v139h819v-139h-819zM154 346v139h819v-139h-819z" />
    <glyph glyph-name="greater" unicode="&#x3e;" 
d="M973 547l-819 -400v158l645 316l-645 315v158l819 -400v-147z" />
    <glyph glyph-name="question" unicode="?" horiz-adv-x="1017" 
d="M958 1165q0 -63 -19 -117.5t-49 -94.5t-66.5 -76l-73.5 -70t-67.5 -69t-50.5 -81.5t-22 -99.5l-2 -45h-188v55q0 62 18.5 117.5t48 96.5t65 78.5l71 72t65 69t48 76.5t18.5 88q0 97 -62 150t-176 53q-112 0 -181 -65.5t-69 -204.5v-58h-207v78q0 107 37 192t100.5 138
t145 80.5t174.5 27.5q203 0 322.5 -103t119.5 -288zM514 -20q-52 0 -89.5 37.5t-37.5 88.5q0 53 37.5 91.5t89.5 38.5q54 0 91.5 -38.5t37.5 -91.5q0 -51 -37.5 -88.5t-91.5 -37.5z" />
    <glyph glyph-name="at" unicode="@" horiz-adv-x="1763" 
d="M1239 -238q-172 -90 -369 -90q-167 0 -314 62.5t-250.5 168.5t-163.5 251.5t-60 306.5q0 162 60 307.5t163.5 251t250.5 167.5t314 62q171 0 322.5 -62t258 -167t168.5 -246.5t62 -296.5q0 -247 -90 -372t-235 -125q-92 0 -157.5 40t-98.5 113q-55 -77 -139.5 -115
t-182.5 -38q-136 0 -231.5 69t-95.5 195q0 78 34 131t88.5 78.5t120.5 41t132 23.5t120.5 20t88.5 38t34 69q0 66 -56.5 104.5t-142.5 38.5q-89 0 -144.5 -46t-55.5 -130h-191q0 86 32 151t87.5 102.5t122.5 56t145 18.5q77 0 144.5 -18.5t123 -55.5t87.5 -100.5t32 -147.5
v-362q0 -180 121 -180q91 0 146 103t55 298q0 135 -53.5 259t-145.5 216t-224 146.5t-282 54.5q-145 0 -272.5 -54.5t-217 -147t-141 -220t-51.5 -270.5q0 -190 87 -348t244.5 -251t350.5 -93q173 0 328 84zM635 256q0 -56 45.5 -84.5t122.5 -28.5q110 0 188 63t78 173v65
q-49 -23 -133 -38.5t-145 -24t-108.5 -39.5t-47.5 -86z" />
    <glyph glyph-name="A" unicode="A" horiz-adv-x="1044" 
d="M25 0l344 1536h307l344 -1536h-207l-80 377h-422l-80 -377h-206zM352 565h340l-170 807z" />
    <glyph glyph-name="B" unicode="B" 
d="M152 0v1536h419q194 0 309 -98t115 -279v-20q0 -224 -196 -310q111 -43 174 -133.5t63 -224.5v-41q0 -205 -115.5 -317.5t-308.5 -112.5h-460zM551 1348h-195v-449h199q236 0 236 223v21q0 205 -240 205zM592 713h-236v-525h236q239 0 239 261v20q0 128 -61 186t-178 58z
" />
    <glyph glyph-name="C" unicode="C" horiz-adv-x="1167" 
d="M831 586h205v-82q0 -259 -118 -391.5t-334 -132.5t-334.5 133t-118.5 391v528q0 258 118.5 391t334.5 133t334 -132.5t118 -391.5v-61h-205v61q0 178 -62.5 257t-184.5 79q-121 0 -184.5 -79t-63.5 -257v-528q0 -178 63 -257t185 -79q121 0 184 79t63 257v82z" />
    <glyph glyph-name="D" unicode="D" horiz-adv-x="1167" 
d="M575 1536q220 0 340.5 -128.5t120.5 -383.5v-512q0 -255 -120.5 -383.5t-340.5 -128.5h-423v1536h423zM575 188q125 0 190.5 75.5t65.5 248.5v512q0 174 -64.5 249t-191.5 75h-219v-1160h219z" />
    <glyph glyph-name="E" unicode="E" horiz-adv-x="929" 
d="M152 0v1536h688v-188h-484v-463h443v-189h-443v-508h484v-188h-688z" />
    <glyph glyph-name="F" unicode="F" horiz-adv-x="888" 
d="M152 0v1536h688v-188h-484v-504h422v-189h-422v-655h-204z" />
    <glyph glyph-name="G" unicode="G" horiz-adv-x="1177" 
d="M553 809h483v-809h-184v182q-85 -202 -307 -202q-196 0 -305 133t-109 391v528q0 258 118.5 391t334.5 133t334 -132.5t118 -391.5v-61h-205v61q0 178 -62.5 257t-184.5 79q-121 0 -184.5 -79t-63.5 -257v-528q0 -178 63 -257t185 -79q247 0 247 319v134h-278v188z" />
    <glyph glyph-name="H" unicode="H" horiz-adv-x="1208" 
d="M852 0v696h-496v-696h-204v1536h204v-651h496v651h205v-1536h-205z" />
    <glyph glyph-name="I" unicode="I" horiz-adv-x="507" 
d="M356 0h-204v1536h204v-1536z" />
    <glyph glyph-name="J" unicode="J" horiz-adv-x="1036" 
d="M700 1536h205v-1130q0 -104 -31.5 -186t-87.5 -134t-130 -79t-162 -27q-118 0 -209.5 46t-147 144t-55.5 236v131h205v-115q0 -254 207 -254q206 0 206 254v1114z" />
    <glyph glyph-name="K" unicode="K" horiz-adv-x="1062" 
d="M809 0l-453 756v-756h-204v1536h204v-748l449 748h225l-461 -735l486 -801h-246z" />
    <glyph glyph-name="L" unicode="L" horiz-adv-x="888" 
d="M856 188v-188h-704v1536h204v-1348h500z" />
    <glyph glyph-name="M" unicode="M" horiz-adv-x="1564" 
d="M1208 0v1382l-311 -1382h-248l-309 1389v-1389h-188v1536h350l280 -1266l275 1266h356v-1536h-205z" />
    <glyph glyph-name="N" unicode="N" horiz-adv-x="1208" 
d="M1057 1536v-1536h-338l-379 1407v-1407h-188v1536h342l374 -1391v1391h189z" />
    <glyph glyph-name="O" unicode="O" horiz-adv-x="1167" 
d="M584 -20q-216 0 -334.5 132t-118.5 392v528q0 258 118.5 391t334.5 133t334 -132.5t118 -391.5v-528q0 -260 -118 -392t-334 -132zM584 168q121 0 184 78.5t63 257.5v528q0 178 -62.5 257t-184.5 79q-121 0 -184.5 -79t-63.5 -257v-528q0 -179 63 -257.5t185 -78.5z" />
    <glyph glyph-name="P" unicode="P" horiz-adv-x="1085" 
d="M152 0v1536h444q191 0 307.5 -107t116.5 -303v-110q0 -204 -116.5 -317t-307.5 -113h-240v-586h-204zM575 1348h-219v-574h219q240 0 240 262v70q0 242 -240 242z" />
    <glyph glyph-name="Q" unicode="Q" horiz-adv-x="1167" 
d="M862 0l-82 113q-28 -67 -91 -100t-146 -33q-188 0 -300 134.5t-112 389.5v528q0 258 118.5 391t334.5 133t334 -132.5t118 -391.5v-528q0 -225 -110 -318l135 -186h-199zM336 504q0 -178 63 -257t185 -79q70 0 123 27l-254 337h204l150 -208q24 71 24 180v528
q0 178 -62.5 257t-184.5 79q-121 0 -184.5 -79t-63.5 -257v-528z" />
    <glyph glyph-name="R" unicode="R" 
d="M152 0v1536h450q192 0 310 -102t118 -287v-62q0 -182 -113.5 -281.5t-293.5 -109.5l454 -694h-246l-475 752v-752h-204zM582 1348h-226v-484h226q243 0 243 242v20q0 117 -62.5 169.5t-180.5 52.5z" />
    <glyph glyph-name="S" unicode="S" horiz-adv-x="993" 
d="M113 1180q0 190 107.5 283t279.5 93q173 0 282 -105t109 -304v-94h-205v88q0 115 -48.5 171t-137.5 56q-84 0 -133.5 -49t-49.5 -139q0 -83 46.5 -141.5t134.5 -118.5l166 -119q76 -54 127 -106t86.5 -131.5t35.5 -174.5q0 -197 -116 -303t-295 -106q-177 0 -294.5 109
t-117.5 300v115h205v-101q0 -108 56.5 -171.5t150.5 -63.5q96 0 151.5 52.5t55.5 144.5q0 88 -47.5 153.5t-135.5 126.5l-161 113q-119 82 -185.5 181t-66.5 241z" />
    <glyph glyph-name="T" unicode="T" horiz-adv-x="888" 
d="M20 1348v188h848v-188h-321v-1348h-205v1348h-322z" />
    <glyph glyph-name="U" unicode="U" horiz-adv-x="1167" 
d="M141 1536h205v-1063q0 -163 60 -234t178 -71q116 0 176.5 71.5t60.5 233.5v1063h205v-1063q0 -246 -115.5 -369.5t-326.5 -123.5q-212 0 -327.5 123.5t-115.5 369.5v1063z" />
    <glyph glyph-name="V" unicode="V" horiz-adv-x="1044" 
d="M1020 1536l-344 -1536h-307l-344 1536h206l291 -1372l291 1372h207z" />
    <glyph glyph-name="W" unicode="W" horiz-adv-x="1536" 
d="M1516 1536l-236 -1536h-307l-205 1360l-205 -1360h-307l-236 1536h205l189 -1333l200 1333h308l200 -1333l189 1333h205z" />
    <glyph glyph-name="X" unicode="X" horiz-adv-x="1003" 
d="M770 0l-268 612l-269 -612h-223l375 788l-352 748h221l248 -573l248 573h221l-353 -748l375 -788h-223z" />
    <glyph glyph-name="Y" unicode="Y" horiz-adv-x="983" 
d="M594 618v-618h-205v618l-387 918h205l285 -705l284 705h205z" />
    <glyph glyph-name="Z" unicode="Z" horiz-adv-x="901" 
d="M852 188v-188h-782v242l571 1106h-561v188h751v-242l-569 -1106h590z" />
    <glyph glyph-name="bracketleft" unicode="[" horiz-adv-x="696" 
d="M221 -369v1905h465v-156h-276v-1593h276v-156h-465z" />
    <glyph glyph-name="backslash" unicode="\" horiz-adv-x="800" 
d="M582 0l-512 1536h149l512 -1536h-149z" />
    <glyph glyph-name="bracketright" unicode="]" horiz-adv-x="696" 
d="M10 1380v156h465v-1905h-465v156h277v1593h-277z" />
    <glyph glyph-name="asciicircum" unicode="^" 
d="M879 717l-316 645l-315 -645h-158l399 819h148l399 -819h-157z" />
    <glyph glyph-name="underscore" unicode="_" horiz-adv-x="1024" 
d="M922 -367h-820v140h820v-140z" />
    <glyph glyph-name="grave" unicode="`" horiz-adv-x="1024" 
d="M434 1229l-188 307h227l131 -307h-170z" />
    <glyph glyph-name="a" unicode="a" 
d="M793 0v172q-49 -97 -140 -144.5t-207 -47.5q-95 0 -171.5 29t-126.5 96.5t-50 164.5q0 90 38 151.5t99 91.5t134.5 47.5t147 27t134.5 22t99 40.5t38 75q0 73 -62 114.5t-159 41.5q-103 0 -164 -52t-61 -149h-213q0 77 24 139t65 103.5t97.5 69t119 40t132.5 12.5
q86 0 160 -18t135 -55.5t96 -102.5t35 -151v-717h-200zM307 283q0 -64 49.5 -97.5t130.5 -33.5q127 0 216.5 71.5t89.5 198.5v74q-45 -22 -116 -37.5t-131 -25t-116.5 -25t-89.5 -46t-33 -79.5z" />
    <glyph glyph-name="b" unicode="b" horiz-adv-x="1259" 
d="M1184 512q0 -233 -140 -382.5t-352 -149.5q-102 0 -188.5 45.5t-147.5 128.5v-154h-204v1536h204v-666q61 83 147.5 128.5t188.5 45.5q212 0 352 -149.5t140 -382.5zM668 856q-135 0 -223.5 -95.5t-88.5 -248.5t88.5 -248.5t223.5 -95.5t223 95.5t88 248.5t-88 248.5
t-223 95.5z" />
    <glyph glyph-name="c" unicode="c" horiz-adv-x="1171" 
d="M879 616q-15 113 -96.5 176.5t-196.5 63.5q-132 0 -218.5 -95.5t-86.5 -248.5t86.5 -248.5t218.5 -95.5q117 0 199.5 69t97.5 193h213q-12 -201 -155.5 -325.5t-354.5 -124.5q-221 0 -365.5 149.5t-144.5 382.5t144.5 382.5t365.5 149.5q204 0 345.5 -118.5t160.5 -309.5
h-213z" />
    <glyph glyph-name="d" unicode="d" horiz-adv-x="1259" 
d="M903 0v154q-61 -83 -147.5 -128.5t-188.5 -45.5q-212 0 -351.5 149.5t-139.5 382.5t139.5 382.5t351.5 149.5q102 0 188.5 -45.5t147.5 -128.5v666h205v-1536h-205zM592 856q-135 0 -223 -95.5t-88 -248.5t88 -248.5t223 -95.5t223 95.5t88 248.5t-88 248.5t-223 95.5z
" />
    <glyph glyph-name="e" unicode="e" horiz-adv-x="1159" 
d="M1083 512q0 -24 -4 -70h-803q19 -134 101 -208t211 -74q182 0 248 147h221q-47 -157 -172.5 -242t-304.5 -85q-219 0 -361.5 149t-142.5 383t142.5 383t361.5 149t361 -149t142 -383zM580 864q-124 0 -203 -72.5t-98 -201.5h602q-19 129 -98.5 201.5t-202.5 72.5z" />
    <glyph glyph-name="f" unicode="f" horiz-adv-x="778" 
d="M422 1178v-154h295v-180h-295v-844h-205v844h-176v180h176v160q0 176 104 274t273 98q84 0 143 -18v-188q-55 18 -125 18q-91 0 -140.5 -47.5t-49.5 -142.5z" />
    <glyph glyph-name="g" unicode="g" horiz-adv-x="1259" 
d="M1108 -8q0 -152 -67.5 -272.5t-182 -186t-254.5 -65.5q-200 0 -338 121.5t-166 320.5h207q20 -117 99 -185.5t198 -68.5q139 0 219 93t80 243v162q-61 -83 -147.5 -128.5t-188.5 -45.5q-212 0 -351.5 149.5t-139.5 382.5t139.5 382.5t351.5 149.5q102 0 188.5 -45.5
t147.5 -128.5v154h205v-1032zM592 168q135 0 223 95.5t88 248.5t-88 248.5t-223 95.5t-223 -95.5t-88 -248.5t88 -248.5t223 -95.5z" />
    <glyph glyph-name="h" unicode="h" horiz-adv-x="1198" 
d="M356 559v-559h-204v1536h204v-674q47 88 128.5 135t183.5 47q175 0 282 -113t107 -331v-600h-205v559q0 150 -65 227.5t-183 77.5t-183 -77.5t-65 -227.5z" />
    <glyph glyph-name="i" unicode="i" horiz-adv-x="507" 
d="M254 1247q-58 0 -96.5 39t-38.5 98t38.5 97.5t96.5 38.5q60 0 97.5 -38.5t37.5 -97.5t-38 -98t-97 -39zM356 0h-204v1024h204v-1024z" />
    <glyph glyph-name="j" unicode="j" horiz-adv-x="507" 
d="M254 1247q-58 0 -96.5 39t-38.5 98t38.5 97.5t96.5 38.5q60 0 97.5 -38.5t37.5 -97.5t-38 -98t-97 -39zM152 -178v1202h204v-1206q0 -330 -327 -330q-71 0 -103 8v187q40 -7 76 -7q74 0 112 32t38 114z" />
    <glyph glyph-name="k" unicode="k" horiz-adv-x="1130" 
d="M846 0l-490 539v-539h-204v1536h204v-967l441 455h272l-481 -467l518 -557h-260z" />
    <glyph glyph-name="l" unicode="l" horiz-adv-x="507" 
d="M356 0h-204v1536h204v-1536z" />
    <glyph glyph-name="m" unicode="m" horiz-adv-x="1792" 
d="M356 588v-588h-204v1024h204v-143q44 79 118 121t167 42q112 0 196.5 -51t127.5 -151q44 99 128.5 150.5t196.5 51.5q162 0 261.5 -106t99.5 -309v-629h-205v588q0 136 -57.5 206t-161.5 70q-106 0 -164.5 -70t-58.5 -206v-588h-205v588q0 136 -58 206t-163 70
t-163.5 -70t-58.5 -206z" />
    <glyph glyph-name="n" unicode="n" horiz-adv-x="1198" 
d="M356 559v-559h-204v1024h204v-162q47 88 128.5 135t183.5 47q175 0 282 -113t107 -331v-600h-205v559q0 150 -65 227.5t-183 77.5t-183 -77.5t-65 -227.5z" />
    <glyph glyph-name="o" unicode="o" horiz-adv-x="1187" 
d="M594 -20q-224 0 -371 149.5t-147 382.5t147 382.5t371 149.5t371 -149.5t147 -382.5t-147 -382.5t-371 -149.5zM594 168q135 0 224 95.5t89 248.5t-89 248.5t-224 95.5t-224 -95.5t-89 -248.5t89 -248.5t224 -95.5z" />
    <glyph glyph-name="p" unicode="p" horiz-adv-x="1259" 
d="M692 -20q-102 0 -188.5 45.5t-147.5 128.5v-666h-204v1536h204v-154q61 83 147.5 128.5t188.5 45.5q212 0 352 -149.5t140 -382.5t-140 -382.5t-352 -149.5zM668 168q135 0 223 95.5t88 248.5t-88 248.5t-223 95.5t-223.5 -95.5t-88.5 -248.5t88.5 -248.5t223.5 -95.5z
" />
    <glyph glyph-name="q" unicode="q" horiz-adv-x="1259" 
d="M1108 1024v-1536h-205v666q-61 -83 -147.5 -128.5t-188.5 -45.5q-212 0 -351.5 149.5t-139.5 382.5t139.5 382.5t351.5 149.5q102 0 188.5 -45.5t147.5 -128.5v154h205zM592 168q135 0 223 95.5t88 248.5t-88 248.5t-223 95.5t-223 -95.5t-88 -248.5t88 -248.5t223 -95.5
z" />
    <glyph glyph-name="r" unicode="r" horiz-adv-x="825" 
d="M356 514v-514h-204v1024h204v-184q55 100 146.5 152t208.5 52q41 0 65 -6v-223q-50 16 -108 16q-150 0 -231 -80.5t-81 -236.5z" />
    <glyph glyph-name="s" unicode="s" horiz-adv-x="1032" 
d="M942 289q0 -142 -114 -225.5t-296 -83.5q-194 0 -318 93.5t-124 256.5h213q0 -91 63.5 -140t165.5 -49q95 0 147 36t52 104q0 44 -26.5 74t-70 44.5t-99.5 28t-114 23t-114 31t-99.5 50.5t-70 83t-26.5 128q0 137 111 219t280 82q179 0 299.5 -96t120.5 -237h-213
q0 73 -59 121.5t-148 48.5q-84 0 -134.5 -34t-50.5 -95q0 -40 27 -68t71 -41.5t100 -26.5t114.5 -23.5t114.5 -33t100 -53.5t71 -86.5t27 -130.5z" />
    <glyph glyph-name="t" unicode="t" horiz-adv-x="798" 
d="M414 350q0 -95 42 -138.5t132 -43.5q68 0 121 18v-182q-74 -24 -160 -24q-78 0 -137 17t-106 56.5t-72 111t-25 173.5v506h-168v180h168v303h205v-303h295v-180h-295v-494z" />
    <glyph glyph-name="u" unicode="u" horiz-adv-x="1187" 
d="M831 0v164q-47 -90 -125.5 -137t-179.5 -47q-172 0 -278.5 114t-106.5 334v596h205v-555q0 -151 64 -230t180 -79q114 0 177.5 79t63.5 230v555h205v-1024h-205z" />
    <glyph glyph-name="v" unicode="v" horiz-adv-x="1024" 
d="M1004 1024l-349 -1024h-286l-349 1024h213l279 -860l279 860h213z" />
    <glyph glyph-name="w" unicode="w" horiz-adv-x="1566" 
d="M1536 1024l-276 -1024h-259l-217 846l-219 -846h-258l-276 1024h196l211 -846l215 846h260l215 -846l211 846h197z" />
    <glyph glyph-name="x" unicode="x" horiz-adv-x="1064" 
d="M817 0l-295 379l-274 -379h-240l402 530l-381 494h239l271 -348l258 348h239l-381 -500l402 -524h-240z" />
    <glyph glyph-name="y" unicode="y" horiz-adv-x="1026" 
d="M610 -115q-28 -80 -54.5 -137.5t-64 -112.5t-81 -88.5t-104 -54t-134.5 -20.5q-82 0 -154 22v180q72 -22 136 -22q94 0 153.5 55.5t110.5 179.5l-406 1137h205l297 -858l295 858h205z" />
    <glyph glyph-name="z" unicode="z" horiz-adv-x="962" 
d="M903 180v-180h-823v233l584 611h-574v180h772v-233l-583 -611h624z" />
    <glyph glyph-name="braceleft" unicode="{" horiz-adv-x="696" 
d="M188 489h-102v189h102q42 0 78.5 33.5t36.5 99.5v414q0 145 79.5 228t211.5 83h92v-156h-57q-62 0 -99.5 -43.5t-37.5 -126.5v-426q0 -123 -113 -200q113 -77 113 -201v-426q0 -83 37.5 -126.5t99.5 -43.5h57v-156h-92q-132 0 -211.5 83.5t-79.5 228.5v413
q0 66 -36.5 99.5t-78.5 33.5z" />
    <glyph glyph-name="bar" unicode="|" horiz-adv-x="565" 
d="M352 -512h-139v2048h139v-2048z" />
    <glyph glyph-name="braceright" unicode="}" horiz-adv-x="696" 
d="M508 678h102v-189h-102q-42 0 -78.5 -33.5t-36.5 -99.5v-413q0 -145 -79.5 -228.5t-211.5 -83.5h-92v156h58q62 0 99.5 43.5t37.5 126.5v426q0 125 112 201q-112 76 -112 200v426q0 83 -37.5 126.5t-99.5 43.5h-58v156h92q132 0 211.5 -83t79.5 -228v-414
q0 -66 36.5 -99.5t78.5 -33.5z" />
    <glyph glyph-name="asciitilde" unicode="~" 
d="M397 625q-41 0 -68.5 -29t-27.5 -82v-43h-147v68q0 115 58.5 178t152.5 63q49 0 96 -17t82.5 -41l68.5 -48t66 -41t63 -17q36 0 60 29t24 82v43h148v-68q0 -116 -58.5 -178.5t-152.5 -62.5q-42 0 -83.5 17t-75 41l-66 48t-69 41t-71.5 17z" />
    <glyph glyph-name="uni00A0" unicode="&#xa0;" horiz-adv-x="471" 
 />
    <glyph glyph-name="exclamdown" unicode="&#xa1;" horiz-adv-x="524" 
d="M262 1044q54 0 90.5 -36.5t36.5 -89.5t-37 -91.5t-90 -38.5q-52 0 -90.5 38.5t-38.5 91.5q0 52 38 89t91 37zM168 512h188l17 -1024h-221z" />
    <glyph glyph-name="cent" unicode="&#xa2;" 
d="M1083 686q-25 -184 -147.5 -305t-304.5 -141v-240h-123v238q-202 21 -334.5 167.5t-132.5 362.5t132.5 362.5t334.5 167.5v238h123v-240q177 -19 298 -133.5t152 -292.5h-209q-20 95 -84 157t-157 79v-676q99 19 166 87.5t80 168.5h206zM246 768q0 -138 70 -229.5
t192 -110.5v680q-122 -19 -192 -110.5t-70 -229.5z" />
    <glyph glyph-name="sterling" unicode="&#xa3;" 
d="M991 188v-188h-864v102q144 156 195 258.5t51 253.5q0 32 -11 74h-210v123h149l-38.5 58t-42.5 68.5t-32 64t-28 82t-8 85.5q0 124 55.5 213t146 131.5t205.5 42.5q181 0 298.5 -109.5t117.5 -311.5v-50h-205v33q0 133 -55 191.5t-156 58.5q-93 0 -148 -49t-55 -150
q0 -61 24 -118.5t69 -129t63 -110.5h369v-123h-330q6 -30 6 -67q0 -238 -149 -433h583z" />
    <glyph glyph-name="currency" unicode="&#xa4;" 
d="M913 373l-102 -103l-121 121q-60 -29 -127 -29q-72 0 -129 31l-110 -112l-101 100l109 108q-33 61 -33 129q0 74 35 130l-121 120l102 103l123 -123q60 26 125 26q69 0 127 -28l113 115l100 -101l-112 -110q34 -55 34 -132q0 -70 -30 -126zM563 485q57 0 94 37.5t37 95.5
t-37 96t-94 38t-95 -38t-38 -96t38 -95.5t95 -37.5z" />
    <glyph glyph-name="yen" unicode="&#xa5;" 
d="M928 508h-262v-508h-205v508h-262v121h262v282h-262v121h196l-313 504h201l280 -465l281 465h200l-313 -504h197v-121h-262v-282h262v-121z" />
    <glyph glyph-name="brokenbar" unicode="&#xa6;" horiz-adv-x="565" 
d="M352 717h-139v819h139v-819zM352 -512h-139v819h139v-819z" />
    <glyph glyph-name="section" unicode="&#xa7;" horiz-adv-x="1019" 
d="M899 -178q0 -180 -107.5 -267t-279.5 -87q-173 0 -282 98t-109 284v66h205v-59q0 -102 48.5 -151.5t137.5 -49.5q83 0 132.5 41.5t49.5 116.5q0 70 -47 120.5t-135 100.5l-166 102q-117 71 -180.5 156t-63.5 209q0 247 252 342q-58 44 -95.5 78t-71.5 77.5t-50 93
t-16 107.5q0 93 30 163t84 111.5t122.5 61.5t150.5 20q173 0 282 -99t109 -286v-63h-205v59q0 102 -48.5 151.5t-137.5 49.5q-83 0 -132.5 -41.5t-49.5 -118.5q0 -69 47.5 -120t134.5 -101l166 -100q116 -71 180 -157t64 -208q0 -242 -244 -342q112 -74 168.5 -159
t56.5 -199zM510 319q89 0 146 53t57 140t-57 140t-146 53q-88 0 -145.5 -53.5t-57.5 -139.5t57.5 -139.5t145.5 -53.5z" />
    <glyph glyph-name="dieresis" unicode="&#xa8;" horiz-adv-x="1024" 
d="M307 1264q-50 0 -84.5 34.5t-34.5 83.5q0 50 35 84.5t84 34.5q51 0 85 -34.5t34 -84.5t-34 -84t-85 -34zM717 1264q-50 0 -84.5 34.5t-34.5 83.5q0 50 35 84.5t84 34.5q51 0 85 -34.5t34 -84.5t-34 -84t-85 -34z" />
    <glyph glyph-name="copyright" unicode="&#xa9;" horiz-adv-x="1699" 
d="M850 -20q-165 0 -311 63t-248 169.5t-160.5 251t-58.5 304.5q0 162 58.5 307t160.5 251t247.5 168t311.5 62t311.5 -62t247.5 -168t160.5 -251t58.5 -307q0 -160 -58.5 -304.5t-160.5 -251t-248 -169.5t-311 -63zM850 1460q-143 0 -268.5 -55t-213.5 -148.5t-139 -220.5
t-51 -268t51 -268.5t139 -220.5t213.5 -148t268.5 -55t268.5 55t213.5 148t139 220.5t51 268.5t-51 268t-139 220.5t-213.5 148.5t-268.5 55zM1094 852q-17 87 -85.5 139.5t-158.5 52.5q-110 0 -183 -76.5t-73 -199.5t73 -199.5t183 -76.5q97 0 166.5 57.5t81.5 152.5h170
q-13 -161 -131.5 -262.5t-286.5 -101.5q-181 0 -300.5 121t-119.5 309t119.5 309t300.5 121q163 0 280 -96t136 -250h-172z" />
    <glyph glyph-name="ordfeminine" unicode="&#xaa;" horiz-adv-x="776" 
d="M508 561v117q-60 -129 -225 -129q-92 0 -156 48.5t-64 139.5q0 58 24 97.5t63 58.5t85.5 30.5t93.5 17.5t86 14t63 25.5t24 47.5q0 43 -34.5 67.5t-90.5 24.5q-61 0 -96 -30.5t-35 -88.5h-162q0 63 24.5 110.5t67.5 75t94.5 41t110.5 13.5q126 0 207.5 -53.5t81.5 -165.5
v-461h-162zM229 750q0 -37 30.5 -58.5t76.5 -21.5q70 0 119 42t49 115v52q-30 -16 -83 -27t-92 -17.5t-69.5 -27.5t-30.5 -57zM674 197h-572v155h572v-155z" />
    <glyph glyph-name="guillemotleft" unicode="&#xab;" horiz-adv-x="1187" 
d="M553 115l-451 303v209l451 303v-191l-344 -217l344 -217v-190zM1085 115l-450 303v209l450 303v-191l-344 -217l344 -217v-190z" />
    <glyph glyph-name="logicalnot" unicode="&#xac;" 
d="M973 197h-146v354h-673v139h819v-493z" />
    <glyph glyph-name="registered" unicode="&#xae;" horiz-adv-x="1019" 
d="M510 610q-132 0 -240 64.5t-167.5 172.5t-59.5 236q0 130 60 238t167.5 171.5t239.5 63.5t239.5 -63.5t167.5 -171.5t60 -238q0 -128 -59.5 -236t-167.5 -172.5t-240 -64.5zM510 1483q-166 0 -276.5 -116.5t-110.5 -283.5t110.5 -283t276.5 -116t276.5 116t110.5 283
q0 166 -111 283t-276 117zM326 838v491h209q172 0 172 -149q0 -53 -32.5 -91.5t-86.5 -52.5l143 -198h-135l-131 192h-33v-192h-106zM532 1235h-100v-113h100q31 0 50.5 15.5t19.5 42.5q0 55 -70 55z" />
    <glyph glyph-name="macron" unicode="&#xaf;" horiz-adv-x="1024" 
d="M803 1399v-137h-565v137h565z" />
    <glyph glyph-name="degree" unicode="&#xb0;" horiz-adv-x="735" 
d="M369 1024q-114 0 -189.5 73t-75.5 183t75.5 183t189.5 73q113 0 187.5 -73t74.5 -183t-74.5 -183t-187.5 -73zM369 1147q57 0 94 37.5t37 95.5t-37 95.5t-94 37.5t-95 -37.5t-38 -95.5t38 -95.5t95 -37.5z" />
    <glyph glyph-name="plusminus" unicode="&#xb1;" 
d="M973 551h-336v-354h-148v354h-335v139h335v354h148v-354h336v-139zM154 0v139h819v-139h-819z" />
    <glyph glyph-name="twosuperior" unicode="&#xb2;" horiz-adv-x="647" 
d="M602 1102q0 -49 -23 -94t-58.5 -77t-78.5 -65.5t-82 -60.5t-70.5 -61t-41.5 -68h362v-139h-565v61q0 62 29.5 117.5t74 94.5t96 78t96 69.5t74 68t29.5 74.5q0 49 -32 77.5t-84 28.5q-56 0 -88.5 -31.5t-32.5 -93.5v-24h-156v37q0 119 78.5 185.5t198.5 66.5
q119 0 196.5 -64t77.5 -180z" />
    <glyph glyph-name="threesuperior" unicode="&#xb3;" horiz-adv-x="706" 
d="M662 764q0 -113 -81 -176.5t-214 -63.5q-140 0 -229 70t-89 188h160q0 -56 41.5 -88t107.5 -32q63 0 101.5 29.5t38.5 80.5t-37 80t-107 29h-75v133h75q57 0 89 25.5t32 68.5q0 46 -34 72t-93 26t-93 -29.5t-34 -82.5h-158q0 119 77 185.5t210 66.5q129 0 209 -62.5
t80 -163.5q0 -112 -104 -166q127 -62 127 -190z" />
    <glyph glyph-name="acute" unicode="&#xb4;" horiz-adv-x="1024" 
d="M608 1229h-170l131 307h228z" />
    <glyph glyph-name="paragraph" unicode="&#xb6;" horiz-adv-x="1310" 
d="M143 1126q0 194 124 302t317 108h182v-2048h-156v1106h-26q-193 0 -317 113.5t-124 316.5v102zM1155 -512h-156v2048h156v-2048z" />
    <glyph glyph-name="periodcentered" unicode="&#xb7;" horiz-adv-x="501" 
d="M250 397q-58 0 -96.5 39t-38.5 96q0 59 38.5 97.5t96.5 38.5q61 0 99 -38.5t38 -97.5q0 -58 -38 -96.5t-99 -38.5z" />
    <glyph glyph-name="cedilla" unicode="&#xb8;" horiz-adv-x="1024" 
d="M737 -311q0 -86 -62 -143.5t-163 -57.5q-98 0 -161.5 49t-63.5 119h125q4 -29 32 -45.5t68 -16.5q45 0 73.5 26.5t28.5 68.5q0 41 -28 67.5t-72 26.5q-31 0 -55 -12.5t-33 -26.5h-127l162 256h125l-78 -111h22q92 0 149.5 -58t57.5 -142z" />
    <glyph glyph-name="onesuperior" unicode="&#xb9;" horiz-adv-x="425" 
d="M174 1311v22h166v-796h-168v532h-149v131h47q56 0 80 26t24 85z" />
    <glyph glyph-name="ordmasculine" unicode="&#xba;" horiz-adv-x="776" 
d="M389 549q-149 0 -246.5 96.5t-97.5 249.5q0 154 97.5 250t246.5 96q148 0 245 -96t97 -250q0 -152 -97 -249t-245 -97zM389 698q77 0 127.5 55t50.5 142q0 88 -50.5 143.5t-127.5 55.5q-79 0 -129.5 -55t-50.5 -144q0 -87 50.5 -142t129.5 -55zM674 197h-572v155h572
v-155z" />
    <glyph glyph-name="guillemotright" unicode="&#xbb;" horiz-adv-x="1187" 
d="M635 930l450 -303v-209l-450 -303v190l344 217l-344 217v191zM102 930l451 -303v-209l-451 -303v190l344 217l-344 217v191z" />
    <glyph glyph-name="onequarter" unicode="&#xbc;" horiz-adv-x="1650" 
d="M338 1513v23h166v-797h-168v533h-150v131h47q57 0 81 25.5t24 84.5zM231 0l1065 1536h123l-1065 -1536h-123zM903 295l273 502h254v-500h143v-135h-143v-162h-160v162h-367v133zM1053 297h217v403z" />
    <glyph glyph-name="onehalf" unicode="&#xbd;" horiz-adv-x="1650" 
d="M338 1513v23h166v-797h-168v533h-150v131h47q57 0 81 25.5t24 84.5zM231 0l1065 1536h123l-1065 -1536h-123zM1520 565q0 -49 -23.5 -94t-58.5 -77t-78.5 -65.5t-82.5 -60.5t-70.5 -61t-41.5 -68h363v-139h-565v61q0 62 29.5 117.5t74 94.5t96 78t96 69.5t74 68
t29.5 74.5q0 49 -32.5 78t-84.5 29q-56 0 -88.5 -31.5t-32.5 -93.5v-25h-155v37q0 119 78 185.5t198 66.5q119 0 197 -64t78 -180z" />
    <glyph glyph-name="threequarters" unicode="&#xbe;" horiz-adv-x="1650" 
d="M662 967q0 -113 -81 -176.5t-214 -63.5q-140 0 -229 70t-89 188h160q0 -56 41.5 -88.5t107.5 -32.5q63 0 101.5 30t38.5 81t-36.5 79.5t-107.5 28.5h-75v134h75q57 0 89 25.5t32 68.5q0 46 -34 72t-93 26t-93 -29.5t-34 -83.5h-158q0 119 77 185.5t210 66.5
q129 0 209 -62t80 -163q0 -112 -104 -166q127 -62 127 -190zM231 0l1065 1536h123l-1065 -1536h-123zM903 295l273 502h254v-500h143v-135h-143v-162h-160v162h-367v133zM1053 297h217v403z" />
    <glyph glyph-name="questiondown" unicode="&#xbf;" horiz-adv-x="1017" 
d="M504 1044q52 0 89.5 -37.5t37.5 -88.5q0 -53 -37.5 -91.5t-89.5 -38.5q-54 0 -91.5 38.5t-37.5 91.5q0 51 37.5 88.5t91.5 37.5zM59 -141q0 63 19 117.5t49 94.5t66.5 76l73.5 70t68 69t51 81.5t22 99.5l2 45h188v-55q0 -62 -18.5 -117.5t-48 -96.5t-65 -78.5l-71 -72
t-65 -69t-48 -76.5t-18.5 -88q0 -97 62 -150t176 -53q112 0 181 65.5t69 204.5v58h206v-78q0 -107 -36.5 -192t-100 -138t-145 -80.5t-174.5 -27.5q-203 0 -323 103t-120 288z" />
    <glyph glyph-name="Agrave" unicode="&#xc0;" horiz-adv-x="1044" 
d="M442 1679l-188 308h227l131 -308h-170zM25 0l344 1536h307l344 -1536h-207l-80 377h-422l-80 -377h-206zM352 565h340l-170 807z" />
    <glyph glyph-name="Aacute" unicode="&#xc1;" horiz-adv-x="1044" 
d="M618 1679h-169l131 308h227zM25 0l344 1536h307l344 -1536h-207l-80 377h-422l-80 -377h-206zM352 565h340l-170 807z" />
    <glyph glyph-name="Acircumflex" unicode="&#xc2;" horiz-adv-x="1044" 
d="M365 1679h-170l213 308h225l213 -308h-170l-156 179zM25 0l344 1536h307l344 -1536h-207l-80 377h-422l-80 -377h-206zM352 565h340l-170 807z" />
    <glyph glyph-name="Atilde" unicode="&#xc3;" horiz-adv-x="1044" 
d="M186 1683v103q0 196 168 196q45 0 90.5 -21.5t76.5 -48t67.5 -48t64.5 -21.5q66 0 66 80v55h139v-102q0 -197 -168 -197q-45 0 -90.5 22t-76.5 48t-67.5 48t-64.5 22q-65 0 -65 -80v-56h-140zM25 0l344 1536h307l344 -1536h-207l-80 377h-422l-80 -377h-206zM352 565h340
l-170 807z" />
    <glyph glyph-name="Adieresis" unicode="&#xc4;" horiz-adv-x="1044" 
d="M317 1714q-49 0 -83.5 34.5t-34.5 84.5t34.5 84.5t83.5 34.5q51 0 85 -34.5t34 -84.5t-34 -84.5t-85 -34.5zM727 1714q-49 0 -84 35t-35 84t35 84t84 35q51 0 85 -34.5t34 -84.5t-34 -84.5t-85 -34.5zM25 0l344 1536h307l344 -1536h-207l-80 377h-422l-80 -377h-206z
M352 565h340l-170 807z" />
    <glyph glyph-name="Aring" unicode="&#xc5;" horiz-adv-x="1044" 
d="M522 1618q-94 0 -153.5 55.5t-59.5 138.5q0 81 60 138t153 57q95 0 155 -57t60 -138q0 -83 -60 -138.5t-155 -55.5zM522 1724q40 0 66 25t26 63t-26 63.5t-66 25.5q-37 0 -63.5 -25.5t-26.5 -63.5t26.5 -63t63.5 -25zM25 0l344 1536h307l344 -1536h-207l-80 377h-422
l-80 -377h-206zM352 565h340l-170 807z" />
    <glyph glyph-name="AE" unicode="&#xc6;" horiz-adv-x="1597" 
d="M1507 188v-188h-688v377h-438l-162 -377h-215l680 1536h823v-188h-483v-463h442v-189h-442v-508h483zM463 565h356v824z" />
    <glyph glyph-name="Ccedilla" unicode="&#xc7;" horiz-adv-x="1167" 
d="M809 -311q0 -86 -62 -143.5t-163 -57.5q-99 0 -162.5 49t-63.5 119h125q4 -29 32 -45.5t69 -16.5q45 0 73.5 26.5t28.5 68.5q0 41 -28 67.5t-72 26.5q-31 0 -55 -12.5t-33 -26.5h-127l151 238q-188 19 -289.5 151t-101.5 371v528q0 258 118.5 391t334.5 133t334 -132.5
t118 -391.5v-61h-205v61q0 178 -62.5 257t-184.5 79q-121 0 -184.5 -79t-63.5 -257v-528q0 -178 63 -257t185 -79q121 0 184 79t63 257v82h205v-82q0 -239 -101.5 -371t-289.5 -151l-65 -93h22q92 0 149.5 -58t57.5 -142z" />
    <glyph glyph-name="Egrave" unicode="&#xc8;" horiz-adv-x="929" 
d="M426 1679l-188 308h227l131 -308h-170zM152 0v1536h688v-188h-484v-463h443v-189h-443v-508h484v-188h-688z" />
    <glyph glyph-name="Eacute" unicode="&#xc9;" horiz-adv-x="929" 
d="M602 1679h-170l131 308h228zM152 0v1536h688v-188h-484v-463h443v-189h-443v-508h484v-188h-688z" />
    <glyph glyph-name="Ecircumflex" unicode="&#xca;" horiz-adv-x="929" 
d="M348 1679h-170l213 308h225l213 -308h-170l-155 179zM152 0v1536h688v-188h-484v-463h443v-189h-443v-508h484v-188h-688z" />
    <glyph glyph-name="Edieresis" unicode="&#xcb;" horiz-adv-x="929" 
d="M301 1714q-49 0 -84 35t-35 84t35 84t84 35q51 0 85 -34.5t34 -84.5t-34 -84.5t-85 -34.5zM711 1714q-49 0 -84 35t-35 84t35 84t84 35q51 0 84.5 -34.5t33.5 -84.5t-33.5 -84.5t-84.5 -34.5zM152 0v1536h688v-188h-484v-463h443v-189h-443v-508h484v-188h-688z" />
    <glyph glyph-name="Igrave" unicode="&#xcc;" horiz-adv-x="507" 
d="M174 1679l-188 308h227l131 -308h-170zM356 0h-204v1536h204v-1536z" />
    <glyph glyph-name="Iacute" unicode="&#xcd;" horiz-adv-x="507" 
d="M350 1679h-170l131 308h228zM356 0h-204v1536h204v-1536z" />
    <glyph glyph-name="Icircumflex" unicode="&#xce;" horiz-adv-x="507" 
d="M96 1679h-170l213 308h226l213 -308h-170l-156 179zM356 0h-204v1536h204v-1536z" />
    <glyph glyph-name="Idieresis" unicode="&#xcf;" horiz-adv-x="507" 
d="M49 1714q-49 0 -84 35t-35 84t35 84t84 35q51 0 85 -34.5t34 -84.5t-34 -84.5t-85 -34.5zM459 1714q-49 0 -84 35t-35 84t35 84t84 35q51 0 85 -34.5t34 -84.5t-34 -84.5t-85 -34.5zM356 0h-204v1536h204v-1536z" />
    <glyph glyph-name="Eth" unicode="&#xd0;" horiz-adv-x="1167" 
d="M1036 512q0 -255 -120.5 -383.5t-340.5 -128.5h-423v721h-152v139h152v676h423q220 0 340.5 -128.5t120.5 -383.5v-512zM356 188h219q125 0 190.5 75.5t65.5 248.5v512q0 174 -64.5 249t-191.5 75h-219v-488h234v-139h-234v-533z" />
    <glyph glyph-name="Ntilde" unicode="&#xd1;" horiz-adv-x="1208" 
d="M268 1683v103q0 196 168 196q45 0 90.5 -21.5t76.5 -48t67.5 -48t64.5 -21.5q66 0 66 80v55h139v-102q0 -197 -168 -197q-45 0 -90.5 22t-76.5 48t-67.5 48t-64.5 22q-65 0 -65 -80v-56h-140zM1057 1536v-1536h-338l-379 1407v-1407h-188v1536h342l374 -1391v1391h189z
" />
    <glyph glyph-name="Ograve" unicode="&#xd2;" horiz-adv-x="1167" 
d="M504 1679l-189 308h228l131 -308h-170zM584 -20q-216 0 -334.5 132t-118.5 392v528q0 258 118.5 391t334.5 133t334 -132.5t118 -391.5v-528q0 -260 -118 -392t-334 -132zM584 168q121 0 184 78.5t63 257.5v528q0 178 -62.5 257t-184.5 79q-121 0 -184.5 -79t-63.5 -257
v-528q0 -179 63 -257.5t185 -78.5z" />
    <glyph glyph-name="Oacute" unicode="&#xd3;" horiz-adv-x="1167" 
d="M680 1679h-170l131 308h227zM584 -20q-216 0 -334.5 132t-118.5 392v528q0 258 118.5 391t334.5 133t334 -132.5t118 -391.5v-528q0 -260 -118 -392t-334 -132zM584 168q121 0 184 78.5t63 257.5v528q0 178 -62.5 257t-184.5 79q-121 0 -184.5 -79t-63.5 -257v-528
q0 -179 63 -257.5t185 -78.5z" />
    <glyph glyph-name="Ocircumflex" unicode="&#xd4;" horiz-adv-x="1167" 
d="M426 1679h-170l213 308h225l213 -308h-170l-155 179zM584 -20q-216 0 -334.5 132t-118.5 392v528q0 258 118.5 391t334.5 133t334 -132.5t118 -391.5v-528q0 -260 -118 -392t-334 -132zM584 168q121 0 184 78.5t63 257.5v528q0 178 -62.5 257t-184.5 79
q-121 0 -184.5 -79t-63.5 -257v-528q0 -179 63 -257.5t185 -78.5z" />
    <glyph glyph-name="Otilde" unicode="&#xd5;" horiz-adv-x="1167" 
d="M248 1683v103q0 196 168 196q45 0 90.5 -21.5t76.5 -48t67.5 -48t64.5 -21.5q65 0 65 80v55h140v-102q0 -197 -168 -197q-45 0 -90.5 22t-76.5 48t-67.5 48t-64.5 22q-66 0 -66 -80v-56h-139zM584 -20q-216 0 -334.5 132t-118.5 392v528q0 258 118.5 391t334.5 133
t334 -132.5t118 -391.5v-528q0 -260 -118 -392t-334 -132zM584 168q121 0 184 78.5t63 257.5v528q0 178 -62.5 257t-184.5 79q-121 0 -184.5 -79t-63.5 -257v-528q0 -179 63 -257.5t185 -78.5z" />
    <glyph glyph-name="Odieresis" unicode="&#xd6;" horiz-adv-x="1167" 
d="M379 1714q-49 0 -84 35t-35 84t35 84t84 35q51 0 85 -34.5t34 -84.5t-34 -84.5t-85 -34.5zM788 1714q-49 0 -83.5 34.5t-34.5 84.5t34.5 84.5t83.5 34.5q51 0 85 -34.5t34 -84.5t-34 -84.5t-85 -34.5zM584 -20q-216 0 -334.5 132t-118.5 392v528q0 258 118.5 391
t334.5 133t334 -132.5t118 -391.5v-528q0 -260 -118 -392t-334 -132zM584 168q121 0 184 78.5t63 257.5v528q0 178 -62.5 257t-184.5 79q-121 0 -184.5 -79t-63.5 -257v-528q0 -179 63 -257.5t185 -78.5z" />
    <glyph glyph-name="multiply" unicode="&#xd7;" 
d="M913 373l-102 -103l-248 250l-239 -239l-101 100l240 240l-250 247l102 103l250 -248l238 238l100 -101l-237 -237z" />
    <glyph glyph-name="Oslash" unicode="&#xd8;" horiz-adv-x="1167" 
d="M1036 504q0 -255 -117 -389.5t-311 -134.5q-192 0 -274 98l-39 -78h-172l94 195q-86 103 -86 309v528q0 255 117 389.5t311 134.5q193 0 275 -98l38 78h172l-94 -195q86 -103 86 -309v-528zM336 504q0 -44 2 -64l420 860q-62 68 -174 68q-122 0 -185 -79t-63 -257v-528z
M831 1032q0 44 -2 64l-419 -860q62 -68 174 -68q122 0 184.5 79t62.5 257v528z" />
    <glyph glyph-name="Ugrave" unicode="&#xd9;" horiz-adv-x="1167" 
d="M504 1679l-189 308h228l131 -308h-170zM141 1536h205v-1063q0 -163 60 -234t178 -71q116 0 176.5 71.5t60.5 233.5v1063h205v-1063q0 -246 -115.5 -369.5t-326.5 -123.5q-212 0 -327.5 123.5t-115.5 369.5v1063z" />
    <glyph glyph-name="Uacute" unicode="&#xda;" horiz-adv-x="1167" 
d="M680 1679h-170l131 308h227zM141 1536h205v-1063q0 -163 60 -234t178 -71q116 0 176.5 71.5t60.5 233.5v1063h205v-1063q0 -246 -115.5 -369.5t-326.5 -123.5q-212 0 -327.5 123.5t-115.5 369.5v1063z" />
    <glyph glyph-name="Ucircumflex" unicode="&#xdb;" horiz-adv-x="1167" 
d="M426 1679h-170l213 308h225l213 -308h-170l-155 179zM141 1536h205v-1063q0 -163 60 -234t178 -71q116 0 176.5 71.5t60.5 233.5v1063h205v-1063q0 -246 -115.5 -369.5t-326.5 -123.5q-212 0 -327.5 123.5t-115.5 369.5v1063z" />
    <glyph glyph-name="Udieresis" unicode="&#xdc;" horiz-adv-x="1167" 
d="M379 1714q-49 0 -84 35t-35 84t35 84t84 35q51 0 85 -34.5t34 -84.5t-34 -84.5t-85 -34.5zM788 1714q-49 0 -83.5 34.5t-34.5 84.5t34.5 84.5t83.5 34.5q51 0 85 -34.5t34 -84.5t-34 -84.5t-85 -34.5zM141 1536h205v-1063q0 -163 60 -234t178 -71q116 0 176.5 71.5
t60.5 233.5v1063h205v-1063q0 -246 -115.5 -369.5t-326.5 -123.5q-212 0 -327.5 123.5t-115.5 369.5v1063z" />
    <glyph glyph-name="Yacute" unicode="&#xdd;" horiz-adv-x="983" 
d="M588 1679h-170l131 308h227zM594 618v-618h-205v618l-387 918h205l285 -705l284 705h205z" />
    <glyph glyph-name="Thorn" unicode="&#xde;" horiz-adv-x="1085" 
d="M588 365h-232v-365h-204v1536h204v-229h232q191 0 307.5 -107t116.5 -303v-102q0 -204 -116.5 -317t-307.5 -113zM567 1118h-211v-565h211q240 0 240 262v62q0 241 -240 241z" />
    <glyph glyph-name="germandbls" unicode="&#xdf;" horiz-adv-x="1257" 
d="M422 1180v-1180h-205v844h-176v180h176v160q0 175 110.5 273.5t286.5 98.5q175 0 288.5 -98t113.5 -262q0 -141 -117 -225q131 -61 207 -182t76 -277q0 -224 -150 -368t-377 -144h-53v180h53q140 0 231 92t91 240t-91 240t-231 92h-53v180h19q88 0 139 44.5t51 123.5
q0 84 -52.5 131t-142.5 47q-91 0 -142.5 -48t-51.5 -142z" />
    <glyph glyph-name="agrave" unicode="&#xe0;" 
d="M489 1229l-188 307h227l131 -307h-170zM793 0v172q-49 -97 -140 -144.5t-207 -47.5q-95 0 -171.5 29t-126.5 96.5t-50 164.5q0 90 38 151.5t99 91.5t134.5 47.5t147 27t134.5 22t99 40.5t38 75q0 73 -62 114.5t-159 41.5q-103 0 -164 -52t-61 -149h-213q0 77 24 139
t65 103.5t97.5 69t119 40t132.5 12.5q86 0 160 -18t135 -55.5t96 -102.5t35 -151v-717h-200zM307 283q0 -64 49.5 -97.5t130.5 -33.5q127 0 216.5 71.5t89.5 198.5v74q-45 -22 -116 -37.5t-131 -25t-116.5 -25t-89.5 -46t-33 -79.5z" />
    <glyph glyph-name="aacute" unicode="&#xe1;" 
d="M664 1229h-170l131 307h227zM793 0v172q-49 -97 -140 -144.5t-207 -47.5q-95 0 -171.5 29t-126.5 96.5t-50 164.5q0 90 38 151.5t99 91.5t134.5 47.5t147 27t134.5 22t99 40.5t38 75q0 73 -62 114.5t-159 41.5q-103 0 -164 -52t-61 -149h-213q0 77 24 139t65 103.5
t97.5 69t119 40t132.5 12.5q86 0 160 -18t135 -55.5t96 -102.5t35 -151v-717h-200zM307 283q0 -64 49.5 -97.5t130.5 -33.5q127 0 216.5 71.5t89.5 198.5v74q-45 -22 -116 -37.5t-131 -25t-116.5 -25t-89.5 -46t-33 -79.5z" />
    <glyph glyph-name="acircumflex" unicode="&#xe2;" 
d="M412 1229h-170l213 307h225l213 -307h-170l-156 178zM793 0v172q-49 -97 -140 -144.5t-207 -47.5q-95 0 -171.5 29t-126.5 96.5t-50 164.5q0 90 38 151.5t99 91.5t134.5 47.5t147 27t134.5 22t99 40.5t38 75q0 73 -62 114.5t-159 41.5q-103 0 -164 -52t-61 -149h-213
q0 77 24 139t65 103.5t97.5 69t119 40t132.5 12.5q86 0 160 -18t135 -55.5t96 -102.5t35 -151v-717h-200zM307 283q0 -64 49.5 -97.5t130.5 -33.5q127 0 216.5 71.5t89.5 198.5v74q-45 -22 -116 -37.5t-131 -25t-116.5 -25t-89.5 -46t-33 -79.5z" />
    <glyph glyph-name="atilde" unicode="&#xe3;" 
d="M231 1233v102q0 197 168 197q45 0 90.5 -21.5t76.5 -48t67.5 -48t64.5 -21.5q66 0 66 80v55h139v-103q0 -196 -168 -196q-45 0 -90.5 21.5t-76.5 48t-67.5 48t-64.5 21.5q-65 0 -65 -80v-55h-140zM793 0v172q-49 -97 -140 -144.5t-207 -47.5q-95 0 -171.5 29t-126.5 96.5
t-50 164.5q0 90 38 151.5t99 91.5t134.5 47.5t147 27t134.5 22t99 40.5t38 75q0 73 -62 114.5t-159 41.5q-103 0 -164 -52t-61 -149h-213q0 77 24 139t65 103.5t97.5 69t119 40t132.5 12.5q86 0 160 -18t135 -55.5t96 -102.5t35 -151v-717h-200zM307 283q0 -64 49.5 -97.5
t130.5 -33.5q127 0 216.5 71.5t89.5 198.5v74q-45 -22 -116 -37.5t-131 -25t-116.5 -25t-89.5 -46t-33 -79.5z" />
    <glyph glyph-name="adieresis" unicode="&#xe4;" 
d="M362 1264q-50 0 -84 34t-34 84t34.5 84.5t83.5 34.5q51 0 85 -34.5t34 -84.5t-34 -84t-85 -34zM772 1264q-50 0 -84.5 34.5t-34.5 83.5q0 50 34.5 84.5t84.5 34.5q51 0 85 -34.5t34 -84.5t-34 -84t-85 -34zM793 0v172q-49 -97 -140 -144.5t-207 -47.5q-95 0 -171.5 29
t-126.5 96.5t-50 164.5q0 90 38 151.5t99 91.5t134.5 47.5t147 27t134.5 22t99 40.5t38 75q0 73 -62 114.5t-159 41.5q-103 0 -164 -52t-61 -149h-213q0 77 24 139t65 103.5t97.5 69t119 40t132.5 12.5q86 0 160 -18t135 -55.5t96 -102.5t35 -151v-717h-200zM307 283
q0 -64 49.5 -97.5t130.5 -33.5q127 0 216.5 71.5t89.5 198.5v74q-45 -22 -116 -37.5t-131 -25t-116.5 -25t-89.5 -46t-33 -79.5z" />
    <glyph glyph-name="aring" unicode="&#xe5;" 
d="M567 1167q-94 0 -153.5 56t-59.5 139q0 81 60 137.5t153 56.5q95 0 155 -56.5t60 -137.5q0 -83 -60 -139t-155 -56zM567 1274q40 0 66 25t26 63t-26 63t-66 25q-37 0 -63.5 -25t-26.5 -63t26.5 -63t63.5 -25zM793 0v172q-49 -97 -140 -144.5t-207 -47.5q-95 0 -171.5 29
t-126.5 96.5t-50 164.5q0 90 38 151.5t99 91.5t134.5 47.5t147 27t134.5 22t99 40.5t38 75q0 73 -62 114.5t-159 41.5q-103 0 -164 -52t-61 -149h-213q0 77 24 139t65 103.5t97.5 69t119 40t132.5 12.5q86 0 160 -18t135 -55.5t96 -102.5t35 -151v-717h-200zM307 283
q0 -64 49.5 -97.5t130.5 -33.5q127 0 216.5 71.5t89.5 198.5v74q-45 -22 -116 -37.5t-131 -25t-116.5 -25t-89.5 -46t-33 -79.5z" />
    <glyph glyph-name="ae" unicode="&#xe6;" horiz-adv-x="1880" 
d="M1804 512q0 -24 -4 -70h-803q19 -134 101 -208t211 -74q181 0 247 147h222q-47 -157 -173 -242t-305 -85q-137 0 -248 61.5t-178 171.5q-49 -118 -155 -175.5t-248 -57.5q-75 0 -141 17t-118.5 51.5t-83 91t-30.5 130.5q0 90 38 151.5t99 91.5t134.5 47.5t147 27
t134.5 22t99 40.5t38 75q0 73 -62 114.5t-159 41.5q-103 0 -164 -52t-61 -149h-213q0 95 35 167.5t95.5 114t133.5 62t158 20.5q125 0 223.5 -41t147.5 -126q142 167 378 167q219 0 361.5 -149t142.5 -383zM1300 864q-124 0 -203 -72.5t-98 -201.5h603q-19 129 -99 201.5
t-203 72.5zM307 283q0 -64 49.5 -97.5t130.5 -33.5q127 0 216.5 71.5t89.5 198.5v74q-45 -22 -116 -37.5t-131 -25t-116.5 -25t-89.5 -46t-33 -79.5z" />
    <glyph glyph-name="ccedilla" unicode="&#xe7;" horiz-adv-x="1171" 
d="M811 -311q0 -86 -62 -143.5t-163 -57.5q-99 0 -162.5 49t-63.5 119h125q4 -29 32 -45.5t69 -16.5q45 0 73.5 26.5t28.5 68.5q0 41 -28 67.5t-72 26.5q-31 0 -55 -12.5t-33 -26.5h-127l151 240q-198 22 -323 167t-125 361q0 233 144.5 382.5t365.5 149.5
q204 0 345.5 -118.5t160.5 -309.5h-213q-15 113 -96.5 176.5t-196.5 63.5q-132 0 -218.5 -95.5t-86.5 -248.5t86.5 -248.5t218.5 -95.5q117 0 199.5 69t97.5 193h213q-10 -185 -135 -307t-314 -141l-65 -93h22q92 0 149.5 -58t57.5 -142z" />
    <glyph glyph-name="egrave" unicode="&#xe8;" horiz-adv-x="1159" 
d="M502 1229l-189 307h228l131 -307h-170zM1083 512q0 -24 -4 -70h-803q19 -134 101 -208t211 -74q182 0 248 147h221q-47 -157 -172.5 -242t-304.5 -85q-219 0 -361.5 149t-142.5 383t142.5 383t361.5 149t361 -149t142 -383zM580 864q-124 0 -203 -72.5t-98 -201.5h602
q-19 129 -98.5 201.5t-202.5 72.5z" />
    <glyph glyph-name="eacute" unicode="&#xe9;" horiz-adv-x="1159" 
d="M676 1229h-170l131 307h227zM1083 512q0 -24 -4 -70h-803q19 -134 101 -208t211 -74q182 0 248 147h221q-47 -157 -172.5 -242t-304.5 -85q-219 0 -361.5 149t-142.5 383t142.5 383t361.5 149t361 -149t142 -383zM580 864q-124 0 -203 -72.5t-98 -201.5h602
q-19 129 -98.5 201.5t-202.5 72.5z" />
    <glyph glyph-name="ecircumflex" unicode="&#xea;" horiz-adv-x="1159" 
d="M424 1229h-170l213 307h225l213 -307h-170l-155 178zM1083 512q0 -24 -4 -70h-803q19 -134 101 -208t211 -74q182 0 248 147h221q-47 -157 -172.5 -242t-304.5 -85q-219 0 -361.5 149t-142.5 383t142.5 383t361.5 149t361 -149t142 -383zM580 864q-124 0 -203 -72.5
t-98 -201.5h602q-19 129 -98.5 201.5t-202.5 72.5z" />
    <glyph glyph-name="edieresis" unicode="&#xeb;" horiz-adv-x="1159" 
d="M375 1264q-50 0 -84.5 34.5t-34.5 83.5q0 50 35 84.5t84 34.5q51 0 85 -34.5t34 -84.5t-34 -84t-85 -34zM784 1264q-50 0 -84 34t-34 84t34.5 84.5t83.5 34.5q51 0 85 -34.5t34 -84.5t-34 -84t-85 -34zM1083 512q0 -24 -4 -70h-803q19 -134 101 -208t211 -74
q182 0 248 147h221q-47 -157 -172.5 -242t-304.5 -85q-219 0 -361.5 149t-142.5 383t142.5 383t361.5 149t361 -149t142 -383zM580 864q-124 0 -203 -72.5t-98 -201.5h602q-19 129 -98.5 201.5t-202.5 72.5z" />
    <glyph glyph-name="igrave" unicode="&#xec;" horiz-adv-x="507" 
d="M176 1229l-188 307h227l131 -307h-170zM356 0h-204v1024h204v-1024z" />
    <glyph glyph-name="iacute" unicode="&#xed;" horiz-adv-x="507" 
d="M350 1229h-170l131 307h228zM356 0h-204v1024h204v-1024z" />
    <glyph glyph-name="icircumflex" unicode="&#xee;" horiz-adv-x="507" 
d="M98 1229h-170l213 307h226l213 -307h-170l-156 178zM356 0h-204v1024h204v-1024z" />
    <glyph glyph-name="idieresis" unicode="&#xef;" horiz-adv-x="507" 
d="M49 1264q-50 0 -84.5 34.5t-34.5 83.5q0 50 35 84.5t84 34.5q51 0 85 -34.5t34 -84.5t-34 -84t-85 -34zM459 1264q-50 0 -84.5 34.5t-34.5 83.5q0 50 35 84.5t84 34.5q51 0 85 -34.5t34 -84.5t-34 -84t-85 -34zM356 0h-204v1024h204v-1024z" />
    <glyph glyph-name="eth" unicode="&#xf0;" horiz-adv-x="1177" 
d="M1096 670q0 -185 -40 -321.5t-112 -215t-163 -116t-203 -37.5q-216 0 -357 137.5t-141 353.5q0 218 132 355t347 137q100 0 182 -42.5t133 -115.5q-21 262 -133 395l-174 -158h-207l275 248q-101 58 -240 58q-55 0 -114 -11v187q70 12 141 12q208 0 364 -111l123 111h207
l-227 -205q207 -233 207 -661zM578 168q127 0 208.5 84t81.5 219t-81.5 219t-208.5 84t-210 -84t-83 -219t83 -219t210 -84z" />
    <glyph glyph-name="ntilde" unicode="&#xf1;" horiz-adv-x="1198" 
d="M270 1233v102q0 197 168 197q45 0 90.5 -21.5t76.5 -48t67.5 -48t64.5 -21.5q66 0 66 80v55h139v-103q0 -196 -168 -196q-45 0 -90.5 21.5t-76.5 48t-67.5 48t-64.5 21.5q-65 0 -65 -80v-55h-140zM356 559v-559h-204v1024h204v-162q47 88 128.5 135t183.5 47
q175 0 282 -113t107 -331v-600h-205v559q0 150 -65 227.5t-183 77.5t-183 -77.5t-65 -227.5z" />
    <glyph glyph-name="ograve" unicode="&#xf2;" horiz-adv-x="1187" 
d="M516 1229l-188 307h227l131 -307h-170zM594 -20q-224 0 -371 149.5t-147 382.5t147 382.5t371 149.5t371 -149.5t147 -382.5t-147 -382.5t-371 -149.5zM594 168q135 0 224 95.5t89 248.5t-89 248.5t-224 95.5t-224 -95.5t-89 -248.5t89 -248.5t224 -95.5z" />
    <glyph glyph-name="oacute" unicode="&#xf3;" horiz-adv-x="1187" 
d="M690 1229h-170l131 307h228zM594 -20q-224 0 -371 149.5t-147 382.5t147 382.5t371 149.5t371 -149.5t147 -382.5t-147 -382.5t-371 -149.5zM594 168q135 0 224 95.5t89 248.5t-89 248.5t-224 95.5t-224 -95.5t-89 -248.5t89 -248.5t224 -95.5z" />
    <glyph glyph-name="ocircumflex" unicode="&#xf4;" horiz-adv-x="1187" 
d="M438 1229h-170l213 307h226l213 -307h-170l-156 178zM594 -20q-224 0 -371 149.5t-147 382.5t147 382.5t371 149.5t371 -149.5t147 -382.5t-147 -382.5t-371 -149.5zM594 168q135 0 224 95.5t89 248.5t-89 248.5t-224 95.5t-224 -95.5t-89 -248.5t89 -248.5t224 -95.5z
" />
    <glyph glyph-name="otilde" unicode="&#xf5;" horiz-adv-x="1187" 
d="M258 1233v102q0 197 168 197q45 0 90.5 -21.5t76.5 -48t67.5 -48t64.5 -21.5q66 0 66 80v55h139v-103q0 -196 -168 -196q-45 0 -90.5 21.5t-76.5 48t-67.5 48t-64.5 21.5q-66 0 -66 -80v-55h-139zM594 -20q-224 0 -371 149.5t-147 382.5t147 382.5t371 149.5t371 -149.5
t147 -382.5t-147 -382.5t-371 -149.5zM594 168q135 0 224 95.5t89 248.5t-89 248.5t-224 95.5t-224 -95.5t-89 -248.5t89 -248.5t224 -95.5z" />
    <glyph glyph-name="odieresis" unicode="&#xf6;" horiz-adv-x="1187" 
d="M389 1264q-50 0 -84.5 34.5t-34.5 83.5q0 50 35 84.5t84 34.5q51 0 85 -34.5t34 -84.5t-34 -84t-85 -34zM799 1264q-50 0 -84.5 34.5t-34.5 83.5q0 50 35 84.5t84 34.5q51 0 85 -34.5t34 -84.5t-34 -84t-85 -34zM594 -20q-224 0 -371 149.5t-147 382.5t147 382.5
t371 149.5t371 -149.5t147 -382.5t-147 -382.5t-371 -149.5zM594 168q135 0 224 95.5t89 248.5t-89 248.5t-224 95.5t-224 -95.5t-89 -248.5t89 -248.5t224 -95.5z" />
    <glyph glyph-name="divide" unicode="&#xf7;" 
d="M453 942q0 45 33.5 78t76.5 33q47 0 80 -32.5t33 -78.5t-33 -77t-80 -31q-44 0 -77 31.5t-33 76.5zM154 551v139h819v-139h-819zM453 295q0 45 33.5 78t76.5 33q47 0 80 -32.5t33 -78.5t-33 -77.5t-80 -31.5q-44 0 -77 32t-33 77z" />
    <glyph glyph-name="oslash" unicode="&#xf8;" horiz-adv-x="1187" 
d="M1112 512q0 -233 -147 -382.5t-371 -149.5q-154 0 -272 71l-41 -51h-205l125 154q-125 147 -125 358q0 233 147 382.5t371 149.5q154 0 272 -71l41 51h205l-125 -154q125 -147 125 -358zM281 512q0 -115 51 -197l409 504q-64 37 -147 37q-135 0 -224 -95.5t-89 -248.5z
M907 512q0 115 -51 197l-410 -504q64 -37 148 -37q135 0 224 95.5t89 248.5z" />
    <glyph glyph-name="ugrave" unicode="&#xf9;" horiz-adv-x="1187" 
d="M506 1229l-189 307h228l131 -307h-170zM831 0v164q-47 -90 -125.5 -137t-179.5 -47q-172 0 -278.5 114t-106.5 334v596h205v-555q0 -151 64 -230t180 -79q114 0 177.5 79t63.5 230v555h205v-1024h-205z" />
    <glyph glyph-name="uacute" unicode="&#xfa;" horiz-adv-x="1187" 
d="M680 1229h-170l131 307h227zM831 0v164q-47 -90 -125.5 -137t-179.5 -47q-172 0 -278.5 114t-106.5 334v596h205v-555q0 -151 64 -230t180 -79q114 0 177.5 79t63.5 230v555h205v-1024h-205z" />
    <glyph glyph-name="ucircumflex" unicode="&#xfb;" horiz-adv-x="1187" 
d="M428 1229h-170l213 307h225l213 -307h-170l-155 178zM831 0v164q-47 -90 -125.5 -137t-179.5 -47q-172 0 -278.5 114t-106.5 334v596h205v-555q0 -151 64 -230t180 -79q114 0 177.5 79t63.5 230v555h205v-1024h-205z" />
    <glyph glyph-name="udieresis" unicode="&#xfc;" horiz-adv-x="1187" 
d="M379 1264q-50 0 -84.5 34.5t-34.5 83.5q0 50 35 84.5t84 34.5q51 0 85 -34.5t34 -84.5t-34 -84t-85 -34zM788 1264q-50 0 -84 34t-34 84t34.5 84.5t83.5 34.5q51 0 85 -34.5t34 -84.5t-34 -84t-85 -34zM831 0v164q-47 -90 -125.5 -137t-179.5 -47q-172 0 -278.5 114
t-106.5 334v596h205v-555q0 -151 64 -230t180 -79q114 0 177.5 79t63.5 230v555h205v-1024h-205z" />
    <glyph glyph-name="yacute" unicode="&#xfd;" horiz-adv-x="1026" 
d="M627 1229h-170l131 307h227zM610 -115q-28 -80 -54.5 -137.5t-64 -112.5t-81 -88.5t-104 -54t-134.5 -20.5q-82 0 -154 22v180q72 -22 136 -22q94 0 153.5 55.5t110.5 179.5l-406 1137h205l297 -858l295 858h205z" />
    <glyph glyph-name="thorn" unicode="&#xfe;" horiz-adv-x="1259" 
d="M692 -20q-102 0 -188.5 45.5t-147.5 128.5v-666h-204v2048h204v-666q61 83 147.5 128.5t188.5 45.5q212 0 352 -149.5t140 -382.5t-140 -382.5t-352 -149.5zM668 168q135 0 223 95.5t88 248.5t-88 248.5t-223 95.5t-223.5 -95.5t-88.5 -248.5t88.5 -248.5t223.5 -95.5z
" />
    <glyph glyph-name="ydieresis" unicode="&#xff;" horiz-adv-x="1026" 
d="M326 1264q-50 0 -84.5 34.5t-34.5 83.5q0 50 34.5 84.5t84.5 34.5q51 0 84.5 -34.5t33.5 -84.5t-33.5 -84t-84.5 -34zM735 1264q-50 0 -84.5 34.5t-34.5 83.5q0 50 35 84.5t84 34.5q51 0 85 -34.5t34 -84.5t-34 -84t-85 -34zM610 -115q-28 -80 -54.5 -137.5t-64 -112.5
t-81 -88.5t-104 -54t-134.5 -20.5q-82 0 -154 22v180q72 -22 136 -22q94 0 153.5 55.5t110.5 179.5l-406 1137h205l297 -858l295 858h205z" />
    <glyph glyph-name="Amacron" unicode="&#x100;" horiz-adv-x="1044" 
d="M813 1849v-137h-565v137h565zM25 0l344 1536h307l344 -1536h-207l-80 377h-422l-80 -377h-206zM352 565h340l-170 807z" />
    <glyph glyph-name="amacron" unicode="&#x101;" 
d="M858 1399v-137h-565v137h565zM793 0v172q-49 -97 -140 -144.5t-207 -47.5q-95 0 -171.5 29t-126.5 96.5t-50 164.5q0 90 38 151.5t99 91.5t134.5 47.5t147 27t134.5 22t99 40.5t38 75q0 73 -62 114.5t-159 41.5q-103 0 -164 -52t-61 -149h-213q0 77 24 139t65 103.5
t97.5 69t119 40t132.5 12.5q86 0 160 -18t135 -55.5t96 -102.5t35 -151v-717h-200zM307 283q0 -64 49.5 -97.5t130.5 -33.5q127 0 216.5 71.5t89.5 198.5v74q-45 -22 -116 -37.5t-131 -25t-116.5 -25t-89.5 -46t-33 -79.5z" />
    <glyph glyph-name="Abreve" unicode="&#x102;" horiz-adv-x="1044" 
d="M670 1987h161q0 -143 -84.5 -225.5t-224.5 -82.5q-138 0 -222.5 82.5t-84.5 225.5h162q0 -81 41 -120.5t104 -39.5q67 0 107.5 39t40.5 121zM25 0l344 1536h307l344 -1536h-207l-80 377h-422l-80 -377h-206zM352 565h340l-170 807z" />
    <glyph glyph-name="abreve" unicode="&#x103;" 
d="M715 1536h162q0 -143 -85 -225t-225 -82q-139 0 -223 82t-84 225h162q0 -81 41 -120.5t104 -39.5q67 0 107.5 39t40.5 121zM793 0v172q-49 -97 -140 -144.5t-207 -47.5q-95 0 -171.5 29t-126.5 96.5t-50 164.5q0 90 38 151.5t99 91.5t134.5 47.5t147 27t134.5 22t99 40.5
t38 75q0 73 -62 114.5t-159 41.5q-103 0 -164 -52t-61 -149h-213q0 77 24 139t65 103.5t97.5 69t119 40t132.5 12.5q86 0 160 -18t135 -55.5t96 -102.5t35 -151v-717h-200zM307 283q0 -64 49.5 -97.5t130.5 -33.5q127 0 216.5 71.5t89.5 198.5v74q-45 -22 -116 -37.5
t-131 -25t-116.5 -25t-89.5 -46t-33 -79.5z" />
    <glyph glyph-name="Aogonek" unicode="&#x104;" horiz-adv-x="1044" 
d="M623 -342q0 27 8.5 56.5t19 53t34 58.5t37.5 54l46 60.5l45 59.5l-80 377h-422l-80 -377h-206l344 1536h307l344 -1536h-84q-94 -128 -130 -200t-36 -124q0 -42 25 -62t65 -20t65 20.5t31 57.5h150q0 -86 -69 -139t-181 -53q-105 0 -169 48t-64 130zM352 565h340
l-170 807z" />
    <glyph glyph-name="aogonek" unicode="&#x105;" 
d="M602 -340q0 27 9 57.5t18.5 52.5t34.5 59l37 53.5t47 60.5l45 57v172q-49 -97 -140 -144.5t-207 -47.5q-95 0 -171.5 29t-126.5 96.5t-50 164.5q0 90 38 151.5t99 91.5t134.5 47.5t147 27t134.5 22t99 40.5t38 75q0 73 -62 114.5t-159 41.5q-103 0 -164 -52t-61 -149
h-213q0 77 24 139t65 103.5t97.5 69t119 40t132.5 12.5q86 0 160 -18t135 -55.5t96 -102.5t35 -151v-717h-78q-93 -124 -129 -196t-36 -126q0 -84 90 -84q40 0 65 20.5t31 57.5h149q0 -86 -68.5 -139t-180.5 -53q-106 0 -170 48t-64 132zM307 283q0 -64 49.5 -97.5
t130.5 -33.5q127 0 216.5 71.5t89.5 198.5v74q-45 -22 -116 -37.5t-131 -25t-116.5 -25t-89.5 -46t-33 -79.5z" />
    <glyph glyph-name="Cacute" unicode="&#x106;" horiz-adv-x="1167" 
d="M680 1679h-170l131 308h227zM831 586h205v-82q0 -259 -118 -391.5t-334 -132.5t-334.5 133t-118.5 391v528q0 258 118.5 391t334.5 133t334 -132.5t118 -391.5v-61h-205v61q0 178 -62.5 257t-184.5 79q-121 0 -184.5 -79t-63.5 -257v-528q0 -178 63 -257t185 -79
q121 0 184 79t63 257v82z" />
    <glyph glyph-name="cacute" unicode="&#x107;" horiz-adv-x="1171" 
d="M682 1229h-170l131 307h227zM879 616q-15 113 -96.5 176.5t-196.5 63.5q-132 0 -218.5 -95.5t-86.5 -248.5t86.5 -248.5t218.5 -95.5q117 0 199.5 69t97.5 193h213q-12 -201 -155.5 -325.5t-354.5 -124.5q-221 0 -365.5 149.5t-144.5 382.5t144.5 382.5t365.5 149.5
q204 0 345.5 -118.5t160.5 -309.5h-213z" />
    <glyph glyph-name="Ccircumflex" unicode="&#x108;" horiz-adv-x="1167" 
d="M426 1679h-170l213 308h225l213 -308h-170l-155 179zM831 586h205v-82q0 -259 -118 -391.5t-334 -132.5t-334.5 133t-118.5 391v528q0 258 118.5 391t334.5 133t334 -132.5t118 -391.5v-61h-205v61q0 178 -62.5 257t-184.5 79q-121 0 -184.5 -79t-63.5 -257v-528
q0 -178 63 -257t185 -79q121 0 184 79t63 257v82z" />
    <glyph glyph-name="ccircumflex" unicode="&#x109;" horiz-adv-x="1171" 
d="M430 1229h-170l213 307h225l213 -307h-170l-155 178zM879 616q-15 113 -96.5 176.5t-196.5 63.5q-132 0 -218.5 -95.5t-86.5 -248.5t86.5 -248.5t218.5 -95.5q117 0 199.5 69t97.5 193h213q-12 -201 -155.5 -325.5t-354.5 -124.5q-221 0 -365.5 149.5t-144.5 382.5
t144.5 382.5t365.5 149.5q204 0 345.5 -118.5t160.5 -309.5h-213z" />
    <glyph glyph-name="Cdotaccent" unicode="&#x10a;" horiz-adv-x="1167" 
d="M584 1698q-58 0 -96.5 39t-38.5 96q0 59 38.5 97t96.5 38q60 0 97.5 -38t37.5 -97q0 -58 -38 -96.5t-97 -38.5zM831 586h205v-82q0 -259 -118 -391.5t-334 -132.5t-334.5 133t-118.5 391v528q0 258 118.5 391t334.5 133t334 -132.5t118 -391.5v-61h-205v61
q0 178 -62.5 257t-184.5 79q-121 0 -184.5 -79t-63.5 -257v-528q0 -178 63 -257t185 -79q121 0 184 79t63 257v82z" />
    <glyph glyph-name="cdotaccent" unicode="&#x10b;" horiz-adv-x="1171" 
d="M586 1247q-58 0 -96.5 39t-38.5 96q0 59 38.5 97.5t96.5 38.5q60 0 97.5 -38.5t37.5 -97.5q0 -58 -38 -96.5t-97 -38.5zM879 616q-15 113 -96.5 176.5t-196.5 63.5q-132 0 -218.5 -95.5t-86.5 -248.5t86.5 -248.5t218.5 -95.5q117 0 199.5 69t97.5 193h213
q-12 -201 -155.5 -325.5t-354.5 -124.5q-221 0 -365.5 149.5t-144.5 382.5t144.5 382.5t365.5 149.5q204 0 345.5 -118.5t160.5 -309.5h-213z" />
    <glyph glyph-name="Ccaron" unicode="&#x10c;" horiz-adv-x="1167" 
d="M907 1987l-213 -308h-225l-213 308h170l156 -179l155 179h170zM831 586h205v-82q0 -259 -118 -391.5t-334 -132.5t-334.5 133t-118.5 391v528q0 258 118.5 391t334.5 133t334 -132.5t118 -391.5v-61h-205v61q0 178 -62.5 257t-184.5 79q-121 0 -184.5 -79t-63.5 -257
v-528q0 -178 63 -257t185 -79q121 0 184 79t63 257v82z" />
    <glyph glyph-name="ccaron" unicode="&#x10d;" horiz-adv-x="1171" 
d="M911 1536l-213 -307h-225l-213 307h170l156 -178l155 178h170zM879 616q-15 113 -96.5 176.5t-196.5 63.5q-132 0 -218.5 -95.5t-86.5 -248.5t86.5 -248.5t218.5 -95.5q117 0 199.5 69t97.5 193h213q-12 -201 -155.5 -325.5t-354.5 -124.5q-221 0 -365.5 149.5
t-144.5 382.5t144.5 382.5t365.5 149.5q204 0 345.5 -118.5t160.5 -309.5h-213z" />
    <glyph glyph-name="Dcaron" unicode="&#x10e;" horiz-adv-x="1167" 
d="M891 1987l-213 -308h-225l-213 308h170l155 -179l156 179h170zM575 1536q220 0 340.5 -128.5t120.5 -383.5v-512q0 -255 -120.5 -383.5t-340.5 -128.5h-423v1536h423zM575 188q125 0 190.5 75.5t65.5 248.5v512q0 174 -64.5 249t-191.5 75h-219v-1160h219z" />
    <glyph glyph-name="dcaron" unicode="&#x10f;" horiz-adv-x="1259" 
d="M903 0v154q-61 -83 -147.5 -128.5t-188.5 -45.5q-212 0 -351.5 149.5t-139.5 382.5t139.5 382.5t351.5 149.5q102 0 188.5 -45.5t147.5 -128.5v666h205v-1536h-205zM1268 1536h198l-90 -379h-116zM592 856q-135 0 -223 -95.5t-88 -248.5t88 -248.5t223 -95.5t223 95.5
t88 248.5t-88 248.5t-223 95.5z" />
    <glyph glyph-name="Dcroat" unicode="&#x110;" horiz-adv-x="1167" 
d="M1036 512q0 -255 -120.5 -383.5t-340.5 -128.5h-423v721h-152v139h152v676h423q220 0 340.5 -128.5t120.5 -383.5v-512zM356 188h219q125 0 190.5 75.5t65.5 248.5v512q0 174 -64.5 249t-191.5 75h-219v-488h234v-139h-234v-533z" />
    <glyph glyph-name="dcroat" unicode="&#x111;" horiz-adv-x="1259" 
d="M903 0v154q-61 -83 -147.5 -128.5t-188.5 -45.5q-212 0 -351.5 149.5t-139.5 382.5t139.5 382.5t351.5 149.5q102 0 188.5 -45.5t147.5 -128.5v359h-311v123h311v184h205v-184h152v-123h-152v-1229h-205zM592 856q-135 0 -223 -95.5t-88 -248.5t88 -248.5t223 -95.5
t223 95.5t88 248.5t-88 248.5t-223 95.5z" />
    <glyph glyph-name="Emacron" unicode="&#x112;" horiz-adv-x="929" 
d="M797 1849v-137h-566v137h566zM152 0v1536h688v-188h-484v-463h443v-189h-443v-508h484v-188h-688z" />
    <glyph glyph-name="emacron" unicode="&#x113;" horiz-adv-x="1159" 
d="M870 1399v-137h-565v137h565zM1083 512q0 -24 -4 -70h-803q19 -134 101 -208t211 -74q182 0 248 147h221q-47 -157 -172.5 -242t-304.5 -85q-219 0 -361.5 149t-142.5 383t142.5 383t361.5 149t361 -149t142 -383zM580 864q-124 0 -203 -72.5t-98 -201.5h602
q-19 129 -98.5 201.5t-202.5 72.5z" />
    <glyph glyph-name="Ebreve" unicode="&#x114;" horiz-adv-x="929" 
d="M653 1987h162q0 -143 -84.5 -225.5t-224.5 -82.5q-138 0 -222.5 82.5t-84.5 225.5h161q0 -81 41.5 -120.5t104.5 -39.5q67 0 107 39t40 121zM152 0v1536h688v-188h-484v-463h443v-189h-443v-508h484v-188h-688z" />
    <glyph glyph-name="ebreve" unicode="&#x115;" horiz-adv-x="1159" 
d="M727 1536h162q0 -143 -84.5 -225t-224.5 -82q-139 0 -223.5 82t-84.5 225h162q0 -81 41.5 -120.5t104.5 -39.5q67 0 107 39t40 121zM1083 512q0 -24 -4 -70h-803q19 -134 101 -208t211 -74q182 0 248 147h221q-47 -157 -172.5 -242t-304.5 -85q-219 0 -361.5 149
t-142.5 383t142.5 383t361.5 149t361 -149t142 -383zM580 864q-124 0 -203 -72.5t-98 -201.5h602q-19 129 -98.5 201.5t-202.5 72.5z" />
    <glyph glyph-name="Edotaccent" unicode="&#x116;" horiz-adv-x="929" 
d="M506 1698q-58 0 -96.5 39t-38.5 96q0 59 38.5 97t96.5 38q60 0 97.5 -38t37.5 -97q0 -58 -38 -96.5t-97 -38.5zM152 0v1536h688v-188h-484v-463h443v-189h-443v-508h484v-188h-688z" />
    <glyph glyph-name="edotaccent" unicode="&#x117;" horiz-adv-x="1159" 
d="M580 1247q-58 0 -97 39t-39 96q0 58 39 97t97 39q60 0 97.5 -38.5t37.5 -97.5q0 -58 -38 -96.5t-97 -38.5zM1083 512q0 -24 -4 -70h-803q19 -134 101 -208t211 -74q182 0 248 147h221q-47 -157 -172.5 -242t-304.5 -85q-219 0 -361.5 149t-142.5 383t142.5 383t361.5 149
t361 -149t142 -383zM580 864q-124 0 -203 -72.5t-98 -201.5h602q-19 129 -98.5 201.5t-202.5 72.5z" />
    <glyph glyph-name="Eogonek" unicode="&#x118;" horiz-adv-x="929" 
d="M840 188v-188h-168q-95 -127 -131.5 -199.5t-36.5 -124.5q0 -42 25 -62t65 -20t65 20.5t31 57.5h150q0 -86 -69 -139t-181 -53q-106 0 -170 48t-64 130q0 32 9 63.5t34 72.5t39 61.5t56 75.5l53 69h-395v1536h688v-188h-484v-463h443v-189h-443v-508h484z" />
    <glyph glyph-name="eogonek" unicode="&#x119;" horiz-adv-x="1159" 
d="M1083 512q0 -24 -4 -70h-803q19 -134 101 -208t211 -74q182 0 248 147h221q-17 -70 -73 -163.5t-111.5 -167t-100.5 -155t-45 -134.5q0 -93 102 -93q39 0 66.5 21t34.5 57h125q-2 -77 -65 -130.5t-161 -53.5q-103 0 -164 49.5t-61 132.5q0 27 4.5 53.5t17 54.5l22 47.5
t32 51l33.5 46l39.5 51.5t38.5 49q-100 -43 -211 -43q-219 0 -361.5 149t-142.5 383t142.5 383t361.5 149t361 -149t142 -383zM580 864q-124 0 -203 -72.5t-98 -201.5h602q-19 129 -98.5 201.5t-202.5 72.5z" />
    <glyph glyph-name="Ecaron" unicode="&#x11a;" horiz-adv-x="929" 
d="M829 1987l-213 -308h-225l-213 308h170l156 -179l155 179h170zM152 0v1536h688v-188h-484v-463h443v-189h-443v-508h484v-188h-688z" />
    <glyph glyph-name="ecaron" unicode="&#x11b;" horiz-adv-x="1159" 
d="M905 1536l-213 -307h-225l-213 307h170l156 -178l155 178h170zM1083 512q0 -24 -4 -70h-803q19 -134 101 -208t211 -74q182 0 248 147h221q-47 -157 -172.5 -242t-304.5 -85q-219 0 -361.5 149t-142.5 383t142.5 383t361.5 149t361 -149t142 -383zM580 864
q-124 0 -203 -72.5t-98 -201.5h602q-19 129 -98.5 201.5t-202.5 72.5z" />
    <glyph glyph-name="Gcircumflex" unicode="&#x11c;" horiz-adv-x="1177" 
d="M426 1679h-170l213 308h225l213 -308h-170l-155 179zM553 809h483v-809h-184v182q-85 -202 -307 -202q-196 0 -305 133t-109 391v528q0 258 118.5 391t334.5 133t334 -132.5t118 -391.5v-61h-205v61q0 178 -62.5 257t-184.5 79q-121 0 -184.5 -79t-63.5 -257v-528
q0 -178 63 -257t185 -79q247 0 247 319v134h-278v188z" />
    <glyph glyph-name="gcircumflex" unicode="&#x11d;" horiz-adv-x="1259" 
d="M428 1229h-170l213 307h225l213 -307h-170l-155 178zM1108 -8q0 -152 -67.5 -272.5t-182 -186t-254.5 -65.5q-200 0 -338 121.5t-166 320.5h207q20 -117 99 -185.5t198 -68.5q139 0 219 93t80 243v162q-61 -83 -147.5 -128.5t-188.5 -45.5q-212 0 -351.5 149.5
t-139.5 382.5t139.5 382.5t351.5 149.5q102 0 188.5 -45.5t147.5 -128.5v154h205v-1032zM592 168q135 0 223 95.5t88 248.5t-88 248.5t-223 95.5t-223 -95.5t-88 -248.5t88 -248.5t223 -95.5z" />
    <glyph glyph-name="Gbreve" unicode="&#x11e;" horiz-adv-x="1177" 
d="M731 1987h162q0 -143 -84.5 -225.5t-224.5 -82.5q-139 0 -223.5 82.5t-84.5 225.5h162q0 -81 41.5 -120.5t104.5 -39.5q67 0 107 39t40 121zM553 809h483v-809h-184v182q-85 -202 -307 -202q-196 0 -305 133t-109 391v528q0 258 118.5 391t334.5 133t334 -132.5
t118 -391.5v-61h-205v61q0 178 -62.5 257t-184.5 79q-121 0 -184.5 -79t-63.5 -257v-528q0 -178 63 -257t185 -79q247 0 247 319v134h-278v188z" />
    <glyph glyph-name="gbreve" unicode="&#x11f;" horiz-adv-x="1259" 
d="M731 1536h162q0 -143 -84.5 -225t-224.5 -82q-139 0 -223.5 82t-84.5 225h162q0 -81 41.5 -120.5t104.5 -39.5q67 0 107 39t40 121zM1108 -8q0 -152 -67.5 -272.5t-182 -186t-254.5 -65.5q-200 0 -338 121.5t-166 320.5h207q20 -117 99 -185.5t198 -68.5q139 0 219 93
t80 243v162q-61 -83 -147.5 -128.5t-188.5 -45.5q-212 0 -351.5 149.5t-139.5 382.5t139.5 382.5t351.5 149.5q102 0 188.5 -45.5t147.5 -128.5v154h205v-1032zM592 168q135 0 223 95.5t88 248.5t-88 248.5t-223 95.5t-223 -95.5t-88 -248.5t88 -248.5t223 -95.5z" />
    <glyph glyph-name="Gdotaccent" unicode="&#x120;" horiz-adv-x="1177" 
d="M584 1698q-58 0 -96.5 39t-38.5 96q0 59 38.5 97t96.5 38q60 0 97.5 -38t37.5 -97q0 -58 -38 -96.5t-97 -38.5zM553 809h483v-809h-184v182q-85 -202 -307 -202q-196 0 -305 133t-109 391v528q0 258 118.5 391t334.5 133t334 -132.5t118 -391.5v-61h-205v61
q0 178 -62.5 257t-184.5 79q-121 0 -184.5 -79t-63.5 -257v-528q0 -178 63 -257t185 -79q247 0 247 319v134h-278v188z" />
    <glyph glyph-name="gdotaccent" unicode="&#x121;" horiz-adv-x="1259" 
d="M584 1247q-58 0 -96.5 39t-38.5 96q0 59 38.5 97.5t96.5 38.5q60 0 97.5 -38.5t37.5 -97.5q0 -58 -38 -96.5t-97 -38.5zM1108 -8q0 -152 -67.5 -272.5t-182 -186t-254.5 -65.5q-200 0 -338 121.5t-166 320.5h207q20 -117 99 -185.5t198 -68.5q139 0 219 93t80 243v162
q-61 -83 -147.5 -128.5t-188.5 -45.5q-212 0 -351.5 149.5t-139.5 382.5t139.5 382.5t351.5 149.5q102 0 188.5 -45.5t147.5 -128.5v154h205v-1032zM592 168q135 0 223 95.5t88 248.5t-88 248.5t-223 95.5t-223 -95.5t-88 -248.5t88 -248.5t223 -95.5z" />
    <glyph glyph-name="Gcommaaccent" unicode="&#x122;" horiz-adv-x="1177" 
d="M553 809h483v-809h-184v182q-85 -202 -307 -202q-196 0 -305 133t-109 391v528q0 258 118.5 391t334.5 133t334 -132.5t118 -391.5v-61h-205v61q0 178 -62.5 257t-184.5 79q-121 0 -184.5 -79t-63.5 -257v-528q0 -178 63 -257t185 -79q247 0 247 319v134h-278v188z
M516 -430h-137l61 307h211z" />
    <glyph glyph-name="gcommaaccent" unicode="&#x123;" horiz-adv-x="1259" 
d="M629 1597h137l-61 -307h-211zM1108 -8q0 -152 -67.5 -272.5t-182 -186t-254.5 -65.5q-200 0 -338 121.5t-166 320.5h207q20 -117 99 -185.5t198 -68.5q139 0 219 93t80 243v162q-61 -83 -147.5 -128.5t-188.5 -45.5q-212 0 -351.5 149.5t-139.5 382.5t139.5 382.5
t351.5 149.5q102 0 188.5 -45.5t147.5 -128.5v154h205v-1032zM592 168q135 0 223 95.5t88 248.5t-88 248.5t-223 95.5t-223 -95.5t-88 -248.5t88 -248.5t223 -95.5z" />
    <glyph glyph-name="Hcircumflex" unicode="&#x124;" horiz-adv-x="1208" 
d="M446 1679h-170l213 308h226l213 -308h-170l-156 179zM852 0v696h-496v-696h-204v1536h204v-651h496v651h205v-1536h-205z" />
    <glyph glyph-name="hcircumflex" unicode="&#x125;" horiz-adv-x="1198" 
d="M449 1679h-170l213 308h225l213 -308h-170l-156 179zM356 559v-559h-204v1536h204v-674q47 88 128.5 135t183.5 47q175 0 282 -113t107 -331v-600h-205v559q0 150 -65 227.5t-183 77.5t-183 -77.5t-65 -227.5z" />
    <glyph glyph-name="Hbar" unicode="&#x126;" horiz-adv-x="1208" 
d="M852 0v696h-496v-696h-204v1143h-152v139h152v254h204v-254h496v254h205v-254h151v-139h-151v-1143h-205zM356 885h496v258h-496v-258z" />
    <glyph glyph-name="hbar" unicode="&#x127;" horiz-adv-x="1198" 
d="M356 559v-559h-204v1229h-152v123h152v184h204v-184h297v-123h-297v-367q47 88 128.5 135t183.5 47q175 0 282 -113t107 -331v-600h-205v559q0 150 -65 227.5t-183 77.5t-183 -77.5t-65 -227.5z" />
    <glyph glyph-name="Itilde" unicode="&#x128;" horiz-adv-x="507" 
d="M-82 1683v103q0 196 168 196q45 0 90.5 -21.5t76.5 -48t67.5 -48t64.5 -21.5q66 0 66 80v55h139v-102q0 -197 -168 -197q-45 0 -90.5 22t-76.5 48t-67.5 48t-64.5 22q-66 0 -66 -80v-56h-139zM356 0h-204v1536h204v-1536z" />
    <glyph glyph-name="itilde" unicode="&#x129;" horiz-adv-x="507" 
d="M-82 1233v102q0 197 168 197q45 0 90.5 -21.5t76.5 -48t67.5 -48t64.5 -21.5q66 0 66 80v55h139v-103q0 -196 -168 -196q-45 0 -90.5 21.5t-76.5 48t-67.5 48t-64.5 21.5q-66 0 -66 -80v-55h-139zM356 0h-204v1024h204v-1024z" />
    <glyph glyph-name="Imacron" unicode="&#x12a;" horiz-adv-x="507" 
d="M545 1849v-137h-565v137h565zM356 0h-204v1536h204v-1536z" />
    <glyph glyph-name="imacron" unicode="&#x12b;" horiz-adv-x="507" 
d="M545 1399v-137h-565v137h565zM356 0h-204v1024h204v-1024z" />
    <glyph glyph-name="Ibreve" unicode="&#x12c;" horiz-adv-x="507" 
d="M401 1987h162q0 -143 -84.5 -225.5t-224.5 -82.5q-138 0 -222.5 82.5t-84.5 225.5h162q0 -81 41 -120.5t104 -39.5q67 0 107 39t40 121zM356 0h-204v1536h204v-1536z" />
    <glyph glyph-name="ibreve" unicode="&#x12d;" horiz-adv-x="507" 
d="M401 1536h162q0 -143 -84.5 -225t-224.5 -82q-139 0 -223 82t-84 225h162q0 -81 41 -120.5t104 -39.5q67 0 107 39t40 121zM356 0h-204v1024h204v-1024z" />
    <glyph glyph-name="Iogonek" unicode="&#x12e;" horiz-adv-x="507" 
d="M12 -342q0 21 5 44t10.5 40.5t20.5 44l23 40.5t30.5 44.5l30.5 41l35.5 45t33.5 42.5h-49v1536h204v-1536h-32q-93 -123 -128.5 -195t-35.5 -129q0 -42 25 -62t65 -20t65 20.5t31 57.5h150q0 -86 -69 -139t-181 -53q-106 0 -170 48t-64 130z" />
    <glyph glyph-name="iogonek" unicode="&#x12f;" horiz-adv-x="507" 
d="M254 1247q-58 0 -96.5 39t-38.5 98t38.5 97.5t96.5 38.5q60 0 97.5 -38.5t37.5 -97.5t-38 -98t-97 -39zM10 -342q0 32 9 63.5t34 72.5t39 61.5t56 75.5l53 69h-49v1024h204v-1024h-32q-94 -128 -130 -200t-36 -124q0 -42 25 -62t65 -20t65 20.5t31 57.5h150
q0 -86 -69 -139t-181 -53q-106 0 -170 48t-64 130z" />
    <glyph glyph-name="Idotaccent" unicode="&#x130;" horiz-adv-x="507" 
d="M254 1698q-58 0 -96.5 39t-38.5 96q0 59 38.5 97t96.5 38q60 0 97.5 -38t37.5 -97q0 -58 -38 -96.5t-97 -38.5zM356 0h-204v1536h204v-1536z" />
    <glyph glyph-name="dotlessi" unicode="&#x131;" horiz-adv-x="507" 
d="M356 0h-204v1024h204v-1024z" />
    <glyph glyph-name="IJ" unicode="&#x132;" horiz-adv-x="1544" 
d="M356 0h-204v1536h204v-1536zM1208 1536h205v-1130q0 -138 -55.5 -236t-147 -144t-209.5 -46q-88 0 -162 27t-130 79t-87.5 134t-31.5 186v131h205v-115q0 -254 206 -254q207 0 207 254v1114z" />
    <glyph glyph-name="ij" unicode="&#x133;" horiz-adv-x="1015" 
d="M254 1247q-58 0 -96.5 39t-38.5 98t38.5 97.5t96.5 38.5q60 0 97.5 -38.5t37.5 -97.5t-38 -98t-97 -39zM762 1247q-58 0 -96.5 39t-38.5 98t38.5 97.5t96.5 38.5q60 0 97.5 -38.5t37.5 -97.5t-38 -98t-97 -39zM356 0h-204v1024h204v-1024zM659 -178v1202h205v-1206
q0 -330 -327 -330q-71 0 -103 8v187q40 -7 76 -7q74 0 111.5 31.5t37.5 114.5z" />
    <glyph glyph-name="Jcircumflex" unicode="&#x134;" horiz-adv-x="1036" 
d="M645 1679h-170l213 308h225l213 -308h-170l-155 179zM700 1536h205v-1130q0 -104 -31.5 -186t-87.5 -134t-130 -79t-162 -27q-118 0 -209.5 46t-147 144t-55.5 236v131h205v-115q0 -254 207 -254q206 0 206 254v1114z" />
    <glyph glyph-name="jcircumflex" unicode="&#x135;" horiz-adv-x="507" 
d="M98 1229h-170l213 307h226l213 -307h-170l-156 178zM152 -178v1202h204v-1206q0 -330 -327 -330q-71 0 -103 8v187q40 -7 76 -7q74 0 112 32t38 114z" />
    <glyph glyph-name="Kcommaaccent" unicode="&#x136;" horiz-adv-x="1062" 
d="M809 0l-453 756v-756h-204v1536h204v-748l449 748h225l-461 -735l486 -801h-246zM504 -430h-137l61 307h211z" />
    <glyph glyph-name="kcommaaccent" unicode="&#x137;" horiz-adv-x="1130" 
d="M846 0l-490 539v-539h-204v1536h204v-967l441 455h272l-481 -467l518 -557h-260zM537 -430h-138l62 307h211z" />
    <glyph glyph-name="Lacute" unicode="&#x139;" horiz-adv-x="888" 
d="M350 1679h-170l131 308h228zM856 188v-188h-704v1536h204v-1348h500z" />
    <glyph glyph-name="lacute" unicode="&#x13a;" horiz-adv-x="507" 
d="M342 1679h-170l131 308h227zM356 0h-204v1536h204v-1536z" />
    <glyph glyph-name="Lcommaaccent" unicode="&#x13b;" horiz-adv-x="888" 
d="M856 188v-188h-704v1536h204v-1348h500zM483 -430h-137l62 307h210z" />
    <glyph glyph-name="lcommaaccent" unicode="&#x13c;" horiz-adv-x="507" 
d="M356 0h-204v1536h204v-1536zM225 -430h-137l62 307h210z" />
    <glyph glyph-name="Lcaron" unicode="&#x13d;" horiz-adv-x="888" 
d="M856 188v-188h-704v1536h204v-1348h500zM508 1536h199l-91 -379h-116z" />
    <glyph glyph-name="lcaron" unicode="&#x13e;" horiz-adv-x="507" 
d="M356 0h-204v1536h204v-1536zM492 1536h198l-90 -379h-117z" />
    <glyph glyph-name="Ldot" unicode="&#x13f;" horiz-adv-x="888" 
d="M856 188v-188h-704v1536h204v-1348h500zM694 662q-58 0 -96.5 39t-38.5 96q0 59 38.5 97t96.5 38q60 0 97.5 -38t37.5 -97q0 -58 -38 -96.5t-97 -38.5z" />
    <glyph glyph-name="ldot" unicode="&#x140;" horiz-adv-x="507" 
d="M356 0h-204v1536h204v-1536zM573 653q-58 0 -96.5 39t-38.5 96q0 59 38.5 97.5t96.5 38.5q60 0 98 -38.5t38 -97.5q0 -58 -38.5 -96.5t-97.5 -38.5z" />
    <glyph glyph-name="Lslash" unicode="&#x141;" horiz-adv-x="888" 
d="M856 188v-188h-704v598l-152 -94v172l152 94v766h204v-639l238 147v-172l-238 -147v-537h500z" />
    <glyph glyph-name="lslash" unicode="&#x142;" horiz-adv-x="507" 
d="M508 872l-152 -98v-774h-204v641l-152 -98v172l152 98v723h204v-590l152 98v-172z" />
    <glyph glyph-name="Nacute" unicode="&#x143;" horiz-adv-x="1208" 
d="M700 1679h-170l132 308h227zM1057 1536v-1536h-338l-379 1407v-1407h-188v1536h342l374 -1391v1391h189z" />
    <glyph glyph-name="nacute" unicode="&#x144;" horiz-adv-x="1198" 
d="M702 1229h-170l132 307h227zM356 559v-559h-204v1024h204v-162q47 88 128.5 135t183.5 47q175 0 282 -113t107 -331v-600h-205v559q0 150 -65 227.5t-183 77.5t-183 -77.5t-65 -227.5z" />
    <glyph glyph-name="Ncommaaccent" unicode="&#x145;" horiz-adv-x="1208" 
d="M1057 1536v-1536h-338l-379 1407v-1407h-188v1536h342l374 -1391v1391h189zM575 -430h-137l62 307h211z" />
    <glyph glyph-name="ncommaaccent" unicode="&#x146;" horiz-adv-x="1198" 
d="M356 559v-559h-204v1024h204v-162q47 88 128.5 135t183.5 47q175 0 282 -113t107 -331v-600h-205v559q0 150 -65 227.5t-183 77.5t-183 -77.5t-65 -227.5zM578 -430h-138l62 307h211z" />
    <glyph glyph-name="Ncaron" unicode="&#x147;" horiz-adv-x="1208" 
d="M928 1987l-213 -308h-226l-213 308h170l156 -179l156 179h170zM1057 1536v-1536h-338l-379 1407v-1407h-188v1536h342l374 -1391v1391h189z" />
    <glyph glyph-name="ncaron" unicode="&#x148;" horiz-adv-x="1198" 
d="M932 1536l-213 -307h-225l-213 307h170l155 -178l156 178h170zM356 559v-559h-204v1024h204v-162q47 88 128.5 135t183.5 47q175 0 282 -113t107 -331v-600h-205v559q0 150 -65 227.5t-183 77.5t-183 -77.5t-65 -227.5z" />
    <glyph glyph-name="Eng" unicode="&#x14a;" horiz-adv-x="1208" 
d="M152 0v1536h342l374 -1372v1372h189v-1677q0 -371 -361 -371q-70 0 -102 8v187q40 -7 76 -7q92 0 145 42t53 145v137h-149l-379 1386v-1386h-188z" />
    <glyph glyph-name="eng" unicode="&#x14b;" horiz-adv-x="1198" 
d="M668 1044q175 0 282 -113t107 -331v-750q0 -362 -359 -362q-68 0 -104 8v187q44 -7 78 -7q89 0 134.5 39.5t45.5 139.5v704q0 150 -65 227.5t-183 77.5t-183 -77.5t-65 -227.5v-559h-204v1024h204v-162q47 88 128.5 135t183.5 47z" />
    <glyph glyph-name="Omacron" unicode="&#x14c;" horiz-adv-x="1167" 
d="M874 1849v-137h-565v137h565zM584 -20q-216 0 -334.5 132t-118.5 392v528q0 258 118.5 391t334.5 133t334 -132.5t118 -391.5v-528q0 -260 -118 -392t-334 -132zM584 168q121 0 184 78.5t63 257.5v528q0 178 -62.5 257t-184.5 79q-121 0 -184.5 -79t-63.5 -257v-528
q0 -179 63 -257.5t185 -78.5z" />
    <glyph glyph-name="omacron" unicode="&#x14d;" horiz-adv-x="1187" 
d="M885 1399v-137h-566v137h566zM594 -20q-224 0 -371 149.5t-147 382.5t147 382.5t371 149.5t371 -149.5t147 -382.5t-147 -382.5t-371 -149.5zM594 168q135 0 224 95.5t89 248.5t-89 248.5t-224 95.5t-224 -95.5t-89 -248.5t89 -248.5t224 -95.5z" />
    <glyph glyph-name="Obreve" unicode="&#x14e;" horiz-adv-x="1167" 
d="M731 1987h162q0 -143 -84.5 -225.5t-224.5 -82.5q-139 0 -223.5 82.5t-84.5 225.5h162q0 -81 41.5 -120.5t104.5 -39.5q67 0 107 39t40 121zM584 -20q-216 0 -334.5 132t-118.5 392v528q0 258 118.5 391t334.5 133t334 -132.5t118 -391.5v-528q0 -260 -118 -392
t-334 -132zM584 168q121 0 184 78.5t63 257.5v528q0 178 -62.5 257t-184.5 79q-121 0 -184.5 -79t-63.5 -257v-528q0 -179 63 -257.5t185 -78.5z" />
    <glyph glyph-name="obreve" unicode="&#x14f;" horiz-adv-x="1187" 
d="M741 1536h162q0 -143 -84.5 -225t-224.5 -82q-139 0 -223 82t-84 225h162q0 -81 41 -120.5t104 -39.5q67 0 107 39t40 121zM594 -20q-224 0 -371 149.5t-147 382.5t147 382.5t371 149.5t371 -149.5t147 -382.5t-147 -382.5t-371 -149.5zM594 168q135 0 224 95.5t89 248.5
t-89 248.5t-224 95.5t-224 -95.5t-89 -248.5t89 -248.5t224 -95.5z" />
    <glyph glyph-name="Ohungarumlaut" unicode="&#x150;" horiz-adv-x="1167" 
d="M479 1679h-137l61 308h211zM848 1679h-137l61 308h211zM584 -20q-216 0 -334.5 132t-118.5 392v528q0 258 118.5 391t334.5 133t334 -132.5t118 -391.5v-528q0 -260 -118 -392t-334 -132zM584 168q121 0 184 78.5t63 257.5v528q0 178 -62.5 257t-184.5 79
q-121 0 -184.5 -79t-63.5 -257v-528q0 -179 63 -257.5t185 -78.5z" />
    <glyph glyph-name="ohungarumlaut" unicode="&#x151;" horiz-adv-x="1187" 
d="M489 1229h-137l62 307h211zM858 1229h-137l61 307h211zM594 -20q-224 0 -371 149.5t-147 382.5t147 382.5t371 149.5t371 -149.5t147 -382.5t-147 -382.5t-371 -149.5zM594 168q135 0 224 95.5t89 248.5t-89 248.5t-224 95.5t-224 -95.5t-89 -248.5t89 -248.5t224 -95.5z
" />
    <glyph glyph-name="OE" unicode="&#x152;" horiz-adv-x="1589" 
d="M592 0q-99 0 -182.5 34t-146 98.5t-97.5 166t-35 229.5v480q0 128 35 229.5t97.5 166t146 98.5t182.5 34h907v-188h-483v-463h442v-189h-442v-508h483v-188h-907zM592 1348q-256 0 -256 -357v-446q0 -357 256 -357h219v1160h-219z" />
    <glyph glyph-name="oe" unicode="&#x153;" horiz-adv-x="1998" 
d="M1923 512q0 -24 -4 -70h-803q19 -134 100.5 -208t210.5 -74q182 0 248 147h221q-47 -157 -172.5 -242t-304.5 -85q-130 0 -238 57t-175 158q-68 -101 -175.5 -158t-236.5 -57q-224 0 -371 149.5t-147 382.5t147 382.5t371 149.5q129 0 236.5 -57t175.5 -158
q67 101 175 158t238 57q219 0 361.5 -149t142.5 -383zM1419 864q-124 0 -203 -72.5t-98 -201.5h602q-19 129 -98.5 201.5t-202.5 72.5zM594 168q135 0 224 95.5t89 248.5t-89 248.5t-224 95.5t-224 -95.5t-89 -248.5t89 -248.5t224 -95.5z" />
    <glyph glyph-name="Racute" unicode="&#x154;" 
d="M649 1679h-170l131 308h228zM152 0v1536h450q192 0 310 -102t118 -287v-62q0 -182 -113.5 -281.5t-293.5 -109.5l454 -694h-246l-475 752v-752h-204zM582 1348h-226v-484h226q243 0 243 242v20q0 117 -62.5 169.5t-180.5 52.5z" />
    <glyph glyph-name="racute" unicode="&#x155;" horiz-adv-x="825" 
d="M569 1229h-170l131 307h228zM356 514v-514h-204v1024h204v-184q55 100 146.5 152t208.5 52q41 0 65 -6v-223q-50 16 -108 16q-150 0 -231 -80.5t-81 -236.5z" />
    <glyph glyph-name="Rcommaaccent" unicode="&#x156;" 
d="M152 0v1536h450q192 0 310 -102t118 -287v-62q0 -182 -113.5 -281.5t-293.5 -109.5l454 -694h-246l-475 752v-752h-204zM582 1348h-226v-484h226q243 0 243 242v20q0 117 -62.5 169.5t-180.5 52.5zM512 -430h-137l61 307h211z" />
    <glyph glyph-name="rcommaaccent" unicode="&#x157;" horiz-adv-x="825" 
d="M356 514v-514h-204v1024h204v-184q55 100 146.5 152t208.5 52q41 0 65 -6v-223q-50 16 -108 16q-150 0 -231 -80.5t-81 -236.5zM225 -430h-137l62 307h210z" />
    <glyph glyph-name="Rcaron" unicode="&#x158;" 
d="M877 1987l-213 -308h-226l-213 308h170l156 -179l156 179h170zM152 0v1536h450q192 0 310 -102t118 -287v-62q0 -182 -113.5 -281.5t-293.5 -109.5l454 -694h-246l-475 752v-752h-204zM582 1348h-226v-484h226q243 0 243 242v20q0 117 -62.5 169.5t-180.5 52.5z" />
    <glyph glyph-name="rcaron" unicode="&#x159;" horiz-adv-x="825" 
d="M799 1536l-213 -307h-226l-213 307h170l156 -178l156 178h170zM356 514v-514h-204v1024h204v-184q55 100 146.5 152t208.5 52q41 0 65 -6v-223q-50 16 -108 16q-150 0 -231 -80.5t-81 -236.5z" />
    <glyph glyph-name="Sacute" unicode="&#x15a;" horiz-adv-x="993" 
d="M596 1679h-170l131 308h227zM113 1180q0 190 107.5 283t279.5 93q173 0 282 -105t109 -304v-94h-205v88q0 115 -48.5 171t-137.5 56q-84 0 -133.5 -49t-49.5 -139q0 -83 46.5 -141.5t134.5 -118.5l166 -119q76 -54 127 -106t86.5 -131.5t35.5 -174.5q0 -197 -116 -303
t-295 -106q-177 0 -294.5 109t-117.5 300v115h205v-101q0 -108 56.5 -171.5t150.5 -63.5q96 0 151.5 52.5t55.5 144.5q0 88 -47.5 153.5t-135.5 126.5l-161 113q-119 82 -185.5 181t-66.5 241z" />
    <glyph glyph-name="sacute" unicode="&#x15b;" horiz-adv-x="1032" 
d="M608 1229h-170l131 307h228zM942 289q0 -142 -114 -225.5t-296 -83.5q-194 0 -318 93.5t-124 256.5h213q0 -91 63.5 -140t165.5 -49q95 0 147 36t52 104q0 44 -26.5 74t-70 44.5t-99.5 28t-114 23t-114 31t-99.5 50.5t-70 83t-26.5 128q0 137 111 219t280 82
q179 0 299.5 -96t120.5 -237h-213q0 73 -59 121.5t-148 48.5q-84 0 -134.5 -34t-50.5 -95q0 -40 27 -68t71 -41.5t100 -26.5t114.5 -23.5t114.5 -33t100 -53.5t71 -86.5t27 -130.5z" />
    <glyph glyph-name="Scircumflex" unicode="&#x15c;" horiz-adv-x="993" 
d="M342 1679h-170l213 308h225l213 -308h-170l-155 179zM113 1180q0 190 107.5 283t279.5 93q173 0 282 -105t109 -304v-94h-205v88q0 115 -48.5 171t-137.5 56q-84 0 -133.5 -49t-49.5 -139q0 -83 46.5 -141.5t134.5 -118.5l166 -119q76 -54 127 -106t86.5 -131.5
t35.5 -174.5q0 -197 -116 -303t-295 -106q-177 0 -294.5 109t-117.5 300v115h205v-101q0 -108 56.5 -171.5t150.5 -63.5q96 0 151.5 52.5t55.5 144.5q0 88 -47.5 153.5t-135.5 126.5l-161 113q-119 82 -185.5 181t-66.5 241z" />
    <glyph glyph-name="scircumflex" unicode="&#x15d;" horiz-adv-x="1032" 
d="M356 1229h-170l213 307h226l213 -307h-170l-156 178zM942 289q0 -142 -114 -225.5t-296 -83.5q-194 0 -318 93.5t-124 256.5h213q0 -91 63.5 -140t165.5 -49q95 0 147 36t52 104q0 44 -26.5 74t-70 44.5t-99.5 28t-114 23t-114 31t-99.5 50.5t-70 83t-26.5 128
q0 137 111 219t280 82q179 0 299.5 -96t120.5 -237h-213q0 73 -59 121.5t-148 48.5q-84 0 -134.5 -34t-50.5 -95q0 -40 27 -68t71 -41.5t100 -26.5t114.5 -23.5t114.5 -33t100 -53.5t71 -86.5t27 -130.5z" />
    <glyph glyph-name="Scedilla" unicode="&#x15e;" horiz-adv-x="993" 
d="M727 -311q0 -86 -62 -143.5t-163 -57.5q-99 0 -162.5 49t-63.5 119h125q4 -29 32 -45.5t69 -16.5q45 0 73.5 26.5t28.5 68.5q0 41 -28 67.5t-72 26.5q-31 0 -55 -12.5t-33 -26.5h-127l151 240q-156 20 -253 125.5t-97 279.5v115h205v-101q0 -108 56.5 -171.5t150.5 -63.5
q96 0 151.5 52.5t55.5 144.5q0 88 -47.5 153.5t-135.5 126.5l-161 113q-119 82 -185.5 181t-66.5 241q0 190 107.5 283t279.5 93q173 0 282 -105t109 -304v-94h-205v88q0 115 -48.5 171t-137.5 56q-84 0 -133.5 -49t-49.5 -139q0 -83 46.5 -141.5t134.5 -118.5l166 -119
q76 -54 127 -106t86.5 -131.5t35.5 -174.5q0 -180 -96.5 -283.5t-253.5 -121.5l-65 -95h22q92 0 149.5 -58t57.5 -142z" />
    <glyph glyph-name="scedilla" unicode="&#x15f;" horiz-adv-x="1032" 
d="M758 -311q0 -86 -62.5 -143.5t-163.5 -57.5q-99 0 -162 48.5t-63 119.5h125q4 -29 32 -45.5t68 -16.5q46 0 74.5 27t28.5 68t-28 67.5t-72 26.5q-31 0 -55.5 -12.5t-33.5 -26.5h-127l152 238q-171 15 -276 106.5t-105 241.5h213q0 -91 63.5 -140t165.5 -49q95 0 147 35.5
t52 104.5q0 44 -26.5 74t-70 44.5t-99.5 28t-114 23t-114 31t-99.5 50.5t-70 83t-26.5 128q0 137 111 219t280 82q179 0 299.5 -96t120.5 -237h-213q0 72 -59 121t-148 49q-84 0 -134.5 -34t-50.5 -95q0 -40 27 -68t71 -41.5t100 -26.5t114.5 -23.5t114.5 -33t100 -53.5
t71 -86.5t27 -130.5q0 -130 -95.5 -211.5t-252.5 -95.5l-66 -93h23q92 0 149.5 -58t57.5 -142z" />
    <glyph glyph-name="Scaron" unicode="&#x160;" horiz-adv-x="993" 
d="M823 1987l-213 -308h-225l-213 308h170l156 -179l155 179h170zM113 1180q0 190 107.5 283t279.5 93q173 0 282 -105t109 -304v-94h-205v88q0 115 -48.5 171t-137.5 56q-84 0 -133.5 -49t-49.5 -139q0 -83 46.5 -141.5t134.5 -118.5l166 -119q76 -54 127 -106t86.5 -131.5
t35.5 -174.5q0 -197 -116 -303t-295 -106q-177 0 -294.5 109t-117.5 300v115h205v-101q0 -108 56.5 -171.5t150.5 -63.5q96 0 151.5 52.5t55.5 144.5q0 88 -47.5 153.5t-135.5 126.5l-161 113q-119 82 -185.5 181t-66.5 241z" />
    <glyph glyph-name="scaron" unicode="&#x161;" horiz-adv-x="1032" 
d="M838 1536l-213 -307h-226l-213 307h170l156 -178l156 178h170zM942 289q0 -142 -114 -225.5t-296 -83.5q-194 0 -318 93.5t-124 256.5h213q0 -91 63.5 -140t165.5 -49q95 0 147 36t52 104q0 44 -26.5 74t-70 44.5t-99.5 28t-114 23t-114 31t-99.5 50.5t-70 83t-26.5 128
q0 137 111 219t280 82q179 0 299.5 -96t120.5 -237h-213q0 73 -59 121.5t-148 48.5q-84 0 -134.5 -34t-50.5 -95q0 -40 27 -68t71 -41.5t100 -26.5t114.5 -23.5t114.5 -33t100 -53.5t71 -86.5t27 -130.5z" />
    <glyph glyph-name="Tcommaaccent" unicode="&#x162;" horiz-adv-x="888" 
d="M20 1348v188h848v-188h-321v-1348h-205v1348h-322zM416 -430h-137l61 307h211z" />
    <glyph glyph-name="tcommaaccent" unicode="&#x163;" horiz-adv-x="798" 
d="M414 350q0 -95 42 -138.5t132 -43.5q68 0 121 18v-182q-74 -24 -160 -24q-78 0 -137 17t-106 56.5t-72 111t-25 173.5v506h-168v180h168v303h205v-303h295v-180h-295v-494zM446 -430h-137l62 307h211z" />
    <glyph glyph-name="Tcaron" unicode="&#x164;" horiz-adv-x="888" 
d="M768 1987l-213 -308h-225l-213 308h170l155 -179l156 179h170zM20 1348v188h848v-188h-321v-1348h-205v1348h-322z" />
    <glyph glyph-name="tcaron" unicode="&#x165;" horiz-adv-x="798" 
d="M569 1536h199l-90 -379h-117zM414 350q0 -95 42 -138.5t132 -43.5q68 0 121 18v-182q-74 -24 -160 -24q-78 0 -137 17t-106 56.5t-72 111t-25 173.5v506h-168v180h168v303h205v-303h295v-180h-295v-494z" />
    <glyph glyph-name="Tbar" unicode="&#x166;" horiz-adv-x="888" 
d="M20 1348v188h848v-188h-321v-324h225v-137h-225v-887h-205v887h-225v137h225v324h-322z" />
    <glyph glyph-name="tbar" unicode="&#x167;" horiz-adv-x="798" 
d="M709 4q-74 -24 -160 -24q-78 0 -137 17t-106 56.5t-72 111t-25 173.5v190h-121v121h121v195h-168v180h168v303h205v-303h295v-180h-295v-195h227v-121h-227v-178q0 -95 42 -138.5t132 -43.5q68 0 121 18v-182z" />
    <glyph glyph-name="Utilde" unicode="&#x168;" horiz-adv-x="1167" 
d="M248 1683v103q0 196 168 196q45 0 90.5 -21.5t76.5 -48t67.5 -48t64.5 -21.5q65 0 65 80v55h140v-102q0 -197 -168 -197q-45 0 -90.5 22t-76.5 48t-67.5 48t-64.5 22q-66 0 -66 -80v-56h-139zM141 1536h205v-1063q0 -163 60 -234t178 -71q116 0 176.5 71.5t60.5 233.5
v1063h205v-1063q0 -246 -115.5 -369.5t-326.5 -123.5q-212 0 -327.5 123.5t-115.5 369.5v1063z" />
    <glyph glyph-name="utilde" unicode="&#x169;" horiz-adv-x="1187" 
d="M248 1233v102q0 197 168 197q45 0 90.5 -21.5t76.5 -48t67.5 -48t64.5 -21.5q65 0 65 80v55h140v-103q0 -196 -168 -196q-45 0 -90.5 21.5t-76.5 48t-67.5 48t-64.5 21.5q-66 0 -66 -80v-55h-139zM831 0v164q-47 -90 -125.5 -137t-179.5 -47q-172 0 -278.5 114
t-106.5 334v596h205v-555q0 -151 64 -230t180 -79q114 0 177.5 79t63.5 230v555h205v-1024h-205z" />
    <glyph glyph-name="Umacron" unicode="&#x16a;" horiz-adv-x="1167" 
d="M874 1849v-137h-565v137h565zM141 1536h205v-1063q0 -163 60 -234t178 -71q116 0 176.5 71.5t60.5 233.5v1063h205v-1063q0 -246 -115.5 -369.5t-326.5 -123.5q-212 0 -327.5 123.5t-115.5 369.5v1063z" />
    <glyph glyph-name="umacron" unicode="&#x16b;" horiz-adv-x="1187" 
d="M874 1399v-137h-565v137h565zM831 0v164q-47 -90 -125.5 -137t-179.5 -47q-172 0 -278.5 114t-106.5 334v596h205v-555q0 -151 64 -230t180 -79q114 0 177.5 79t63.5 230v555h205v-1024h-205z" />
    <glyph glyph-name="Ubreve" unicode="&#x16c;" horiz-adv-x="1167" 
d="M731 1987h162q0 -143 -84.5 -225.5t-224.5 -82.5q-139 0 -223.5 82.5t-84.5 225.5h162q0 -81 41.5 -120.5t104.5 -39.5q67 0 107 39t40 121zM141 1536h205v-1063q0 -163 60 -234t178 -71q116 0 176.5 71.5t60.5 233.5v1063h205v-1063q0 -246 -115.5 -369.5t-326.5 -123.5
q-212 0 -327.5 123.5t-115.5 369.5v1063z" />
    <glyph glyph-name="ubreve" unicode="&#x16d;" horiz-adv-x="1187" 
d="M731 1536h162q0 -143 -84.5 -225t-224.5 -82q-139 0 -223.5 82t-84.5 225h162q0 -81 41.5 -120.5t104.5 -39.5q67 0 107 39t40 121zM831 0v164q-47 -90 -125.5 -137t-179.5 -47q-172 0 -278.5 114t-106.5 334v596h205v-555q0 -151 64 -230t180 -79q114 0 177.5 79
t63.5 230v555h205v-1024h-205z" />
    <glyph glyph-name="Uring" unicode="&#x16e;" horiz-adv-x="1167" 
d="M584 1618q-94 0 -153.5 55.5t-59.5 138.5q0 81 60 138t153 57q95 0 155 -57t60 -138q0 -83 -60 -138.5t-155 -55.5zM584 1724q40 0 66 25t26 63t-26 63.5t-66 25.5q-37 0 -63.5 -25.5t-26.5 -63.5t26.5 -63t63.5 -25zM141 1536h205v-1063q0 -163 60 -234t178 -71
q116 0 176.5 71.5t60.5 233.5v1063h205v-1063q0 -246 -115.5 -369.5t-326.5 -123.5q-212 0 -327.5 123.5t-115.5 369.5v1063z" />
    <glyph glyph-name="uring" unicode="&#x16f;" horiz-adv-x="1187" 
d="M584 1167q-94 0 -153.5 56t-59.5 139q0 81 60 137.5t153 56.5q95 0 155 -56.5t60 -137.5q0 -83 -60 -139t-155 -56zM584 1274q40 0 66 25t26 63t-26 63t-66 25q-37 0 -63.5 -25t-26.5 -63t26.5 -63t63.5 -25zM831 0v164q-47 -90 -125.5 -137t-179.5 -47
q-172 0 -278.5 114t-106.5 334v596h205v-555q0 -151 64 -230t180 -79q114 0 177.5 79t63.5 230v555h205v-1024h-205z" />
    <glyph glyph-name="Uhungarumlaut" unicode="&#x170;" horiz-adv-x="1167" 
d="M479 1679h-137l61 308h211zM848 1679h-137l61 308h211zM141 1536h205v-1063q0 -163 60 -234t178 -71q116 0 176.5 71.5t60.5 233.5v1063h205v-1063q0 -246 -115.5 -369.5t-326.5 -123.5q-212 0 -327.5 123.5t-115.5 369.5v1063z" />
    <glyph glyph-name="uhungarumlaut" unicode="&#x171;" horiz-adv-x="1187" 
d="M479 1229h-137l61 307h211zM848 1229h-137l61 307h211zM831 0v164q-47 -90 -125.5 -137t-179.5 -47q-172 0 -278.5 114t-106.5 334v596h205v-555q0 -151 64 -230t180 -79q114 0 177.5 79t63.5 230v555h205v-1024h-205z" />
    <glyph glyph-name="Uogonek" unicode="&#x172;" horiz-adv-x="1167" 
d="M825 -328q0 -86 -69 -139t-181 -53q-105 0 -169 48t-64 130q0 22 4.5 43.5t16.5 47.5l20.5 43t30.5 48.5l31 44.5t38 51l37 48q-182 18 -280.5 140.5t-98.5 348.5v1063h205v-1063q0 -163 60 -234t178 -71q116 0 176.5 71.5t60.5 233.5v1063h205v-1063
q0 -228 -98.5 -350.5t-282.5 -140.5q-88 -119 -122 -188t-34 -118q0 -42 25.5 -62t65.5 -20t65 20.5t31 57.5h149z" />
    <glyph glyph-name="uogonek" unicode="&#x173;" horiz-adv-x="1187" 
d="M641 -340q0 27 9 58t18 52t35 59.5l36.5 53t47 61l44.5 56.5v164q-47 -90 -125.5 -137t-179.5 -47q-172 0 -278.5 114t-106.5 334v596h205v-555q0 -151 64 -230t180 -79q114 0 177.5 79t63.5 230v555h205v-1024h-82q-93 -125 -129.5 -196.5t-36.5 -125.5
q0 -43 25.5 -63.5t65.5 -20.5t65 20.5t31 57.5h149q0 -86 -69 -139t-181 -53q-106 0 -169.5 48t-63.5 132z" />
    <glyph glyph-name="Wcircumflex" unicode="&#x174;" horiz-adv-x="1536" 
d="M610 1679h-170l213 308h226l213 -308h-170l-156 179zM1516 1536l-236 -1536h-307l-205 1360l-205 -1360h-307l-236 1536h205l189 -1333l200 1333h308l200 -1333l189 1333h205z" />
    <glyph glyph-name="wcircumflex" unicode="&#x175;" horiz-adv-x="1566" 
d="M623 1229h-170l213 307h225l213 -307h-170l-156 178zM1536 1024l-276 -1024h-259l-217 846l-219 -846h-258l-276 1024h196l211 -846l215 846h260l215 -846l211 846h197z" />
    <glyph glyph-name="Ycircumflex" unicode="&#x176;" horiz-adv-x="983" 
d="M334 1679h-170l213 308h225l213 -308h-170l-156 179zM594 618v-618h-205v618l-387 918h205l285 -705l284 705h205z" />
    <glyph glyph-name="ycircumflex" unicode="&#x177;" horiz-adv-x="1026" 
d="M375 1229h-170l213 307h225l213 -307h-170l-156 178zM610 -115q-28 -80 -54.5 -137.5t-64 -112.5t-81 -88.5t-104 -54t-134.5 -20.5q-82 0 -154 22v180q72 -22 136 -22q94 0 153.5 55.5t110.5 179.5l-406 1137h205l297 -858l295 858h205z" />
    <glyph glyph-name="Ydieresis" unicode="&#x178;" horiz-adv-x="983" 
d="M287 1714q-49 0 -84 35t-35 84t35 84t84 35q51 0 85 -34.5t34 -84.5t-34 -84.5t-85 -34.5zM696 1714q-49 0 -83.5 34.5t-34.5 84.5t34.5 84.5t83.5 34.5q51 0 85 -34.5t34 -84.5t-34 -84.5t-85 -34.5zM594 618v-618h-205v618l-387 918h205l285 -705l284 705h205z" />
    <glyph glyph-name="Zacute" unicode="&#x179;" horiz-adv-x="901" 
d="M553 1679h-170l131 308h227zM852 188v-188h-782v242l571 1106h-561v188h751v-242l-569 -1106h590z" />
    <glyph glyph-name="zacute" unicode="&#x17a;" horiz-adv-x="962" 
d="M573 1229h-170l132 307h227zM903 180v-180h-823v233l584 611h-574v180h772v-233l-583 -611h624z" />
    <glyph glyph-name="Zdotaccent" unicode="&#x17b;" horiz-adv-x="901" 
d="M457 1698q-58 0 -96.5 39t-38.5 96q0 59 38 97t97 38q60 0 97.5 -38t37.5 -97q0 -58 -38 -96.5t-97 -38.5zM852 188v-188h-782v242l571 1106h-561v188h751v-242l-569 -1106h590z" />
    <glyph glyph-name="zdotaccent" unicode="&#x17c;" horiz-adv-x="962" 
d="M477 1247q-58 0 -96.5 39t-38.5 96q0 59 38.5 97.5t96.5 38.5q60 0 97.5 -38.5t37.5 -97.5q0 -58 -38 -96.5t-97 -38.5zM903 180v-180h-823v233l584 611h-574v180h772v-233l-583 -611h624z" />
    <glyph glyph-name="Zcaron" unicode="&#x17d;" horiz-adv-x="901" 
d="M780 1987l-213 -308h-225l-213 308h170l156 -179l155 179h170zM852 188v-188h-782v242l571 1106h-561v188h751v-242l-569 -1106h590z" />
    <glyph glyph-name="zcaron" unicode="&#x17e;" horiz-adv-x="962" 
d="M803 1536l-213 -307h-225l-213 307h170l155 -178l156 178h170zM903 180v-180h-823v233l584 611h-574v180h772v-233l-583 -611h624z" />
    <glyph glyph-name="florin" unicode="&#x192;" 
d="M889 688h-332l-254 -1200h-205l254 1200h-192v123h219l78 373q42 197 152 284.5t298 87.5q64 0 117 -16v-188q-40 16 -139 16q-94 0 -148.5 -46.5t-74.5 -143.5l-78 -367h305v-123z" />
    <glyph glyph-name="Aringacute" unicode="&#x1fa;" horiz-adv-x="1044" 
d="M600 2089h-170l131 307h227zM522 1618q-94 0 -153.5 55.5t-59.5 138.5q0 81 60 138t153 57q95 0 155 -57t60 -138q0 -83 -60 -138.5t-155 -55.5zM522 1724q40 0 66 25t26 63t-26 63.5t-66 25.5q-37 0 -63.5 -25.5t-26.5 -63.5t26.5 -63t63.5 -25zM25 0l344 1536h307
l344 -1536h-207l-80 377h-422l-80 -377h-206zM352 565h340l-170 807z" />
    <glyph glyph-name="aringacute" unicode="&#x1fb;" 
d="M659 1679h-170l132 308h227zM567 1167q-94 0 -153.5 56t-59.5 139q0 81 60 137.5t153 56.5q95 0 155 -56.5t60 -137.5q0 -83 -60 -139t-155 -56zM567 1274q40 0 66 25t26 63t-26 63t-66 25q-37 0 -63.5 -25t-26.5 -63t26.5 -63t63.5 -25zM793 0v172q-49 -97 -140 -144.5
t-207 -47.5q-95 0 -171.5 29t-126.5 96.5t-50 164.5q0 90 38 151.5t99 91.5t134.5 47.5t147 27t134.5 22t99 40.5t38 75q0 73 -62 114.5t-159 41.5q-103 0 -164 -52t-61 -149h-213q0 77 24 139t65 103.5t97.5 69t119 40t132.5 12.5q86 0 160 -18t135 -55.5t96 -102.5
t35 -151v-717h-200zM307 283q0 -64 49.5 -97.5t130.5 -33.5q127 0 216.5 71.5t89.5 198.5v74q-45 -22 -116 -37.5t-131 -25t-116.5 -25t-89.5 -46t-33 -79.5z" />
    <glyph glyph-name="AEacute" unicode="&#x1fc;" horiz-adv-x="1597" 
d="M1018 1679h-170l131 308h227zM1507 188v-188h-688v377h-438l-162 -377h-215l680 1536h823v-188h-483v-463h442v-189h-442v-508h483zM463 565h356v824z" />
    <glyph glyph-name="aeacute" unicode="&#x1fd;" horiz-adv-x="1880" 
d="M997 1229h-170l131 307h228zM1804 512q0 -24 -4 -70h-803q19 -134 101 -208t211 -74q181 0 247 147h222q-47 -157 -173 -242t-305 -85q-137 0 -248 61.5t-178 171.5q-49 -118 -155 -175.5t-248 -57.5q-75 0 -141 17t-118.5 51.5t-83 91t-30.5 130.5q0 90 38 151.5
t99 91.5t134.5 47.5t147 27t134.5 22t99 40.5t38 75q0 73 -62 114.5t-159 41.5q-103 0 -164 -52t-61 -149h-213q0 95 35 167.5t95.5 114t133.5 62t158 20.5q125 0 223.5 -41t147.5 -126q142 167 378 167q219 0 361.5 -149t142.5 -383zM1300 864q-124 0 -203 -72.5
t-98 -201.5h603q-19 129 -99 201.5t-203 72.5zM307 283q0 -64 49.5 -97.5t130.5 -33.5q127 0 216.5 71.5t89.5 198.5v74q-45 -22 -116 -37.5t-131 -25t-116.5 -25t-89.5 -46t-33 -79.5z" />
    <glyph glyph-name="Oslashacute" unicode="&#x1fe;" horiz-adv-x="1167" 
d="M680 1679h-170l131 308h227zM1036 504q0 -255 -117 -389.5t-311 -134.5q-192 0 -274 98l-39 -78h-172l94 195q-86 103 -86 309v528q0 255 117 389.5t311 134.5q193 0 275 -98l38 78h172l-94 -195q86 -103 86 -309v-528zM336 504q0 -44 2 -64l420 860q-62 68 -174 68
q-122 0 -185 -79t-63 -257v-528zM831 1032q0 44 -2 64l-419 -860q62 -68 174 -68q122 0 184.5 79t62.5 257v528z" />
    <glyph glyph-name="oslashacute" unicode="&#x1ff;" horiz-adv-x="1187" 
d="M690 1229h-170l131 307h228zM1112 512q0 -233 -147 -382.5t-371 -149.5q-154 0 -272 71l-41 -51h-205l125 154q-125 147 -125 358q0 233 147 382.5t371 149.5q154 0 272 -71l41 51h205l-125 -154q125 -147 125 -358zM281 512q0 -115 51 -197l409 504q-64 37 -147 37
q-135 0 -224 -95.5t-89 -248.5zM907 512q0 115 -51 197l-410 -504q64 -37 148 -37q135 0 224 95.5t89 248.5z" />
    <glyph glyph-name="Scommaaccent" unicode="&#x218;" horiz-adv-x="993" 
d="M113 1180q0 190 107.5 283t279.5 93q173 0 282 -105t109 -304v-94h-205v88q0 115 -48.5 171t-137.5 56q-84 0 -133.5 -49t-49.5 -139q0 -83 46.5 -141.5t134.5 -118.5l166 -119q76 -54 127 -106t86.5 -131.5t35.5 -174.5q0 -197 -116 -303t-295 -106q-177 0 -294.5 109
t-117.5 300v115h205v-101q0 -108 56.5 -171.5t150.5 -63.5q96 0 151.5 52.5t55.5 144.5q0 88 -47.5 153.5t-135.5 126.5l-161 113q-119 82 -185.5 181t-66.5 241zM473 -430h-137l61 307h211z" />
    <glyph glyph-name="scommaaccent" unicode="&#x219;" horiz-adv-x="1032" 
d="M942 289q0 -142 -114 -225.5t-296 -83.5q-194 0 -318 93.5t-124 256.5h213q0 -91 63.5 -140t165.5 -49q95 0 147 36t52 104q0 44 -26.5 74t-70 44.5t-99.5 28t-114 23t-114 31t-99.5 50.5t-70 83t-26.5 128q0 137 111 219t280 82q179 0 299.5 -96t120.5 -237h-213
q0 73 -59 121.5t-148 48.5q-84 0 -134.5 -34t-50.5 -95q0 -40 27 -68t71 -41.5t100 -26.5t114.5 -23.5t114.5 -33t100 -53.5t71 -86.5t27 -130.5zM504 -430h-137l61 307h211z" />
    <glyph glyph-name="dotlessj" unicode="&#x237;" horiz-adv-x="507" 
d="M152 -178v1202h204v-1206q0 -330 -327 -330q-71 0 -103 8v187q40 -7 76 -7q74 0 112 32t38 114z" />
    <glyph glyph-name="uni02BC" unicode="&#x2bc;" horiz-adv-x="403" 
d="M338 1403q0 -138 -139 -350h-117q87 145 117 245q-51 1 -88 39t-37 88q0 53 38 91t91 38q58 0 96.5 -42t38.5 -109z" />
    <glyph glyph-name="circumflex" unicode="&#x2c6;" horiz-adv-x="1024" 
d="M356 1229h-170l213 307h226l213 -307h-170l-156 178z" />
    <glyph glyph-name="caron" unicode="&#x2c7;" horiz-adv-x="1024" 
d="M838 1536l-213 -307h-226l-213 307h170l156 -178l156 178h170z" />
    <glyph glyph-name="breve" unicode="&#x2d8;" horiz-adv-x="1024" 
d="M659 1536h162q0 -143 -84.5 -225t-224.5 -82q-139 0 -223 82t-84 225h162q0 -81 41 -120.5t104 -39.5q67 0 107 39t40 121z" />
    <glyph glyph-name="dotaccent" unicode="&#x2d9;" horiz-adv-x="1024" 
d="M512 1247q-58 0 -96.5 39t-38.5 96q0 59 38.5 97.5t96.5 38.5q60 0 97.5 -38.5t37.5 -97.5q0 -58 -38 -96.5t-97 -38.5z" />
    <glyph glyph-name="ring" unicode="&#x2da;" horiz-adv-x="1024" 
d="M512 1167q-94 0 -153.5 56t-59.5 139q0 81 60 137.5t153 56.5q95 0 155 -56.5t60 -137.5q0 -83 -60 -139t-155 -56zM512 1274q40 0 66 25t26 63t-26 63t-66 25q-37 0 -63.5 -25t-26.5 -63t26.5 -63t63.5 -25z" />
    <glyph glyph-name="ogonek" unicode="&#x2db;" horiz-adv-x="1024" 
d="M504 -520q-106 0 -170 48t-64 130q0 32 9 63.5t34 72.5t39 61.5t56 75.5l53 69h125q-95 -127 -131.5 -199.5t-36.5 -124.5q0 -42 25 -62t65 -20t65 20.5t31 57.5h150q0 -86 -69 -139t-181 -53z" />
    <glyph glyph-name="tilde" unicode="&#x2dc;" horiz-adv-x="1024" 
d="M176 1233v102q0 197 168 197q45 0 90.5 -21.5t76.5 -48t67.5 -48t64.5 -21.5q66 0 66 80v55h139v-103q0 -196 -168 -196q-45 0 -90.5 21.5t-76.5 48t-67.5 48t-64.5 21.5q-66 0 -66 -80v-55h-139z" />
    <glyph glyph-name="hungarumlaut" unicode="&#x2dd;" horiz-adv-x="1024" 
d="M408 1229h-138l62 307h211zM776 1229h-137l61 307h211z" />
    <glyph glyph-name="Delta" unicode="&#x394;" horiz-adv-x="1044" 
d="M25 0l344 1536h307l344 -1536h-995zM272 188h500l-250 1184z" />
    <glyph glyph-name="Omega" unicode="&#x3a9;" horiz-adv-x="1167" 
d="M1036 0h-411v180q115 53 160.5 135t45.5 238v479q0 178 -62.5 257t-184.5 79q-121 0 -184.5 -79t-63.5 -257v-479q0 -156 45.5 -238t161.5 -135v-180h-412v180h156q-156 102 -156 373v479q0 258 118.5 391t334.5 133t334 -132.5t118 -391.5v-479q0 -272 -155 -373h155
v-180z" />
    <glyph glyph-name="mu" unicode="&#x3bc;" horiz-adv-x="1196" 
d="M354 -512h-204v1536h204v-555q0 -151 64 -230t180 -79q114 0 178 79t64 230v555h204v-1024h-204v164q-47 -90 -125.5 -137t-179.5 -47q-106 0 -181 38v-530z" />
    <glyph glyph-name="pi" unicode="&#x3c0;" horiz-adv-x="1320" 
d="M133 844v180h1106v-180h-205v-844h-205v844h-272l-186 -844h-205l186 844h-219z" />
    <glyph glyph-name="afii10023" unicode="&#x401;" horiz-adv-x="929" 
d="M301 1714q-49 0 -84 35t-35 84t35 84t84 35q51 0 85 -34.5t34 -84.5t-34 -84.5t-85 -34.5zM711 1714q-49 0 -84 35t-35 84t35 84t84 35q51 0 84.5 -34.5t33.5 -84.5t-33.5 -84.5t-84.5 -34.5zM152 0v1536h688v-188h-484v-463h443v-189h-443v-508h484v-188h-688z" />
    <glyph glyph-name="afii10051" unicode="&#x402;" horiz-adv-x="1261" 
d="M852 1348h-352v-453q98 31 209 31q222 0 317.5 -103.5t95.5 -328.5v-385q0 -367 -354 -367q-23 0 -46 2t-36 4l-14 2v187q14 -7 73 -7q79 0 126 38.5t47 144.5v379q0 129 -53.5 187t-178.5 58q-120 0 -186 -28v-709h-205v1348h-275v188h832v-188z" />
    <glyph glyph-name="afii10052" unicode="&#x403;" horiz-adv-x="888" 
d="M588 1679h-170l131 308h227zM152 0v1536h679v-188h-475v-1348h-204z" />
    <glyph glyph-name="afii10053" unicode="&#x404;" horiz-adv-x="1167" 
d="M1036 504q0 -259 -118 -391.5t-334 -132.5t-334.5 133t-118.5 391v528q0 258 118.5 391t334.5 133t334 -132.5t118 -391.5v-28h-205v28q0 178 -62.5 257t-184.5 79q-121 0 -184.5 -79t-63.5 -257v-147h426v-189h-426v-192q0 -178 63 -257t185 -79q121 0 184 79t63 257v49
h205v-49z" />
    <glyph glyph-name="afii10054" unicode="&#x405;" horiz-adv-x="993" 
d="M113 1180q0 190 107.5 283t279.5 93q173 0 282 -105t109 -304v-94h-205v88q0 115 -48.5 171t-137.5 56q-84 0 -133.5 -49t-49.5 -139q0 -83 46.5 -141.5t134.5 -118.5l166 -119q76 -54 127 -106t86.5 -131.5t35.5 -174.5q0 -197 -116 -303t-295 -106q-177 0 -294.5 109
t-117.5 300v115h205v-101q0 -108 56.5 -171.5t150.5 -63.5q96 0 151.5 52.5t55.5 144.5q0 88 -47.5 153.5t-135.5 126.5l-161 113q-119 82 -185.5 181t-66.5 241z" />
    <glyph glyph-name="afii10055" unicode="&#x406;" horiz-adv-x="507" 
d="M356 0h-204v1536h204v-1536z" />
    <glyph glyph-name="afii10056" unicode="&#x407;" horiz-adv-x="507" 
d="M49 1714q-49 0 -84 35t-35 84t35 84t84 35q51 0 85 -34.5t34 -84.5t-34 -84.5t-85 -34.5zM459 1714q-49 0 -84 35t-35 84t35 84t84 35q51 0 85 -34.5t34 -84.5t-34 -84.5t-85 -34.5zM356 0h-204v1536h204v-1536z" />
    <glyph glyph-name="afii10057" unicode="&#x408;" horiz-adv-x="1036" 
d="M700 1536h205v-1130q0 -104 -31.5 -186t-87.5 -134t-130 -79t-162 -27q-118 0 -209.5 46t-147 144t-55.5 236v131h205v-115q0 -254 207 -254q206 0 206 254v1114z" />
    <glyph glyph-name="afii10058" unicode="&#x409;" horiz-adv-x="1675" 
d="M1622 459q0 -203 -122.5 -331t-338.5 -128h-403v1348h-336q-3 -782 -39 -1039q-23 -172 -90.5 -240.5t-210.5 -68.5h-31v188h12q56 0 85.5 33t48.5 101q21 88 28.5 374.5t7.5 839.5h730v-553h198q218 0 339.5 -120.5t121.5 -325.5v-78zM1130 795h-167v-607h167
q152 0 219.5 73t67.5 218v37q0 137 -67.5 208t-219.5 71z" />
    <glyph glyph-name="afii10059" unicode="&#x40a;" horiz-adv-x="1708" 
d="M1655 432q0 -199 -122 -315.5t-339 -116.5h-399v741h-439v-741h-204v1536h204v-606h439v606h204v-606h195q220 0 340.5 -109.5t120.5 -310.5v-78zM1163 741h-164v-553h164q154 0 220.5 63t66.5 202v36q0 133 -66.5 192.5t-220.5 59.5z" />
    <glyph glyph-name="afii10060" unicode="&#x40b;" horiz-adv-x="1261" 
d="M852 1348h-352v-453q98 31 209 31q222 0 317.5 -103.5t95.5 -328.5v-494h-204v492q0 129 -53.5 187t-178.5 58q-120 0 -186 -28v-709h-205v1348h-275v188h832v-188z" />
    <glyph glyph-name="afii10061" unicode="&#x40c;" horiz-adv-x="1062" 
d="M649 1679h-170l131 308h228zM809 0l-453 756v-756h-204v1536h204v-748l449 748h225l-461 -735l486 -801h-246z" />
    <glyph glyph-name="afii10062" unicode="&#x40e;" horiz-adv-x="999" 
d="M655 1987h164q0 -143 -84.5 -225.5t-224.5 -82.5q-138 0 -222.5 82.5t-84.5 225.5h164q0 -81 40.5 -121.5t102.5 -40.5q66 0 105.5 40t39.5 122zM651 391q-30 -106 -59 -176t-70 -126.5t-96.5 -82.5t-130.5 -26q-81 0 -152 22v182q60 -16 115 -16q57 0 94.5 22t67.5 78
l-402 1268h211l285 -979l260 979h207z" />
    <glyph glyph-name="afii10145" unicode="&#x40f;" horiz-adv-x="1196" 
d="M1044 1536v-1536h-352v-276h-188v276h-352v1536h204v-1348h484v1348h204z" />
    <glyph glyph-name="afii10017" unicode="&#x410;" horiz-adv-x="1044" 
d="M25 0l344 1536h307l344 -1536h-207l-80 377h-422l-80 -377h-206zM352 565h340l-170 807z" />
    <glyph glyph-name="afii10018" unicode="&#x411;" horiz-adv-x="1085" 
d="M152 0v1536h747v-188h-543v-422h213q197 0 313.5 -107t116.5 -319v-78q0 -216 -115 -319t-315 -103h-417zM543 737h-187v-549h191q130 0 189 62.5t59 195.5v35q0 133 -59.5 194.5t-192.5 61.5z" />
    <glyph glyph-name="afii10019" unicode="&#x412;" 
d="M152 0v1536h419q194 0 309 -98t115 -279v-20q0 -224 -196 -310q111 -43 174 -133.5t63 -224.5v-41q0 -205 -115.5 -317.5t-308.5 -112.5h-460zM551 1348h-195v-449h199q236 0 236 223v21q0 205 -240 205zM592 713h-236v-525h236q239 0 239 261v20q0 128 -61 186t-178 58z
" />
    <glyph glyph-name="afii10020" unicode="&#x413;" horiz-adv-x="888" 
d="M152 0v1536h679v-188h-475v-1348h-204z" />
    <glyph glyph-name="afii10021" unicode="&#x414;" horiz-adv-x="1255" 
d="M1008 -276v276h-791v-276h-188v464h108q45 87 68 212.5t33.5 393t7.5 742.5h807v-1348h143v-464h-188zM389 381q-23 -127 -57 -193h516v1160h-414q-1 -422 -11 -631.5t-34 -335.5z" />
    <glyph glyph-name="afii10022" unicode="&#x415;" horiz-adv-x="929" 
d="M152 0v1536h688v-188h-484v-463h443v-189h-443v-508h484v-188h-688z" />
    <glyph glyph-name="afii10024" unicode="&#x416;" horiz-adv-x="1515" 
d="M659 0v750l-409 -750h-242l445 795l-430 741h229l407 -741v741h205v-745l410 745h219l-428 -743l442 -793h-231l-412 754v-754h-205z" />
    <glyph glyph-name="afii10025" unicode="&#x417;" horiz-adv-x="1060" 
d="M971 418q0 -113 -33.5 -198.5t-94 -137t-138 -77t-170.5 -25.5t-171 25.5t-140 77t-97 137.5t-35 198v98h205v-82q0 -133 66 -199.5t172 -66.5q231 0 231 262v16q0 128 -50 189t-165 61h-137v189h129q182 0 182 241v15q0 110 -51.5 168.5t-145.5 58.5q-101 0 -158 -56.5
t-57 -178.5v-62h-204v68q0 103 33.5 184t92 131t133 76t160.5 26q82 0 152.5 -22.5t127.5 -68t89.5 -122t32.5 -176.5v-20q0 -112 -42 -195.5t-116 -130.5q94 -49 146.5 -142t52.5 -224v-37z" />
    <glyph glyph-name="afii10026" unicode="&#x418;" horiz-adv-x="1208" 
d="M451 0l-111 2v-2h-188v1536h188v-1341l418 1341l110 -2v2h189v-1536h-189v1341z" />
    <glyph glyph-name="afii10027" unicode="&#x419;" horiz-adv-x="1208" 
d="M756 1987h164q0 -143 -85 -225.5t-225 -82.5q-138 0 -222.5 82.5t-84.5 225.5h164q0 -81 40.5 -121.5t102.5 -40.5q66 0 106 40t40 122zM451 0l-111 2v-2h-188v1536h188v-1341l418 1341l110 -2v2h189v-1536h-189v1341z" />
    <glyph glyph-name="afii10028" unicode="&#x41a;" horiz-adv-x="1062" 
d="M809 0l-453 756v-756h-204v1536h204v-748l449 748h225l-461 -735l486 -801h-246z" />
    <glyph glyph-name="afii10029" unicode="&#x41b;" horiz-adv-x="1187" 
d="M197 322q21 88 28.5 374.5t7.5 839.5h803v-1536h-205v1348h-409q-3 -782 -39 -1039q-23 -172 -90.5 -240.5t-210.5 -68.5h-31v188h12q56 0 85.5 33t48.5 101z" />
    <glyph glyph-name="afii10030" unicode="&#x41c;" horiz-adv-x="1564" 
d="M1208 0v1382l-311 -1382h-248l-309 1389v-1389h-188v1536h350l280 -1266l275 1266h356v-1536h-205z" />
    <glyph glyph-name="afii10031" unicode="&#x41d;" horiz-adv-x="1208" 
d="M852 0v696h-496v-696h-204v1536h204v-651h496v651h205v-1536h-205z" />
    <glyph glyph-name="afii10032" unicode="&#x41e;" horiz-adv-x="1167" 
d="M584 -20q-216 0 -334.5 132t-118.5 392v528q0 258 118.5 391t334.5 133t334 -132.5t118 -391.5v-528q0 -260 -118 -392t-334 -132zM584 168q121 0 184 78.5t63 257.5v528q0 178 -62.5 257t-184.5 79q-121 0 -184.5 -79t-63.5 -257v-528q0 -179 63 -257.5t185 -78.5z" />
    <glyph glyph-name="afii10033" unicode="&#x41f;" horiz-adv-x="1196" 
d="M152 0v1536h892v-1536h-204v1348h-484v-1348h-204z" />
    <glyph glyph-name="afii10034" unicode="&#x420;" horiz-adv-x="1085" 
d="M152 0v1536h444q191 0 307.5 -107t116.5 -303v-110q0 -204 -116.5 -317t-307.5 -113h-240v-586h-204zM575 1348h-219v-574h219q240 0 240 262v70q0 242 -240 242z" />
    <glyph glyph-name="afii10035" unicode="&#x421;" horiz-adv-x="1167" 
d="M831 586h205v-82q0 -259 -118 -391.5t-334 -132.5t-334.5 133t-118.5 391v528q0 258 118.5 391t334.5 133t334 -132.5t118 -391.5v-61h-205v61q0 178 -62.5 257t-184.5 79q-121 0 -184.5 -79t-63.5 -257v-528q0 -178 63 -257t185 -79q121 0 184 79t63 257v82z" />
    <glyph glyph-name="afii10036" unicode="&#x422;" horiz-adv-x="888" 
d="M20 1348v188h848v-188h-321v-1348h-205v1348h-322z" />
    <glyph glyph-name="afii10037" unicode="&#x423;" horiz-adv-x="999" 
d="M651 391q-30 -106 -59 -176t-70 -126.5t-96.5 -82.5t-130.5 -26q-81 0 -152 22v182q60 -16 115 -16q57 0 94.5 22t67.5 78l-402 1268h211l285 -979l260 979h207z" />
    <glyph glyph-name="afii10038" unicode="&#x424;" horiz-adv-x="1456" 
d="M885 125h-56v-145h-204v145h-54q-121 0 -211 39t-143.5 110.5t-79.5 164.5t-26 208v250q0 249 119.5 382.5t342.5 133.5h52v143h204v-143h54q223 0 343 -133.5t120 -382.5v-250q0 -115 -26 -208t-80 -164.5t-144 -110.5t-211 -39zM879 1233h-50v-930h58q254 0 254 332
v270q0 94 -19.5 160t-57 102t-82 51t-103.5 15zM567 303h58v930h-50q-58 0 -102.5 -15t-81.5 -51t-56.5 -102t-19.5 -160v-270q0 -332 252 -332z" />
    <glyph glyph-name="afii10039" unicode="&#x425;" horiz-adv-x="1003" 
d="M770 0l-268 612l-269 -612h-223l375 788l-352 748h221l248 -573l248 573h221l-353 -748l375 -788h-223z" />
    <glyph glyph-name="afii10040" unicode="&#x426;" horiz-adv-x="1247" 
d="M356 1536v-1348h484v1348h204v-1348h144v-464h-189v276h-847v1536h204z" />
    <glyph glyph-name="afii10041" unicode="&#x427;" horiz-adv-x="1134" 
d="M588 788q124 0 190 25v723h205v-1536h-205v629q-92 -29 -217 -29q-236 0 -349.5 108.5t-113.5 356.5v471h205v-471q0 -154 72 -215.5t213 -61.5z" />
    <glyph glyph-name="afii10042" unicode="&#x428;" horiz-adv-x="1785" 
d="M1634 1536v-1536h-1482v1536h204v-1348h435v1348h204v-1348h435v1348h204z" />
    <glyph glyph-name="afii10043" unicode="&#x429;" horiz-adv-x="1837" 
d="M995 1536v-1348h435v1348h204v-1348h144v-464h-189v276h-1437v1536h204v-1348h435v1348h204z" />
    <glyph glyph-name="afii10044" unicode="&#x42a;" horiz-adv-x="1224" 
d="M20 1348v188h480v-553h198q217 0 339 -120.5t122 -325.5v-78q0 -203 -123 -331t-338 -128h-403v1348h-275zM668 795h-168v-607h168q151 0 218.5 73.5t67.5 217.5v37q0 137 -68 208t-218 71z" />
    <glyph glyph-name="afii10045" unicode="&#x42b;" horiz-adv-x="1542" 
d="M1016 459q0 -203 -123 -331t-338 -128h-403v1536h204v-553h199q217 0 339 -120.5t122 -325.5v-78zM1391 0h-205v1536h205v-1536zM524 795h-168v-607h168q151 0 219 73.5t68 217.5v37q0 137 -68 208t-219 71z" />
    <glyph glyph-name="afii10046" unicode="&#x42c;" horiz-adv-x="1064" 
d="M1016 459q0 -203 -123 -331t-338 -128h-403v1536h204v-553h199q217 0 339 -120.5t122 -325.5v-78zM524 795h-168v-607h168q151 0 219 73.5t68 217.5v37q0 137 -68 208t-219 71z" />
    <glyph glyph-name="afii10047" unicode="&#x42d;" horiz-adv-x="1167" 
d="M1036 504q0 -259 -118 -391.5t-334 -132.5t-334.5 133t-118.5 391v49h205v-49q0 -178 63.5 -257t184.5 -79q122 0 184.5 79t62.5 257v192h-409v189h409v147q0 178 -63 257t-184 79q-122 0 -185 -79t-63 -257v-28h-205v28q0 258 118.5 391t334.5 133t334 -132.5
t118 -391.5v-528z" />
    <glyph glyph-name="afii10048" unicode="&#x42e;" horiz-adv-x="1556" 
d="M1425 504q0 -258 -116.5 -391t-327.5 -133t-327.5 133t-116.5 391v192h-181v-696h-204v1536h204v-651h181v147q0 258 116.5 391t327.5 133t327.5 -133t116.5 -391v-528zM981 168q118 0 179 79t61 257v528q0 178 -61 257t-179 79t-179 -79t-61 -257v-528q0 -178 61 -257
t179 -79z" />
    <glyph glyph-name="afii10049" unicode="&#x42f;" 
d="M96 1130q0 193 118 299.5t310 106.5h451v-1536h-205v719l-483 -719h-238l461 664q-186 9 -300 112t-114 293v61zM545 831h225v517h-225q-244 0 -244 -238v-20q0 -259 244 -259z" />
    <glyph glyph-name="afii10065" unicode="&#x430;" 
d="M793 0v172q-49 -97 -140 -144.5t-207 -47.5q-95 0 -171.5 29t-126.5 96.5t-50 164.5q0 90 38 151.5t99 91.5t134.5 47.5t147 27t134.5 22t99 40.5t38 75q0 73 -62 114.5t-159 41.5q-103 0 -164 -52t-61 -149h-213q0 77 24 139t65 103.5t97.5 69t119 40t132.5 12.5
q86 0 160 -18t135 -55.5t96 -102.5t35 -151v-717h-200zM307 283q0 -64 49.5 -97.5t130.5 -33.5q127 0 216.5 71.5t89.5 198.5v74q-45 -22 -116 -37.5t-131 -25t-116.5 -25t-89.5 -46t-33 -79.5z" />
    <glyph glyph-name="afii10066" unicode="&#x431;" horiz-adv-x="1196" 
d="M1120 504q0 -230 -147.5 -377t-370.5 -147q-145 0 -263.5 66t-186.5 185t-68 269v362q0 149 28 252t88.5 168.5t143.5 100.5t207 53l248 34q49 7 67.5 23.5t20.5 42.5h205q-3 -125 -67 -175.5t-232 -72.5l-224 -33q-167 -23 -228.5 -102t-61.5 -276v-39q47 88 140.5 139
t221.5 51q96 0 183.5 -39t153 -107t104 -166.5t38.5 -211.5zM602 168q138 0 225.5 94t87.5 242q0 147 -87.5 241.5t-225.5 94.5q-137 0 -225 -93.5t-88 -242.5q0 -150 88 -243t225 -93z" />
    <glyph glyph-name="afii10067" unicode="&#x432;" horiz-adv-x="1134" 
d="M152 0v1024h507q146 0 232 -68t86 -198q0 -156 -141 -215q87 -29 135.5 -91.5t48.5 -156.5q0 -145 -90.5 -220t-253.5 -75h-524zM600 868h-252v-266h252q180 0 180 133q0 69 -42.5 101t-137.5 32zM641 446h-293v-290h293q86 0 130 37t44 108t-44 108t-130 37z" />
    <glyph glyph-name="afii10068" unicode="&#x433;" horiz-adv-x="874" 
d="M152 0v1024h673v-188h-469v-836h-204z" />
    <glyph glyph-name="afii10069" unicode="&#x434;" horiz-adv-x="1222" 
d="M977 -276v276h-752v-276h-188v464h100q46 86 69.5 256t26.5 580h789v-836h143v-464h-188zM397 432q-22 -166 -53 -244h473v648h-397q-3 -248 -23 -404z" />
    <glyph glyph-name="afii10070" unicode="&#x435;" horiz-adv-x="1159" 
d="M1083 512q0 -24 -4 -70h-803q19 -134 101 -208t211 -74q182 0 248 147h221q-47 -157 -172.5 -242t-304.5 -85q-219 0 -361.5 149t-142.5 383t142.5 383t361.5 149t361 -149t142 -383zM580 864q-124 0 -203 -72.5t-98 -201.5h602q-19 129 -98.5 201.5t-202.5 72.5z" />
    <glyph glyph-name="afii10072" unicode="&#x436;" horiz-adv-x="1652" 
d="M727 0v535l-444 -535h-258l477 557l-441 467h273l393 -451v451h205v-453l395 453h262l-430 -467l469 -557h-252l-444 539v-539h-205z" />
    <glyph glyph-name="afii10073" unicode="&#x437;" horiz-adv-x="1042" 
d="M567 444h-161v154h161q172 0 172 137q0 67 -53 106.5t-156 39.5q-112 0 -172.5 -53.5t-60.5 -151.5h-205q0 159 115 263.5t323 104.5q195 0 300.5 -82.5t105.5 -209.5q0 -77 -39.5 -138.5t-112.5 -93.5q177 -60 177 -231q0 -146 -111 -227.5t-320 -81.5q-216 0 -335 99.5
t-119 282.5h205q0 -106 63.5 -163.5t187.5 -57.5q114 0 169 42t55 112q0 71 -50 110t-139 39z" />
    <glyph glyph-name="afii10074" unicode="&#x438;" horiz-adv-x="1228" 
d="M348 1024v-817l469 817h260v-1024h-196v817l-469 -817h-260v1024h196z" />
    <glyph glyph-name="afii10075" unicode="&#x439;" horiz-adv-x="1228" 
d="M756 1536h164q0 -143 -85 -225t-225 -82q-139 0 -223 82t-84 225h164q0 -81 40.5 -121.5t102.5 -40.5q66 0 106 40t40 122zM348 1024v-817l469 817h260v-1024h-196v817l-469 -817h-260v1024h196z" />
    <glyph glyph-name="afii10076" unicode="&#x43a;" horiz-adv-x="1130" 
d="M846 0l-490 539v-539h-204v1024h204v-455l441 455h272l-481 -467l518 -557h-260z" />
    <glyph glyph-name="afii10077" unicode="&#x43b;" horiz-adv-x="1138" 
d="M188 299q38 135 41 725h758v-1024h-205v836h-366q-6 -336 -31 -512q-31 -185 -99.5 -254.5t-197.5 -69.5h-37v188h17q92 0 120 111z" />
    <glyph glyph-name="afii10078" unicode="&#x43c;" horiz-adv-x="1497" 
d="M1141 0v885l-287 -885h-229l-285 885v-885h-188v1024h346l254 -844l254 844h340v-1024h-205z" />
    <glyph glyph-name="afii10079" unicode="&#x43d;" horiz-adv-x="1204" 
d="M848 0v424h-492v-424h-204v1024h204v-414h492v414h205v-1024h-205z" />
    <glyph glyph-name="afii10080" unicode="&#x43e;" horiz-adv-x="1187" 
d="M594 -20q-224 0 -371 149.5t-147 382.5t147 382.5t371 149.5t371 -149.5t147 -382.5t-147 -382.5t-371 -149.5zM594 168q135 0 224 95.5t89 248.5t-89 248.5t-224 95.5t-224 -95.5t-89 -248.5t89 -248.5t224 -95.5z" />
    <glyph glyph-name="afii10081" unicode="&#x43f;" horiz-adv-x="1177" 
d="M152 0v1024h872v-1024h-205v836h-463v-836h-204z" />
    <glyph glyph-name="afii10082" unicode="&#x440;" horiz-adv-x="1259" 
d="M692 -20q-102 0 -188.5 45.5t-147.5 128.5v-666h-204v1536h204v-154q61 83 147.5 128.5t188.5 45.5q212 0 352 -149.5t140 -382.5t-140 -382.5t-352 -149.5zM668 168q135 0 223 95.5t88 248.5t-88 248.5t-223 95.5t-223.5 -95.5t-88.5 -248.5t88.5 -248.5t223.5 -95.5z
" />
    <glyph glyph-name="afii10083" unicode="&#x441;" horiz-adv-x="1171" 
d="M879 616q-15 113 -96.5 176.5t-196.5 63.5q-132 0 -218.5 -95.5t-86.5 -248.5t86.5 -248.5t218.5 -95.5q117 0 199.5 69t97.5 193h213q-12 -201 -155.5 -325.5t-354.5 -124.5q-221 0 -365.5 149.5t-144.5 382.5t144.5 382.5t365.5 149.5q204 0 345.5 -118.5t160.5 -309.5
h-213z" />
    <glyph glyph-name="afii10084" unicode="&#x442;" horiz-adv-x="942" 
d="M37 836v188h868v-188h-332v-836h-204v836h-332z" />
    <glyph glyph-name="afii10085" unicode="&#x443;" horiz-adv-x="1026" 
d="M610 -115q-28 -80 -54.5 -137.5t-64 -112.5t-81 -88.5t-104 -54t-134.5 -20.5q-82 0 -154 22v180q72 -22 136 -22q94 0 153.5 55.5t110.5 179.5l-406 1137h205l297 -858l295 858h205z" />
    <glyph glyph-name="afii10086" unicode="&#x444;" horiz-adv-x="1433" 
d="M281 512q0 -155 91.5 -245.5t241.5 -98.5v688q-150 -8 -241.5 -98.5t-91.5 -245.5zM1153 512q0 155 -92 245.5t-242 98.5v-688q150 8 242 98.5t92 245.5zM614 1536h205v-492q238 -8 388.5 -152.5t150.5 -379.5t-150.5 -379.5t-388.5 -152.5v-492h-205v492
q-238 8 -388 152.5t-150 379.5t150 379.5t388 152.5v492z" />
    <glyph glyph-name="afii10087" unicode="&#x445;" horiz-adv-x="1064" 
d="M817 0l-295 379l-274 -379h-240l402 530l-381 494h239l271 -348l258 348h239l-381 -500l402 -524h-240z" />
    <glyph glyph-name="afii10088" unicode="&#x446;" horiz-adv-x="1226" 
d="M356 1024v-836h463v836h205v-836h143v-464h-188v276h-827v1024h204z" />
    <glyph glyph-name="afii10089" unicode="&#x447;" horiz-adv-x="1116" 
d="M561 541q40 0 77.5 3.5t57.5 7t42 8.5t24 5v459h205v-1024h-205v381q-125 -29 -217 -29q-229 0 -339 105t-110 334v233h205v-231q0 -134 65 -193t195 -59z" />
    <glyph glyph-name="afii10090" unicode="&#x448;" horiz-adv-x="1695" 
d="M1544 1024v-1024h-1392v1024h221v-836h372v836h205v-836h389v836h205z" />
    <glyph glyph-name="afii10091" unicode="&#x449;" horiz-adv-x="1746" 
d="M1499 -276v276h-1347v1024h221v-836h372v836h205v-836h389v836h205v-836h144v-464h-189z" />
    <glyph glyph-name="afii10092" unicode="&#x44a;" horiz-adv-x="1206" 
d="M37 836v188h481v-338h227q183 0 288.5 -94t105.5 -248q0 -156 -101.5 -250t-289.5 -94h-435v836h-276zM729 514h-211v-342h211q205 0 205 174q0 168 -205 168z" />
    <glyph glyph-name="afii10093" unicode="&#x44b;" horiz-adv-x="1488" 
d="M977 344q0 -156 -101.5 -250t-289.5 -94h-434v1024h204v-338h228q183 0 288 -93.5t105 -248.5zM1337 0h-204v1024h204v-1024zM567 514h-211v-342h211q205 0 205 174q0 168 -205 168z" />
    <glyph glyph-name="afii10094" unicode="&#x44c;" horiz-adv-x="1044" 
d="M977 344q0 -156 -101.5 -250t-289.5 -94h-434v1024h204v-338h228q183 0 288 -93.5t105 -248.5zM567 514h-211v-342h211q205 0 205 174q0 168 -205 168z" />
    <glyph glyph-name="afii10095" unicode="&#x44d;" horiz-adv-x="1171" 
d="M1096 512q0 -233 -145 -382.5t-365 -149.5q-140 0 -253.5 55.5t-181.5 158.5t-75 236h211q16 -133 97 -197.5t202 -64.5q118 0 198.5 70t100.5 198h-441v156h441q-21 126 -101.5 195t-197.5 69q-120 0 -199.5 -58.5t-93.5 -181.5h-215q20 191 161.5 309.5t346.5 118.5
q220 0 365 -149.5t145 -382.5z" />
    <glyph glyph-name="afii10096" unicode="&#x44e;" horiz-adv-x="1630" 
d="M1554 512q0 -233 -146.5 -382.5t-369.5 -149.5q-200 0 -341 122.5t-169 321.5h-172v-424h-204v1024h204v-414h174q31 195 171 314.5t337 119.5q223 0 369.5 -149.5t146.5 -382.5zM1038 168q135 0 223.5 95.5t88.5 248.5t-88.5 248.5t-223.5 95.5t-223 -95.5t-88 -248.5
t88 -248.5t223 -95.5z" />
    <glyph glyph-name="afii10097" unicode="&#x44f;" horiz-adv-x="1114" 
d="M145 713q0 81 29.5 142t82.5 97.5t119.5 54t145.5 17.5h441v-1024h-205v449h-2l-443 -449h-239l401 397q-138 8 -234 91t-96 225zM557 543h201v325h-201q-98 0 -152.5 -40t-54.5 -117q0 -168 207 -168z" />
    <glyph glyph-name="afii10071" unicode="&#x451;" horiz-adv-x="1159" 
d="M375 1264q-50 0 -84.5 34.5t-34.5 83.5q0 50 35 84.5t84 34.5q51 0 85 -34.5t34 -84.5t-34 -84t-85 -34zM784 1264q-50 0 -84 34t-34 84t34.5 84.5t83.5 34.5q51 0 85 -34.5t34 -84.5t-34 -84t-85 -34zM1083 512q0 -24 -4 -70h-803q19 -134 101 -208t211 -74
q182 0 248 147h221q-47 -157 -172.5 -242t-304.5 -85q-219 0 -361.5 149t-142.5 383t142.5 383t361.5 149t361 -149t142 -383zM580 864q-124 0 -203 -72.5t-98 -201.5h602q-19 129 -98.5 201.5t-202.5 72.5z" />
    <glyph glyph-name="afii10099" unicode="&#x452;" horiz-adv-x="1198" 
d="M729 -512q-70 0 -102 8v187q40 -7 75 -7q75 0 112.5 31.5t37.5 114.5v737q0 150 -65 227.5t-183 77.5t-183 -77.5t-65 -227.5v-559h-204v1229h-152v123h152v184h204v-184h297v-123h-297v-373q47 93 127.5 140.5t184.5 47.5q175 0 282 -113t107 -331v-782
q0 -330 -328 -330z" />
    <glyph glyph-name="afii10100" unicode="&#x453;" horiz-adv-x="874" 
d="M532 1229h-170l132 307h227zM152 0v1024h673v-188h-469v-836h-204z" />
    <glyph glyph-name="afii10101" unicode="&#x454;" horiz-adv-x="1171" 
d="M1096 430q-12 -201 -155.5 -325.5t-354.5 -124.5q-221 0 -365.5 149.5t-144.5 382.5t144.5 382.5t365.5 149.5q204 0 345.5 -118.5t160.5 -309.5h-213q-18 121 -97 180.5t-196 59.5q-118 0 -198.5 -69t-100.5 -197h440v-154h-440q20 -128 100.5 -198t198.5 -70t198.5 66
t98.5 196h213z" />
    <glyph glyph-name="afii10102" unicode="&#x455;" horiz-adv-x="1032" 
d="M942 289q0 -142 -114 -225.5t-296 -83.5q-194 0 -318 93.5t-124 256.5h213q0 -91 63.5 -140t165.5 -49q95 0 147 36t52 104q0 44 -26.5 74t-70 44.5t-99.5 28t-114 23t-114 31t-99.5 50.5t-70 83t-26.5 128q0 137 111 219t280 82q179 0 299.5 -96t120.5 -237h-213
q0 73 -59 121.5t-148 48.5q-84 0 -134.5 -34t-50.5 -95q0 -40 27 -68t71 -41.5t100 -26.5t114.5 -23.5t114.5 -33t100 -53.5t71 -86.5t27 -130.5z" />
    <glyph glyph-name="afii10103" unicode="&#x456;" horiz-adv-x="507" 
d="M254 1247q-58 0 -96.5 39t-38.5 98t38.5 97.5t96.5 38.5q60 0 97.5 -38.5t37.5 -97.5t-38 -98t-97 -39zM356 0h-204v1024h204v-1024z" />
    <glyph glyph-name="afii10104" unicode="&#x457;" horiz-adv-x="507" 
d="M127 1245q-50 0 -81.5 39t-31.5 98q0 61 31.5 100.5t81.5 39.5q52 0 83.5 -39.5t31.5 -100.5q0 -59 -31.5 -98t-83.5 -39zM414 1245q-51 0 -83 39t-32 98q0 60 32 100t83 40t81.5 -39.5t30.5 -100.5q0 -60 -30.5 -98.5t-81.5 -38.5zM356 0h-204v1024h204v-1024z" />
    <glyph glyph-name="afii10105" unicode="&#x458;" horiz-adv-x="507" 
d="M254 1247q-58 0 -96.5 39t-38.5 98t38.5 97.5t96.5 38.5q60 0 97.5 -38.5t37.5 -97.5t-38 -98t-97 -39zM152 -178v1202h204v-1206q0 -330 -327 -330q-71 0 -103 8v187q40 -7 76 -7q74 0 112 32t38 114z" />
    <glyph glyph-name="afii10106" unicode="&#x459;" horiz-adv-x="1615" 
d="M1550 344q0 -156 -102 -250t-291 -94h-420v836h-321q-6 -338 -31 -514q-28 -184 -97.5 -253t-199.5 -69h-37v188h17q92 0 120 111q38 135 41 725h713v-338h215q182 0 287.5 -94t105.5 -248zM1139 514h-197v-342h197q103 0 155 45t52 129q0 168 -207 168z" />
    <glyph glyph-name="afii10107" unicode="&#x45a;" horiz-adv-x="1660" 
d="M1595 330q0 -149 -96.5 -239.5t-275.5 -90.5h-449v469h-418v-469h-204v1024h204v-367h418v367h205v-367h242q180 0 277 -88.5t97 -238.5zM1202 485h-223v-313h223q94 0 141.5 42t47.5 118q0 153 -189 153z" />
    <glyph glyph-name="afii10108" unicode="&#x45b;" horiz-adv-x="1198" 
d="M356 559v-559h-204v1229h-152v123h152v184h204v-184h297v-123h-297v-367q47 88 128.5 135t183.5 47q175 0 282 -113t107 -331v-600h-205v559q0 150 -65 227.5t-183 77.5t-183 -77.5t-65 -227.5z" />
    <glyph glyph-name="afii10109" unicode="&#x45c;" horiz-adv-x="1130" 
d="M653 1229h-170l131 307h228zM846 0l-490 539v-539h-204v1024h204v-455l441 455h272l-481 -467l518 -557h-260z" />
    <glyph glyph-name="afii10110" unicode="&#x45e;" horiz-adv-x="1026" 
d="M643 1536h164q0 -143 -84.5 -225t-224.5 -82q-139 0 -223.5 82t-84.5 225h164q0 -81 41 -121.5t103 -40.5q66 0 105.5 40t39.5 122zM610 -115q-28 -80 -54.5 -137.5t-64 -112.5t-81 -88.5t-104 -54t-134.5 -20.5q-82 0 -154 22v180q72 -22 136 -22q94 0 153.5 55.5
t110.5 179.5l-406 1137h205l297 -858l295 858h205z" />
    <glyph glyph-name="afii10193" unicode="&#x45f;" horiz-adv-x="1175" 
d="M1024 1024v-1024h-342v-276h-188v276h-342v1024h204v-836h463v836h205z" />
    <glyph glyph-name="afii10050" unicode="&#x490;" horiz-adv-x="888" 
d="M643 1812h188v-464h-475v-1348h-204v1536h491v276z" />
    <glyph glyph-name="afii10098" unicode="&#x491;" horiz-adv-x="874" 
d="M637 1300h188v-464h-469v-836h-204v1024h485v276z" />
    <glyph glyph-name="uni0492" unicode="&#x492;" horiz-adv-x="880" 
d="M0 860h152v676h679v-188h-475v-488h234v-139h-234v-721h-204v721h-152v139z" />
    <glyph glyph-name="uni0493" unicode="&#x493;" horiz-adv-x="874" 
d="M27 559h125v465h673v-188h-469v-277h269v-139h-269v-420h-204v420h-125v139z" />
    <glyph glyph-name="uni0496" unicode="&#x496;" horiz-adv-x="1556" 
d="M1493 1536l-428 -743l338 -605h151v-464h-172v276h-106l-412 754v-754h-205v750l-409 -750h-242l445 795l-430 741h229l407 -741v741h205v-745l410 745h219z" />
    <glyph glyph-name="uni0497" unicode="&#x497;" horiz-adv-x="1658" 
d="M1640 188v-464h-188v276h-76l-444 539v-539h-205v535l-444 -535h-258l477 557l-441 467h273l393 -451v451h205v-453l395 453h262l-430 -467l309 -369h172z" />
    <glyph glyph-name="uni049A" unicode="&#x49a;" horiz-adv-x="1093" 
d="M1092 188v-464h-189v276h-94l-453 756v-756h-204v1536h204v-748l449 748h225l-461 -735l371 -613h152z" />
    <glyph glyph-name="uni049B" unicode="&#x49b;" horiz-adv-x="1132" 
d="M1118 188v-464h-188v276h-84l-490 539v-539h-204v1024h204v-455l441 455h272l-481 -467l342 -369h188z" />
    <glyph glyph-name="uni04A2" unicode="&#x4a2;" horiz-adv-x="1259" 
d="M1200 188v-464h-188v276h-160v696h-496v-696h-204v1536h204v-651h496v651h205v-1348h143z" />
    <glyph glyph-name="uni04A3" unicode="&#x4a3;" horiz-adv-x="1255" 
d="M1196 188v-464h-188v276h-160v424h-492v-424h-204v1024h204v-414h492v414h205v-836h143z" />
    <glyph glyph-name="uni04AE" unicode="&#x4ae;" horiz-adv-x="983" 
d="M594 618v-618h-205v618l-387 918h205l285 -705l284 705h205z" />
    <glyph glyph-name="uni04AF" unicode="&#x4af;" horiz-adv-x="1024" 
d="M614 0v-512h-204v512l-390 1024h213l279 -766l279 766h213z" />
    <glyph glyph-name="uni04B0" unicode="&#x4b0;" horiz-adv-x="983" 
d="M852 483h-258v-483h-205v483h-258v138h258l-387 915h205l285 -705l284 705h205l-387 -915h258v-138z" />
    <glyph glyph-name="uni04B1" unicode="&#x4b1;" horiz-adv-x="1024" 
d="M127 -139v139h283l-390 1024h213l279 -766l279 766h213l-390 -1024h283v-139h-283v-373h-204v373h-283z" />
    <glyph glyph-name="uni04B2" unicode="&#x4b2;" horiz-adv-x="1046" 
d="M1044 188v-464h-172v276h-102l-268 612l-269 -612h-223l375 788l-352 748h221l248 -573l248 573h221l-353 -748l285 -600h141z" />
    <glyph glyph-name="uni04B3" unicode="&#x4b3;" horiz-adv-x="1085" 
d="M1036 1024l-381 -500l258 -336h164v-464h-188v276h-72l-295 379l-274 -379h-240l402 530l-381 494h239l271 -348l258 348h239z" />
    <glyph glyph-name="uni04BA" unicode="&#x4ba;" horiz-adv-x="1167" 
d="M152 1536h204v-629q92 29 217 29q236 0 349.5 -108.5t113.5 -356.5v-471h-205v471q0 154 -72 215.5t-212 61.5q-125 0 -191 -25v-723h-204v1536z" />
    <glyph glyph-name="uni04BB" unicode="&#x4bb;" horiz-adv-x="1198" 
d="M356 559v-559h-204v1536h204v-674q47 88 128.5 135t183.5 47q175 0 282 -113t107 -331v-600h-205v559q0 150 -65 227.5t-183 77.5t-183 -77.5t-65 -227.5z" />
    <glyph glyph-name="uni04C0" unicode="&#x4c0;" horiz-adv-x="507" 
d="M356 0h-204v1536h204v-1536z" />
    <glyph glyph-name="uni04CF" unicode="&#x4cf;" horiz-adv-x="507" 
d="M356 0h-204v1536h204v-1536z" />
    <glyph glyph-name="uni04D8" unicode="&#x4d8;" horiz-adv-x="1167" 
d="M584 -20q-216 0 -334.5 133t-118.5 391v293h700v235q0 178 -62.5 257t-184.5 79q-121 0 -184.5 -79t-63.5 -257v-82h-205v82q0 258 118.5 391t334.5 133t334 -132.5t118 -391.5v-528q0 -259 -118 -391.5t-334 -132.5zM336 504q0 -178 63 -257t185 -79q121 0 184 79
t63 257v104h-495v-104z" />
    <glyph glyph-name="uni04D9" unicode="&#x4d9;" horiz-adv-x="1159" 
d="M76 512q0 24 4 70h803q-19 134 -101 208t-211 74q-181 0 -247 -147h-222q47 157 173 242t305 85q219 0 361 -149t142 -383t-142 -383t-361 -149t-361.5 149t-142.5 383zM580 160q124 0 203 72.5t98 201.5h-602q19 -129 98.5 -201.5t202.5 -72.5z" />
    <glyph glyph-name="uni04E8" unicode="&#x4e8;" horiz-adv-x="1167" 
d="M584 -20q-216 0 -334.5 133t-118.5 391v528q0 258 118.5 391t334.5 133t334 -132.5t118 -391.5v-528q0 -259 -118 -391.5t-334 -132.5zM328 1040v-161h512v161q0 178 -65.5 257t-190.5 79q-124 0 -190 -79t-66 -257zM328 496q0 -178 65.5 -257t190.5 -79q124 0 190 79
t66 257v206h-512v-206z" />
    <glyph glyph-name="uni04E9" unicode="&#x4e9;" horiz-adv-x="1187" 
d="M594 -20q-224 0 -371 149.5t-147 382.5t147 382.5t371 149.5t371 -149.5t147 -382.5t-147 -382.5t-371 -149.5zM594 864q-121 0 -208 -74t-110 -198h633q-23 124 -109 198t-206 74zM594 160q122 0 207.5 75.5t107.5 202.5h-633q22 -127 109 -202.5t209 -75.5z" />
    <glyph glyph-name="Wgrave" unicode="&#x1e80;" horiz-adv-x="1536" 
d="M688 1679l-188 308h227l131 -308h-170zM1516 1536l-236 -1536h-307l-205 1360l-205 -1360h-307l-236 1536h205l189 -1333l200 1333h308l200 -1333l189 1333h205z" />
    <glyph glyph-name="wgrave" unicode="&#x1e81;" horiz-adv-x="1566" 
d="M700 1229l-188 307h227l131 -307h-170zM1536 1024l-276 -1024h-259l-217 846l-219 -846h-258l-276 1024h196l211 -846l215 846h260l215 -846l211 846h197z" />
    <glyph glyph-name="Wacute" unicode="&#x1e82;" horiz-adv-x="1536" 
d="M864 1679h-170l131 308h228zM1516 1536l-236 -1536h-307l-205 1360l-205 -1360h-307l-236 1536h205l189 -1333l200 1333h308l200 -1333l189 1333h205z" />
    <glyph glyph-name="wacute" unicode="&#x1e83;" horiz-adv-x="1566" 
d="M874 1229h-169l131 307h227zM1536 1024l-276 -1024h-259l-217 846l-219 -846h-258l-276 1024h196l211 -846l215 846h260l215 -846l211 846h197z" />
    <glyph glyph-name="Wdieresis" unicode="&#x1e84;" horiz-adv-x="1536" 
d="M563 1714q-49 0 -84 35t-35 84t35 84t84 35q51 0 85 -34.5t34 -84.5t-34 -84.5t-85 -34.5zM973 1714q-49 0 -84 35t-35 84t35 84t84 35q51 0 85 -34.5t34 -84.5t-34 -84.5t-85 -34.5zM1516 1536l-236 -1536h-307l-205 1360l-205 -1360h-307l-236 1536h205l189 -1333
l200 1333h308l200 -1333l189 1333h205z" />
    <glyph glyph-name="wdieresis" unicode="&#x1e85;" horiz-adv-x="1566" 
d="M573 1264q-49 0 -83.5 34t-34.5 84t34.5 84.5t83.5 34.5q51 0 85 -34.5t34 -84.5t-34 -84t-85 -34zM983 1264q-50 0 -84.5 34.5t-34.5 83.5q0 50 35 84.5t84 34.5q51 0 85 -34.5t34 -84.5t-34 -84t-85 -34zM1536 1024l-276 -1024h-259l-217 846l-219 -846h-258l-276 1024
h196l211 -846l215 846h260l215 -846l211 846h197z" />
    <glyph glyph-name="Ygrave" unicode="&#x1ef2;" horiz-adv-x="983" 
d="M412 1679l-189 308h228l131 -308h-170zM594 618v-618h-205v618l-387 918h205l285 -705l284 705h205z" />
    <glyph glyph-name="ygrave" unicode="&#x1ef3;" horiz-adv-x="1026" 
d="M453 1229l-189 307h228l131 -307h-170zM610 -115q-28 -80 -54.5 -137.5t-64 -112.5t-81 -88.5t-104 -54t-134.5 -20.5q-82 0 -154 22v180q72 -22 136 -22q94 0 153.5 55.5t110.5 179.5l-406 1137h205l297 -858l295 858h205z" />
    <glyph glyph-name="endash" unicode="&#x2013;" horiz-adv-x="1024" 
d="M922 494h-820v139h820v-139z" />
    <glyph glyph-name="emdash" unicode="&#x2014;" horiz-adv-x="2048" 
d="M1946 494h-1844v139h1844v-139z" />
    <glyph glyph-name="quoteleft" unicode="&#x2018;" horiz-adv-x="403" 
d="M330 1161q0 -52 -38 -89.5t-91 -37.5q-58 0 -96.5 41.5t-38.5 108.5q0 137 139 352h117q-90 -150 -115 -246q50 -2 86.5 -40t36.5 -89z" />
    <glyph glyph-name="quoteright" unicode="&#x2019;" horiz-adv-x="403" 
d="M338 1403q0 -138 -139 -350h-117q87 145 117 245q-51 1 -88 39t-37 88q0 53 38 91t91 38q58 0 96.5 -42t38.5 -109z" />
    <glyph glyph-name="quotesinglbase" unicode="&#x201a;" horiz-adv-x="403" 
d="M338 84q0 -138 -139 -350h-117q86 144 117 246q-51 1 -88 38.5t-37 87.5q0 53 38.5 91.5t90.5 38.5q58 0 96.5 -42t38.5 -110z" />
    <glyph glyph-name="quotedblleft" unicode="&#x201c;" horiz-adv-x="768" 
d="M330 1161q0 -52 -38 -89.5t-91 -37.5q-58 0 -96.5 41.5t-38.5 108.5q0 137 139 352h117q-90 -150 -115 -246q50 -2 86.5 -40t36.5 -89zM694 1161q0 -52 -38 -89.5t-91 -37.5q-58 0 -96.5 41.5t-38.5 108.5q0 137 139 352h117q-90 -150 -115 -246q50 -2 86.5 -40t36.5 -89
z" />
    <glyph glyph-name="quotedblright" unicode="&#x201d;" horiz-adv-x="768" 
d="M338 1403q0 -138 -139 -350h-117q87 145 117 245q-51 1 -88 39t-37 88q0 53 38 91t91 38q58 0 96.5 -42t38.5 -109zM702 1403q0 -138 -139 -350h-117q87 145 117 245q-51 1 -88 39t-37 88q0 53 38 91t91 38q58 0 96.5 -42t38.5 -109z" />
    <glyph glyph-name="quotedblbase" unicode="&#x201e;" horiz-adv-x="768" 
d="M702 84q0 -138 -139 -350h-117q86 144 117 246q-51 1 -88 38.5t-37 87.5q0 53 38.5 91.5t90.5 38.5q58 0 96.5 -42t38.5 -110zM338 84q0 -138 -139 -350h-117q86 144 117 246q-51 1 -88 38.5t-37 87.5q0 53 38.5 91.5t90.5 38.5q58 0 96.5 -42t38.5 -110z" />
    <glyph glyph-name="dagger" unicode="&#x2020;" horiz-adv-x="675" 
d="M635 1024h-219v-1024h-156v1024h-219v137h219v375h156v-375h219v-137z" />
    <glyph glyph-name="daggerdbl" unicode="&#x2021;" horiz-adv-x="675" 
d="M635 375h-219v-375h-156v375h-219v137h219v512h-219v137h219v375h156v-375h219v-137h-219v-512h219v-137z" />
    <glyph glyph-name="bullet" unicode="&#x2022;" horiz-adv-x="655" 
d="M328 399q-94 0 -160 66t-66 158q0 94 66 159.5t160 65.5q93 0 159 -66t66 -159q0 -92 -66.5 -158t-158.5 -66z" />
    <glyph glyph-name="ellipsis" unicode="&#x2026;" horiz-adv-x="1222" 
d="M217 -20q-52 0 -89.5 37.5t-37.5 88.5q0 53 37.5 91.5t89.5 38.5q55 0 92 -38.5t37 -91.5q0 -52 -37 -89t-92 -37zM610 -20q-52 0 -89.5 37.5t-37.5 88.5q0 53 37.5 91.5t89.5 38.5q55 0 92 -38.5t37 -91.5q0 -52 -37 -89t-92 -37zM1004 -20q-52 0 -89.5 37.5t-37.5 88.5
q0 53 37.5 91.5t89.5 38.5q55 0 92 -38.5t37 -91.5q0 -52 -37 -89t-92 -37z" />
    <glyph glyph-name="perthousand" unicode="&#x2030;" horiz-adv-x="2385" 
d="M367 727q-142 0 -228 103t-86 307q0 203 86 307t228 104q141 0 226 -104t85 -307q0 -204 -84.5 -307t-226.5 -103zM231 0l1065 1536h123l-1065 -1536h-123zM367 874q147 0 147 263q0 268 -147 268q-71 0 -110.5 -67t-39.5 -201q0 -133 39.5 -198t110.5 -65zM1284 -12
q-142 0 -227.5 102.5t-85.5 306.5q0 203 86 307.5t227 104.5t226 -104.5t85 -307.5q0 -204 -84.5 -306.5t-226.5 -102.5zM2019 -12q-142 0 -227.5 102.5t-85.5 306.5q0 203 86 307.5t227 104.5t226.5 -104.5t85.5 -307.5q0 -204 -85 -306.5t-227 -102.5zM1284 135
q148 0 148 262q0 135 -38.5 202t-109.5 67t-110 -67t-39 -202q0 -262 149 -262zM2019 135q148 0 148 262q0 135 -38.5 202t-109.5 67t-110 -67t-39 -202q0 -262 149 -262z" />
    <glyph glyph-name="guilsinglleft" unicode="&#x2039;" horiz-adv-x="655" 
d="M553 115l-451 303v209l451 303v-191l-344 -217l344 -217v-190z" />
    <glyph glyph-name="guilsinglright" unicode="&#x203a;" horiz-adv-x="655" 
d="M102 930l451 -303v-209l-451 -303v190l344 217l-344 217v191z" />
    <glyph glyph-name="fraction" unicode="&#x2044;" horiz-adv-x="184" 
d="M-502 0l1065 1536h123l-1065 -1536h-123z" />
    <glyph glyph-name="zerosuperior" unicode="&#x2070;" horiz-adv-x="733" 
d="M367 524q-142 0 -228 103t-86 307q0 203 86.5 307.5t227.5 104.5t226 -104.5t85 -307.5q0 -204 -84.5 -307t-226.5 -103zM367 672q147 0 147 262q0 268 -147 268q-71 0 -110.5 -67t-39.5 -201q0 -133 39.5 -197.5t110.5 -64.5z" />
    <glyph glyph-name="foursuperior" unicode="&#x2074;" horiz-adv-x="706" 
d="M27 831l272 502h254v-499h143v-136h-143v-161h-160v161h-366v133zM176 834h217v403z" />
    <glyph glyph-name="fivesuperior" unicode="&#x2075;" horiz-adv-x="698" 
d="M356 958q-50 0 -83.5 -21.5t-39.5 -51.5h-155v448h545v-137h-398v-192q58 77 174 77q113 0 189 -75t76 -197q0 -126 -83 -205.5t-216 -79.5q-134 0 -216.5 74t-82.5 193h161q0 -58 37 -92.5t101 -34.5q62 0 100.5 40.5t38.5 104.5q0 66 -39.5 107.5t-108.5 41.5z" />
    <glyph glyph-name="sixsuperior" unicode="&#x2076;" horiz-adv-x="712" 
d="M668 788q0 -122 -82.5 -193t-206.5 -71q-144 0 -234 102t-90 310q0 104 26.5 184.5t72.5 128.5t103 72.5t122 24.5q118 0 198 -70.5t80 -179.5h-153q-2 51 -35 81.5t-88 30.5q-74 0 -118 -66.5t-44 -199.5v-10q28 59 80 89t115 30q104 0 179 -69t75 -194zM379 657
q56 0 93.5 36.5t37.5 94.5q0 57 -37.5 93.5t-93.5 36.5q-55 0 -92 -37t-37 -93q0 -58 37 -94.5t92 -36.5z" />
    <glyph glyph-name="sevensuperior" unicode="&#x2077;" horiz-adv-x="567" 
d="M326 590v-53h-166v43q0 99 20.5 188.5t59 165.5t80 135.5t98.5 124.5h-408v139h543v-184q-59 -72 -94.5 -122.5t-69 -118.5t-48.5 -145.5t-15 -172.5z" />
    <glyph glyph-name="eightsuperior" unicode="&#x2078;" horiz-adv-x="706" 
d="M649 768q0 -111 -80.5 -177.5t-216.5 -66.5t-215.5 66.5t-79.5 177.5q0 60 31.5 110t87.5 83q-92 60 -92 163q0 100 73 161t195 61q124 0 197.5 -61t73.5 -161q0 -101 -95 -163q57 -33 89 -83t32 -110zM352 1016q52 0 81.5 27t29.5 71q0 45 -30 72.5t-81 27.5
q-49 0 -78.5 -27.5t-29.5 -72.5q0 -44 29 -71t79 -27zM352 655q62 0 98.5 34t36.5 87q0 55 -36.5 88t-98.5 33q-61 0 -97 -33.5t-36 -87.5q0 -53 36 -87t97 -34z" />
    <glyph glyph-name="ninesuperior" unicode="&#x2079;" horiz-adv-x="712" 
d="M657 932q0 -201 -93 -304.5t-230 -103.5q-118 0 -198.5 70t-80.5 178h154q2 -50 35 -80t88 -30q75 0 118.5 66.5t43.5 199.5v10q-28 -60 -80 -90.5t-115 -30.5q-104 0 -179 69.5t-75 194.5q0 122 82.5 193.5t206.5 71.5q69 0 126 -23.5t102 -72t70 -130t25 -188.5z
M334 1210q-56 0 -93.5 -36.5t-37.5 -92.5t37.5 -92.5t93.5 -36.5q55 0 92 36.5t37 92.5t-37 92.5t-92 36.5z" />
    <glyph glyph-name="parenleftsuperior" unicode="&#x207d;" horiz-adv-x="452" 
d="M111 915q0 348 204 621h134q-193 -259 -193 -621t193 -618h-134q-204 273 -204 618z" />
    <glyph glyph-name="parenrightsuperior" unicode="&#x207e;" horiz-adv-x="452" 
d="M342 915q0 -344 -205 -618h-133q193 256 193 618t-193 621h133q205 -274 205 -621z" />
    <glyph glyph-name="zeroinferior" unicode="&#x2080;" horiz-adv-x="733" 
d="M367 -524q-142 0 -228 102.5t-86 306.5q0 203 86.5 307.5t227.5 104.5t226 -104.5t85 -307.5q0 -204 -84.5 -306.5t-226.5 -102.5zM367 -377q147 0 147 262q0 135 -38 202t-109 67t-110.5 -67t-39.5 -202q0 -133 39.5 -197.5t110.5 -64.5z" />
    <glyph glyph-name="oneinferior" unicode="&#x2081;" horiz-adv-x="413" 
d="M174 262v23h166v-797h-168v532h-149v132h47q57 0 80.5 25.5t23.5 84.5z" />
    <glyph glyph-name="twoinferior" unicode="&#x2082;" horiz-adv-x="647" 
d="M602 53q0 -49 -23 -94t-58.5 -77t-78.5 -65.5t-82 -60.5t-70.5 -61t-41.5 -68h362v-139h-565v61q0 62 29.5 117.5t74 94.5t96 78t96 69.5t74 68t29.5 74.5q0 49 -32 78t-84 29q-56 0 -88.5 -31.5t-32.5 -93.5v-25h-156v37q0 119 78.5 185.5t198.5 66.5q119 0 196.5 -64
t77.5 -180z" />
    <glyph glyph-name="threeinferior" unicode="&#x2083;" horiz-adv-x="706" 
d="M662 -285q0 -113 -81 -176t-214 -63q-140 0 -229 70t-89 188h160q0 -56 41.5 -88.5t107.5 -32.5q63 0 101.5 30t38.5 81t-36.5 79.5t-107.5 28.5h-75v133h75q57 0 89 25.5t32 68.5q0 46 -34 72.5t-93 26.5t-93 -29.5t-34 -83.5h-158q0 119 77 185.5t210 66.5
q129 0 209 -62t80 -163q0 -112 -104 -166q127 -62 127 -191z" />
    <glyph glyph-name="fourinferior" unicode="&#x2084;" horiz-adv-x="706" 
d="M27 -217l272 502h254v-500h143v-135h-143v-162h-160v162h-366v133zM176 -215h217v403z" />
    <glyph glyph-name="fiveinferior" unicode="&#x2085;" horiz-adv-x="698" 
d="M356 -90q-50 0 -83.5 -22t-39.5 -52h-155v449h545v-138h-398v-192q59 78 174 78q113 0 189 -75.5t76 -197.5q0 -126 -83 -205t-216 -79q-135 0 -217 73.5t-82 192.5h161q0 -58 37 -92.5t101 -34.5q62 0 100.5 40.5t38.5 104.5q0 66 -39.5 108t-108.5 42z" />
    <glyph glyph-name="sixinferior" unicode="&#x2086;" horiz-adv-x="712" 
d="M668 -260q0 -122 -82.5 -193t-206.5 -71q-144 0 -234 101.5t-90 309.5q0 104 26.5 184.5t72.5 128.5t103 72.5t122 24.5q118 0 198 -70.5t80 -179.5h-153q-2 51 -35 82t-88 31q-74 0 -118 -66.5t-44 -199.5v-11q28 59 80 89t115 30q105 0 179.5 -68.5t74.5 -193.5z
M379 -391q56 0 93.5 36.5t37.5 94.5q0 56 -37.5 92.5t-93.5 36.5q-55 0 -92 -36.5t-37 -92.5q0 -58 37 -94.5t92 -36.5z" />
    <glyph glyph-name="seveninferior" unicode="&#x2087;" horiz-adv-x="567" 
d="M326 -459v-53h-166v43q0 99 20.5 188.5t59 165.5t80 135.5t98.5 124.5h-408v140h543v-185q-59 -72 -94.5 -122.5t-69 -118.5t-48.5 -145.5t-15 -172.5z" />
    <glyph glyph-name="eightinferior" unicode="&#x2088;" horiz-adv-x="706" 
d="M649 -281q0 -111 -80.5 -177t-216.5 -66t-215.5 66t-79.5 177q0 60 31.5 110t87.5 83q-92 60 -92 164q0 100 72.5 160.5t195.5 60.5q124 0 197.5 -60.5t73.5 -160.5q0 -102 -95 -164q57 -33 89 -83t32 -110zM352 -33q51 0 81 27.5t30 71.5q0 45 -30 72.5t-81 27.5
q-49 0 -78.5 -27.5t-29.5 -72.5q0 -44 29 -71.5t79 -27.5zM352 -393q62 0 98.5 34t36.5 87q0 54 -36.5 87t-98.5 33q-61 0 -97 -33t-36 -87q0 -53 36 -87t97 -34z" />
    <glyph glyph-name="nineinferior" unicode="&#x2089;" horiz-adv-x="712" 
d="M657 -117q0 -201 -93 -304t-230 -103q-118 0 -198.5 70t-80.5 178h154q2 -50 35 -80.5t88 -30.5q75 0 118.5 66.5t43.5 199.5v10q-28 -60 -80 -90t-115 -30q-104 0 -179 69.5t-75 194.5q0 122 82.5 193t206.5 71q69 0 126 -23.5t102 -72t70 -130t25 -188.5zM334 162
q-56 0 -93.5 -36.5t-37.5 -92.5t37.5 -92.5t93.5 -36.5q55 0 92 36.5t37 92.5t-37 92.5t-92 36.5z" />
    <glyph glyph-name="parenleftinferior" unicode="&#x208d;" horiz-adv-x="452" 
d="M111 -133q0 347 204 620h134q-193 -259 -193 -620q0 -363 193 -619h-134q-204 273 -204 619z" />
    <glyph glyph-name="parenrightinferior" unicode="&#x208e;" horiz-adv-x="452" 
d="M342 -133q0 -345 -205 -619h-133q193 256 193 619q0 361 -193 620h133q205 -274 205 -620z" />
    <glyph glyph-name="Euro" unicode="&#x20ac;" 
d="M1081 446q0 -222 -121.5 -344t-314.5 -122t-314.5 128.5t-121.5 362.5v37h-168v121h168v282h-168v121h168v33q0 234 121.5 362.5t314.5 128.5t314.5 -122t121.5 -344v-58h-204v41q0 295 -232 295q-231 0 -231 -319v-17h323v-121h-323v-282h323v-121h-323v-21
q0 -319 231 -319q110 0 171 72t61 223v45h204v-62z" />
    <glyph glyph-name="uni20B4" unicode="&#x20b4;" 
d="M1034 999v-122h-942v122h576q82 82 82 181q0 90 -49.5 139t-133.5 49q-89 0 -137.5 -56t-48.5 -171v-39h-205v45q0 199 109 304t282 105q83 0 151.5 -21.5t122 -65.5t83.5 -117.5t30 -171.5q0 -106 -34 -181h114zM977 389q0 -191 -117.5 -300t-294.5 -109
q-115 0 -206.5 44t-148 138.5t-56.5 226.5q0 87 30 158h-92v123h942v-123h-606q-70 -80 -70 -182q0 -92 56 -144.5t151 -52.5q94 0 150.5 63.5t56.5 171.5v35h205v-49z" />
    <glyph glyph-name="uni20B8" unicode="&#x20b8;" 
d="M987 1536v-123h-848v123h848zM139 944v189h848v-189h-321v-944h-205v944h-322z" />
    <glyph glyph-name="uni20BD" unicode="&#x20bd;" 
d="M61 807h136v729h444q194 0 309 -97.5t115 -287.5v-61q0 -198 -115.5 -302t-308.5 -104h-240v-262h430v-121h-430v-301h-204v301h-136v121h136v262h-136v123zM621 1348h-220v-476h220q117 0 178 54.5t61 183.5v20q0 121 -60.5 169.5t-178.5 48.5z" />
    <glyph glyph-name="afii61352" unicode="&#x2116;" 
d="M903 1036q-97 0 -154 68t-57 192q0 120 57 187t154 67q98 0 154.5 -67t56.5 -187q0 -124 -56.5 -192t-154.5 -68zM633 1536v-1536h-227l-173 1386v-1386h-147v1536h252l151 -1337v1337h144zM903 1151q96 0 96 145q0 144 -96 144t-96 -144q0 -145 96 -145zM709 858v115
h391v-115h-391z" />
    <glyph glyph-name="uni2117" unicode="&#x2117;" horiz-adv-x="1699" 
d="M850 -20q-165 0 -311 63t-248 169.5t-160.5 251t-58.5 304.5q0 162 58.5 307t160.5 251t247.5 168t311.5 62t311.5 -62t247.5 -168t160.5 -251t58.5 -307q0 -160 -58.5 -304.5t-160.5 -251t-248 -169.5t-311 -63zM850 1460q-143 0 -268.5 -55t-213.5 -148.5t-139 -220.5
t-51 -268t51 -268.5t139 -220.5t213.5 -148t268.5 -55t268.5 55t213.5 148t139 220.5t51 268.5t-51 268t-139 220.5t-213.5 148.5t-268.5 55zM588 358v820h315q132 0 210.5 -68t78.5 -217q0 -132 -82 -210.5t-207 -78.5h-143v-246h-172zM887 1024h-127v-268h127
q135 0 135 137q0 71 -35 101t-100 30z" />
    <glyph glyph-name="trademark" unicode="&#x2122;" horiz-adv-x="1896" 
d="M1591 717v725l-188 -725h-191l-188 725v-725h-139v819h270l160 -655l153 655h277v-819h-154zM78 1397v139h622v-139h-231v-680h-156v680h-235z" />
    <glyph glyph-name="estimated" unicode="&#x212e;" horiz-adv-x="1699" 
d="M354 725v-494q78 -85 207.5 -136.5t288.5 -51.5q114 0 220 34.5t187.5 93.5t143 134t98.5 160h70q-86 -211 -281 -348t-438 -137q-229 0 -405.5 97.5t-274.5 277t-98 413.5q0 173 60.5 321t165.5 250t247.5 159.5t304.5 57.5q168 0 314.5 -62.5t247.5 -169t158.5 -251
t57.5 -305.5q0 -8 -1 -21.5t-1 -21.5h-1272zM354 788h1006v488q-75 94 -209.5 154.5t-300.5 60.5q-149 0 -284.5 -56.5t-211.5 -142.5v-504z" />
    <glyph glyph-name="arrowleft" unicode="&#x2190;" 
d="M629 289l-103 -103l-434 437l434 434l103 -103l-264 -264h669v-139h-665z" />
    <glyph glyph-name="arrowup" unicode="&#x2191;" 
d="M895 508l-264 264v-670h-139v666l-263 -260l-102 102l436 434l434 -434z" />
    <glyph glyph-name="arrowright" unicode="&#x2192;" 
d="M1034 623l-434 -437l-102 103l260 262h-666v139h670l-264 264l102 103z" />
    <glyph glyph-name="arrowdown" unicode="&#x2193;" 
d="M997 414l-434 -434l-436 434l102 102l263 -260v666h139v-670l264 264z" />
    <glyph glyph-name="partialdiff" unicode="&#x2202;" horiz-adv-x="1177" 
d="M1096 670q0 -185 -40 -321.5t-112 -215t-163 -116t-203 -37.5q-216 0 -357 137.5t-141 353.5q0 218 132 355t347 137q100 0 182 -42.5t133 -115.5q-21 276 -145 409.5t-334 133.5q-55 0 -114 -11v187q70 12 141 12q145 0 267 -56.5t213 -163t142.5 -272.5t51.5 -374z
M578 168q127 0 208.5 84t81.5 219t-81.5 219t-208.5 84t-210 -84t-83 -219t83 -219t210 -84z" />
    <glyph glyph-name="product" unicode="&#x220f;" horiz-adv-x="1208" 
d="M152 -512v2048h905v-2048h-205v1860h-496v-1860h-204z" />
    <glyph glyph-name="summation" unicode="&#x2211;" horiz-adv-x="907" 
d="M840 -324v-188h-750v242l500 780l-500 784v242h752v-188h-537l449 -705v-262l-451 -705h537z" />
    <glyph glyph-name="minus" unicode="&#x2212;" 
d="M154 551v139h819v-139h-819z" />
    <glyph glyph-name="radical" unicode="&#x221a;" horiz-adv-x="1024" 
d="M1130 1536l-475 -1536h-286l-344 1024h213l272 -852l408 1364h212z" />
    <glyph glyph-name="infinity" unicode="&#x221e;" 
d="M1049 618q0 -110 -74.5 -183t-188.5 -73q-80 0 -137 37.5t-86 102.5q-29 -65 -86 -102.5t-135 -37.5q-115 0 -189.5 72.5t-74.5 183.5t74.5 183.5t189.5 72.5q78 0 135.5 -37t85.5 -102q29 65 86 102t137 37q114 0 188.5 -73t74.5 -183zM342 485q56 0 93.5 37.5
t37.5 95.5t-37.5 96t-93.5 38q-57 0 -95 -38t-38 -96t38 -95.5t95 -37.5zM786 485q57 0 94.5 37.5t37.5 95.5t-37.5 96t-94.5 38q-56 0 -94.5 -38t-38.5 -96t38.5 -95.5t94.5 -37.5z" />
    <glyph glyph-name="integral" unicode="&#x222b;" horiz-adv-x="626" 
d="M45 -512q-70 0 -102 8v187q40 -7 75 -7q75 0 112.5 31.5t37.5 114.5v1362q0 176 102.5 274t266.5 98q85 0 143 -18v-188q-55 18 -125 18q-88 0 -135 -47.5t-47 -142.5v-1360q0 -330 -328 -330z" />
    <glyph glyph-name="approxequal" unicode="&#x2248;" 
d="M397 829q-41 0 -68.5 -28.5t-27.5 -81.5v-43h-147v67q0 115 58.5 178.5t152.5 63.5q49 0 96 -17t82.5 -41l68.5 -48t66 -41t63 -17q36 0 60 29t24 82v43h148v-68q0 -116 -58.5 -178.5t-152.5 -62.5q-42 0 -83.5 17t-75 41l-66 47.5t-69 40.5t-71.5 17zM397 420
q-41 0 -68.5 -29t-27.5 -82v-43h-147v68q0 115 58.5 178t152.5 63q49 0 96 -17t82.5 -40.5l68.5 -47.5t66 -41t63 -17q36 0 60 28.5t24 81.5v43h148v-67q0 -116 -58.5 -179t-152.5 -63q-42 0 -83.5 17t-75 41l-66 48t-69 41t-71.5 17z" />
    <glyph glyph-name="notequal" unicode="&#x2260;" 
d="M973 346h-522l-111 -149h-186l110 149h-110v139h215l202 271h-417v139h522l110 149h187l-111 -149h111v-139h-215l-203 -271h418v-139z" />
    <glyph glyph-name="lessequal" unicode="&#x2264;" 
d="M973 371v-158l-819 367v147l819 367v-158l-633 -283zM154 0v139h819v-139h-819z" />
    <glyph glyph-name="greaterequal" unicode="&#x2265;" 
d="M973 580l-819 -367v158l632 282l-632 283v158l819 -367v-147zM973 0h-819v139h819v-139z" />
    <glyph glyph-name="uni25B4" unicode="&#x25b4;" horiz-adv-x="1153" 
d="M119 365l456 743l457 -743h-913z" />
    <glyph glyph-name="uni25B5" unicode="&#x25b5;" horiz-adv-x="1153" 
d="M119 373l456 743l457 -743h-913zM315 483h521l-261 424z" />
    <glyph glyph-name="uni25B8" unicode="&#x25b8;" horiz-adv-x="1153" 
d="M289 150v913l743 -457z" />
    <glyph glyph-name="uni25B9" unicode="&#x25b9;" horiz-adv-x="1153" 
d="M289 158v913l743 -457zM403 354l422 260l-422 260v-520z" />
    <glyph glyph-name="uni25BE" unicode="&#x25be;" horiz-adv-x="1153" 
d="M119 1096h913l-457 -744z" />
    <glyph glyph-name="uni25BF" unicode="&#x25bf;" horiz-adv-x="1153" 
d="M119 1096h913l-457 -744zM315 985l260 -422l261 422h-521z" />
    <glyph glyph-name="uni25C2" unicode="&#x25c2;" horiz-adv-x="1153" 
d="M864 150l-743 456l743 457v-913z" />
    <glyph glyph-name="uni25C3" unicode="&#x25c3;" horiz-adv-x="1153" 
d="M864 158l-743 456l743 457v-913zM750 354v520l-422 -260z" />
    <glyph glyph-name="lozenge" unicode="&#x25ca;" horiz-adv-x="1024" 
d="M438 0l-375 768l375 768h148l375 -768l-375 -768h-148zM512 174l291 594l-291 594l-291 -594z" />
    <glyph glyph-name="heart" unicode="&#x2665;" horiz-adv-x="1726" 
d="M895 0h-64q-25 77 -77.5 148.5t-114.5 128t-131.5 113.5t-133.5 115t-116.5 121.5t-83.5 145.5t-31 174q0 182 106.5 283.5t264.5 101.5q115 0 207 -60t141 -186q48 125 141.5 185.5t208.5 60.5q101 0 183.5 -42t135 -131.5t52.5 -211.5q0 -92 -31 -174t-83.5 -145.5
t-116.5 -121.5t-133.5 -115t-131.5 -113.5t-114.5 -128t-77.5 -148.5zM905 901h-84q-42 140 -117 215.5t-178 75.5q-101 0 -166 -68.5t-65 -197.5q0 -69 22 -128t61 -105.5t86.5 -87.5t103 -83l107.5 -83.5t102.5 -97.5t84.5 -116q34 60 85 116t103 97.5l107.5 83.5t104 83
t87 87.5t61 105.5t22.5 128q0 129 -66 197.5t-166 68.5q-104 0 -179.5 -75.5t-115.5 -215.5z" />
    <glyph glyph-name="uni2780" unicode="&#x2780;" horiz-adv-x="1699" 
d="M850 -20q-165 0 -311 63t-248 169.5t-160.5 251t-58.5 304.5q0 162 58.5 307t160.5 251t247.5 168t311.5 62t311.5 -62t247.5 -168t160.5 -251t58.5 -307q0 -160 -58.5 -304.5t-160.5 -251t-248 -169.5t-311 -63zM850 1460q-143 0 -268.5 -55t-213.5 -148.5t-139 -220.5
t-51 -268t51 -268.5t139 -220.5t213.5 -148t268.5 -55t268.5 55t213.5 148t139 220.5t51 268.5t-51 268t-139 220.5t-213.5 148.5t-268.5 55zM784 1143v22h166v-796h-168v532h-149v131h47q56 0 80 26t24 85z" />
    <glyph glyph-name="uni2781" unicode="&#x2781;" horiz-adv-x="1699" 
d="M850 -20q-165 0 -311 63t-248 169.5t-160.5 251t-58.5 304.5q0 162 58.5 307t160.5 251t247.5 168t311.5 62t311.5 -62t247.5 -168t160.5 -251t58.5 -307q0 -160 -58.5 -304.5t-160.5 -251t-248 -169.5t-311 -63zM850 1460q-143 0 -268.5 -55t-213.5 -148.5t-139 -220.5
t-51 -268t51 -268.5t139 -220.5t213.5 -148t268.5 -55t268.5 55t213.5 148t139 220.5t51 268.5t-51 268t-139 220.5t-213.5 148.5t-268.5 55zM1114 934q0 -49 -23 -94t-58.5 -77t-78.5 -65.5t-82 -60.5t-70.5 -61t-41.5 -68h362v-139h-565v61q0 62 29.5 117.5t74 94.5t96 78
t96 69.5t74 68t29.5 74.5q0 49 -32 77.5t-84 28.5q-56 0 -88.5 -31.5t-32.5 -93.5v-24h-156v37q0 119 78.5 185.5t198.5 66.5q119 0 196.5 -64t77.5 -180z" />
    <glyph glyph-name="uni2782" unicode="&#x2782;" horiz-adv-x="1699" 
d="M850 -20q-165 0 -311 63t-248 169.5t-160.5 251t-58.5 304.5q0 162 58.5 307t160.5 251t247.5 168t311.5 62t311.5 -62t247.5 -168t160.5 -251t58.5 -307q0 -160 -58.5 -304.5t-160.5 -251t-248 -169.5t-311 -63zM850 1460q-143 0 -268.5 -55t-213.5 -148.5t-139 -220.5
t-51 -268t51 -268.5t139 -220.5t213.5 -148t268.5 -55t268.5 55t213.5 148t139 220.5t51 268.5t-51 268t-139 220.5t-213.5 148.5t-268.5 55zM1149 596q0 -113 -81 -176.5t-214 -63.5q-140 0 -228.5 70t-88.5 188h159q0 -56 42 -88t108 -32q63 0 101 29.5t38 80.5t-36.5 80
t-106.5 29h-76v133h76q57 0 89 25.5t32 68.5q0 46 -34 72t-93 26t-93 -29.5t-34 -82.5h-158q0 119 77 185.5t210 66.5q129 0 208.5 -62.5t79.5 -163.5q0 -112 -104 -166q127 -62 127 -190z" />
    <glyph glyph-name="uni2783" unicode="&#x2783;" horiz-adv-x="1699" 
d="M850 -20q-165 0 -311 63t-248 169.5t-160.5 251t-58.5 304.5q0 162 58.5 307t160.5 251t247.5 168t311.5 62t311.5 -62t247.5 -168t160.5 -251t58.5 -307q0 -160 -58.5 -304.5t-160.5 -251t-248 -169.5t-311 -63zM850 1460q-143 0 -268.5 -55t-213.5 -148.5t-139 -220.5
t-51 -268t51 -268.5t139 -220.5t213.5 -148t268.5 -55t268.5 55t213.5 148t139 220.5t51 268.5t-51 268t-139 220.5t-213.5 148.5t-268.5 55zM477 664l273 501h254v-499h143v-136h-143v-161h-160v161h-367v134zM627 666h217v403z" />
    <glyph glyph-name="uni2784" unicode="&#x2784;" horiz-adv-x="1699" 
d="M850 -20q-165 0 -311 63t-248 169.5t-160.5 251t-58.5 304.5q0 162 58.5 307t160.5 251t247.5 168t311.5 62t311.5 -62t247.5 -168t160.5 -251t58.5 -307q0 -160 -58.5 -304.5t-160.5 -251t-248 -169.5t-311 -63zM850 1460q-143 0 -268.5 -55t-213.5 -148.5t-139 -220.5
t-51 -268t51 -268.5t139 -220.5t213.5 -148t268.5 -55t268.5 55t213.5 148t139 220.5t51 268.5t-51 268t-139 220.5t-213.5 148.5t-268.5 55zM840 791q-50 0 -83.5 -22t-39.5 -52h-156v448h545v-137h-397v-192q58 77 174 77q113 0 188.5 -75t75.5 -197q0 -126 -83 -205.5
t-216 -79.5q-134 0 -216.5 74t-82.5 193h162q0 -58 36.5 -92.5t100.5 -34.5q62 0 100.5 40.5t38.5 104.5q0 66 -39 108t-108 42z" />
    <glyph glyph-name="uni2785" unicode="&#x2785;" horiz-adv-x="1699" 
d="M850 -20q-165 0 -311 63t-248 169.5t-160.5 251t-58.5 304.5q0 162 58.5 307t160.5 251t247.5 168t311.5 62t311.5 -62t247.5 -168t160.5 -251t58.5 -307q0 -160 -58.5 -304.5t-160.5 -251t-248 -169.5t-311 -63zM850 1460q-143 0 -268.5 -55t-213.5 -148.5t-139 -220.5
t-51 -268t51 -268.5t139 -220.5t213.5 -148t268.5 -55t268.5 55t213.5 148t139 220.5t51 268.5t-51 268t-139 220.5t-213.5 148.5t-268.5 55zM1139 621q0 -122 -82.5 -193.5t-206.5 -71.5q-144 0 -234 102t-90 310q0 104 26.5 184.5t72.5 128.5t103 72.5t122 24.5
q118 0 198 -70.5t80 -179.5h-153q-2 51 -35 81.5t-88 30.5q-74 0 -118 -66.5t-44 -199.5v-10q28 59 80 89t115 30q105 0 179.5 -68.5t74.5 -193.5zM850 489q56 0 93.5 37t37.5 95q0 56 -37.5 92.5t-93.5 36.5q-55 0 -92 -36.5t-37 -92.5q0 -58 37 -95t92 -37z" />
    <glyph glyph-name="uni2786" unicode="&#x2786;" horiz-adv-x="1699" 
d="M850 -20q-165 0 -311 63t-248 169.5t-160.5 251t-58.5 304.5q0 162 58.5 307t160.5 251t247.5 168t311.5 62t311.5 -62t247.5 -168t160.5 -251t58.5 -307q0 -160 -58.5 -304.5t-160.5 -251t-248 -169.5t-311 -63zM850 1460q-143 0 -268.5 -55t-213.5 -148.5t-139 -220.5
t-51 -268t51 -268.5t139 -220.5t213.5 -148t268.5 -55t268.5 55t213.5 148t139 220.5t51 268.5t-51 268t-139 220.5t-213.5 148.5t-268.5 55zM907 422v-53h-166v43q0 99 20.5 188.5t59 165.5t80 135.5t98.5 124.5h-407v139h543v-184q-60 -72 -95 -122.5t-69 -119t-49 -145.5
t-15 -172z" />
    <glyph glyph-name="uni2787" unicode="&#x2787;" horiz-adv-x="1699" 
d="M850 -20q-165 0 -311 63t-248 169.5t-160.5 251t-58.5 304.5q0 162 58.5 307t160.5 251t247.5 168t311.5 62t311.5 -62t247.5 -168t160.5 -251t58.5 -307q0 -160 -58.5 -304.5t-160.5 -251t-248 -169.5t-311 -63zM850 1460q-143 0 -268.5 -55t-213.5 -148.5t-139 -220.5
t-51 -268t51 -268.5t139 -220.5t213.5 -148t268.5 -55t268.5 55t213.5 148t139 220.5t51 268.5t-51 268t-139 220.5t-213.5 148.5t-268.5 55zM1147 600q0 -111 -80.5 -177.5t-216.5 -66.5t-215.5 66.5t-79.5 177.5q0 60 31.5 110t87.5 83q-92 60 -92 163q0 100 73 161
t195 61q124 0 197 -61t73 -161q0 -102 -94 -163q57 -33 89 -83t32 -110zM850 848q52 0 81.5 27t29.5 71q0 45 -30.5 73t-80.5 28q-49 0 -79 -28t-30 -73q0 -44 29.5 -71t79.5 -27zM850 487q62 0 98.5 34t36.5 87q0 55 -36.5 88t-98.5 33q-61 0 -97 -33.5t-36 -87.5
q0 -53 36 -87t97 -34z" />
    <glyph glyph-name="uni2788" unicode="&#x2788;" horiz-adv-x="1699" 
d="M850 -20q-165 0 -311 63t-248 169.5t-160.5 251t-58.5 304.5q0 162 58.5 307t160.5 251t247.5 168t311.5 62t311.5 -62t247.5 -168t160.5 -251t58.5 -307q0 -160 -58.5 -304.5t-160.5 -251t-248 -169.5t-311 -63zM850 1460q-143 0 -268.5 -55t-213.5 -148.5t-139 -220.5
t-51 -268t51 -268.5t139 -220.5t213.5 -148t268.5 -55t268.5 55t213.5 148t139 220.5t51 268.5t-51 268t-139 220.5t-213.5 148.5t-268.5 55zM1174 764q0 -201 -93.5 -304.5t-230.5 -103.5q-118 0 -198.5 70t-80.5 178h154q2 -50 35 -80t88 -30q75 0 118.5 66.5t43.5 199.5
v10q-28 -60 -80 -90.5t-115 -30.5q-104 0 -179 69.5t-75 194.5q0 122 82.5 193.5t206.5 71.5q69 0 126 -24t102 -72t70.5 -129.5t25.5 -188.5zM850 1042q-56 0 -93.5 -36.5t-37.5 -92.5t37.5 -92.5t93.5 -36.5q55 0 92 36.5t37 92.5t-37 92.5t-92 36.5z" />
    <glyph glyph-name="uni2789" unicode="&#x2789;" horiz-adv-x="1699" 
d="M850 -20q-165 0 -311 63t-248 169.5t-160.5 251t-58.5 304.5q0 162 58.5 307t160.5 251t247.5 168t311.5 62t311.5 -62t247.5 -168t160.5 -251t58.5 -307q0 -160 -58.5 -304.5t-160.5 -251t-248 -169.5t-311 -63zM850 1460q-143 0 -268.5 -55t-213.5 -148.5t-139 -220.5
t-51 -268t51 -268.5t139 -220.5t213.5 -148t268.5 -55t268.5 55t213.5 148t139 220.5t51 268.5t-51 268t-139 220.5t-213.5 148.5t-268.5 55zM1075 358q-142 0 -227.5 103t-85.5 307q0 203 86 307.5t227 104.5t226 -104.5t85 -307.5q0 -204 -84.5 -307t-226.5 -103z
M481 1143v22h166v-796h-168v532h-149v131h47q56 0 80 26t24 85zM1075 506q148 0 148 262q0 135 -38.5 201.5t-109.5 66.5t-110 -66.5t-39 -201.5q0 -262 149 -262z" />
    <glyph glyph-name="uni278A" unicode="&#x278a;" horiz-adv-x="1699" 
d="M850 -20q-165 0 -311 63t-248 169.5t-160.5 251t-58.5 304.5q0 162 58.5 307t160.5 251t247.5 168t311.5 62t311.5 -62t247.5 -168t160.5 -251t58.5 -307q0 -160 -58.5 -304.5t-160.5 -251t-248 -169.5t-311 -63zM784 1143q0 -59 -24 -85t-80 -26h-47v-131h149v-532h168
v796h-166v-22z" />
    <glyph glyph-name="uni278B" unicode="&#x278b;" horiz-adv-x="1699" 
d="M850 -20q-165 0 -311 63t-248 169.5t-160.5 251t-58.5 304.5q0 162 58.5 307t160.5 251t247.5 168t311.5 62t311.5 -62t247.5 -168t160.5 -251t58.5 -307q0 -160 -58.5 -304.5t-160.5 -251t-248 -169.5t-311 -63zM1114 934q0 116 -77.5 180t-196.5 64
q-120 0 -198.5 -66.5t-78.5 -185.5v-37h156v24q0 62 32.5 93.5t88.5 31.5q52 0 84 -28.5t32 -77.5q0 -37 -29.5 -74.5t-74 -68t-96 -69.5t-96 -78t-74 -94.5t-29.5 -117.5v-61h565v139h-362q10 34 41.5 68t70.5 61t82 60.5t78.5 65.5t58.5 77t23 94z" />
    <glyph glyph-name="uni278C" unicode="&#x278c;" horiz-adv-x="1699" 
d="M850 -20q-165 0 -311 63t-248 169.5t-160.5 251t-58.5 304.5q0 162 58.5 307t160.5 251t247.5 168t311.5 62t311.5 -62t247.5 -168t160.5 -251t58.5 -307q0 -160 -58.5 -304.5t-160.5 -251t-248 -169.5t-311 -63zM854 356q133 0 214 63.5t81 176.5q0 64 -33.5 113
t-95.5 77q106 51 106 166q0 101 -79.5 163.5t-208.5 62.5q-133 0 -210 -66.5t-77 -185.5h158q0 53 34 82.5t93 29.5t93 -26t34 -72q0 -43 -32 -68.5t-89 -25.5h-76v-133h76q70 0 106.5 -29t36.5 -80t-38 -80.5t-101 -29.5q-66 0 -108 32t-42 88h-159q0 -118 88.5 -188
t228.5 -70z" />
    <glyph glyph-name="uni278D" unicode="&#x278d;" horiz-adv-x="1699" 
d="M850 -20q-165 0 -311 63t-248 169.5t-160.5 251t-58.5 304.5q0 162 58.5 307t160.5 251t247.5 168t311.5 62t311.5 -62t247.5 -168t160.5 -251t58.5 -307q0 -160 -58.5 -304.5t-160.5 -251t-248 -169.5t-311 -63zM1147 530v136h-143v499h-254l-273 -501v-134h367v-161
h160v161h143zM627 666l217 393v-393h-217z" />
    <glyph glyph-name="uni278E" unicode="&#x278e;" horiz-adv-x="1699" 
d="M850 -20q-165 0 -311 63t-248 169.5t-160.5 251t-58.5 304.5q0 162 58.5 307t160.5 251t247.5 168t311.5 62t311.5 -62t247.5 -168t160.5 -251t58.5 -307q0 -160 -58.5 -304.5t-160.5 -251t-248 -169.5t-311 -63zM848 356q133 0 216 79.5t83 205.5q0 122 -75.5 197
t-188.5 75q-112 0 -174 -75v190h397v137h-545v-448h156q6 30 39.5 52t83.5 22q69 0 108 -42t39 -108q0 -64 -38.5 -104.5t-100.5 -40.5q-64 0 -100.5 34.5t-36.5 92.5h-162q0 -119 82.5 -193t216.5 -74z" />
    <glyph glyph-name="uni278F" unicode="&#x278f;" horiz-adv-x="1699" 
d="M850 -20q-165 0 -311 63t-248 169.5t-160.5 251t-58.5 304.5q0 162 58.5 307t160.5 251t247.5 168t311.5 62t311.5 -62t247.5 -168t160.5 -251t58.5 -307q0 -160 -58.5 -304.5t-160.5 -251t-248 -169.5t-311 -63zM850 356q124 0 206.5 71.5t82.5 193.5q0 125 -74.5 193.5
t-179.5 68.5q-63 0 -115.5 -31.5t-77.5 -93.5q-2 6 -2 24q0 127 44 192.5t118 65.5q55 0 88 -30.5t35 -81.5h153q0 109 -80 179.5t-198 70.5q-65 0 -122 -24.5t-103 -72.5t-72.5 -128.5t-26.5 -184.5q0 -208 90 -310t234 -102zM850 489q-55 0 -92 37t-37 95q0 56 37 92.5
t92 36.5q56 0 93.5 -36.5t37.5 -92.5q0 -58 -37.5 -95t-93.5 -37z" />
    <glyph glyph-name="uni2790" unicode="&#x2790;" horiz-adv-x="1699" 
d="M850 -20q-165 0 -311 63t-248 169.5t-160.5 251t-58.5 304.5q0 162 58.5 307t160.5 251t247.5 168t311.5 62t311.5 -62t247.5 -168t160.5 -251t58.5 -307q0 -160 -58.5 -304.5t-160.5 -251t-248 -169.5t-311 -63zM907 369v53q0 95 15 172t49 145.5t69 119t95 122.5v184
h-543v-139h407q-56 -64 -98 -123.5t-80.5 -135.5t-59 -166t-20.5 -189v-43h166z" />
    <glyph glyph-name="uni2791" unicode="&#x2791;" horiz-adv-x="1699" 
d="M850 -20q-165 0 -311 63t-248 169.5t-160.5 251t-58.5 304.5q0 162 58.5 307t160.5 251t247.5 168t311.5 62t311.5 -62t247.5 -168t160.5 -251t58.5 -307q0 -160 -58.5 -304.5t-160.5 -251t-248 -169.5t-311 -63zM850 356q136 0 216.5 66.5t80.5 177.5q0 62 -33.5 111.5
t-91.5 81.5q98 59 98 163q0 100 -73 161t-197 61q-122 0 -195 -61t-73 -161q0 -103 96 -163q-57 -32 -90 -82t-33 -111q0 -111 79.5 -177.5t215.5 -66.5zM850 848q-50 0 -79.5 27t-29.5 71q0 45 30 73t79 28q50 0 80.5 -28t30.5 -73q0 -44 -29.5 -71t-81.5 -27zM850 487
q-61 0 -97 34t-36 87q0 54 36 87.5t97 33.5q62 0 98.5 -33t36.5 -88q0 -53 -36.5 -87t-98.5 -34z" />
    <glyph glyph-name="uni2792" unicode="&#x2792;" horiz-adv-x="1699" 
d="M850 -20q-165 0 -311 63t-248 169.5t-160.5 251t-58.5 304.5q0 162 58.5 307t160.5 251t247.5 168t311.5 62t311.5 -62t247.5 -168t160.5 -251t58.5 -307q0 -160 -58.5 -304.5t-160.5 -251t-248 -169.5t-311 -63zM1010 752q-1 -130 -44.5 -194t-117.5 -64q-55 0 -88 30
t-35 80h-154q0 -108 80.5 -178t198.5 -70q137 0 230.5 103.5t93.5 304.5q0 107 -25.5 188.5t-70.5 129.5t-102 72t-126 24q-124 0 -206.5 -71.5t-82.5 -193.5q0 -125 75 -194.5t179 -69.5q64 0 116 32t77 95q2 -6 2 -24zM850 1042q55 0 92 -36.5t37 -92.5t-37 -92.5
t-92 -36.5q-56 0 -93.5 36.5t-37.5 92.5t37.5 92.5t93.5 36.5z" />
    <glyph glyph-name="uni2793" unicode="&#x2793;" horiz-adv-x="1699" 
d="M850 -20q-165 0 -311 63t-248 169.5t-160.5 251t-58.5 304.5q0 162 58.5 307t160.5 251t247.5 168t311.5 62t311.5 -62t247.5 -168t160.5 -251t58.5 -307q0 -160 -58.5 -304.5t-160.5 -251t-248 -169.5t-311 -63zM1075 358q142 0 226.5 103t84.5 307q0 203 -85 307.5
t-226 104.5t-227 -104.5t-86 -307.5q0 -204 85.5 -307t227.5 -103zM481 1143q0 -59 -24 -85t-80 -26h-47v-131h149v-532h168v796h-166v-22zM1075 506q-149 0 -149 262q0 135 39 201.5t110 66.5t109.5 -66.5t38.5 -201.5q0 -262 -148 -262z" />
    <glyph glyph-name="uni27F7" unicode="&#x27f7;" horiz-adv-x="1781" 
d="M1681 623l-434 -437l-102 103l260 262h-1028l260 -262l-102 -103l-435 437l435 434l102 -103l-264 -264h1036l-264 264l102 103z" />
    <glyph glyph-name="commaaccent" unicode="&#xf6c3;" horiz-adv-x="1024" 
d="M483 -430h-137l62 307h210z" />
    <glyph glyph-name="centinferior" unicode="&#xf6df;" horiz-adv-x="733" 
d="M709 -225q-12 -123 -93 -204t-204 -93v-156h-82v156q-133 14 -219 109.5t-86 236.5q0 138 86 233t219 109v153h82v-153q120 -12 200 -89t95 -194h-162q-10 55 -45.5 90.5t-87.5 46.5v-397q55 12 91.5 52t43.5 100h162zM184 -176q0 -83 38.5 -136t107.5 -65v397
q-67 -12 -106.5 -65t-39.5 -131z" />
    <glyph glyph-name="centsuperior" unicode="&#xf6e0;" horiz-adv-x="733" 
d="M709 823q-12 -123 -93 -204t-204 -93v-155h-82v155q-133 14 -219 109.5t-86 236.5q0 138 86 233t219 109v154h82v-154q120 -12 200 -88.5t95 -193.5h-162q-10 55 -45.5 90.5t-87.5 46.5v-397q55 12 91.5 51.5t43.5 99.5h162zM184 872q0 -83 38.5 -135.5t107.5 -64.5v397
q-67 -12 -106.5 -65.5t-39.5 -131.5z" />
    <glyph glyph-name="commainferior" unicode="&#xf6e1;" horiz-adv-x="284" 
d="M242 -444q0 -95 -101 -240h-86q60 91 80 160q-37 4 -61.5 31.5t-24.5 62.5q0 38 28 66t68 28q41 0 69 -31t28 -77z" />
    <glyph glyph-name="commasuperior" unicode="&#xf6e2;" horiz-adv-x="290" 
d="M242 604q0 -94 -101 -239h-86q61 92 80 159q-37 4 -61.5 31.5t-24.5 62.5q0 38 28.5 66.5t67.5 28.5q41 0 69 -31.5t28 -77.5z" />
    <glyph glyph-name="dollarinferior" unicode="&#xf6e3;" horiz-adv-x="671" 
d="M623 -291q0 -101 -67 -162t-177 -69v-156h-80v156q-111 12 -180.5 78.5t-69.5 173.5h156q0 -50 25.5 -82t68.5 -41v223q-31 10 -48.5 16.5t-45.5 19t-45 24.5t-37 30.5t-31 40t-18.5 50.5t-7.5 63q0 95 64.5 154t168.5 67v158h80v-160q103 -14 169 -81t66 -159h-155
q0 38 -21.5 67.5t-58.5 41.5v-205l50 -17t47 -19t47 -24.5t39 -31t33 -40.5t19.5 -51t8.5 -65zM219 80q0 -60 80 -94v182q-37 -8 -58.5 -30.5t-21.5 -57.5zM467 -299q0 65 -88 100v-198q88 16 88 98z" />
    <glyph glyph-name="dollarsuperior" unicode="&#xf6e4;" horiz-adv-x="671" 
d="M623 758q0 -101 -67 -162.5t-177 -69.5v-155h-80v155q-111 12 -180.5 78.5t-69.5 173.5h156q0 -50 25.5 -82t68.5 -41v224q-44 15 -68 24t-60.5 30t-55.5 43.5t-34 60.5t-15 85q0 95 64.5 154t168.5 67v158h80v-160q103 -14 169 -80.5t66 -158.5h-155q0 38 -21.5 67
t-58.5 41v-204l50 -17t47 -19t47 -24.5t39 -31t33 -40.5t19.5 -51t8.5 -65zM219 1128q0 -60 80 -94v183q-37 -8 -58.5 -31t-21.5 -58zM467 750q0 65 -88 100v-199q88 16 88 99z" />
    <glyph glyph-name="periodinferior" unicode="&#xf6e7;" horiz-adv-x="284" 
d="M145 -524q-42 0 -70 28t-28 70q0 41 27.5 68.5t70.5 27.5q42 0 70.5 -27.5t28.5 -68.5t-29 -69.5t-70 -28.5z" />
    <glyph glyph-name="periodsuperior" unicode="&#xf6e8;" horiz-adv-x="290" 
d="M145 524q-42 0 -70 28.5t-28 70.5q0 41 27.5 68.5t70.5 27.5q42 0 70.5 -27.5t28.5 -68.5t-29 -70t-70 -29z" />
    <glyph glyph-name="CR" horiz-adv-x="512" 
 />
    <glyph glyph-name="thinspace" horiz-adv-x="256" 
 />
    <glyph glyph-name="fi.cap" horiz-adv-x="1396" 
d="M152 0v1536h688v-188h-484v-504h422v-189h-422v-655h-204zM1245 0h-205v1536h205v-1536z" />
    <glyph glyph-name="fl.cap" horiz-adv-x="1777" 
d="M152 0v1536h688v-188h-484v-504h422v-189h-422v-655h-204zM1745 188v-188h-705v1536h205v-1348h500z" />
    <glyph glyph-name="germandbls.cap" horiz-adv-x="1986" 
d="M113 1180q0 190 107.5 283t279.5 93q173 0 282 -105t109 -304v-94h-205v88q0 115 -48.5 171t-137.5 56q-84 0 -133.5 -49t-49.5 -139q0 -83 46.5 -141.5t134.5 -118.5l166 -119q76 -54 127 -106t86.5 -131.5t35.5 -174.5q0 -197 -116 -303t-295 -106q-177 0 -294.5 109
t-117.5 300v115h205v-101q0 -108 56.5 -171.5t150.5 -63.5q96 0 151.5 52.5t55.5 144.5q0 88 -47.5 153.5t-135.5 126.5l-161 113q-119 82 -185.5 181t-66.5 241zM1106 1180q0 190 107.5 283t279.5 93q173 0 282 -105t109 -304v-94h-205v88q0 115 -48.5 171t-137.5 56
q-84 0 -133 -49t-49 -139q0 -83 46 -141.5t134 -118.5l166 -119q119 -83 184.5 -179t65.5 -233q0 -197 -116.5 -303t-295.5 -106q-177 0 -294.5 109t-117.5 300v115h205v-101q0 -108 56.5 -171.5t150.5 -63.5q96 0 151.5 52.5t55.5 144.5q0 88 -47 153.5t-135 126.5
l-162 113q-119 82 -185.5 181t-66.5 241z" />
    <glyph glyph-name="Schwa" horiz-adv-x="1167" 
d="M584 -20q-216 0 -334.5 133t-118.5 391v293h700v235q0 178 -62.5 257t-184.5 79q-121 0 -184.5 -79t-63.5 -257v-82h-205v82q0 258 118.5 391t334.5 133t334 -132.5t118 -391.5v-528q0 -259 -118 -391.5t-334 -132.5zM336 504q0 -178 63 -257t185 -79q121 0 184 79
t63 257v104h-495v-104z" />
    <glyph glyph-name="afii10021.bgr" horiz-adv-x="1236" 
d="M774 1536l301 -1348h142v-464h-189v276h-821v-276h-187v464h146l299 1348h309zM367 188h507l-253 1180z" />
    <glyph glyph-name="afii10024.bgr" horiz-adv-x="1515" 
d="M659 0v750l-409 -750h-242l445 795l-430 741h229l407 -741v741h205v-745l410 745h219l-428 -743l442 -793h-231l-412 754v-754h-205z" />
    <glyph glyph-name="afii10028.bgr" horiz-adv-x="1062" 
d="M809 0l-453 756v-756h-204v1536h204v-748l449 748h225l-461 -735l486 -801h-246z" />
    <glyph glyph-name="afii10029.bgr" horiz-adv-x="1044" 
d="M25 0l344 1536h307l344 -1536h-207l-291 1372l-291 -1372h-206z" />
    <glyph glyph-name="a.alt" horiz-adv-x="1259" 
d="M903 0v154q-61 -83 -147.5 -128.5t-188.5 -45.5q-212 0 -351.5 149.5t-139.5 382.5t139.5 382.5t351.5 149.5q102 0 188.5 -45.5t147.5 -128.5v154h205v-1024h-205zM592 856q-135 0 -223 -95.5t-88 -248.5t88 -248.5t223 -95.5t223 95.5t88 248.5t-88 248.5t-223 95.5z
" />
    <glyph glyph-name="g.alt" horiz-adv-x="1105" 
d="M1075 -211q0 -147 -124 -234t-378 -87h-34q-244 0 -366 76t-122 204q0 69 43.5 123.5t120.5 87.5q-65 31 -100 83.5t-35 119.5q0 79 48 137t136 84q-66 51 -103.5 124.5t-37.5 162.5q0 162 118.5 268t290.5 106q158 0 277 -92l29 43q19 29 38 39t56 10h153v-208h-182
q39 -76 39 -166q0 -163 -119 -269t-291 -106q-88 0 -167 31q-47 -8 -76 -37.5t-29 -71.5q0 -52 40 -81.5t116 -29.5h223q228 0 332 -84t104 -233zM532 467q93 0 153 57t60 146t-59.5 145.5t-153.5 56.5t-153.5 -56.5t-59.5 -145.5t60 -146t153 -57zM559 -360h12
q170 0 239 40t69 113q0 62 -61.5 97.5t-190.5 35.5h-121q-134 0 -197 -35.5t-63 -97.5q0 -73 69.5 -113t243.5 -40z" />
    <glyph glyph-name="agrave.alt" horiz-adv-x="1259" 
d="M506 1229l-189 307h228l131 -307h-170zM903 0v154q-61 -83 -147.5 -128.5t-188.5 -45.5q-212 0 -351.5 149.5t-139.5 382.5t139.5 382.5t351.5 149.5q102 0 188.5 -45.5t147.5 -128.5v154h205v-1024h-205zM592 856q-135 0 -223 -95.5t-88 -248.5t88 -248.5t223 -95.5
t223 95.5t88 248.5t-88 248.5t-223 95.5z" />
    <glyph glyph-name="aacute.alt" horiz-adv-x="1259" 
d="M680 1229h-170l131 307h227zM903 0v154q-61 -83 -147.5 -128.5t-188.5 -45.5q-212 0 -351.5 149.5t-139.5 382.5t139.5 382.5t351.5 149.5q102 0 188.5 -45.5t147.5 -128.5v154h205v-1024h-205zM592 856q-135 0 -223 -95.5t-88 -248.5t88 -248.5t223 -95.5t223 95.5
t88 248.5t-88 248.5t-223 95.5z" />
    <glyph glyph-name="acircumflex.alt" horiz-adv-x="1259" 
d="M428 1229h-170l213 307h225l213 -307h-170l-155 178zM903 0v154q-61 -83 -147.5 -128.5t-188.5 -45.5q-212 0 -351.5 149.5t-139.5 382.5t139.5 382.5t351.5 149.5q102 0 188.5 -45.5t147.5 -128.5v154h205v-1024h-205zM592 856q-135 0 -223 -95.5t-88 -248.5t88 -248.5
t223 -95.5t223 95.5t88 248.5t-88 248.5t-223 95.5z" />
    <glyph glyph-name="atilde.alt" horiz-adv-x="1259" 
d="M248 1233v102q0 197 168 197q45 0 90.5 -21.5t76.5 -48t67.5 -48t64.5 -21.5q65 0 65 80v55h140v-103q0 -196 -168 -196q-45 0 -90.5 21.5t-76.5 48t-67.5 48t-64.5 21.5q-66 0 -66 -80v-55h-139zM903 0v154q-61 -83 -147.5 -128.5t-188.5 -45.5q-212 0 -351.5 149.5
t-139.5 382.5t139.5 382.5t351.5 149.5q102 0 188.5 -45.5t147.5 -128.5v154h205v-1024h-205zM592 856q-135 0 -223 -95.5t-88 -248.5t88 -248.5t223 -95.5t223 95.5t88 248.5t-88 248.5t-223 95.5z" />
    <glyph glyph-name="adieresis.alt" horiz-adv-x="1259" 
d="M379 1264q-50 0 -84.5 34.5t-34.5 83.5q0 50 35 84.5t84 34.5q51 0 85 -34.5t34 -84.5t-34 -84t-85 -34zM788 1264q-50 0 -84 34t-34 84t34.5 84.5t83.5 34.5q51 0 85 -34.5t34 -84.5t-34 -84t-85 -34zM903 0v154q-61 -83 -147.5 -128.5t-188.5 -45.5
q-212 0 -351.5 149.5t-139.5 382.5t139.5 382.5t351.5 149.5q102 0 188.5 -45.5t147.5 -128.5v154h205v-1024h-205zM592 856q-135 0 -223 -95.5t-88 -248.5t88 -248.5t223 -95.5t223 95.5t88 248.5t-88 248.5t-223 95.5z" />
    <glyph glyph-name="amacron.alt" horiz-adv-x="1259" 
d="M874 1399v-137h-565v137h565zM903 0v154q-61 -83 -147.5 -128.5t-188.5 -45.5q-212 0 -351.5 149.5t-139.5 382.5t139.5 382.5t351.5 149.5q102 0 188.5 -45.5t147.5 -128.5v154h205v-1024h-205zM592 856q-135 0 -223 -95.5t-88 -248.5t88 -248.5t223 -95.5t223 95.5
t88 248.5t-88 248.5t-223 95.5z" />
    <glyph glyph-name="abreve.alt" horiz-adv-x="1259" 
d="M731 1536h162q0 -143 -84.5 -225t-224.5 -82q-139 0 -223.5 82t-84.5 225h162q0 -81 41.5 -120.5t104.5 -39.5q67 0 107 39t40 121zM903 0v154q-61 -83 -147.5 -128.5t-188.5 -45.5q-212 0 -351.5 149.5t-139.5 382.5t139.5 382.5t351.5 149.5q102 0 188.5 -45.5
t147.5 -128.5v154h205v-1024h-205zM592 856q-135 0 -223 -95.5t-88 -248.5t88 -248.5t223 -95.5t223 95.5t88 248.5t-88 248.5t-223 95.5z" />
    <glyph glyph-name="aring.alt" horiz-adv-x="1259" 
d="M584 1167q-94 0 -153.5 56t-59.5 139q0 81 60 137.5t153 56.5q95 0 155 -56.5t60 -137.5q0 -83 -60 -139t-155 -56zM584 1274q40 0 66 25t26 63t-26 63t-66 25q-37 0 -63.5 -25t-26.5 -63t26.5 -63t63.5 -25zM903 0v154q-61 -83 -147.5 -128.5t-188.5 -45.5
q-212 0 -351.5 149.5t-139.5 382.5t139.5 382.5t351.5 149.5q102 0 188.5 -45.5t147.5 -128.5v154h205v-1024h-205zM592 856q-135 0 -223 -95.5t-88 -248.5t88 -248.5t223 -95.5t223 95.5t88 248.5t-88 248.5t-223 95.5z" />
    <glyph glyph-name="aringacute.alt" horiz-adv-x="1259" 
d="M664 1679h-170l131 308h227zM584 1167q-94 0 -153.5 56t-59.5 139q0 81 60 137.5t153 56.5q95 0 155 -56.5t60 -137.5q0 -83 -60 -139t-155 -56zM584 1274q40 0 66 25t26 63t-26 63t-66 25q-37 0 -63.5 -25t-26.5 -63t26.5 -63t63.5 -25zM903 0v154
q-61 -83 -147.5 -128.5t-188.5 -45.5q-212 0 -351.5 149.5t-139.5 382.5t139.5 382.5t351.5 149.5q102 0 188.5 -45.5t147.5 -128.5v154h205v-1024h-205zM592 856q-135 0 -223 -95.5t-88 -248.5t88 -248.5t223 -95.5t223 95.5t88 248.5t-88 248.5t-223 95.5z" />
    <glyph glyph-name="aogonek.alt" horiz-adv-x="1259" 
d="M713 -340q0 27 9 58t18 52t35 59.5l36.5 53t47 61l44.5 56.5v154q-61 -83 -147.5 -128.5t-188.5 -45.5q-212 0 -351.5 149.5t-139.5 382.5t139.5 382.5t351.5 149.5q102 0 188.5 -45.5t147.5 -128.5v154h205v-1024h-82q-93 -125 -129.5 -196.5t-36.5 -125.5
q0 -43 25 -63.5t65 -20.5t65.5 20.5t31.5 57.5h149q0 -86 -69 -139t-181 -53q-106 0 -169.5 48t-63.5 132zM592 856q-135 0 -223 -95.5t-88 -248.5t88 -248.5t223 -95.5t223 95.5t88 248.5t-88 248.5t-223 95.5z" />
    <glyph glyph-name="ae.alt" horiz-adv-x="1994" 
d="M1919 512q0 -24 -4 -70h-803q19 -134 100.5 -208t210.5 -74q182 0 248 147h221q-47 -157 -172.5 -242t-304.5 -85q-184 0 -307 139v-119h-205v154q-61 -83 -147.5 -128.5t-188.5 -45.5q-212 0 -351.5 149.5t-139.5 382.5t139.5 382.5t351.5 149.5q102 0 188.5 -45.5
t147.5 -128.5v154h205v-119q123 139 307 139q219 0 361.5 -149t142.5 -383zM1415 864q-124 0 -203 -72.5t-98 -201.5h602q-19 129 -98.5 201.5t-202.5 72.5zM592 856q-135 0 -223 -95.5t-88 -248.5t88 -248.5t223 -95.5t223 95.5t88 248.5t-88 248.5t-223 95.5z" />
    <glyph glyph-name="aeacute.alt" horiz-adv-x="1994" 
d="M1100 1229h-170l131 307h227zM1919 512q0 -24 -4 -70h-803q19 -134 100.5 -208t210.5 -74q182 0 248 147h221q-47 -157 -172.5 -242t-304.5 -85q-184 0 -307 139v-119h-205v154q-61 -83 -147.5 -128.5t-188.5 -45.5q-212 0 -351.5 149.5t-139.5 382.5t139.5 382.5
t351.5 149.5q102 0 188.5 -45.5t147.5 -128.5v154h205v-119q123 139 307 139q219 0 361.5 -149t142.5 -383zM1415 864q-124 0 -203 -72.5t-98 -201.5h602q-19 129 -98.5 201.5t-202.5 72.5zM592 856q-135 0 -223 -95.5t-88 -248.5t88 -248.5t223 -95.5t223 95.5t88 248.5
t-88 248.5t-223 95.5z" />
    <glyph glyph-name="gcircumflex.alt" horiz-adv-x="1105" 
d="M377 1229h-170l213 307h225l213 -307h-170l-156 178zM1075 -211q0 -147 -124 -234t-378 -87h-34q-244 0 -366 76t-122 204q0 69 43.5 123.5t120.5 87.5q-65 31 -100 83.5t-35 119.5q0 79 48 137t136 84q-66 51 -103.5 124.5t-37.5 162.5q0 162 118.5 268t290.5 106
q158 0 277 -92l29 43q19 29 38 39t56 10h153v-208h-182q39 -76 39 -166q0 -163 -119 -269t-291 -106q-88 0 -167 31q-47 -8 -76 -37.5t-29 -71.5q0 -52 40 -81.5t116 -29.5h223q228 0 332 -84t104 -233zM532 467q93 0 153 57t60 146t-59.5 145.5t-153.5 56.5t-153.5 -56.5
t-59.5 -145.5t60 -146t153 -57zM559 -360h12q170 0 239 40t69 113q0 62 -61.5 97.5t-190.5 35.5h-121q-134 0 -197 -35.5t-63 -97.5q0 -73 69.5 -113t243.5 -40z" />
    <glyph glyph-name="gbreve.alt" horiz-adv-x="1105" 
d="M680 1536h162q0 -143 -85 -225t-225 -82q-139 0 -223 82t-84 225h162q0 -81 41 -120.5t104 -39.5q67 0 107.5 39t40.5 121zM1075 -211q0 -147 -124 -234t-378 -87h-34q-244 0 -366 76t-122 204q0 69 43.5 123.5t120.5 87.5q-65 31 -100 83.5t-35 119.5q0 79 48 137
t136 84q-66 51 -103.5 124.5t-37.5 162.5q0 162 118.5 268t290.5 106q158 0 277 -92l29 43q19 29 38 39t56 10h153v-208h-182q39 -76 39 -166q0 -163 -119 -269t-291 -106q-88 0 -167 31q-47 -8 -76 -37.5t-29 -71.5q0 -52 40 -81.5t116 -29.5h223q228 0 332 -84t104 -233z
M532 467q93 0 153 57t60 146t-59.5 145.5t-153.5 56.5t-153.5 -56.5t-59.5 -145.5t60 -146t153 -57zM559 -360h12q170 0 239 40t69 113q0 62 -61.5 97.5t-190.5 35.5h-121q-134 0 -197 -35.5t-63 -97.5q0 -73 69.5 -113t243.5 -40z" />
    <glyph glyph-name="gdotaccent.alt" horiz-adv-x="1105" 
d="M532 1247q-58 0 -96.5 39t-38.5 96q0 59 38.5 97.5t96.5 38.5q60 0 98 -38.5t38 -97.5q0 -58 -38.5 -96.5t-97.5 -38.5zM1075 -211q0 -147 -124 -234t-378 -87h-34q-244 0 -366 76t-122 204q0 69 43.5 123.5t120.5 87.5q-65 31 -100 83.5t-35 119.5q0 79 48 137t136 84
q-66 51 -103.5 124.5t-37.5 162.5q0 162 118.5 268t290.5 106q158 0 277 -92l29 43q19 29 38 39t56 10h153v-208h-182q39 -76 39 -166q0 -163 -119 -269t-291 -106q-88 0 -167 31q-47 -8 -76 -37.5t-29 -71.5q0 -52 40 -81.5t116 -29.5h223q228 0 332 -84t104 -233zM532 467
q93 0 153 57t60 146t-59.5 145.5t-153.5 56.5t-153.5 -56.5t-59.5 -145.5t60 -146t153 -57zM559 -360h12q170 0 239 40t69 113q0 62 -61.5 97.5t-190.5 35.5h-121q-134 0 -197 -35.5t-63 -97.5q0 -73 69.5 -113t243.5 -40z" />
    <glyph glyph-name="gcommaaccent.alt" horiz-adv-x="1105" 
d="M578 1597h137l-62 -307h-211zM1075 -211q0 -147 -124 -234t-378 -87h-34q-244 0 -366 76t-122 204q0 69 43.5 123.5t120.5 87.5q-65 31 -100 83.5t-35 119.5q0 79 48 137t136 84q-66 51 -103.5 124.5t-37.5 162.5q0 162 118.5 268t290.5 106q158 0 277 -92l29 43
q19 29 38 39t56 10h153v-208h-182q39 -76 39 -166q0 -163 -119 -269t-291 -106q-88 0 -167 31q-47 -8 -76 -37.5t-29 -71.5q0 -52 40 -81.5t116 -29.5h223q228 0 332 -84t104 -233zM532 467q93 0 153 57t60 146t-59.5 145.5t-153.5 56.5t-153.5 -56.5t-59.5 -145.5t60 -146
t153 -57zM559 -360h12q170 0 239 40t69 113q0 62 -61.5 97.5t-190.5 35.5h-121q-134 0 -197 -35.5t-63 -97.5q0 -73 69.5 -113t243.5 -40z" />
    <glyph glyph-name="idotaccent" horiz-adv-x="507" 
d="M254 1247q-58 0 -96.5 39t-38.5 96q0 59 38.5 97.5t96.5 38.5q60 0 97.5 -38.5t37.5 -97.5q0 -58 -38 -96.5t-97 -38.5zM356 0h-204v1024h204v-1024z" />
    <glyph glyph-name="schwa" horiz-adv-x="1159" 
d="M76 512q0 24 4 70h803q-19 134 -101 208t-211 74q-181 0 -247 -147h-222q47 157 173 242t305 85q219 0 361 -149t142 -383t-142 -383t-361 -149t-361.5 149t-142.5 383zM580 160q124 0 203 72.5t98 201.5h-602q19 -129 98.5 -201.5t202.5 -72.5z" />
    <glyph glyph-name="afii10065.alt" horiz-adv-x="1259" 
d="M903 0v154q-61 -83 -147.5 -128.5t-188.5 -45.5q-212 0 -351.5 149.5t-139.5 382.5t139.5 382.5t351.5 149.5q102 0 188.5 -45.5t147.5 -128.5v154h205v-1024h-205zM592 856q-135 0 -223 -95.5t-88 -248.5t88 -248.5t223 -95.5t223 95.5t88 248.5t-88 248.5t-223 95.5z
" />
    <glyph glyph-name="afii10067.bgr" horiz-adv-x="1110" 
d="M1034 442q0 -205 -121 -333.5t-346 -128.5q-217 0 -342 127.5t-125 336.5v676q0 194 117.5 315t331.5 121t331 -111.5t117 -287.5q0 -119 -53.5 -208.5t-148.5 -135.5q112 -46 175.5 -139t63.5 -232zM305 1126v-239h211q277 0 277 268q0 107 -65.5 168t-178.5 61
t-178.5 -69t-65.5 -189zM305 446q0 -130 68.5 -204t193.5 -74t193.5 72t68.5 200q0 129 -85.5 202t-229.5 73h-209v-269z" />
    <glyph glyph-name="afii10068.bgr" horiz-adv-x="1032" 
d="M90 276q0 77 27 134t71 88.5t100 54.5t114.5 33.5t114.5 24.5t100 28.5t71 44t27 72.5q0 58 -51 91.5t-136 33.5q-89 0 -147.5 -49t-58.5 -121h-213q0 141 120 237t299 96q170 0 281 -79t111 -209q0 -85 -34 -144t-88.5 -88.5t-120 -48.5t-131.5 -32t-120.5 -29.5
t-88.5 -49.5t-34 -85q0 -68 51.5 -103t145.5 -35q102 0 165.5 49t63.5 140h213q0 -163 -124 -256.5t-318 -93.5q-180 0 -295 81t-115 215z" />
    <glyph glyph-name="afii10069.bgr" horiz-adv-x="1261" 
d="M1110 -8q0 -152 -67.5 -272.5t-182 -186t-254.5 -65.5q-200 0 -338 121.5t-166 320.5h207q20 -117 99 -185.5t198 -68.5q139 0 219 93t80 243v162q-61 -83 -147.5 -128.5t-188.5 -45.5q-212 0 -351.5 149.5t-139.5 382.5t139.5 382.5t351.5 149.5q102 0 188.5 -45.5
t147.5 -128.5v154h205v-1032zM594 168q135 0 223 95.5t88 248.5t-88 248.5t-223 95.5t-223 -95.5t-88 -248.5t88 -248.5t223 -95.5z" />
    <glyph glyph-name="afii10072.bgr" horiz-adv-x="1652" 
d="M727 0v535l-444 -535h-258l477 557l-441 467h273l393 -451v963h205v-965l395 453h262l-430 -467l469 -557h-252l-444 539v-539h-205z" />
    <glyph glyph-name="afii10073.bgr" horiz-adv-x="1101" 
d="M1026 -70q0 -206 -121 -334t-348 -128q-217 0 -346 131.5t-133 359.5h213q5 -151 74 -235t194 -84q129 0 195.5 81.5t66.5 208.5q0 124 -69 200.5t-217 76.5h-152v186h160q110 0 179 62.5t69 177.5q0 116 -62.5 177.5t-173.5 61.5q-109 0 -176 -63t-74 -184h-213
q4 88 35.5 163.5t88.5 132.5t144 90t195 33q107 0 191.5 -31.5t138 -86t81 -125.5t27.5 -154q0 -244 -207 -338q240 -93 240 -379z" />
    <glyph glyph-name="afii10074.bgr" horiz-adv-x="1187" 
d="M831 0v164q-47 -90 -125.5 -137t-179.5 -47q-172 0 -278.5 114t-106.5 334v596h205v-555q0 -151 64 -230t180 -79q114 0 177.5 79t63.5 230v555h205v-1024h-205z" />
    <glyph glyph-name="afii10075.bgr" horiz-adv-x="1187" 
d="M731 1536h162q0 -143 -84.5 -225t-224.5 -82q-139 0 -223.5 82t-84.5 225h162q0 -81 41.5 -120.5t104.5 -39.5q67 0 107 39t40 121zM831 0v164q-47 -90 -125.5 -137t-179.5 -47q-172 0 -278.5 114t-106.5 334v596h205v-555q0 -151 64 -230t180 -79q114 0 177.5 79
t63.5 230v555h205v-1024h-205z" />
    <glyph glyph-name="afii10076.bgr" horiz-adv-x="1130" 
d="M846 0l-490 539v-539h-204v1536h204v-967l441 455h272l-481 -467l518 -557h-260z" />
    <glyph glyph-name="afii10077.bgr" horiz-adv-x="1024" 
d="M20 0l349 1024h286l349 -1024h-213l-279 860l-279 -860h-213z" />
    <glyph glyph-name="afii10079.bgr" horiz-adv-x="1208" 
d="M848 0v424h-492v-424h-204v1024h204v-414h492v414h205v-1024h-205z" />
    <glyph glyph-name="afii10081.bgr" horiz-adv-x="1198" 
d="M356 559v-559h-204v1024h204v-162q47 88 128.5 135t183.5 47q175 0 282 -113t107 -331v-600h-205v559q0 150 -65 227.5t-183 77.5t-183 -77.5t-65 -227.5z" />
    <glyph glyph-name="afii10084.bgr" horiz-adv-x="1792" 
d="M356 588v-588h-204v1024h204v-143q44 79 118 121t167 42q112 0 196.5 -51t127.5 -151q44 99 128.5 150.5t196.5 51.5q162 0 261.5 -106t99.5 -309v-629h-205v588q0 136 -57.5 206t-161.5 70q-106 0 -164.5 -70t-58.5 -206v-588h-205v588q0 136 -58 206t-163 70
t-163.5 -70t-58.5 -206z" />
    <glyph glyph-name="afii10088.bgr" horiz-adv-x="1239" 
d="M1180 188v-464h-189v276h-160v164q-47 -90 -125.5 -137t-179.5 -47q-172 0 -278.5 114t-106.5 334v596h205v-555q0 -151 64 -230t180 -79q114 0 177.5 79t63.5 230v555h205v-836h144z" />
    <glyph glyph-name="afii10089.bgr" horiz-adv-x="1116" 
d="M561 541q40 0 77.5 3.5t57.5 7t42 8.5t24 5v459h205v-1024h-205v381q-125 -29 -217 -29q-229 0 -339 105t-110 334v233h205v-231q0 -134 65 -193t195 -59z" />
    <glyph glyph-name="afii10090.bgr" horiz-adv-x="1792" 
d="M1436 0v143q-44 -79 -118 -121t-167 -42q-112 0 -196.5 51t-127.5 151q-44 -99 -128.5 -150.5t-196.5 -51.5q-162 0 -261.5 106t-99.5 309v629h205v-588q0 -136 57.5 -206t161.5 -70q106 0 164.5 70t58.5 206v588h205v-588q0 -136 58 -206t163 -70t163.5 70t58.5 206v588
h204v-1024h-204z" />
    <glyph glyph-name="afii10091.bgr" horiz-adv-x="1843" 
d="M1784 188v-464h-189v276h-159v143q-44 -79 -118 -121t-167 -42q-112 0 -196.5 51t-127.5 151q-44 -99 -128.5 -150.5t-196.5 -51.5q-162 0 -261.5 106t-99.5 309v629h205v-588q0 -136 57.5 -206t161.5 -70q106 0 164.5 70t58.5 206v588h205v-588q0 -136 58 -206t163 -70
t163.5 70t58.5 206v588h204v-836h144z" />
    <glyph glyph-name="afii10092.bgr" horiz-adv-x="1251" 
d="M37 836v188h481v-281q123 13 225 13q215 0 328 -100.5t113 -278.5q0 -177 -113 -287t-323 -110q-205 0 -320 114t-115 318v424h-276zM518 414q0 -120 60 -183t170 -63q231 0 231 207q0 96 -60.5 146t-177.5 50q-121 0 -223 -12v-145z" />
    <glyph glyph-name="afii10094.bgr" horiz-adv-x="1073" 
d="M1006 377q0 -177 -113.5 -287t-323.5 -110q-205 0 -319.5 114t-114.5 318v612h205v-281q123 13 225 13q215 0 328 -100.5t113 -278.5zM340 414q0 -120 59.5 -183t169.5 -63q232 0 232 207q0 96 -60.5 146t-177.5 50q-121 0 -223 -12v-145z" />
    <glyph glyph-name="afii10096.bgr" horiz-adv-x="1597" 
d="M1522 512q0 -233 -144 -382.5t-364 -149.5q-197 0 -335.5 122.5t-166.5 321.5h-156v-424h-204v1536h204v-926h158q29 195 167 314.5t333 119.5q220 0 364 -149.5t144 -382.5zM1014 168q131 0 217 95.5t86 248.5t-86 248.5t-217 95.5t-217 -95.5t-86 -248.5t86 -248.5
t217 -95.5z" />
    <glyph glyph-name="afii10066.locl" horiz-adv-x="1187" 
d="M1112 512q0 -233 -147 -382.5t-371 -149.5t-371 149.5t-147 382.5q0 145 61 255.5t172 174.5q-180 68 -180 258q0 140 93 214.5t280 74.5h280q47 0 65.5 11.5t20.5 35.5h205q-3 -129 -66 -182.5t-219 -53.5h-270q-184 0 -184 -110q0 -48 20 -75t76.5 -44.5t163.5 -26.5
q242 -24 380 -162.5t138 -369.5zM594 168q135 0 224 95.5t89 248.5t-89 248.5t-224 95.5t-224 -95.5t-89 -248.5t89 -248.5t224 -95.5z" />
    <glyph glyph-name="afii10068.locl" horiz-adv-x="874" 
d="M152 0v1024h673v-188h-469v-836h-204z" />
    <glyph glyph-name="afii10069.locl" horiz-adv-x="1222" 
d="M977 -276v276h-752v-276h-188v464h100q46 86 69.5 256t26.5 580h789v-836h143v-464h-188zM397 432q-22 -166 -53 -244h473v648h-397q-3 -248 -23 -404z" />
    <glyph glyph-name="afii10081.locl" horiz-adv-x="1175" 
d="M152 0v1024h872v-1024h-205v836h-463v-836h-204z" />
    <glyph glyph-name="afii10084.locl" horiz-adv-x="942" 
d="M37 836v188h868v-188h-332v-836h-204v836h-332z" />
    <glyph glyph-name="a.superior" horiz-adv-x="733" 
d="M496 537v114q-61 -127 -224 -127q-92 0 -156.5 49t-64.5 140q0 58 24 97.5t63 58.5t85.5 30.5t93 17.5t85.5 14t63 25.5t24 47.5q0 43 -34 67.5t-88 24.5q-61 0 -96 -30.5t-35 -88.5h-164q0 63 25 110.5t68 75t95 41t111 13.5q124 0 206 -54t82 -166v-460h-163zM219 725
q0 -37 29.5 -58.5t75.5 -21.5q71 0 120.5 42.5t49.5 115.5v51q-30 -16 -83 -27t-92 -17.5t-69.5 -27.5t-30.5 -57z" />
    <glyph glyph-name="b.superior" horiz-adv-x="819" 
d="M776 870q0 -154 -87 -250t-222 -96t-215 113v-100h-166v999h168v-428q82 109 213 109q135 0 222 -96t87 -251zM432 1069q-77 0 -127.5 -55.5t-50.5 -143.5q0 -87 50.5 -141.5t127.5 -54.5q79 0 129.5 54.5t50.5 141.5q0 89 -50.5 144t-129.5 55z" />
    <glyph glyph-name="c.superior" horiz-adv-x="761" 
d="M547 932q-9 64 -55 100.5t-111 36.5q-76 0 -125 -55.5t-49 -143.5q0 -89 48.5 -142.5t125.5 -53.5q67 0 114 39.5t54 109.5h170q-9 -132 -103 -215.5t-235 -83.5q-147 0 -242.5 97t-95.5 249q0 153 95.5 250t242.5 97q138 0 230 -78.5t106 -206.5h-170z" />
    <glyph glyph-name="d.superior" horiz-adv-x="819" 
d="M567 537v100q-80 -113 -215 -113t-222 96t-87 250q0 155 87 251t222 96q131 0 213 -109v428h168v-999h-166zM387 1069q-78 0 -128 -55t-50 -144q0 -87 50 -141.5t128 -54.5q77 0 127.5 54.5t50.5 141.5q0 88 -50.5 143.5t-127.5 55.5z" />
    <glyph glyph-name="e.superior" horiz-adv-x="753" 
d="M711 870q0 -29 -2 -45h-506q10 -78 57 -120.5t121 -42.5q109 0 145 86h170q-32 -107 -115 -165.5t-204 -58.5q-146 0 -240 97t-94 249q0 153 93.5 250t240.5 97t240.5 -97t93.5 -250zM377 1079q-71 0 -115.5 -40t-56.5 -115h344q-12 74 -57 114.5t-115 40.5z" />
    <glyph glyph-name="f.superior" horiz-adv-x="505" 
d="M297 1294v-90h174v-135h-174v-532h-170v532h-104v135h104v94q0 123 68.5 186.5t181.5 63.5q66 0 104 -14v-137q-34 12 -80 12q-104 0 -104 -115z" />
    <glyph glyph-name="g.superior" horiz-adv-x="819" 
d="M733 524q0 -147 -96.5 -240.5t-239.5 -93.5q-137 0 -229 79t-111 210h164q11 -68 57 -108.5t115 -40.5q81 0 126.5 52.5t45.5 141.5v109q-82 -109 -213 -109q-135 0 -222 96t-87 250t87 250.5t222 96.5t215 -113v100h166v-680zM387 672q77 0 127.5 55t50.5 143
q0 87 -50.5 143t-127.5 56q-78 0 -128 -55.5t-50 -143.5q0 -89 49.5 -143.5t128.5 -54.5z" />
    <glyph glyph-name="h.superior" horiz-adv-x="778" 
d="M254 901v-364h-168v999h168v-430q31 54 82.5 82.5t116.5 28.5q110 0 178.5 -71t68.5 -204v-405h-168v364q0 176 -139 176t-139 -176z" />
    <glyph glyph-name="i.superior" horiz-adv-x="337" 
d="M170 1329q-44 0 -74 30t-30 73q0 42 30 71t74 29t73 -29t29 -71q0 -43 -29 -73t-73 -30zM254 537h-168v667h168v-667z" />
    <glyph glyph-name="j.superior" horiz-adv-x="337" 
d="M170 1329q-44 0 -74 30t-30 73q0 42 30 71t74 29t73 -29t29 -71q0 -43 -29 -73t-73 -30zM86 430v774h168v-778q0 -227 -223 -227q-26 0 -82 8v139q16 -4 49 -4q44 0 66 19t22 69z" />
    <glyph glyph-name="k.superior" horiz-adv-x="735" 
d="M537 537l-283 346v-346h-168v999h168v-625l260 293h203l-289 -305l315 -362h-206z" />
    <glyph glyph-name="l.superior" horiz-adv-x="337" 
d="M254 537h-168v999h168v-999z" />
    <glyph glyph-name="m.superior" horiz-adv-x="1165" 
d="M254 918v-381h-168v667h166v-94q60 107 186 107q72 0 127 -33.5t82 -98.5q28 64 82 98t127 34q104 0 167.5 -67t63.5 -194v-419h-167v381q0 80 -32 119.5t-91 39.5q-127 0 -127 -159v-381h-168v381q0 159 -125 159q-123 0 -123 -159z" />
    <glyph glyph-name="n.superior" horiz-adv-x="778" 
d="M254 901v-364h-168v667h166v-102q62 115 201 115q110 0 178.5 -71t68.5 -204v-405h-168v364q0 176 -139 176t-139 -176z" />
    <glyph glyph-name="o.superior" horiz-adv-x="772" 
d="M387 524q-149 0 -246.5 96.5t-97.5 249.5q0 154 97.5 250.5t246.5 96.5q148 0 245 -96.5t97 -250.5q0 -152 -97 -249t-245 -97zM387 674q77 0 127.5 54.5t50.5 141.5q0 88 -50.5 143.5t-127.5 55.5q-79 0 -129.5 -55t-50.5 -144q0 -87 50.5 -141.5t129.5 -54.5z" />
    <glyph glyph-name="p.superior" horiz-adv-x="819" 
d="M467 524q-131 0 -213 109v-428h-168v999h166v-98q81 111 215 111q135 0 222 -96t87 -251q0 -154 -87 -250t-222 -96zM432 674q79 0 129.5 54.5t50.5 141.5q0 89 -50.5 144t-129.5 55q-77 0 -127.5 -55.5t-50.5 -143.5q0 -87 50.5 -141.5t127.5 -54.5z" />
    <glyph glyph-name="q.superior" horiz-adv-x="819" 
d="M733 1204v-999h-168v428q-82 -109 -213 -109q-135 0 -222 96t-87 250q0 155 87 251t222 96q134 0 215 -111v98h166zM387 674q77 0 127.5 54.5t50.5 141.5q0 88 -50.5 143.5t-127.5 55.5q-78 0 -128 -55t-50 -144q0 -87 50 -141.5t128 -54.5z" />
    <glyph glyph-name="r.superior" horiz-adv-x="509" 
d="M254 889v-352h-168v665h162v-108q60 123 192 123q28 0 41 -5v-170q-33 11 -69 11q-76 0 -117 -41.5t-41 -122.5z" />
    <glyph glyph-name="s.superior" horiz-adv-x="671" 
d="M623 731q0 -95 -77.5 -151t-199.5 -56q-130 0 -213.5 62t-83.5 168h160q0 -53 37.5 -82t97.5 -29q56 0 86.5 21t30.5 61q0 28 -22 45.5t-57.5 26.5t-78 16.5t-85 20t-78 32.5t-57.5 58.5t-22 93.5q0 92 75 145.5t190 53.5q121 0 202.5 -63t81.5 -157h-159q0 44 -35 72.5
t-88 28.5q-48 0 -77.5 -20t-29.5 -56q0 -25 22 -41t57.5 -24.5t78.5 -16t86 -20.5t78.5 -33.5t57.5 -60t22 -95.5z" />
    <glyph glyph-name="t.superior" horiz-adv-x="520" 
d="M291 776q0 -58 24.5 -84t77.5 -26q38 0 78 14v-139q-53 -17 -111 -17q-112 0 -174.5 55.5t-62.5 188.5v301h-100v135h100v187h168v-187h180v-135h-180v-293z" />
    <glyph glyph-name="u.superior" horiz-adv-x="772" 
d="M522 537v104q-29 -58 -81 -88.5t-117 -30.5q-110 0 -178 72t-68 207v403h168v-364q0 -87 36 -131.5t101 -44.5q66 0 101.5 44t35.5 132v364h168v-667h-166z" />
    <glyph glyph-name="v.superior" horiz-adv-x="665" 
d="M657 1204l-200 -667h-248l-199 667h168l156 -573l153 573h170z" />
    <glyph glyph-name="w.superior" horiz-adv-x="1017" 
d="M1004 1204l-162 -667h-211l-121 550l-121 -550h-213l-160 667h154l119 -555l121 555h198l123 -555l119 555h154z" />
    <glyph glyph-name="x.superior" horiz-adv-x="692" 
d="M502 537l-160 247l-149 -247h-189l229 344l-215 323h185l145 -231l144 231h184l-217 -323l229 -344h-186z" />
    <glyph glyph-name="y.superior" horiz-adv-x="667" 
d="M434 504q-47 -154 -117 -231.5t-194 -77.5q-43 0 -111 14v133q47 -14 90 -14q105 0 160 98l-256 778h166l162 -561l162 561h163z" />
    <glyph glyph-name="z.superior" horiz-adv-x="626" 
d="M594 674v-137h-549v172l367 360h-361v135h516v-170l-366 -360h393z" />
    <glyph glyph-name="grave.cap" horiz-adv-x="1024" 
d="M434 1720l-188 308h227l131 -308h-170z" />
    <glyph glyph-name="acute.cap" horiz-adv-x="1024" 
d="M608 1720h-170l131 308h228z" />
    <glyph glyph-name="circumflex.cap" horiz-adv-x="1024" 
d="M356 1720h-170l213 308h226l213 -308h-170l-156 178z" />
    <glyph glyph-name="caron.cap" horiz-adv-x="1024" 
d="M838 2028l-213 -308h-226l-213 308h170l156 -179l156 179h170z" />
    <glyph glyph-name="caronSlovak" horiz-adv-x="1024" 
d="M598 1536h199l-90 -379h-117z" />
    <glyph glyph-name="tilde.cap" horiz-adv-x="1024" 
d="M176 1724v103q0 196 168 196q45 0 90.5 -21.5t76.5 -48t67.5 -48t64.5 -21.5q66 0 66 80v55h139v-102q0 -197 -168 -197q-45 0 -90.5 22t-76.5 48t-67.5 48t-64.5 22q-66 0 -66 -80v-56h-139z" />
    <glyph glyph-name="dieresis.cap" horiz-adv-x="1024" 
d="M307 1755q-49 0 -84 34.5t-35 84.5t35 84.5t84 34.5q51 0 85 -34.5t34 -84.5t-34 -84.5t-85 -34.5zM717 1755q-49 0 -84 34.5t-35 84.5t35 84.5t84 34.5q51 0 85 -34.5t34 -84.5t-34 -84.5t-85 -34.5z" />
    <glyph glyph-name="macron.cap" horiz-adv-x="1024" 
d="M803 1890v-137h-565v137h565z" />
    <glyph glyph-name="breve.cap" horiz-adv-x="1024" 
d="M659 2028h162q0 -143 -84.5 -225.5t-224.5 -82.5q-138 0 -222.5 82.5t-84.5 225.5h162q0 -81 41 -120.5t104 -39.5q67 0 107 39t40 121z" />
    <glyph glyph-name="brevecyrillic" horiz-adv-x="1024" 
d="M657 1536h164q0 -143 -84.5 -225t-224.5 -82q-139 0 -223 82t-84 225h164q0 -81 40.5 -121.5t102.5 -40.5q66 0 105.5 40t39.5 122z" />
    <glyph glyph-name="brevecyrillic.cap" horiz-adv-x="1024" 
d="M657 2028h164q0 -143 -84.5 -225.5t-224.5 -82.5q-138 0 -222.5 82.5t-84.5 225.5h164q0 -81 40.5 -121.5t102.5 -40.5q66 0 105.5 40t39.5 122z" />
    <glyph glyph-name="ring.cap" horiz-adv-x="1024" 
d="M512 1659q-94 0 -153.5 55.5t-59.5 138.5q0 81 60 138t153 57q95 0 155 -57t60 -138q0 -83 -60 -138.5t-155 -55.5zM512 1765q40 0 66 25t26 63t-26 63.5t-66 25.5q-37 0 -63.5 -25.5t-26.5 -63.5t26.5 -63t63.5 -25z" />
    <glyph glyph-name="hungarumlaut.cap" horiz-adv-x="1024" 
d="M408 1720h-138l62 308h211zM776 1720h-137l61 308h211z" />
    <glyph glyph-name="dotaccent.cap" horiz-adv-x="1024" 
d="M512 1739q-58 0 -96.5 39t-38.5 96q0 58 38.5 96.5t96.5 38.5q60 0 97.5 -38t37.5 -97q0 -58 -38 -96.5t-97 -38.5z" />
    <glyph glyph-name="commaaccent.alt" horiz-adv-x="1024" 
d="M557 1536h137l-61 -307h-211z" />
    <glyph glyph-name="hyphen.cap" horiz-adv-x="716" 
d="M606 674h-495v188h495v-188z" />
    <glyph glyph-name="exclamdown.cap" horiz-adv-x="524" 
d="M262 1556q54 0 90.5 -36.5t36.5 -89.5t-37 -91.5t-90 -38.5q-52 0 -90.5 38.5t-38.5 91.5q0 52 38 89t91 37zM168 1024h188l17 -1024h-221z" />
    <glyph glyph-name="questiondown.cap" horiz-adv-x="1017" 
d="M504 1556q52 0 89.5 -37.5t37.5 -88.5q0 -53 -37.5 -91.5t-89.5 -38.5q-54 0 -91.5 38.5t-37.5 91.5q0 51 37.5 88.5t91.5 37.5zM59 371q0 63 19 117.5t49 94.5t66.5 76l73.5 70t68 69t51 81.5t22 99.5l2 45h188v-55q0 -62 -18.5 -117.5t-48 -96.5t-65 -78.5l-71 -72
t-65 -69t-48 -76.5t-18.5 -88q0 -97 62 -150t176 -53q112 0 181 65.5t69 204.5v58h206v-78q0 -107 -36.5 -192t-100 -138t-145 -80.5t-174.5 -27.5q-203 0 -323 103t-120 288z" />
    <glyph glyph-name="guilsinglleft.cap" horiz-adv-x="655" 
d="M553 360l-451 304v208l451 304v-191l-344 -217l344 -217v-191z" />
    <glyph glyph-name="guilsinglright.cap" horiz-adv-x="655" 
d="M102 1176l451 -304v-208l-451 -304v191l344 217l-344 217v191z" />
    <glyph glyph-name="guillemotleft.cap" horiz-adv-x="1187" 
d="M553 360l-451 304v208l451 304v-191l-344 -217l344 -217v-191zM1085 360l-450 304v208l450 304v-191l-344 -217l344 -217v-191z" />
    <glyph glyph-name="guillemotright.cap" horiz-adv-x="1187" 
d="M635 1176l450 -304v-208l-450 -304v191l344 217l-344 217v191zM102 1176l451 -304v-208l-451 -304v191l344 217l-344 217v191z" />
    <glyph glyph-name="slash.OP" horiz-adv-x="800" 
d="M117 -307h-150l615 1843h149z" />
    <glyph glyph-name="backslash.OP" horiz-adv-x="800" 
d="M684 -307l-614 1843h149l615 -1843h-150z" />
    <glyph glyph-name="endash.cap" horiz-adv-x="1024" 
d="M922 698h-820v140h820v-140z" />
    <glyph glyph-name="emdash.cap" horiz-adv-x="2048" 
d="M1946 698h-1844v140h1844v-140z" />
    <glyph glyph-name="periodcentered.cap" horiz-adv-x="501" 
d="M250 643q-58 0 -96.5 39t-38.5 96q0 58 38.5 96.5t96.5 38.5q61 0 99 -38t38 -97q0 -58 -38 -96.5t-99 -38.5z" />
    <glyph glyph-name="parenleft.cap" horiz-adv-x="696" 
d="M197 768q0 534 315 952h172q-299 -399 -299 -952t299 -952h-172q-315 418 -315 952z" />
    <glyph glyph-name="parenright.cap" horiz-adv-x="696" 
d="M500 768q0 -533 -316 -952h-172q299 399 299 952t-299 952h172q316 -419 316 -952z" />
    <glyph glyph-name="bracketleft.cap" horiz-adv-x="696" 
d="M221 -184v1904h465v-155h-276v-1594h276v-155h-465z" />
    <glyph glyph-name="bracketright.cap" horiz-adv-x="696" 
d="M10 1565v155h465v-1904h-465v155h277v1594h-277z" />
    </font>
</defs>
</svg>
