<svg width="714" height="335" viewBox="0 0 714 335" fill="none" xmlns="http://www.w3.org/2000/svg">
<rect x="629.5" y="71.5" width="84" height="108.677" fill="#B2B3B3" stroke="black"/>
<rect x="649.608" y="86.125" width="44.6989" height="28.2473" fill="#ACDBF1" stroke="black"/>
<circle cx="671.043" cy="139.546" r="4.98387" fill="#00A85A" stroke="black"/>
<circle cx="684.753" cy="139.546" r="4.98387" fill="#00A65A" stroke="black"/>
<circle cx="684.753" cy="153.257" r="4.98387" fill="#DA2C1C" stroke="black"/>
<circle cx="671.043" cy="153.257" r="4.98387" fill="#DB2C1C" stroke="black"/>
<circle cx="658.247" cy="153.257" r="4.98387" fill="#DB2C1C" stroke="black"/>
<circle cx="658.247" cy="139.546" r="4.98387" fill="#00A85B" stroke="black"/>
<circle cx="356" cy="239" r="24.5" stroke="black"/>
<path d="M355.201 231.227V230.25H358.204V249H355.201V236.5H351.698V233.998H352.406C353.399 233.998 354.111 233.782 354.542 233.351C354.981 232.919 355.201 232.211 355.201 231.227Z" fill="black"/>
<circle cx="456" cy="283" r="24.5" stroke="black"/>
<path d="M460.694 279.353C460.694 280.044 460.584 280.72 460.365 281.379C460.153 282.03 459.868 282.62 459.51 283.149C459.16 283.67 458.77 284.178 458.338 284.675C457.915 285.171 457.472 285.651 457.008 286.115C456.552 286.571 456.125 287.014 455.726 287.446C455.335 287.877 454.986 288.337 454.676 288.825C454.375 289.313 454.168 289.79 454.054 290.253H460.951V293H450.794V291.547C450.794 290.929 450.872 290.331 451.026 289.753C451.189 289.175 451.401 288.65 451.661 288.178C451.93 287.706 452.235 287.246 452.577 286.799C452.927 286.351 453.293 285.932 453.675 285.542C454.058 285.143 454.44 284.752 454.823 284.37C455.205 283.979 455.567 283.588 455.909 283.198C456.259 282.807 456.564 282.417 456.825 282.026C457.093 281.635 457.305 281.212 457.459 280.756C457.622 280.292 457.704 279.825 457.704 279.353C457.704 278.474 457.537 277.823 457.203 277.399C456.878 276.968 456.426 276.752 455.848 276.752C455.23 276.752 454.758 276.964 454.432 277.387C454.115 277.81 453.956 278.514 453.956 279.499V281H450.953V279.255C450.953 278.148 451.173 277.192 451.612 276.386C452.06 275.581 452.646 274.982 453.37 274.592C454.103 274.201 454.929 274.006 455.848 274.006C457.248 274.006 458.403 274.474 459.315 275.41C460.235 276.337 460.694 277.652 460.694 279.353Z" fill="black"/>
<circle cx="556" cy="239" r="24.5" stroke="black"/>
<path d="M561.5 244.251C561.5 245.301 561.256 246.209 560.768 246.974C560.287 247.739 559.645 248.308 558.839 248.683C558.041 249.057 557.138 249.244 556.129 249.244C555.12 249.244 554.212 249.057 553.407 248.683C552.609 248.308 551.966 247.739 551.478 246.974C550.99 246.209 550.746 245.301 550.746 244.251V242.994H553.749V243.995C553.749 245.663 554.542 246.498 556.129 246.498C557.708 246.498 558.497 245.663 558.497 243.995V243.373C558.497 241.704 557.708 240.87 556.129 240.87H554.627V237.879H556.129C557.374 237.879 557.997 237.127 557.997 235.621V234.754C557.997 233.42 557.374 232.752 556.129 232.752C554.876 232.752 554.249 233.42 554.249 234.754V235.499H551.246V234.498C551.246 233.082 551.706 231.979 552.625 231.19C553.553 230.401 554.721 230.006 556.129 230.006C557.537 230.006 558.701 230.401 559.62 231.19C560.54 231.979 561 233.082 561 234.498V235.499C561 236.313 560.816 237.025 560.45 237.635C560.092 238.237 559.592 238.718 558.949 239.076C559.738 239.434 560.361 239.946 560.816 240.614C561.272 241.281 561.5 242.075 561.5 242.994V244.251Z" fill="black"/>
<circle cx="25" cy="25" r="24.5" stroke="black"/>
<path d="M19.2441 35L23.126 16.25H27.6304L31.5 35H28.4727L27.6548 30.752H23.1016L22.2715 35H19.2441ZM23.6265 28.0054H27.1299L25.3721 18.9722L23.6265 28.0054Z" fill="black"/>
<path d="M73.8281 19V13.5625H69.9531V19H68.3594V7H69.9531V12.0859H73.8281V7H75.4297V19H73.8281ZM82.8047 19V17.6562C82.5495 18.1615 82.1849 18.5391 81.7109 18.7891C81.237 19.0339 80.6979 19.1562 80.0938 19.1562C79.599 19.1562 79.151 19.0807 78.75 18.9297C78.3542 18.7786 78.026 18.5286 77.7656 18.1797C77.5052 17.8255 77.375 17.3958 77.375 16.8906C77.375 16.4219 77.474 16.0286 77.6719 15.7109C77.8698 15.388 78.1276 15.1484 78.4453 14.9922C78.763 14.8359 79.112 14.7135 79.4922 14.625C79.8776 14.5312 80.2604 14.4609 80.6406 14.4141C81.026 14.362 81.3776 14.3047 81.6953 14.2422C82.013 14.1745 82.2708 14.0677 82.4688 13.9219C82.6667 13.776 82.7656 13.5807 82.7656 13.3359C82.7656 12.9557 82.6042 12.6589 82.2812 12.4453C81.9583 12.2266 81.5443 12.1172 81.0391 12.1172C80.5026 12.1172 80.0755 12.2526 79.7578 12.5234C79.4401 12.7943 79.2812 13.1823 79.2812 13.6875H77.6172C77.6172 13.2865 77.6797 12.9245 77.8047 12.6016C77.9297 12.2786 78.099 12.0104 78.3125 11.7969C78.526 11.5781 78.7786 11.3984 79.0703 11.2578C79.3672 11.112 79.6771 11.0078 80 10.9453C80.3281 10.8776 80.6745 10.8438 81.0391 10.8438C81.487 10.8438 81.9036 10.8906 82.2891 10.9844C82.6745 11.0781 83.026 11.224 83.3438 11.4219C83.6615 11.6146 83.9115 11.8802 84.0938 12.2188C84.276 12.5573 84.3672 12.9505 84.3672 13.3984V19H82.8047ZM79.0078 16.7891C79.0078 17.1224 79.1354 17.3776 79.3906 17.5547C79.651 17.7266 79.9922 17.8125 80.4141 17.8125C81.0755 17.8125 81.638 17.6276 82.1016 17.2578C82.5703 16.8828 82.8047 16.3646 82.8047 15.7031V15.125C82.5703 15.2396 82.2682 15.3385 81.8984 15.4219C81.5286 15.5 81.1875 15.5651 80.875 15.6172C80.5625 15.6641 80.2578 15.7292 79.9609 15.8125C79.6693 15.8906 79.4375 16.0104 79.2656 16.1719C79.0938 16.3281 79.0078 16.5339 79.0078 16.7891ZM86.5938 19V11H93.4062V19H91.8047V12.4688H88.1875V19H86.5938ZM100.016 19.1562C99.4844 19.1562 98.9922 19.0391 98.5391 18.8047C98.0911 18.5651 97.7083 18.2292 97.3906 17.7969V23H95.7969V11H97.3906V12.2031C97.7083 11.7708 98.0911 11.4375 98.5391 11.2031C98.9922 10.9635 99.4844 10.8438 100.016 10.8438C101.12 10.8438 102.036 11.2344 102.766 12.0156C103.495 12.7917 103.859 13.7865 103.859 15C103.859 16.2135 103.495 17.2109 102.766 17.9922C102.036 18.7682 101.12 19.1562 100.016 19.1562ZM98.0781 16.9453C98.5417 17.4401 99.125 17.6875 99.8281 17.6875C100.531 17.6875 101.112 17.4401 101.57 16.9453C102.029 16.4453 102.258 15.7969 102.258 15C102.258 14.2031 102.029 13.5573 101.57 13.0625C101.112 12.5625 100.531 12.3125 99.8281 12.3125C99.125 12.3125 98.5417 12.5625 98.0781 13.0625C97.6198 13.5573 97.3906 14.2031 97.3906 15C97.3906 15.7969 97.6198 16.4453 98.0781 16.9453ZM110.648 19V17.6562C110.393 18.1615 110.029 18.5391 109.555 18.7891C109.081 19.0339 108.542 19.1562 107.938 19.1562C107.443 19.1562 106.995 19.0807 106.594 18.9297C106.198 18.7786 105.87 18.5286 105.609 18.1797C105.349 17.8255 105.219 17.3958 105.219 16.8906C105.219 16.4219 105.318 16.0286 105.516 15.7109C105.714 15.388 105.971 15.1484 106.289 14.9922C106.607 14.8359 106.956 14.7135 107.336 14.625C107.721 14.5312 108.104 14.4609 108.484 14.4141C108.87 14.362 109.221 14.3047 109.539 14.2422C109.857 14.1745 110.115 14.0677 110.312 13.9219C110.51 13.776 110.609 13.5807 110.609 13.3359C110.609 12.9557 110.448 12.6589 110.125 12.4453C109.802 12.2266 109.388 12.1172 108.883 12.1172C108.346 12.1172 107.919 12.2526 107.602 12.5234C107.284 12.7943 107.125 13.1823 107.125 13.6875H105.461C105.461 13.2865 105.523 12.9245 105.648 12.6016C105.773 12.2786 105.943 12.0104 106.156 11.7969C106.37 11.5781 106.622 11.3984 106.914 11.2578C107.211 11.112 107.521 11.0078 107.844 10.9453C108.172 10.8776 108.518 10.8438 108.883 10.8438C109.331 10.8438 109.747 10.8906 110.133 10.9844C110.518 11.0781 110.87 11.224 111.188 11.4219C111.505 11.6146 111.755 11.8802 111.938 12.2188C112.12 12.5573 112.211 12.9505 112.211 13.3984V19H110.648ZM106.852 16.7891C106.852 17.1224 106.979 17.3776 107.234 17.5547C107.495 17.7266 107.836 17.8125 108.258 17.8125C108.919 17.8125 109.482 17.6276 109.945 17.2578C110.414 16.8828 110.648 16.3646 110.648 15.7031V15.125C110.414 15.2396 110.112 15.3385 109.742 15.4219C109.372 15.5 109.031 15.5651 108.719 15.6172C108.406 15.6641 108.102 15.7292 107.805 15.8125C107.513 15.8906 107.281 16.0104 107.109 16.1719C106.938 16.3281 106.852 16.5339 106.852 16.7891ZM114.438 19V11H118.398C119.159 11 119.763 11.1771 120.211 11.5312C120.659 11.8854 120.883 12.401 120.883 13.0781C120.883 13.8906 120.516 14.4505 119.781 14.7578C120.234 14.9089 120.586 15.1484 120.836 15.4766C121.091 15.7995 121.219 16.2057 121.219 16.6953C121.219 17.4505 120.982 18.0234 120.508 18.4141C120.039 18.8047 119.38 19 118.531 19H114.438ZM117.938 12.2188H115.969V14.2969H117.938C118.875 14.2969 119.344 13.9505 119.344 13.2578C119.344 12.8984 119.232 12.6354 119.008 12.4688C118.789 12.3021 118.432 12.2188 117.938 12.2188ZM118.258 15.5156H115.969V17.7812H118.258C118.706 17.7812 119.044 17.6849 119.273 17.4922C119.503 17.2995 119.617 17.0182 119.617 16.6484C119.617 16.2786 119.503 15.9974 119.273 15.8047C119.044 15.612 118.706 15.5156 118.258 15.5156ZM123.703 16.6641C123.901 15.9609 124.008 14.0729 124.023 11H129.945V19H128.344V12.4688H125.484C125.453 14.2188 125.372 15.5521 125.242 16.4688C125.081 17.4323 124.82 18.0964 124.461 18.4609C124.107 18.8203 123.594 19 122.922 19H122.633V17.5312H122.766C123.245 17.5312 123.557 17.2422 123.703 16.6641ZM139.586 15C139.586 15.125 139.576 15.3073 139.555 15.5469H133.281C133.38 16.2448 133.643 16.7865 134.07 17.1719C134.497 17.5573 135.047 17.75 135.719 17.75C136.667 17.75 137.312 17.3672 137.656 16.6016H139.383C139.138 17.4193 138.688 18.0495 138.031 18.4922C137.38 18.9349 136.589 19.1562 135.656 19.1562C134.516 19.1562 133.573 18.7682 132.828 17.9922C132.089 17.2161 131.719 16.2188 131.719 15C131.719 13.7812 132.089 12.7839 132.828 12.0078C133.573 11.2318 134.516 10.8438 135.656 10.8438C136.797 10.8438 137.737 11.2318 138.477 12.0078C139.216 12.7839 139.586 13.7812 139.586 15ZM135.656 12.25C135.01 12.25 134.482 12.4401 134.07 12.8203C133.659 13.1953 133.404 13.7188 133.305 14.3906H138.008C137.909 13.7188 137.651 13.1953 137.234 12.8203C136.823 12.4401 136.297 12.25 135.656 12.25ZM146.812 19V15.6875H142.969V19H141.375V11H142.969V14.2344H146.812V11H148.414V19H146.812ZM152.312 11V17.3828L155.977 11H158.008V19H156.477V12.6172L152.812 19H150.781V11H152.312ZM167.648 15C167.648 15.125 167.638 15.3073 167.617 15.5469H161.344C161.443 16.2448 161.706 16.7865 162.133 17.1719C162.56 17.5573 163.109 17.75 163.781 17.75C164.729 17.75 165.375 17.3672 165.719 16.6016H167.445C167.201 17.4193 166.75 18.0495 166.094 18.4922C165.443 18.9349 164.651 19.1562 163.719 19.1562C162.578 19.1562 161.635 18.7682 160.891 17.9922C160.151 17.2161 159.781 16.2188 159.781 15C159.781 13.7812 160.151 12.7839 160.891 12.0078C161.635 11.2318 162.578 10.8438 163.719 10.8438C164.859 10.8438 165.799 11.2318 166.539 12.0078C167.279 12.7839 167.648 13.7812 167.648 15ZM163.719 12.25C163.073 12.25 162.544 12.4401 162.133 12.8203C161.721 13.1953 161.466 13.7188 161.367 14.3906H166.07C165.971 13.7188 165.714 13.1953 165.297 12.8203C164.885 12.4401 164.359 12.25 163.719 12.25ZM179.57 21.1562V19H173.695V21.1562H172.227V17.5312H173.008C173.247 17.0833 173.427 16.4167 173.547 15.5312C173.672 14.6458 173.742 13.1354 173.758 11H179.922V17.5312H181.039V21.1562H179.57ZM175.039 15.625C174.924 16.4896 174.786 17.125 174.625 17.5312H178.32V12.4688H175.219C175.203 13.7604 175.143 14.8125 175.039 15.625ZM182.672 19V11H186.633C187.393 11 187.997 11.1771 188.445 11.5312C188.893 11.8854 189.117 12.401 189.117 13.0781C189.117 13.8906 188.75 14.4505 188.016 14.7578C188.469 14.9089 188.82 15.1484 189.07 15.4766C189.326 15.7995 189.453 16.2057 189.453 16.6953C189.453 17.4505 189.216 18.0234 188.742 18.4141C188.273 18.8047 187.615 19 186.766 19H182.672ZM186.172 12.2188H184.203V14.2969H186.172C187.109 14.2969 187.578 13.9505 187.578 13.2578C187.578 12.8984 187.466 12.6354 187.242 12.4688C187.023 12.3021 186.667 12.2188 186.172 12.2188ZM186.492 15.5156H184.203V17.7812H186.492C186.94 17.7812 187.279 17.6849 187.508 17.4922C187.737 17.2995 187.852 17.0182 187.852 16.6484C187.852 16.2786 187.737 15.9974 187.508 15.8047C187.279 15.612 186.94 15.5156 186.492 15.5156ZM193.062 11V17.3828L196.727 11H198.758V19H197.227V12.6172L193.562 19H191.531V11H193.062ZM205.617 19V14.8203L202.148 19H200.133L203.859 14.6484L200.414 11H202.547L205.617 14.5234V11H207.219V14.5391L210.305 11H212.352L208.992 14.6484L212.656 19H210.688L207.219 14.7891V19H205.617ZM220.82 15C220.82 15.125 220.81 15.3073 220.789 15.5469H214.516C214.615 16.2448 214.878 16.7865 215.305 17.1719C215.732 17.5573 216.281 17.75 216.953 17.75C217.901 17.75 218.547 17.3672 218.891 16.6016H220.617C220.372 17.4193 219.922 18.0495 219.266 18.4922C218.615 18.9349 217.823 19.1562 216.891 19.1562C215.75 19.1562 214.807 18.7682 214.062 17.9922C213.323 17.2161 212.953 16.2188 212.953 15C212.953 13.7812 213.323 12.7839 214.062 12.0078C214.807 11.2318 215.75 10.8438 216.891 10.8438C218.031 10.8438 218.971 11.2318 219.711 12.0078C220.451 12.7839 220.82 13.7812 220.82 15ZM216.891 12.25C216.245 12.25 215.716 12.4401 215.305 12.8203C214.893 13.1953 214.638 13.7188 214.539 14.3906H219.242C219.143 13.7188 218.885 13.1953 218.469 12.8203C218.057 12.4401 217.531 12.25 216.891 12.25ZM228.047 19V15.6875H224.203V19H222.609V11H224.203V14.2344H228.047V11H229.648V19H228.047ZM233.547 11V17.3828L237.211 11H239.242V19H237.711V12.6172L234.047 19H232.016V11H233.547ZM241.43 13.4297C241.43 13.0078 241.505 12.638 241.656 12.3203C241.812 12.0026 242.029 11.75 242.305 11.5625C242.581 11.3698 242.891 11.2292 243.234 11.1406C243.583 11.0469 243.964 11 244.375 11H247.82V19H246.219V15.4922H246.203L242.742 19H240.875L244.008 15.8984C243.289 15.8568 242.68 15.6198 242.18 15.1875C241.68 14.7552 241.43 14.1693 241.43 13.4297ZM244.648 14.7578H246.219V12.2188H244.648C244.138 12.2188 243.74 12.3229 243.453 12.5312C243.172 12.7396 243.031 13.0443 243.031 13.4453C243.031 14.3203 243.57 14.7578 244.648 14.7578ZM179.938 43V35H186.75V43H185.148V36.4688H181.531V43H179.938ZM193.359 43.1562C192.828 43.1562 192.336 43.0391 191.883 42.8047C191.435 42.5651 191.052 42.2292 190.734 41.7969V47H189.141V35H190.734V36.2031C191.052 35.7708 191.435 35.4375 191.883 35.2031C192.336 34.9635 192.828 34.8438 193.359 34.8438C194.464 34.8438 195.38 35.2344 196.109 36.0156C196.839 36.7917 197.203 37.7865 197.203 39C197.203 40.2135 196.839 41.2109 196.109 41.9922C195.38 42.7682 194.464 43.1562 193.359 43.1562ZM191.422 40.9453C191.885 41.4401 192.469 41.6875 193.172 41.6875C193.875 41.6875 194.456 41.4401 194.914 40.9453C195.372 40.4453 195.602 39.7969 195.602 39C195.602 38.2031 195.372 37.5573 194.914 37.0625C194.456 36.5625 193.875 36.3125 193.172 36.3125C192.469 36.3125 191.885 36.5625 191.422 37.0625C190.964 37.5573 190.734 38.2031 190.734 39C190.734 39.7969 190.964 40.4453 191.422 40.9453ZM205.336 41.9922C204.57 42.7682 203.604 43.1562 202.438 43.1562C201.271 43.1562 200.305 42.7682 199.539 41.9922C198.773 41.2109 198.391 40.2135 198.391 39C198.391 37.7865 198.773 36.7917 199.539 36.0156C200.305 35.2344 201.271 34.8438 202.438 34.8438C203.604 34.8438 204.57 35.2344 205.336 36.0156C206.102 36.7917 206.484 37.7865 206.484 39C206.484 40.2135 206.102 41.2109 205.336 41.9922ZM200.688 40.9453C201.151 41.4401 201.734 41.6875 202.438 41.6875C203.141 41.6875 203.724 41.4401 204.188 40.9453C204.651 40.4453 204.883 39.7969 204.883 39C204.883 38.2031 204.651 37.5573 204.188 37.0625C203.724 36.5625 203.141 36.3125 202.438 36.3125C201.734 36.3125 201.151 36.5625 200.688 37.0625C200.224 37.5573 199.992 38.2031 199.992 39C199.992 39.7969 200.224 40.4453 200.688 40.9453ZM214.711 45.1562V43H208.836V45.1562H207.367V41.5312H208.148C208.388 41.0833 208.568 40.4167 208.688 39.5312C208.812 38.6458 208.883 37.1354 208.898 35H215.062V41.5312H216.18V45.1562H214.711ZM210.18 39.625C210.065 40.4896 209.927 41.125 209.766 41.5312H213.461V36.4688H210.359C210.344 37.7604 210.284 38.8125 210.18 39.625ZM221.406 43.8984C221.26 44.3151 221.117 44.6719 220.977 44.9688C220.841 45.2708 220.674 45.5651 220.477 45.8516C220.284 46.138 220.073 46.3672 219.844 46.5391C219.62 46.7161 219.349 46.8568 219.031 46.9609C218.719 47.0703 218.37 47.125 217.984 47.125C217.557 47.125 217.156 47.0677 216.781 46.9531V45.5469C217.156 45.6615 217.51 45.7188 217.844 45.7188C218.333 45.7188 218.732 45.5729 219.039 45.2812C219.352 44.9948 219.641 44.5286 219.906 43.8828L216.734 35H218.336L220.656 41.7031L222.961 35H224.562L221.406 43.8984ZM231.266 43L227.438 38.7891V43H225.844V35H227.438V38.5547L230.883 35H233.008L229.25 38.6484L233.297 43H231.266ZM233.211 36.4688V35H239.992V36.4688H237.398V43H235.805V36.4688H233.211ZM246.398 43V41.6562C246.143 42.1615 245.779 42.5391 245.305 42.7891C244.831 43.0339 244.292 43.1562 243.688 43.1562C243.193 43.1562 242.745 43.0807 242.344 42.9297C241.948 42.7786 241.62 42.5286 241.359 42.1797C241.099 41.8255 240.969 41.3958 240.969 40.8906C240.969 40.4219 241.068 40.0286 241.266 39.7109C241.464 39.388 241.721 39.1484 242.039 38.9922C242.357 38.8359 242.706 38.7135 243.086 38.625C243.471 38.5312 243.854 38.4609 244.234 38.4141C244.62 38.362 244.971 38.3047 245.289 38.2422C245.607 38.1745 245.865 38.0677 246.062 37.9219C246.26 37.776 246.359 37.5807 246.359 37.3359C246.359 36.9557 246.198 36.6589 245.875 36.4453C245.552 36.2266 245.138 36.1172 244.633 36.1172C244.096 36.1172 243.669 36.2526 243.352 36.5234C243.034 36.7943 242.875 37.1823 242.875 37.6875H241.211C241.211 37.2865 241.273 36.9245 241.398 36.6016C241.523 36.2786 241.693 36.0104 241.906 35.7969C242.12 35.5781 242.372 35.3984 242.664 35.2578C242.961 35.112 243.271 35.0078 243.594 34.9453C243.922 34.8776 244.268 34.8438 244.633 34.8438C245.081 34.8438 245.497 34.8906 245.883 34.9844C246.268 35.0781 246.62 35.224 246.938 35.4219C247.255 35.6146 247.505 35.8802 247.688 36.2188C247.87 36.5573 247.961 36.9505 247.961 37.3984V43H246.398ZM242.602 40.7891C242.602 41.1224 242.729 41.3776 242.984 41.5547C243.245 41.7266 243.586 41.8125 244.008 41.8125C244.669 41.8125 245.232 41.6276 245.695 41.2578C246.164 40.8828 246.398 40.3646 246.398 39.7031V39.125C246.164 39.2396 245.862 39.3385 245.492 39.4219C245.122 39.5 244.781 39.5651 244.469 39.6172C244.156 39.6641 243.852 39.7292 243.555 39.8125C243.263 39.8906 243.031 40.0104 242.859 40.1719C242.688 40.3281 242.602 40.5339 242.602 40.7891Z" fill="#313131"/>
<path d="M365.656 329V323.562H361.781V329H360.188V317H361.781V322.086H365.656V317H367.258V329H365.656ZM374.633 329V327.656C374.378 328.161 374.013 328.539 373.539 328.789C373.065 329.034 372.526 329.156 371.922 329.156C371.427 329.156 370.979 329.081 370.578 328.93C370.182 328.779 369.854 328.529 369.594 328.18C369.333 327.826 369.203 327.396 369.203 326.891C369.203 326.422 369.302 326.029 369.5 325.711C369.698 325.388 369.956 325.148 370.273 324.992C370.591 324.836 370.94 324.714 371.32 324.625C371.706 324.531 372.089 324.461 372.469 324.414C372.854 324.362 373.206 324.305 373.523 324.242C373.841 324.174 374.099 324.068 374.297 323.922C374.495 323.776 374.594 323.581 374.594 323.336C374.594 322.956 374.432 322.659 374.109 322.445C373.786 322.227 373.372 322.117 372.867 322.117C372.331 322.117 371.904 322.253 371.586 322.523C371.268 322.794 371.109 323.182 371.109 323.688H369.445C369.445 323.286 369.508 322.924 369.633 322.602C369.758 322.279 369.927 322.01 370.141 321.797C370.354 321.578 370.607 321.398 370.898 321.258C371.195 321.112 371.505 321.008 371.828 320.945C372.156 320.878 372.503 320.844 372.867 320.844C373.315 320.844 373.732 320.891 374.117 320.984C374.503 321.078 374.854 321.224 375.172 321.422C375.49 321.615 375.74 321.88 375.922 322.219C376.104 322.557 376.195 322.951 376.195 323.398V329H374.633ZM370.836 326.789C370.836 327.122 370.964 327.378 371.219 327.555C371.479 327.727 371.82 327.812 372.242 327.812C372.904 327.812 373.466 327.628 373.93 327.258C374.398 326.883 374.633 326.365 374.633 325.703V325.125C374.398 325.24 374.096 325.339 373.727 325.422C373.357 325.5 373.016 325.565 372.703 325.617C372.391 325.664 372.086 325.729 371.789 325.812C371.497 325.891 371.266 326.01 371.094 326.172C370.922 326.328 370.836 326.534 370.836 326.789ZM378.422 329V321H385.234V329H383.633V322.469H380.016V329H378.422ZM391.844 329.156C391.312 329.156 390.82 329.039 390.367 328.805C389.919 328.565 389.536 328.229 389.219 327.797V333H387.625V321H389.219V322.203C389.536 321.771 389.919 321.438 390.367 321.203C390.82 320.964 391.312 320.844 391.844 320.844C392.948 320.844 393.865 321.234 394.594 322.016C395.323 322.792 395.688 323.786 395.688 325C395.688 326.214 395.323 327.211 394.594 327.992C393.865 328.768 392.948 329.156 391.844 329.156ZM389.906 326.945C390.37 327.44 390.953 327.688 391.656 327.688C392.359 327.688 392.94 327.44 393.398 326.945C393.857 326.445 394.086 325.797 394.086 325C394.086 324.203 393.857 323.557 393.398 323.062C392.94 322.562 392.359 322.312 391.656 322.312C390.953 322.312 390.37 322.562 389.906 323.062C389.448 323.557 389.219 324.203 389.219 325C389.219 325.797 389.448 326.445 389.906 326.945ZM402.477 329V327.656C402.221 328.161 401.857 328.539 401.383 328.789C400.909 329.034 400.37 329.156 399.766 329.156C399.271 329.156 398.823 329.081 398.422 328.93C398.026 328.779 397.698 328.529 397.438 328.18C397.177 327.826 397.047 327.396 397.047 326.891C397.047 326.422 397.146 326.029 397.344 325.711C397.542 325.388 397.799 325.148 398.117 324.992C398.435 324.836 398.784 324.714 399.164 324.625C399.549 324.531 399.932 324.461 400.312 324.414C400.698 324.362 401.049 324.305 401.367 324.242C401.685 324.174 401.943 324.068 402.141 323.922C402.339 323.776 402.438 323.581 402.438 323.336C402.438 322.956 402.276 322.659 401.953 322.445C401.63 322.227 401.216 322.117 400.711 322.117C400.174 322.117 399.747 322.253 399.43 322.523C399.112 322.794 398.953 323.182 398.953 323.688H397.289C397.289 323.286 397.352 322.924 397.477 322.602C397.602 322.279 397.771 322.01 397.984 321.797C398.198 321.578 398.451 321.398 398.742 321.258C399.039 321.112 399.349 321.008 399.672 320.945C400 320.878 400.346 320.844 400.711 320.844C401.159 320.844 401.576 320.891 401.961 320.984C402.346 321.078 402.698 321.224 403.016 321.422C403.333 321.615 403.583 321.88 403.766 322.219C403.948 322.557 404.039 322.951 404.039 323.398V329H402.477ZM398.68 326.789C398.68 327.122 398.807 327.378 399.062 327.555C399.323 327.727 399.664 327.812 400.086 327.812C400.747 327.812 401.31 327.628 401.773 327.258C402.242 326.883 402.477 326.365 402.477 325.703V325.125C402.242 325.24 401.94 325.339 401.57 325.422C401.201 325.5 400.859 325.565 400.547 325.617C400.234 325.664 399.93 325.729 399.633 325.812C399.341 325.891 399.109 326.01 398.938 326.172C398.766 326.328 398.68 326.534 398.68 326.789ZM406.266 329V321H410.227C410.987 321 411.591 321.177 412.039 321.531C412.487 321.885 412.711 322.401 412.711 323.078C412.711 323.891 412.344 324.451 411.609 324.758C412.062 324.909 412.414 325.148 412.664 325.477C412.919 325.799 413.047 326.206 413.047 326.695C413.047 327.451 412.81 328.023 412.336 328.414C411.867 328.805 411.208 329 410.359 329H406.266ZM409.766 322.219H407.797V324.297H409.766C410.703 324.297 411.172 323.951 411.172 323.258C411.172 322.898 411.06 322.635 410.836 322.469C410.617 322.302 410.26 322.219 409.766 322.219ZM410.086 325.516H407.797V327.781H410.086C410.534 327.781 410.872 327.685 411.102 327.492C411.331 327.299 411.445 327.018 411.445 326.648C411.445 326.279 411.331 325.997 411.102 325.805C410.872 325.612 410.534 325.516 410.086 325.516ZM415.531 326.664C415.729 325.961 415.836 324.073 415.852 321H421.773V329H420.172V322.469H417.312C417.281 324.219 417.201 325.552 417.07 326.469C416.909 327.432 416.648 328.096 416.289 328.461C415.935 328.82 415.422 329 414.75 329H414.461V327.531H414.594C415.073 327.531 415.385 327.242 415.531 326.664ZM431.414 325C431.414 325.125 431.404 325.307 431.383 325.547H425.109C425.208 326.245 425.471 326.786 425.898 327.172C426.326 327.557 426.875 327.75 427.547 327.75C428.495 327.75 429.141 327.367 429.484 326.602H431.211C430.966 327.419 430.516 328.049 429.859 328.492C429.208 328.935 428.417 329.156 427.484 329.156C426.344 329.156 425.401 328.768 424.656 327.992C423.917 327.216 423.547 326.219 423.547 325C423.547 323.781 423.917 322.784 424.656 322.008C425.401 321.232 426.344 320.844 427.484 320.844C428.625 320.844 429.565 321.232 430.305 322.008C431.044 322.784 431.414 323.781 431.414 325ZM427.484 322.25C426.839 322.25 426.31 322.44 425.898 322.82C425.487 323.195 425.232 323.719 425.133 324.391H429.836C429.737 323.719 429.479 323.195 429.062 322.82C428.651 322.44 428.125 322.25 427.484 322.25ZM438.641 329V325.688H434.797V329H433.203V321H434.797V324.234H438.641V321H440.242V329H438.641ZM444.141 321V327.383L447.805 321H449.836V329H448.305V322.617L444.641 329H442.609V321H444.141ZM459.477 325C459.477 325.125 459.466 325.307 459.445 325.547H453.172C453.271 326.245 453.534 326.786 453.961 327.172C454.388 327.557 454.938 327.75 455.609 327.75C456.557 327.75 457.203 327.367 457.547 326.602H459.273C459.029 327.419 458.578 328.049 457.922 328.492C457.271 328.935 456.479 329.156 455.547 329.156C454.406 329.156 453.464 328.768 452.719 327.992C451.979 327.216 451.609 326.219 451.609 325C451.609 323.781 451.979 322.784 452.719 322.008C453.464 321.232 454.406 320.844 455.547 320.844C456.688 320.844 457.628 321.232 458.367 322.008C459.107 322.784 459.477 323.781 459.477 325ZM455.547 322.25C454.901 322.25 454.372 322.44 453.961 322.82C453.549 323.195 453.294 323.719 453.195 324.391H457.898C457.799 323.719 457.542 323.195 457.125 322.82C456.714 322.44 456.188 322.25 455.547 322.25ZM471.305 327.992C470.539 328.768 469.573 329.156 468.406 329.156C467.24 329.156 466.273 328.768 465.508 327.992C464.742 327.211 464.359 326.214 464.359 325C464.359 323.786 464.742 322.792 465.508 322.016C466.273 321.234 467.24 320.844 468.406 320.844C469.573 320.844 470.539 321.234 471.305 322.016C472.07 322.792 472.453 323.786 472.453 325C472.453 326.214 472.07 327.211 471.305 327.992ZM466.656 326.945C467.12 327.44 467.703 327.688 468.406 327.688C469.109 327.688 469.693 327.44 470.156 326.945C470.62 326.445 470.852 325.797 470.852 325C470.852 324.203 470.62 323.557 470.156 323.062C469.693 322.562 469.109 322.312 468.406 322.312C467.703 322.312 467.12 322.562 466.656 323.062C466.193 323.557 465.961 324.203 465.961 325C465.961 325.797 466.193 326.445 466.656 326.945ZM473.023 322.469V321H479.805V322.469H477.211V329H475.617V322.469H473.023ZM489.109 325.062C489.109 326.26 488.724 327.242 487.953 328.008C487.188 328.773 486.224 329.156 485.062 329.156C484.307 329.156 483.62 328.984 483 328.641C482.385 328.297 481.901 327.815 481.547 327.195C481.193 326.576 481.016 325.875 481.016 325.094V322.266C481.016 321.49 481.089 320.833 481.234 320.297C481.38 319.76 481.609 319.323 481.922 318.984C482.24 318.641 482.615 318.378 483.047 318.195C483.479 318.013 484.018 317.875 484.664 317.781L486.602 317.516C486.857 317.479 487.031 317.419 487.125 317.336C487.224 317.247 487.279 317.135 487.289 317H488.891C488.875 317.651 488.701 318.109 488.367 318.375C488.034 318.635 487.43 318.823 486.555 318.938L484.805 319.195C483.935 319.315 483.339 319.581 483.016 319.992C482.698 320.404 482.539 321.122 482.539 322.148V322.453C482.784 321.995 483.148 321.633 483.633 321.367C484.122 321.102 484.701 320.969 485.367 320.969C485.867 320.969 486.344 321.07 486.797 321.273C487.255 321.477 487.654 321.755 487.992 322.109C488.336 322.464 488.607 322.898 488.805 323.414C489.008 323.924 489.109 324.474 489.109 325.062ZM485.062 327.688C485.781 327.688 486.367 327.443 486.82 326.953C487.279 326.464 487.508 325.833 487.508 325.062C487.508 324.297 487.279 323.669 486.82 323.18C486.367 322.685 485.781 322.438 485.062 322.438C484.349 322.438 483.763 322.682 483.305 323.172C482.846 323.656 482.617 324.286 482.617 325.062C482.617 325.844 482.846 326.477 483.305 326.961C483.763 327.445 484.349 327.688 485.062 327.688ZM495.109 329.156C494.578 329.156 494.086 329.039 493.633 328.805C493.185 328.565 492.802 328.229 492.484 327.797V333H490.891V321H492.484V322.203C492.802 321.771 493.185 321.438 493.633 321.203C494.086 320.964 494.578 320.844 495.109 320.844C496.214 320.844 497.13 321.234 497.859 322.016C498.589 322.792 498.953 323.786 498.953 325C498.953 326.214 498.589 327.211 497.859 327.992C497.13 328.768 496.214 329.156 495.109 329.156ZM493.172 326.945C493.635 327.44 494.219 327.688 494.922 327.688C495.625 327.688 496.206 327.44 496.664 326.945C497.122 326.445 497.352 325.797 497.352 325C497.352 324.203 497.122 323.557 496.664 323.062C496.206 322.562 495.625 322.312 494.922 322.312C494.219 322.312 493.635 322.562 493.172 323.062C492.714 323.557 492.484 324.203 492.484 325C492.484 325.797 492.714 326.445 493.172 326.945ZM505.742 329V327.656C505.487 328.161 505.122 328.539 504.648 328.789C504.174 329.034 503.635 329.156 503.031 329.156C502.536 329.156 502.089 329.081 501.688 328.93C501.292 328.779 500.964 328.529 500.703 328.18C500.443 327.826 500.312 327.396 500.312 326.891C500.312 326.422 500.411 326.029 500.609 325.711C500.807 325.388 501.065 325.148 501.383 324.992C501.701 324.836 502.049 324.714 502.43 324.625C502.815 324.531 503.198 324.461 503.578 324.414C503.964 324.362 504.315 324.305 504.633 324.242C504.951 324.174 505.208 324.068 505.406 323.922C505.604 323.776 505.703 323.581 505.703 323.336C505.703 322.956 505.542 322.659 505.219 322.445C504.896 322.227 504.482 322.117 503.977 322.117C503.44 322.117 503.013 322.253 502.695 322.523C502.378 322.794 502.219 323.182 502.219 323.688H500.555C500.555 323.286 500.617 322.924 500.742 322.602C500.867 322.279 501.036 322.01 501.25 321.797C501.464 321.578 501.716 321.398 502.008 321.258C502.305 321.112 502.615 321.008 502.938 320.945C503.266 320.878 503.612 320.844 503.977 320.844C504.424 320.844 504.841 320.891 505.227 320.984C505.612 321.078 505.964 321.224 506.281 321.422C506.599 321.615 506.849 321.88 507.031 322.219C507.214 322.557 507.305 322.951 507.305 323.398V329H505.742ZM501.945 326.789C501.945 327.122 502.073 327.378 502.328 327.555C502.589 327.727 502.93 327.812 503.352 327.812C504.013 327.812 504.576 327.628 505.039 327.258C505.508 326.883 505.742 326.365 505.742 325.703V325.125C505.508 325.24 505.206 325.339 504.836 325.422C504.466 325.5 504.125 325.565 503.812 325.617C503.5 325.664 503.195 325.729 502.898 325.812C502.607 325.891 502.375 326.01 502.203 326.172C502.031 326.328 501.945 326.534 501.945 326.789ZM514.953 329L511.125 324.789V329H509.531V321H511.125V324.555L514.57 321H516.695L512.938 324.648L516.984 329H514.953ZM524.227 327.992C523.461 328.768 522.495 329.156 521.328 329.156C520.161 329.156 519.195 328.768 518.43 327.992C517.664 327.211 517.281 326.214 517.281 325C517.281 323.786 517.664 322.792 518.43 322.016C519.195 321.234 520.161 320.844 521.328 320.844C522.495 320.844 523.461 321.234 524.227 322.016C524.992 322.792 525.375 323.786 525.375 325C525.375 326.214 524.992 327.211 524.227 327.992ZM519.578 326.945C520.042 327.44 520.625 327.688 521.328 327.688C522.031 327.688 522.615 327.44 523.078 326.945C523.542 326.445 523.773 325.797 523.773 325C523.773 324.203 523.542 323.557 523.078 323.062C522.615 322.562 522.031 322.312 521.328 322.312C520.625 322.312 520.042 322.562 519.578 323.062C519.115 323.557 518.883 324.203 518.883 325C518.883 325.797 519.115 326.445 519.578 326.945ZM527.156 329V321H531.117C531.878 321 532.482 321.177 532.93 321.531C533.378 321.885 533.602 322.401 533.602 323.078C533.602 323.891 533.234 324.451 532.5 324.758C532.953 324.909 533.305 325.148 533.555 325.477C533.81 325.799 533.938 326.206 533.938 326.695C533.938 327.451 533.701 328.023 533.227 328.414C532.758 328.805 532.099 329 531.25 329H527.156ZM530.656 322.219H528.688V324.297H530.656C531.594 324.297 532.062 323.951 532.062 323.258C532.062 322.898 531.951 322.635 531.727 322.469C531.508 322.302 531.151 322.219 530.656 322.219ZM530.977 325.516H528.688V327.781H530.977C531.424 327.781 531.763 327.685 531.992 327.492C532.221 327.299 532.336 327.018 532.336 326.648C532.336 326.279 532.221 325.997 531.992 325.805C531.763 325.612 531.424 325.516 530.977 325.516ZM541.438 329L537.609 324.789V329H536.016V321H537.609V324.555L541.055 321H543.18L539.422 324.648L543.469 329H541.438ZM546.375 321V327.383L550.039 321H552.07V329H550.539V322.617L546.875 329H544.844V321H546.375Z" fill="#313131"/>
<line x1="265" y1="24.5" x2="367" y2="24.5" stroke="#00A85B"/>
<path d="M366.725 17.4959L379.187 24.6914L366.725 31.8868L366.725 17.4959Z" stroke="#00A85B"/>
<path d="M488.86 179.016L524.102 208.587" stroke="#00A85B"/>
<path d="M528.637 202.75L533.559 216.273L519.387 213.774L528.637 202.75Z" stroke="#00A85B"/>
<path d="M420.202 178.984L384.961 208.555" stroke="#00A85B"/>
<path d="M389.922 214.036L375.749 216.535L380.671 203.012L389.922 214.036Z" stroke="#00A85B"/>
<path d="M456.117 179V225.004" stroke="#00A85B"/>
<path d="M463.504 224.729L456.309 237.191L449.113 224.729L463.504 224.729Z" stroke="#00A85B"/>
<rect x="67.5" y="111.5" width="504" height="29" fill="#EBECEC" stroke="black"/>
<rect x="113.5" y="63.5" width="164" height="124" rx="4.5" fill="#B2B3B3" stroke="black"/>
<rect x="384.5" y="80.5" width="144" height="91" rx="4.5" fill="#B2B3B3" stroke="black"/>
<path d="M444.969 119.656C444.844 120.13 444.719 120.536 444.594 120.875C444.474 121.214 444.331 121.536 444.164 121.844C443.997 122.146 443.815 122.388 443.617 122.57C443.419 122.753 443.185 122.896 442.914 123C442.648 123.104 442.346 123.156 442.008 123.156C441.523 123.156 441.115 123.099 440.781 122.984V121.289C441.068 121.362 441.354 121.398 441.641 121.398C442.115 121.398 442.477 121.24 442.727 120.922L439.766 111H441.75L443.641 118.234L445.352 111H447.289L444.969 119.656ZM451.734 119.656H450.453V118.219H451.734C452.417 118.219 452.758 117.924 452.758 117.336C452.758 117.039 452.643 116.802 452.414 116.625C452.185 116.448 451.833 116.359 451.359 116.359C450.307 116.359 449.781 116.867 449.781 117.883H447.859C447.859 117.466 447.932 117.078 448.078 116.719C448.224 116.354 448.438 116.031 448.719 115.75C449 115.469 449.367 115.247 449.82 115.086C450.273 114.924 450.786 114.844 451.359 114.844C452.422 114.844 453.227 115.068 453.773 115.516C454.32 115.964 454.594 116.518 454.594 117.18C454.594 117.544 454.503 117.888 454.32 118.211C454.143 118.529 453.883 118.771 453.539 118.938C454.372 119.276 454.789 119.862 454.789 120.695C454.789 121.466 454.495 122.07 453.906 122.508C453.323 122.94 452.474 123.156 451.359 123.156C450.203 123.156 449.315 122.885 448.695 122.344C448.076 121.802 447.766 121.034 447.766 120.039H449.68C449.68 121.117 450.247 121.656 451.383 121.656C451.909 121.656 452.286 121.562 452.516 121.375C452.75 121.188 452.867 120.94 452.867 120.633C452.867 120.326 452.773 120.086 452.586 119.914C452.398 119.742 452.115 119.656 451.734 119.656ZM463.836 119C463.836 119.146 463.826 119.359 463.805 119.641H457.789C457.893 120.229 458.13 120.682 458.5 121C458.875 121.318 459.359 121.477 459.953 121.477C460.755 121.477 461.289 121.185 461.555 120.602H463.633C463.398 121.424 462.951 122.057 462.289 122.5C461.633 122.938 460.828 123.156 459.875 123.156C458.724 123.156 457.773 122.768 457.023 121.992C456.279 121.216 455.906 120.219 455.906 119C455.906 117.781 456.279 116.784 457.023 116.008C457.773 115.232 458.724 114.844 459.875 114.844C461.026 114.844 461.974 115.232 462.719 116.008C463.464 116.784 463.836 117.781 463.836 119ZM461.242 116.984C460.888 116.677 460.432 116.523 459.875 116.523C459.318 116.523 458.859 116.677 458.5 116.984C458.141 117.286 457.909 117.719 457.805 118.281H461.938C461.833 117.719 461.602 117.286 461.242 116.984ZM465.891 120.57C466.083 120.003 466.18 118.146 466.18 115H472.273V123H470.352V116.758H467.938C467.922 118.388 467.854 119.578 467.734 120.328C467.625 121.026 467.464 121.57 467.25 121.961C467.036 122.352 466.773 122.622 466.461 122.773C466.148 122.924 465.745 123 465.25 123H464.961V121.242H465.055C465.466 121.242 465.745 121.018 465.891 120.57ZM419.031 140.992C418.26 141.768 417.286 142.156 416.109 142.156C414.932 142.156 413.958 141.768 413.188 140.992C412.417 140.211 412.031 139.214 412.031 138C412.031 136.786 412.417 135.792 413.188 135.016C413.958 134.234 414.932 133.844 416.109 133.844C417.286 133.844 418.26 134.234 419.031 135.016C419.802 135.792 420.188 136.786 420.188 138C420.188 139.214 419.802 140.211 419.031 140.992ZM414.555 139.734C414.966 140.177 415.484 140.398 416.109 140.398C416.734 140.398 417.25 140.177 417.656 139.734C418.062 139.292 418.266 138.714 418.266 138C418.266 137.286 418.062 136.708 417.656 136.266C417.25 135.823 416.734 135.602 416.109 135.602C415.484 135.602 414.966 135.826 414.555 136.273C414.148 136.716 413.945 137.292 413.945 138C413.945 138.708 414.148 139.286 414.555 139.734ZM420.742 135.758V134H427.461V135.758H425.062V142H423.141V135.758H420.742ZM436.828 138.078C436.828 138.87 436.648 139.578 436.289 140.203C435.935 140.823 435.448 141.305 434.828 141.648C434.208 141.987 433.516 142.156 432.75 142.156C431.99 142.156 431.299 141.987 430.68 141.648C430.06 141.305 429.57 140.826 429.211 140.211C428.852 139.591 428.672 138.891 428.672 138.109V135.133C428.672 134.503 428.724 133.956 428.828 133.492C428.932 133.023 429.078 132.633 429.266 132.32C429.458 132.003 429.711 131.74 430.023 131.531C430.341 131.318 430.682 131.154 431.047 131.039C431.417 130.919 431.857 130.823 432.367 130.75L434.258 130.477C434.445 130.451 434.573 130.396 434.641 130.312C434.714 130.229 434.75 130.125 434.75 130H436.672C436.672 130.385 436.63 130.703 436.547 130.953C436.464 131.203 436.318 131.411 436.109 131.578C435.901 131.745 435.651 131.872 435.359 131.961C435.073 132.049 434.69 132.128 434.211 132.195L432.547 132.43C432 132.508 431.586 132.628 431.305 132.789C431.023 132.945 430.818 133.195 430.688 133.539C430.557 133.878 430.492 134.362 430.492 134.992V135.25C431.029 134.417 431.909 134 433.133 134C433.617 134 434.083 134.102 434.531 134.305C434.979 134.503 435.372 134.779 435.711 135.133C436.049 135.482 436.32 135.914 436.523 136.43C436.727 136.94 436.828 137.49 436.828 138.078ZM431.195 139.758C431.596 140.185 432.115 140.398 432.75 140.398C433.385 140.398 433.904 140.182 434.305 139.75C434.711 139.312 434.914 138.755 434.914 138.078C434.914 137.406 434.714 136.852 434.312 136.414C433.911 135.977 433.391 135.758 432.75 135.758C432.12 135.758 431.602 135.974 431.195 136.406C430.794 136.839 430.594 137.396 430.594 138.078C430.594 138.766 430.794 139.326 431.195 139.758ZM442.828 142.156C441.875 142.156 441.076 141.768 440.43 140.992V146H438.508V134H440.43V135.008C441.076 134.232 441.875 133.844 442.828 133.844C443.932 133.844 444.849 134.234 445.578 135.016C446.307 135.792 446.672 136.786 446.672 138C446.672 139.214 446.307 140.211 445.578 140.992C444.849 141.768 443.932 142.156 442.828 142.156ZM441.039 139.734C441.451 140.177 441.969 140.398 442.594 140.398C443.219 140.398 443.734 140.177 444.141 139.734C444.547 139.292 444.75 138.714 444.75 138C444.75 137.286 444.547 136.708 444.141 136.266C443.734 135.823 443.219 135.602 442.594 135.602C441.969 135.602 441.451 135.826 441.039 136.273C440.633 136.716 440.43 137.292 440.43 138C440.43 138.708 440.633 139.286 441.039 139.734ZM453.188 142V140.812C452.698 141.708 451.849 142.156 450.641 142.156C450.161 142.156 449.724 142.081 449.328 141.93C448.938 141.779 448.609 141.526 448.344 141.172C448.083 140.812 447.953 140.375 447.953 139.859C447.953 139.448 448.026 139.091 448.172 138.789C448.323 138.487 448.521 138.253 448.766 138.086C449.01 137.919 449.289 137.779 449.602 137.664C449.914 137.544 450.232 137.461 450.555 137.414C450.878 137.367 451.195 137.315 451.508 137.258C451.82 137.201 452.099 137.146 452.344 137.094C452.589 137.036 452.784 136.945 452.93 136.82C453.081 136.695 453.156 136.539 453.156 136.352C453.156 136.049 453.016 135.81 452.734 135.633C452.458 135.451 452.107 135.359 451.68 135.359C451.227 135.359 450.865 135.477 450.594 135.711C450.328 135.945 450.195 136.281 450.195 136.719H448.195C448.195 136.219 448.292 135.779 448.484 135.398C448.677 135.018 448.94 134.719 449.273 134.5C449.607 134.276 449.974 134.112 450.375 134.008C450.781 133.898 451.216 133.844 451.68 133.844C452.138 133.844 452.562 133.893 452.953 133.992C453.349 134.086 453.708 134.232 454.031 134.43C454.354 134.628 454.609 134.898 454.797 135.242C454.984 135.581 455.078 135.977 455.078 136.43V142H453.188ZM449.922 139.727C449.922 139.997 450.023 140.206 450.227 140.352C450.435 140.492 450.706 140.562 451.039 140.562C451.633 140.562 452.138 140.398 452.555 140.07C452.977 139.742 453.188 139.286 453.188 138.703V138.336C452.969 138.43 452.695 138.513 452.367 138.586C452.039 138.654 451.742 138.714 451.477 138.766C451.211 138.812 450.953 138.872 450.703 138.945C450.458 139.018 450.266 139.12 450.125 139.25C449.99 139.375 449.922 139.534 449.922 139.727ZM462.508 142L459.07 137.789V142H457.148V134H459.07V137.484L462.172 134H464.703L461.18 137.633L464.914 142H462.508ZM472.156 140.992C471.385 141.768 470.411 142.156 469.234 142.156C468.057 142.156 467.083 141.768 466.312 140.992C465.542 140.211 465.156 139.214 465.156 138C465.156 136.786 465.542 135.792 466.312 135.016C467.083 134.234 468.057 133.844 469.234 133.844C470.411 133.844 471.385 134.234 472.156 135.016C472.927 135.792 473.312 136.786 473.312 138C473.312 139.214 472.927 140.211 472.156 140.992ZM467.68 139.734C468.091 140.177 468.609 140.398 469.234 140.398C469.859 140.398 470.375 140.177 470.781 139.734C471.188 139.292 471.391 138.714 471.391 138C471.391 137.286 471.188 136.708 470.781 136.266C470.375 135.823 469.859 135.602 469.234 135.602C468.609 135.602 468.091 135.826 467.68 136.273C467.273 136.716 467.07 137.292 467.07 138C467.07 138.708 467.273 139.286 467.68 139.734ZM474.992 142V134H479.188C479.938 134 480.531 134.18 480.969 134.539C481.411 134.893 481.633 135.411 481.633 136.094C481.633 136.859 481.292 137.409 480.609 137.742C481.021 137.893 481.341 138.13 481.57 138.453C481.805 138.771 481.922 139.164 481.922 139.633C481.922 140.414 481.688 141.005 481.219 141.406C480.75 141.802 480.083 142 479.219 142H474.992ZM476.836 135.438V137.188H478.625C479.047 137.188 479.346 137.115 479.523 136.969C479.706 136.818 479.797 136.602 479.797 136.32C479.797 136.013 479.708 135.789 479.531 135.648C479.354 135.508 479.052 135.438 478.625 135.438H476.836ZM478.914 138.625H476.836V140.562H478.914C479.638 140.562 480 140.232 480 139.57C480 138.94 479.638 138.625 478.914 138.625ZM489.273 142L485.836 137.789V142H483.914V134H485.836V137.484L488.938 134H491.469L487.945 137.633L491.68 142H489.273ZM494.805 134V139.984L497.938 134H500.406V142H498.562V136.031L495.43 142H492.961V134H494.805Z" fill="black"/>
<path fill-rule="evenodd" clip-rule="evenodd" d="M171 172.427V165.298H176.241V166.478H172.464V168.036H176.005V169.216H172.464V171.152H176.429V172.332H171V172.427ZM177.61 172.427V165.298H180.631C181.387 165.298 181.953 165.345 182.284 165.486C182.614 165.628 182.898 165.864 183.134 166.147C183.322 166.478 183.464 166.856 183.464 167.28C183.464 167.8 183.322 168.272 182.992 168.602C182.662 168.933 182.189 169.169 181.576 169.263C181.906 169.452 182.142 169.641 182.331 169.877C182.52 170.113 182.803 170.491 183.134 171.057L183.983 172.427H182.284L181.245 170.869C180.867 170.302 180.631 169.972 180.49 169.83C180.348 169.688 180.206 169.594 180.065 169.547C179.923 169.499 179.687 169.452 179.357 169.452H179.073V172.427H177.61ZM179.073 168.319H180.112C180.82 168.319 181.245 168.272 181.387 168.225C181.576 168.178 181.67 168.083 181.812 167.941C181.906 167.8 181.953 167.611 181.953 167.422C181.953 167.186 181.906 166.997 181.764 166.856C181.623 166.714 181.434 166.62 181.245 166.572C181.151 166.572 180.773 166.525 180.206 166.525H179.073V168.319ZM188.091 169.83V168.65H191.16V171.482C190.877 171.766 190.404 172.049 189.838 172.238C189.271 172.474 188.705 172.568 188.091 172.568C187.336 172.568 186.722 172.427 186.155 172.096C185.589 171.766 185.211 171.341 184.928 170.774C184.644 170.208 184.503 169.547 184.503 168.886C184.503 168.13 184.644 167.469 184.975 166.903C185.305 166.336 185.73 165.864 186.344 165.581C186.816 165.345 187.383 165.203 188.044 165.203C188.941 165.203 189.602 165.392 190.121 165.77C190.593 166.147 190.924 166.667 191.065 167.328L189.649 167.611C189.555 167.28 189.366 166.997 189.082 166.761C188.799 166.572 188.469 166.478 188.044 166.478C187.43 166.478 186.911 166.667 186.533 167.092C186.155 167.469 185.966 168.083 185.966 168.886C185.966 169.736 186.155 170.349 186.533 170.774C186.911 171.199 187.383 171.388 187.997 171.388C188.28 171.388 188.61 171.341 188.894 171.199C189.177 171.105 189.46 170.916 189.649 170.774V169.877H188.091V169.83ZM192.529 165.345H193.945V169.216C193.945 169.83 193.945 170.208 193.993 170.397C194.04 170.68 194.181 170.916 194.417 171.105C194.654 171.294 194.937 171.388 195.362 171.388C195.787 171.388 196.07 171.294 196.259 171.152C196.448 170.963 196.589 170.774 196.636 170.538C196.684 170.302 196.684 169.877 196.684 169.311V165.392H198.147V169.122C198.147 169.972 198.1 170.585 198.053 170.916C197.958 171.246 197.817 171.577 197.628 171.813C197.439 172.049 197.156 172.238 196.778 172.379C196.448 172.521 195.975 172.616 195.409 172.616C194.748 172.616 194.229 172.521 193.851 172.379C193.52 172.238 193.237 172.002 193.001 171.766C192.812 171.53 192.671 171.246 192.623 170.963C192.529 170.538 192.482 169.972 192.482 169.169V165.345H192.529ZM206.079 172.427H204.521L203.907 170.821H201.074L200.508 172.427H198.997L201.735 165.298H203.246L206.079 172.427ZM203.435 169.641L202.444 166.997L201.499 169.641H203.435ZM206.834 172.427V165.298H209.856C210.611 165.298 211.178 165.345 211.508 165.486C211.839 165.628 212.122 165.864 212.358 166.147C212.547 166.478 212.689 166.856 212.689 167.28C212.689 167.8 212.547 168.272 212.217 168.602C211.886 168.933 211.414 169.169 210.8 169.263C211.131 169.452 211.367 169.641 211.556 169.877C211.744 170.113 212.028 170.491 212.358 171.057L213.208 172.427H211.508L210.47 170.869C210.092 170.302 209.856 169.972 209.714 169.83C209.573 169.688 209.431 169.594 209.289 169.547C209.148 169.499 208.912 169.452 208.581 169.452H208.298V172.427H206.834ZM208.298 168.319H209.337C210.045 168.319 210.47 168.272 210.611 168.225C210.8 168.178 210.895 168.083 211.036 167.941C211.131 167.8 211.178 167.611 211.178 167.422C211.178 167.186 211.131 166.997 210.989 166.856C210.847 166.714 210.659 166.62 210.47 166.572C210.375 166.572 209.998 166.525 209.431 166.525H208.298V168.319ZM214.011 165.345H216.607C217.174 165.345 217.646 165.392 217.977 165.486C218.401 165.628 218.732 165.817 219.062 166.147C219.346 166.478 219.582 166.856 219.723 167.28C219.865 167.753 219.959 168.272 219.959 168.98C219.959 169.547 219.865 170.066 219.723 170.491C219.535 171.01 219.299 171.435 218.968 171.766C218.732 172.002 218.401 172.191 217.977 172.332C217.646 172.427 217.221 172.474 216.702 172.474H214.011V165.345ZM215.474 166.525V171.246H216.56C216.938 171.246 217.268 171.246 217.41 171.199C217.646 171.152 217.835 171.057 217.977 170.916C218.118 170.774 218.26 170.538 218.354 170.208C218.449 169.877 218.496 169.452 218.496 168.886C218.496 168.319 218.449 167.894 218.354 167.611C218.26 167.328 218.118 167.092 217.929 166.903C217.74 166.761 217.552 166.62 217.268 166.572C217.08 166.525 216.655 166.525 216.088 166.525H215.474Z" fill="#313131"/>
<path fill-rule="evenodd" clip-rule="evenodd" d="M183.842 78C183.747 80.2662 183.653 82.5324 183.558 84.7514C182.095 85.8845 180.584 86.9704 179.12 88.1035C179.12 90.5113 179.12 92.9192 179.12 95.3742C180.631 94.9021 182.142 94.9021 183.653 94.9021C183.889 100.52 184.031 106.186 184.219 111.804C184.314 112.512 184.361 113.268 184.455 113.976C183.936 114.495 183.889 114.92 182.85 115.581C181.717 116.195 181.434 116.148 181.151 117.611C181.292 119.358 181.292 119.5 182.52 120.444C183.37 120.68 183.747 120.869 184.597 120.491C185.116 133.616 185.589 146.694 186.108 159.819C186.344 159.772 186.533 159.678 186.769 159.631C186.769 159.442 186.769 159.253 186.769 159.064C186.769 158.875 186.769 158.639 186.769 158.45C186.769 158.073 186.769 157.742 186.722 157.364C186.391 144.995 186.061 132.625 185.73 120.255C186.533 119.736 187.194 119.217 187.949 118.603C188.61 121.105 188.799 123.371 188.846 126.015C188.657 126.865 188.469 127.762 188.28 128.612C187.902 131.067 187.619 133.428 187.524 135.883C187.477 136.449 187.43 137.063 187.43 137.63C187.666 137.63 187.902 137.63 188.138 137.63C188.421 139.471 188.657 141.312 188.799 143.153C188.091 146.553 188.516 149.338 188.941 152.643L189.46 156.987C189.554 157.695 187.996 158.498 188.044 159.017C188.044 159.583 188.988 159.914 189.46 160.056C190.027 160.103 189.979 160.244 191.207 159.961C192.623 159.631 192.623 159.395 192.482 158.356C192.387 157.742 192.198 157.648 192.151 156.798C192.104 155.618 192.246 153.776 192.293 152.738C192.482 150.613 192.954 148.63 193.237 146.506C193.284 145.467 193.379 144.759 193.143 143.767C193.237 143.295 193.379 142.87 193.473 142.398C193.662 141.501 193.804 140.604 193.898 139.707C193.945 139.282 193.945 138.904 193.992 138.479C194.276 138.479 194.559 138.527 194.842 138.527C194.889 139.754 194.984 140.746 195.267 141.926C195.409 142.54 195.55 143.201 195.692 143.814C195.645 144.287 195.645 144.759 195.598 145.231C195.55 145.75 195.503 146.222 195.503 146.742C195.55 147.355 195.692 147.922 195.786 148.488C195.928 149.244 196.07 149.999 196.211 150.755C196.542 152.407 196.778 156.562 196.684 157.364C196.589 157.742 196.353 158.025 196.259 158.45C196.211 158.734 196.211 158.922 196.259 159.159C196.353 159.536 196.778 159.725 197.344 159.772C198.478 159.914 198.147 159.914 199.327 159.867C199.658 159.867 200.13 159.772 200.413 159.489C200.602 159.3 200.885 158.828 200.744 158.592C200.366 157.978 199.705 157.648 199.186 157.223C199.186 157.223 199.186 156.609 199.233 156.515C199.327 156.09 199.941 152.738 199.988 152.171C200.319 150.991 200.366 149.763 200.508 148.583C200.602 146.883 200.508 145.845 200.036 144.334C200.13 142.209 200.177 140.179 200.413 138.149L201.452 142.068L202.16 143.484L202.868 144.806L203.01 143.531L203.104 142.115L201.594 134.089C202.066 134.325 202.491 134.514 202.963 134.75C205.04 132.153 206.645 129.603 206.929 126.015C207.118 122.238 206.976 118.414 206.551 114.684C206.504 114.07 206.457 113.504 206.409 112.89L203.388 113.409C202.963 112.088 202.491 111.143 200.744 110.199C199.611 109.585 198.572 109.255 197.25 108.877C197.203 109.491 197.722 106.092 197.722 104.628C197.439 103.448 197.014 102.362 196.447 101.229C194.937 101.087 193.473 100.993 191.915 101.229C191.49 102.409 191.018 103.448 190.64 104.722C190.782 106.233 191.112 107.602 191.301 109.066C190.451 109.396 189.46 109.538 188.657 109.963C187.383 110.529 186.533 111.332 185.447 112.276C185.164 106.469 184.928 100.709 184.692 94.9021C186.769 95.2798 188.752 95.7519 190.829 96.3185C192.812 96.9795 194.795 97.6877 196.731 98.4903C199.894 99.3873 202.538 99.9539 205.748 99.8122C209.903 99.1985 206.693 99.1985 208.062 96.3185C209.195 95.5159 210.517 95.1382 211.839 94.0523C209.809 93.1553 208.817 92.7776 210.281 90.2753C210.8 89.331 211.319 88.3868 211.839 87.4897C210.753 88.0563 209.667 88.6701 208.581 89.2366C207.448 89.7559 206.787 90.0392 205.607 90.0864C203.246 90.2753 203.482 90.0392 203.718 92.7303C201.31 92.6831 199.469 92.1166 197.156 91.4084C194.842 90.5113 192.482 89.6615 190.168 88.7645C188.232 88.2451 186.533 87.773 184.503 87.773C184.361 85.0347 184.455 82.2019 184.078 79.5108C183.983 79.0387 183.889 78.5193 183.842 78Z" fill="#313131"/>
<path fill-rule="evenodd" clip-rule="evenodd" d="M173.88 161.52H217.126C217.173 161.52 217.221 161.567 217.221 161.614V162.464C217.221 162.511 217.173 162.558 217.126 162.558H173.88C173.832 162.558 173.785 162.511 173.785 162.464V161.614C173.785 161.52 173.832 161.52 173.88 161.52Z" fill="#313131"/>
</svg>
