<svg width="125" height="87" viewBox="0 0 125 87" fill="none" xmlns="http://www.w3.org/2000/svg">
<path d="M61.5782 26.2816L59.2852 23.1836L63.7982 23.2116L61.5782 26.2816Z" stroke="#DE1F26" stroke-miterlimit="10"/>
<path d="M32.2329 29.9566V12.3926H91.8589V30.1136" stroke="#0000BD" stroke-miterlimit="10"/>
<path d="M91.8589 57.1719V75.0259H32.2329V57.1719" stroke="#0000BD" stroke-miterlimit="10"/>
<path d="M94.8741 30.4766H29.2861V57.1796H94.8741V30.4766Z" stroke="#0000BD" stroke-miterlimit="10"/>
<path d="M41.6849 40.5129C41.6849 41.8519 40.5999 42.9369 39.2599 42.9369C37.9209 42.9369 36.8359 41.8519 36.8359 40.5129C36.8359 39.1739 37.9209 38.0879 39.2599 38.0879C40.5999 38.0879 41.6849 39.1739 41.6849 40.5129Z" fill="#0000BD"/>
<path d="M50.5399 40.5129C50.5399 41.8519 49.4549 42.9369 48.1159 42.9369C46.7759 42.9369 45.6909 41.8519 45.6909 40.5129C45.6909 39.1739 46.7759 38.0879 48.1159 38.0879C49.4549 38.0879 50.5399 39.1739 50.5399 40.5129Z" fill="#0000BD"/>
<path d="M59.3939 40.5129C59.3939 41.8519 58.3089 42.9369 56.9699 42.9369C55.6309 42.9369 54.5449 41.8519 54.5449 40.5129C54.5449 39.1739 55.6309 38.0879 56.9699 38.0879C58.3089 38.0879 59.3939 39.1739 59.3939 40.5129Z" fill="#0000BD"/>
<path d="M68.2489 40.5129C68.2489 41.8519 67.1639 42.9369 65.8249 42.9369C64.4859 42.9369 63.3999 41.8519 63.3999 40.5129C63.3999 39.1739 64.4859 38.0879 65.8249 38.0879C67.1639 38.0879 68.2489 39.1739 68.2489 40.5129Z" fill="#0000BD"/>
<path d="M77.1039 40.5129C77.1039 41.8519 76.0179 42.9369 74.6789 42.9369C73.3399 42.9369 72.2539 41.8519 72.2539 40.5129C72.2539 39.1739 73.3399 38.0879 74.6789 38.0879C76.0179 38.0879 77.1039 39.1739 77.1039 40.5129Z" fill="#0000BD"/>
<path d="M46.5341 48.4914C46.5341 49.8304 45.4491 50.9154 44.1101 50.9154C42.7711 50.9154 41.6851 49.8304 41.6851 48.4914C41.6851 47.1524 42.7711 46.0664 44.1101 46.0664C45.4491 46.0664 46.5341 47.1524 46.5341 48.4914Z" fill="#0000BD"/>
<path d="M55.3891 48.4914C55.3891 49.8304 54.3031 50.9154 52.9641 50.9154C51.6251 50.9154 50.5391 49.8304 50.5391 48.4914C50.5391 47.1524 51.6251 46.0664 52.9641 46.0664C54.3031 46.0664 55.3891 47.1524 55.3891 48.4914Z" fill="#0000BD"/>
<path d="M64.244 48.4914C64.244 49.8304 63.158 50.9154 61.819 50.9154C60.48 50.9154 59.394 49.8304 59.394 48.4914C59.394 47.1524 60.48 46.0664 61.819 46.0664C63.158 46.0664 64.244 47.1524 64.244 48.4914Z" fill="#0000BD"/>
<path d="M73.098 48.4914C73.098 49.8304 72.012 50.9154 70.673 50.9154C69.334 50.9154 68.248 49.8304 68.248 48.4914C68.248 47.1524 69.334 46.0664 70.673 46.0664C72.012 46.0664 73.098 47.1524 73.098 48.4914Z" fill="#0000BD"/>
<path d="M81.953 48.4914C81.953 49.8304 80.867 50.9154 79.528 50.9154C78.189 50.9154 77.104 49.8304 77.104 48.4914C77.104 47.1524 78.189 46.0664 79.528 46.0664C80.867 46.0664 81.953 47.1524 81.953 48.4914Z" fill="#0000BD"/>
<path d="M85.9589 40.5129C85.9589 41.8519 84.8729 42.9369 83.5339 42.9369C82.1949 42.9369 81.1089 41.8519 81.1089 40.5129C81.1089 39.1739 82.1949 38.0879 83.5339 38.0879C84.8729 38.0879 85.9589 39.1739 85.9589 40.5129Z" fill="#0000BD"/>
<path d="M61.551 14.627V23.229" stroke="#DE1F26" stroke-miterlimit="10"/>
<path d="M61.5782 71.6166L59.2852 68.5176L63.7982 68.5456L61.5782 71.6166Z" stroke="#DE1F26" stroke-miterlimit="10"/>
<path d="M61.551 59.9609V68.5639" stroke="#DE1F26" stroke-miterlimit="10"/>
<path d="M123.813 1H1V85.586H123.813V1Z" stroke="#DE1F26" stroke-miterlimit="10"/>
</svg>
