<svg width="125" height="87" viewBox="0 0 125 87" fill="none" xmlns="http://www.w3.org/2000/svg">
<path d="M55.2192 60.7754L53.5732 66.9744L55.3232 65.1154L57.3392 67.0934L55.2192 60.7754Z" stroke="#DE1F26" stroke-miterlimit="10"/>
<path d="M46.4902 71.027H38.2412V7.66602H66.6302V8.53702V22.34L78.5622 32.763V71.027H46.4902Z" stroke="#0000BD" stroke-miterlimit="10"/>
<path d="M38.2412 71.0273L35.8872 74.6853H47.6682L49.9882 71.2943" stroke="#0000BD" stroke-miterlimit="10"/>
<path d="M78.5619 71.0273V80.3073H58.3779V71.2043" stroke="#0000BD" stroke-miterlimit="10"/>
<path d="M38.4971 22.3398H66.6301C66.9001 22.0688 63.0321 26.6078 63.0321 26.6078" stroke="#0000BD" stroke-miterlimit="10"/>
<path d="M55.705 30.1959L38.584 22.7949" stroke="#0000BD" stroke-miterlimit="10"/>
<path d="M70.5472 39.4917L67.1992 37.2177L71.6812 35.6777L70.5472 39.4917Z" stroke="#DE1F26" stroke-miterlimit="10"/>
<path d="M55.4529 53.8627V48.2497L55.4089 46.8537C55.4089 46.8537 57.2259 46.1357 56.9379 44.6247C56.6829 43.2857 55.4529 41.6017 55.4529 41.6017V35.6307V35.4707C60.4299 35.5907 64.4499 39.6917 64.4499 44.6677C64.4499 49.7627 60.3489 53.8637 55.2539 53.8637" fill="#DD1F26"/>
<path d="M55.2542 55.5347C61.2662 55.5347 66.1622 50.6387 66.1622 44.6267C66.1622 38.6157 61.2662 33.7188 55.2542 33.7188C49.2432 33.7188 44.3462 38.6157 44.3462 44.6267C44.3462 50.6387 49.2432 55.5347 55.2542 55.5347Z" stroke="#0000BD" stroke-miterlimit="10"/>
<path d="M55.2541 46.4978C56.2891 46.4978 57.1251 45.6618 57.1251 44.6268C57.1251 43.5918 56.2891 42.7559 55.2541 42.7559C54.2191 42.7559 53.3831 43.5918 53.3831 44.6268C53.4231 45.6618 54.2191 46.4978 55.2541 46.4978Z" stroke="#0000BD" stroke-miterlimit="10"/>
<path d="M55.4531 35.4707H55.2541C50.1581 35.4707 46.0571 39.5707 46.0571 44.6657C46.0571 49.7627 50.1581 53.8627 55.2541 53.8627C60.3491 53.8627 64.4501 49.7617 64.4501 44.6657C64.4511 39.6897 60.4301 35.5897 55.4531 35.4707ZM55.4531 35.4707V35.6287V41.6017V42.7557" stroke="#0000BD" stroke-miterlimit="10"/>
<path d="M55.4531 53.8631V48.25V46.498" stroke="#0000BD" stroke-miterlimit="10"/>
<path d="M66.1621 44.627H68.3961" stroke="#0000BD" stroke-miterlimit="10"/>
<path d="M44.3472 44.627H41.9072" stroke="#0000BD" stroke-miterlimit="10"/>
<path d="M55.2539 33.7194V31.8984" stroke="#0000BD" stroke-miterlimit="10"/>
<path d="M55.2539 55.5352V57.2702" stroke="#0000BD" stroke-miterlimit="10"/>
<path d="M56.4492 26.2773C56.4492 26.2773 68.1242 29.1023 69.6302 36.6333" stroke="#DE1F26" stroke-miterlimit="10"/>
<path d="M123.813 1H1V85.587H123.813V1Z" stroke="#DE1F26" stroke-miterlimit="10"/>
</svg>
