<svg width="53" height="53" viewBox="0 0 53 53" fill="none" xmlns="http://www.w3.org/2000/svg">
<circle cx="26.5" cy="26.5" r="26.5" fill="transition"/>
<path d="M21.8407 20.2873L21.6963 20.0374H21.4078H18.0823L22.4514 12.5H31.5825L35.9418 20.0845L34.1508 23.2106H30.7995L27.4309 17.4152L26.9976 16.6696L26.5658 17.4161L23.3723 22.9382L21.8407 20.2873Z" stroke="#fff"/>
<path d="M22.1843 37.5128L22.0404 37.7619L22.1834 38.0115L23.8323 40.8895H15.1242L10.5775 33.0038L14.9724 25.419H18.5873L20.265 28.3551L16.9336 34.1127L16.4994 34.8631H17.3664H23.7153L22.1843 37.5128Z" stroke="#fff"/>
<path d="M37.0669 34.1136L33.9097 28.63H36.9736H37.2608L37.4055 28.3819L39.087 25.4994L43.4227 33.0034L38.8758 40.8895H30.0833L28.2588 37.7618L29.9336 34.8631H36.6336H37.4985L37.0669 34.1136Z" stroke="#fff"/>
</svg>
