<svg width="53" height="53" viewBox="0 0 53 53" fill="none" xmlns="http://www.w3.org/2000/svg">
<circle cx="26.5" cy="26.5" r="26.5" fill="white"/>
<path d="M13 42.4283V29.8569L22.7143 25.2854V29.8569L31.8571 25.2854V29.8569L41 25.2854V42.4283H13Z" stroke="#DF0112"/>
<path d="M19.2855 24.1428L14.7141 26.4285L15.857 14.4285H18.7141L19.2855 24.1428Z" stroke="#0000FF"/>
<path d="M29.0006 23.5441L25.572 25.2856L26.4292 16.1427H28.572L29.0006 23.5441Z" stroke="#0000FF"/>
<path d="M16.5578 12.7143C16.5578 12.7143 17.5281 12.1429 17.5281 10.8095C17.5281 9.92369 16.8727 9.73272 16.5577 8.90476C16.2674 8.14142 16.5578 7 16.5578 7" stroke="#0000FF"/>
<path d="M26.8434 13.8575C26.8434 13.8575 27.8138 13.2861 27.8138 11.9528C27.8138 11.0669 27.1583 10.876 26.8434 10.048C26.5531 9.28467 26.8434 8.14325 26.8434 8.14325" stroke="#0000FF"/>
<line x1="16.4287" y1="36.2142" x2="21.0001" y2="36.2142" stroke="#DF0112"/>
<line x1="24.4287" y1="36.2142" x2="29.0001" y2="36.2142" stroke="#DF0112"/>
<line x1="32.4287" y1="36.2142" x2="37.0001" y2="36.2142" stroke="#DF0112"/>
</svg>
