<svg width="3599" height="11" xmlns="http://www.w3.org/2000/svg">

 <g>
  <title>background</title>
  <rect fill="none" id="canvas_background" height="13" width="3601" y="-1" x="-1"/>
 </g>
 <g>
  <title>Layer 1</title>
  <g id="svg_15">
   <line id="svg_1" stroke-dasharray="4 4" stroke="#C4C4C4" y2="5.5" x2="1600" y1="5.5"/>
   <path id="svg_2" fill="#C4C4C4" d="m97,5.5l-11.25,-4.76314l0,9.52624l11.25,-4.7631z"/>
   <path id="svg_3" fill="#C4C4C4" d="m215,5.5l-11.25,-4.76314l0,9.52624l11.25,-4.7631z"/>
   <path id="svg_4" fill="#C4C4C4" d="m333,5.5l-11.25,-4.76314l0,9.52624l11.25,-4.7631z"/>
   <path id="svg_5" fill="#C4C4C4" d="m451,5.5l-11.25,-4.76314l0,9.52624l11.25,-4.7631z"/>
   <path id="svg_6" fill="#C4C4C4" d="m569,5.5l-11.25,-4.76314l0,9.52624l11.25,-4.7631z"/>
   <path id="svg_7" fill="#C4C4C4" d="m687,5.5l-11.25,-4.76314l0,9.52624l11.25,-4.7631z"/>
   <path id="svg_8" fill="#C4C4C4" d="m805,5.5l-11.25,-4.76314l0,9.52624l11.25,-4.7631z"/>
   <path id="svg_9" fill="#C4C4C4" d="m923,5.5l-11.25,-4.76314l0,9.52624l11.25,-4.7631z"/>
   <path id="svg_10" fill="#C4C4C4" d="m1041,5.5l-11.25,-4.76314l0,9.52624l11.25,-4.7631z"/>
   <path id="svg_11" fill="#C4C4C4" d="m1159,5.5l-11.25,-4.76314l0,9.52624l11.25,-4.7631z"/>
   <path id="svg_12" fill="#C4C4C4" d="m1277,5.5l-11.25,-4.76314l0,9.52624l11.25,-4.7631z"/>
   <path id="svg_13" fill="#C4C4C4" d="m1395,5.5l-11.25,-4.76314l0,9.52624l11.25,-4.7631z"/>
   <path id="svg_14" fill="#C4C4C4" d="m1513,5.5l-11.25,-4.76314l0,9.52624l11.25,-4.7631z"/>
  </g>
  <g id="svg_30">
   <line x1="0" id="svg_16" stroke-dasharray="4 4" stroke="#C4C4C4" y2="-72.23686" x2="1600" y1="-72.23686"/>
   <path id="svg_17" fill="#C4C4C4" d="m97,-72.23686l-11.25,-4.76314l0,9.52624l11.25,-4.7631z"/>
   <path id="svg_18" fill="#C4C4C4" d="m215,-72.23686l-11.25,-4.76314l0,9.52624l11.25,-4.7631z"/>
   <path id="svg_19" fill="#C4C4C4" d="m333,-72.23686l-11.25,-4.76314l0,9.52624l11.25,-4.7631z"/>
   <path id="svg_20" fill="#C4C4C4" d="m451,-72.23686l-11.25,-4.76314l0,9.52624l11.25,-4.7631z"/>
   <path id="svg_21" fill="#C4C4C4" d="m569,-72.23686l-11.25,-4.76314l0,9.52624l11.25,-4.7631z"/>
   <path id="svg_22" fill="#C4C4C4" d="m687,-72.23686l-11.25,-4.76314l0,9.52624l11.25,-4.7631z"/>
   <path id="svg_23" fill="#C4C4C4" d="m805,-72.23686l-11.25,-4.76314l0,9.52624l11.25,-4.7631z"/>
   <path id="svg_24" fill="#C4C4C4" d="m923,-72.23686l-11.25,-4.76314l0,9.52624l11.25,-4.7631z"/>
   <path id="svg_25" fill="#C4C4C4" d="m1041,-72.23686l-11.25,-4.76314l0,9.52624l11.25,-4.7631z"/>
   <path id="svg_26" fill="#C4C4C4" d="m1159,-72.23686l-11.25,-4.76314l0,9.52624l11.25,-4.7631z"/>
   <path id="svg_27" fill="#C4C4C4" d="m1277,-72.23686l-11.25,-4.76314l0,9.52624l11.25,-4.7631z"/>
   <path id="svg_28" fill="#C4C4C4" d="m1395,-72.23686l-11.25,-4.76314l0,9.52624l11.25,-4.7631z"/>
   <path id="svg_29" fill="#C4C4C4" d="m1513,-72.23686l-11.25,-4.76314l0,9.52624l11.25,-4.7631z"/>
  </g>
  <g id="svg_45">
   <line x1="1519" id="svg_31" stroke-dasharray="4 4" stroke="#C4C4C4" y2="5.5" x2="3119" y1="5.5"/>
   <path id="svg_32" fill="#C4C4C4" d="m1616,5.5l-11.25,-4.76314l0,9.52624l11.25,-4.7631z"/>
   <path id="svg_33" fill="#C4C4C4" d="m1734,5.5l-11.25,-4.76314l0,9.52624l11.25,-4.7631z"/>
   <path id="svg_34" fill="#C4C4C4" d="m1852,5.5l-11.25,-4.76314l0,9.52624l11.25,-4.7631z"/>
   <path id="svg_35" fill="#C4C4C4" d="m1970,5.5l-11.25,-4.76314l0,9.52624l11.25,-4.7631z"/>
   <path id="svg_36" fill="#C4C4C4" d="m2088,5.5l-11.25,-4.76314l0,9.52624l11.25,-4.7631z"/>
   <path id="svg_37" fill="#C4C4C4" d="m2206,5.5l-11.25,-4.76314l0,9.52624l11.25,-4.7631z"/>
   <path id="svg_38" fill="#C4C4C4" d="m2324,5.5l-11.25,-4.76314l0,9.52624l11.25,-4.7631z"/>
   <path id="svg_39" fill="#C4C4C4" d="m2442,5.5l-11.25,-4.76314l0,9.52624l11.25,-4.7631z"/>
   <path id="svg_40" fill="#C4C4C4" d="m2560,5.5l-11.25,-4.76314l0,9.52624l11.25,-4.7631z"/>
   <path id="svg_41" fill="#C4C4C4" d="m2678,5.5l-11.25,-4.76314l0,9.52624l11.25,-4.7631z"/>
   <path id="svg_42" fill="#C4C4C4" d="m2796,5.5l-11.25,-4.76314l0,9.52624l11.25,-4.7631z"/>
   <path id="svg_43" fill="#C4C4C4" d="m2914,5.5l-11.25,-4.76314l0,9.52624l11.25,-4.7631z"/>
   <path id="svg_44" fill="#C4C4C4" d="m3032,5.5l-11.25,-4.76314l0,9.52624l11.25,-4.7631z"/>
  </g>
  <g id="svg_60">
   <line x1="3031" id="svg_46" stroke-dasharray="4 4" stroke="#C4C4C4" y2="5.5" x2="4631" y1="5.5"/>
   <path id="svg_47" fill="#C4C4C4" d="m3128,5.5l-11.25,-4.76314l0,9.52624l11.25,-4.7631z"/>
   <path id="svg_48" fill="#C4C4C4" d="m3246,5.5l-11.25,-4.76314l0,9.52624l11.25,-4.7631z"/>
   <path id="svg_49" fill="#C4C4C4" d="m3364,5.5l-11.25,-4.76314l0,9.52624l11.25,-4.7631z"/>
   <path id="svg_50" fill="#C4C4C4" d="m3482,5.5l-11.25,-4.76314l0,9.52624l11.25,-4.7631z"/>
   <path id="svg_51" fill="#C4C4C4" d="m3600,5.5l-11.25,-4.76314l0,9.52624l11.25,-4.7631z"/>
   <path id="svg_52" fill="#C4C4C4" d="m3718,5.5l-11.25,-4.76314l0,9.52624l11.25,-4.7631z"/>
   <path id="svg_53" fill="#C4C4C4" d="m3836,5.5l-11.25,-4.76314l0,9.52624l11.25,-4.7631z"/>
   <path id="svg_54" fill="#C4C4C4" d="m3954,5.5l-11.25,-4.76314l0,9.52624l11.25,-4.7631z"/>
   <path id="svg_55" fill="#C4C4C4" d="m4072,5.5l-11.25,-4.76314l0,9.52624l11.25,-4.7631z"/>
   <path id="svg_56" fill="#C4C4C4" d="m4190,5.5l-11.25,-4.76314l0,9.52624l11.25,-4.7631z"/>
   <path id="svg_57" fill="#C4C4C4" d="m4308,5.5l-11.25,-4.76314l0,9.52624l11.25,-4.7631z"/>
   <path id="svg_58" fill="#C4C4C4" d="m4426,5.5l-11.25,-4.76314l0,9.52624l11.25,-4.7631z"/>
   <path id="svg_59" fill="#C4C4C4" d="m4544,5.5l-11.25,-4.76314l0,9.52624l11.25,-4.7631z"/>
  </g>
 </g>
</svg>