<svg width="57" height="91" fill="none" xmlns="http://www.w3.org/2000/svg"><path d="M47.307 19.63L16.647 1.75c-2.42-1.435-4.625-1.507-6.26-.574L3.058 5.485c1.565-.934 3.77-.79 6.26.574l30.66 17.879c4.838 2.8 8.822 9.765 8.822 15.437v44.876c0 2.8-.996 4.81-2.561 5.744l7.327-4.308c1.565-.933 2.561-2.944 2.561-5.744V34.995c0-5.672-3.984-12.565-8.821-15.365z" fill="#fff"/><path d="M46.169 90.425c-.143 0-.356-.072-.427-.287-.142-.215-.071-.574.213-.718 1.494-.862 2.348-2.728 2.348-5.313V39.303c0-5.53-3.842-12.207-8.537-14.935L9.035 6.489C6.9 5.27 4.766 5.053 3.343 5.843c-.213.143-.569.072-.71-.216-.143-.215 0-.502.213-.646L10.173.673c1.778-1.077 4.268-.861 6.758.646l30.66 17.879c4.98 2.944 9.035 10.052 9.035 15.868v44.876c0 2.944-.996 5.098-2.846 6.175l-7.327 4.308c-.071-.072-.213 0-.284 0zM5.976 4.335c1.138.144 2.347.503 3.628 1.22l30.66 17.88c4.98 2.943 9.035 10.052 9.035 15.868v44.876c0 1.436-.285 2.728-.712 3.733l4.695-2.728c1.494-.862 2.348-2.729 2.348-5.314V34.994c0-5.528-3.842-12.206-8.537-14.934L16.433 2.18C14.299.96 12.165.744 10.742 1.534l-4.766 2.8z" fill="#0000BD"/><path d="M48.8 84.107c0 2.8-.995 4.81-2.56 5.744-1.565.933-3.77.79-6.26-.575L9.32 71.398C4.481 68.598.497 61.633.497 56.032V11.156c0-2.8.996-4.81 2.561-5.744 1.565-.933 3.77-.79 6.26.574l30.66 17.879c4.838 2.8 8.822 9.765 8.822 15.437v44.805z" fill="#fff"/><path d="M43.892 91c-1.28 0-2.703-.431-4.197-1.293L9.035 71.828C4.055 68.956 0 61.848 0 56.032V11.156C0 8.212.996 6.058 2.846 4.98c1.778-1.077 4.268-.862 6.758.646l30.66 17.879c4.98 2.944 9.035 10.052 9.035 15.868V84.25c0 2.944-.996 5.098-2.846 6.175a6.09 6.09 0 01-2.56.575zM5.406 5.34c-.782 0-1.422.144-2.063.503-1.493.861-2.347 2.8-2.347 5.313v44.876c0 5.529 3.841 12.206 8.537 14.935l30.66 17.878c2.134 1.221 4.268 1.508 5.691.647 1.494-.862 2.348-2.729 2.348-5.314V39.302c0-5.529-3.842-12.206-8.537-14.934L9.035 6.488C7.825 5.7 6.545 5.34 5.406 5.34z" fill="#0000BD"/><path d="M10.884 64.362C8.75 63.07 6.971 60.054 6.971 57.54V23.722c0-1.292.427-2.154 1.139-2.585.711-.43 1.707-.359 2.774.287L38.13 37.293c2.134 1.292 3.913 4.308 3.913 6.82v33.82c0 1.292-.427 2.153-1.139 2.584-.711.431-1.707.36-2.774-.287L10.884 64.362z" fill="#fff"/><path d="M39.837 81.307c-.64 0-1.28-.215-1.992-.574L10.6 64.793C8.323 63.5 6.402 60.198 6.402 57.54V23.722c0-1.436.498-2.441 1.423-3.015.925-.503 2.063-.431 3.272.287l27.246 15.868c2.277 1.364 4.197 4.595 4.197 7.324v33.818c0 1.436-.497 2.513-1.422 3.016-.356.144-.783.287-1.28.287zM9.106 21.425c-.285 0-.57.071-.783.215-.569.36-.925 1.077-.925 2.082v33.819c0 2.298 1.708 5.241 3.7 6.39L38.343 79.8c.854.503 1.708.575 2.277.288.569-.36.925-1.077.925-2.083V44.186c0-2.298-1.708-5.242-3.7-6.39L10.6 21.855c-.498-.288-1.068-.431-1.494-.431z" fill="#000"/><path d="M38.13 37.293L10.884 21.424c-1.067-.646-2.063-.718-2.774-.287l-2.632 1.508c.711-.43 1.707-.359 2.774.287l27.246 15.869c2.134 1.292 3.913 4.308 3.913 6.82v33.82c0 1.292-.427 2.153-1.139 2.584l2.632-1.508c.712-.43 1.139-1.292 1.139-2.585V44.186c0-2.513-1.779-5.6-3.913-6.893z" fill="#fff"/><path d="M38.272 82.6c-.142 0-.355-.072-.427-.287-.142-.216-.07-.575.214-.719.569-.358.925-1.077.925-2.082V45.694c0-2.298-1.708-5.242-3.7-6.39L7.968 23.363c-.853-.503-1.707-.575-2.276-.216-.213.143-.57.072-.711-.215-.143-.216-.071-.575.213-.718l2.632-1.508c.925-.503 2.063-.431 3.272.287l27.246 15.868c2.277 1.364 4.197 4.595 4.197 7.324v33.818c0 1.436-.497 2.513-1.422 3.016l-2.632 1.508c-.072 0-.143.072-.214.072zM7.541 22.07c.284.073.64.216.996.432L35.782 38.37c2.277 1.364 4.198 4.595 4.198 7.324v33.818c0 .36-.072.718-.072 1.077l.783-.502c.57-.36.925-1.077.925-2.083V44.186c0-2.298-1.708-5.242-3.7-6.39L10.6 21.855c-.854-.503-1.708-.575-2.277-.288l-.782.503z" fill="#DF0112"/><path d="M8.252 65.87c-2.134-1.293-3.913-4.309-3.913-6.822V25.23c0-1.293.427-2.154 1.139-2.585.711-.431 1.707-.36 2.774.287L35.498 38.8c2.134 1.293 3.913 4.308 3.913 6.821V79.44c0 1.292-.427 2.154-1.139 2.585-.711.43-1.707.359-2.774-.287L8.252 65.87z" fill="#fff"/><path d="M37.276 82.815c-.64 0-1.28-.216-1.992-.575L7.968 66.372c-2.276-1.364-4.126-4.667-4.126-7.324V25.23c0-1.436.498-2.441 1.423-3.016.925-.502 2.063-.43 3.273.287L35.782 38.37c2.277 1.364 4.198 4.595 4.198 7.323v33.819c0 1.436-.498 2.513-1.423 3.016a2.768 2.768 0 01-1.28.287zM6.474 22.932c-.285 0-.57.072-.783.216-.57.359-.925 1.077-.925 2.082v33.819c0 2.297 1.708 5.241 3.7 6.39L35.71 81.307c.854.503 1.708.574 2.277.287.569-.359.925-1.077.925-2.082V45.693c0-2.297-1.708-5.241-3.7-6.39L7.967 23.363c-.498-.287-.995-.43-1.493-.43z" fill="#DF0112"/><path d="M10.884 30.83L7.47 28.892v-6.39l3.415 1.938v6.39z" fill="#fff"/><path d="M7.47 22.501l5.477-3.23 3.344 2.01-5.407 3.159-3.415-1.939z" fill="#fff"/><path d="M10.884 31.404c-.071 0-.142 0-.284-.072l-3.415-2.01c-.142-.072-.285-.287-.285-.43V22.5c0-.216.072-.36.285-.43a.603.603 0 01.498 0l3.415 2.01c.142.071.284.287.284.43v6.39c0 .216-.071.36-.284.431-.072 0-.143.072-.214.072zm-2.917-2.8l2.348 1.364v-5.241l-2.348-1.364v5.241z" fill="#DF0112"/><path d="M13.73 29.18v-3.017l2.56-1.58v-3.302l-5.406 3.16v6.39l2.846-1.652z" fill="#fff"/><path d="M10.884 31.405c-.071 0-.142 0-.284-.072-.143-.072-.285-.287-.285-.43V24.44c0-.215.071-.359.285-.43l5.477-3.16a.603.603 0 01.498 0c.142.072.285.287.285.43v3.375c0 .216-.071.36-.285.431l-2.347 1.365v2.728c0 .215-.072.359-.285.43l-2.845 1.652c-.072.072-.143.144-.214.144zm.498-6.678v5.242l1.85-1.077v-2.729c0-.215.07-.359.284-.43l2.348-1.365v-2.154l-4.482 2.513z" fill="#DF0112"/><path d="M10.884 24.942c-.071 0-.142 0-.284-.072l-3.415-2.01c-.142-.072-.285-.287-.285-.43 0-.216.072-.36.285-.432l5.478-3.159a.602.602 0 01.498 0l3.414 2.01c.142.072.285.288.285.431 0 .216-.071.36-.285.431l-5.477 3.16c-.072.071-.143.071-.214.071zm-2.419-2.441l2.348 1.364 4.482-2.585-2.348-1.364-4.482 2.585z" fill="#DF0112"/><path d="M31.087 42.678l-3.414-2.01v-6.39l3.414 1.938v6.462z" fill="#fff"/><path d="M31.087 43.18c-.07 0-.213 0-.284-.072l-3.415-2.01c-.142-.072-.284-.287-.284-.43v-6.391c0-.216.07-.36.284-.431a.603.603 0 01.498 0l3.415 2.01c.142.072.284.288.284.431v6.39c0 .216-.07.36-.284.431 0 .072-.143.072-.214.072zm-2.845-2.8l2.347 1.364v-5.241l-2.347-1.365v5.242z" fill="#DF0112"/><path d="M33.933 40.954v-3.016l2.632-1.507v-3.375l-5.478 3.16v6.461l2.846-1.723z" fill="#fff"/><path d="M31.087 43.18c-.07 0-.142 0-.284-.071-.143-.072-.285-.288-.285-.431v-6.39c0-.216.071-.36.285-.431l5.477-3.16a.603.603 0 01.498 0c.143.072.285.288.285.431v3.375c0 .215-.071.359-.285.43l-2.347 1.365v2.657c0 .215-.071.359-.285.43l-2.845 1.652c0 .144-.142.144-.214.144zm.498-6.605v5.241l1.85-1.077v-2.728c0-.216.071-.36.284-.431l2.348-1.364v-2.154l-4.482 2.513z" fill="#DF0112"/><path d="M27.673 34.277l5.477-3.16 3.415 1.94-5.478 3.159-3.414-1.939z" fill="#fff"/><path d="M31.087 36.79c-.07 0-.213 0-.284-.072l-3.415-2.01c-.142-.072-.284-.288-.284-.431 0-.144.07-.36.284-.431l5.478-3.16a.602.602 0 01.498 0l3.414 2.011c.143.072.285.287.285.43 0 .145-.071.36-.285.432l-5.477 3.159s-.143.072-.214.072zm-2.347-2.513l2.347 1.364 4.482-2.585-2.348-1.364-4.481 2.585z" fill="#DF0112"/><path d="M20.986 36.79l-3.415-2.01v-6.39l3.415 1.938v6.462z" fill="#fff"/><path d="M20.986 37.292c-.071 0-.143 0-.285-.072l-3.343-2.01c-.143-.072-.285-.287-.285-.43v-6.391c0-.216.071-.36.285-.431a.602.602 0 01.498 0l3.414 2.01c.143.072.285.288.285.431v6.39c0 .216-.071.36-.285.431-.142 0-.213.072-.284.072zm-2.917-2.8l2.348 1.364v-5.241l-2.348-1.365v5.242z" fill="#DF0112"/><path d="M23.831 35.066V32.05l2.632-1.508v-3.374l-5.477 3.159v6.462l2.845-1.723z" fill="#fff"/><path d="M20.986 37.292c-.071 0-.143 0-.285-.071-.142-.072-.284-.287-.284-.431V30.4c0-.216.07-.36.284-.431l5.478-3.16a.603.603 0 01.498 0c.142.072.284.288.284.431v3.375c0 .215-.07.359-.284.43l-2.348 1.293v2.729c0 .215-.07.359-.284.43l-2.846 1.652c-.071.072-.142.143-.213.143zm.498-6.677v5.241l1.85-1.077v-2.728c0-.215.07-.359.284-.43l2.347-1.365v-2.154l-4.481 2.513z" fill="#DF0112"/><path d="M17.571 28.39l5.478-3.232 3.414 2.01-5.477 3.16-3.415-1.939z" fill="#fff"/><path d="M20.986 30.83c-.071 0-.143 0-.285-.072l-3.415-2.01c-.142 0-.213-.216-.213-.36 0-.143.071-.358.285-.43l5.477-3.16a.603.603 0 01.498 0l3.415 2.011c.142.072.284.287.284.431 0 .215-.07.359-.284.43l-5.478 3.16h-.284zm-2.419-2.441l2.348 1.364 4.481-2.585-2.347-1.364-4.482 2.585zm2.276 36.045l-10.315-5.96c.143-3.23 1.708-4.236 3.7-4.954l1.422-.43c1.85-.647 3.984-1.293 3.984-4.668 0-2.8-1.494-5.529-3.841-6.893-2.988-1.723-3.984.43-4.055 3.95l-.925-.504v-.646c.142-3.949 1.85-5.672 4.98-3.805 2.845 1.651 4.695 5.026 4.695 8.472 0 2.8-1.138 3.95-2.703 4.667-.783.36-.925.431-2.704 1.006-1.494.502-3.272.933-3.628 3.303l9.248 5.385v1.077h.142zM23.333 50c0-3.23 1.85-4.164 4.767-2.44 2.987 1.723 4.766 4.738 4.766 7.97 0 2.584-1.21 3.446-2.846 3.015 1.992 1.58 3.486 4.308 3.486 7.396 0 3.949-2.063 5.17-5.335 3.23-3.415-2.01-5.478-5.6-5.478-9.405 0-3.088 1.494-4.165 3.557-3.375-1.92-1.723-2.917-3.95-2.917-6.39zm.285 10.268c0 3.231 1.707 6.175 4.482 7.827 2.774 1.651 4.481.646 4.481-2.585 0-3.088-1.707-5.888-4.553-7.54-2.774-1.65-4.41-.79-4.41 2.298zm.64-9.693c0 2.585 1.494 4.954 3.913 6.39 2.418 1.365 3.841.718 3.841-1.866 0-2.657-1.423-4.955-3.913-6.463-2.49-1.436-3.84-.718-3.84 1.94z" fill="#DF0112"/></svg>