<svg width="53" height="59" viewBox="0 0 53 59" fill="none" xmlns="http://www.w3.org/2000/svg">
<path d="M0 0H53V47.5204L26.5 59L0 47.5204V0Z" fill="white"/>
<path fill-rule="evenodd" clip-rule="evenodd" d="M12.961 13.7519H14.7259H30.9601C37.2758 13.7519 42.5122 18.4655 43.2999 24.5239H36.6195C35.9485 22.2827 33.8335 20.6344 31.3539 20.6344H13.1506H11.4878L10 13.7519H12.961Z" fill="#0000BD"/>
<path fill-rule="evenodd" clip-rule="evenodd" d="M42.3372 13C41.8996 13 41.4912 13.1735 41.1703 13.4771C40.8494 13.8097 40.6598 14.2001 40.6598 14.6772C40.6598 15.111 40.8348 15.5014 41.1703 15.8195C41.4912 16.1521 41.8996 16.2967 42.3372 16.2967C42.8039 16.2967 43.1977 16.1521 43.5186 15.8195C43.8395 15.5014 44 15.1255 44 14.6772C44 14.2001 43.8395 13.8242 43.5186 13.4771C43.1977 13.1735 42.7893 13 42.3372 13ZM41.3599 13.694C41.6225 13.4482 41.9579 13.2892 42.3226 13.2892C42.6872 13.2892 43.0227 13.4482 43.2853 13.694C43.5478 13.9688 43.6937 14.2724 43.6937 14.6772C43.6937 15.0387 43.5478 15.3713 43.2853 15.6171C43.0227 15.8773 42.6872 16.0219 42.3226 16.0219C41.9579 16.0219 41.6225 15.8773 41.3599 15.6171C41.0974 15.3713 40.9515 15.0387 40.9807 14.6772C40.9661 14.2724 41.112 13.9832 41.3599 13.694Z" fill="#0000BD"/>
<path fill-rule="evenodd" clip-rule="evenodd" d="M41.6954 15.4147V13.8676H42.3664C42.5268 13.8676 42.6581 13.882 42.731 13.9109C42.804 13.9398 42.8623 13.9832 42.9061 14.0555C42.9498 14.1278 42.979 14.2146 42.979 14.3013C42.979 14.417 42.9498 14.5182 42.8769 14.5905C42.804 14.6628 42.7019 14.7206 42.5706 14.7351C42.6435 14.7785 42.7019 14.8219 42.7456 14.8652C42.7894 14.9086 42.8477 14.9954 42.9207 15.111L43.1103 15.4147H42.731L42.4977 15.0821C42.4101 14.9664 42.3664 14.8797 42.3372 14.8508C42.308 14.8219 42.2789 14.7929 42.2351 14.7929C42.2059 14.7785 42.1476 14.7785 42.0747 14.7785H42.0163V15.4291H41.6954V15.4147ZM42.0163 14.5327H42.2497C42.3956 14.5327 42.4977 14.5327 42.5268 14.5182C42.5706 14.5038 42.5998 14.4893 42.6144 14.4459C42.6289 14.417 42.6435 14.3736 42.6435 14.3302C42.6435 14.2724 42.6289 14.229 42.5998 14.2001C42.5706 14.1712 42.5268 14.1423 42.4831 14.1423C42.4539 14.1423 42.381 14.1423 42.2497 14.1423H42.0017V14.5327H42.0163Z" fill="#0000BD"/>
<path fill-rule="evenodd" clip-rule="evenodd" d="M11.9253 27.3V23.2081H16.1407V23.9744H12.9171V24.8709H16.0385V25.5794H12.9171V26.5192H16.1407V27.2856H11.9253V27.3ZM18.241 24.0178V25.2757H20.2977C20.5019 25.2757 20.6477 25.2324 20.7352 25.1312C20.8228 25.0299 20.8665 24.8709 20.8665 24.6396C20.8665 24.4082 20.8228 24.2636 20.7498 24.1624C20.6623 24.0612 20.5165 24.0034 20.2977 24.0034H18.241V24.0178ZM21.9313 27.3H20.9395V26.6638C20.9395 26.4614 20.8811 26.3168 20.7498 26.23C20.6331 26.1433 20.4289 26.0855 20.1518 26.0855H18.241V27.3H17.2492V23.2081H20.3852C20.8519 23.2081 21.202 23.3093 21.4354 23.4973C21.7125 23.7286 21.8438 24.1046 21.8438 24.654C21.8438 24.9432 21.7854 25.1745 21.6542 25.3625C21.5666 25.4926 21.4208 25.6228 21.2312 25.724C21.45 25.7963 21.625 25.883 21.7125 25.9842C21.8292 26.0999 21.9021 26.259 21.9021 26.4614V27.3H21.9313ZM25.3007 24.8998H27.9116V25.9842C27.9116 26.4614 27.7949 26.8084 27.5761 26.9964C27.3427 27.1843 26.9635 27.2856 26.4238 27.2856H24.4255C23.915 27.2856 23.5358 27.1699 23.2732 26.953C23.0253 26.7361 22.894 26.3746 22.894 25.883V24.6251C22.894 24.0901 23.0107 23.6997 23.244 23.4828C23.4774 23.2659 23.8712 23.1503 24.4109 23.1503H26.3946C26.9197 23.1503 27.299 23.237 27.5177 23.3961C27.7803 23.584 27.897 23.9166 27.897 24.4082H26.9051C26.9051 24.2492 26.8468 24.1335 26.7301 24.0756C26.6134 24.0034 26.4092 23.9744 26.1175 23.9744H24.6589C24.3526 23.9744 24.1484 24.0323 24.0317 24.1479C23.915 24.2636 23.8567 24.466 23.8567 24.7697V25.8107C23.8567 26.0855 23.9004 26.2734 24.0025 26.3602C24.1046 26.4469 24.3088 26.4903 24.6443 26.4903H26.2633C26.4967 26.4903 26.6718 26.4614 26.7593 26.3891C26.8468 26.3168 26.8905 26.2156 26.8905 26.0565V25.6228H25.2569V24.8998H25.3007ZM29.8077 27.3H28.6555L30.8434 23.2081H32.302L34.4753 27.3H33.323L32.7979 26.2734H30.362L29.8077 27.3ZM30.7413 25.4926H32.3895L31.6018 23.9744H31.5581L30.7413 25.4926Z" fill="#2B2A29"/>
<path fill-rule="evenodd" clip-rule="evenodd" d="M12.961 36.7128H14.7259H30.9601C37.2758 36.7128 42.5122 31.9992 43.2999 25.9409H36.6195C35.9485 28.182 33.8335 29.8303 31.3539 29.8303H13.1506H11.4878L10 36.7128H12.961Z" fill="#E31E24"/>
</svg>
