<svg width="80" height="91" viewBox="0 0 80 91" fill="none" xmlns="http://www.w3.org/2000/svg">
<path d="M52.8167 76.9413L40.1826 84.233C40.327 84.1608 40.3992 83.872 40.3992 83.3667L53.0332 76.075C53.0332 76.5082 52.9611 76.797 52.8167 76.9413Z" fill="#F6F6F6"/>
<path d="M40.255 84.6656C40.1106 84.6656 39.8941 84.5934 39.8219 84.449C39.6775 84.2324 39.7497 84.0158 39.8941 83.8714C39.8941 83.7993 39.9663 83.6549 39.9663 83.3661C39.9663 83.2217 40.0385 83.0051 40.1828 82.9329L52.8169 75.6413C52.9613 75.5691 53.1779 75.5691 53.3223 75.6413C53.4666 75.7135 53.5388 75.8579 53.5388 76.0744C53.5388 76.5076 53.4666 77.1574 53.1057 77.3739L40.4716 84.5934C40.3994 84.6656 40.3272 84.6656 40.255 84.6656Z" fill="#0000BD"/>
<path d="M53.0335 76.0745L40.4717 83.2939V83.1495L53.0335 75.8579V76.0745Z" fill="#F6F6F6"/>
<path d="M53.0335 75.858L40.4717 83.1496C40.4717 82.4999 40.6883 82.0667 41.0492 81.8502L53.6833 74.5585C53.3223 74.7751 53.0335 75.2082 53.0335 75.858Z" fill="#F6F6F6"/>
<path d="M40.4722 83.655C40.4 83.655 40.3278 83.655 40.2556 83.5828C40.1113 83.5106 40.0391 83.3662 40.0391 83.1496C40.0391 82.3555 40.3278 81.7057 40.9054 81.4169L53.5394 74.1253C53.756 73.9809 54.0448 74.0531 54.1892 74.2697C54.3336 74.4863 54.2614 74.775 54.0448 74.9194C53.8282 75.0638 53.6838 75.3526 53.6838 75.7858C53.6838 75.9302 53.6116 76.1467 53.4672 76.2189L40.8332 83.5106C40.6166 83.5828 40.5444 83.655 40.4722 83.655Z" fill="#0000BD"/>
<path d="M40.7609 49.7239L34.2634 45.9697C33.1804 45.32 32.6751 44.1649 33.2526 43.3707L35.7072 39.8332L23.0732 47.1249L20.6186 50.6624C20.041 51.4565 20.5464 52.6116 21.6293 53.2614L28.1268 57.0155C29.2097 57.6653 30.1483 59.2535 30.1483 60.4809V73.6203C30.1483 74.27 29.9317 74.7032 29.5707 74.9198L42.2048 67.6281C42.5657 67.4115 42.7823 66.9784 42.7823 66.3286V53.2614C42.7823 51.9619 41.8438 50.3736 40.7609 49.7239Z" fill="#F6F6F6"/>
<path d="M29.5706 75.4249C29.4262 75.4249 29.2096 75.3527 29.1374 75.2083C28.993 74.9917 29.0652 74.7029 29.2818 74.5585C29.4984 74.4141 29.6428 74.1254 29.6428 73.6922V60.5528C29.6428 59.4699 28.8486 58.026 27.8379 57.4484L21.3404 53.6943C20.6184 53.2611 20.0409 52.6114 19.8965 51.8894C19.7521 51.3841 19.8965 50.8065 20.1853 50.4455L22.6399 46.908C22.7121 46.8358 22.7121 46.8358 22.7843 46.7636L35.4183 39.472C35.6349 39.3276 35.8515 39.3998 35.9959 39.5442C36.1403 39.6886 36.1403 39.9773 36.0681 40.1217L33.6135 43.6593C33.4691 43.8758 33.4691 44.1646 33.4691 44.3812C33.5413 44.8144 33.9022 45.2475 34.4798 45.6085L40.9773 49.3626C42.2768 50.0846 43.2153 51.8172 43.2153 53.2611V66.4005C43.2153 67.1947 42.9265 67.8444 42.349 68.1332L29.7149 75.4249C29.7149 75.4249 29.6428 75.4249 29.5706 75.4249ZM23.434 47.4856L20.9794 50.9509C20.835 51.2397 20.835 51.4563 20.835 51.6728C20.9072 52.106 21.2682 52.5392 21.8457 52.9002L28.3433 56.6543C29.6428 57.3762 30.5813 59.1089 30.5813 60.5528V73.62C30.5813 73.6922 30.5813 73.6922 30.5813 73.7644L41.8436 67.2669C42.0602 67.1225 42.2046 66.8337 42.2046 66.4005V53.2611C42.2046 52.1782 41.4105 50.7343 40.3997 50.1568L33.9022 46.4026C33.1803 45.9695 32.6027 45.3197 32.4583 44.5978C32.314 44.0924 32.4583 43.5149 32.7471 43.1539L33.9744 41.4212L23.434 47.4856Z" fill="#0000BD"/>
<path d="M60.0365 59.7591L55.1272 56.9435C54.0443 56.2938 53.1058 54.7055 53.1058 53.406V53.045C53.1058 51.9621 52.6726 51.3845 52.1672 51.6733L39.5332 59.0372C40.0386 58.7484 40.4717 59.2538 40.4717 60.4089V60.7698C40.4717 62.0693 41.4103 63.6576 42.4932 64.2352L47.4024 67.0508C47.8356 67.3395 48.1965 67.3395 48.4131 67.2673L61.0472 59.9757C60.8306 60.0479 60.4696 60.0479 60.0365 59.7591Z" fill="#F6F6F6"/>
<path d="M48.1248 67.7727C47.8361 67.7727 47.4751 67.7005 47.1141 67.4839L42.2049 64.6683C40.9054 63.9463 39.9668 62.2137 39.9668 60.7698V60.4088C39.9668 59.8313 39.8225 59.5425 39.7503 59.4703C39.5337 59.6147 39.2449 59.5425 39.1005 59.3259C38.9561 59.1093 39.0283 58.8205 39.2449 58.6762L51.8789 51.3845C52.6009 50.9513 53.5394 51.3123 53.5394 53.1172V53.4059C53.5394 54.4889 54.3336 55.9328 55.3443 56.5103L60.2535 59.3259C60.5423 59.4703 60.6867 59.5425 60.7589 59.5425C60.9755 59.3981 61.2642 59.4703 61.4086 59.6869C61.553 59.9035 61.4808 60.1922 61.2642 60.3366L48.6302 67.6283C48.4858 67.7005 48.3414 67.7727 48.1248 67.7727ZM40.6166 58.9649C40.8332 59.2537 40.9054 59.7591 40.9054 60.4088V60.7698C40.9054 61.8527 41.6995 63.2966 42.7102 63.8742L47.6195 66.6897C48.0526 66.9063 48.1248 66.9063 48.1248 66.9063L59.676 60.2644L54.8389 57.4488C53.5394 56.7269 52.6009 54.9942 52.6009 53.5503V53.1894C52.6009 52.5396 52.4565 52.2508 52.3843 52.2508L40.6166 58.9649Z" fill="#0000BD"/>
<path d="M39.605 40.4827L35.2733 26.6213C34.8401 25.1774 33.5406 23.5891 32.4577 23.0838L21.7729 18.2467C21.3397 18.1023 21.1232 18.0301 20.9788 18.1023L8.34473 25.394C8.48912 25.3218 8.77789 25.3218 9.13887 25.5384L19.8237 30.3754C20.9066 30.8808 22.2061 32.4691 22.6392 33.9129L26.9709 47.7743C27.1875 48.4962 27.1875 48.8572 27.0431 49.0016L39.6772 41.71C39.8216 41.5656 39.8216 41.2046 39.605 40.4827Z" fill="#F6F6F6"/>
<path d="M27.1158 49.4353C26.9714 49.4353 26.7548 49.3631 26.6826 49.2187C26.6104 49.0743 26.6104 48.8577 26.7548 48.7134C26.7548 48.6412 26.7548 48.4246 26.6104 47.9914L22.2787 34.1301C21.8456 32.8306 20.6905 31.3867 19.6797 30.8813L8.92276 25.9721C8.70617 25.8277 8.56178 25.8277 8.48959 25.8277C8.27301 25.8999 7.98423 25.8277 7.91203 25.6111C7.76764 25.3945 7.83984 25.1057 8.05642 24.9614L20.6905 17.6697C20.9792 17.5253 21.3402 17.5253 21.9178 17.8141L32.6026 22.6511C33.8299 23.2287 35.2016 24.8892 35.7069 26.4774L40.0386 40.3388C40.2552 40.9885 40.3996 41.7827 39.8942 42.0715L27.3324 49.3631C27.2602 49.4353 27.188 49.4353 27.1158 49.4353ZM9.57251 25.1779L20.0407 29.8706C21.268 30.4481 22.6397 32.1086 23.1451 33.6969L27.4768 47.6304C27.549 47.7748 27.549 47.9192 27.6211 48.1358L39.3167 41.3495C39.3167 41.2773 39.3167 41.0607 39.1723 40.6276L34.8406 26.7662C34.4074 25.4667 33.2523 24.0228 32.3138 23.5175L21.629 18.6804C21.3402 18.536 21.1958 18.536 21.1958 18.536L9.57251 25.1779Z" fill="#0000BD"/>
<path d="M33.252 32.108C33.3242 31.9636 33.4686 31.8914 33.5408 31.8192C34.1184 31.5304 34.8403 32.0358 35.2735 33.2631L37.7281 39.6162C38.1613 40.8435 38.0169 41.8542 37.3671 42.2152C37.2227 42.2874 37.0783 42.3596 36.9339 42.3596H36.7174C36.5008 42.3596 36.3564 42.4318 36.2842 42.504C35.851 42.7206 36.1398 43.2981 37.0061 43.9479L47.6909 51.4561C48.4851 52.0337 49.4236 52.1058 50.0012 51.7449C50.2177 51.6005 50.4343 51.4561 50.5065 51.1673L54.8382 42.2874C55.2714 41.3489 54.8382 40.6991 53.8997 40.7713H53.7553C52.8167 40.8435 51.5172 39.7606 51.0119 38.3167L44.0812 20.4846C43.5037 19.0407 42.132 17.3803 41.049 16.7305L27.3321 8.78912C26.2492 8.13936 25.3106 7.634 25.3106 7.634C25.3106 7.634 24.8775 8.28375 24.2999 9.07789L16.6473 20.1237C16.0697 20.9178 16.4307 22.5061 17.3692 23.7334L27.1877 35.9343C27.9818 36.945 28.9925 37.306 29.6423 36.945C29.7867 36.8728 29.8589 36.8006 29.9311 36.6562L33.252 32.108Z" fill="#F6F6F6"/>
<path d="M58.5207 56.0047C57.9432 54.5608 56.7159 53.4779 55.7774 53.5501L45.9589 54.4164C45.8145 54.4164 45.6701 54.4886 45.5257 54.5608C44.876 54.9218 44.7316 56.0047 45.2369 57.1598L48.4135 65.6065C48.7745 66.4729 48.7023 67.0504 48.4135 67.1948C48.1969 67.3392 47.836 67.267 47.4028 66.9782L42.4936 64.2349C41.4106 63.5851 40.4721 61.9968 40.4721 60.7695V60.4085C40.4721 59.3256 40.0389 58.7481 39.5336 59.0368C39.4614 59.109 39.3892 59.1812 39.317 59.2534L32.9639 65.6065C32.3141 66.2563 32.3141 67.989 32.9639 69.3607L39.317 83.0776C39.7502 83.944 40.0389 84.3049 40.2555 84.1605C40.3999 84.0884 40.4721 83.7996 40.4721 83.2942V83.1498C40.4721 82.5001 40.6887 82.0669 41.0497 81.8503C41.4106 81.6337 41.916 81.7059 42.4936 81.9947L56.2827 90.0083C57.1491 90.5137 58.1598 90.5137 58.8095 90.1527C59.0261 90.0083 59.1705 89.9361 59.3149 89.7195L66.1734 79.9733C66.7509 79.1791 66.7509 77.3743 66.1734 75.9304L58.5207 56.0047Z" fill="#F6F6F6"/>
<path d="M57.7989 90.8746C57.2213 90.8746 56.5716 90.7302 56.0662 90.3692L42.2771 82.4278C41.9161 82.2113 41.5551 82.1391 41.3385 82.2835C41.122 82.4278 40.9776 82.7166 40.9776 83.1498V83.2942C40.9776 84.0161 40.8332 84.3771 40.5444 84.5937C40.4722 84.6659 40.3278 84.6659 40.1834 84.6659C39.7503 84.6659 39.3171 84.2327 38.8839 83.222L32.5308 69.505C31.8089 67.9167 31.8089 65.9675 32.603 65.1733L38.9561 58.8202C39.0283 58.6758 39.1727 58.6036 39.3171 58.5314C40.039 58.0983 40.9776 58.3871 40.9776 60.2641V60.6251C40.9776 61.708 41.7717 63.1519 42.7824 63.7295L47.6917 66.545C47.9804 66.6894 48.1248 66.7616 48.197 66.7616C48.2692 66.6894 48.2692 66.4007 48.0526 65.7509L44.8039 57.3763C44.2263 55.9324 44.4429 54.6329 45.3092 54.1276C45.5258 54.0554 45.6702 53.9832 45.959 53.911L55.7774 53.0447H55.9218C57.077 53.0447 58.4486 54.1998 59.0262 55.7881L66.751 75.6416C67.4008 77.2298 67.3286 79.1791 66.6788 80.1176L59.8203 89.8639C59.676 90.0805 59.4594 90.2971 59.1706 90.4414C58.7374 90.7302 58.3043 90.8746 57.7989 90.8746ZM41.5551 81.2005C41.9161 81.2005 42.2771 81.3449 42.7102 81.5615L56.4994 89.5029C56.8604 89.7195 57.3657 89.8639 57.7267 89.8639C58.0155 89.8639 58.3043 89.7917 58.5208 89.6473C58.6652 89.5751 58.7374 89.5029 58.8096 89.3585L65.6681 79.6123C66.1013 79.0347 66.1735 77.4464 65.5959 76.0025L58.0155 56.2212C57.5101 54.9217 56.4994 54.0554 55.7774 54.0554L45.8868 54.9217C45.8146 54.9217 45.7424 54.9217 45.6702 54.9939C45.3092 55.2105 45.1649 56.0046 45.5258 57.0154L48.7746 65.3899C49.3521 66.906 48.919 67.4114 48.558 67.628C48.197 67.8445 47.6917 67.7724 47.1141 67.4114L42.2049 64.5958C40.9054 63.8738 39.9668 62.1412 39.9668 60.6973V60.3363C39.9668 59.6866 39.8225 59.3978 39.7503 59.3978C39.6781 59.47 39.6059 59.47 39.6059 59.5422L33.2528 65.9675C32.8196 66.4007 32.7474 67.8445 33.3249 69.2162L39.6781 82.9332C39.7503 83.1498 39.8946 83.2942 39.9668 83.4386V83.3664V83.222C39.9668 82.4278 40.2556 81.7781 40.8332 81.4893C41.0498 81.2727 41.3385 81.2005 41.5551 81.2005Z" fill="#0000BD"/>
<path d="M23.0733 47.1246C23.1455 46.9802 23.2898 46.908 23.362 46.8358C24.0118 46.4748 25.0225 46.8358 25.8167 47.8465L26.0332 48.1353C26.5386 48.785 26.8996 49.0016 27.044 48.9294C27.1884 48.8572 27.1884 48.4241 26.9718 47.7021L22.6401 33.8408C22.2069 32.3969 20.9074 30.8086 19.8245 30.3032L9.13972 25.4662C8.70655 25.3218 8.48997 25.2496 8.34558 25.3218C8.12899 25.4662 8.27338 25.9715 8.92313 26.7657L9.06752 26.9101C10.0061 28.1374 10.367 29.7257 9.78947 30.5198L2.85879 40.4105C2.28124 41.2046 1.4149 42.5041 0.837345 43.226C0.259789 44.0202 0.476373 45.7529 1.19832 47.1246L9.3563 62.2132C10.0782 63.5849 11.5943 65.2454 12.7494 65.8951L28.1269 74.7751C28.7044 75.0638 29.2098 75.136 29.5708 74.9195C29.9317 74.7029 30.1483 74.2697 30.1483 73.6199V60.5527C30.1483 59.2532 29.2098 57.665 28.1269 57.0874L21.6294 53.3333C20.5465 52.6835 20.0411 51.5284 20.6187 50.7343L23.0733 47.1246Z" fill="#F6F6F6"/>
<path d="M29.065 75.5694C28.7041 75.5694 28.3431 75.4251 27.9099 75.2085L12.5325 66.3285C11.3774 65.6788 9.78909 63.9461 8.99495 62.43L0.764769 47.4136C-0.101565 45.8253 -0.245954 43.9482 0.403797 43.0097L9.35592 30.3035C9.71689 29.7981 9.50031 28.3542 8.63398 27.2713L8.48959 27.1269C7.69545 26.1884 7.69545 25.7552 7.76764 25.4664C7.83984 25.2498 7.91203 25.1055 8.12861 24.9611C8.41739 24.8167 8.77836 24.8167 9.35592 25.1055L20.0407 29.9425C21.268 30.52 22.6397 32.1805 23.1451 33.7688L27.4768 47.6302C27.6933 48.2799 27.8377 49.074 27.3324 49.3628C27.2602 49.435 27.1158 49.435 27.0436 49.435C26.827 49.435 26.3938 49.2906 25.7441 48.4965L25.5275 48.2077C24.7334 47.2692 24.0114 47.1248 23.7226 47.2692C23.6504 47.3414 23.5782 47.3414 23.5782 47.4136L20.9792 50.9511C20.8349 51.1677 20.8349 51.4565 20.8349 51.673C20.907 52.1062 21.268 52.5394 21.8456 52.9004L28.3431 56.6545C29.6426 57.3764 30.5811 59.1091 30.5811 60.553V73.6202C30.5811 74.4143 30.2923 75.0641 29.7148 75.3529C29.5704 75.4973 29.3538 75.5694 29.065 75.5694ZM8.85056 25.8996C8.92275 26.044 9.06714 26.1884 9.28373 26.4772L9.42812 26.6215C10.511 27.9932 10.872 29.8703 10.1501 30.8088L1.27013 43.5151C0.909159 44.0926 0.981353 45.6087 1.6311 46.9082L9.78909 61.9969C10.511 63.2964 11.9549 64.8847 12.9656 65.4622L28.3431 74.3421C28.7041 74.5587 29.065 74.6309 29.2816 74.4865C29.4982 74.3421 29.6426 74.0534 29.6426 73.6202V60.553C29.6426 59.4701 28.8485 58.0262 27.8377 57.4486L21.3402 53.6945C20.6183 53.2613 20.0407 52.6116 19.8963 51.8896C19.7519 51.3843 19.8963 50.8067 20.1851 50.4457L22.6397 46.9082C22.7841 46.6916 22.9285 46.5472 23.1451 46.475C24.0114 45.9697 25.2387 46.475 26.1773 47.6302L26.3938 47.9189C26.466 47.9911 26.466 48.0633 26.5382 48.0633C26.5382 47.9911 26.5382 47.9911 26.466 47.9189L22.1344 34.0576C21.7012 32.7581 20.5461 31.3142 19.5354 30.8088L8.92275 25.9718C8.92275 25.9718 8.85056 25.9718 8.85056 25.8996Z" fill="#0000BD"/>
<path d="M78.8071 68.5668L71.0823 48.7133C70.5047 47.2694 69.2774 46.1865 68.3389 46.2587L58.5204 47.1972C58.376 47.1972 58.2316 47.2694 58.0872 47.3416L45.5254 54.5611C45.6698 54.4889 45.8142 54.4167 45.9586 54.4167L55.777 53.5503C56.7155 53.4781 58.015 54.5611 58.5204 56.005L66.2452 75.8585C66.8228 77.3023 66.8228 79.1072 66.2452 79.9013L59.3867 89.6476C59.2424 89.792 59.098 89.9364 58.8814 90.0808L71.5154 82.7891C71.732 82.6447 71.8764 82.5725 71.9486 82.356L78.8071 72.6097C79.3846 71.8156 79.3846 70.0107 78.8071 68.5668Z" fill="#F6F6F6"/>
<path d="M58.8818 90.5858C58.7374 90.5858 58.5208 90.5136 58.4486 90.3692C58.3042 90.1527 58.3764 89.8639 58.593 89.7195C58.7374 89.6473 58.8096 89.5751 58.8818 89.4307L65.7403 79.6845C66.1734 79.1069 66.2456 77.5186 65.6681 76.0747L58.0155 56.2212C57.5101 54.9217 56.4994 54.0554 55.7774 54.0554L45.8868 54.9217C45.8146 54.9217 45.7424 54.9217 45.6702 54.9939C45.4536 55.1383 45.1648 55.0661 45.0204 54.8495C44.876 54.6329 44.9482 54.3442 45.1648 54.1998L57.8711 46.9081C58.0876 46.7637 58.3042 46.7637 58.5208 46.6915L68.3393 45.8252H68.4837C69.6388 45.8252 70.9383 46.9803 71.588 48.5686L79.3128 68.4221C79.9626 70.0104 79.8904 71.9596 79.2407 72.8982L72.3822 82.6444C72.2378 82.861 72.0212 83.0776 71.7324 83.222L59.1706 90.5136C59.0262 90.5858 58.954 90.5858 58.8818 90.5858ZM55.8496 53.1169C57.0047 53.1169 58.3764 54.272 58.954 55.8603L66.6788 75.7138C67.3286 77.302 67.2564 79.2513 66.6066 80.1898L60.831 88.42L71.2271 82.4278C71.3714 82.3556 71.4436 82.2835 71.5158 82.1391L78.3743 72.3928C78.8075 71.8153 78.8797 70.227 78.3021 68.7831L70.6495 48.9296C70.1441 47.6301 69.1334 46.7637 68.4115 46.7637L58.5208 47.6301C58.4486 47.6301 58.3764 47.6301 58.3042 47.7023L47.7638 53.7666L55.633 53.0447C55.7052 53.1169 55.8496 53.1169 55.8496 53.1169Z" fill="#0000BD"/>
<path d="M66.4615 33.5523C65.523 33.6245 64.2235 32.5416 63.7181 31.0977L56.7874 13.2657C56.2099 11.8218 54.8382 10.1613 53.7553 9.51155L40.0383 1.57015C38.9554 0.920401 38.0169 0.415039 38.0169 0.415039L25.3828 7.70669C25.3828 7.70669 26.3213 8.21205 27.4043 8.8618L41.1212 16.8032C42.2041 17.453 43.5758 19.1134 44.1534 20.5573L51.0841 38.3894C51.6616 39.8333 52.8889 40.9162 53.8275 40.844C54.766 40.7718 55.3436 41.4215 54.9104 42.3601L50.5787 51.24L63.2128 43.9484L67.5444 35.0684C67.9776 34.2021 67.4 33.4801 66.4615 33.5523Z" fill="#F6F6F6"/>
<path d="M50.5793 51.6732C50.4349 51.6732 50.3627 51.6011 50.2183 51.5289C50.0739 51.3845 50.0017 51.1679 50.1461 50.9513L54.4778 42.0714C54.6222 41.8548 54.6222 41.6382 54.55 41.4938C54.4778 41.3494 54.2612 41.2772 54.0446 41.2772H53.9002H53.7558C52.6007 41.2772 51.229 40.1221 50.6515 38.5338L43.7208 20.7018C43.2154 19.4023 41.9159 17.7418 40.9052 17.1643L25.1668 8.13994C25.0224 8.06774 24.9502 7.92335 24.9502 7.70677C24.9502 7.56238 25.0224 7.3458 25.1668 7.2736L37.7286 0.0541459C37.873 -0.0180486 38.0896 -0.0180486 38.234 0.0541459L53.9724 9.15066C55.1997 9.87261 56.6436 11.6053 57.2212 13.1936L64.1518 31.0256C64.6572 32.3251 65.6679 33.1914 66.3899 33.1914C66.5343 33.1914 66.6064 33.1914 66.6786 33.1914C67.2562 33.1914 67.7616 33.408 68.0503 33.8412C68.3391 34.2744 68.3391 34.8519 68.0503 35.3573L63.7187 44.2372C63.6465 44.3094 63.5743 44.3816 63.5021 44.4538L50.7958 51.6732C50.7236 51.6732 50.6515 51.6732 50.5793 51.6732ZM54.0446 40.3387C54.6222 40.3387 55.1275 40.5553 55.4163 40.9885C55.7051 41.4216 55.7051 41.9992 55.4163 42.5045L51.7344 49.9406L62.8523 43.5153L67.1118 34.7797C67.2562 34.5631 67.2562 34.3466 67.184 34.2022C67.1118 34.0578 66.8952 33.9856 66.6786 33.9856H66.5343H66.3899C65.2348 33.9856 63.8631 32.8305 63.2855 31.2422L56.3548 13.4823C55.8495 12.1828 54.55 10.5224 53.5392 9.9448L38.0174 0.992675L26.3941 7.70677L41.4106 16.3701C42.6379 17.0921 44.0817 18.8247 44.6593 20.413L51.5178 38.2451C52.0232 39.5446 53.0339 40.4109 53.7558 40.4109C53.9002 40.4109 53.9724 40.3387 54.0446 40.3387Z" fill="#DF0112"/>
<path d="M49.2074 52.4671C48.6299 52.4671 47.9801 52.2506 47.4026 51.8896L36.7178 44.3814C35.9958 43.876 35.5627 43.2984 35.6349 42.7931C35.6349 42.5043 35.7793 42.2155 36.068 42.0711C36.2124 41.9989 36.429 41.9267 36.7178 41.9267H36.9344C37.0066 41.9267 37.0788 41.9267 37.151 41.8546C37.5119 41.638 37.6563 40.8438 37.2953 39.8331L34.8407 33.48C34.4798 32.6137 34.0466 32.2527 33.9022 32.2527C33.7578 32.3249 33.7578 32.3249 33.6856 32.3971L30.3647 37.0175C30.2203 37.2341 30.0759 37.3785 29.8593 37.4507C29.6427 37.5951 29.3539 37.6673 29.0652 37.6673C28.3432 37.6673 27.4769 37.1619 26.7549 36.2956L17.0087 24.0225C15.9258 22.6508 15.5648 20.7737 16.2867 19.8352L25.0223 7.41775C25.1667 7.20117 25.4554 7.12897 25.672 7.27336L41.4104 16.3699C42.6377 17.0918 44.0816 18.8245 44.6592 20.4128L51.5177 38.2448C52.023 39.5443 53.0338 40.4107 53.7557 40.4107H53.9723C54.622 40.3385 55.1274 40.555 55.4162 40.9882C55.705 41.4214 55.6328 41.9989 55.344 42.5765L51.0123 51.4564C50.8679 51.7452 50.5791 52.034 50.2904 52.2506C50.0016 52.395 49.6406 52.4671 49.2074 52.4671ZM36.5734 42.9375C36.6456 42.9375 36.79 43.2262 37.2953 43.5872L47.9801 51.0955C48.5577 51.5286 49.3518 51.6008 49.785 51.3842C49.9294 51.312 50.0738 51.1676 50.146 51.0233L54.4776 42.1433C54.622 41.8546 54.622 41.638 54.5498 41.4936C54.4776 41.3492 54.2611 41.3492 54.1167 41.3492H53.9723H53.8279H53.6835C52.5284 41.3492 51.1567 40.1941 50.5791 38.6058L43.6485 20.7737C43.1431 19.4742 41.8436 17.8138 40.8329 17.2362L25.5276 8.35628L17.0809 20.4128C16.7199 20.9181 16.9365 22.362 17.8028 23.4449L27.6213 35.6458C28.4154 36.5844 29.1374 36.7287 29.4261 36.5844C29.4983 36.5844 29.5705 36.5122 29.5705 36.44L32.8193 31.8195C32.9637 31.6029 33.1081 31.4585 33.2525 31.3863C34.0466 30.9532 35.1295 31.6029 35.6349 33.0468L38.0895 39.3999C38.667 40.8438 38.4505 42.1433 37.5841 42.6487C37.3675 42.7209 37.151 42.7931 36.9344 42.8653H36.7178C36.6456 42.8653 36.5734 42.9375 36.5734 42.9375Z" fill="#DF0112"/>
</svg>
