<svg width="86" height="92" viewBox="0 0 86 92" fill="none" xmlns="http://www.w3.org/2000/svg">
<path d="M71.038 78.3142C52.3759 89.0894 33.1029 89.0894 14.3852 78.3142C5.05419 72.9267 0.388672 67.428 0.388672 61.9849V66.3172C0.388672 71.8158 5.05419 77.2589 14.3852 82.6465C33.0473 93.4216 52.3204 93.4216 71.038 82.6465C80.369 77.2589 85.0346 71.7603 85.0346 66.3172V61.9849C85.0901 67.428 80.369 72.9267 71.038 78.3142Z" fill="#F6F6F6"/>
<path d="M42.7673 91.1997C33.2141 91.1997 23.6053 88.4782 14.2187 83.0351C4.7766 77.592 0 71.9267 0 66.2614V61.9291C0 61.6514 0.222168 61.4293 0.499877 61.4293C0.777587 61.4293 0.999754 61.6514 0.999754 61.9291C0.999754 67.2056 5.60973 72.5932 14.7741 77.8697C33.2141 88.5337 52.4871 88.5337 70.927 77.8697C80.0359 72.5932 84.7014 67.2612 84.7014 61.9291C84.7014 61.6514 84.9236 61.4293 85.2013 61.4293C85.479 61.4293 85.7012 61.6514 85.7012 61.9291V66.2614C85.7012 71.9267 80.9246 77.592 71.4269 83.0351C61.9292 88.4782 52.3205 91.1997 42.7673 91.1997ZM0.888671 66.317C0.944213 71.5934 5.55419 76.9255 14.6631 82.2019C33.103 92.866 52.376 92.866 70.8159 82.2019C79.9248 76.9255 84.5348 71.5934 84.5903 66.317C82.7574 70.4826 78.3141 74.6482 71.3158 78.7028C52.5982 89.5335 32.9364 89.5335 14.2187 78.7028C7.16491 74.6482 2.72155 70.5381 0.888671 66.317Z" fill="#0000BD"/>
<path d="M71.0381 45.5995C52.376 34.8244 33.103 34.8244 14.3854 45.5995C5.10986 50.9871 0.444336 56.4857 0.444336 61.9844C0.444336 67.483 5.10986 72.9261 14.4409 78.3137C33.103 89.0888 52.376 89.0888 71.0937 78.3137C80.4247 72.9261 85.0902 67.4275 85.0902 61.9844C85.0902 56.4857 80.3692 50.9871 71.0381 45.5995Z" fill="#F6F6F6"/>
<path d="M42.7673 86.8673C33.2141 86.8673 23.6053 84.1458 14.2187 78.7027C4.7766 73.2596 0 67.5943 0 61.929C0 56.2637 4.7766 50.5985 14.2187 45.1554C32.9364 34.3247 52.5982 34.3247 71.3158 45.1554C80.7579 50.5985 85.5901 56.2637 85.5901 61.929C85.5901 67.5943 80.8135 73.2596 71.3158 78.7027C61.9292 84.1458 52.3205 86.8673 42.7673 86.8673ZM42.7673 37.9904C33.3807 37.9904 23.9386 40.712 14.7186 45.9885C5.55419 51.3205 0.888671 56.6525 0.888671 61.9846C0.888671 67.261 5.49865 72.6486 14.6631 77.9251C33.103 88.5891 52.376 88.5891 70.8159 77.9251C79.9248 72.6486 84.5903 67.3166 84.5903 61.9846C84.5903 56.7081 79.9804 51.3205 70.8159 46.044C61.596 40.712 52.1539 37.9904 42.7673 37.9904Z" fill="#0000BD"/>
<path d="M39.7681 61.8182L34.2139 64.9841L37.9907 55.2087L43.5449 52.0428L39.7681 61.8182Z" fill="#F6F6F6"/>
<path d="M34.214 65.484C34.103 65.484 33.9919 65.4284 33.8808 65.3729C33.7142 65.2618 33.6586 65.0396 33.7697 64.8175L37.5466 55.0421C37.6021 54.931 37.6576 54.8755 37.7687 54.8199L43.3229 51.5985C43.4895 51.4874 43.7117 51.5429 43.8783 51.654C44.045 51.7651 44.1005 51.9873 43.9894 52.2094L40.2126 61.9848C40.157 62.0959 40.1015 62.1514 39.9904 62.207L34.4362 65.4284C34.3807 65.484 34.3251 65.484 34.214 65.484ZM38.3797 55.542L35.1583 63.9288L39.3794 61.4849L42.6009 53.1537L38.3797 55.542Z" fill="#0000BD"/>
<path d="M45.2667 63.0957L42.4896 68.15L41.7676 69.3719L47.3218 66.1505L48.0438 64.9286L50.8209 59.8742L45.2667 63.0957Z" fill="#F6F6F6"/>
<path d="M41.768 69.8163C41.6569 69.8163 41.5458 69.7608 41.4347 69.7052C41.2681 69.5386 41.2681 69.3164 41.3792 69.1498L44.8783 62.8736C44.9339 62.818 44.9894 62.7625 45.0449 62.7069L50.5991 59.4855C50.7658 59.3744 51.0435 59.43 51.1546 59.541C51.3212 59.7077 51.3212 59.9298 51.2101 60.0965L47.711 66.3727C47.6554 66.4282 47.5999 66.4838 47.5443 66.5393L41.9901 69.7608C41.9346 69.8163 41.8791 69.8163 41.768 69.8163ZM45.6559 63.429L43.0454 68.039L46.9889 65.7617L49.5994 61.1518L45.6559 63.429Z" fill="#0000BD"/>
<path d="M58.1528 67.872L52.5986 71.0379L44.1562 39.3235L49.7104 36.102L58.1528 67.872Z" fill="#F6F6F6"/>
<path d="M52.5983 71.5374C52.5428 71.5374 52.4872 71.5374 52.4317 71.4819C52.3206 71.4263 52.2095 71.3153 52.154 71.1486L43.656 39.4342C43.6005 39.212 43.7116 38.9899 43.8782 38.8788L49.4324 35.6574C49.5435 35.6018 49.7101 35.5463 49.8767 35.6574C49.9878 35.7129 50.0989 35.824 50.1545 35.9906L58.5968 67.705C58.6524 67.9272 58.5413 68.1494 58.3747 68.2605L52.8205 71.4819C52.7649 71.5374 52.6538 71.5374 52.5983 71.5374ZM44.7113 39.5453L52.9316 70.3155L57.5971 67.594L49.3769 36.8793L44.7113 39.5453Z" fill="#0000BD"/>
<path d="M44.1556 39.3235L31.8808 32.2697L23.4385 54.2087L24.8826 54.3198L30.7145 54.7086L33.5471 62.9843L34.2136 64.9838L37.9905 55.2085L41.7673 69.3717L42.4894 68.1497L45.2664 63.0954L51.1539 69.4827L52.598 71.0379L44.1556 39.3235Z" fill="#F6F6F6"/>
<path d="M52.5985 71.5384C52.4874 71.5384 52.3208 71.4828 52.2653 71.3717L45.3781 63.8736L42.2122 69.5388C42.1011 69.7055 41.9345 69.8166 41.7123 69.761C41.5457 69.761 41.3791 69.5944 41.3235 69.4278L37.9355 56.7087L34.714 65.0955C34.6585 65.2621 34.3605 65.4287 34.1384 65.4287C33.9162 65.4287 33.7496 65.3177 33.694 65.0955L30.4373 55.0979L23.439 54.6536C23.2724 54.6536 23.1613 54.5425 23.0502 54.4314C22.9947 54.3204 22.9391 54.1537 22.9947 53.9871L31.4371 32.048C31.4926 31.937 31.6037 31.8259 31.7148 31.7703C31.8259 31.7148 31.9925 31.7148 32.1036 31.8259L44.3783 38.9352C44.4894 38.9908 44.545 39.1019 44.6005 39.213L53.0429 70.9274C53.0984 71.1496 52.9873 71.3717 52.8207 71.4828C52.7652 71.5384 52.6541 71.5384 52.5985 71.5384ZM45.267 62.5961C45.3781 62.5961 45.5447 62.6516 45.6002 62.7627L51.5988 69.3167L43.7118 39.6573L32.1036 32.9367L24.1055 53.7649L30.7706 54.2093C30.9372 54.2093 31.1593 54.3759 31.2149 54.5425L34.3252 63.5959L37.6022 55.0424C37.6578 54.8758 37.8799 54.7092 38.1021 54.7092C38.3243 54.7092 38.4909 54.8758 38.5464 55.0424L41.99 68.0392L44.9337 62.8183C44.9893 62.7072 45.1559 62.5961 45.3225 62.5961C45.267 62.5961 45.267 62.5961 45.267 62.5961Z" fill="#0000BD"/>
<path d="M44.4892 3.33294C38.7129 0.000426859 33.5475 -0.332825 29.7706 1.83331L20.9395 6.94317C24.7163 4.77703 29.8817 5.11028 35.6025 8.38726C47.0997 14.9967 56.3752 31.1039 56.3752 44.3229C56.3752 50.9324 54.0424 55.5979 50.3211 57.764L59.1523 52.6542C62.9291 50.488 65.2064 45.8225 65.2064 39.213C65.2064 25.994 55.9309 9.94243 44.4892 3.33294Z" fill="#F6F6F6"/>
<path d="M50.3211 58.2079C50.1545 58.2079 49.9879 58.0969 49.8768 57.9858C49.7657 57.7636 49.8212 57.4859 50.0434 57.3193C53.8203 55.1531 55.8753 50.5431 55.8753 44.3225C55.8753 31.2701 46.6554 15.3296 35.3804 8.83117C30.0483 5.72082 24.9385 5.22094 21.2172 7.38708C20.995 7.49816 20.7173 7.44262 20.5507 7.22045C20.4396 6.99828 20.4951 6.72057 20.7173 6.55395L29.5484 1.44409C31.2147 0.499877 33.1031 0 35.2137 0C38.213 0 41.3789 0.999754 44.7114 2.88818C56.2641 9.55321 65.7062 25.8825 65.7062 39.2126C65.7062 45.7665 63.4846 50.7098 59.3745 53.0425L50.5433 58.1524C50.4878 58.2079 50.3767 58.2079 50.3211 58.2079ZM26.3826 5.10986C29.3818 5.10986 32.5477 6.10961 35.8802 7.99804C47.4329 14.6631 56.8751 30.9924 56.8751 44.3225C56.8751 48.7658 55.8198 52.4871 53.9313 55.0976L58.9301 52.2094C62.707 50.0433 64.762 45.4333 64.762 39.2126C64.762 26.1602 55.5421 10.2197 44.2671 3.72131C38.935 0.610961 33.8252 0.111084 30.1039 2.27722L25.1051 5.1654C25.4939 5.10986 25.9382 5.10986 26.3826 5.10986Z" fill="#DF0112"/>
<path d="M56.3746 44.3228C56.3746 50.9323 54.0418 55.5978 50.3205 57.764C46.5437 59.9301 41.3783 59.5968 35.6574 56.3199C24.2158 49.7104 14.8848 33.6032 14.8848 20.3843C14.8848 13.7748 17.2175 9.10924 20.9388 6.94311C24.6601 4.77697 29.9366 5.11023 35.6574 8.3872C47.0991 14.9967 56.3746 31.1038 56.3746 44.3228Z" fill="#F6F6F6"/>
<path d="M44.9329 59.5962C41.9337 59.5962 38.7678 58.5965 35.4353 56.7081C23.827 50.043 14.4404 33.7137 14.4404 20.3836C14.4404 13.8297 16.6621 8.88647 20.7722 6.55371C22.4385 5.6095 24.3269 5.10962 26.4375 5.10962C29.4367 5.10962 32.6026 6.10937 35.9352 7.9978C47.4879 14.6628 56.93 30.9922 56.93 44.3222C56.93 50.8762 54.7083 55.8194 50.5982 58.1522C48.8764 59.1519 46.988 59.5962 44.9329 59.5962ZM26.3819 6.05383C24.4935 6.05383 22.7162 6.49817 21.2165 7.38684C17.4397 9.55297 15.3846 14.163 15.3846 20.3836C15.3846 33.436 24.6046 49.3765 35.8796 55.8749C41.2116 58.9853 46.3215 59.4852 50.0428 57.319C53.8196 55.1529 55.8747 50.5429 55.8747 44.3222C55.8747 31.2699 46.6547 15.3293 35.3797 8.83093C32.2138 6.99804 29.2146 6.05383 26.3819 6.05383Z" fill="#DF0112"/>
<path d="M53.3208 42.5454C53.3208 53.8204 45.4338 58.3748 35.6584 52.7651C25.883 47.0998 17.9961 33.4365 17.9961 22.1615C17.9961 10.8865 25.883 6.33205 35.6584 11.9418C45.4338 17.6071 53.3208 31.2704 53.3208 42.5454Z" fill="#F6F6F6"/>
<path d="M43.5453 55.6526C40.9903 55.6526 38.2688 54.8195 35.4361 53.1533C25.5497 47.488 17.4961 33.547 17.4961 22.1609C17.4961 14.2184 21.4951 9.05298 27.7713 9.05298C30.3263 9.05298 33.0478 9.88611 35.8805 11.5524C45.7669 17.2176 53.8205 31.1587 53.8205 42.5448C53.8205 50.4873 49.7659 55.6526 43.5453 55.6526ZM27.7713 9.99719C22.0505 9.99719 18.4958 14.6627 18.4958 22.1609C18.4958 33.2693 26.3273 46.8215 35.936 52.3201C38.6576 53.8753 41.2125 54.6529 43.6008 54.6529C49.3216 54.6529 52.8763 49.9874 52.8763 42.5448C52.8763 31.4364 45.0449 17.8841 35.4361 12.33C32.7146 10.8303 30.1597 9.99719 27.7713 9.99719Z" fill="#DF0112"/>
<path d="M23.7722 32.4367L22.7725 31.8813V17.9958L23.7722 18.5513V32.4367Z" fill="#DF0112"/>
<path d="M34.3251 28.6593C34.214 26.4931 33.1031 24.8269 31.4369 23.8271C29.8262 22.8829 28.8264 23.2717 28.8264 24.938C28.8264 26.7708 29.9928 27.7706 31.6591 29.1591C33.9363 31.1587 35.6581 32.7138 35.6581 35.4909C35.6581 38.4902 33.6586 38.4346 31.7701 37.3238C29.1597 35.8242 27.6045 33.1582 27.6045 30.1589V30.0478L28.5487 30.6032C28.5487 33.1582 29.8262 35.1577 31.8257 36.2685C33.603 37.3238 34.7139 36.8795 34.7139 35.1021C34.7139 33.2137 33.603 32.1584 31.2147 29.9923C29.604 28.6037 27.9377 27.1596 27.9377 24.4936C27.9377 22.1609 29.3263 21.4944 31.548 22.7718C33.7141 24.0493 35.2137 26.3265 35.3248 29.2147L34.3251 28.6593Z" fill="#DF0112"/>
<path d="M48.4881 39.8232C48.4881 44.1554 46.4886 45.8772 43.5449 44.211C40.6012 42.5447 38.6572 38.4902 38.6572 34.1023C38.6572 29.7701 40.6567 27.9927 43.5449 29.659C46.4886 31.3808 48.4881 35.4909 48.4881 39.8232ZM39.7125 34.6578C39.7125 38.3791 41.2677 41.7116 43.6005 43.0446C45.9332 44.3776 47.4884 42.878 47.4884 39.2122C47.4884 35.5464 45.9332 32.2139 43.6005 30.8254C41.2677 29.4924 39.7125 31.0475 39.7125 34.6578Z" fill="#DF0112"/>
</svg>
