<svg width="70" height="79" viewBox="0 0 70 79" fill="none" xmlns="http://www.w3.org/2000/svg">
<path d="M34.5003 78C54.265 78.3516 72.171 59.924 68.5003 40.5C66.8897 31.9776 64.6316 25.6216 57.0003 21.5C49.2614 17.3203 43.2957 22.5381 34.5003 22.5C26.4851 22.4653 21.2536 18.0892 14.0003 21.5C5.2113 25.6329 2.65034 33.3561 1.50027 43C-0.724233 61.6537 15.7174 77.6659 34.5003 78Z" stroke="#DF0112"/>
<path d="M33.738 5.89578C29.8838 0.294176 14.2812 1.03209 14.2812 1.03209C14.2812 1.03209 16.7133 11.9446 22.7936 15.5926C26.8467 18.0243 34.9541 18.0563 34.9541 18.0563C34.9541 18.0563 36.4434 9.82762 33.738 5.89578Z" stroke="#0000FF"/>
</svg>
