<svg width="68" height="76" viewBox="0 0 68 76" fill="none" xmlns="http://www.w3.org/2000/svg">
<path d="M11.7466 68.1333L11.7545 68.1427C14.2613 71.124 17.5111 73.3809 21.1707 74.6826C21.9302 74.9235 23.4631 75.1093 25.4544 75.2403C27.4307 75.3702 29.8004 75.4433 32.1841 75.4769C36.9544 75.5442 41.7517 75.4533 43.5235 75.3488M11.7466 68.1333L43.553 75.848M11.7466 68.1333L11.7382 68.1242C4.33029 60.1482 0.301877 49.5846 0.507502 38.6722M11.7466 68.1333L0.00762284 38.6611M43.5235 75.3488L43.553 75.848M43.5235 75.3488C43.5235 75.3488 43.5234 75.3488 43.5234 75.3488L43.553 75.848M43.5235 75.3488C48.6822 75.043 53.1207 72.4703 57.5132 67.1293M43.553 75.848C48.8912 75.5315 53.4486 72.8594 57.901 67.4449M57.5132 67.1293C57.5126 67.13 57.512 67.1307 57.5114 67.1315L57.901 67.4449M57.5132 67.1293C62.9181 60.4095 66.269 52.2574 67.1594 43.6608L67.1603 43.6521L67.1604 43.6521C67.8959 37.5854 66.9725 32.6435 64.3887 28.5071L64.3885 28.5067C60.3069 21.9584 52.2449 18.8304 43.7965 20.6213L43.7964 20.6213C43.3798 20.7095 42.8772 20.8547 42.2758 21.0407M57.5132 67.1293C57.5137 67.1286 57.5143 67.128 57.5148 67.1273L57.901 67.4449M57.901 67.4449L42.2758 21.0407M42.2758 21.0407C42.2787 21.0397 42.2816 21.0387 42.2845 21.0377L42.1193 20.5658M42.2758 21.0407L43.6928 20.1321C43.2499 20.2259 42.7254 20.3782 42.1193 20.5658M42.2758 21.0407C38.217 22.4593 33.8659 22.8162 29.6319 22.0779L29.6239 22.0766L29.6239 22.0765L28.4584 21.8538L28.4468 21.8516L28.4353 21.8488C25.3769 21.1131 22.2539 20.682 19.1115 20.5617M42.2758 21.0407L19.1228 20.0618M42.2758 21.0407C42.2729 21.0416 42.27 21.0425 42.2671 21.0434L42.1193 20.5658M42.2758 21.0407L42.1193 20.5658M19.1115 20.5617C19.1141 20.5618 19.1167 20.5618 19.1193 20.5618L19.1228 20.0618M19.1115 20.5617C19.109 20.5616 19.1064 20.5615 19.1038 20.5614L19.1228 20.0618M19.1115 20.5617C14.272 20.5293 9.61227 22.4067 6.13345 25.7916C2.6531 29.178 0.632715 33.8029 0.507502 38.6722M19.1228 20.0618C14.1487 20.0264 9.35938 21.9551 5.78477 25.4332C2.21015 28.9114 0.135748 33.6611 0.00762284 38.6611M0.507502 38.6722C0.507513 38.6717 0.507523 38.6711 0.507534 38.6705L0.00762284 38.6611M0.507502 38.6722C0.507487 38.6728 0.507473 38.6733 0.507459 38.6739L0.00762284 38.6611" stroke="#DF0112"/>
<path d="M32.738 5.89578C28.8838 0.294176 13.2812 1.03209 13.2812 1.03209C13.2812 1.03209 15.7133 11.9446 21.7936 15.5926C25.8467 18.0243 33.9541 18.0563 33.9541 18.0563C33.9541 18.0563 35.4434 9.82762 32.738 5.89578Z" stroke="#0000FF"/>
</svg>
