<svg width="87" height="75" viewBox="0 0 87 75" fill="none" xmlns="http://www.w3.org/2000/svg">
<path d="M29.5457 21.5368L29.4014 21.287H29.1128H19.2799L31.3289 0.5H55.527L67.0973 20.6305L62.0819 29.3848H52.6335L43.8126 14.2091L43.3793 13.4635L42.9475 14.2101L34.1259 29.4641L29.5457 21.5368Z" stroke="#DF0112"/>
<path d="M31.7655 65.4952L31.6216 65.7443L31.7646 65.9939L36.6379 74.5H12.6284L0.577514 53.5993L12.2421 33.4685H22.3644L27.0908 41.7396L18.3657 56.8187L17.9315 57.5691H18.7985H36.345L31.7655 65.4952Z" stroke="#DF0112"/>
<path d="M68.4008 56.8196L59.6741 41.6627H68.8351H69.1223L69.267 41.4146L74.2316 32.9039L86.1887 53.5988L74.1376 74.5H50.8058L45.6983 65.7441L50.4216 57.5691H67.9675H68.8323L68.4008 56.8196Z" stroke="#0000FF"/>
</svg>
