<svg width="14" height="14" viewBox="0 0 14 14" fill="none" xmlns="http://www.w3.org/2000/svg">
<g clip-path="url(#clip0)">
<path d="M7.00027 4.62012C5.70527 4.62012 4.65527 5.67012 4.65527 6.96512C4.65527 8.26012 5.70527 9.31012 7.00027 9.31012C8.29527 9.31012 9.34527 8.26012 9.34527 6.96512C9.34527 5.67012 8.29527 4.62012 7.00027 4.62012Z" fill="white"/>
<path d="M9.45 0H4.55C2.065 0 0 2.065 0 4.55V9.415C0 11.935 2.065 13.965 4.55 13.965H9.415C11.935 13.965 13.965 11.9 13.965 9.415V4.55C14 2.065 11.935 0 9.45 0ZM7 10.64C5.005 10.64 3.36 9.03 3.36 7C3.36 4.97 5.005 3.36 7 3.36C8.995 3.36 10.64 4.97 10.64 7C10.64 8.995 9.03 10.64 7 10.64ZM10.57 4.235C10.08 4.235 9.695 3.815 9.695 3.36C9.695 2.905 10.115 2.45 10.57 2.45C11.06 2.45 11.445 2.87 11.445 3.325C11.445 3.85 11.06 4.235 10.57 4.235Z" fill="white"/>
</g>
<defs>
<clipPath id="clip0">
<rect width="14" height="14" fill="white"/>
</clipPath>
</defs>
</svg>
