<svg width="17" height="11" viewBox="0 0 17 11" fill="none" xmlns="http://www.w3.org/2000/svg">
<path d="M15.6013 1.04745C14.2456 0.0487689 11.2329 0 8.5 0C5.76709 0 2.75443 0.0487689 1.39873 1.04745C0.043038 2.04614 0 4.20995 0 5.49992C0 6.78988 0.043038 8.9537 1.39873 9.95238C2.75443 10.9511 5.76709 11 8.5 11V10.9998C11.2329 10.9998 14.2456 10.9511 15.6013 9.95238C16.957 8.9537 17 6.78988 17 5.49992C17 4.20995 16.957 2.04614 15.6013 1.04745ZM11.1935 5.79087L11.194 5.79153L6.57586 8.17106C6.55107 8.18837 6.52404 8.20219 6.49495 8.21284L6.48927 8.21584L6.48892 8.21467C6.45156 8.22765 6.4118 8.23598 6.36979 8.23598C6.17371 8.23598 6.01481 8.08218 6.01481 7.89276V3.09675C6.01481 2.90717 6.17388 2.75354 6.36979 2.75354C6.42505 2.75354 6.47687 2.76685 6.52352 2.78866L6.5237 2.78849L11.194 5.20897L11.1938 5.2093C11.2945 5.26989 11.3622 5.37708 11.3622 5.50008C11.362 5.62309 11.2942 5.73028 11.1935 5.79087Z" fill="white"/>
</svg>
