<svg width="17" height="16" viewBox="0 0 17 16" fill="none" xmlns="http://www.w3.org/2000/svg">
<g clip-path="url(#clip0)">
<path d="M0.125229 15.9998L1.23365 11.9075C0.529314 10.7153 0.155235 9.3615 0.148292 7.97119C0.126498 3.62459 3.68317 0.0679279 8.07698 0.0438648C10.2092 0.0328505 12.2152 0.84334 13.7289 2.32551C15.2419 3.80768 16.0812 5.78417 16.0921 7.89117C16.1139 12.2384 12.5572 15.7951 8.16337 15.8192C6.82948 15.8258 5.51321 15.5022 4.34546 14.88L0.125229 15.9998ZM4.53337 13.4515C5.6604 14.1051 6.73504 14.4943 8.1534 14.4872C11.8052 14.4672 14.7639 11.5112 14.7461 7.89722C14.7276 4.27593 11.7508 1.3564 8.08695 1.37514C4.43248 1.39516 1.47581 4.35116 1.49426 7.96449C1.50166 9.43965 1.94475 10.5418 2.68505 11.6934L2.02867 14.1157L4.53337 13.4515ZM12.1462 9.78712C12.0962 9.70518 11.9632 9.65685 11.7629 9.55916C11.5633 9.46146 10.5814 8.99013 10.398 8.9255C10.2153 8.86086 10.0824 8.82844 9.95011 9.02674C9.81847 9.22437 9.43883 9.67067 9.32359 9.80258C9.20835 9.93449 9.09181 9.9517 8.89219 9.85401C8.69257 9.75631 8.04928 9.55231 7.28482 8.88486C6.69008 8.36566 6.28638 7.72276 6.16934 7.52582C6.0523 7.32955 6.15561 7.22224 6.25428 7.12357C6.34361 7.0349 6.45209 6.89242 6.55134 6.77652C6.65193 6.66193 6.68432 6.57953 6.75063 6.44723C6.81627 6.3156 6.78279 6.20041 6.73198 6.1019C6.68117 6.00406 6.2777 5.03627 6.10998 4.6427C5.94566 4.25971 5.78172 4.31233 5.6597 4.30703L5.27759 4.30249C5.14487 4.30322 4.9293 4.35346 4.74806 4.55203C4.56682 4.7506 4.05464 5.22945 4.05995 6.19941C4.06527 7.16937 4.78426 8.10228 4.88419 8.23301C4.98478 8.36373 6.30008 10.3469 8.30292 11.1892C8.77927 11.3895 9.15128 11.5088 9.44068 11.598C9.91875 11.7453 10.353 11.7217 10.6959 11.6694C11.0783 11.611 11.8717 11.1863 12.0354 10.7252C12.1991 10.2635 12.1969 9.86906 12.1462 9.78712Z" fill="white"/>
</g>
<defs>
<clipPath id="clip0">
<rect width="16.0874" height="15.9121" fill="white" transform="translate(0 0.0878906) rotate(-0.313783)"/>
</clipPath>
</defs>
</svg>
