<svg width="49" height="96" viewBox="0 0 49 96" fill="none" xmlns="http://www.w3.org/2000/svg">
<path fill-rule="evenodd" clip-rule="evenodd" d="M0 95.5116V88.3825H5.2406V89.5628H1.46359V91.1208H5.00454V92.3012H1.46359V94.2369H5.42945V95.4172H0V95.5116ZM6.60977 95.5116V88.3825H9.63138C10.3868 88.3825 10.9533 88.4297 11.2838 88.5714C11.6143 88.713 11.8976 88.9491 12.1336 89.2323C12.3225 89.5628 12.4641 89.9405 12.4641 90.3654C12.4641 90.8848 12.3225 91.3569 11.992 91.6874C11.6615 92.0179 11.1894 92.2539 10.5756 92.3484C10.9061 92.5372 11.1422 92.7261 11.331 92.9621C11.5199 93.1982 11.8032 93.5759 12.1336 94.1424L12.9835 95.5116H11.2838L10.2451 93.9536C9.86744 93.387 9.63138 93.0566 9.48974 92.9149C9.3481 92.7733 9.20646 92.6789 9.06482 92.6316C8.92319 92.5844 8.68712 92.5372 8.35664 92.5372H8.07336V95.5116H6.60977ZM8.07336 91.4041H9.11204C9.82023 91.4041 10.2451 91.3569 10.3868 91.3097C10.5756 91.2625 10.6701 91.1681 10.8117 91.0264C10.9061 90.8848 10.9533 90.6959 10.9533 90.5071C10.9533 90.271 10.9061 90.0822 10.7645 89.9405C10.6228 89.7989 10.434 89.7045 10.2451 89.6572C10.1507 89.6572 9.77301 89.61 9.20646 89.61H8.07336V91.4041ZM17.091 92.9149V91.7346H20.1598V94.5674C19.8765 94.8506 19.4044 95.1339 18.8378 95.3228C18.2713 95.5588 17.7047 95.6533 17.091 95.6533C16.3356 95.6533 15.7218 95.5116 15.1553 95.1811C14.5887 94.8506 14.211 94.4257 13.9277 93.8592C13.6444 93.2926 13.5028 92.6316 13.5028 91.9707C13.5028 91.2153 13.6444 90.5543 13.9749 89.9877C14.3054 89.4212 14.7303 88.9491 15.3441 88.6658C15.8162 88.4297 16.3828 88.2881 17.0438 88.2881C17.9408 88.2881 18.6018 88.4769 19.1211 88.8546C19.5932 89.2323 19.9237 89.7517 20.0654 90.4127L18.649 90.6959C18.5546 90.3654 18.3657 90.0822 18.0824 89.8461C17.7992 89.6573 17.4687 89.5628 17.0438 89.5628C16.43 89.5628 15.9107 89.7517 15.533 90.1766C15.1553 90.5543 14.9664 91.1681 14.9664 91.9707C14.9664 92.8205 15.1553 93.4343 15.533 93.8592C15.9107 94.2841 16.3828 94.4729 16.9965 94.4729C17.2798 94.4729 17.6103 94.4257 17.8936 94.2841C18.1769 94.1897 18.4601 94.0008 18.649 93.8592V92.9621H17.091V92.9149ZM21.529 88.4297H22.9453V92.3012C22.9453 92.9149 22.9453 93.2926 22.9925 93.4815C23.0398 93.7648 23.1814 94.0008 23.4175 94.1897C23.6535 94.3785 23.9368 94.4729 24.3617 94.4729C24.7866 94.4729 25.0699 94.3785 25.2588 94.2369C25.4476 94.048 25.5892 93.8592 25.6365 93.6231C25.6837 93.3871 25.6837 92.9621 25.6837 92.3956V88.4769H27.1473V92.2067C27.1473 93.0566 27.1 93.6703 27.0528 94.0008C26.9584 94.3313 26.8168 94.6618 26.6279 94.8979C26.4391 95.1339 26.1558 95.3228 25.7781 95.4644C25.4476 95.606 24.9755 95.7005 24.4089 95.7005C23.7479 95.7005 23.2286 95.606 22.8509 95.4644C22.5204 95.3228 22.2371 95.0867 22.0011 94.8506C21.8122 94.6146 21.6706 94.3313 21.6234 94.048C21.529 93.6231 21.4817 93.0566 21.4817 92.2539V88.4297H21.529ZM35.079 95.5116H33.521L32.9072 93.9064H30.0744L29.5079 95.5116H27.9971L30.7354 88.3825H32.2462L35.079 95.5116ZM32.4351 92.7261L31.4436 90.0822L30.4994 92.7261H32.4351ZM35.8344 95.5116V88.3825H38.856C39.6114 88.3825 40.1779 88.4297 40.5084 88.5714C40.8389 88.713 41.1222 88.9491 41.3583 89.2323C41.5471 89.5628 41.6887 89.9405 41.6887 90.3654C41.6887 90.8848 41.5471 91.3569 41.2166 91.6874C40.8861 92.0179 40.414 92.2539 39.8002 92.3484C40.1307 92.5372 40.3668 92.7261 40.5556 92.9621C40.7445 93.1982 41.0278 93.5759 41.3583 94.1424L42.2081 95.5116H40.5084L39.4698 93.9536C39.0921 93.387 38.856 93.0566 38.7144 92.9149C38.5727 92.7733 38.4311 92.6789 38.2894 92.6316C38.1478 92.5844 37.9117 92.5372 37.5812 92.5372H37.298V95.5116H35.8344ZM37.298 91.4041H38.3367C39.0448 91.4041 39.4698 91.3569 39.6114 91.3097C39.8002 91.2625 39.8947 91.1681 40.0363 91.0264C40.1307 90.8848 40.1779 90.6959 40.1779 90.5071C40.1779 90.271 40.1307 90.0822 39.9891 89.9405C39.8475 89.7989 39.6586 89.7045 39.4698 89.6572C39.3753 89.6572 38.9976 89.61 38.4311 89.61H37.298V91.4041ZM43.0107 88.4297H45.6074C46.1739 88.4297 46.6461 88.4769 46.9766 88.5714C47.4015 88.713 47.732 88.9019 48.0625 89.2323C48.3457 89.5628 48.5818 89.9405 48.7234 90.3654C48.8651 90.8376 48.9595 91.3569 48.9595 92.0651C48.9595 92.6316 48.8651 93.151 48.7234 93.5759C48.5346 94.0952 48.2985 94.5201 47.968 94.8506C47.732 95.0867 47.4015 95.2756 46.9766 95.4172C46.6461 95.5116 46.2212 95.5588 45.7018 95.5588H43.0107V88.4297ZM44.4743 89.61V94.3313H45.5602C45.9379 94.3313 46.2684 94.3313 46.41 94.2841C46.6461 94.2369 46.8349 94.1425 46.9766 94.0008C47.1182 93.8592 47.2598 93.6231 47.3543 93.2926C47.4487 92.9621 47.4959 92.5372 47.4959 91.9707C47.4959 91.4041 47.4487 90.9792 47.3543 90.6959C47.2598 90.4127 47.1182 90.1766 46.9293 89.9877C46.7405 89.8461 46.5516 89.7045 46.2684 89.6572C46.0795 89.61 45.6546 89.61 45.0881 89.61H44.4743Z" fill="#313131"/>
<path fill-rule="evenodd" clip-rule="evenodd" d="M12.8414 1.08691C12.747 3.35312 12.6525 5.61933 12.5581 7.83832C11.0945 8.97142 9.58371 10.0573 8.12012 11.1904C8.12012 13.5983 8.12012 16.0061 8.12012 18.4612C9.63092 17.989 11.1417 17.989 12.6525 17.989C12.8886 23.6073 13.0302 29.2729 13.2191 34.8912C13.3135 35.5993 13.3607 36.3547 13.4551 37.0629C12.9358 37.5823 12.8886 38.0072 11.8499 38.6682C10.7168 39.2819 10.4335 39.2347 10.1503 40.6983C10.2919 42.4452 10.2919 42.5868 11.5194 43.5311C12.3693 43.7671 12.747 43.956 13.5968 43.5783C14.1161 56.7034 14.5882 69.7813 15.1076 82.9064C15.3436 82.8592 15.5325 82.7648 15.7686 82.7175C15.7686 82.5287 15.7686 82.3398 15.7686 82.151C15.7686 81.9621 15.7686 81.7261 15.7686 81.5372C15.7686 81.1595 15.7686 80.829 15.7213 80.4513C15.3909 68.0816 15.0604 55.7119 14.7299 43.3422C15.5325 42.8229 16.1935 42.3035 16.9489 41.6898C17.6099 44.192 17.7987 46.4582 17.8459 49.1021C17.6571 49.952 17.4682 50.849 17.2794 51.6988C16.9017 54.1539 16.6184 56.5145 16.524 58.9696C16.4768 59.5361 16.4295 60.1499 16.4295 60.7165C16.6656 60.7165 16.9017 60.7165 17.1377 60.7165C17.421 62.5578 17.6571 64.399 17.7987 66.2403C17.0905 69.6396 17.5154 72.4252 17.9403 75.7301L18.4597 80.0736C18.5541 80.7818 16.9961 81.5844 17.0433 82.1038C17.0433 82.6703 17.9876 83.0008 18.4597 83.1425C19.0262 83.1897 18.979 83.3313 20.2065 83.048C21.6229 82.7175 21.6229 82.4815 21.4813 81.4428C21.3869 80.829 21.198 80.7346 21.1508 79.8848C21.1036 78.7045 21.2452 76.8632 21.2924 75.8245C21.4813 73.6999 21.9534 71.717 22.2367 69.5924C22.2839 68.5537 22.3783 67.8456 22.1423 66.8541C22.2367 66.382 22.3783 65.9571 22.4728 65.4849C22.6616 64.5879 22.8032 63.6909 22.8977 62.7938C22.9449 62.3689 22.9449 61.9912 22.9921 61.5663C23.2754 61.5663 23.5586 61.6135 23.8419 61.6135C23.8891 62.841 23.9836 63.8325 24.2668 65.0128C24.4085 65.6266 24.5501 66.2875 24.6917 66.9013C24.6445 67.3734 24.6445 67.8456 24.5973 68.3177C24.5501 68.837 24.5029 69.3092 24.5029 69.8285C24.5501 70.4423 24.6917 71.0088 24.7862 71.5754C24.9278 72.3308 25.0695 73.0862 25.2111 73.8416C25.5416 75.494 25.7776 79.6487 25.6832 80.4513C25.5888 80.829 25.3527 81.1123 25.2583 81.5372C25.2111 81.8205 25.2111 82.0093 25.2583 82.2454C25.3527 82.6231 25.7776 82.812 26.3442 82.8592C27.4773 83.0008 27.1468 83.0008 28.3271 82.9536C28.6576 82.9536 29.1297 82.8592 29.413 82.5759C29.6019 82.387 29.8851 81.9149 29.7435 81.6789C29.3658 81.0651 28.7048 80.7346 28.1855 80.3097C28.1855 80.3097 28.1855 79.6959 28.2327 79.6015C28.3271 79.1766 28.9409 75.8245 28.9881 75.2579C29.3186 74.0776 29.3658 72.8501 29.5074 71.6698C29.6019 69.9701 29.5074 68.9315 29.0353 67.4207C29.1297 65.2961 29.1769 63.2659 29.413 61.2358L30.4517 65.1544L31.1599 66.5708L31.8681 67.8928L32.0097 66.618L32.1041 65.2017L30.5933 57.1755C31.0655 57.4116 31.4904 57.6004 31.9625 57.8365C34.0398 55.2398 35.6451 52.6903 35.9284 49.1021C36.1172 45.3251 35.9756 41.5009 35.5507 37.7711C35.5034 37.1574 35.4562 36.5908 35.409 35.977L32.3874 36.4964C31.9625 35.1744 31.4904 34.2302 29.7435 33.2859C28.6104 32.6722 27.5717 32.3417 26.2498 31.964C26.2026 32.5777 26.7219 29.1784 26.7219 27.7148C26.4386 26.5345 26.0137 25.4486 25.4472 24.3155C23.9363 24.1739 22.4728 24.0795 20.9147 24.3155C20.4898 25.4958 20.0177 26.5345 19.64 27.8093C19.7816 29.3201 20.1121 30.6892 20.301 32.1528C19.4511 32.4833 18.4597 32.6249 17.6571 33.0499C16.3823 33.6164 15.5325 34.419 14.4466 35.3633C14.1633 29.5561 13.9273 23.7962 13.6912 17.989C15.7686 18.3667 17.7515 18.8389 19.8288 19.4054C21.8118 20.0664 23.7947 20.7746 25.7304 21.5772C28.8937 22.4742 31.5376 23.0408 34.748 22.8991C38.9028 22.2854 35.6923 22.2854 37.0615 19.4054C38.1946 18.6028 39.5165 18.2251 40.8385 17.1392C38.8083 16.2422 37.8169 15.8645 39.2805 13.3622C39.7998 12.4179 40.3191 11.4737 40.8385 10.5767C39.7526 11.1432 38.6667 11.757 37.5808 12.3235C36.4477 12.8429 35.7867 13.1261 34.6064 13.1733C32.2458 13.3622 32.4818 13.1261 32.7179 15.8173C30.3101 15.77 28.4688 15.2035 26.1553 14.4953C23.8419 13.5983 21.4813 12.7484 19.1679 11.8514C17.2322 11.3321 15.5325 10.8599 13.5024 10.8599C13.3607 8.1216 13.4551 5.28884 13.0774 2.59772C12.983 2.12559 12.8886 1.60625 12.8414 1.08691Z" fill="#313131"/>
<path fill-rule="evenodd" clip-rule="evenodd" d="M2.87958 84.605H46.1263C46.1736 84.605 46.2208 84.6522 46.2208 84.6994V85.5492C46.2208 85.5964 46.1736 85.6437 46.1263 85.6437H2.87958C2.83237 85.6437 2.78516 85.5964 2.78516 85.5492V84.6994C2.78516 84.605 2.83237 84.605 2.87958 84.605Z" fill="#313131"/>
<path fill-rule="evenodd" clip-rule="evenodd" d="M44.5681 0C43.7655 0 43.0573 0.330488 42.4908 0.849827C41.9242 1.46359 41.5938 2.12457 41.5938 3.02161C41.5938 3.82422 41.9242 4.4852 42.4908 5.05175C43.0573 5.66552 43.7655 5.90158 44.5681 5.90158C45.3708 5.90158 46.1262 5.66552 46.6927 5.05175C47.2593 4.4852 47.5425 3.77701 47.5425 3.02161C47.5425 2.17178 47.2593 1.46359 46.6927 0.849827C46.1262 0.330488 45.418 0 44.5681 0ZM42.8685 1.27474C43.3406 0.849827 43.9544 0.566552 44.5681 0.566552C45.2291 0.566552 45.8429 0.849827 46.2678 1.27474C46.7399 1.79408 46.976 2.31342 46.976 3.02161C46.976 3.68259 46.7399 4.29635 46.2678 4.72126C45.7957 5.19339 45.1819 5.42945 44.5681 5.42945C43.9072 5.42945 43.2934 5.19339 42.8685 4.72126C42.3964 4.29635 42.1603 3.68259 42.2075 3.02161C42.1603 2.31342 42.3964 1.74687 42.8685 1.27474Z" fill="#313131"/>
<path fill-rule="evenodd" clip-rule="evenodd" d="M43.3887 4.48525V1.69971H44.569C44.8523 1.69971 45.0883 1.74692 45.23 1.79413C45.3716 1.84134 45.466 1.93577 45.5605 2.07741C45.6549 2.21905 45.7021 2.36068 45.7021 2.50232C45.7021 2.69117 45.6549 2.88002 45.5132 3.02166C45.3716 3.1633 45.23 3.25772 44.9467 3.25772C45.0883 3.30494 45.1828 3.39936 45.23 3.49379C45.3244 3.58821 45.4188 3.72985 45.5605 3.96591L45.8909 4.48525H45.23L44.8051 3.87149C44.6634 3.63542 44.569 3.541 44.5218 3.44657C44.4746 3.39936 44.4273 3.35215 44.3329 3.35215C44.2857 3.35215 44.1913 3.30494 44.0496 3.30494H43.9552V4.48525H43.3887ZM43.9552 2.88002H44.3801C44.6634 2.88002 44.805 2.88002 44.8995 2.83281C44.9467 2.7856 45.0411 2.7856 45.0411 2.73838C45.0883 2.69117 45.0883 2.59675 45.0883 2.54953C45.0883 2.45511 45.0411 2.36068 44.9939 2.31347C44.9467 2.26626 44.8523 2.21905 44.8051 2.21905C44.7578 2.21905 44.6162 2.21905 44.3801 2.21905H43.9552V2.88002Z" fill="#313131"/>
</svg>
