<svg width="96" height="67" viewBox="0 0 96 67" fill="none" xmlns="http://www.w3.org/2000/svg">
<path fill-rule="evenodd" clip-rule="evenodd" d="M8.36036 2.12451H13.3436H59.1815C77.0142 2.12451 91.7992 15.4428 94.0232 32.5605H75.1609C73.2664 26.2282 67.2947 21.5709 60.2934 21.5709H8.89575H4.20077L0 2.12451H8.36036Z" fill="#0000BD"/>
<path fill-rule="evenodd" clip-rule="evenodd" d="M91.3045 0C90.069 0 88.9158 0.490244 88.0098 1.34817C87.1038 2.2878 86.5684 3.39085 86.5684 4.73902C86.5684 5.96463 87.0626 7.06768 88.0098 7.96646C88.9158 8.9061 90.069 9.31463 91.3045 9.31463C92.6224 9.31463 93.7344 8.9061 94.6404 7.96646C95.5465 7.06768 95.9995 6.00549 95.9995 4.73902C95.9995 3.39085 95.5465 2.32866 94.6404 1.34817C93.7344 0.490244 92.5812 0 91.3045 0ZM88.5452 1.96098C89.2865 1.26646 90.2337 0.817073 91.2633 0.817073C92.2929 0.817073 93.2402 1.26646 93.9815 1.96098C94.7228 2.73719 95.1346 3.59512 95.1346 4.73902C95.1346 5.76037 94.7228 6.7 93.9815 7.39451C93.2402 8.12988 92.2929 8.53841 91.2633 8.53841C90.2337 8.53841 89.2865 8.12988 88.5452 7.39451C87.8039 6.7 87.392 5.76037 87.4744 4.73902C87.4332 3.59512 87.8451 2.77805 88.5452 1.96098Z" fill="#0000BD"/>
<path fill-rule="evenodd" clip-rule="evenodd" d="M89.4922 6.82251V2.45117H91.3866C91.8397 2.45117 92.2103 2.49203 92.4162 2.57373C92.6222 2.65544 92.7869 2.778 92.9105 2.98227C93.034 3.18654 93.1164 3.43166 93.1164 3.67678C93.1164 4.00361 93.034 4.28959 92.8281 4.49385C92.6222 4.69812 92.3339 4.86154 91.9632 4.90239C92.1691 5.02495 92.3339 5.14751 92.4574 5.27007C92.581 5.39264 92.7457 5.63776 92.9516 5.96459L93.487 6.82251H92.4162L91.7573 5.88288C91.5102 5.55605 91.3866 5.31093 91.3043 5.22922C91.2219 5.14751 91.1395 5.06581 91.016 5.06581C90.9336 5.02495 90.7689 5.02495 90.563 5.02495H90.3982V6.86337H89.4922V6.82251ZM90.3982 4.33044H91.0572C91.469 4.33044 91.7573 4.33044 91.8397 4.28959C91.9632 4.24873 92.0456 4.20788 92.0868 4.08532C92.128 4.00361 92.1691 3.88105 92.1691 3.75849C92.1691 3.59507 92.128 3.47251 92.0456 3.39081C91.9632 3.3091 91.8397 3.22739 91.7161 3.22739C91.6338 3.22739 91.4278 3.22739 91.0572 3.22739H90.357V4.33044H90.3982Z" fill="#0000BD"/>
<path fill-rule="evenodd" clip-rule="evenodd" d="M5.43652 40.4042V28.8426H17.3387V31.0079H8.23704V33.5408H17.0504V35.5426H8.23704V38.1981H17.3387V40.3633H5.43652V40.4042ZM23.2692 31.1304V34.6847H29.0762C29.6527 34.6847 30.0646 34.5621 30.3117 34.2762C30.5588 33.9902 30.6823 33.5408 30.6823 32.8871C30.6823 32.2335 30.5588 31.8249 30.3529 31.539C30.1058 31.253 29.6939 31.0896 29.0762 31.0896H23.2692V31.1304ZM33.6888 40.4042H30.8883V38.6066C30.8883 38.0347 30.7235 37.6262 30.3529 37.381C30.0234 37.1359 29.4468 36.9725 28.6643 36.9725H23.2692V40.4042H20.4687V28.8426H29.3233C30.6412 28.8426 31.6296 29.1286 32.2885 29.6597C33.071 30.3133 33.4417 31.3755 33.4417 32.928C33.4417 33.7451 33.2769 34.3987 32.9063 34.9298C32.6592 35.2975 32.2473 35.6652 31.7119 35.9512C32.3297 36.1554 32.8239 36.4005 33.071 36.6865C33.4005 37.0133 33.6064 37.4627 33.6064 38.0347V40.4042H33.6888ZM43.2023 33.6225H50.5742V36.6865C50.5742 38.0347 50.2448 39.0152 49.627 39.5463C48.9681 40.0774 47.8973 40.3633 46.3735 40.3633H40.7313C39.2898 40.3633 38.219 40.0365 37.4777 39.4237C36.7776 38.8109 36.4069 37.7896 36.4069 36.4005V32.8463C36.4069 31.3347 36.7364 30.2316 37.3953 29.6188C38.0543 29.006 39.1663 28.6792 40.6901 28.6792H46.2911C47.7737 28.6792 48.8445 28.9243 49.4623 29.3737C50.2036 29.9048 50.5331 30.8444 50.5331 32.2335H47.7325C47.7325 31.7841 47.5678 31.4572 47.2383 31.2938C46.9089 31.0896 46.3323 31.0079 45.5086 31.0079H41.3902C40.5253 31.0079 39.9488 31.1713 39.6193 31.4981C39.2898 31.8249 39.1251 32.3969 39.1251 33.2548V36.1963C39.1251 36.9725 39.2486 37.5036 39.5369 37.7487C39.8252 37.9938 40.4018 38.1164 41.349 38.1164H45.9204C46.5794 38.1164 47.0736 38.0347 47.3207 37.8304C47.5678 37.6262 47.6914 37.3402 47.6914 36.8908V35.6652H43.0787V33.6225H43.2023ZM55.9282 40.4042H52.6746L58.8522 28.8426H62.9706L69.1071 40.4042H65.8535L64.3709 37.5036H57.4932L55.9282 40.4042ZM58.5639 35.2975H63.2177L60.9938 31.0079H60.8703L58.5639 35.2975Z" fill="#2B2A29"/>
<path fill-rule="evenodd" clip-rule="evenodd" d="M8.36036 66.9999H13.3436H59.1815C77.0142 66.9999 91.7992 53.6816 94.0232 36.564H75.1609C73.2664 42.8963 67.2947 47.5536 60.2934 47.5536H8.89575H4.20077L0 66.9999H8.36036Z" fill="#E31E24"/>
</svg>
