<svg width="112" height="64" viewBox="0 0 112 64" fill="none" xmlns="http://www.w3.org/2000/svg">
<path fill-rule="evenodd" clip-rule="evenodd" d="M76.8303 12.9902H78.5793C79.4913 12.9902 80.2783 13.3025 80.9404 13.9395C81.5901 14.5515 81.9274 15.2884 81.9274 16.0878C81.9898 22.9699 81.9149 29.8645 81.9149 36.7467V38.5577C82.2896 41.7802 83.7013 44.628 86.1624 47.1011C88.0488 48.9871 90.21 50.2861 92.6586 51.023C94.2702 51.5976 97.2934 51.8724 99.0799 51.8724H111.248V39.557H98.6551C97.8181 39.5195 97.0935 39.2072 96.4689 38.6202C95.8193 38.0082 95.5819 37.2962 95.5694 36.4969V24.4937L95.482 13.9894C95.1072 10.7669 93.6955 7.91915 91.2344 5.44608C90.3475 4.55927 89.4105 3.80986 88.3986 3.17286L76.8303 12.9902ZM0 55.7568H1.92388C2.43608 55.7568 2.87333 55.7818 3.23562 55.8318C3.59791 55.8817 3.92272 55.9816 4.23504 56.1565C4.6473 56.3938 4.94712 56.7061 5.17199 57.0933C5.38437 57.4805 5.4968 57.9176 5.4968 58.4048C5.4968 58.8419 5.39686 59.2416 5.17199 59.6038C4.95962 59.9785 4.67228 60.2658 4.2975 60.4906C3.93521 60.7155 3.53544 60.8279 3.0982 60.8404L5.37188 63.863H4.37246L1.62406 60.1909H1.86142C2.26118 60.1909 2.586 60.1784 2.86084 60.1534C3.13568 60.1284 3.38553 60.066 3.62289 59.9785C3.9602 59.8286 4.21005 59.6038 4.39744 59.3165C4.58483 59.0293 4.67228 58.7045 4.67228 58.3423C4.67228 58.055 4.60982 57.7927 4.4724 57.5304C4.33498 57.2681 4.14759 57.0558 3.92272 56.8934C3.68536 56.7186 3.42301 56.6186 3.14817 56.5687C2.87333 56.5312 2.51104 56.5062 2.08629 56.5062H0.812028V63.8755H0V55.7568ZM15.7533 55.7568H20.1758V56.4937H16.5529V59.404H20.0508V60.1409H16.5529V63.1261H20.1758V63.863H15.7533V55.7568ZM63.9003 55.7568H64.7124V63.1261H68.0729V63.863H63.9003V55.7568ZM78.0671 55.7568H78.8791V63.8505H78.0671V55.7568ZM89.6354 55.7568H90.7347L95.2696 62.4766V55.7568H96.0816V63.8505H95.2696L90.4474 56.7311V63.8505H89.6354V55.7568ZM106.85 55.7568H111.285V56.4937H107.662V59.404H111.16V60.1409H107.662V63.1261H111.285V63.863H106.85V55.7568ZM22.5244 32.3251C22.6493 32.3251 22.7618 32.3251 22.8742 32.3126L22.9492 32.3751H23.3864C24.2484 32.3876 25.0229 32.7123 25.6726 33.3618C26.3472 34.0238 26.672 34.8107 26.672 35.7225L26.8344 38.5577C27.2092 41.7802 28.6209 44.628 31.0819 47.1011C31.6441 47.6631 32.2313 48.1752 32.8434 48.6249L43.5372 39.5445C42.7127 39.507 41.9881 39.1947 41.3634 38.6077C40.7138 37.9957 40.4765 37.2837 40.464 36.4844C40.464 36.347 40.464 36.1346 40.464 35.9972C40.464 34.2111 40.1641 32.5 39.552 30.8887C39.0148 29.215 38.2403 27.7287 37.1409 26.3173C39.3896 23.4196 40.464 20.2345 40.464 16.6249C40.464 14.8388 40.1641 13.1276 39.552 11.5163C38.7775 9.06825 37.3783 6.90744 35.3919 5.02141C32.7684 2.56083 29.7327 1.13694 26.3097 0.774727C25.7475 0.712275 25.1854 0.674805 24.6232 0.674805H13.6296C6.62115 0.687295 0 5.94569 0 13.0027V51.8973H13.6296V13.0027H23.3864C24.2484 13.0152 25.0229 13.3399 25.6726 13.9894C26.3472 14.6514 26.672 15.4383 26.672 16.3501C26.672 18.6608 25.5102 19.8973 22.5119 20.0472C19.1264 20.0472 16.378 22.795 16.378 26.1799C16.3905 29.5773 19.1389 32.3251 22.5244 32.3251Z" fill="#093A54"/>
<path fill-rule="evenodd" clip-rule="evenodd" d="M30.9956 61.5902C31.0081 61.89 31.083 62.1523 31.2205 62.4021C31.3579 62.6519 31.5578 62.8517 31.7951 63.0016C32.045 63.1515 32.3073 63.2264 32.6071 63.2264C32.9195 63.2264 33.1943 63.164 33.4442 63.0266C33.694 62.8892 33.9064 62.7018 34.0563 62.452C34.2062 62.2022 34.2812 61.9274 34.2812 61.6277C34.2812 61.4028 34.2312 61.1905 34.1313 60.9907C34.0313 60.7908 33.8939 60.616 33.719 60.4786C33.5441 60.3412 33.3692 60.2412 33.1818 60.1663C32.9944 60.0914 32.7571 60.0164 32.4697 59.9415C32.1199 59.854 31.8451 59.7666 31.6327 59.6792C31.4203 59.5918 31.2205 59.4793 31.0456 59.3295C30.5958 58.9423 30.3709 58.4426 30.3709 57.8181C30.3709 57.3935 30.4709 57.0188 30.6833 56.6815C30.8956 56.3568 31.1705 56.0945 31.5203 55.9071C31.8701 55.7198 32.2574 55.6323 32.6821 55.6323C33.0819 55.6323 33.4567 55.7323 33.794 55.9196C34.1313 56.1195 34.4061 56.3818 34.606 56.7065C34.8059 57.0437 34.9058 57.406 34.9058 57.8181H34.0563C34.0438 57.5434 33.9689 57.306 33.8314 57.0812C33.694 56.8689 33.5316 56.694 33.3067 56.5816C33.0944 56.4692 32.8445 56.4067 32.5697 56.4067C32.3198 56.4067 32.0825 56.4692 31.8701 56.5941C31.6577 56.719 31.4828 56.8939 31.3579 57.1062C31.2329 57.3185 31.1705 57.5558 31.1705 57.8056C31.1705 58.1054 31.2454 58.3552 31.3954 58.5301C31.5453 58.7174 31.7202 58.8548 31.945 58.9423C32.1699 59.0297 32.4447 59.1296 32.782 59.217C33.2068 59.3295 33.5191 59.4294 33.719 59.5168C33.9189 59.5918 34.1313 59.7291 34.3311 59.9165C34.5685 60.1288 34.7559 60.3786 34.8933 60.6784C35.0307 60.9782 35.0932 61.2904 35.0932 61.6152C35.0932 62.0523 34.9808 62.452 34.7559 62.8142C34.531 63.1765 34.2312 63.4637 33.8564 63.6761C33.4816 63.8884 33.0694 63.9883 32.6321 63.9883C32.1824 63.9883 31.7576 63.8884 31.3704 63.6761C30.9831 63.4637 30.6833 63.1889 30.4584 62.8142C30.2335 62.4395 30.1211 62.0274 30.1211 61.5777H30.9956V61.5902ZM34.8683 49.9243C35.7303 50.3739 36.6423 50.7487 37.5917 51.0359C39.2033 51.6105 42.2265 51.8853 44.013 51.8853H56.1809H62.3773H62.5397C63.1144 51.8853 63.6766 51.8478 64.2262 51.7853C67.6493 51.4106 70.685 49.9992 73.3085 47.5387C75.3073 45.6526 76.694 43.4918 77.4685 41.0437C78.0682 39.4325 78.3805 37.7213 78.3805 35.9352C78.3805 31.776 76.8939 28.0788 73.9081 24.8813C70.9224 21.6588 67.162 20.0601 62.6147 20.0601C59.1917 20.0601 57.4802 18.8236 57.4802 16.363C57.4802 15.4512 57.8175 14.6643 58.4796 14.0023C59.1292 13.3528 59.9038 13.0156 60.7658 13.0156C64.4386 12.9781 69.0484 12.9906 73.296 13.0031L86.176 2.07412C85.7013 1.87428 85.214 1.69942 84.7143 1.54953C83.1028 0.974981 80.0795 0.700195 78.2931 0.700195H59.554C58.9793 0.700195 58.4171 0.737666 57.8675 0.800117C54.4444 1.17483 51.4087 2.58622 48.7852 5.0468C46.7864 6.93283 45.3997 9.09365 44.6252 11.5417C44.0255 13.153 43.7132 14.8641 43.7132 16.6503C43.7132 20.8095 45.1998 24.5066 48.1856 27.7166C51.1713 30.9391 54.9317 32.5379 59.479 32.5379C62.902 32.5379 64.6135 33.7744 64.6135 36.235C64.6135 37.1468 64.2762 37.9337 63.6141 38.5956C62.9645 39.2451 62.1899 39.5824 61.3279 39.5824H56.2059H47.0862L34.8683 49.9243ZM53.495 59.7916C53.495 60.5535 53.2951 61.2654 52.9203 61.9025C52.5331 62.5519 52.0084 63.064 51.3462 63.4388C50.6841 63.8135 49.972 64.0008 49.21 64.0008C48.4604 64.0008 47.7608 63.8135 47.0987 63.4388C46.4366 63.064 45.9119 62.5644 45.5246 61.9274C45.1374 61.2904 44.9375 60.591 44.9375 59.8416C44.9375 59.0797 45.1249 58.3677 45.5121 57.7182C45.8994 57.0687 46.4116 56.5691 47.0737 56.1944C47.7358 55.8197 48.4479 55.6323 49.21 55.6323C49.9596 55.6323 50.6716 55.8197 51.3213 56.1819C51.9834 56.5566 52.5081 57.0562 52.8953 57.6932C53.2951 58.3427 53.495 59.0297 53.495 59.7916ZM49.2225 56.4067C48.5978 56.4067 48.0232 56.5691 47.486 56.8689C46.9488 57.1811 46.524 57.5933 46.2117 58.1304C45.8994 58.655 45.7495 59.2295 45.7495 59.8416C45.7495 60.4536 45.9119 61.0156 46.2242 61.5277C46.549 62.0398 46.9738 62.452 47.511 62.7518C48.0482 63.0516 48.6228 63.2014 49.2225 63.2014C49.6847 63.2014 50.1345 63.114 50.5592 62.9391C50.984 62.7643 51.3587 62.5145 51.6711 62.2022C51.9959 61.89 52.2332 61.5153 52.4206 61.1031C52.5955 60.6784 52.683 60.2412 52.683 59.7791C52.683 59.1671 52.5206 58.605 52.2082 58.0929C51.8959 57.5683 51.4712 57.1686 50.934 56.8564C50.3968 56.5691 49.8221 56.4192 49.2225 56.4067Z" fill="#F5770A"/>
<path fill-rule="evenodd" clip-rule="evenodd" d="M107.101 0C106.351 0 105.664 0.312256 105.127 0.811866C104.577 1.38642 104.277 2.03591 104.277 2.86027C104.277 3.60968 104.59 4.25918 105.127 4.79626C105.677 5.37081 106.351 5.60812 107.101 5.60812C107.888 5.60812 108.562 5.37081 109.112 4.79626C109.662 4.24669 109.937 3.60968 109.937 2.86027C109.937 2.0484 109.662 1.39891 109.112 0.811866C108.575 0.312256 107.888 0 107.101 0ZM105.464 1.19906C105.914 0.786886 106.489 0.5121 107.101 0.5121C107.713 0.5121 108.288 0.786886 108.737 1.19906C109.174 1.67369 109.412 2.18579 109.412 2.87276C109.412 3.48478 109.174 4.05933 108.737 4.47151C108.288 4.90867 107.713 5.15847 107.101 5.15847C106.489 5.15847 105.914 4.92116 105.464 4.47151C105.027 4.05933 104.79 3.48478 104.815 2.87276C104.79 2.18579 105.027 1.67369 105.464 1.19906Z" fill="#093A54"/>
<path fill-rule="evenodd" clip-rule="evenodd" d="M105.952 4.27098V1.62305H107.076C107.364 1.62305 107.564 1.64803 107.689 1.69799C107.814 1.74795 107.926 1.83538 108.001 1.94779C108.076 2.0727 108.113 2.21009 108.113 2.35997C108.113 2.55982 108.051 2.72219 107.939 2.84709C107.826 2.97199 107.651 3.05943 107.414 3.0969C107.526 3.15935 107.626 3.23429 107.701 3.32172C107.776 3.39666 107.876 3.54655 108.001 3.74639L108.326 4.25849H107.689L107.301 3.68394C107.164 3.48409 107.064 3.3467 107.014 3.29674C106.964 3.24678 106.914 3.20931 106.852 3.18433C106.789 3.15935 106.702 3.15935 106.577 3.15935H106.464V4.27098H105.952ZM106.489 2.73468H106.889C107.151 2.73468 107.301 2.72219 107.364 2.69721C107.426 2.67223 107.476 2.63476 107.514 2.5848C107.551 2.53484 107.564 2.45989 107.564 2.38495C107.564 2.29752 107.539 2.22258 107.489 2.17262C107.439 2.12266 107.376 2.08519 107.289 2.0727C107.251 2.06021 107.114 2.06021 106.902 2.06021H106.489V2.73468Z" fill="#093A54"/>
</svg>
