<svg width="2058" height="60" viewBox="0 0 2058 60" fill="none" xmlns="http://www.w3.org/2000/svg">
<path d="M1 12.0004C1 12.0004 237.256 38.5091 387.318 35.5242C519.624 32.8925 588.933 15.5253 721.255 13.7185C865.269 11.7521 932.554 46.5649 1076.08 35.5242C1172.2 28.1304 1205.99 13.5161 1302.45 13.7185C1398.05 13.9192 1470.01 35.5382 1565.61 35.5242C1661.15 35.5102 1705.16 13.5 1800.7 13.7185C1895.33 13.935 2057 58.3907 2057 58.3907" stroke="#0000FF" stroke-width="1.5" stroke-dasharray="4 4"/>
<path d="M7.85938 58.3224C7.85938 58.3224 237.256 -0.789674 387.318 2.19521C519.624 4.8269 588.309 56.5158 720.631 58.3225C864.645 60.2889 940.817 -8.84547 1084.34 2.19527C1180.46 9.58902 1227.2 58.525 1323.65 58.3226C1419.25 58.122 1465.1 2.18134 1560.69 2.19531C1656.23 2.20927 1702.04 58.5412 1797.58 58.3226C1892.21 58.1061 2032.06 2.19531 2032.06 2.19531" stroke="#DF0112" stroke-width="1.5"/>
</svg>
