<svg width="1600" height="60" viewBox="0 0 1600 60" fill="none" xmlns="http://www.w3.org/2000/svg">
<path d="M-206 12.0005C-206 12.0005 30.2562 38.5092 180.318 35.5243C312.624 32.8926 381.933 15.5254 514.255 13.7187C658.269 11.7523 725.554 46.565 869.082 35.5243C965.199 28.1306 998.994 13.5163 1095.45 13.7187C1191.05 13.9193 1263.01 35.5383 1358.61 35.5243C1454.15 35.5103 1498.16 13.5001 1593.7 13.7187C1688.33 13.9352 1850 58.3908 1850 58.3908" stroke="#0000FF" stroke-width="1.5" stroke-dasharray="4 4"/>
<path d="M-199.141 58.3224C-199.141 58.3224 30.256 -0.789674 180.318 2.19521C312.624 4.8269 381.309 56.5158 513.631 58.3225C657.645 60.2889 733.817 -8.84547 877.344 2.19527C973.461 9.58902 1020.2 58.525 1116.65 58.3226C1212.25 58.122 1258.1 2.18134 1353.69 2.19531C1449.23 2.20927 1495.04 58.5412 1590.58 58.3226C1685.21 58.1061 1825.06 2.19531 1825.06 2.19531" stroke="#DF0112" stroke-width="1.5"/>
</svg>
