<svg width="82" height="92" viewBox="0 0 82 92" fill="none" xmlns="http://www.w3.org/2000/svg">
<path d="M52.2513 70.793L35.1864 80.7147C35.4122 83.3467 35.431 82.4378 35.1676 84.7099L33.606 87.9099L50.6709 77.9881L52.2325 74.7882C52.4959 72.516 52.4959 73.4249 52.2513 70.793Z" fill="white"/>
<path d="M33.6245 88.384C33.4928 88.384 33.3799 88.3461 33.2858 88.2514C33.1165 88.1 33.0789 87.8727 33.173 87.6645L34.6969 84.5402L34.791 83.745C34.9039 82.8361 34.9039 82.8361 34.791 81.7758L34.6969 80.7533C34.6781 80.564 34.7722 80.3746 34.9415 80.2799L52.0064 70.3582C52.157 70.2824 52.3263 70.2635 52.4768 70.3392C52.6273 70.415 52.7214 70.5664 52.7402 70.7369L52.8343 71.7593C52.9472 72.9143 52.9472 72.9522 52.8155 73.9558L52.7214 74.8267C52.7214 74.8836 52.7026 74.9404 52.665 74.9972L51.1221 78.1971C51.0845 78.2918 51.0093 78.3675 50.934 78.4054L33.8691 88.3272C33.7938 88.365 33.6998 88.384 33.6245 88.384ZM35.7129 80.9805L35.7694 81.6811C35.8823 82.8361 35.8823 82.8929 35.7506 83.8775L35.6565 84.7485C35.6565 84.8053 35.6377 84.8621 35.6 84.9189L34.7534 86.6609L50.2943 77.6291L51.743 74.6374L51.8371 73.8421C51.95 72.9333 51.95 72.9333 51.8371 71.8729L51.8183 71.6079L35.7129 80.9805Z" fill="black"/>
<path d="M62.449 81.5862L45.4029 91.508C45.497 86.1873 45.6851 86.6796 44.1611 82.5897L61.226 72.668C62.7312 76.7579 62.5431 76.2656 62.449 81.5862Z" fill="white"/>
<path d="M45.4025 91.9991C45.3084 91.9991 45.2332 91.9802 45.1579 91.9423C45.0074 91.8476 44.9133 91.6772 44.9133 91.5068L44.951 89.992C45.0262 86.3376 45.0262 86.3376 43.7092 82.7779C43.6339 82.5507 43.7092 82.3046 43.9161 82.172L60.9811 72.2502C61.1128 72.1745 61.2633 72.1745 61.395 72.2124C61.5267 72.2502 61.6396 72.3639 61.696 72.4964C63.0695 76.2076 63.0883 76.2644 63.0131 80.0892L62.9754 81.604C62.9754 81.7744 62.8814 81.9448 62.7308 82.0205L45.6659 91.9423C45.5718 91.9802 45.4778 91.9991 45.4025 91.9991ZM44.7628 82.7969C46.0046 86.1104 46.0046 86.3187 45.9293 89.992L45.9105 90.6169L61.9783 81.2821L61.9971 80.0513C62.0723 76.5863 62.0723 76.3969 60.9434 73.3863L44.7628 82.7969Z" fill="black"/>
<path d="M72.251 79.0872L55.1861 89.0089C53.5492 83.2528 53.8126 83.4611 51.3291 79.7499L68.394 69.8281C70.8776 73.5393 70.6142 73.331 72.251 79.0872Z" fill="white"/>
<path d="M55.1865 89.5001C55.13 89.5001 55.0548 89.4812 54.9983 89.4623C54.8478 89.4055 54.7537 89.2919 54.7161 89.1404L54.1893 87.2658C53.098 83.3653 53.0604 83.1949 50.9155 80.0139C50.8403 79.9003 50.8215 79.7488 50.8403 79.6162C50.8779 79.4837 50.9532 79.3701 51.0661 79.2943L68.131 69.3726C68.3567 69.24 68.639 69.3158 68.7895 69.5241C71.0096 72.8376 71.1037 73.1595 72.1761 77.0601L72.7029 78.9346C72.7594 79.1618 72.6653 79.389 72.4772 79.5026L55.4499 89.4244C55.3558 89.4812 55.2805 89.5001 55.1865 89.5001ZM52.0444 79.9192C53.9823 82.8351 54.114 83.3085 55.1488 87.0197L55.5063 88.2694L71.6869 78.8589L71.273 77.363C70.2194 73.6139 70.1441 73.3299 68.2627 70.4897L52.0444 79.9192Z" fill="black"/>
<path d="M68.3942 69.8277L51.3481 79.7494L53.5683 77.1932L70.6332 67.2715L68.3942 69.8277Z" fill="white"/>
<path d="M51.3481 80.2417C51.1976 80.2417 51.0658 80.1849 50.9718 80.0713C50.8213 79.882 50.8213 79.6169 50.9718 79.4275L53.1919 76.8714C53.2295 76.8335 53.2672 76.7956 53.3236 76.7767L70.3885 66.8549C70.5955 66.7413 70.8589 66.7792 71.0094 66.9685C71.1599 67.1579 71.1599 67.423 70.9906 67.6123L68.7705 70.1685C68.7328 70.2064 68.6952 70.2442 68.6387 70.2632L51.5738 80.1849C51.5174 80.2228 51.4233 80.2417 51.3481 80.2417ZM53.888 77.5719L53.6811 77.8181L68.0931 69.449L68.3001 69.2028L53.888 77.5719Z" fill="#0000BD"/>
<path d="M77.726 72.837L60.6611 82.7587L61.5454 80.8085L78.5915 70.8867L77.726 72.837Z" fill="white"/>
<path d="M60.6611 83.2519C60.5482 83.2519 60.4165 83.214 60.3225 83.1193C60.1531 82.9679 60.1155 82.7406 60.2096 82.5513L61.0939 80.601C61.1315 80.5063 61.2068 80.4306 61.3008 80.3738L78.3657 70.452C78.5539 70.3384 78.7797 70.3763 78.949 70.5088C79.0995 70.6603 79.156 70.8875 79.0619 71.0769L78.1776 73.0272C78.14 73.1218 78.0647 73.1976 77.9706 73.2544L60.9057 83.1761C60.8305 83.214 60.7364 83.2519 60.6611 83.2519ZM61.9217 81.1501L61.7524 81.5478L77.3497 72.478L77.5191 72.0804L61.9217 81.1501Z" fill="#0000BD"/>
<path d="M78.5916 70.8882L61.5267 80.8099C58.0648 74.6751 58.5352 75.2621 55.6377 72.6112L72.7026 62.6895C75.6001 65.3403 75.1485 64.7533 78.5916 70.8882Z" fill="white"/>
<path d="M61.5455 81.303C61.5079 81.303 61.4703 81.303 61.4138 81.2841C61.2821 81.2462 61.1881 81.1705 61.1128 81.0569L60.3226 79.6368C57.9143 75.3386 57.9143 75.3386 55.7883 73.3883L55.3367 72.9718C55.2238 72.8582 55.1674 72.7067 55.1862 72.5552C55.205 72.4037 55.2991 72.2523 55.4308 72.1765L72.4957 62.2548C72.6838 62.1412 72.9096 62.179 73.0789 62.3116L73.5305 62.7281C75.7506 64.7731 75.8071 64.8299 78.253 69.2038L79.062 70.6428C79.1937 70.87 79.1185 71.173 78.8739 71.3245L61.809 81.2462C61.7149 81.2841 61.6208 81.303 61.5455 81.303ZM56.4844 72.7067C58.6669 74.6948 58.7233 74.7895 61.1692 79.1445L61.7149 80.1291L77.9331 70.7186L77.3687 69.715C74.9604 65.4358 74.9604 65.4358 72.8344 63.4855L72.6462 63.3151L56.4844 72.7067Z" fill="#0000BD"/>
<path d="M72.7216 62.6881L55.6567 72.6099L56.447 68.52L73.493 58.6172L72.7216 62.6881Z" fill="white"/>
<path d="M55.6566 73.1026C55.5625 73.1026 55.4496 73.0647 55.3744 73.0079C55.2238 72.8943 55.1486 72.705 55.1674 72.5156L55.9576 68.4257C55.9764 68.2932 56.0705 68.1606 56.2022 68.0849L73.2483 58.1821C73.4176 58.0874 73.6246 58.0874 73.7751 58.201C73.9256 58.3146 74.0009 58.504 73.9632 58.6933L73.173 62.7832C73.1542 62.9347 73.0601 63.0483 72.9284 63.124L55.8635 73.0458C55.8259 73.0837 55.7318 73.1026 55.6566 73.1026ZM56.8795 68.8423L56.3527 71.6446L72.2887 62.3856L72.8344 59.5832L56.8795 68.8423Z" fill="#0000BD"/>
<path d="M80.5109 60.8716L63.4648 70.7933V68.1235L80.5109 58.2207V60.8716Z" fill="white"/>
<path d="M63.4648 71.2863C63.3895 71.2863 63.2954 71.2673 63.2202 71.2295C63.0697 71.1348 62.9756 70.9833 62.9756 70.794V68.1431C62.9756 67.9727 63.0697 67.8023 63.2202 67.7076L80.2851 57.7858C80.4356 57.6912 80.6238 57.6912 80.7743 57.7858C80.9248 57.8805 81.0189 58.032 81.0189 58.2213V60.8722C81.0189 61.0426 80.9248 61.213 80.7743 61.3077L63.7094 71.2295C63.6341 71.2673 63.54 71.2863 63.4648 71.2863ZM63.954 68.4082V69.923L80.0217 60.5882V59.0734L63.954 68.4082Z" fill="#0000BD"/>
<path d="M80.5107 58.2201L63.4646 68.1229C59.3819 63.7112 59.6829 63.7112 56.4468 62.2343L73.5117 52.3125C76.7478 53.8083 76.4468 53.7894 80.5107 58.2201Z" fill="white"/>
<path d="M63.4645 68.6146C63.3328 68.6146 63.2011 68.5578 63.107 68.4631L61.6583 66.8915C59.0431 64.0324 58.949 63.9188 56.2397 62.688C56.0703 62.6123 55.9575 62.4419 55.9575 62.2715C55.9386 62.0821 56.0327 61.9117 56.202 61.817L73.267 51.8953C73.3987 51.8195 73.568 51.8006 73.7185 51.8763C76.5971 53.1828 76.8229 53.429 79.4382 56.3071C79.8521 56.7615 80.3225 57.2727 80.8869 57.8786C80.981 57.9922 81.0374 58.1437 81.0186 58.2952C80.9998 58.4467 80.9057 58.5792 80.774 58.655L63.7091 68.5767C63.6338 68.5956 63.5398 68.6146 63.4645 68.6146ZM57.5003 62.1768C59.6075 63.1803 60.0402 63.6537 62.3733 66.2099L63.5398 67.4974L79.7204 58.0869C79.3441 57.6703 79.0054 57.2917 78.6856 56.9698C76.1832 54.2053 76.0139 54.016 73.5304 52.8799L57.5003 62.1768Z" fill="#0000BD"/>
<path d="M25.8168 74.3534L25.3276 76.0386L24.481 77.2694L41.5459 67.3476L42.3925 66.1168L42.8817 64.4316L25.8168 74.3534Z" fill="white"/>
<path d="M24.4807 77.7617C24.349 77.7617 24.2173 77.7049 24.1233 77.6102C23.9727 77.4398 23.9539 77.1747 24.0856 76.9854L24.8758 75.8114L25.3462 74.202C25.3838 74.0694 25.4591 73.9747 25.572 73.9179L42.6369 63.9962C42.8062 63.9015 43.032 63.9204 43.1825 64.034C43.3519 64.1666 43.4083 64.3749 43.3519 64.5642L42.8627 66.2494C42.8439 66.3062 42.8251 66.3441 42.8062 66.3819L41.9596 67.6127C41.9219 67.6695 41.8655 67.7263 41.7902 67.7642L24.7253 77.6859C24.6501 77.7427 24.5748 77.7617 24.4807 77.7617ZM26.2305 74.6943L25.873 75.8871L41.1882 66.9878L41.9219 65.9086L42.0536 65.492L26.2305 74.6943Z" fill="black"/>
<path d="M73.493 52.3308L56.447 62.2336L55.6567 57.2349L72.7216 47.332L73.493 52.3308Z" fill="white"/>
<path d="M56.4468 62.7274C56.3715 62.7274 56.2962 62.7085 56.2398 62.6706C56.0893 62.5948 55.9952 62.4623 55.9576 62.2919L55.1674 57.2931C55.1297 57.0848 55.2238 56.8955 55.412 56.7819L72.4769 46.8601C72.6274 46.7844 72.7967 46.7654 72.9284 46.8412C73.0789 46.9169 73.173 47.0495 73.2106 47.2199L74.0008 52.2186C74.0385 52.4269 73.9444 52.6163 73.7563 52.7299L56.6913 62.6706C56.6161 62.7085 56.522 62.7274 56.4468 62.7274ZM56.1833 57.5014L56.8042 61.4398L72.9472 52.0672L72.3263 48.1287L56.1833 57.5014Z" fill="#0000BD"/>
<path d="M78.5915 45.9688L61.5454 55.8717L60.6611 52.9179L77.726 42.9961L78.5915 45.9688Z" fill="white"/>
<path d="M61.5456 56.3834C61.4892 56.3834 61.4139 56.3645 61.3575 56.3456C61.207 56.2888 61.1129 56.1752 61.0753 56.0237L60.191 53.0509C60.1346 52.8237 60.2098 52.5965 60.4168 52.4829L77.4817 42.5611C77.6134 42.4854 77.7639 42.4665 77.9144 42.5233C78.0649 42.5801 78.159 42.6937 78.1966 42.8452L79.0809 45.8179C79.1374 46.0451 79.0433 46.2723 78.8551 46.3859L61.7902 56.3077C61.715 56.3456 61.6209 56.3834 61.5456 56.3834ZM61.2446 53.1456L61.8467 55.1337L78.0273 45.7232L77.4252 43.7351L61.2446 53.1456Z" fill="#0000BD"/>
<path d="M73.8506 40.6869L72.1949 40.2324L70.6333 40.3082L53.5684 50.2299L55.13 50.1542L56.7857 50.5897L60.6615 52.9186L77.7264 42.9969L73.8506 40.6869Z" fill="white"/>
<path d="M60.6615 53.4111C60.5674 53.4111 60.4921 53.3921 60.4169 53.3353L56.5975 51.0632L55.0923 50.6466L53.606 50.7223C53.399 50.7223 53.1732 50.5898 53.1168 50.3626C53.0603 50.1354 53.1356 49.9081 53.3426 49.7945L70.4075 39.8728C70.4827 39.8349 70.558 39.816 70.6332 39.816L72.2137 39.7402C72.2513 39.7402 72.3077 39.7402 72.3642 39.7592L74.0199 40.2136C74.0575 40.2325 74.1139 40.2515 74.1516 40.2704L78.0274 42.5804C78.1779 42.6751 78.272 42.8266 78.272 43.0159C78.272 43.1863 78.1779 43.3568 78.0274 43.4514L60.9625 53.3732C60.8308 53.3921 60.7367 53.4111 60.6615 53.4111ZM55.431 49.7188L56.9173 50.1164C56.955 50.1354 57.0114 50.1543 57.049 50.1732L60.6803 52.3318L76.7668 42.997L73.6812 41.1414L72.176 40.7248L70.8026 40.8006L55.431 49.7188Z" fill="black"/>
<path d="M33.4175 55.5692L16.3525 65.491L17.4626 64.5063L34.5275 54.6035L33.4175 55.5692Z" fill="white"/>
<path d="M16.3527 65.9827C16.2022 65.9827 16.0517 65.907 15.9576 65.7745C15.8071 65.5662 15.8447 65.2822 16.0329 65.1117L17.1429 64.1461L34.2831 54.1675C34.5089 54.035 34.7911 54.1107 34.9228 54.319C35.0733 54.5273 35.0357 54.8113 34.8476 54.9817L33.7375 55.9474L16.5973 65.907C16.5221 65.9638 16.428 65.9827 16.3527 65.9827Z" fill="black"/>
<path d="M70.6332 40.3071L53.5683 50.2288L51.3481 45.0786L68.3942 35.1758L70.6332 40.3071Z" fill="white"/>
<path d="M53.5682 50.7237C53.5118 50.7237 53.4742 50.7236 53.4177 50.7047C53.286 50.6668 53.1731 50.5532 53.1167 50.4396L50.8965 45.2894C50.8025 45.0622 50.8777 44.7971 51.1035 44.6646L68.1684 34.7428C68.2813 34.667 68.4318 34.6481 68.5635 34.7049C68.6952 34.7428 68.8081 34.8564 68.8646 34.97L71.0847 40.1202C71.1788 40.3474 71.1035 40.6125 70.8777 40.7451L53.8128 50.6668C53.7376 50.7047 53.6435 50.7237 53.5682 50.7237ZM51.969 45.2894L53.794 49.5118L69.9934 40.1013L68.1684 35.8789L51.969 45.2894Z" fill="black"/>
<path d="M55.1861 40.3085L53.775 43.641L52.7402 44.6067L69.8052 34.7038L70.84 33.7382L72.2511 30.3867L55.1861 40.3085Z" fill="white"/>
<path d="M52.7406 45.1173C52.5901 45.1173 52.4395 45.0416 52.3455 44.9091C52.1949 44.7008 52.2138 44.4168 52.4019 44.2464L53.3615 43.3564L54.7349 40.1186C54.7726 40.0239 54.8478 39.9482 54.9419 39.8914L72.0068 29.9696C72.195 29.856 72.4207 29.8939 72.5901 30.0264C72.7406 30.1779 72.797 30.4051 72.7218 30.5945L71.2919 33.927C71.273 33.9838 71.2354 34.0406 71.179 34.0974L70.1442 35.063L53.004 45.0416C52.9099 45.0795 52.8158 45.1173 52.7406 45.1173ZM55.5816 40.6488L54.6032 42.9588L69.5609 34.2678L70.4264 33.4347L71.2166 31.5601L55.5816 40.6488Z" fill="#0000BD"/>
<path d="M72.2513 30.3877L55.1864 40.3094L53.5684 37.4882L70.6333 27.5664L72.2513 30.3877Z" fill="white"/>
<path d="M55.1863 40.8018C55.017 40.8018 54.8477 40.7071 54.7536 40.5556L53.1167 37.7343C53.0603 37.6207 53.0415 37.4882 53.0603 37.3557C53.0979 37.2231 53.1732 37.1284 53.2861 37.0527L70.351 27.1309C70.5767 26.9984 70.8778 27.0741 71.0283 27.3203L72.6652 30.1415C72.7216 30.2552 72.7404 30.3877 72.7216 30.5202C72.684 30.6528 72.6087 30.7475 72.4958 30.8232L55.4309 40.745C55.3557 40.7828 55.2804 40.8018 55.1863 40.8018ZM54.2456 37.6586L55.3745 39.6278L71.5927 30.2173L70.4639 28.2481L54.2456 37.6586Z" fill="#0000BD"/>
<path d="M30.6706 47.9199L13.6057 57.8228L12.2134 58.2961L29.2783 48.3933L30.6706 47.9199Z" fill="white"/>
<path d="M12.2133 58.7891C12.0252 58.7891 11.8559 58.6755 11.7618 58.505C11.6677 58.2778 11.743 57.9938 11.9687 57.8802L29.0336 47.9584L30.52 47.4472C30.7646 47.3715 31.028 47.4851 31.1221 47.7123C31.2161 47.9395 31.1409 48.2235 30.9151 48.3371L13.8502 58.2589L12.3638 58.7701C12.3074 58.7891 12.2698 58.7891 12.2133 58.7891Z" fill="black"/>
<path d="M64.5558 28.4758L47.4908 38.3976L44.1606 33.8911L61.2067 23.9883L64.5558 28.4758Z" fill="white"/>
<path d="M47.4912 38.8882C47.3406 38.8882 47.1901 38.8125 47.0961 38.68L43.7659 34.1735C43.6906 34.0599 43.653 33.9084 43.6718 33.7759C43.6906 33.6433 43.7847 33.5108 43.8976 33.454L60.9625 23.5322C61.1694 23.3997 61.4517 23.4565 61.6022 23.6648L64.9324 28.1712C65.0076 28.2848 65.0453 28.4363 65.0264 28.5689C64.9888 28.7014 64.9136 28.8339 64.7819 28.9097L47.7169 38.8314C47.6605 38.8693 47.5664 38.8882 47.4912 38.8882ZM44.8759 34.041L47.6229 37.7522L63.8223 28.3416L61.0754 24.6304L44.8759 34.041Z" fill="black"/>
<path d="M67.0206 27.1113L65.666 27.509L48.6011 37.4307L49.9557 37.0331L53.5681 37.4875L70.6331 27.5658L67.0206 27.1113Z" fill="white"/>
<path d="M53.5681 37.9799C53.5493 37.9799 53.5305 37.9799 53.5117 37.9799L50.0121 37.5444L48.7515 37.9231C48.507 37.9799 48.2624 37.8663 48.1495 37.6391C48.0554 37.4119 48.1307 37.1468 48.3564 37.0143L65.4213 27.0925L66.8889 26.6381C66.9453 26.6191 67.0206 26.6191 67.0959 26.6191L70.7083 27.0736C70.9152 27.0925 71.0846 27.2629 71.1222 27.4712C71.1598 27.6795 71.0658 27.8878 70.8776 28.0014L53.8127 37.9231C53.7374 37.961 53.6434 37.9799 53.5681 37.9799ZM50.934 36.6545L53.474 36.9764L69.1278 27.8878L67.077 27.6227L65.8165 28.0014L50.934 36.6545Z" fill="#0000BD"/>
<path d="M62.449 16.5078L45.4029 26.4296L45.4782 30.936L45.0078 32.6023L44.1611 33.8898L61.2072 23.987L62.0727 22.6805L62.5431 21.0332L62.449 16.5078Z" fill="white"/>
<path d="M44.1608 34.3811C44.0291 34.3811 43.8974 34.3243 43.8033 34.2297C43.6528 34.0593 43.634 33.8131 43.7469 33.6048L44.5747 32.3741L44.9887 30.8593L44.9134 26.4096C44.9134 26.2203 45.0075 26.0688 45.158 25.9741L62.2229 16.0524C62.3734 15.9577 62.5616 15.9766 62.7121 16.0524C62.8626 16.1281 62.9567 16.2985 62.9567 16.4689L63.0319 20.9943C63.0319 21.0322 63.0319 21.089 63.0131 21.1458L62.5616 22.8121C62.5427 22.8689 62.5239 22.9067 62.5051 22.9635L61.6396 24.2511C61.602 24.3079 61.5456 24.3647 61.4703 24.4026L44.4054 34.3243C44.3113 34.3622 44.2361 34.3811 44.1608 34.3811ZM45.8918 26.7126L45.967 30.935C45.967 30.9729 45.967 31.0297 45.9482 31.0865L45.5531 32.5066L60.8682 23.6073L61.6208 22.4712L62.0347 20.9565L61.9783 17.3589L45.8918 26.7126Z" fill="#0000BD"/>
<path d="M24.65 35.3477L23.1824 35.4613L6.11752 45.3641L3.4082 47.0303L6.28685 45.3641L7.58506 45.2505L9.2972 45.6671L26.3621 35.7642L24.65 35.3477Z" fill="white"/>
<path d="M3.40819 47.5222C3.23886 47.5222 3.06952 47.4464 2.97545 47.276C2.84375 47.0488 2.91901 46.7459 3.14478 46.5944L5.83528 44.9281L22.9002 35.0064C22.9566 34.9685 23.0319 34.9496 23.1071 34.9496L24.5747 34.836C24.6311 34.817 24.6876 34.836 24.7252 34.8549L26.4373 35.2715C26.6255 35.3093 26.776 35.4797 26.8136 35.688C26.8325 35.8963 26.7384 36.0857 26.569 36.1803L9.50414 46.1021C9.39125 46.1589 9.25955 46.1778 9.14666 46.1589L7.50979 45.7613L6.39972 45.8559L3.61515 47.4654C3.57752 47.5033 3.50226 47.5222 3.40819 47.5222ZM7.99897 44.8524L9.22192 45.1554L25.0451 35.9531L24.6123 35.8584L23.3329 35.9531L7.99897 44.8524Z" fill="black"/>
<path d="M56.1834 18.6478L39.1185 28.5696L35.2051 25.3696L52.2512 15.4668L56.1834 18.6478Z" fill="white"/>
<path d="M39.1187 29.0617C39.0058 29.0617 38.8929 29.0238 38.8177 28.9481L34.8854 25.7481C34.7537 25.6535 34.6973 25.483 34.6973 25.3316C34.7161 25.1612 34.7913 25.0286 34.9419 24.9339L52.0068 15.0122C52.1949 14.9175 52.4019 14.9175 52.5712 15.05L56.5035 18.2689C56.6352 18.3636 56.6916 18.534 56.6916 18.6855C56.6728 18.8559 56.5975 18.9885 56.447 19.0831L39.3821 29.0049C39.288 29.0428 39.2128 29.0617 39.1187 29.0617ZM36.0707 25.4262L39.1752 27.9445L55.3182 18.5719L52.2137 16.0536L36.0707 25.4262Z" fill="black"/>
<path d="M62.4488 16.5071L45.4027 26.4289L43.2578 24.1757L60.3227 14.2539L62.4488 16.5071Z" fill="white"/>
<path d="M45.4025 26.9216C45.2708 26.9216 45.1391 26.8648 45.0451 26.7702L42.919 24.5169C42.8249 24.4033 42.7685 24.2518 42.7873 24.1004C42.8061 23.9489 42.9002 23.8163 43.0319 23.7406L60.078 13.8188C60.2661 13.7052 60.5295 13.7431 60.6801 13.9135L62.8061 16.1667C62.9002 16.2804 62.9566 16.4318 62.9378 16.5833C62.919 16.7348 62.8249 16.8673 62.6932 16.9431L45.6283 26.8648C45.5719 26.9027 45.4778 26.9216 45.4025 26.9216ZM44.0479 24.2897L45.4778 25.8045L61.6584 16.394L60.2285 14.8792L44.0479 24.2897Z" fill="#0000BD"/>
<path d="M46.8136 12.2852L29.7487 22.2069L25.8164 20.8247L42.8813 10.9219L46.8136 12.2852Z" fill="white"/>
<path d="M29.7488 22.6994C29.6923 22.6994 29.6359 22.6994 29.5795 22.6805L25.6472 21.2983C25.459 21.2415 25.3273 21.071 25.3085 20.8817C25.2897 20.6924 25.3838 20.503 25.5531 20.4083L42.618 10.4866C42.7497 10.4108 42.9002 10.4108 43.0319 10.4487L46.9642 11.8309C47.1524 11.8877 47.2653 12.0581 47.3029 12.2475C47.3217 12.4368 47.2276 12.6262 47.0583 12.7209L29.9934 22.6426C29.9181 22.6805 29.8429 22.6994 29.7488 22.6994ZM27.0018 20.7113L29.7112 21.658L45.6472 12.399L42.9567 11.4522L27.0018 20.7113Z" fill="black"/>
<path d="M22.129 22.4911L18.5542 22.207L1.48926 32.1288L5.04523 32.4128C7.11485 33.3217 6.32463 32.8672 8.48832 34.401L25.5532 24.4792C23.4084 22.9455 24.1986 23.3999 22.129 22.4911Z" fill="white"/>
<path d="M8.50699 34.8931C8.41292 34.8931 8.31884 34.8553 8.22477 34.7985L7.37811 34.1926C6.49382 33.5677 6.49382 33.5677 5.66597 33.208L4.9322 32.8861L1.45149 32.621C1.22571 32.602 1.05638 32.4506 0.999935 32.2423C0.962306 32.034 1.05638 31.8068 1.22571 31.6932L18.3094 21.7904C18.4035 21.7525 18.4976 21.7146 18.5917 21.7336L22.1476 22.0176C22.2041 22.0176 22.2605 22.0365 22.2981 22.0554L23.0884 22.3963C24.0103 22.7939 24.0479 22.8128 24.9886 23.4755L25.8353 24.0815C25.967 24.1761 26.0611 24.3465 26.0423 24.5169C26.0423 24.6874 25.9482 24.8388 25.7977 24.9335L8.73277 34.8553C8.67632 34.8553 8.60106 34.8931 8.50699 34.8931ZM3.10718 31.75L5.08272 31.9015C5.13916 31.9015 5.19561 31.9204 5.23324 31.9393L6.02345 32.2802C6.94537 32.6778 6.983 32.6967 7.92374 33.3594L8.50699 33.776L24.6312 24.4033L24.4054 24.2519C23.5211 23.627 23.5211 23.627 22.6933 23.2673L21.9595 22.9454L18.6293 22.6803L3.10718 31.75Z" fill="black"/>
<path d="M28.4505 15.807L11.3856 25.7288C8.58223 22.3206 8.9397 22.7939 4.29248 20.162L21.3574 10.2402C26.0046 12.8722 25.6471 12.3988 28.4505 15.807Z" fill="white"/>
<path d="M11.3855 26.2213C11.235 26.2213 11.1033 26.1645 11.0092 26.0509C8.61978 23.1539 8.61978 23.1539 5.59062 21.4687L4.04781 20.6166C3.8973 20.522 3.80322 20.3705 3.80322 20.1811C3.80322 20.0107 3.8973 19.8403 4.04781 19.7456L21.1127 9.82387C21.2632 9.74813 21.4514 9.72919 21.6019 9.82387L23.1259 10.6759C26.2868 12.4369 26.3432 12.4747 28.8267 15.5043C28.9208 15.6179 28.9584 15.7694 28.9396 15.9019C28.9208 16.0534 28.8267 16.167 28.695 16.2427L11.6301 26.1645C11.5549 26.2024 11.4796 26.2213 11.3855 26.2213ZM5.28958 20.1622L6.06098 20.5977C9.10896 22.2829 9.25948 22.3965 11.4984 25.1041L27.6979 15.6936C25.6659 13.2321 25.5154 13.1564 22.6555 11.5659L21.3573 10.8463L5.28958 20.1622Z" fill="black"/>
<path d="M37.858 10.4102L20.8119 20.3319L17.4629 20.9568L34.5278 11.035L37.858 10.4102Z" fill="white"/>
<path d="M17.463 21.4497C17.256 21.4497 17.0679 21.3172 17.0114 21.1278C16.9362 20.9006 17.0114 20.6545 17.2184 20.5219L34.2833 10.6002C34.3209 10.5812 34.3774 10.5623 34.4338 10.5434L37.764 9.91853C38.0086 9.88066 38.2344 10.0132 38.3096 10.2404C38.3849 10.4676 38.3096 10.7138 38.1027 10.8463L21.0378 20.7681C20.9813 20.787 20.9437 20.806 20.8873 20.8249L17.5571 21.4497C17.5194 21.4497 17.5006 21.4497 17.463 21.4497ZM34.6972 11.509L20.2099 19.935L20.6239 19.8592L35.1112 11.4333L34.6972 11.509Z" fill="black"/>
<path d="M34.5278 11.0359L17.4629 20.9577C15.4309 16.83 15.5814 17.3223 11.3857 12.9862L28.4507 3.06445C32.6275 7.40049 32.4958 6.90819 34.5278 11.0359Z" fill="white"/>
<path d="M17.463 21.4496C17.4254 21.4496 17.3689 21.4496 17.3125 21.4307C17.1808 21.3928 17.0679 21.2981 17.0114 21.1845C15.2993 17.7195 15.2052 17.6059 12.5712 14.9172C12.1384 14.4627 11.6304 13.9515 11.0284 13.3266C10.9343 13.213 10.8779 13.0616 10.8967 12.9101C10.9155 12.7586 11.0096 12.6261 11.1413 12.5503L28.2062 2.62856C28.3943 2.51495 28.6389 2.55282 28.8082 2.7043C29.4103 3.3102 29.8995 3.84038 30.351 4.27587C33.0415 7.0214 33.1921 7.19181 34.9795 10.8083C35.0923 11.0355 35.0171 11.3196 34.7913 11.4521L17.7264 21.3739C17.6323 21.4307 17.5571 21.4496 17.463 21.4496ZM12.1761 13.0805C12.59 13.4971 12.9475 13.8757 13.2673 14.2166C15.8261 16.8296 16.0895 17.1136 17.6511 20.2567L33.8694 10.8462C32.3642 7.77879 32.1573 7.5705 29.6361 4.99539C29.2598 4.6167 28.8459 4.1812 28.3567 3.6889L12.1761 13.0805Z" fill="#0000BD"/>
<path d="M42.8814 10.921L25.8165 20.8428C24.9134 16.7718 25.0639 17.3777 21.6772 11.6405L38.7422 1.71875C42.1288 7.45595 41.9971 6.85004 42.8814 10.921Z" fill="white"/>
<path d="M25.8166 21.3162C25.7414 21.3162 25.6849 21.2973 25.6097 21.2784C25.478 21.2216 25.3651 21.089 25.3274 20.9376L25.3086 20.8808C24.556 17.4536 24.556 17.4536 22.3547 13.7424L21.2447 11.8679C21.1882 11.7542 21.1694 11.6217 21.1882 11.4892C21.2258 11.3566 21.3011 11.243 21.414 11.1862L38.4789 1.26444C38.7047 1.1319 39.0057 1.20763 39.1562 1.43485L40.2663 3.30938C42.524 7.11525 42.5617 7.19099 43.3519 10.7318C43.3895 10.9401 43.3143 11.2051 43.1261 11.3187L26.0612 21.2594C25.9859 21.2973 25.9107 21.3162 25.8166 21.3162ZM22.3547 11.811L23.2014 13.2501C25.3274 16.8287 25.478 17.0938 26.1365 20.0666L42.2983 10.675C41.6021 7.55075 41.5269 7.4182 39.4008 3.85849L38.5353 2.40052L22.3547 11.811Z" fill="#0000BD"/>
<path d="M52.2513 15.466L35.1864 25.3878C35.5439 21.8659 35.4122 22.1878 33.606 16.3749L50.6708 6.45312C52.4771 12.2471 52.6088 11.9252 52.2513 15.466Z" fill="white"/>
<path d="M35.205 25.8621C35.1109 25.8621 35.0168 25.8432 34.9416 25.7864C34.791 25.6917 34.697 25.5023 34.7158 25.313C35.0168 22.3592 34.9792 22.2835 33.7939 18.5344L33.1542 16.4895C33.0789 16.2622 33.173 16.035 33.3799 15.9025L50.4448 5.98071C50.5766 5.90497 50.7271 5.90497 50.8776 5.94284C51.0093 5.99965 51.1222 6.11326 51.1598 6.2458L51.7995 8.29074C53.0036 12.0777 53.0601 12.3049 52.7591 15.467C52.7402 15.6185 52.6462 15.7699 52.5145 15.8457L35.4496 25.8053C35.3743 25.8432 35.2802 25.8621 35.205 25.8621ZM34.2078 16.5841L34.7158 18.2504C35.7882 21.6207 35.9575 22.1699 35.7694 24.4609L51.7995 15.1451C52.0629 12.4374 52.0065 12.267 50.8588 8.63157L50.4072 7.1736L34.2078 16.5841Z" fill="#0000BD"/>
<path d="M50.6894 6.4348L33.6245 16.3566L31.3291 15.0122L48.394 5.10938L50.6894 6.4348Z" fill="white"/>
<path d="M33.6244 16.8476C33.5492 16.8476 33.4551 16.8286 33.3798 16.7908L31.0844 15.4653C30.9339 15.3707 30.8398 15.2192 30.8398 15.0298C30.8398 14.8594 30.9339 14.689 31.0844 14.5943L48.1493 4.67257C48.2999 4.57789 48.488 4.57789 48.6385 4.67257L50.9339 6.01693C51.0844 6.1116 51.1785 6.26308 51.1785 6.45243C51.1785 6.62284 51.0844 6.79325 50.9339 6.88792L33.869 16.8097C33.7937 16.8286 33.6997 16.8476 33.6244 16.8476ZM32.3074 15.0109L33.6244 15.7683L49.6921 6.43349L48.3751 5.67611L32.3074 15.0109Z" fill="#0000BD"/>
<path d="M38.7422 1.7194L21.6773 11.6222L19.5513 11.414L36.6162 1.49219L38.7422 1.7194Z" fill="white"/>
<path d="M21.6772 12.1139C21.6584 12.1139 21.6396 12.1139 21.6207 12.1139L19.4947 11.8867C19.2877 11.8678 19.0996 11.6974 19.0619 11.4891C19.0243 11.2808 19.1184 11.0536 19.2877 10.9589L36.3715 1.05609C36.4655 0.999288 36.5596 0.980353 36.6725 0.999288L38.7985 1.2265C39.0055 1.24544 39.1937 1.41585 39.2313 1.62413C39.2689 1.83241 39.1748 2.05963 39.0055 2.1543L21.9406 12.0761C21.8465 12.095 21.7713 12.1139 21.6772 12.1139ZM21.1127 11.0725L21.5643 11.1104L37.1617 2.04069L36.7101 2.00283L21.1127 11.0725Z" fill="#0000BD"/>
<path d="M45.4026 91.9993C45.3085 91.9993 45.2332 91.9803 45.158 91.9425C45.0075 91.8478 44.9134 91.6774 44.9134 91.507L44.951 89.9922C45.0263 86.3378 45.0263 86.3378 43.7093 82.7781C43.6904 82.7402 43.6904 82.7024 43.6904 82.6456L33.9068 88.326C33.7187 88.4396 33.4741 88.4017 33.3236 88.2692C33.1542 88.1177 33.1166 87.8905 33.2107 87.6822L34.7347 84.558L34.8287 83.7627C34.9416 82.8538 34.9416 82.8538 34.8287 81.7935L34.7347 80.771C34.7158 80.5817 34.8099 80.3923 34.9792 80.2977L52.0441 70.3759C52.1947 70.3002 52.364 70.2812 52.5145 70.357C52.665 70.4327 52.7591 70.5842 52.7779 70.7546L52.872 71.7771C52.9849 72.9321 52.9849 72.9699 52.8532 73.9735L52.7591 74.8445C52.7591 74.9013 52.7403 74.9581 52.7027 75.0149L51.3104 77.874L57.03 74.5605C56.6914 74.2196 56.2775 73.8409 55.7506 73.3486L55.3367 72.9699C55.205 72.8563 55.1486 72.6859 55.1862 72.5155L55.9764 68.4256C55.9952 68.2931 56.0893 68.1605 56.221 68.0848L60.4919 65.6044C59.0056 64.0139 58.5352 63.7298 56.2586 62.6884C56.1081 62.6127 55.9952 62.4801 55.9764 62.3097L55.1862 57.311C55.1486 57.1027 55.2426 56.9134 55.4308 56.7997L60.4543 53.8838L60.2662 53.2211L56.6161 51.0436L55.1109 50.627L53.681 50.7028C53.6622 50.7028 53.6246 50.7028 53.6058 50.7028C53.3988 50.7028 53.2295 50.5892 53.1542 50.3998L50.9341 45.2685C50.84 45.0413 50.9153 44.7762 51.141 44.6437L53.4176 43.3183L54.697 40.3266L53.3236 37.9219L50.0686 37.5053L49.9369 37.5432L47.792 38.8118C47.5851 38.9444 47.3029 38.8686 47.1523 38.6793L43.8221 34.1728C43.6904 34.0024 43.6904 33.7752 43.8033 33.6048L44.6312 32.374L45.0451 30.8593L44.9698 26.599L44.4618 26.0499L39.4383 28.9658C39.269 29.0605 39.0432 29.0605 38.8739 28.9279L34.9416 25.728C34.8099 25.6333 34.7346 25.4629 34.7535 25.2925C34.9981 22.8688 35.0169 22.3576 34.3395 20.1044L30.0498 22.6037C29.9181 22.6795 29.7864 22.6795 29.6359 22.6416L25.7036 21.2594C25.5343 21.2026 25.4214 21.07 25.3838 20.8996C25.158 19.8771 24.9886 19.1387 24.8193 18.5328L21.0752 20.7103C21.0188 20.7292 20.9811 20.7481 20.9059 20.7671L20.8118 20.786L19.2125 21.7138L22.1853 21.941C22.2417 21.941 22.2982 21.96 22.3358 21.9789L23.126 22.3197C24.0479 22.7173 24.0855 22.7363 25.0263 23.399L25.8729 24.0049C26.0046 24.0996 26.0987 24.27 26.0799 24.4404C26.0799 24.6108 25.9858 24.7623 25.8353 24.857L8.7704 34.7787C8.60106 34.8734 8.3941 34.8545 8.24359 34.7598L7.39693 34.1539C6.51264 33.529 6.51264 33.529 5.68479 33.1693L4.95102 32.8474L1.45149 32.6202C1.22571 32.6012 1.05638 32.4498 0.999935 32.2415C0.962306 32.0332 1.05638 31.806 1.22571 31.6924L10.9717 26.0309C8.58225 23.1339 8.58225 23.1339 5.5719 21.4677L4.0291 20.5967C3.87858 20.502 3.78451 20.3505 3.78451 20.1612C3.78451 19.9908 3.87858 19.8203 4.0291 19.7257L12.4957 14.8216C12.0818 14.3861 11.5926 13.8938 11.0282 13.3258C10.9341 13.2121 10.8776 13.0607 10.8965 12.9092C10.9153 12.7577 11.0093 12.6252 11.141 12.5494L28.206 2.62767C28.3941 2.51406 28.6387 2.55193 28.808 2.70341C29.4289 3.34719 29.9557 3.87736 30.4073 4.35072L30.5202 4.46433L36.3715 1.05609C36.4656 0.999288 36.5597 0.980353 36.6726 0.999288L38.7986 1.2265C38.9491 1.24544 39.0997 1.34011 39.1749 1.47265L40.285 3.34719C41.6961 5.71402 42.2417 6.64182 42.6556 7.89151L48.1495 4.69155C48.3 4.59687 48.4882 4.59687 48.6387 4.69155L50.9341 6.03591C51.047 6.09271 51.1222 6.20632 51.1599 6.31993L51.7996 8.36487C52.9661 12.0382 53.0601 12.3601 52.7779 15.276L54.8099 16.9233L60.078 13.8559C60.2662 13.7423 60.5296 13.7802 60.6801 13.9506L62.8061 16.2038C62.9002 16.2985 62.9379 16.4121 62.9379 16.5446L63.0131 21.07C63.0131 21.1079 63.0131 21.1647 62.9943 21.2215L62.5427 22.8878C62.5239 22.9446 62.5051 22.9824 62.4863 23.0392L61.809 24.0428L64.4995 27.6972L65.4026 27.167L66.8701 26.7126C66.9266 26.6936 67.0018 26.6936 67.0771 26.6936L70.6707 27.1481C70.6895 27.1481 70.6895 27.1481 70.7083 27.1481C70.7459 27.1481 70.7836 27.167 70.8212 27.1859C70.8965 27.2238 70.9717 27.2806 71.0282 27.3563C71.0282 27.3753 71.047 27.3753 71.047 27.3942L72.665 30.2155C72.7403 30.348 72.7591 30.5184 72.6839 30.651L71.2728 33.9835C71.2539 34.0403 71.2163 34.0971 71.1599 34.1539L70.1251 35.1196L69.1279 35.7065L70.9341 39.8532L72.1759 39.7964C72.2135 39.7964 72.2699 39.7964 72.3264 39.8153L73.9821 40.2698C74.0197 40.2887 74.0761 40.3077 74.1138 40.3266L77.9896 42.6366C78.0084 42.6555 78.0272 42.6556 78.046 42.6745C78.0648 42.6934 78.0837 42.7124 78.1213 42.7502C78.1589 42.7881 78.1777 42.8449 78.1965 42.9017V42.9206L79.0808 45.8934C79.1373 46.1206 79.062 46.3478 78.8551 46.4614L73.5493 49.472L73.9444 51.9903C76.6161 53.2211 76.8795 53.524 79.4383 56.3074C79.8522 56.7619 80.3226 57.2731 80.8871 57.879C80.9623 57.9737 81.0188 58.0873 81.0188 58.2198V60.8707C81.0188 61.0411 80.9247 61.2115 80.7742 61.3062L75.2991 64.4872C76.1081 65.415 76.6914 66.4564 78.2718 69.2777L79.0432 70.641C79.1185 70.7735 79.1185 70.9439 79.062 71.0954L78.1777 73.0457C78.1401 73.1404 78.0648 73.2161 77.9708 73.2729L72.1006 76.6811L72.7403 78.9533C72.7967 79.1805 72.7027 79.4077 72.5145 79.5213L55.4496 89.4242C55.3179 89.4999 55.1674 89.5188 55.0169 89.462C54.8664 89.4052 54.7723 89.2916 54.7347 89.1402L54.1326 87.0005L45.666 91.9235C45.5719 91.9804 45.4778 91.9993 45.4026 91.9993ZM44.7629 82.797C46.0046 86.1106 46.0046 86.3189 45.9294 89.9922L45.9106 90.6171L54.1702 85.8076C54.3019 85.7319 54.4524 85.713 54.6029 85.7698C54.7535 85.8266 54.8475 85.9402 54.8852 86.0917L55.4872 88.2313L71.6679 78.8208L71.0282 76.5486C70.9717 76.3403 71.0658 76.0942 71.2539 75.9806L77.3311 72.4587L78.046 70.8871L77.4063 69.7511C75.5625 66.4754 75.1298 65.6801 74.1514 64.6955C74.0385 64.5819 74.0009 64.4304 74.0197 64.2789C74.0385 64.1275 74.1326 63.9949 74.2643 63.9192L80.0404 60.5677V58.3903C79.5324 57.8412 79.0997 57.3678 78.7234 56.9512C76.1269 54.0921 76.014 53.9785 73.3047 52.7477C73.1542 52.672 73.0413 52.5394 73.0225 52.369L72.5333 49.2637C72.4957 49.0555 72.5898 48.8661 72.7779 48.7525L78.0272 45.704L77.4252 43.7159L61.2445 53.1264L61.4891 53.9595C61.5456 54.1678 61.4703 54.414 61.2633 54.5276L56.2022 57.4814L56.8983 61.8742C59.269 62.9724 59.777 63.3511 61.6396 65.3771C61.7337 65.4908 61.7902 65.6422 61.7713 65.7937C61.7525 65.9452 61.6585 66.0777 61.5268 66.1535L56.8795 68.8422L56.1834 72.4208L56.3903 72.6102C57.1806 73.3297 57.7074 73.822 58.1589 74.3332C58.253 74.4468 58.3094 74.5983 58.2718 74.7498C58.253 74.9013 58.1589 75.0338 58.0272 75.1096L44.7629 82.797ZM35.713 80.9793L35.7695 81.6799C35.8823 82.8349 35.8823 82.8917 35.7506 83.8763L35.6566 84.7473C35.6566 84.8041 35.6378 84.8609 35.6001 84.9177L34.7535 86.6597L50.2944 77.6279L51.7431 74.6362L51.8372 73.8409C51.9501 72.9321 51.9501 72.9321 51.8372 71.8717L51.8184 71.6067L35.713 80.9793ZM55.4308 49.7182L56.9172 50.1158C56.9548 50.1347 57.0112 50.1537 57.0489 50.1726L60.6801 52.3312L76.7666 42.9964L73.681 41.1408L72.1759 40.7242L70.8024 40.8L55.4308 49.7182ZM51.9689 45.2875L53.7939 49.5099L69.9934 40.0994L68.0743 35.6497C67.9802 35.4225 68.0554 35.1574 68.2812 35.0249L69.5606 34.2864L70.4261 33.4533L71.7055 30.4427L70.4449 28.2652L62.3358 32.961C62.0912 33.0935 61.809 33.0178 61.6585 32.7717C61.6208 32.6959 61.602 32.6012 61.602 32.5255C61.602 32.3551 61.6961 32.1847 61.8466 32.09L69.1091 27.8676L67.0583 27.6025L65.7977 27.9812L64.6312 28.6818C64.4242 28.8143 64.142 28.7575 63.9915 28.5492L60.8306 24.27C60.6989 24.0996 60.6989 23.8724 60.8118 23.702L61.6396 22.4712L62.0536 20.9564L61.9783 16.7151L60.2473 14.8784L55.0169 17.9079C54.8475 18.0026 54.6218 17.9837 54.4524 17.8701L51.9501 15.8441C51.8184 15.7305 51.7431 15.579 51.7619 15.4086C52.063 12.4548 52.0253 12.379 50.8588 8.62996L50.2756 6.77436L48.3941 5.67615L42.5992 9.04652C42.4675 9.12226 42.317 9.14119 42.1665 9.08439C42.0159 9.02759 41.9219 8.89504 41.8842 8.74357C41.4891 7.26666 41.0564 6.54714 39.4383 3.83949L38.4411 2.19217L36.7102 2.02176L30.6519 5.54361C30.4637 5.65722 30.2191 5.61935 30.0498 5.46787L29.6735 5.07024C29.2972 4.67261 28.8457 4.21818 28.3377 3.70695L12.157 13.0985C12.6462 13.6098 13.079 14.0453 13.4553 14.424L13.6246 14.5944C13.7375 14.708 13.7751 14.8595 13.7563 15.0109C13.7375 15.1624 13.6434 15.295 13.5117 15.3707L5.27087 20.1612L6.06108 20.5967C9.09025 22.2819 9.25958 22.3955 11.4797 25.0842L20.3791 19.934C20.4355 19.915 20.4731 19.8961 20.5296 19.8771L20.6236 19.8582L24.8193 17.4156C24.951 17.3399 25.1015 17.3399 25.2332 17.3778C25.3649 17.4346 25.4778 17.5482 25.5343 17.6807C25.7789 18.4002 25.9482 19.1955 26.2304 20.4452L29.6923 21.657L34.3207 18.9683C34.4524 18.8925 34.6029 18.8925 34.7535 18.9304C34.904 18.9872 34.9981 19.1008 35.0357 19.2523C35.92 22.0925 35.9388 22.6227 35.6942 25.141L39.1561 27.9433L44.2172 25.0084C44.4054 24.8948 44.6688 24.9327 44.8193 25.1031L45.7412 26.0877C45.8165 26.1824 45.8729 26.296 45.8729 26.4285L45.9482 30.9539C45.9482 30.9918 45.9482 31.0486 45.9294 31.1054L45.4778 32.7717C45.459 32.8285 45.4402 32.8663 45.4214 32.9231L44.7441 33.9267L47.6039 37.8083L49.4665 36.729L49.8052 36.6154C49.8616 36.5965 49.9369 36.5965 50.0122 36.5965L53.6246 37.0509C53.7751 37.0698 53.9068 37.1645 53.9821 37.297L55.6189 40.1183C55.6942 40.2509 55.713 40.4213 55.6378 40.5538L54.2078 43.8863C54.189 43.9431 54.1514 43.9999 54.095 44.0567C54.0761 44.0756 53.9632 44.1703 53.9444 44.1893L51.9689 45.2875ZM3.10718 31.7492L5.08272 31.9007C5.13916 31.9007 5.19561 31.9196 5.23324 31.9385L6.02345 32.2794C6.94537 32.677 6.983 32.6959 7.92374 33.3586L8.50699 33.7752L24.6312 24.4025L24.4054 24.2511C23.5211 23.6262 23.5211 23.6262 22.6933 23.2665L21.9595 22.9446L18.6293 22.6795L3.10718 31.7492ZM24.4807 77.7604C24.349 77.7604 24.2172 77.7036 24.1232 77.6089C23.9727 77.4385 23.9538 77.1734 24.0855 76.9841L24.8758 75.8102L25.3461 74.2007C25.3838 74.0682 25.459 73.9735 25.5719 73.9167L42.6368 63.9949C42.8061 63.9002 43.0319 63.9192 43.1824 64.0328C43.3518 64.1653 43.4082 64.3736 43.3518 64.563L42.8626 66.2481C42.8438 66.3049 42.825 66.3428 42.8061 66.3807L41.9595 67.6114C41.9219 67.6682 41.8654 67.725 41.7902 67.7629L24.7252 77.6847C24.65 77.7415 24.5747 77.7604 24.4807 77.7604ZM26.2304 74.693L25.8729 75.8859L41.1881 66.9866L41.9219 65.9073L42.0536 65.4908L26.2304 74.693ZM16.3527 65.9831C16.2022 65.9831 16.0517 65.9073 15.9576 65.7748C15.8071 65.5665 15.8447 65.2825 16.0329 65.1121L17.1429 64.1464L34.2831 54.1678C34.5089 54.0353 34.7911 54.111 34.9228 54.3193C35.0733 54.5276 35.0357 54.8116 34.8475 54.982L33.7375 55.9477L16.5973 65.9073C16.522 65.9641 16.428 65.9831 16.3527 65.9831ZM12.2135 58.7879C12.0253 58.7879 11.856 58.6743 11.7619 58.5039C11.6679 58.2766 11.7431 57.9926 11.9689 57.879L29.0338 47.9573L30.5202 47.446C30.7648 47.3703 31.0282 47.4839 31.1222 47.7111C31.2163 47.9383 31.141 48.2223 30.9153 48.3359L13.8504 58.2577L12.364 58.769C12.3076 58.7879 12.2699 58.7879 12.2135 58.7879ZM3.40821 47.5218C3.23888 47.5218 3.06955 47.446 2.97548 47.2756C2.84377 47.0484 2.91903 46.7454 3.14481 46.594L5.83531 44.9277L22.9002 35.0059C22.9567 34.9681 23.0319 34.9491 23.1072 34.9491L24.5747 34.8355C24.6312 34.8166 24.6876 34.8355 24.7252 34.8545L26.4374 35.271C26.6255 35.3089 26.776 35.4793 26.8137 35.6876C26.8325 35.8959 26.7384 36.0852 26.5691 36.1799L9.50417 46.1017C9.39128 46.1585 9.25958 46.1774 9.14669 46.1585L7.50981 45.7608L6.39975 45.8555L3.61518 47.465C3.57755 47.5028 3.50229 47.5218 3.40821 47.5218ZM7.999 44.852L9.22195 45.1549L25.0451 35.9527L24.6124 35.858L23.333 35.9527L7.999 44.852Z" fill="#0000BD"/>
<path d="M56.4466 68.521C58.6103 70.0547 57.8201 69.6003 59.8897 70.5092L63.4457 70.7932V68.1423C59.3629 63.7305 59.664 63.7305 56.4278 62.2536L55.6376 57.2549L57.3497 57.6714L58.8173 57.5578L61.5266 55.8916L60.6423 52.9188L56.7665 50.5899L55.1108 50.1355L53.5492 50.2112L51.3291 45.061L52.7213 44.5876L53.7561 43.6219L55.1672 40.2894L53.5304 37.4682L49.9179 37.0137L48.5633 37.4114L47.4532 38.377L44.123 33.8706L44.9885 32.583L45.4401 30.9168L45.3648 26.3914L43.2387 24.1382L40.4354 25.634L39.5887 26.8458L39.0995 28.531L35.1673 25.331C35.5247 21.8092 35.393 22.1311 33.5868 16.3181L31.3291 15.0116L29.7674 18.2305C29.504 20.4648 29.504 19.5749 29.7486 22.2068L25.8164 20.8246C24.9133 16.7536 25.0638 17.3595 21.6771 11.6223L19.5511 11.4141C19.457 16.8294 19.2877 16.2992 20.7928 20.3323L17.4627 20.9571C15.4307 16.8294 15.5812 17.3217 11.3855 12.9856L9.74864 13.9134C11.5925 20.3512 11.2538 19.6506 13.6056 23.1725L11.3855 25.7287C8.58213 22.3204 8.93961 22.7938 4.29238 20.1619L3.40809 22.1121C6.58777 27.7736 6.21148 27.4896 9.29708 30.3109L8.50687 34.4007C6.34318 32.867 7.1334 33.3215 5.06378 32.4126L1.50781 32.1286V34.7794C5.57178 39.1912 5.27075 39.1912 8.52568 40.6681L9.3159 45.6669L7.60376 45.2503L6.11741 45.3639L3.42691 47.0302L4.3112 50.0029L8.18702 52.3508L9.84271 52.7674L11.4043 52.6916L13.6056 57.8229L12.1945 58.2963L11.1597 59.262L9.72982 62.5945L11.3667 65.4157L14.9791 65.8702L16.3338 65.4725L17.4438 64.5069L20.774 69.0133L19.9086 70.3198L19.4382 71.9671L19.5135 76.4736L21.6395 78.7268L24.4429 77.2499L25.2896 76.0191L25.7787 74.334L29.711 77.5339C29.3535 81.0179 29.41 80.5067 31.2914 86.5468L33.5868 87.8722L35.1484 84.6723C35.4118 82.4001 35.393 83.309 35.1673 80.6771L39.0995 82.0593C40.0026 86.187 39.8709 85.5622 43.2387 91.2615L45.4024 91.5077C45.4965 86.187 45.6847 86.6794 44.1607 82.5895L47.4909 81.9646C49.5228 86.0924 49.3723 85.6001 53.568 89.955L55.2049 89.0273C53.568 83.2711 53.8314 83.4794 51.3479 79.7682L53.568 77.212C56.3902 80.6392 55.9575 80.1469 60.6611 82.7788L61.5454 80.8285C58.0835 74.6937 58.5539 75.2807 55.6564 72.6298L56.4466 68.521Z" fill="white"/>
<path d="M45.4024 92.0001C45.3836 92.0001 45.3647 92.0001 45.3459 92.0001L43.2199 91.7729C43.0693 91.754 42.9376 91.6782 42.8436 91.5267L41.6959 89.6143C39.5134 85.9789 39.4381 85.8274 38.7043 82.457L35.7504 81.4156L35.7693 81.6618C35.8821 82.8168 35.8821 82.8736 35.7504 83.8582L35.6564 84.7292C35.6564 84.786 35.6376 84.8428 35.5999 84.8996L34.0571 88.0996C34.0007 88.2321 33.8878 88.3079 33.7561 88.3457C33.6244 88.3836 33.4927 88.3647 33.361 88.3079L31.0656 86.9635C30.9527 86.9067 30.8774 86.7931 30.8398 86.6795L30.2189 84.7103C28.9772 80.7529 28.9395 80.6014 29.2217 77.7234L26.0609 75.1672L25.7787 76.1329C25.7598 76.1897 25.741 76.2275 25.7222 76.2843L24.8756 77.5151C24.8379 77.5719 24.7627 77.6287 24.6874 77.6666L21.884 79.1435C21.6959 79.2382 21.4513 79.2003 21.3008 79.0488L19.1747 76.7956C19.0995 76.7009 19.043 76.5873 19.043 76.4548L18.9678 71.9483C18.9678 71.8915 18.9678 71.8536 18.9866 71.7968L19.4381 70.1495C19.4569 70.0927 19.4757 70.0548 19.4946 70.017L20.1719 68.9945L17.3685 65.1886L16.6535 65.8135C16.5971 65.8513 16.5407 65.8892 16.4654 65.9081L15.1107 66.3058C15.0543 66.3247 14.979 66.3247 14.9038 66.3247L11.2914 65.8703C11.1408 65.8513 11.0091 65.7567 10.9339 65.6241L9.29701 62.8029C9.22175 62.6703 9.20294 62.4999 9.2782 62.3674L10.7081 59.0349C10.7269 58.9781 10.7646 58.9213 10.821 58.8645L11.8558 57.8988C11.9123 57.842 11.9687 57.8041 12.044 57.7852L12.9282 57.4822L11.0468 53.1462L9.84264 53.2598C9.80501 53.2598 9.74856 53.2598 9.69212 53.2409L8.03643 52.8054C7.9988 52.7864 7.94235 52.7675 7.90473 52.7486L4.04772 50.4196C3.93483 50.3628 3.85957 50.2492 3.82194 50.1356L2.93765 47.1628C2.88121 46.9545 2.95647 46.7084 3.16343 46.5948L5.85393 44.9285C5.92918 44.8907 6.00444 44.8717 6.0797 44.8528L7.54725 44.7392C7.60369 44.7392 7.66013 44.7392 7.69776 44.7581L8.69494 45.0043L8.07406 41.0091C5.42119 39.7783 5.13897 39.4943 2.59899 36.692C2.18506 36.2375 1.7147 35.7074 1.15026 35.1014C1.05618 35.0068 1.01855 34.8932 1.01855 34.7606V32.1098C1.01855 31.9772 1.075 31.8447 1.16907 31.75C1.26315 31.6553 1.41366 31.6175 1.54537 31.6175L5.10134 31.9015C5.15778 31.9015 5.21423 31.9204 5.25186 31.9394L6.04207 32.2802C6.96399 32.6778 7.00162 32.6967 7.94235 33.3595L8.16813 33.5109L8.75139 30.4625C6.2114 28.1146 6.0797 27.8873 4.04772 24.2519L2.97528 22.3395C2.90002 22.2069 2.90002 22.0365 2.95647 21.885L3.84076 19.9348C3.8972 19.8022 4.01009 19.7076 4.14179 19.6697C4.27349 19.6318 4.4052 19.6318 4.5369 19.7076L6.06089 20.5596C9.05242 22.2259 9.25938 22.3584 11.3854 24.9335L12.9847 23.0969L12.8342 22.8696C11.028 20.1809 11.0091 20.1052 9.71093 15.5419L9.2782 14.0461C9.22175 13.8189 9.31583 13.5917 9.50397 13.4781L11.1408 12.5503C11.329 12.4366 11.5736 12.4745 11.7429 12.626C12.345 13.2508 12.853 13.7621 13.2857 14.2165C15.8821 16.8674 16.1267 17.1135 17.7448 20.4081L20.1343 19.9537C18.9678 16.8295 18.9489 16.6212 19.0242 12.91L19.0618 11.4142C19.0618 11.2627 19.1183 11.1491 19.2312 11.0544C19.3252 10.9597 19.4757 10.9219 19.6075 10.9219L21.7335 11.1302C21.884 11.1491 22.0157 11.2438 22.1098 11.3763L23.2199 13.2508C25.44 16.981 25.5153 17.1135 26.249 20.446L29.2029 21.4685L29.1841 21.2034C29.0712 20.0484 29.0712 19.9916 29.2029 19.007L29.297 18.1549C29.297 18.0981 29.3158 18.0413 29.3534 18.0034L30.8963 14.7845C30.9527 14.652 31.0656 14.5763 31.1973 14.5195C31.329 14.4816 31.4607 14.5005 31.5924 14.5573L33.8878 15.8828C34.0007 15.9396 34.0759 16.0532 34.1136 16.1668L34.7533 18.1928C35.9198 21.885 36.0138 22.188 35.7316 25.1039L38.8925 27.6601L39.1747 26.6945C39.1935 26.6376 39.2123 26.5998 39.25 26.543L40.0966 25.3312C40.1343 25.2744 40.1907 25.2175 40.266 25.1797L43.0693 23.6838C43.2575 23.5892 43.5021 23.627 43.6526 23.7785L45.7787 26.0317C45.8539 26.1264 45.9104 26.24 45.9104 26.3726L45.9856 30.8979C45.9856 30.9358 45.9856 30.9926 45.9668 31.0494L45.5153 32.6967C45.4964 32.7535 45.4776 32.7914 45.4588 32.8482L44.7815 33.8518L47.5849 37.6387L48.2998 37.0138C48.3563 36.957 48.4127 36.9381 48.488 36.9192L49.8426 36.5215C49.8991 36.5026 49.9743 36.5026 50.0496 36.5026L53.662 36.957C53.8125 36.976 53.9442 37.0706 54.0195 37.2032L55.6564 40.0245C55.7316 40.157 55.7504 40.3274 55.6752 40.46L54.2453 43.7925C54.2264 43.8493 54.1888 43.9061 54.1324 43.9629L53.0976 44.9285C53.0411 44.9664 52.9847 45.0043 52.9094 45.0232L52.0251 45.3262L53.9066 49.6622L55.1484 49.6054C55.186 49.6054 55.2424 49.6054 55.2989 49.6243L56.9546 50.0788C56.9922 50.0977 57.0486 50.1166 57.0863 50.1356L60.9621 52.4456C61.075 52.5024 61.1502 52.616 61.1879 52.7296L62.0722 55.7024C62.1286 55.9106 62.0533 56.1568 61.8464 56.2704L59.1371 57.9367C59.0806 57.9745 59.0054 57.9935 58.9301 58.0124L57.4438 58.126C57.3873 58.126 57.3497 58.126 57.2932 58.1071L56.2961 57.8609L56.9169 61.8561C59.5698 63.0679 59.852 63.3709 62.4108 66.1732L63.8596 67.7448C63.9348 67.8395 63.9913 67.9531 63.9913 68.0856V70.7365C63.9913 70.869 63.9348 71.0016 63.8219 71.0962C63.7279 71.1909 63.5962 71.2667 63.4456 71.2288L59.8897 70.9448C59.8332 70.9448 59.7768 70.9258 59.7391 70.9069L58.9489 70.5661C58.027 70.1684 58.0082 70.1495 57.0486 69.4868L56.8229 69.3164L56.2396 72.3649L56.4842 72.5921C58.7043 74.637 58.742 74.6938 61.2255 79.0867L62.0157 80.5068C62.091 80.6393 62.091 80.8097 62.0345 80.9612L61.1502 82.9115C61.0938 83.044 60.9809 83.1387 60.8492 83.1766C60.7175 83.2334 60.5858 83.2144 60.4541 83.1387L58.9866 82.3245C55.9198 80.6393 55.7504 80.5257 53.5868 77.9127L51.9875 79.7494C54.0007 82.7789 54.1136 83.1955 55.1672 86.9635L55.694 88.8191C55.7504 89.0463 55.6564 89.2735 55.4682 89.3871L53.8313 90.3149C53.6244 90.4285 53.3798 90.3907 53.2293 90.2392C52.6272 89.6143 52.138 89.1031 51.6865 88.6676C49.09 85.9978 48.8455 85.7706 47.2274 82.476L44.8379 82.9304C46.0044 86.0925 46.0233 86.3576 45.948 89.9552L45.9104 91.4699C45.9104 91.6025 45.8539 91.735 45.741 91.8297C45.6281 91.9622 45.5153 92.0001 45.4024 92.0001ZM43.5585 90.8072L44.9132 90.9398L44.932 89.9741C45.0073 86.3197 45.0073 86.3197 43.6902 82.76C43.6338 82.6274 43.6526 82.476 43.7279 82.3434C43.8031 82.2109 43.916 82.1352 44.0665 82.0973L47.3967 81.4724C47.6225 81.4346 47.8295 81.5482 47.9235 81.7375C49.6357 85.2026 49.7297 85.3162 52.3638 88.0049C52.7401 88.3836 53.154 88.8191 53.6432 89.3114L54.6027 88.7623L54.1888 87.2664C53.0976 83.3659 53.0599 83.1955 50.9151 80.0145C50.7834 79.8251 50.8022 79.579 50.9527 79.4086L53.1728 76.8524C53.2669 76.7388 53.3986 76.682 53.5491 76.682C53.6996 76.682 53.8313 76.7577 53.9254 76.8713L54.0195 76.9849C56.3337 79.8062 56.3337 79.8062 59.4005 81.4914L60.4165 82.0594L60.9809 80.8287L60.3036 79.6168C57.8953 75.3187 57.8953 75.3187 55.7693 73.3684L55.3177 72.9518C55.186 72.8382 55.1296 72.6678 55.1672 72.4974L55.9574 68.4075C55.995 68.2371 56.1079 68.1046 56.2584 68.0478C56.409 67.972 56.5971 68.0099 56.7288 68.1046L57.5755 68.7105C58.4409 69.3353 58.4409 69.3353 59.2876 69.6951L60.0026 69.998L62.9565 70.2253V68.2939L61.6394 66.8549C59.0242 63.9957 58.9301 63.8821 56.2208 62.6514C56.0703 62.5946 55.9574 62.4431 55.9386 62.2727L55.1484 57.2739C55.1296 57.1035 55.186 56.952 55.2989 56.8384C55.4306 56.7248 55.5811 56.687 55.7504 56.7248L57.3873 57.1225L58.6667 57.0278L60.9433 55.6266L60.2283 53.203L56.5783 51.0255L55.0731 50.6089L53.5868 50.6847C53.3798 50.6657 53.1916 50.5711 53.1164 50.3817L50.8963 45.2315C50.8398 45.0989 50.8398 44.9664 50.8963 44.8339C50.9527 44.7013 51.0656 44.6066 51.1785 44.5688L52.4767 44.1333L53.361 43.3002L54.6404 40.2895L53.2669 37.8848L50.012 37.4683L48.8455 37.8091L47.8106 38.699C47.6978 38.7937 47.5661 38.8316 47.4344 38.8126C47.3026 38.7937 47.1709 38.7369 47.0957 38.6233L43.7655 34.1168C43.6338 33.9464 43.6338 33.7192 43.7467 33.5488L44.5745 32.318L44.9884 30.8033L44.9132 26.543L43.1822 24.7063L40.8116 25.9749L40.0778 27.0163L39.6074 28.6258C39.5698 28.7773 39.4381 28.9098 39.2876 28.9666C39.1371 29.0234 38.9678 28.9855 38.836 28.8909L34.9038 25.6909C34.7721 25.5962 34.6968 25.4258 34.7156 25.2554C35.0167 22.3016 34.979 22.2259 33.7937 18.4768L33.2105 16.6212L31.536 15.6555L30.2566 18.3253L30.1625 19.1206C30.0496 20.0105 30.0496 20.0105 30.1625 21.0898L30.2566 22.1312C30.2754 22.3016 30.2001 22.472 30.0684 22.5667C29.9367 22.6614 29.7674 22.6992 29.598 22.6424L25.6658 21.2602C25.4964 21.2034 25.3836 21.0709 25.3459 20.9004C24.5745 17.4165 24.5745 17.4165 22.3732 13.7242L21.3948 12.058L20.0402 11.9254L20.0214 12.8911C19.9461 16.5833 19.9461 16.5833 21.2067 19.9537L21.2631 20.1052C21.3196 20.2377 21.3008 20.3892 21.2255 20.5217C21.1503 20.6543 21.0374 20.749 20.8868 20.7679L17.5567 21.4495C17.3497 21.4874 17.1239 21.3738 17.0298 21.1845C15.3177 17.7194 15.2236 17.6058 12.5896 14.9171C12.2133 14.5384 11.7994 14.1029 11.3102 13.6106L10.3506 14.1597L10.6893 15.3147C11.9311 19.7454 11.9311 19.7454 13.6432 22.3395L14.0195 22.8886C14.1512 23.0779 14.1324 23.3241 13.9819 23.4945L11.7617 26.0507C11.6677 26.1643 11.536 26.2211 11.3854 26.2211C11.2726 26.2021 11.1032 26.1643 11.0091 26.0507C8.61968 23.1537 8.61968 23.1537 5.59052 21.4685L4.51808 20.8626L3.95364 22.0933L4.91319 23.7974C6.96399 27.4708 7.00162 27.5465 9.61686 29.9512C9.74856 30.0648 9.80501 30.2352 9.76738 30.4056L8.97716 34.4955C8.93953 34.6659 8.82664 34.7985 8.67613 34.8553C8.52561 34.9121 8.33746 34.8932 8.20576 34.7985L7.3591 34.1926C6.47481 33.5677 6.47481 33.5677 5.64696 33.208L4.91319 32.8861L1.95929 32.6589V34.5902C2.46728 35.1393 2.90002 35.6127 3.29513 36.0482C5.89155 38.8884 5.98563 39.002 8.69494 40.2327C8.84546 40.3085 8.95835 40.441 8.97716 40.6114L9.76738 45.6102C9.78619 45.7806 9.72975 45.9321 9.61686 46.0457C9.48516 46.1593 9.33464 46.2161 9.16531 46.1593L7.52843 45.7617L6.24903 45.8563L3.97246 47.2575L4.68742 49.6811L8.33746 51.8776L9.84264 52.2752L11.3478 52.1994C11.536 52.1805 11.7429 52.3131 11.8182 52.5024L14.0383 57.6526C14.0948 57.7852 14.0948 57.9177 14.0383 58.0503C13.9819 58.1828 13.869 58.2775 13.7373 58.3153L12.4391 58.7508L11.5548 59.584L10.2754 62.5946L11.6677 64.9993L14.9226 65.4158L16.0891 65.075L17.1239 64.1851C17.218 64.0904 17.3497 64.0336 17.5002 64.0715C17.6319 64.0904 17.7636 64.1662 17.8389 64.2608L21.1691 68.7673C21.3008 68.9377 21.3008 69.1649 21.1879 69.3353L20.36 70.585L19.9461 72.0808L20.0214 76.3222L21.7711 78.1589L24.1418 76.9092L24.8756 75.8299L25.3459 74.2205C25.4024 74.069 25.5153 73.9364 25.6846 73.8796C25.8351 73.8228 26.0044 73.8607 26.1361 73.9743L30.0684 77.1743C30.2001 77.2689 30.2566 77.4394 30.2566 77.6098C29.9555 80.5636 29.9555 80.5636 31.1973 84.4641L31.7617 86.244L33.4362 87.2096L34.7156 84.5777L34.8097 83.7825C34.9226 82.8736 34.9226 82.8736 34.8097 81.7943L34.7156 80.7719C34.6968 80.6014 34.7721 80.431 34.9038 80.3364C35.0355 80.2417 35.2048 80.2038 35.3741 80.2606L39.3064 81.6429C39.4757 81.6997 39.5886 81.8322 39.6263 82.0026C40.3977 85.5245 40.3977 85.5245 42.5613 89.141L43.5585 90.8072Z" fill="#0000BD"/>
<path d="M49.9748 61.6288C49.9748 72.8571 42.1479 77.4203 32.4771 71.7968C22.8064 66.1732 14.9795 52.5213 14.9795 41.293C14.9795 30.0647 22.8064 25.5015 32.4771 31.1251C42.1479 36.7298 49.9748 50.4006 49.9748 61.6288Z" fill="white"/>
<path d="M40.2852 74.6942C37.764 74.6942 35.0547 73.8611 32.2325 72.2327C22.4488 66.5523 14.4902 52.6732 14.4902 41.2934C14.4902 33.3598 18.4789 28.2285 24.669 28.2285C27.1901 28.2285 29.8995 29.0616 32.7217 30.69C42.5053 36.3704 50.4639 50.2495 50.4639 61.6293C50.4639 69.5629 46.4752 74.6942 40.2852 74.6942ZM24.6502 29.2131C18.9869 29.2131 15.4686 33.8332 15.4686 41.2934C15.4686 52.3513 23.2014 65.8517 32.7217 71.3617C35.3933 72.9143 37.9333 73.7096 40.2852 73.7096C45.9484 73.7096 49.4667 69.0895 49.4667 61.6293C49.4667 50.5714 41.7339 37.0899 32.2137 31.561C29.5608 29.9894 27.002 29.2131 24.6502 29.2131Z" fill="#DF0112"/>
</svg>
