<svg width="80" height="91" viewBox="0 0 80 91" fill="none" xmlns="http://www.w3.org/2000/svg">
<path d="M52.817 76.9413L40.183 84.2329C40.3274 84.1607 40.3996 83.872 40.3996 83.3666L53.0336 76.075C53.0336 76.5081 52.9614 76.7969 52.817 76.9413Z" fill="white"/>
<path d="M40.2552 84.6656C40.1108 84.6656 39.8942 84.5934 39.822 84.449C39.6776 84.2325 39.7498 84.0159 39.8942 83.8715C39.8942 83.7993 39.9664 83.6549 39.9664 83.3661C39.9664 83.2217 40.0386 83.0051 40.183 82.933L52.817 75.6413C52.9614 75.5691 53.178 75.5691 53.3224 75.6413C53.4668 75.7135 53.539 75.8579 53.539 76.0745C53.539 76.5076 53.4668 77.1574 53.1058 77.374L40.4717 84.5934C40.3995 84.6656 40.3274 84.6656 40.2552 84.6656Z" fill="#0000BD"/>
<path d="M53.0337 76.0745L40.4718 83.294V83.1496L53.0337 75.8579V76.0745Z" fill="white"/>
<path d="M53.0337 75.8581L40.4718 83.1497C40.4718 82.5 40.6884 82.0668 41.0494 81.8502L53.6834 74.5586C53.3224 74.7752 53.0337 75.2083 53.0337 75.8581Z" fill="white"/>
<path d="M40.4718 83.6551C40.3996 83.6551 40.3274 83.6551 40.2552 83.5829C40.1108 83.5107 40.0386 83.3663 40.0386 83.1497C40.0386 82.3556 40.3274 81.7058 40.905 81.4171L53.539 74.1254C53.7556 73.981 54.0444 74.0532 54.1888 74.2698C54.3332 74.4864 54.261 74.7752 54.0444 74.9196C53.8278 75.0639 53.6834 75.3527 53.6834 75.7859C53.6834 75.9303 53.6112 76.1469 53.4668 76.2191L40.8328 83.5107C40.6162 83.5829 40.544 83.6551 40.4718 83.6551Z" fill="#0000BD"/>
<path d="M40.7606 49.7239L34.2631 45.9698C33.1801 45.32 32.6748 44.1649 33.2523 43.3708L35.7069 39.8333L23.0729 47.1249L20.6183 50.6624C20.0407 51.4566 20.5461 52.6117 21.629 53.2614L28.1265 57.0156C29.2094 57.6653 30.148 59.2536 30.148 60.4809V73.6203C30.148 74.2701 29.9314 74.7032 29.5704 74.9198L42.2045 67.6282C42.5654 67.4116 42.782 66.9784 42.782 66.3287V53.2614C42.782 51.9619 41.8435 50.3737 40.7606 49.7239Z" fill="white"/>
<path d="M29.5704 75.4249C29.426 75.4249 29.2094 75.3527 29.1372 75.2083C28.9928 74.9917 29.065 74.703 29.2816 74.5586C29.4982 74.4142 29.6426 74.1254 29.6426 73.6922V60.5528C29.6426 59.4699 28.8484 58.026 27.8377 57.4485L21.3402 53.6943C20.6183 53.2612 20.0407 52.6114 19.8963 51.8895C19.7519 51.3841 19.8963 50.8066 20.1851 50.4456L22.6397 46.9081C22.7119 46.8359 22.7119 46.8359 22.7841 46.7637L35.4181 39.472C35.6347 39.3276 35.8513 39.3998 35.9957 39.5442C36.1401 39.6886 36.1401 39.9774 36.0679 40.1218L33.6133 43.6593C33.4689 43.8759 33.4689 44.1647 33.4689 44.3812C33.5411 44.8144 33.902 45.2476 34.4796 45.6086L40.9771 49.3627C42.2766 50.0846 43.2151 51.8173 43.2151 53.2612V66.4006C43.2151 67.1947 42.9264 67.8445 42.3488 68.1333L29.7148 75.4249C29.7148 75.4249 29.6426 75.4249 29.5704 75.4249ZM23.4338 47.4856L20.9792 50.9509C20.8348 51.2397 20.8348 51.4563 20.8348 51.6729C20.907 52.1061 21.268 52.5392 21.8456 52.9002L28.3431 56.6543C29.6426 57.3763 30.5811 59.1089 30.5811 60.5528V73.62C30.5811 73.6922 30.5811 73.6922 30.5811 73.7644L41.8435 67.2669C42.06 67.1225 42.2044 66.8337 42.2044 66.4006V53.2612C42.2044 52.1783 41.4103 50.7344 40.3996 50.1568L33.902 46.4027C33.1801 45.9695 32.6025 45.3198 32.4582 44.5978C32.3138 44.0925 32.4582 43.5149 32.7469 43.1539L33.9742 41.4213L23.4338 47.4856Z" fill="#0000BD"/>
<path d="M60.0365 59.7591L55.1273 56.9435C54.0444 56.2938 53.1058 54.7055 53.1058 53.406V53.045C53.1058 51.9621 52.6727 51.3845 52.1673 51.6733L39.5333 59.0372C40.0386 58.7484 40.4718 59.2538 40.4718 60.4089V60.7698C40.4718 62.0693 41.4103 63.6576 42.4932 64.2352L47.4025 67.0508C47.8356 67.3395 48.1966 67.3395 48.4132 67.2673L61.0472 59.9757C60.8307 60.0479 60.4697 60.0479 60.0365 59.7591Z" fill="white"/>
<path d="M48.1244 67.7728C47.8356 67.7728 47.4747 67.7006 47.1137 67.484L42.2045 64.6684C40.9049 63.9464 39.9664 62.2138 39.9664 60.7699V60.4089C39.9664 59.8314 39.822 59.5426 39.7498 59.4704C39.5333 59.6148 39.2445 59.5426 39.1001 59.326C38.9557 59.1094 39.0279 58.8206 39.2445 58.6762L51.8785 51.3846C52.6005 50.9514 53.539 51.3124 53.539 53.1173V53.406C53.539 54.489 54.3331 55.9328 55.3439 56.5104L60.2531 59.326C60.5419 59.4704 60.6863 59.5426 60.7584 59.5426C60.975 59.3982 61.2638 59.4704 61.4082 59.687C61.5526 59.9035 61.4804 60.1923 61.2638 60.3367L48.6298 67.6284C48.4854 67.7006 48.341 67.7728 48.1244 67.7728ZM40.6162 58.965C40.8328 59.2538 40.9049 59.7592 40.9049 60.4089V60.7699C40.9049 61.8528 41.6991 63.2967 42.7098 63.8742L47.619 66.6898C48.0522 66.9064 48.1244 66.9064 48.1244 66.9064L59.6755 60.2645L54.8385 57.4489C53.539 56.727 52.6005 54.9943 52.6005 53.5504V53.1895C52.6005 52.5397 52.4561 52.2509 52.3839 52.2509L40.6162 58.965Z" fill="#0000BD"/>
<path d="M39.6055 40.4826L35.2738 26.6213C34.8406 25.1774 33.5411 23.5891 32.4582 23.0837L21.7734 18.2467C21.3402 18.1023 21.1237 18.0301 20.9793 18.1023L8.34521 25.3939C8.4896 25.3218 8.77838 25.3218 9.13936 25.5383L19.8241 30.3754C20.9071 30.8807 22.2066 32.469 22.6397 33.9129L26.9714 47.7743C27.188 48.4962 27.188 48.8572 27.0436 49.0016L39.6777 41.7099C39.822 41.5655 39.822 41.2046 39.6055 40.4826Z" fill="white"/>
<path d="M27.1158 49.4353C26.9714 49.4353 26.7548 49.3631 26.6826 49.2187C26.6104 49.0743 26.6104 48.8577 26.7548 48.7133C26.7548 48.6411 26.7548 48.4246 26.6104 47.9914L22.2787 34.13C21.8456 32.8305 20.6905 31.3866 19.6797 30.8813L8.92276 25.972C8.70617 25.8277 8.56178 25.8277 8.48959 25.8277C8.27301 25.8998 7.98423 25.8277 7.91203 25.6111C7.76764 25.3945 7.83984 25.1057 8.05642 24.9613L20.6905 17.6697C20.9792 17.5253 21.3402 17.5253 21.9178 17.8141L32.6026 22.6511C33.8299 23.2287 35.2016 24.8891 35.7069 26.4774L40.0386 40.3388C40.2552 40.9885 40.3996 41.7827 39.8942 42.0714L27.3324 49.3631C27.2602 49.4353 27.188 49.4353 27.1158 49.4353ZM9.57251 25.1779L20.0407 29.8706C21.268 30.4481 22.6397 32.1086 23.1451 33.6969L27.4768 47.6304C27.549 47.7748 27.549 47.9192 27.6211 48.1358L39.3167 41.3495C39.3167 41.2773 39.3167 41.0607 39.1723 40.6275L34.8406 26.7662C34.4074 25.4667 33.2523 24.0228 32.3138 23.5174L21.629 18.6804C21.3402 18.536 21.1958 18.536 21.1958 18.536L9.57251 25.1779Z" fill="#0000BD"/>
<path d="M33.2523 32.108C33.3245 31.9636 33.4689 31.8914 33.5411 31.8192C34.1187 31.5304 34.8406 32.0358 35.2738 33.2631L37.7284 39.6162C38.1616 40.8435 38.0172 41.8543 37.3674 42.2152C37.223 42.2874 37.0786 42.3596 36.9343 42.3596H36.7177C36.5011 42.3596 36.3567 42.4318 36.2845 42.504C35.8513 42.7206 36.1401 43.2981 37.0065 43.9479L47.6912 51.4561C48.4854 52.0337 49.4239 52.1059 50.0015 51.7449C50.218 51.6005 50.4346 51.4561 50.5068 51.1674L54.8385 42.2874C55.2717 41.3489 54.8385 40.6991 53.9 40.7713H53.7556C52.8171 40.8435 51.5176 39.7606 51.0122 38.3167L44.0815 20.4847C43.504 19.0408 42.1323 17.3803 41.0493 16.7305L27.3324 8.78915C26.2495 8.13939 25.3109 7.63403 25.3109 7.63403C25.3109 7.63403 24.8778 8.28378 24.3002 9.07792L16.6476 20.1237C16.07 20.9178 16.431 22.5061 17.3695 23.7334L27.188 35.9343C27.9821 36.945 28.9929 37.306 29.6426 36.945C29.787 36.8728 29.8592 36.8006 29.9314 36.6562L33.2523 32.108Z" fill="white"/>
<path d="M58.5204 56.0047C57.9428 54.5608 56.7155 53.4778 55.777 53.55L45.9585 54.4164C45.8141 54.4164 45.6698 54.4886 45.5254 54.5608C44.8756 54.9217 44.7312 56.0047 45.2366 57.1598L48.4131 65.6065C48.7741 66.4729 48.7019 67.0504 48.4131 67.1948C48.1966 67.3392 47.8356 67.267 47.4024 66.9782L42.4932 64.2348C41.4103 63.5851 40.4717 61.9968 40.4717 60.7695V60.4085C40.4717 59.3256 40.0386 58.7481 39.5332 59.0368C39.461 59.109 39.3888 59.1812 39.3166 59.2534L32.9635 65.6065C32.3138 66.2563 32.3138 67.989 32.9635 69.3606L39.3166 83.0776C39.7498 83.9439 40.0386 84.3049 40.2552 84.1605C40.3996 84.0883 40.4717 83.7996 40.4717 83.2942V83.1498C40.4717 82.5001 40.6883 82.0669 41.0493 81.8503C41.4103 81.6337 41.9156 81.7059 42.4932 81.9947L56.2824 90.0083C57.1487 90.5137 58.1594 90.5137 58.8092 90.1527C59.0257 90.0083 59.1701 89.9361 59.3145 89.7195L66.173 79.9733C66.7506 79.1791 66.7506 77.3742 66.173 75.9303L58.5204 56.0047Z" fill="white"/>
<path d="M57.7985 90.8746C57.2209 90.8746 56.5712 90.7302 56.0658 90.3693L42.2766 82.4279C41.9157 82.2113 41.5547 82.1391 41.3381 82.2835C41.1215 82.4279 40.9771 82.7166 40.9771 83.1498V83.2942C40.9771 84.0161 40.8328 84.3771 40.544 84.5937C40.4718 84.6659 40.3274 84.6659 40.183 84.6659C39.7498 84.6659 39.3167 84.2327 38.8835 83.222L32.5304 69.505C31.8084 67.9168 31.8084 65.9675 32.6026 65.1734L38.9557 58.8202C39.0279 58.6759 39.1723 58.6037 39.3167 58.5315C40.0386 58.0983 40.9771 58.3871 40.9771 60.2641V60.6251C40.9771 61.708 41.7713 63.1519 42.782 63.7295L47.6912 66.5451C47.98 66.6894 48.1244 66.7616 48.1966 66.7616C48.2688 66.6894 48.2688 66.4007 48.0522 65.7509L44.8035 57.3764C44.2259 55.9325 44.4425 54.633 45.3088 54.1276C45.5254 54.0554 45.6698 53.9832 45.9586 53.911L55.777 53.0447H55.9214C57.0765 53.0447 58.4482 54.1998 59.0258 55.7881L66.7506 75.6416C67.4003 77.2299 67.3282 79.1791 66.6784 80.1176L59.8199 89.8639C59.6755 90.0805 59.4589 90.2971 59.1702 90.4415C58.737 90.7302 58.3038 90.8746 57.7985 90.8746ZM41.5547 81.2006C41.9157 81.2006 42.2766 81.3449 42.7098 81.5615L56.499 89.5029C56.8599 89.7195 57.3653 89.8639 57.7263 89.8639C58.0151 89.8639 58.3038 89.7917 58.5204 89.6473C58.6648 89.5751 58.737 89.5029 58.8092 89.3585L65.6677 79.6123C66.1008 79.0347 66.173 77.4464 65.5955 76.0025L58.0151 56.2212C57.5097 54.9217 56.499 54.0554 55.777 54.0554L45.8864 54.9217C45.8142 54.9217 45.742 54.9217 45.6698 54.9939C45.3088 55.2105 45.1644 56.0047 45.5254 57.0154L48.7742 65.3899C49.3517 66.906 48.9185 67.4114 48.5576 67.628C48.1966 67.8446 47.6912 67.7724 47.1137 67.4114L42.2044 64.5958C40.9049 63.8739 39.9664 62.1412 39.9664 60.6973V60.3363C39.9664 59.6866 39.822 59.3978 39.7498 59.3978C39.6776 59.47 39.6054 59.47 39.6054 59.5422L33.2523 65.9675C32.8192 66.4007 32.747 67.8446 33.3245 69.2163L39.6776 82.9332C39.7498 83.1498 39.8942 83.2942 39.9664 83.4386V83.3664V83.222C39.9664 82.4279 40.2552 81.7781 40.8328 81.4893C41.0493 81.2727 41.3381 81.2006 41.5547 81.2006Z" fill="#0000BD"/>
<path d="M23.0729 47.1245C23.1451 46.9801 23.2895 46.908 23.3617 46.8358C24.0114 46.4748 25.0222 46.8358 25.8163 47.8465L26.0329 48.1353C26.5382 48.785 26.8992 49.0016 27.0436 48.9294C27.188 48.8572 27.188 48.424 26.9714 47.7021L22.6397 33.8407C22.2066 32.3968 20.9071 30.8086 19.8241 30.3032L9.13935 25.4662C8.70619 25.3218 8.4896 25.2496 8.34521 25.3218C8.12863 25.4662 8.27302 25.9715 8.92277 26.7657L9.06716 26.9101C10.0057 28.1374 10.3667 29.7256 9.7891 30.5198L2.85843 40.4104C2.28087 41.2046 1.41454 42.5041 0.836979 43.226C0.259423 44.0202 0.476007 45.7528 1.19795 47.1245L9.35594 62.2132C10.0779 63.5849 11.594 65.2454 12.7491 65.8951L28.1265 74.775C28.7041 75.0638 29.2094 75.136 29.5704 74.9194C29.9314 74.7029 30.148 74.2697 30.148 73.6199V60.5527C30.148 59.2532 29.2094 57.6649 28.1265 57.0874L21.629 53.3333C20.5461 52.6835 20.0407 51.5284 20.6183 50.7343L23.0729 47.1245Z" fill="white"/>
<path d="M29.065 75.5694C28.7041 75.5694 28.3431 75.425 27.9099 75.2085L12.5325 66.3285C11.3774 65.6788 9.78909 63.9461 8.99495 62.43L0.764769 47.4136C-0.101565 45.8253 -0.245954 43.9482 0.403797 43.0097L9.35592 30.3035C9.71689 29.7981 9.50031 28.3542 8.63398 27.2713L8.48959 27.1269C7.69545 26.1884 7.69545 25.7552 7.76764 25.4664C7.83984 25.2498 7.91203 25.1054 8.12861 24.9611C8.41739 24.8167 8.77836 24.8167 9.35592 25.1054L20.0407 29.9425C21.268 30.52 22.6397 32.1805 23.1451 33.7688L27.4768 47.6301C27.6933 48.2799 27.8377 49.074 27.3324 49.3628C27.2602 49.435 27.1158 49.435 27.0436 49.435C26.827 49.435 26.3938 49.2906 25.7441 48.4965L25.5275 48.2077C24.7334 47.2692 24.0114 47.1248 23.7226 47.2692C23.6504 47.3414 23.5782 47.3414 23.5782 47.4136L20.9792 50.9511C20.8349 51.1677 20.8349 51.4565 20.8349 51.673C20.907 52.1062 21.268 52.5394 21.8456 52.9003L28.3431 56.6545C29.6426 57.3764 30.5811 59.1091 30.5811 60.553V73.6202C30.5811 74.4143 30.2923 75.0641 29.7148 75.3528C29.5704 75.4972 29.3538 75.5694 29.065 75.5694ZM8.85056 25.8996C8.92275 26.044 9.06714 26.1884 9.28373 26.4771L9.42812 26.6215C10.511 27.9932 10.872 29.8703 10.1501 30.8088L1.27013 43.5151C0.909159 44.0926 0.981353 45.6087 1.6311 46.9082L9.78909 61.9969C10.511 63.2964 11.9549 64.8846 12.9656 65.4622L28.3431 74.3421C28.7041 74.5587 29.065 74.6309 29.2816 74.4865C29.4982 74.3421 29.6426 74.0533 29.6426 73.6202V60.553C29.6426 59.47 28.8485 58.0262 27.8377 57.4486L21.3402 53.6945C20.6183 53.2613 20.0407 52.6116 19.8963 51.8896C19.7519 51.3843 19.8963 50.8067 20.1851 50.4457L22.6397 46.9082C22.7841 46.6916 22.9285 46.5472 23.1451 46.475C24.0114 45.9697 25.2387 46.475 26.1773 47.6301L26.3938 47.9189C26.466 47.9911 26.466 48.0633 26.5382 48.0633C26.5382 47.9911 26.5382 47.9911 26.466 47.9189L22.1344 34.0576C21.7012 32.7581 20.5461 31.3142 19.5354 30.8088L8.92275 25.9718C8.92275 25.9718 8.85056 25.9718 8.85056 25.8996Z" fill="#0000BD"/>
<path d="M78.8071 68.5669L71.0823 48.7134C70.5047 47.2695 69.2774 46.1866 68.3389 46.2588L58.5204 47.1973C58.376 47.1973 58.2316 47.2695 58.0872 47.3417L45.5254 54.5612C45.6698 54.489 45.8142 54.4168 45.9586 54.4168L55.777 53.5504C56.7155 53.4782 58.015 54.5612 58.5204 56.005L66.2452 75.8585C66.8228 77.3024 66.8228 79.1073 66.2452 79.9014L59.3867 89.6477C59.2424 89.7921 59.098 89.9365 58.8814 90.0809L71.5154 82.7892C71.732 82.6448 71.8764 82.5726 71.9486 82.3561L78.8071 72.6098C79.3846 71.8157 79.3846 70.0108 78.8071 68.5669Z" fill="white"/>
<path d="M58.8814 90.5858C58.737 90.5858 58.5204 90.5136 58.4483 90.3692C58.3039 90.1526 58.3761 89.8639 58.5926 89.7195C58.737 89.6473 58.8092 89.5751 58.8814 89.4307L65.7399 79.6844C66.1731 79.1069 66.2453 77.5186 65.6677 76.0747L58.0151 56.2212C57.5097 54.9217 56.499 54.0554 55.7771 54.0554L45.8864 54.9217C45.8142 54.9217 45.742 54.9217 45.6698 54.9939C45.4532 55.1383 45.1645 55.0661 45.0201 54.8495C44.8757 54.6329 44.9479 54.3442 45.1645 54.1998L57.8707 46.9081C58.0873 46.7637 58.3039 46.7637 58.5204 46.6915L68.3389 45.8252H68.4833C69.6384 45.8252 70.9379 46.9803 71.5877 48.5686L79.3125 68.4221C79.9622 70.0104 79.89 71.9596 79.2403 72.8981L72.3818 82.6444C72.2374 82.861 72.0208 83.0776 71.7321 83.222L59.1702 90.5136C59.0258 90.5858 58.9536 90.5858 58.8814 90.5858ZM55.8493 53.1168C57.0044 53.1168 58.3761 54.272 58.9536 55.8602L66.6784 75.7137C67.3282 77.302 67.256 79.2513 66.6062 80.1898L60.8307 88.42L71.2267 82.4278C71.3711 82.3556 71.4433 82.2834 71.5155 82.1391L78.374 72.3928C78.8071 71.8152 78.8793 70.227 78.3018 68.7831L70.6491 48.9296C70.1438 47.6301 69.133 46.7637 68.4111 46.7637L58.5204 47.6301C58.4483 47.6301 58.3761 47.6301 58.3039 47.7023L47.7635 53.7666L55.6327 53.0447C55.7049 53.1168 55.8493 53.1168 55.8493 53.1168Z" fill="#0000BD"/>
<path d="M66.4618 33.5523C65.5233 33.6245 64.2238 32.5416 63.7184 31.0977L56.7877 13.2657C56.2102 11.8218 54.8385 10.1613 53.7556 9.51155L40.0386 1.57015C38.9557 0.920401 38.0172 0.415039 38.0172 0.415039L25.3831 7.70669C25.3831 7.70669 26.3216 8.21205 27.4046 8.8618L41.1215 16.8032C42.2045 17.453 43.5761 19.1134 44.1537 20.5573L51.0844 38.3894C51.6619 39.8333 52.8892 40.9162 53.8278 40.844C54.7663 40.7718 55.3439 41.4215 54.9107 42.3601L50.579 51.24L63.2131 43.9484L67.5447 35.0684C67.9779 34.2021 67.4003 33.4801 66.4618 33.5523Z" fill="white"/>
<path d="M50.579 51.6732C50.4346 51.6732 50.3624 51.6011 50.218 51.5289C50.0737 51.3845 50.0015 51.1679 50.1458 50.9513L54.4775 42.0714C54.6219 41.8548 54.6219 41.6382 54.5497 41.4938C54.4775 41.3494 54.2609 41.2772 54.0444 41.2772H53.9H53.7556C52.6005 41.2772 51.2288 40.1221 50.6512 38.5338L43.7205 20.7018C43.2152 19.4023 41.9157 17.7418 40.9049 17.1643L25.1665 8.13994C25.0221 8.06774 24.95 7.92335 24.95 7.70677C24.95 7.56238 25.0221 7.3458 25.1665 7.2736L37.7284 0.0541459C37.8728 -0.0180486 38.0894 -0.0180486 38.2337 0.0541459L53.9722 9.15066C55.1995 9.87261 56.6434 11.6053 57.2209 13.1936L64.1516 31.0256C64.657 32.3251 65.6677 33.1914 66.3896 33.1914C66.534 33.1914 66.6062 33.1914 66.6784 33.1914C67.256 33.1914 67.7613 33.408 68.0501 33.8412C68.3389 34.2744 68.3389 34.8519 68.0501 35.3573L63.7184 44.2372C63.6462 44.3094 63.574 44.3816 63.5018 44.4538L50.7956 51.6732C50.7234 51.6732 50.6512 51.6732 50.579 51.6732ZM54.0444 40.3387C54.6219 40.3387 55.1273 40.5553 55.416 40.9885C55.7048 41.4216 55.7048 41.9992 55.416 42.5045L51.7341 49.9406L62.8521 43.5153L67.1116 34.7797C67.256 34.5631 67.256 34.3466 67.1838 34.2022C67.1116 34.0578 66.895 33.9856 66.6784 33.9856H66.534H66.3896C65.2345 33.9856 63.8628 32.8305 63.2853 31.2422L56.3546 13.4823C55.8492 12.1828 54.5497 10.5224 53.539 9.9448L38.0172 0.992675L26.3938 7.70677L41.4103 16.3701C42.6376 17.0921 44.0815 18.8247 44.6591 20.413L51.5175 38.2451C52.0229 39.5446 53.0336 40.4109 53.7556 40.4109C53.9 40.4109 53.9722 40.3387 54.0444 40.3387Z" fill="#DF0112"/>
<path d="M49.2073 52.4671C48.6298 52.4671 47.98 52.2506 47.4025 51.8896L36.7177 44.3814C35.9957 43.876 35.5626 43.2984 35.6348 42.7931C35.6348 42.5043 35.7791 42.2155 36.0679 42.0711C36.2123 41.9989 36.4289 41.9267 36.7177 41.9267H36.9343C37.0064 41.9267 37.0786 41.9267 37.1508 41.8546C37.5118 41.638 37.6562 40.8438 37.2952 39.8331L34.8406 33.48C34.4796 32.6137 34.0465 32.2527 33.9021 32.2527C33.7577 32.3249 33.7577 32.3249 33.6855 32.3971L30.3645 37.0175C30.2202 37.2341 30.0758 37.3785 29.8592 37.4507C29.6426 37.5951 29.3538 37.6673 29.065 37.6673C28.3431 37.6673 27.4768 37.1619 26.7548 36.2956L17.0086 24.0225C15.9256 22.6508 15.5647 20.7737 16.2866 19.8352L25.0221 7.41775C25.1665 7.20117 25.4553 7.12897 25.6719 7.27336L41.4103 16.3699C42.6376 17.0918 44.0815 18.8245 44.6591 20.4128L51.5176 38.2448C52.0229 39.5443 53.0336 40.4107 53.7556 40.4107H53.9722C54.6219 40.3385 55.1273 40.555 55.4161 40.9882C55.7048 41.4214 55.6326 41.9989 55.3439 42.5765L51.0122 51.4564C50.8678 51.7452 50.579 52.034 50.2902 52.2506C50.0015 52.395 49.6405 52.4671 49.2073 52.4671ZM36.5733 42.9375C36.6455 42.9375 36.7899 43.2262 37.2952 43.5872L47.98 51.0955C48.5576 51.5286 49.3517 51.6008 49.7849 51.3842C49.9293 51.312 50.0737 51.1676 50.1459 51.0233L54.4775 42.1433C54.6219 41.8546 54.6219 41.638 54.5497 41.4936C54.4775 41.3492 54.2609 41.3492 54.1166 41.3492H53.9722H53.8278H53.6834C52.5283 41.3492 51.1566 40.1941 50.579 38.6058L43.6483 20.7737C43.143 19.4742 41.8435 17.8138 40.8328 17.2362L25.5275 8.35628L17.0807 20.4128C16.7198 20.9181 16.9364 22.362 17.8027 23.4449L27.6212 35.6458C28.4153 36.5844 29.1372 36.7287 29.426 36.5844C29.4982 36.5844 29.5704 36.5122 29.5704 36.44L32.8192 31.8195C32.9636 31.6029 33.1079 31.4585 33.2523 31.3863C34.0465 30.9532 35.1294 31.6029 35.6348 33.0468L38.0894 39.3999C38.6669 40.8438 38.4503 42.1433 37.584 42.6487C37.3674 42.7209 37.1508 42.7931 36.9343 42.8653H36.7177C36.6455 42.8653 36.5733 42.9375 36.5733 42.9375Z" fill="#DF0112"/>
</svg>
