<svg width="53" height="53" fill="none" xmlns="http://www.w3.org/2000/svg"><circle cx="26.5" cy="26.5" r="26.5" fill="transition"/><path d="M18.05 38.408l.008.01a8.706 8.706 0 003.74 2.599c.275.085.867.16 1.687.214a56.06 56.06 0 002.752.097c1.958.028 3.923-.01 4.641-.052L18.05 38.408zm0 0l-.008-.01m.008.01l-.008-.01m0 0a17.022 17.022 0 01-4.539-11.902 7.37 7.37 0 012.224-5.091 7.284 7.284 0 015.125-2.068c1.27.05 2.534.224 3.77.522l.012.002.012.003.48.091h0l.007.002c1.789.311 3.627.161 5.341-.437.245-.076.439-.131.595-.164h0c3.37-.715 6.552.536 8.156 3.11h0c1.019 1.631 1.393 3.592 1.097 6.036h0m-22.28 9.897l22.28-9.897m0 0l-.001.008m0-.008v.008m0 0a18.131 18.131 0 01-3.902 9.494m3.902-9.494l-3.902 9.494m0 0c-1.77 2.153-3.525 3.152-5.54 3.272l5.54-3.272zM26.46 13.013c-1.584-2.303-8-2-8-2s1 4.487 3.5 5.987c1.667 1 5 1.013 5 1.013s.613-3.383-.5-5z" stroke="#fff"/></svg>