<svg width="86" height="80" viewBox="0 0 86 80" fill="none" xmlns="http://www.w3.org/2000/svg">
<path d="M67.9201 43.378C51.49 33.8912 34.51 33.8912 18.0112 43.378C9.76179 48.1215 5.63708 52.9336 5.63708 57.8145C5.63708 62.6267 9.76179 67.4388 18.0112 72.251C34.4412 81.7378 51.4213 81.7378 67.9201 72.251C76.1695 67.5075 80.2942 62.6954 80.2942 57.8145C80.2942 52.9336 76.1695 48.1215 67.9201 43.378Z" fill="white"/>
<path d="M42.9656 79.8127C34.51 79.8127 26.0543 77.4066 17.7362 72.5945C9.41805 67.7823 5.22461 62.764 5.22461 57.7456C5.22461 52.7272 9.4868 47.7088 17.8049 42.8966C34.3725 33.3411 51.6962 33.3411 68.195 42.8966C76.5819 47.7088 80.7754 52.7272 80.7754 57.7456C80.7754 62.764 76.5132 67.7823 68.195 72.5945C59.9456 77.4066 51.4213 79.8127 42.9656 79.8127ZM42.9656 36.7096C34.7162 36.7096 26.3981 39.1157 18.2862 43.7903C10.3117 48.465 6.18704 53.1397 6.18704 57.7456C6.18704 62.3515 10.243 67.0949 18.2862 71.7008C34.51 81.0501 51.49 81.0501 67.7138 71.7008C75.757 67.0949 79.813 62.3515 79.813 57.7456C79.813 53.1397 75.757 48.3962 67.7138 43.7903C59.6019 39.1157 51.2838 36.7096 42.9656 36.7096Z" fill="#0000BD"/>
<path d="M28.1167 8.45562C20.1423 3.8497 13.0616 2.95602 8.86813 5.43084L4.67468 7.83692C8.93687 5.43084 15.9489 6.25578 23.992 10.8617C36.9161 18.3549 47.4341 32.7914 47.4341 43.1719C47.4341 47.1591 45.9217 49.9089 43.2406 51.4213L47.3653 49.0152C49.9776 47.5028 51.5588 44.6842 51.5588 40.7658C51.5588 30.3853 41.0408 15.9488 28.1167 8.45562Z" fill="white"/>
<path d="M43.2406 51.9713C43.0344 51.9713 42.8969 51.9026 42.8282 51.6963C42.6907 51.4214 42.7594 51.1464 43.0344 51.0089C45.578 49.5652 46.9529 46.8154 46.9529 43.172C46.9529 32.9977 36.5724 18.6987 23.7858 11.343C18.9049 8.52447 14.2302 7.01208 10.3118 7.01208C8.24942 7.01208 6.46205 7.42455 5.0184 8.24949C4.74342 8.38698 4.46844 8.31824 4.33095 8.04326C4.19346 7.76828 4.26221 7.4933 4.53719 7.3558L8.66189 4.94973C10.243 3.9873 12.2366 3.57483 14.5052 3.57483C18.6299 3.57483 23.4421 5.08722 28.4605 8.04326C41.522 15.6052 52.1775 30.2479 52.1775 40.7659C52.1775 44.8218 50.6651 47.8466 47.7778 49.4965L43.6531 51.9026C43.3781 51.9713 43.3094 51.9713 43.2406 51.9713ZM10.243 5.9809C14.3677 5.9809 19.1799 7.49329 24.1983 10.4493C37.2598 18.0113 47.9153 32.654 47.9153 43.172C47.9153 45.4405 47.4341 47.4342 46.4716 49.0153L47.1591 48.6028C49.7027 47.1592 51.0776 44.4094 51.0776 40.7659C51.0776 30.5916 40.6971 16.2927 27.9105 8.8682C22.9608 6.11839 18.3549 4.606 14.4365 4.606C12.3741 4.606 10.5867 5.01847 9.1431 5.84341L8.79938 6.04965C9.21185 5.98091 9.76181 5.9809 10.243 5.9809Z" fill="#0000BD"/>
<path d="M23.992 10.8617C15.9488 6.25583 8.93684 5.36215 4.67465 7.83697C2.06234 9.34936 0.481201 12.1679 0.481201 16.0864C0.481201 21.4485 3.29975 27.8418 7.76817 33.8913L3.78096 41.0408L14.4364 41.3158C17.3237 44.0656 20.5547 46.4717 23.9233 48.4653C31.8977 53.0712 38.9784 53.9649 43.1719 51.4901C45.7842 49.9777 47.3653 47.1591 47.3653 43.2407C47.4341 32.7914 36.9161 18.355 23.992 10.8617Z" fill="white"/>
<path d="M37.6723 53.2775C33.5476 53.2775 28.7354 51.7651 23.717 48.8091C20.4173 46.953 17.255 44.5469 14.2302 41.7284L3.78098 41.5909C3.57474 41.5909 3.43725 41.5221 3.36851 41.3159C3.29976 41.1784 3.29976 40.9722 3.36851 40.8347L7.21823 33.9602C2.54357 27.6356 0 21.3111 0 16.0865C0 12.0305 1.51239 9.00574 4.39968 7.35586C5.98082 6.46217 7.97442 5.98096 10.243 5.98096C14.3677 5.98096 19.1799 7.49335 24.1982 10.4494C37.2598 18.0113 47.9153 32.654 47.9153 43.172C47.9153 47.228 46.4029 50.2528 43.5156 51.9026C41.8657 52.7963 39.9409 53.2775 37.6723 53.2775ZM4.67466 40.5597L14.4365 40.7659C14.5739 40.7659 14.7114 40.8347 14.7802 40.9034C17.805 43.722 20.9672 46.0593 24.1982 47.9842C29.0791 50.8027 33.7538 52.3151 37.6723 52.3151C39.7346 52.3151 41.522 51.9026 42.9656 51.0777C45.5092 49.634 46.8841 46.8842 46.8841 43.2408C46.8841 33.0665 36.5036 18.7675 23.717 11.4118C18.8361 8.59327 14.1615 7.08088 10.243 7.08088C8.18066 7.08088 6.39329 7.49335 4.94964 8.31829C2.40608 9.76193 1.03118 12.5117 1.03118 16.1552C1.03118 21.2424 3.57474 27.4294 8.18066 33.6165C8.31815 33.7539 8.31815 33.9602 8.2494 34.1664L4.67466 40.5597Z" fill="#0000BD"/>
<path d="M81.3253 74.3821L75.9632 77.4068L70.8761 62.3517L76.1695 59.3269L81.3253 74.3821Z" fill="white"/>
<path d="M75.9633 77.957C75.8945 77.957 75.8258 77.957 75.757 77.957C75.6195 77.8882 75.4821 77.8195 75.4821 77.6132L70.3949 62.5581C70.3262 62.3518 70.3949 62.0769 70.6012 61.9394L75.8945 58.8458C76.032 58.7771 76.1695 58.7771 76.307 58.7771C76.4445 58.8458 76.582 58.9146 76.582 59.1208L81.6691 74.176C81.7378 74.3822 81.6691 74.6572 81.4629 74.7947L76.1695 77.8882C76.1695 77.8882 76.1008 77.957 75.9633 77.957ZM71.4948 62.6268L76.2382 76.7195L80.6379 74.176L75.8945 60.0833L71.4948 62.6268Z" fill="#DF0112"/>
<path d="M55.5459 6.11851C45.3717 0.206441 36.3661 -0.893479 30.9352 2.20005L25.6418 5.29357C31.0727 2.20005 40.0783 3.29997 50.2526 9.21204C66.7514 18.7676 80.1566 37.26 80.1566 50.459C80.1566 55.5462 78.163 59.0522 74.8633 60.977L80.1566 57.8835C83.5252 55.9586 85.45 52.3839 85.45 47.3655C85.5188 34.0977 72.1135 15.6053 55.5459 6.11851Z" fill="white"/>
<path d="M74.8633 61.458C74.6571 61.458 74.5196 61.3893 74.4508 61.1831C74.3133 60.9081 74.3821 60.6331 74.6571 60.4956C77.9568 58.5708 79.7442 55.0648 79.7442 50.3901C79.7442 37.3285 66.4077 19.0424 50.0463 9.55556C43.7905 5.98082 37.8097 4.05596 32.7913 4.05596C30.1103 4.05596 27.773 4.60592 25.9168 5.70584C25.6419 5.84333 25.3669 5.77458 25.2294 5.4996C25.0919 5.22462 25.1606 4.94964 25.4356 4.81215L30.729 1.71863C32.7226 0.618705 35.1974 0 38.0847 0C43.3093 0 49.4276 1.92486 55.8209 5.63709C72.4572 15.2614 86 33.96 86 47.3653C86 52.4524 84.0751 56.2334 80.4316 58.3645L75.1383 61.458C75.0695 61.458 74.932 61.458 74.8633 61.458ZM32.7226 3.09353C37.9472 3.09353 44.0655 5.01839 50.4588 8.73062C67.0951 18.3549 80.6379 37.0536 80.6379 50.4588C80.6379 53.5524 79.8817 56.2334 78.5068 58.2958L79.8817 57.5396C83.1814 55.6147 84.9688 52.1087 84.9688 47.4341C84.9688 34.3725 71.6323 16.0863 55.271 6.59952C49.0152 2.95604 43.0343 1.09992 38.016 1.09992C35.3349 1.09992 32.9976 1.64988 31.1415 2.7498L30.1103 3.36851C31.004 3.09353 31.8289 3.09353 32.7226 3.09353Z" fill="#DF0112"/>
<path d="M70.8761 62.352C72.3885 62.077 73.6946 61.5958 74.8633 60.9083C78.2318 58.9835 80.1567 55.4087 80.1567 50.3903C80.1567 37.1225 66.7514 18.6989 50.2526 9.14332C40.0096 3.29999 31.004 2.13132 25.6419 5.29359C22.2734 7.21846 20.3485 10.7932 20.3485 15.8803C20.3485 29.1481 33.7538 47.5718 50.2526 57.1273C54.5835 59.6022 58.7082 61.252 62.4205 62.077L76.032 77.4759L70.8761 62.352Z" fill="white"/>
<path d="M75.9633 77.9571C75.8258 77.9571 75.6883 77.8883 75.5508 77.8196L62.0768 62.4895C58.2271 61.5958 54.1023 59.9459 49.9776 57.5398C33.3414 47.9155 19.7986 29.2169 19.7986 15.8116C19.7986 10.7245 21.7234 6.87475 25.3669 4.81239C27.4293 3.64373 29.9041 3.02502 32.7226 3.02502C37.9473 3.02502 44.0656 4.94989 50.4589 8.66212C67.0952 18.2864 80.6379 36.9851 80.6379 50.3903C80.6379 55.4775 78.7131 59.2584 75.0696 61.3895C74.0384 62.0083 72.801 62.4895 71.4948 62.7644L76.4445 77.2696C76.5132 77.4759 76.4445 77.7509 76.2382 77.8884C76.1695 77.8884 76.1007 77.9571 75.9633 77.9571ZM32.7226 4.0562C30.0416 4.0562 27.7043 4.60616 25.8481 5.70608C22.5484 7.63094 20.761 11.1369 20.761 15.8116C20.761 28.8732 34.0975 47.1593 50.4589 56.6461C54.5836 59.0522 58.6395 60.7021 62.4892 61.527C62.6267 61.527 62.6955 61.5958 62.7642 61.6645L74.6571 75.1385L70.3949 62.5582C70.3262 62.4207 70.3949 62.2832 70.4637 62.1457C70.5324 62.0082 70.6699 61.9395 70.8074 61.8708C72.251 61.5958 73.4884 61.1146 74.6571 60.4959C77.9569 58.571 79.7442 55.065 79.7442 50.3903C79.7442 37.3288 66.4077 19.0426 50.0464 9.5558C43.7219 5.98106 37.741 4.0562 32.7226 4.0562Z" fill="#DF0112"/>
<path d="M50.3214 26.8791C48.809 25.9854 47.4341 25.9167 46.4717 26.4666L42.6219 28.6665C43.5844 28.1165 44.9593 28.1852 46.4717 29.0789C49.4964 30.7976 51.9025 35.0598 51.9025 38.497C51.9025 40.2156 51.2838 41.453 50.3214 42.003L54.1711 39.8032C55.1335 39.2532 55.7522 38.0158 55.7522 36.2972C55.821 32.7912 53.3462 28.5977 50.3214 26.8791Z" fill="white"/>
<path d="M50.3901 42.4845C50.1839 42.4845 50.0464 42.4158 49.9776 42.2095C49.8401 41.9346 49.9089 41.6596 50.1839 41.5221C51.0776 41.0409 51.49 39.9409 51.49 38.4286C51.49 35.1288 49.1527 31.0728 46.3342 29.423C45.0967 28.6668 43.8593 28.5293 43.0344 29.0105C42.7594 29.148 42.4844 29.0792 42.3469 28.8043C42.2095 28.5293 42.2782 28.2543 42.5532 28.1168L46.4029 25.917C47.5716 25.2295 49.1527 25.367 50.7338 26.3294C53.8961 28.1168 56.4397 32.5852 56.4397 36.16C56.4397 38.0161 55.7522 39.4597 54.5836 40.1472L50.8026 42.347C50.5276 42.4845 50.4589 42.4845 50.3901 42.4845ZM45.028 27.9106C45.578 28.0481 46.1967 28.2543 46.7466 28.598C49.9089 30.3854 52.4525 34.8538 52.4525 38.4286C52.4525 39.116 52.3837 39.7347 52.1775 40.2847L53.8961 39.2535C54.721 38.7723 55.2023 37.6724 55.2023 36.16C55.2023 32.8602 52.8649 28.873 50.0464 27.1544C48.809 26.3982 47.5716 26.2607 46.6779 26.7419L45.028 27.9106Z" fill="#DF0112"/>
<path d="M41.1095 32.1727C41.1095 35.6099 43.5156 39.8721 46.5404 41.5908C48.0527 42.4844 49.4276 42.5532 50.3901 42.0032C51.3525 41.4533 51.9712 40.2159 51.9712 38.4972C51.9712 35.06 49.5651 30.7978 46.5404 29.0792C45.028 28.1855 43.6531 28.1167 42.6906 28.6667C41.7282 29.2167 41.1095 30.4541 41.1095 32.1727Z" fill="white"/>
<path d="M48.9465 42.8282C48.1215 42.8282 47.2278 42.5532 46.2654 42.0033C43.1031 40.2159 40.5596 35.7475 40.5596 32.1727C40.5596 30.3166 41.247 28.873 42.4157 28.1855C43.5844 27.4981 45.1655 27.6356 46.7466 28.598C49.9089 30.3854 52.4525 34.8538 52.4525 38.4285C52.4525 40.2846 51.765 41.7283 50.5963 42.4157C50.1151 42.6907 49.5652 42.8282 48.9465 42.8282ZM44.1343 28.8042C43.7218 28.8042 43.3094 28.873 42.9656 29.0792C42.072 29.5604 41.6595 30.6603 41.6595 32.1727C41.6595 35.4725 43.9968 39.5284 46.8154 41.1783C47.5716 41.5908 48.3278 41.8658 49.0152 41.8658C49.4277 41.8658 49.8401 41.797 50.1839 41.5908C51.0776 41.1096 51.49 40.0097 51.49 38.4973C51.49 35.1975 49.1527 31.1416 46.3342 29.4917C45.5092 29.0792 44.753 28.8042 44.1343 28.8042Z" fill="#DF0112"/>
<path d="M36.1599 20.4173C35.06 19.7986 34.0288 19.7298 33.3414 20.1423L30.5228 21.7922C31.279 21.3797 32.2415 21.4485 33.3414 22.0672C35.5412 23.3733 37.3286 26.4668 37.3286 29.0104C37.3286 30.2478 36.8474 31.2103 36.1599 31.6227L38.9785 29.9728C39.7347 29.5604 40.1471 28.6667 40.1471 27.3605C40.1471 24.7482 38.3598 21.6547 36.1599 20.4173Z" fill="white"/>
<path d="M36.1599 32.0352C35.9537 32.0352 35.8162 31.9665 35.7475 31.7603C35.61 31.4853 35.6787 31.2103 35.9537 31.0728C36.5724 30.7291 36.8474 29.9729 36.8474 28.9417C36.8474 26.5356 35.1975 23.6483 33.1352 22.4797C32.2415 21.9985 31.4165 21.861 30.7978 22.2047C30.5228 22.3422 30.2479 22.2734 30.1104 21.9985C29.9729 21.7235 30.0416 21.4485 30.3166 21.311L33.1352 19.6611C34.0288 19.1112 35.2662 19.2487 36.4349 19.9361C38.841 21.311 40.6971 24.542 40.6971 27.2918C40.6971 28.7355 40.2159 29.7666 39.2535 30.3166L36.4349 31.9665C36.3662 32.0352 36.2287 32.0352 36.1599 32.0352ZM32.5852 21.1048C32.9289 21.2423 33.2726 21.3798 33.6164 21.586C36.0224 22.9609 37.8786 26.1919 37.8786 28.9417C37.8786 29.3542 37.8098 29.6979 37.7411 30.0416L38.7035 29.4917C39.3222 29.1479 39.5972 28.3917 39.5972 27.3606C39.5972 24.9545 37.9473 22.0672 35.885 20.8985C34.9913 20.3486 34.1663 20.2798 33.5476 20.6236L32.5852 21.1048Z" fill="#DF0112"/>
<path d="M29.3541 24.3357C29.3541 26.8792 31.1415 29.9728 33.3413 31.2789C34.4413 31.8976 35.4724 31.9664 36.1599 31.5539C36.9161 31.1414 37.3285 30.2477 37.3285 28.9416C37.3285 26.398 35.5412 23.3045 33.3413 21.9983C32.2414 21.3796 31.2102 21.3109 30.5228 21.7234C29.8353 22.1358 29.3541 23.0295 29.3541 24.3357Z" fill="white"/>
<path d="M35.1287 32.3099C34.51 32.3099 33.8226 32.1036 33.0664 31.6912C30.6603 30.3163 28.8042 27.0852 28.8042 24.3354C28.8042 22.8918 29.2854 21.8606 30.2478 21.3107C31.1415 20.7607 32.3789 20.8982 33.5476 21.5856C35.9537 22.9605 37.8098 26.1916 37.8098 28.9414C37.8098 30.385 37.3286 31.4162 36.3662 31.9661C36.0224 32.1724 35.61 32.3099 35.1287 32.3099ZM31.554 21.9981C31.279 21.9981 31.004 22.0669 30.7978 22.2043C30.1791 22.5481 29.9041 23.3043 29.9041 24.3354C29.9041 26.7415 31.554 29.6288 33.6164 30.7975C34.51 31.2787 35.335 31.4162 35.9537 31.0725C36.5724 30.7287 36.8474 29.9725 36.8474 28.9414C36.8474 26.5353 35.1975 23.648 33.1351 22.4793C32.5852 22.1356 32.0352 21.9981 31.554 21.9981Z" fill="#DF0112"/>
<path d="M64.4828 36.5723C63.3829 35.9536 62.3517 35.8849 61.6642 36.2973L58.8457 37.9472C59.6019 37.5347 60.5643 37.6035 61.6642 38.2222C63.8641 39.4596 65.6515 42.5531 65.6515 45.1654C65.6515 46.4716 65.1702 47.3653 64.4828 47.7778L67.3013 46.1279C68.0575 45.7154 68.47 44.8217 68.47 43.5156C68.47 40.9033 66.6826 37.8097 64.4828 36.5723Z" fill="white"/>
<path d="M64.4828 48.1903C64.2766 48.1903 64.1391 48.1215 64.0703 47.9153C63.9328 47.6403 64.0016 47.3653 64.2766 47.2278C64.8953 46.8841 65.1703 46.1279 65.1703 45.0967C65.1703 42.6907 63.5204 39.8034 61.458 38.6347C60.5643 38.1535 59.7394 38.016 59.1207 38.3597C58.8457 38.4972 58.5707 38.4285 58.4332 38.1535C58.2958 37.8785 58.3645 37.6035 58.6395 37.466L61.458 35.8162C62.3517 35.2662 63.5891 35.4037 64.7578 36.0911C67.1639 37.466 69.02 40.6971 69.02 43.4469C69.02 44.8905 68.5388 45.9217 67.5763 46.4716L64.7578 48.1215C64.6203 48.1903 64.5516 48.1903 64.4828 48.1903ZM60.9081 37.3285C61.2518 37.3973 61.5955 37.6035 61.9392 37.741C64.3453 39.1159 66.2014 42.3469 66.2014 45.0967C66.2014 45.5092 66.1327 45.8529 66.0639 46.1967L67.0264 45.6467C67.6451 45.303 67.9201 44.5468 67.9201 43.5156C67.9201 41.1095 66.2702 38.2222 64.2078 37.0536C63.3141 36.5724 62.4892 36.4349 61.8705 36.7786L60.9081 37.3285Z" fill="#DF0112"/>
<path d="M57.677 40.4907C57.677 43.0343 59.4644 46.1278 61.6642 47.4339C62.7641 48.0527 63.7953 48.1214 64.4828 47.7089C65.239 47.2965 65.6514 46.4028 65.6514 45.0966C65.6514 42.5531 63.8641 39.4595 61.6642 38.1534C60.5643 37.5347 59.5331 37.4659 58.8457 37.8784C58.0895 38.2909 57.677 39.1845 57.677 40.4907Z" fill="white"/>
<path d="M63.4516 48.4648C62.8329 48.4648 62.1455 48.2585 61.3893 47.8461C58.9832 46.4712 57.1271 43.2402 57.1271 40.4904C57.1271 39.0467 57.6083 38.0155 58.5707 37.4656C59.4644 36.9156 60.7018 37.0531 61.8705 37.7406C64.2766 39.1155 66.1327 42.3465 66.1327 45.0963C66.1327 46.5399 65.6515 47.5711 64.689 48.121C64.3453 48.3273 63.9328 48.4648 63.4516 48.4648ZM59.8769 38.153C59.6019 38.153 59.3269 38.2218 59.1207 38.3593C58.502 38.703 58.227 39.4592 58.227 40.4904C58.227 42.8964 59.8769 45.7837 61.9392 46.9524C62.4892 47.2961 63.0391 47.4336 63.4516 47.4336C63.7266 47.4336 64.0016 47.3649 64.2078 47.2274C64.8265 46.8836 65.1015 46.1274 65.1015 45.0963C65.1015 42.6902 63.4516 39.8029 61.3893 38.6342C60.8393 38.2905 60.3581 38.153 59.8769 38.153Z" fill="#DF0112"/>
</svg>
