<svg width="53" height="53" viewBox="0 0 53 53" fill="none" xmlns="http://www.w3.org/2000/svg">
<circle cx="26.5" cy="26.5" r="26.5" fill="white"/>
<path d="M22.0574 19.1622L21.8409 18.7874H21.408H18.5165L22.5957 11.75H31.438L35.6538 19.0847L34.0061 21.9606H30.9436L27.6473 16.2895L26.9972 15.1712L26.3496 16.291L23.3727 21.4386L22.0574 19.1622Z" stroke="#DF0112" stroke-width="1.5"/>
<path d="M21.9679 36.3878L21.752 36.7614L21.9665 37.1358L23.4009 39.6395H15.2687L10.8663 32.0041L15.1165 24.6691H18.4422L19.9766 27.3544L16.7172 32.9875L16.0659 34.1131H17.3664H23.2821L21.9679 36.3878Z" stroke="#DF0112" stroke-width="1.5"/>
<path d="M37.2836 32.9889L34.3421 27.8801H36.9736H37.4044L37.6215 27.508L39.086 24.9973L43.134 32.0036L38.7313 39.6395H30.2269L28.5479 36.7612L30.0779 34.1131H36.6336H37.9309L37.2836 32.9889Z" stroke="#0000FF" stroke-width="1.5"/>
</svg>
