<svg width="53" height="53" viewBox="0 0 53 53" fill="none" xmlns="http://www.w3.org/2000/svg">
<circle cx="26.5" cy="26.5" r="26.5" fill="white"/>
<path d="M13 43.4283V30.8568L22.7143 26.2854V30.8568L31.8571 26.2854V30.8568L41 26.2854V43.4283H13Z" stroke="#DF0112" stroke-width="1.5"/>
<path d="M19.2858 25.1428L14.7144 27.4285L15.8572 15.4285H18.7144L19.2858 25.1428Z" stroke="#0000FF" stroke-width="1.5"/>
<path d="M29.0003 24.5441L25.5718 26.2856L26.4289 17.1427H28.5718L29.0003 24.5441Z" stroke="#0000FF" stroke-width="1.5"/>
<path d="M16.5578 13.7143C16.5578 13.7143 17.5281 13.1429 17.5281 11.8095C17.5281 10.9237 16.8727 10.7327 16.5577 9.90476C16.2674 9.14142 16.5578 8 16.5578 8" stroke="#0000FF" stroke-width="1.5"/>
<path d="M26.8434 14.8575C26.8434 14.8575 27.8138 14.2861 27.8138 12.9528C27.8138 12.0669 27.1583 11.876 26.8434 11.048C26.5531 10.2847 26.8434 9.14325 26.8434 9.14325" stroke="#0000FF" stroke-width="1.5"/>
<line x1="16.4287" y1="36.9642" x2="21.0001" y2="36.9642" stroke="#DF0112" stroke-width="1.5"/>
<line x1="24.4287" y1="36.9642" x2="29.0001" y2="36.9642" stroke="#DF0112" stroke-width="1.5"/>
<line x1="32.4287" y1="36.9642" x2="37.0001" y2="36.9642" stroke="#DF0112" stroke-width="1.5"/>
</svg>
