<svg width="572" height="277" viewBox="0 0 572 277" fill="none" xmlns="http://www.w3.org/2000/svg">
<circle cx="25" cy="25" r="24.5" stroke="black"/>
<path d="M19.7456 35V16.25H25.0801C26.6589 16.25 27.9162 16.6528 28.8521 17.4585C29.7879 18.256 30.2559 19.3953 30.2559 20.8765V21.1206C30.2559 22.8459 29.5112 24.0625 28.022 24.7705C28.8683 25.1286 29.5316 25.682 30.0117 26.4307C30.5 27.1712 30.7441 28.0705 30.7441 29.1284V29.6289C30.7441 31.3379 30.2762 32.6603 29.3403 33.5962C28.4045 34.5321 27.1512 35 25.5806 35H19.7456ZM24.8237 18.9966H22.7485V23.7451H24.8237C25.6213 23.7451 26.2235 23.5579 26.6304 23.1836C27.0454 22.8011 27.2529 22.1989 27.2529 21.377V21.1206C27.2529 20.38 27.0454 19.8429 26.6304 19.5093C26.2235 19.1675 25.6213 18.9966 24.8237 18.9966ZM25.3242 26.5039H22.7485V32.2534H25.3242C26.1217 32.2534 26.724 32.0256 27.1309 31.5698C27.5459 31.106 27.7534 30.3735 27.7534 29.3726V29.1284C27.7534 28.2007 27.55 27.5334 27.1431 27.1265C26.7362 26.7114 26.1299 26.5039 25.3242 26.5039Z" fill="black"/>
<rect x="220.5" y="156.5" width="50" height="14" transform="rotate(-90 220.5 156.5)" fill="#B2B3B3" stroke="black"/>
<rect x="156.5" y="156.5" width="50" height="14" transform="rotate(-90 156.5 156.5)" fill="#B2B3B3" stroke="black"/>
<rect x="77.5" y="276.5" width="276" height="14" transform="rotate(-90 77.5 276.5)" fill="#B2B3B3" stroke="black"/>
<rect x="547.5" y="276.5" width="276" height="14" transform="rotate(-90 547.5 276.5)" fill="#B2B3B3" stroke="black"/>
<rect x="91.5" y="209.5" width="456" height="14" fill="#B2B3B3" stroke="black"/>
<rect x="67.5" y="48.5" width="504" height="29" fill="#EBECEC" stroke="black"/>
<rect x="113.5" y="0.5" width="164" height="124" rx="4.5" fill="#B2B3B3" stroke="black"/>
<rect x="384.5" y="17.5" width="144" height="91" rx="4.5" fill="#B2B3B3" stroke="black"/>
<path d="M444.969 56.6562C444.844 57.1302 444.719 57.5365 444.594 57.875C444.474 58.2135 444.331 58.5365 444.164 58.8438C443.997 59.1458 443.815 59.388 443.617 59.5703C443.419 59.7526 443.185 59.8958 442.914 60C442.648 60.1042 442.346 60.1562 442.008 60.1562C441.523 60.1562 441.115 60.099 440.781 59.9844V58.2891C441.068 58.362 441.354 58.3984 441.641 58.3984C442.115 58.3984 442.477 58.2396 442.727 57.9219L439.766 48H441.75L443.641 55.2344L445.352 48H447.289L444.969 56.6562ZM451.734 56.6562H450.453V55.2188H451.734C452.417 55.2188 452.758 54.9245 452.758 54.3359C452.758 54.0391 452.643 53.8021 452.414 53.625C452.185 53.4479 451.833 53.3594 451.359 53.3594C450.307 53.3594 449.781 53.8672 449.781 54.8828H447.859C447.859 54.4661 447.932 54.0781 448.078 53.7188C448.224 53.3542 448.438 53.0312 448.719 52.75C449 52.4688 449.367 52.2474 449.82 52.0859C450.273 51.9245 450.786 51.8438 451.359 51.8438C452.422 51.8438 453.227 52.0677 453.773 52.5156C454.32 52.9635 454.594 53.5182 454.594 54.1797C454.594 54.5443 454.503 54.888 454.32 55.2109C454.143 55.5286 453.883 55.7708 453.539 55.9375C454.372 56.276 454.789 56.862 454.789 57.6953C454.789 58.4661 454.495 59.0703 453.906 59.5078C453.323 59.9401 452.474 60.1562 451.359 60.1562C450.203 60.1562 449.315 59.8854 448.695 59.3438C448.076 58.8021 447.766 58.0339 447.766 57.0391H449.68C449.68 58.1172 450.247 58.6562 451.383 58.6562C451.909 58.6562 452.286 58.5625 452.516 58.375C452.75 58.1875 452.867 57.9401 452.867 57.6328C452.867 57.3255 452.773 57.0859 452.586 56.9141C452.398 56.7422 452.115 56.6562 451.734 56.6562ZM463.836 56C463.836 56.1458 463.826 56.3594 463.805 56.6406H457.789C457.893 57.2292 458.13 57.6823 458.5 58C458.875 58.3177 459.359 58.4766 459.953 58.4766C460.755 58.4766 461.289 58.1849 461.555 57.6016H463.633C463.398 58.4245 462.951 59.0573 462.289 59.5C461.633 59.9375 460.828 60.1562 459.875 60.1562C458.724 60.1562 457.773 59.7682 457.023 58.9922C456.279 58.2161 455.906 57.2188 455.906 56C455.906 54.7812 456.279 53.7839 457.023 53.0078C457.773 52.2318 458.724 51.8438 459.875 51.8438C461.026 51.8438 461.974 52.2318 462.719 53.0078C463.464 53.7839 463.836 54.7812 463.836 56ZM461.242 53.9844C460.888 53.6771 460.432 53.5234 459.875 53.5234C459.318 53.5234 458.859 53.6771 458.5 53.9844C458.141 54.2865 457.909 54.7188 457.805 55.2812H461.938C461.833 54.7188 461.602 54.2865 461.242 53.9844ZM465.891 57.5703C466.083 57.0026 466.18 55.1458 466.18 52H472.273V60H470.352V53.7578H467.938C467.922 55.388 467.854 56.5781 467.734 57.3281C467.625 58.026 467.464 58.5703 467.25 58.9609C467.036 59.3516 466.773 59.6224 466.461 59.7734C466.148 59.9245 465.745 60 465.25 60H464.961V58.2422H465.055C465.466 58.2422 465.745 58.0182 465.891 57.5703ZM419.031 77.9922C418.26 78.7682 417.286 79.1562 416.109 79.1562C414.932 79.1562 413.958 78.7682 413.188 77.9922C412.417 77.2109 412.031 76.2135 412.031 75C412.031 73.7865 412.417 72.7917 413.188 72.0156C413.958 71.2344 414.932 70.8438 416.109 70.8438C417.286 70.8438 418.26 71.2344 419.031 72.0156C419.802 72.7917 420.188 73.7865 420.188 75C420.188 76.2135 419.802 77.2109 419.031 77.9922ZM414.555 76.7344C414.966 77.1771 415.484 77.3984 416.109 77.3984C416.734 77.3984 417.25 77.1771 417.656 76.7344C418.062 76.2917 418.266 75.7135 418.266 75C418.266 74.2865 418.062 73.7083 417.656 73.2656C417.25 72.8229 416.734 72.6016 416.109 72.6016C415.484 72.6016 414.966 72.8255 414.555 73.2734C414.148 73.7161 413.945 74.2917 413.945 75C413.945 75.7083 414.148 76.2865 414.555 76.7344ZM420.742 72.7578V71H427.461V72.7578H425.062V79H423.141V72.7578H420.742ZM436.828 75.0781C436.828 75.8698 436.648 76.5781 436.289 77.2031C435.935 77.8229 435.448 78.3047 434.828 78.6484C434.208 78.987 433.516 79.1562 432.75 79.1562C431.99 79.1562 431.299 78.987 430.68 78.6484C430.06 78.3047 429.57 77.8255 429.211 77.2109C428.852 76.5911 428.672 75.8906 428.672 75.1094V72.1328C428.672 71.5026 428.724 70.9557 428.828 70.4922C428.932 70.0234 429.078 69.6328 429.266 69.3203C429.458 69.0026 429.711 68.7396 430.023 68.5312C430.341 68.3177 430.682 68.1536 431.047 68.0391C431.417 67.9193 431.857 67.8229 432.367 67.75L434.258 67.4766C434.445 67.4505 434.573 67.3958 434.641 67.3125C434.714 67.2292 434.75 67.125 434.75 67H436.672C436.672 67.3854 436.63 67.7031 436.547 67.9531C436.464 68.2031 436.318 68.4115 436.109 68.5781C435.901 68.7448 435.651 68.8724 435.359 68.9609C435.073 69.0495 434.69 69.1276 434.211 69.1953L432.547 69.4297C432 69.5078 431.586 69.6276 431.305 69.7891C431.023 69.9453 430.818 70.1953 430.688 70.5391C430.557 70.8776 430.492 71.362 430.492 71.9922V72.25C431.029 71.4167 431.909 71 433.133 71C433.617 71 434.083 71.1016 434.531 71.3047C434.979 71.5026 435.372 71.7786 435.711 72.1328C436.049 72.4818 436.32 72.9141 436.523 73.4297C436.727 73.9401 436.828 74.4896 436.828 75.0781ZM431.195 76.7578C431.596 77.1849 432.115 77.3984 432.75 77.3984C433.385 77.3984 433.904 77.1823 434.305 76.75C434.711 76.3125 434.914 75.7552 434.914 75.0781C434.914 74.4062 434.714 73.8516 434.312 73.4141C433.911 72.9766 433.391 72.7578 432.75 72.7578C432.12 72.7578 431.602 72.974 431.195 73.4062C430.794 73.8385 430.594 74.3958 430.594 75.0781C430.594 75.7656 430.794 76.3255 431.195 76.7578ZM442.828 79.1562C441.875 79.1562 441.076 78.7682 440.43 77.9922V83H438.508V71H440.43V72.0078C441.076 71.2318 441.875 70.8438 442.828 70.8438C443.932 70.8438 444.849 71.2344 445.578 72.0156C446.307 72.7917 446.672 73.7865 446.672 75C446.672 76.2135 446.307 77.2109 445.578 77.9922C444.849 78.7682 443.932 79.1562 442.828 79.1562ZM441.039 76.7344C441.451 77.1771 441.969 77.3984 442.594 77.3984C443.219 77.3984 443.734 77.1771 444.141 76.7344C444.547 76.2917 444.75 75.7135 444.75 75C444.75 74.2865 444.547 73.7083 444.141 73.2656C443.734 72.8229 443.219 72.6016 442.594 72.6016C441.969 72.6016 441.451 72.8255 441.039 73.2734C440.633 73.7161 440.43 74.2917 440.43 75C440.43 75.7083 440.633 76.2865 441.039 76.7344ZM453.188 79V77.8125C452.698 78.7083 451.849 79.1562 450.641 79.1562C450.161 79.1562 449.724 79.0807 449.328 78.9297C448.938 78.7786 448.609 78.526 448.344 78.1719C448.083 77.8125 447.953 77.375 447.953 76.8594C447.953 76.4479 448.026 76.0911 448.172 75.7891C448.323 75.487 448.521 75.2526 448.766 75.0859C449.01 74.9193 449.289 74.7786 449.602 74.6641C449.914 74.5443 450.232 74.4609 450.555 74.4141C450.878 74.3672 451.195 74.3151 451.508 74.2578C451.82 74.2005 452.099 74.1458 452.344 74.0938C452.589 74.0365 452.784 73.9453 452.93 73.8203C453.081 73.6953 453.156 73.5391 453.156 73.3516C453.156 73.0495 453.016 72.8099 452.734 72.6328C452.458 72.4505 452.107 72.3594 451.68 72.3594C451.227 72.3594 450.865 72.4766 450.594 72.7109C450.328 72.9453 450.195 73.2812 450.195 73.7188H448.195C448.195 73.2188 448.292 72.7786 448.484 72.3984C448.677 72.0182 448.94 71.7188 449.273 71.5C449.607 71.276 449.974 71.112 450.375 71.0078C450.781 70.8984 451.216 70.8438 451.68 70.8438C452.138 70.8438 452.562 70.8932 452.953 70.9922C453.349 71.0859 453.708 71.2318 454.031 71.4297C454.354 71.6276 454.609 71.8984 454.797 72.2422C454.984 72.5807 455.078 72.9766 455.078 73.4297V79H453.188ZM449.922 76.7266C449.922 76.9974 450.023 77.2057 450.227 77.3516C450.435 77.4922 450.706 77.5625 451.039 77.5625C451.633 77.5625 452.138 77.3984 452.555 77.0703C452.977 76.7422 453.188 76.2865 453.188 75.7031V75.3359C452.969 75.4297 452.695 75.513 452.367 75.5859C452.039 75.6536 451.742 75.7135 451.477 75.7656C451.211 75.8125 450.953 75.8724 450.703 75.9453C450.458 76.0182 450.266 76.1198 450.125 76.25C449.99 76.375 449.922 76.5339 449.922 76.7266ZM462.508 79L459.07 74.7891V79H457.148V71H459.07V74.4844L462.172 71H464.703L461.18 74.6328L464.914 79H462.508ZM472.156 77.9922C471.385 78.7682 470.411 79.1562 469.234 79.1562C468.057 79.1562 467.083 78.7682 466.312 77.9922C465.542 77.2109 465.156 76.2135 465.156 75C465.156 73.7865 465.542 72.7917 466.312 72.0156C467.083 71.2344 468.057 70.8438 469.234 70.8438C470.411 70.8438 471.385 71.2344 472.156 72.0156C472.927 72.7917 473.312 73.7865 473.312 75C473.312 76.2135 472.927 77.2109 472.156 77.9922ZM467.68 76.7344C468.091 77.1771 468.609 77.3984 469.234 77.3984C469.859 77.3984 470.375 77.1771 470.781 76.7344C471.188 76.2917 471.391 75.7135 471.391 75C471.391 74.2865 471.188 73.7083 470.781 73.2656C470.375 72.8229 469.859 72.6016 469.234 72.6016C468.609 72.6016 468.091 72.8255 467.68 73.2734C467.273 73.7161 467.07 74.2917 467.07 75C467.07 75.7083 467.273 76.2865 467.68 76.7344ZM474.992 79V71H479.188C479.938 71 480.531 71.1797 480.969 71.5391C481.411 71.8932 481.633 72.4115 481.633 73.0938C481.633 73.8594 481.292 74.4089 480.609 74.7422C481.021 74.8932 481.341 75.1302 481.57 75.4531C481.805 75.7708 481.922 76.1641 481.922 76.6328C481.922 77.4141 481.688 78.0052 481.219 78.4062C480.75 78.8021 480.083 79 479.219 79H474.992ZM476.836 72.4375V74.1875H478.625C479.047 74.1875 479.346 74.1146 479.523 73.9688C479.706 73.8177 479.797 73.6016 479.797 73.3203C479.797 73.013 479.708 72.7891 479.531 72.6484C479.354 72.5078 479.052 72.4375 478.625 72.4375H476.836ZM478.914 75.625H476.836V77.5625H478.914C479.638 77.5625 480 77.2318 480 76.5703C480 75.9401 479.638 75.625 478.914 75.625ZM489.273 79L485.836 74.7891V79H483.914V71H485.836V74.4844L488.938 71H491.469L487.945 74.6328L491.68 79H489.273ZM494.805 71V76.9844L497.938 71H500.406V79H498.562V73.0312L495.43 79H492.961V71H494.805Z" fill="black"/>
<path fill-rule="evenodd" clip-rule="evenodd" d="M171 109.427V102.298H176.241V103.478H172.464V105.036H176.005V106.216H172.464V108.152H176.429V109.332H171V109.427ZM177.61 109.427V102.298H180.631C181.387 102.298 181.953 102.345 182.284 102.486C182.614 102.628 182.898 102.864 183.134 103.147C183.322 103.478 183.464 103.856 183.464 104.28C183.464 104.8 183.322 105.272 182.992 105.602C182.662 105.933 182.189 106.169 181.576 106.263C181.906 106.452 182.142 106.641 182.331 106.877C182.52 107.113 182.803 107.491 183.134 108.057L183.983 109.427H182.284L181.245 107.869C180.867 107.302 180.631 106.972 180.49 106.83C180.348 106.688 180.206 106.594 180.065 106.547C179.923 106.499 179.687 106.452 179.357 106.452H179.073V109.427H177.61ZM179.073 105.319H180.112C180.82 105.319 181.245 105.272 181.387 105.225C181.576 105.178 181.67 105.083 181.812 104.941C181.906 104.8 181.953 104.611 181.953 104.422C181.953 104.186 181.906 103.997 181.764 103.856C181.623 103.714 181.434 103.62 181.245 103.572C181.151 103.572 180.773 103.525 180.206 103.525H179.073V105.319ZM188.091 106.83V105.65H191.16V108.482C190.877 108.766 190.404 109.049 189.838 109.238C189.271 109.474 188.705 109.568 188.091 109.568C187.336 109.568 186.722 109.427 186.155 109.096C185.589 108.766 185.211 108.341 184.928 107.774C184.644 107.208 184.503 106.547 184.503 105.886C184.503 105.13 184.644 104.469 184.975 103.903C185.305 103.336 185.73 102.864 186.344 102.581C186.816 102.345 187.383 102.203 188.044 102.203C188.941 102.203 189.602 102.392 190.121 102.77C190.593 103.147 190.924 103.667 191.065 104.328L189.649 104.611C189.555 104.28 189.366 103.997 189.082 103.761C188.799 103.572 188.469 103.478 188.044 103.478C187.43 103.478 186.911 103.667 186.533 104.092C186.155 104.469 185.966 105.083 185.966 105.886C185.966 106.736 186.155 107.349 186.533 107.774C186.911 108.199 187.383 108.388 187.997 108.388C188.28 108.388 188.61 108.341 188.894 108.199C189.177 108.105 189.46 107.916 189.649 107.774V106.877H188.091V106.83ZM192.529 102.345H193.945V106.216C193.945 106.83 193.945 107.208 193.993 107.397C194.04 107.68 194.181 107.916 194.417 108.105C194.654 108.294 194.937 108.388 195.362 108.388C195.787 108.388 196.07 108.294 196.259 108.152C196.448 107.963 196.589 107.774 196.636 107.538C196.684 107.302 196.684 106.877 196.684 106.311V102.392H198.147V106.122C198.147 106.972 198.1 107.585 198.053 107.916C197.958 108.246 197.817 108.577 197.628 108.813C197.439 109.049 197.156 109.238 196.778 109.379C196.448 109.521 195.975 109.616 195.409 109.616C194.748 109.616 194.229 109.521 193.851 109.379C193.52 109.238 193.237 109.002 193.001 108.766C192.812 108.53 192.671 108.246 192.623 107.963C192.529 107.538 192.482 106.972 192.482 106.169V102.345H192.529ZM206.079 109.427H204.521L203.907 107.821H201.074L200.508 109.427H198.997L201.735 102.298H203.246L206.079 109.427ZM203.435 106.641L202.444 103.997L201.499 106.641H203.435ZM206.834 109.427V102.298H209.856C210.611 102.298 211.178 102.345 211.508 102.486C211.839 102.628 212.122 102.864 212.358 103.147C212.547 103.478 212.689 103.856 212.689 104.28C212.689 104.8 212.547 105.272 212.217 105.602C211.886 105.933 211.414 106.169 210.8 106.263C211.131 106.452 211.367 106.641 211.556 106.877C211.744 107.113 212.028 107.491 212.358 108.057L213.208 109.427H211.508L210.47 107.869C210.092 107.302 209.856 106.972 209.714 106.83C209.573 106.688 209.431 106.594 209.289 106.547C209.148 106.499 208.912 106.452 208.581 106.452H208.298V109.427H206.834ZM208.298 105.319H209.337C210.045 105.319 210.47 105.272 210.611 105.225C210.8 105.178 210.895 105.083 211.036 104.941C211.131 104.8 211.178 104.611 211.178 104.422C211.178 104.186 211.131 103.997 210.989 103.856C210.847 103.714 210.659 103.62 210.47 103.572C210.375 103.572 209.998 103.525 209.431 103.525H208.298V105.319ZM214.011 102.345H216.607C217.174 102.345 217.646 102.392 217.977 102.486C218.401 102.628 218.732 102.817 219.062 103.147C219.346 103.478 219.582 103.856 219.723 104.28C219.865 104.753 219.959 105.272 219.959 105.98C219.959 106.547 219.865 107.066 219.723 107.491C219.535 108.01 219.299 108.435 218.968 108.766C218.732 109.002 218.401 109.191 217.977 109.332C217.646 109.427 217.221 109.474 216.702 109.474H214.011V102.345ZM215.474 103.525V108.246H216.56C216.938 108.246 217.268 108.246 217.41 108.199C217.646 108.152 217.835 108.057 217.977 107.916C218.118 107.774 218.26 107.538 218.354 107.208C218.449 106.877 218.496 106.452 218.496 105.886C218.496 105.319 218.449 104.894 218.354 104.611C218.26 104.328 218.118 104.092 217.929 103.903C217.74 103.761 217.552 103.62 217.268 103.572C217.08 103.525 216.655 103.525 216.088 103.525H215.474Z" fill="#313131"/>
<path fill-rule="evenodd" clip-rule="evenodd" d="M183.842 15C183.747 17.2662 183.653 19.5324 183.558 21.7514C182.095 22.8845 180.584 23.9704 179.12 25.1035C179.12 27.5113 179.12 29.9192 179.12 32.3742C180.631 31.9021 182.142 31.9021 183.653 31.9021C183.889 37.5204 184.031 43.1859 184.219 48.8042C184.314 49.5124 184.361 50.2678 184.455 50.976C183.936 51.4954 183.889 51.9203 182.85 52.5812C181.717 53.195 181.434 53.1478 181.151 54.6114C181.292 56.3583 181.292 56.4999 182.52 57.4441C183.37 57.6802 183.747 57.8691 184.597 57.4914C185.116 70.6165 185.589 83.6944 186.108 96.8195C186.344 96.7723 186.533 96.6778 186.769 96.6306C186.769 96.4418 186.769 96.2529 186.769 96.0641C186.769 95.8752 186.769 95.6392 186.769 95.4503C186.769 95.0726 186.769 94.7421 186.722 94.3644C186.391 81.9947 186.061 69.625 185.73 57.2553C186.533 56.736 187.194 56.2166 187.949 55.6029C188.61 58.1051 188.799 60.3713 188.846 63.0152C188.657 63.8651 188.469 64.7621 188.28 65.6119C187.902 68.067 187.619 70.4276 187.524 72.8827C187.477 73.4492 187.43 74.063 187.43 74.6295C187.666 74.6295 187.902 74.6295 188.138 74.6295C188.421 76.4708 188.657 78.3121 188.799 80.1534C188.091 83.5527 188.516 86.3383 188.941 89.6432L189.46 93.9867C189.554 94.6949 187.996 95.4975 188.044 96.0169C188.044 96.5834 188.988 96.9139 189.46 97.0555C190.027 97.1028 189.979 97.2444 191.207 96.9611C192.623 96.6306 192.623 96.3946 192.482 95.3559C192.387 94.7421 192.198 94.6477 192.151 93.7979C192.104 92.6176 192.246 90.7763 192.293 89.7376C192.482 87.613 192.954 85.6301 193.237 83.5055C193.284 82.4668 193.379 81.7587 193.143 80.7672C193.237 80.2951 193.379 79.8701 193.473 79.398C193.662 78.501 193.804 77.6039 193.898 76.7069C193.945 76.282 193.945 75.9043 193.992 75.4794C194.276 75.4794 194.559 75.5266 194.842 75.5266C194.889 76.7541 194.984 77.7456 195.267 78.9259C195.409 79.5397 195.55 80.2006 195.692 80.8144C195.645 81.2865 195.645 81.7587 195.598 82.2308C195.55 82.7501 195.503 83.2222 195.503 83.7416C195.55 84.3553 195.692 84.9219 195.786 85.4884C195.928 86.2439 196.07 86.9992 196.211 87.7546C196.542 89.4071 196.778 93.5618 196.684 94.3644C196.589 94.7421 196.353 95.0254 196.259 95.4503C196.211 95.7336 196.211 95.9224 196.259 96.1585C196.353 96.5362 196.778 96.7251 197.344 96.7723C198.478 96.9139 198.147 96.9139 199.327 96.8667C199.658 96.8667 200.13 96.7723 200.413 96.489C200.602 96.3001 200.885 95.828 200.744 95.5919C200.366 94.9782 199.705 94.6477 199.186 94.2228C199.186 94.2228 199.186 93.609 199.233 93.5146C199.327 93.0897 199.941 89.7376 199.988 89.171C200.319 87.9907 200.366 86.7632 200.508 85.5829C200.602 83.8832 200.508 82.8445 200.036 81.3337C200.13 79.2092 200.177 77.179 200.413 75.1489L201.452 79.0675L202.16 80.4839L202.868 81.8059L203.01 80.5311L203.104 79.1147L201.594 71.0886C202.066 71.3247 202.491 71.5135 202.963 71.7496C205.04 69.1529 206.645 66.6034 206.929 63.0152C207.118 59.2382 206.976 55.414 206.551 51.6842C206.504 51.0704 206.457 50.5039 206.409 49.8901L203.388 50.4095C202.963 49.0875 202.491 48.1433 200.744 47.199C199.611 46.5852 198.572 46.2548 197.25 45.8771C197.203 46.4908 197.722 43.0915 197.722 41.6279C197.439 40.4476 197.014 39.3617 196.447 38.2286C194.937 38.087 193.473 37.9925 191.915 38.2286C191.49 39.4089 191.018 40.4476 190.64 41.7223C190.782 43.2332 191.112 44.6023 191.301 46.0659C190.451 46.3964 189.46 46.538 188.657 46.9629C187.383 47.5295 186.533 48.3321 185.447 49.2764C185.164 43.4692 184.928 37.7093 184.692 31.9021C186.769 32.2798 188.752 32.7519 190.829 33.3185C192.812 33.9795 194.795 34.6877 196.731 35.4903C199.894 36.3873 202.538 36.9539 205.748 36.8122C209.903 36.1985 206.693 36.1985 208.062 33.3185C209.195 32.5159 210.517 32.1382 211.839 31.0523C209.809 30.1553 208.817 29.7776 210.281 27.2753C210.8 26.331 211.319 25.3868 211.839 24.4897C210.753 25.0563 209.667 25.6701 208.581 26.2366C207.448 26.7559 206.787 27.0392 205.607 27.0864C203.246 27.2753 203.482 27.0392 203.718 29.7303C201.31 29.6831 199.469 29.1166 197.156 28.4084C194.842 27.5113 192.482 26.6615 190.168 25.7645C188.232 25.2451 186.533 24.773 184.503 24.773C184.361 22.0347 184.455 19.2019 184.078 16.5108C183.983 16.0387 183.889 15.5193 183.842 15Z" fill="#313131"/>
<path fill-rule="evenodd" clip-rule="evenodd" d="M173.88 98.5195H217.126C217.173 98.5195 217.221 98.5667 217.221 98.614V99.4638C217.221 99.511 217.173 99.5582 217.126 99.5582H173.88C173.832 99.5582 173.785 99.511 173.785 99.4638V98.614C173.785 98.5195 173.832 98.5195 173.88 98.5195Z" fill="#313131"/>
<rect x="153.5" y="156.5" width="84" height="108.677" fill="#B2B3B3" stroke="black"/>
<rect x="173.608" y="171.125" width="44.6989" height="28.2473" fill="#ACDBF1" stroke="black"/>
<circle cx="195.043" cy="224.546" r="4.98387" fill="#00A85A" stroke="black"/>
<circle cx="208.753" cy="224.546" r="4.98387" fill="#00A65A" stroke="black"/>
<circle cx="208.753" cy="238.257" r="4.98387" fill="#DA2C1C" stroke="black"/>
<circle cx="195.043" cy="238.257" r="4.98387" fill="#DB2C1C" stroke="black"/>
<circle cx="182.247" cy="238.257" r="4.98387" fill="#DB2C1C" stroke="black"/>
<circle cx="182.247" cy="224.546" r="4.98387" fill="#00A85B" stroke="black"/>
</svg>
