<svg width="686" height="340" viewBox="0 0 686 340" fill="none" xmlns="http://www.w3.org/2000/svg">
<rect x="80.5" y="17.5" width="32" height="118" fill="#A59590" stroke="black"/>
<path d="M109 246.5L141 156H228.5V283.5H164.5V207.5L145.5 259.5L109 246.5Z" fill="#E7E3E2" stroke="black"/>
<rect x="112.5" y="0.5" width="149" height="156" rx="4.5" fill="#A59590" stroke="black"/>
<path fill-rule="evenodd" clip-rule="evenodd" d="M171.981 20.1055C171.864 22.8995 171.748 25.6935 171.631 28.4294C169.827 29.8264 167.964 31.1652 166.16 32.5622C166.16 35.5308 166.16 38.4995 166.16 41.5264C168.022 40.9443 169.885 40.9443 171.748 40.9443C171.981 47.8712 172.213 54.798 172.388 61.7831C172.504 62.7144 172.563 63.5876 172.679 64.4607C172.039 65.101 171.981 65.6249 170.642 66.4398C169.245 67.1965 168.895 67.1383 168.546 68.9428C168.721 71.0965 168.721 71.2712 170.234 72.4353C171.282 72.7264 171.748 72.9592 172.795 72.4935C173.436 88.6756 174.018 104.8 174.658 120.982C174.949 120.923 175.182 120.807 175.473 120.749C175.473 120.516 175.473 120.283 175.473 120.05C175.473 119.817 175.473 119.526 175.473 119.294C175.473 118.828 175.473 118.362 175.415 117.955C175.007 102.704 174.6 87.4533 174.193 72.2025C175.182 71.5622 175.997 70.9219 176.928 70.1652C177.743 73.2503 177.976 76.0443 178.034 79.304C177.801 80.3518 177.569 81.4577 177.336 82.5055C176.87 85.5324 176.463 88.4428 176.404 91.4697C176.346 92.1682 176.288 92.9249 176.288 93.6234C176.579 93.6234 176.87 93.6234 177.161 93.6234C177.51 95.8936 177.801 98.1637 177.976 100.492C177.103 104.683 177.627 108.117 178.151 112.192L178.791 117.547C178.907 118.42 176.987 119.41 177.045 120.05C177.045 120.749 178.209 121.156 178.791 121.331C179.49 121.389 179.431 121.564 180.945 121.214C182.691 120.807 182.691 120.516 182.516 119.235C182.4 118.479 182.167 118.362 182.109 117.314C182.051 115.859 182.225 113.647 182.284 112.308C182.516 109.689 183.098 107.244 183.448 104.625C183.506 103.344 183.622 102.471 183.331 101.249C183.448 100.667 183.622 100.143 183.739 99.5607C183.972 98.4548 184.146 97.3488 184.263 96.2428C184.321 95.7189 184.321 95.2533 184.379 94.7294C184.728 94.7294 185.078 94.7876 185.427 94.7876C185.485 96.301 185.601 97.5234 185.951 98.9786C186.125 99.7354 186.3 100.55 186.475 101.307C186.416 101.889 186.416 102.471 186.358 103.053C186.3 103.694 186.242 104.276 186.242 104.916C186.3 105.673 186.475 106.371 186.591 107.07C186.766 108.001 186.94 108.932 187.115 109.864C187.522 111.901 187.813 117.023 187.697 118.013C187.581 118.479 187.29 118.828 187.173 119.352C187.115 119.701 187.115 119.934 187.173 120.225C187.29 120.691 187.813 120.923 188.512 120.982C189.909 121.156 189.501 121.156 190.957 121.098C191.364 121.098 191.946 120.982 192.295 120.632C192.528 120.4 192.878 119.817 192.703 119.526C192.237 118.77 191.422 118.362 190.782 117.838C190.782 117.838 190.782 117.082 190.84 116.965C190.957 116.441 191.713 112.308 191.772 111.61C192.179 110.155 192.237 108.641 192.412 107.186C192.528 105.091 192.412 103.81 191.83 101.947C191.946 99.3279 192.004 96.8249 192.295 94.3219L193.576 99.1533L194.449 100.9L195.322 102.529L195.497 100.958L195.613 99.2115L193.751 89.3159C194.333 89.607 194.857 89.8398 195.439 90.1309C198 86.9294 199.979 83.7861 200.328 79.3622C200.561 74.7055 200.387 69.9906 199.863 65.3921C199.804 64.6353 199.746 63.9368 199.688 63.1801L196.021 63.8204C195.497 62.1906 194.915 61.0264 192.761 59.8622C191.364 59.1055 190.084 58.698 188.454 58.2323C188.395 58.9891 189.036 54.798 189.036 52.9935C188.687 51.5383 188.163 50.1995 187.464 48.8025C185.601 48.6279 183.797 48.5114 181.876 48.8025C181.352 50.2577 180.77 51.5383 180.304 53.11C180.479 54.9726 180.887 56.6607 181.119 58.4652C180.072 58.8727 178.849 59.0473 177.86 59.5712C176.288 60.2697 175.24 61.2592 173.901 62.4234C173.61 55.2637 173.261 48.1622 172.97 41.0025C175.531 41.4682 177.976 42.0503 180.537 42.7488C182.982 43.5637 185.427 44.4368 187.813 45.4264C191.713 46.5323 194.973 47.2309 198.931 47.0562C204.054 46.2995 200.096 46.2995 201.784 42.7488C203.181 41.7592 204.81 41.2935 206.44 39.9547C203.937 38.8488 202.715 38.3831 204.519 35.298C205.16 34.1338 205.8 32.9697 206.44 31.8637C205.101 32.5622 203.763 33.3189 202.424 34.0174C201.027 34.6577 200.212 35.007 198.757 35.0652C195.846 35.298 196.137 35.007 196.428 38.3249C193.46 38.2667 191.19 37.5682 188.337 36.695C185.485 35.5891 182.575 34.5413 179.722 33.4353C177.336 32.7368 175.24 32.2129 172.737 32.2129C172.563 28.8368 172.679 25.3443 172.213 22.0264C172.155 21.3861 172.097 20.7458 171.981 20.1055Z" fill="#313131"/>
<path fill-rule="evenodd" clip-rule="evenodd" d="M159.698 123.02H213.018C213.076 123.02 213.134 123.078 213.134 123.136V124.184C213.134 124.242 213.076 124.3 213.018 124.3H159.698C159.64 124.3 159.582 124.242 159.582 124.184V123.136C159.582 123.078 159.64 123.02 159.698 123.02Z" fill="#313131"/>
<path fill-rule="evenodd" clip-rule="evenodd" d="M211.737 19C210.748 19 209.874 19.4075 209.176 20.0478C208.477 20.8045 208.07 21.6194 208.07 22.7254C208.07 23.7149 208.477 24.5299 209.176 25.2284C209.874 25.9851 210.748 26.2761 211.737 26.2761C212.727 26.2761 213.658 25.9851 214.357 25.2284C215.055 24.5299 215.404 23.6567 215.404 22.7254C215.404 21.6776 215.055 20.8045 214.357 20.0478C213.658 19.4075 212.727 19 211.737 19ZM209.642 20.5716C210.224 20.0478 210.98 19.6985 211.737 19.6985C212.552 19.6985 213.309 20.0478 213.833 20.5716C214.415 21.2119 214.706 21.8522 214.706 22.7254C214.706 23.5403 214.415 24.297 213.833 24.8209C213.251 25.403 212.494 25.694 211.737 25.694C210.922 25.694 210.166 25.403 209.642 24.8209C209.06 24.297 208.769 23.5403 208.827 22.7254C208.71 21.8522 209.06 21.1537 209.642 20.5716Z" fill="#313131"/>
<path fill-rule="evenodd" clip-rule="evenodd" d="M210.225 24.532V21.0977H211.68C212.029 21.0977 212.32 21.1559 212.495 21.2141C212.669 21.2723 212.786 21.3887 212.902 21.5633C213.019 21.738 213.077 21.9126 213.077 22.0872C213.077 22.32 213.019 22.5529 212.844 22.7275C212.669 22.9021 212.495 23.0186 212.146 23.0186C212.32 23.0768 212.437 23.1932 212.495 23.3096C212.611 23.426 212.728 23.6006 212.902 23.8917L213.31 24.532H212.495L211.971 23.7753C211.796 23.4842 211.68 23.3678 211.622 23.2514C211.563 23.1932 211.505 23.135 211.389 23.135C211.331 23.135 211.214 23.0768 211.04 23.0768H210.923V24.532H210.225ZM210.923 22.5529H211.447C211.796 22.5529 211.971 22.5529 212.087 22.4947C212.146 22.4365 212.262 22.4365 212.262 22.3783C212.32 22.32 212.32 22.2036 212.32 22.1454C212.32 22.029 212.262 21.9126 212.204 21.8544C212.146 21.7962 212.029 21.738 211.971 21.738C211.913 21.738 211.738 21.738 211.447 21.738H210.923V22.5529Z" fill="#313131"/>
<path fill-rule="evenodd" clip-rule="evenodd" d="M160.979 135.825L159 127.327H160.746L162.027 133.206L163.599 127.327H165.636L167.149 133.264L168.43 127.327H170.176L168.139 135.825H166.276L164.588 129.481L162.9 135.825H160.979ZM171.457 135.825V127.327H177.743V128.782H173.145V130.645H177.394V132.1H173.145V134.428H177.918V135.884H171.457V135.825ZM185.31 132.682L186.999 133.206C186.766 134.137 186.3 134.836 185.718 135.302C185.136 135.767 184.379 136 183.448 136C182.342 136 181.41 135.593 180.654 134.836C179.897 134.079 179.548 133.031 179.548 131.693C179.548 130.296 179.897 129.19 180.654 128.375C181.41 127.618 182.342 127.211 183.564 127.211C184.612 127.211 185.427 127.502 186.125 128.142C186.533 128.491 186.824 129.015 186.999 129.714L185.31 130.121C185.194 129.655 185.019 129.306 184.67 129.073C184.321 128.84 183.972 128.666 183.506 128.666C182.866 128.666 182.342 128.899 181.993 129.364C181.585 129.83 181.41 130.528 181.41 131.576C181.41 132.624 181.585 133.439 181.993 133.846C182.4 134.312 182.866 134.545 183.506 134.545C183.972 134.545 184.379 134.428 184.67 134.079C184.903 133.788 185.136 133.322 185.31 132.682ZM188.512 131.634C188.512 130.761 188.628 130.063 188.919 129.422C189.094 129.015 189.385 128.608 189.734 128.258C190.084 127.909 190.433 127.676 190.84 127.502C191.364 127.269 192.004 127.152 192.703 127.152C193.984 127.152 194.973 127.56 195.73 128.317C196.487 129.073 196.836 130.179 196.836 131.576C196.836 132.973 196.487 134.021 195.73 134.836C194.973 135.593 193.984 136 192.703 136C191.422 136 190.433 135.593 189.676 134.836C188.861 134.021 188.512 132.973 188.512 131.634ZM190.258 131.576C190.258 132.566 190.491 133.264 190.957 133.788C191.422 134.312 191.946 134.545 192.645 134.545C193.343 134.545 193.867 134.312 194.333 133.788C194.799 133.264 194.973 132.566 194.973 131.576C194.973 130.587 194.74 129.888 194.333 129.364C193.925 128.899 193.343 128.666 192.645 128.666C191.946 128.666 191.364 128.899 190.899 129.422C190.491 129.83 190.258 130.587 190.258 131.576ZM198.524 135.825V127.327H200.212L203.704 133.031V127.327H205.276V135.825H203.53L200.096 130.237V135.825H198.524ZM209.467 135.825V128.724H206.964V127.269H213.716V128.724H211.213V135.825H209.467Z" fill="#313131"/>
<path d="M294 246.5L326 156H413.5V283.5H349.5V207.5L330.5 259.5L294 246.5Z" fill="#E7E3E2" stroke="black"/>
<rect x="593.5" y="0.5" width="92" height="119" fill="#A59590" stroke="black"/>
<rect x="615.5" y="16.5" width="49" height="31" fill="#ACDBF1" stroke="black"/>
<circle cx="639" cy="75" r="5.5" fill="#00A85A" stroke="black"/>
<circle cx="654" cy="75" r="5.5" fill="#00A65A" stroke="black"/>
<circle cx="654" cy="90" r="5.5" fill="#DA2C1C" stroke="black"/>
<circle cx="639" cy="90" r="5.5" fill="#DB2C1C" stroke="black"/>
<circle cx="625" cy="90" r="5.5" fill="#DB2C1C" stroke="black"/>
<circle cx="625" cy="75" r="5.5" fill="#00A85B" stroke="black"/>
<circle cx="25" cy="25" r="24.5" stroke="black"/>
<path d="M24.2012 17.2266V16.25H27.2041V35H24.2012V22.5H20.6978V19.9976H21.4058C22.3986 19.9976 23.1107 19.7819 23.542 19.3506C23.9814 18.9193 24.2012 18.2113 24.2012 17.2266Z" fill="black"/>
<circle cx="538" cy="25" r="24.5" stroke="black"/>
<path d="M542.694 21.3525C542.694 22.0443 542.584 22.7197 542.365 23.3789C542.153 24.0299 541.868 24.62 541.51 25.1489C541.16 25.6698 540.77 26.1784 540.338 26.6748C539.915 27.1712 539.472 27.6514 539.008 28.1152C538.552 28.571 538.125 29.0145 537.726 29.4458C537.335 29.8771 536.986 30.3369 536.676 30.8252C536.375 31.3135 536.168 31.7896 536.054 32.2534H542.951V35H532.794V33.5474C532.794 32.9289 532.872 32.3307 533.026 31.7529C533.189 31.1751 533.401 30.6502 533.661 30.1782C533.93 29.7062 534.235 29.2464 534.577 28.7988C534.927 28.3512 535.293 27.9321 535.675 27.5415C536.058 27.1427 536.44 26.7521 536.823 26.3696C537.205 25.979 537.567 25.5884 537.909 25.1978C538.259 24.8071 538.564 24.4165 538.825 24.0259C539.093 23.6353 539.305 23.2121 539.459 22.7563C539.622 22.2925 539.704 21.8245 539.704 21.3525C539.704 20.4736 539.537 19.8226 539.203 19.3994C538.878 18.9681 538.426 18.7524 537.848 18.7524C537.23 18.7524 536.758 18.964 536.432 19.3872C536.115 19.8104 535.956 20.5143 535.956 21.499V23.0005H532.953V21.2549C532.953 20.1481 533.173 19.1919 533.612 18.3862C534.06 17.5806 534.646 16.9824 535.37 16.5918C536.103 16.2012 536.929 16.0059 537.848 16.0059C539.248 16.0059 540.403 16.4738 541.315 17.4097C542.235 18.3374 542.694 19.6517 542.694 21.3525Z" fill="black"/>
<circle cx="138" cy="315" r="24.5" stroke="black"/>
<path d="M132.244 325L136.126 306.25H140.63L144.5 325H141.473L140.655 320.752H136.102L135.271 325H132.244ZM136.626 318.005H140.13L138.372 308.972L136.626 318.005Z" fill="black"/>
<circle cx="319" cy="315" r="24.5" stroke="black"/>
<path d="M313.746 325V306.25H319.08C320.659 306.25 321.916 306.653 322.852 307.458C323.788 308.256 324.256 309.395 324.256 310.876V311.121C324.256 312.846 323.511 314.062 322.022 314.771C322.868 315.129 323.532 315.682 324.012 316.431C324.5 317.171 324.744 318.07 324.744 319.128V319.629C324.744 321.338 324.276 322.66 323.34 323.596C322.404 324.532 321.151 325 319.581 325H313.746ZM318.824 308.997H316.749V313.745H318.824C319.621 313.745 320.223 313.558 320.63 313.184C321.045 312.801 321.253 312.199 321.253 311.377V311.121C321.253 310.38 321.045 309.843 320.63 309.509C320.223 309.167 319.621 308.997 318.824 308.997ZM319.324 316.504H316.749V322.253H319.324C320.122 322.253 320.724 322.026 321.131 321.57C321.546 321.106 321.753 320.374 321.753 319.373V319.128C321.753 318.201 321.55 317.533 321.143 317.126C320.736 316.711 320.13 316.504 319.324 316.504Z" fill="black"/>
<path d="M332.656 40V34.5625H328.781V40H327.188V28H328.781V33.0859H332.656V28H334.258V40H332.656ZM341.633 40V38.6562C341.378 39.1615 341.013 39.5391 340.539 39.7891C340.065 40.0339 339.526 40.1562 338.922 40.1562C338.427 40.1562 337.979 40.0807 337.578 39.9297C337.182 39.7786 336.854 39.5286 336.594 39.1797C336.333 38.8255 336.203 38.3958 336.203 37.8906C336.203 37.4219 336.302 37.0286 336.5 36.7109C336.698 36.388 336.956 36.1484 337.273 35.9922C337.591 35.8359 337.94 35.7135 338.32 35.625C338.706 35.5312 339.089 35.4609 339.469 35.4141C339.854 35.362 340.206 35.3047 340.523 35.2422C340.841 35.1745 341.099 35.0677 341.297 34.9219C341.495 34.776 341.594 34.5807 341.594 34.3359C341.594 33.9557 341.432 33.6589 341.109 33.4453C340.786 33.2266 340.372 33.1172 339.867 33.1172C339.331 33.1172 338.904 33.2526 338.586 33.5234C338.268 33.7943 338.109 34.1823 338.109 34.6875H336.445C336.445 34.2865 336.508 33.9245 336.633 33.6016C336.758 33.2786 336.927 33.0104 337.141 32.7969C337.354 32.5781 337.607 32.3984 337.898 32.2578C338.195 32.112 338.505 32.0078 338.828 31.9453C339.156 31.8776 339.503 31.8438 339.867 31.8438C340.315 31.8438 340.732 31.8906 341.117 31.9844C341.503 32.0781 341.854 32.224 342.172 32.4219C342.49 32.6146 342.74 32.8802 342.922 33.2188C343.104 33.5573 343.195 33.9505 343.195 34.3984V40H341.633ZM337.836 37.7891C337.836 38.1224 337.964 38.3776 338.219 38.5547C338.479 38.7266 338.82 38.8125 339.242 38.8125C339.904 38.8125 340.466 38.6276 340.93 38.2578C341.398 37.8828 341.633 37.3646 341.633 36.7031V36.125C341.398 36.2396 341.096 36.3385 340.727 36.4219C340.357 36.5 340.016 36.5651 339.703 36.6172C339.391 36.6641 339.086 36.7292 338.789 36.8125C338.497 36.8906 338.266 37.0104 338.094 37.1719C337.922 37.3281 337.836 37.5339 337.836 37.7891ZM345.422 40V32H352.234V40H350.633V33.4688H347.016V40H345.422ZM358.844 40.1562C358.312 40.1562 357.82 40.0391 357.367 39.8047C356.919 39.5651 356.536 39.2292 356.219 38.7969V44H354.625V32H356.219V33.2031C356.536 32.7708 356.919 32.4375 357.367 32.2031C357.82 31.9635 358.312 31.8438 358.844 31.8438C359.948 31.8438 360.865 32.2344 361.594 33.0156C362.323 33.7917 362.688 34.7865 362.688 36C362.688 37.2135 362.323 38.2109 361.594 38.9922C360.865 39.7682 359.948 40.1562 358.844 40.1562ZM356.906 37.9453C357.37 38.4401 357.953 38.6875 358.656 38.6875C359.359 38.6875 359.94 38.4401 360.398 37.9453C360.857 37.4453 361.086 36.7969 361.086 36C361.086 35.2031 360.857 34.5573 360.398 34.0625C359.94 33.5625 359.359 33.3125 358.656 33.3125C357.953 33.3125 357.37 33.5625 356.906 34.0625C356.448 34.5573 356.219 35.2031 356.219 36C356.219 36.7969 356.448 37.4453 356.906 37.9453ZM369.477 40V38.6562C369.221 39.1615 368.857 39.5391 368.383 39.7891C367.909 40.0339 367.37 40.1562 366.766 40.1562C366.271 40.1562 365.823 40.0807 365.422 39.9297C365.026 39.7786 364.698 39.5286 364.438 39.1797C364.177 38.8255 364.047 38.3958 364.047 37.8906C364.047 37.4219 364.146 37.0286 364.344 36.7109C364.542 36.388 364.799 36.1484 365.117 35.9922C365.435 35.8359 365.784 35.7135 366.164 35.625C366.549 35.5312 366.932 35.4609 367.312 35.4141C367.698 35.362 368.049 35.3047 368.367 35.2422C368.685 35.1745 368.943 35.0677 369.141 34.9219C369.339 34.776 369.438 34.5807 369.438 34.3359C369.438 33.9557 369.276 33.6589 368.953 33.4453C368.63 33.2266 368.216 33.1172 367.711 33.1172C367.174 33.1172 366.747 33.2526 366.43 33.5234C366.112 33.7943 365.953 34.1823 365.953 34.6875H364.289C364.289 34.2865 364.352 33.9245 364.477 33.6016C364.602 33.2786 364.771 33.0104 364.984 32.7969C365.198 32.5781 365.451 32.3984 365.742 32.2578C366.039 32.112 366.349 32.0078 366.672 31.9453C367 31.8776 367.346 31.8438 367.711 31.8438C368.159 31.8438 368.576 31.8906 368.961 31.9844C369.346 32.0781 369.698 32.224 370.016 32.4219C370.333 32.6146 370.583 32.8802 370.766 33.2188C370.948 33.5573 371.039 33.9505 371.039 34.3984V40H369.477ZM365.68 37.7891C365.68 38.1224 365.807 38.3776 366.062 38.5547C366.323 38.7266 366.664 38.8125 367.086 38.8125C367.747 38.8125 368.31 38.6276 368.773 38.2578C369.242 37.8828 369.477 37.3646 369.477 36.7031V36.125C369.242 36.2396 368.94 36.3385 368.57 36.4219C368.201 36.5 367.859 36.5651 367.547 36.6172C367.234 36.6641 366.93 36.7292 366.633 36.8125C366.341 36.8906 366.109 37.0104 365.938 37.1719C365.766 37.3281 365.68 37.5339 365.68 37.7891ZM373.266 40V32H377.227C377.987 32 378.591 32.1771 379.039 32.5312C379.487 32.8854 379.711 33.401 379.711 34.0781C379.711 34.8906 379.344 35.4505 378.609 35.7578C379.062 35.9089 379.414 36.1484 379.664 36.4766C379.919 36.7995 380.047 37.2057 380.047 37.6953C380.047 38.4505 379.81 39.0234 379.336 39.4141C378.867 39.8047 378.208 40 377.359 40H373.266ZM376.766 33.2188H374.797V35.2969H376.766C377.703 35.2969 378.172 34.9505 378.172 34.2578C378.172 33.8984 378.06 33.6354 377.836 33.4688C377.617 33.3021 377.26 33.2188 376.766 33.2188ZM377.086 36.5156H374.797V38.7812H377.086C377.534 38.7812 377.872 38.6849 378.102 38.4922C378.331 38.2995 378.445 38.0182 378.445 37.6484C378.445 37.2786 378.331 36.9974 378.102 36.8047C377.872 36.612 377.534 36.5156 377.086 36.5156ZM382.531 37.6641C382.729 36.9609 382.836 35.0729 382.852 32H388.773V40H387.172V33.4688H384.312C384.281 35.2188 384.201 36.5521 384.07 37.4688C383.909 38.4323 383.648 39.0964 383.289 39.4609C382.935 39.8203 382.422 40 381.75 40H381.461V38.5312H381.594C382.073 38.5312 382.385 38.2422 382.531 37.6641ZM398.414 36C398.414 36.125 398.404 36.3073 398.383 36.5469H392.109C392.208 37.2448 392.471 37.7865 392.898 38.1719C393.326 38.5573 393.875 38.75 394.547 38.75C395.495 38.75 396.141 38.3672 396.484 37.6016H398.211C397.966 38.4193 397.516 39.0495 396.859 39.4922C396.208 39.9349 395.417 40.1562 394.484 40.1562C393.344 40.1562 392.401 39.7682 391.656 38.9922C390.917 38.2161 390.547 37.2188 390.547 36C390.547 34.7812 390.917 33.7839 391.656 33.0078C392.401 32.2318 393.344 31.8438 394.484 31.8438C395.625 31.8438 396.565 32.2318 397.305 33.0078C398.044 33.7839 398.414 34.7812 398.414 36ZM394.484 33.25C393.839 33.25 393.31 33.4401 392.898 33.8203C392.487 34.1953 392.232 34.7188 392.133 35.3906H396.836C396.737 34.7188 396.479 34.1953 396.062 33.8203C395.651 33.4401 395.125 33.25 394.484 33.25ZM405.641 40V36.6875H401.797V40H400.203V32H401.797V35.2344H405.641V32H407.242V40H405.641ZM411.141 32V38.3828L414.805 32H416.836V40H415.305V33.6172L411.641 40H409.609V32H411.141ZM426.477 36C426.477 36.125 426.466 36.3073 426.445 36.5469H420.172C420.271 37.2448 420.534 37.7865 420.961 38.1719C421.388 38.5573 421.938 38.75 422.609 38.75C423.557 38.75 424.203 38.3672 424.547 37.6016H426.273C426.029 38.4193 425.578 39.0495 424.922 39.4922C424.271 39.9349 423.479 40.1562 422.547 40.1562C421.406 40.1562 420.464 39.7682 419.719 38.9922C418.979 38.2161 418.609 37.2188 418.609 36C418.609 34.7812 418.979 33.7839 419.719 33.0078C420.464 32.2318 421.406 31.8438 422.547 31.8438C423.688 31.8438 424.628 32.2318 425.367 33.0078C426.107 33.7839 426.477 34.7812 426.477 36ZM422.547 33.25C421.901 33.25 421.372 33.4401 420.961 33.8203C420.549 34.1953 420.294 34.7188 420.195 35.3906H424.898C424.799 34.7188 424.542 34.1953 424.125 33.8203C423.714 33.4401 423.188 33.25 422.547 33.25ZM333.633 66.1562V64H327.758V66.1562H326.289V62.5312H327.07C327.31 62.0833 327.49 61.4167 327.609 60.5312C327.734 59.6458 327.805 58.1354 327.82 56H333.984V62.5312H335.102V66.1562H333.633ZM329.102 60.625C328.987 61.4896 328.849 62.125 328.688 62.5312H332.383V57.4688H329.281C329.266 58.7604 329.206 59.8125 329.102 60.625ZM336.734 64V56H340.695C341.456 56 342.06 56.1771 342.508 56.5312C342.956 56.8854 343.18 57.401 343.18 58.0781C343.18 58.8906 342.812 59.4505 342.078 59.7578C342.531 59.9089 342.883 60.1484 343.133 60.4766C343.388 60.7995 343.516 61.2057 343.516 61.6953C343.516 62.4505 343.279 63.0234 342.805 63.4141C342.336 63.8047 341.677 64 340.828 64H336.734ZM340.234 57.2188H338.266V59.2969H340.234C341.172 59.2969 341.641 58.9505 341.641 58.2578C341.641 57.8984 341.529 57.6354 341.305 57.4688C341.086 57.3021 340.729 57.2188 340.234 57.2188ZM340.555 60.5156H338.266V62.7812H340.555C341.003 62.7812 341.341 62.6849 341.57 62.4922C341.799 62.2995 341.914 62.0182 341.914 61.6484C341.914 61.2786 341.799 60.9974 341.57 60.8047C341.341 60.612 341.003 60.5156 340.555 60.5156ZM347.125 56V62.3828L350.789 56H352.82V64H351.289V57.6172L347.625 64H345.594V56H347.125ZM359.68 64V59.8203L356.211 64H354.195L357.922 59.6484L354.477 56H356.609L359.68 59.5234V56H361.281V59.5391L364.367 56H366.414L363.055 59.6484L366.719 64H364.75L361.281 59.7891V64H359.68ZM374.883 60C374.883 60.125 374.872 60.3073 374.852 60.5469H368.578C368.677 61.2448 368.94 61.7865 369.367 62.1719C369.794 62.5573 370.344 62.75 371.016 62.75C371.964 62.75 372.609 62.3672 372.953 61.6016H374.68C374.435 62.4193 373.984 63.0495 373.328 63.4922C372.677 63.9349 371.885 64.1562 370.953 64.1562C369.812 64.1562 368.87 63.7682 368.125 62.9922C367.385 62.2161 367.016 61.2188 367.016 60C367.016 58.7812 367.385 57.7839 368.125 57.0078C368.87 56.2318 369.812 55.8438 370.953 55.8438C372.094 55.8438 373.034 56.2318 373.773 57.0078C374.513 57.7839 374.883 58.7812 374.883 60ZM370.953 57.25C370.307 57.25 369.779 57.4401 369.367 57.8203C368.956 58.1953 368.701 58.7188 368.602 59.3906H373.305C373.206 58.7188 372.948 58.1953 372.531 57.8203C372.12 57.4401 371.594 57.25 370.953 57.25ZM382.109 64V60.6875H378.266V64H376.672V56H378.266V59.2344H382.109V56H383.711V64H382.109ZM387.609 56V62.3828L391.273 56H393.305V64H391.773V57.6172L388.109 64H386.078V56H387.609ZM395.492 58.4297C395.492 58.0078 395.568 57.638 395.719 57.3203C395.875 57.0026 396.091 56.75 396.367 56.5625C396.643 56.3698 396.953 56.2292 397.297 56.1406C397.646 56.0469 398.026 56 398.438 56H401.883V64H400.281V60.4922H400.266L396.805 64H394.938L398.07 60.8984C397.352 60.8568 396.742 60.6198 396.242 60.1875C395.742 59.7552 395.492 59.1693 395.492 58.4297ZM398.711 59.7578H400.281V57.2188H398.711C398.201 57.2188 397.802 57.3229 397.516 57.5312C397.234 57.7396 397.094 58.0443 397.094 58.4453C397.094 59.3203 397.633 59.7578 398.711 59.7578ZM327.188 88V80H334V88H332.398V81.4688H328.781V88H327.188ZM340.609 88.1562C340.078 88.1562 339.586 88.0391 339.133 87.8047C338.685 87.5651 338.302 87.2292 337.984 86.7969V92H336.391V80H337.984V81.2031C338.302 80.7708 338.685 80.4375 339.133 80.2031C339.586 79.9635 340.078 79.8438 340.609 79.8438C341.714 79.8438 342.63 80.2344 343.359 81.0156C344.089 81.7917 344.453 82.7865 344.453 84C344.453 85.2135 344.089 86.2109 343.359 86.9922C342.63 87.7682 341.714 88.1562 340.609 88.1562ZM338.672 85.9453C339.135 86.4401 339.719 86.6875 340.422 86.6875C341.125 86.6875 341.706 86.4401 342.164 85.9453C342.622 85.4453 342.852 84.7969 342.852 84C342.852 83.2031 342.622 82.5573 342.164 82.0625C341.706 81.5625 341.125 81.3125 340.422 81.3125C339.719 81.3125 339.135 81.5625 338.672 82.0625C338.214 82.5573 337.984 83.2031 337.984 84C337.984 84.7969 338.214 85.4453 338.672 85.9453ZM352.586 86.9922C351.82 87.7682 350.854 88.1562 349.688 88.1562C348.521 88.1562 347.555 87.7682 346.789 86.9922C346.023 86.2109 345.641 85.2135 345.641 84C345.641 82.7865 346.023 81.7917 346.789 81.0156C347.555 80.2344 348.521 79.8438 349.688 79.8438C350.854 79.8438 351.82 80.2344 352.586 81.0156C353.352 81.7917 353.734 82.7865 353.734 84C353.734 85.2135 353.352 86.2109 352.586 86.9922ZM347.938 85.9453C348.401 86.4401 348.984 86.6875 349.688 86.6875C350.391 86.6875 350.974 86.4401 351.438 85.9453C351.901 85.4453 352.133 84.7969 352.133 84C352.133 83.2031 351.901 82.5573 351.438 82.0625C350.974 81.5625 350.391 81.3125 349.688 81.3125C348.984 81.3125 348.401 81.5625 347.938 82.0625C347.474 82.5573 347.242 83.2031 347.242 84C347.242 84.7969 347.474 85.4453 347.938 85.9453ZM361.961 90.1562V88H356.086V90.1562H354.617V86.5312H355.398C355.638 86.0833 355.818 85.4167 355.938 84.5312C356.062 83.6458 356.133 82.1354 356.148 80H362.312V86.5312H363.43V90.1562H361.961ZM357.43 84.625C357.315 85.4896 357.177 86.125 357.016 86.5312H360.711V81.4688H357.609C357.594 82.7604 357.534 83.8125 357.43 84.625ZM368.656 88.8984C368.51 89.3151 368.367 89.6719 368.227 89.9688C368.091 90.2708 367.924 90.5651 367.727 90.8516C367.534 91.138 367.323 91.3672 367.094 91.5391C366.87 91.7161 366.599 91.8568 366.281 91.9609C365.969 92.0703 365.62 92.125 365.234 92.125C364.807 92.125 364.406 92.0677 364.031 91.9531V90.5469C364.406 90.6615 364.76 90.7188 365.094 90.7188C365.583 90.7188 365.982 90.5729 366.289 90.2812C366.602 89.9948 366.891 89.5286 367.156 88.8828L363.984 80H365.586L367.906 86.7031L370.211 80H371.812L368.656 88.8984ZM378.516 88L374.688 83.7891V88H373.094V80H374.688V83.5547L378.133 80H380.258L376.5 83.6484L380.547 88H378.516ZM380.461 81.4688V80H387.242V81.4688H384.648V88H383.055V81.4688H380.461ZM393.648 88V86.6562C393.393 87.1615 393.029 87.5391 392.555 87.7891C392.081 88.0339 391.542 88.1562 390.938 88.1562C390.443 88.1562 389.995 88.0807 389.594 87.9297C389.198 87.7786 388.87 87.5286 388.609 87.1797C388.349 86.8255 388.219 86.3958 388.219 85.8906C388.219 85.4219 388.318 85.0286 388.516 84.7109C388.714 84.388 388.971 84.1484 389.289 83.9922C389.607 83.8359 389.956 83.7135 390.336 83.625C390.721 83.5312 391.104 83.4609 391.484 83.4141C391.87 83.362 392.221 83.3047 392.539 83.2422C392.857 83.1745 393.115 83.0677 393.312 82.9219C393.51 82.776 393.609 82.5807 393.609 82.3359C393.609 81.9557 393.448 81.6589 393.125 81.4453C392.802 81.2266 392.388 81.1172 391.883 81.1172C391.346 81.1172 390.919 81.2526 390.602 81.5234C390.284 81.7943 390.125 82.1823 390.125 82.6875H388.461C388.461 82.2865 388.523 81.9245 388.648 81.6016C388.773 81.2786 388.943 81.0104 389.156 80.7969C389.37 80.5781 389.622 80.3984 389.914 80.2578C390.211 80.112 390.521 80.0078 390.844 79.9453C391.172 79.8776 391.518 79.8438 391.883 79.8438C392.331 79.8438 392.747 79.8906 393.133 79.9844C393.518 80.0781 393.87 80.224 394.188 80.4219C394.505 80.6146 394.755 80.8802 394.938 81.2188C395.12 81.5573 395.211 81.9505 395.211 82.3984V88H393.648ZM389.852 85.7891C389.852 86.1224 389.979 86.3776 390.234 86.5547C390.495 86.7266 390.836 86.8125 391.258 86.8125C391.919 86.8125 392.482 86.6276 392.945 86.2578C393.414 85.8828 393.648 85.3646 393.648 84.7031V84.125C393.414 84.2396 393.112 84.3385 392.742 84.4219C392.372 84.5 392.031 84.5651 391.719 84.6172C391.406 84.6641 391.102 84.7292 390.805 84.8125C390.513 84.8906 390.281 85.0104 390.109 85.1719C389.938 85.3281 389.852 85.5339 389.852 85.7891Z" fill="#313131"/>
<line x1="303.5" y1="-2.18557e-08" x2="303.5" y2="102" stroke="#00A85B"/>
<path d="M310.504 101.725L303.309 114.187L296.113 101.725L310.504 101.725Z" stroke="#00A85B"/>
</svg>
