<svg width="131" height="87" viewBox="0 0 131 87" fill="none" xmlns="http://www.w3.org/2000/svg">
<path d="M101.161 48.4076L98.8691 45.3086L103.382 45.3376L101.161 48.4076Z" stroke="#DE1F26" stroke-miterlimit="10"/>
<path d="M101.135 36.752V45.355" stroke="#DE1F26" stroke-miterlimit="10"/>
<path d="M112.776 70.7663L109.349 69.0042L113.406 67.0312L112.776 70.7663Z" stroke="#DE1F26" stroke-miterlimit="10"/>
<path d="M107.589 60.3301L111.4 68.0431" stroke="#DE1F26" stroke-miterlimit="10"/>
<path d="M89.2453 70.7663L92.6733 69.0042L88.6143 67.0312L89.2453 70.7663Z" stroke="#DE1F26" stroke-miterlimit="10"/>
<path d="M94.4331 60.3301L90.6211 68.0431" stroke="#DE1F26" stroke-miterlimit="10"/>
<path d="M24.062 58.3618L27.914 58.2488L25.103 54.7168L24.062 58.3618Z" stroke="#DE1F26" stroke-miterlimit="10"/>
<path d="M33.241 51.1777L26.4771 56.4947" stroke="#DE1F26" stroke-miterlimit="10"/>
<path d="M35.868 31.3795L34.921 27.6445L32.085 31.1555L35.868 31.3795Z" stroke="#DE1F26" stroke-miterlimit="10"/>
<path d="M26.8621 23.9824L33.5221 29.4274" stroke="#DE1F26" stroke-miterlimit="10"/>
<path d="M79.6271 55.9375H75.4861V73.6985H79.6271V55.9375Z" fill="#0000BD"/>
<path d="M126.442 55.9375H122.3V73.6985H126.442V55.9375Z" fill="#0000BD"/>
<path d="M120.237 48.6172H81.9902V52.5952H120.237V48.6172Z" stroke="#DE1F26" stroke-miterlimit="10"/>
<path d="M45.3662 81.8172L94.8532 2.90625" stroke="#DE1F26" stroke-miterlimit="10"/>
<path d="M100.685 52.5646L96.3838 56.8672L97.9 58.383L102.201 54.0804L100.685 52.5646Z" fill="#DE1F26"/>
<path d="M100.193 54.09L104.495 58.3926L106.01 56.8775L101.709 52.5749L100.193 54.09Z" fill="#DE1F26"/>
<path d="M101.161 47.4062V52.4402" stroke="#DE1F26" stroke-miterlimit="10"/>
<path d="M19.168 13.7434C25.6109 13.7434 30.834 12.9667 30.834 12.0084C30.834 11.0502 25.6109 10.2734 19.168 10.2734C12.725 10.2734 7.50195 11.0502 7.50195 12.0084C7.50195 12.9667 12.725 13.7434 19.168 13.7434Z" stroke="#0000BD" stroke-miterlimit="10"/>
<path d="M30.6789 17.0684C30.6789 18.0264 25.4909 18.8044 19.0909 18.8044C12.6909 18.8044 7.50293 18.0264 7.50293 17.0684" stroke="#0000BD" stroke-miterlimit="10"/>
<path d="M7.50308 12.0078V19.1368V19.2698C7.67708 19.3968 7.85208 19.5228 7.85208 19.5228L31.0651 36.3488V45.8068L7.36108 63.1228V68.8218V70.6148" stroke="#0000BD" stroke-miterlimit="10"/>
<path d="M30.8341 12.0078L30.7701 19.9188L51.9311 35.2638V47.5388L30.1241 62.5618L30.1141 70.4238C30.1141 72.1108 25.0441 73.4778 18.7901 73.4778C12.5361 73.4778 7.35913 72.0808 7.35913 70.3938" stroke="#0000BD" stroke-miterlimit="10"/>
<path d="M30.1141 65.3672C30.1141 67.0542 25.0201 68.4212 18.7361 68.4212C12.4531 68.4212 7.35913 67.0542 7.35913 65.3672" stroke="#0000BD" stroke-miterlimit="10"/>
<path d="M28.4759 34.6121L9.83887 20.9297L7.7658 23.7534L26.4028 37.4359L28.4759 34.6121Z" fill="#0000BD"/>
<path d="M49.7837 49.7322L32.6145 61.5508L34.6013 64.437L51.7705 52.6185L49.7837 49.7322Z" fill="#0000BD"/>
<path d="M129.888 1H1V85.586H129.888V1Z" stroke="#DE1F26" stroke-miterlimit="10"/>
<path d="M122.245 52.6074H79.7871V77.3044H122.245V52.6074Z" stroke="#DE1F26" stroke-miterlimit="10"/>
</svg>
