<svg width="121" height="87" viewBox="0 0 121 87" fill="none" xmlns="http://www.w3.org/2000/svg">
<path d="M49 10H69.6072C73.745 10 77.8604 10.9538 81.3924 12.9966C83.8341 14.4103 86.1291 16.375 87 19" stroke="#DE1F26" stroke-miterlimit="10"/>
<path d="M88.733 22L85 20.5056L89 18L88.733 22Z" stroke="#DE1F26" stroke-miterlimit="10"/>
<path d="M100.735 50L97 47.6158L102 46L100.735 50Z" stroke="#DE1F26" stroke-miterlimit="10"/>
<path d="M84.7882 72L83 79.8218L84.8711 77.4853L87 80L84.7882 72Z" stroke="#DE1F26" stroke-miterlimit="10"/>
<path d="M85.1954 65V59.2016L85.1515 57.7605C85.1515 57.7605 86.93 57.0187 86.6485 55.4565C86.3993 54.0731 85.1954 52.334 85.1954 52.334V46.1646V46C90.0656 46.124 94 50.3592 94 55.5C94 60.7638 89.9867 65 85 65" fill="#DD1F26"/>
<path d="M84.4995 67C90.8374 67 96 61.8374 96 55.5005C96 49.1626 90.8374 44 84.4995 44C78.1626 44 73 49.1626 73 55.5005C72.999 61.8374 78.1626 67 84.4995 67Z" stroke="#0000BD" stroke-miterlimit="10"/>
<path d="M84.9995 57C86.107 57 87 56.106 87 55.0005C87 53.893 86.107 53 84.9995 53C83.893 53 83 53.893 83 55.0005C83.0421 56.107 83.893 57 84.9995 57Z" stroke="#0000BD" stroke-miterlimit="10"/>
<path d="M84.7058 46H84.4995C79.2355 46 75 50.2362 75 55.5C75 60.7638 79.2364 65 84.4995 65C89.7636 65 94 60.7638 94 55.5C94.0009 50.3592 89.8468 46.123 84.7058 46ZM84.7058 46V46.1646V52.333V53.5262" stroke="#0000BD" stroke-miterlimit="10"/>
<path d="M85 65V58.9032V57" stroke="#0000BD" stroke-miterlimit="10"/>
<path d="M96 55H98" stroke="#0000BD" stroke-miterlimit="10"/>
<path d="M73 55H70" stroke="#0000BD" stroke-miterlimit="10"/>
<path d="M85 44V42" stroke="#0000BD" stroke-miterlimit="10"/>
<path d="M85 67V69" stroke="#0000BD" stroke-miterlimit="10"/>
<path d="M86 36C86 36 98.3997 38.9993 100 47" stroke="#DE1F26" stroke-miterlimit="10"/>
<path d="M120 1H1V86H120V1Z" stroke="#DE1F26" stroke-miterlimit="10"/>
<path d="M72 35C76.9706 35 81 30.9706 81 26C81 21.0294 76.9706 17 72 17C67.0295 17 63 21.0294 63 26C63 30.9706 67.0295 35 72 35Z" stroke="#0000BD" stroke-miterlimit="10"/>
<path d="M17 37H71.2598C74.5644 37 82 34.7655 82 26C82 19.9255 77.1909 15 71.2598 15H17.6588" stroke="#0000BD" stroke-miterlimit="10"/>
<path d="M72 28C73.1046 28 74 27.1046 74 26C74 24.8954 73.1046 24 72 24C70.8954 24 70 24.8954 70 26C70 27.1046 70.8954 28 72 28Z" stroke="#0000BD" stroke-miterlimit="10"/>
</svg>
