<svg width="125" height="87" viewBox="0 0 125 87" fill="none" xmlns="http://www.w3.org/2000/svg">
<path d="M62.3989 22.916H83.6249C87.8879 22.916 92.1259 23.953 95.7639 26.174C98.2789 27.711 100.644 29.847 101.54 32.701" stroke="#DE1F26" stroke-miterlimit="10"/>
<path d="M103.306 35.8085L98.8452 34.0515L103.624 31.1055L103.306 35.8085Z" stroke="#DE1F26" stroke-miterlimit="10"/>
<path d="M92.3199 59.084L91.3159 73.133L94.3259 68.402L99.4869 71.843L92.3199 59.084Z" stroke="#DE1F26" stroke-miterlimit="10"/>
<path d="M123.813 1H1V85.586H123.813V1Z" stroke="#DE1F26" stroke-miterlimit="10"/>
<path d="M85.041 54.1563C91.4161 54.1563 96.584 48.9883 96.584 42.6133C96.584 36.2383 91.4161 31.0703 85.041 31.0703C78.666 31.0703 73.498 36.2383 73.498 42.6133C73.498 48.9883 78.666 54.1563 85.041 54.1563Z" stroke="#0000BD" stroke-miterlimit="10"/>
<path d="M15.364 56.4043H85.041C89.285 56.4043 98.833 53.6023 98.833 42.6123C98.833 34.9953 92.658 28.8203 85.041 28.8203H16.209" stroke="#0000BD" stroke-miterlimit="10"/>
<path d="M85.0411 45.1584C86.4472 45.1584 87.5871 44.0185 87.5871 42.6124C87.5871 41.2063 86.4472 40.0664 85.0411 40.0664C83.635 40.0664 82.4951 41.2063 82.4951 42.6124C82.4951 44.0185 83.635 45.1584 85.0411 45.1584Z" stroke="#0000BD" stroke-miterlimit="10"/>
</svg>
