<svg width="188" height="80" viewBox="0 0 188 80" fill="none" xmlns="http://www.w3.org/2000/svg">
<rect width="188" height="80" fill="#F6F6F6"/>
<path fill-rule="evenodd" clip-rule="evenodd" d="M86.5014 38.164C87.0607 38.164 87.6201 38.0527 88.0675 37.9414C88.2913 37.9414 88.515 37.83 88.7387 37.7187C88.9624 37.6074 89.1862 37.496 89.298 37.3847C89.5218 37.2734 89.6336 37.162 89.7455 37.0507C89.8574 36.9394 89.9692 36.828 90.0811 36.6053C90.1929 36.494 90.3048 36.2713 90.3048 36.16C90.3048 35.9373 90.4167 35.826 90.4167 35.6033C90.4167 35.158 90.1929 34.7126 89.8574 34.49C89.6336 34.3786 89.4099 34.2673 89.0743 34.156C88.7387 34.0446 88.4031 34.0446 87.9557 34.0446H85.9421L85.159 38.0527H86.5014V38.164ZM157.647 41.2815H162.569L161.339 35.0466L157.647 41.2815ZM163.017 43.5082H156.417L154.515 46.7369L154.403 46.8483H151.271L151.606 46.4029L160.444 32.1519L160.556 32.0406H163.129L163.24 32.2632L166.596 46.5143L166.708 46.9596H163.912V46.7369L163.017 43.5082ZM140.644 44.2875H138.183L138.071 44.0649L135.498 36.7167L133.037 46.6256L132.925 46.8483H130.24L130.464 46.5143L134.044 32.2632L134.156 32.0406H136.617L136.729 32.2632L139.973 41.7268L146.796 32.1519L146.908 32.0406H149.593V32.3746L147.579 46.6256V46.8483H144.895V46.5143L146.125 37.0507L140.979 44.1762L140.868 44.2875H140.644ZM119.166 38.4981C118.942 39.2774 118.83 39.9454 118.607 40.6134C118.383 41.2815 118.159 41.8381 117.935 42.2835C117.712 42.8402 117.488 43.2855 117.264 43.7309C117.04 44.1762 116.817 44.5102 116.481 44.8442C116.257 45.1782 115.922 45.5122 115.698 45.7349C115.474 45.9576 115.139 46.1802 114.915 46.4029C114.691 46.6256 114.356 46.7369 114.132 46.8483C113.796 46.9596 113.573 47.0709 113.237 47.1823L113.013 47.2936L112.901 47.0709L112.118 45.4009L112.007 45.0669L112.342 44.9555C112.79 44.7329 113.349 44.5102 113.684 44.1762C114.132 43.8422 114.468 43.2855 114.803 42.7288C115.139 42.1721 115.474 41.5041 115.698 40.7248C116.034 39.9454 116.257 39.1661 116.481 38.2754L118.047 32.1519L118.159 32.0406H128.003L127.891 32.3746L125.095 46.6256V46.8483H122.298L122.41 46.5143L124.759 34.2673H120.061L119.166 38.4981ZM103.393 31.7066C103.952 31.7066 104.4 31.7066 104.959 31.8179C105.406 31.9292 105.966 32.0406 106.301 32.1519C106.749 32.2632 107.084 32.4859 107.532 32.7086C107.868 32.9313 108.203 33.1539 108.539 33.4879C108.874 33.8219 109.098 34.0446 109.322 34.49C109.545 34.824 109.769 35.158 109.881 35.6033C109.993 36.0487 110.105 36.3827 110.217 36.828C110.329 37.2734 110.329 37.7187 110.329 38.164C110.329 38.8321 110.329 39.3887 110.217 40.0568C110.105 40.6134 109.993 41.2815 109.769 41.7268C109.545 42.2835 109.322 42.8402 108.986 43.2855C108.651 43.7309 108.315 44.1762 107.868 44.6215C107.42 45.0669 106.973 45.4009 106.413 45.6236C105.854 45.9576 105.295 46.1802 104.735 46.4029C104.176 46.6256 103.505 46.7369 102.722 46.8483C102.051 46.9596 101.268 46.9596 100.484 46.9596C100.037 46.9596 99.7014 46.9596 99.254 46.9596C98.8065 46.9596 98.4709 46.8483 98.0235 46.8483C97.6879 46.7369 97.2404 46.7369 96.9048 46.6256C96.5692 46.5143 96.2336 46.4029 96.0099 46.2916L95.6743 46.1802L95.7862 45.8462L96.4574 44.2875L96.5692 44.0649L96.7929 44.1762C97.0167 44.2875 97.2404 44.2875 97.576 44.3989C97.7997 44.5102 98.1353 44.5102 98.4709 44.6215C98.8065 44.6215 99.0302 44.7329 99.3658 44.7329C99.7014 44.7329 100.037 44.7329 100.373 44.7329C100.932 44.7329 101.379 44.7329 101.827 44.6215C102.274 44.5102 102.722 44.5102 103.057 44.3989C103.393 44.2875 103.84 44.1762 104.176 43.9535C104.512 43.8422 104.847 43.6195 105.071 43.3968C105.295 43.1742 105.63 42.9515 105.854 42.7288C106.078 42.5062 106.301 42.1721 106.413 41.8381C106.637 41.5041 106.749 41.1701 106.861 40.8361C106.973 40.6134 106.973 40.3908 107.084 40.1681H99.4777L99.5896 39.8341L99.9251 38.2754V38.0527H107.532C107.532 36.7167 107.084 35.7147 106.413 35.0466C106.078 34.7126 105.518 34.3786 104.959 34.156C104.4 33.9333 103.617 33.8219 102.834 33.8219C102.498 33.8219 102.051 33.8219 101.715 33.8219C101.379 33.8219 101.044 33.9333 100.708 33.9333C100.373 34.0446 100.037 34.0446 99.8133 34.156C99.4777 34.2673 99.254 34.2673 99.0302 34.3786L98.5828 34.49V34.0446V32.4859V32.2632L98.8065 32.1519C99.1421 32.0406 99.4777 31.9292 99.8133 31.8179C100.149 31.7066 100.596 31.7066 100.932 31.5952C101.379 31.4839 101.827 31.4839 102.162 31.4839C102.498 31.8179 102.945 31.7066 103.393 31.7066ZM89.9692 42.3948C89.9692 42.1721 89.9692 42.0608 89.8574 41.9495C89.8574 41.8381 89.7455 41.7268 89.7455 41.5041C89.6336 41.3928 89.6336 41.2815 89.5218 41.1701C89.4099 41.0588 89.298 40.9474 89.1862 40.8361L88.7387 40.6134C88.7387 40.6134 88.2912 40.5021 88.1794 40.5021C87.9557 40.5021 87.7319 40.3908 87.5082 40.3908C87.2845 40.3908 87.0607 40.3908 86.837 40.3908H85.0472L84.1523 44.8442H86.2777C86.7252 44.8442 87.1726 44.8442 87.7319 44.7329C87.9557 44.7329 88.1794 44.6215 88.4031 44.5102C88.515 44.5102 88.9624 44.2875 88.9624 44.2875C89.1862 44.1762 89.298 44.0649 89.4099 43.9535C89.4099 43.9535 89.7455 43.6195 89.7455 43.5082C89.8574 43.3968 89.9692 43.1742 89.9692 43.0628C89.8574 42.8402 89.9692 42.6175 89.9692 42.3948ZM80.9082 46.5143L83.7048 32.2632V32.0406H88.6268C88.9624 32.0406 89.298 32.0406 89.6336 32.1519C89.9692 32.1519 90.3048 32.2632 90.5285 32.3746C90.8641 32.4859 91.0879 32.5972 91.3116 32.7086C91.5353 32.8199 91.759 32.9313 91.9828 33.0426C92.2065 33.1539 92.4302 33.3766 92.5421 33.4879C92.7658 33.7106 92.8777 33.8219 92.9896 34.0446C93.1014 34.2673 93.2133 34.49 93.2133 34.7126C93.3251 34.9353 93.3252 35.158 93.3252 35.492C93.3252 35.826 93.3251 36.0487 93.2133 36.3827C93.1014 36.6053 93.1014 36.9394 92.8777 37.162C92.7658 37.3847 92.5421 37.6074 92.4302 37.83C92.3184 38.0527 92.0946 38.2754 91.8709 38.3867C91.6472 38.6094 91.4235 38.7207 91.1997 38.8321C90.976 38.9434 90.7523 39.0547 90.5285 39.1661C90.4167 39.2774 90.1929 39.2774 90.0811 39.3887C90.1929 39.3887 90.1929 39.5001 90.3048 39.5001C90.5285 39.6114 90.7523 39.7228 90.8641 39.8341C91.0879 39.9454 91.1997 40.0568 91.4235 40.2794C91.5353 40.3908 91.759 40.6134 91.8709 40.7248C91.9828 40.9474 92.0946 41.0588 92.2065 41.2815C92.3184 41.5041 92.4302 41.7268 92.4302 41.9495C92.4302 42.1721 92.5421 42.3948 92.5421 42.6175C92.5421 43.0628 92.5421 43.3968 92.4302 43.7309C92.3184 44.0649 92.2065 44.3989 91.9828 44.7329C91.759 45.0669 91.5353 45.2896 91.3116 45.5122C91.0879 45.7349 90.7523 45.9576 90.4167 46.1802C90.0811 46.4029 89.7455 46.5143 89.4099 46.6256C89.0743 46.7369 88.6268 46.8483 88.2913 46.9596C87.9557 47.0709 87.5082 47.0709 87.0607 47.1823C86.6133 47.1823 86.2777 47.2936 85.9421 47.2936H80.9082V46.5143Z" fill="#333232"/>
<path d="M52.271 12.668C52.7185 13.002 53.5015 13.4474 54.2846 14.004C55.0676 14.672 56.1863 15.4514 57.193 16.4534C57.4168 16.6761 57.7524 17.0101 57.9761 17.2328C58.1998 17.5668 58.4236 17.7895 58.7591 18.1235C58.9829 18.4575 59.3185 18.7915 59.5422 19.0142C59.7659 19.4595 59.9897 19.7935 60.3252 20.1275C60.549 20.4615 60.8846 20.9069 61.1083 21.2409C61.332 21.5749 61.5558 22.0202 61.7795 22.4656C62.0032 22.9109 62.2269 23.2449 62.4507 23.6903C62.6744 24.1356 62.8981 24.581 63.1219 25.0263C63.5693 25.917 63.9049 26.919 64.2405 27.921C64.5761 28.9231 64.7998 30.0364 65.0235 31.0384C65.1354 32.1518 65.471 33.2652 65.471 34.3785C65.471 34.9352 65.5829 35.4919 65.5829 36.0486C65.5829 36.6052 65.5829 37.1619 65.471 37.7186C65.471 38.2753 65.3591 38.832 65.3591 39.3886C65.2473 39.9453 65.2473 40.502 65.1354 41.0587C64.9117 42.1721 64.688 43.3967 64.2405 44.3988C64.0168 44.9555 63.9049 45.5121 63.6812 46.0688L63.01 47.6275C62.8981 47.8502 62.7863 48.1842 62.6744 48.4069L62.2269 49.1862C61.8913 49.7429 61.6676 50.1882 61.332 50.6336C60.1015 52.5263 58.5354 54.1963 56.7456 55.421C54.9558 56.7571 53.1659 57.8704 51.2642 58.5384C50.8168 58.7611 50.3693 58.8725 49.81 58.9838C49.3625 59.0951 48.9151 59.3178 48.4676 59.4291C47.5727 59.6518 46.6778 59.8745 45.7829 59.8745C45.3354 59.8745 44.888 59.9858 44.4405 59.9858C43.993 59.9858 43.5456 59.9858 43.21 59.9858C42.4269 59.9858 41.6439 59.8745 40.8608 59.8745C39.4066 59.7631 38.1761 59.4291 37.1693 59.0951C36.1625 58.8725 35.3795 58.5384 34.8202 58.3158C34.2608 58.0931 34.0371 57.9818 34.0371 57.9818C34.0371 57.9818 34.2608 58.0931 34.8202 58.4271C35.3795 58.6498 36.0507 59.0951 37.0574 59.4291C38.0642 59.8745 39.2947 60.2085 40.749 60.5425C42.2032 60.7652 43.8812 60.9878 45.7829 60.8765C46.6778 60.8765 47.6846 60.6538 48.6913 60.5425C49.1388 60.4312 49.6981 60.3198 50.1456 60.2085C50.7049 60.0972 51.1524 59.9858 51.7117 59.7631C53.7252 59.0951 55.8507 58.0931 57.7524 56.7571C59.6541 55.421 61.4439 53.751 62.8981 51.6356C64.2405 49.6316 65.471 47.4048 66.1422 44.9555C66.5896 43.8421 66.8134 42.5061 67.0371 41.3927C67.149 40.836 67.2608 40.168 67.2608 39.6113C67.3727 38.9433 67.4846 38.3866 67.3727 37.7186C67.3727 37.1619 67.3727 36.4939 67.3727 35.9372C67.3727 35.3806 67.2608 34.7125 67.2608 34.1559C67.2608 32.9312 66.9252 31.8178 66.7015 30.7044C66.5896 30.1478 66.3659 29.5911 66.2541 29.0344C66.0303 28.4777 65.9185 27.921 65.6947 27.4757C65.2473 26.4737 64.9117 25.3603 64.3524 24.4696C64.1286 24.0243 63.9049 23.5789 63.6812 23.1336C63.4574 22.6882 63.1219 22.2429 62.8981 21.7976C62.6744 21.3522 62.3388 21.0182 62.1151 20.5729C61.7795 20.2389 61.5558 19.7935 61.2202 19.4595C60.6608 18.6801 60.1015 18.1235 59.4303 17.4555C59.0947 17.1214 58.871 16.8988 58.5354 16.5648C58.1998 16.3421 57.9761 16.1194 57.6405 15.7854C56.5219 14.7834 55.4032 14.1154 54.5083 13.5587C53.6134 13.1133 52.8303 12.8907 52.271 12.668C51.8235 12.334 51.5998 12.2227 51.5998 12.2227C51.5998 12.2227 51.7117 12.334 52.271 12.668Z" fill="#DD8C50"/>
<path d="M31.2406 12.8907C30.7931 13.002 30.2338 13.1134 29.7864 13.2247C29.3389 13.336 28.8915 13.5587 28.5559 13.67C28.1084 13.7814 27.7728 14.004 27.3254 14.1154C26.9898 14.2267 26.6542 14.4494 26.3186 14.5607C25.6474 14.8947 25.0881 15.1174 24.6406 15.4514C24.1932 15.7854 23.7457 16.0081 23.4101 16.2308C22.7389 16.6761 22.4033 16.8988 22.4033 16.8988C22.4033 16.8988 22.7389 16.6761 23.4101 16.3421C23.7457 16.1194 24.1932 15.8968 24.6406 15.6741C25.0881 15.4514 25.7593 15.2287 26.4304 14.8947C26.766 14.7834 27.1016 14.5607 27.4372 14.4494C27.7728 14.3381 28.2203 14.2267 28.6677 14.1154C29.1152 14.004 29.4508 13.8927 29.8982 13.7814C30.3457 13.67 30.7931 13.5587 31.3525 13.5587C33.2542 13.1134 35.4915 13.002 37.9525 13.1134C40.4135 13.2247 42.9864 13.67 45.5592 14.5607C48.1321 15.4514 50.705 16.8988 53.166 18.5688C55.5152 20.3502 57.7525 22.5769 59.4304 25.249C59.8779 25.8057 60.2135 26.585 60.6609 27.253C60.9965 27.9211 61.3321 28.5891 61.5559 29.3684C62.1152 30.8158 62.5626 32.3745 62.6745 33.9332C63.122 37.0506 62.8982 40.2794 62.0033 43.1741C61.1084 46.0688 59.5423 48.8522 57.5287 50.9676C55.5152 53.1943 53.166 54.9757 50.705 55.9777C48.244 57.0911 45.5592 57.4251 43.2101 57.3138C40.8609 57.2024 38.6237 56.6457 36.8338 55.8664C35.044 55.087 33.5898 54.085 32.583 53.1943C32.0237 52.749 31.5762 52.3036 31.2406 51.8583C30.7931 51.5243 30.5694 51.0789 30.3457 50.8563C29.8982 50.2996 29.5626 49.9656 29.5626 49.9656C29.5626 49.9656 29.7864 50.2996 30.2338 50.9676C30.4576 51.3016 30.6813 51.6356 31.1287 52.081C31.3525 52.3036 31.4643 52.5263 31.6881 52.749C31.9118 52.9717 32.1355 53.1943 32.4711 53.417C33.4779 54.419 34.9321 55.5324 36.722 56.4231C38.5118 57.3138 40.7491 58.0931 43.322 58.3158C45.8948 58.5385 48.6915 58.2045 51.3762 57.0911C54.0609 55.9777 56.6338 54.1964 58.8711 51.8583C60.9965 49.5202 62.7864 46.6255 63.7931 43.5081C64.7999 40.2794 65.1355 36.8279 64.6881 33.4879C64.4643 31.8178 64.0169 30.1478 63.3457 28.5891C63.0101 27.8097 62.6745 27.0304 62.227 26.251C61.7796 25.583 61.444 24.915 60.9965 24.1356C59.2067 21.3522 56.7457 19.0142 54.2847 17.1215C51.7118 15.2287 48.9152 13.8927 46.1186 13.1134C43.2101 12.4453 40.5254 12 37.9525 12C35.4915 12 33.1423 12.334 31.2406 12.8907Z" fill="#DD8C50"/>
<path d="M38.8475 14.7837C38.5119 14.7837 38.1763 14.7837 37.8407 14.7837C36.8339 14.895 35.939 15.0064 34.9322 15.1177C31.1288 15.6744 27.661 17.1218 24.6407 19.0145C21.8441 20.9072 19.3831 23.1339 17.5932 25.5833C15.8034 28.0327 14.3492 30.4821 13.5661 32.7088C13.3424 33.2655 13.1186 33.8222 13.0068 34.3788C12.8949 34.9355 12.6712 35.4922 12.5593 35.9376C12.3356 36.9396 12.2237 37.9416 12.1119 38.8323C12 39.723 12 40.5023 12 41.1703C12 41.8384 12 42.395 12 42.8404C12 43.7311 12 44.2878 12 44.2878C12 44.2878 12 43.8424 12 42.8404C12 42.395 12 41.8384 12.1119 41.1703C12.2237 40.5023 12.3356 39.723 12.4475 38.9436C12.6712 38.0529 12.8949 37.1622 13.1186 36.1602C13.2305 35.7149 13.4542 35.1582 13.678 34.6015C13.9017 34.0448 14.0136 33.4882 14.3492 33.0428C14.5729 32.4861 14.7966 31.9295 15.1322 31.3728C15.4678 30.8161 15.8034 30.2594 16.139 29.7027C16.4746 29.1461 16.922 28.5894 17.2576 28.0327C17.5932 27.476 18.0407 26.9193 18.6 26.3627C20.5017 24.1359 22.8508 22.0205 25.7593 20.2392C28.6678 18.5691 32.0237 17.3444 35.6034 16.7878C36.4983 16.6764 37.3932 16.5651 38.2881 16.5651C38.6237 16.5651 38.8475 16.5651 39.1831 16.5651C39.8542 16.5651 40.4136 16.5651 40.9729 16.6764H42.0915C42.539 16.7878 42.9864 16.8991 43.4339 16.8991C44.3288 17.0104 45.2237 17.3444 46.1186 17.6784C49.5864 19.0145 52.9424 21.2412 55.2915 24.1359C57.7526 27.0307 59.3187 30.7048 59.878 34.3788L59.9898 35.7149C59.9898 35.9375 60.1017 36.2716 60.1017 36.3829V37.0509C60.1017 38.0529 59.9898 38.9436 59.9898 39.8343C59.7661 41.6157 59.0949 43.3971 58.3119 44.9558C57.5288 46.5145 56.4102 47.9618 55.1797 49.1865C53.9492 50.4112 52.6068 51.4133 51.1525 52.1926C49.6983 52.972 48.2441 53.5286 46.678 53.8626C45.2237 54.1967 43.6576 54.308 42.2034 54.1967C40.861 54.0853 39.4068 53.7513 38.1763 53.1946C36.9458 52.7493 35.8271 52.0813 34.9322 51.3019C33.0305 49.8546 31.8 48.1845 31.017 46.6258C30.2339 45.0671 29.8983 43.7311 29.6746 42.8404C29.5627 41.9497 29.4508 41.393 29.4508 41.393C29.4508 41.393 29.4508 41.8384 29.5627 42.8404C29.6746 43.7311 29.8983 45.1784 30.6814 46.7371C31.3525 48.2958 32.5831 50.1886 34.4847 51.7473C36.3864 53.306 38.9593 54.7533 42.0915 55.0873C43.6576 55.31 45.2237 55.1987 46.9017 54.8647C48.5797 54.642 50.1458 53.974 51.8237 53.306C54.9559 51.7473 57.9763 49.0752 59.7661 45.6238C60.661 43.9537 61.3322 42.061 61.6678 40.057C61.7797 39.055 61.8915 37.9416 61.8915 37.0509V36.2716C61.8915 35.9375 61.8915 35.7149 61.7797 35.4922L61.6678 33.9335C60.9966 29.9254 59.4305 26.0286 56.7458 22.7999C54.1729 19.5712 50.5932 17.2331 46.7898 15.7857C44.8881 15.1177 42.8746 14.6724 40.861 14.561C40.5254 14.561 40.078 14.561 39.7424 14.561C39.4068 14.7837 39.1831 14.7837 38.8475 14.7837Z" fill="#DD8C50"/>
<path d="M36.6099 17.5669C34.2607 17.6782 31.9116 18.2349 29.7861 19.1256C25.4234 20.7956 21.8438 23.8017 19.3827 27.5871C17.0336 31.1499 15.6912 35.3807 15.2438 39.2774C14.7963 43.1742 15.2438 46.9596 16.2505 50.2997C17.2573 53.6398 18.8234 56.4232 20.3895 58.6499C20.837 59.2066 21.2844 59.7633 21.62 60.2086C22.0675 60.7653 22.5149 61.0993 22.8505 61.5446C23.6336 62.4353 24.5285 63.1033 25.3116 63.7714C26.0946 64.4394 26.8777 64.8847 27.437 65.3301C28.1082 65.7754 28.6675 66.1094 29.1149 66.3321C30.0099 66.7774 30.5692 67.1114 30.5692 67.1114C30.5692 67.1114 30.1217 66.7774 29.2268 66.2207C28.3319 65.6641 27.1014 64.7734 25.5353 63.5487C24.8641 62.8807 23.9692 62.2126 23.1861 61.322C22.8505 60.8766 22.4031 60.4313 21.9556 59.8746C21.62 59.3179 21.1726 58.8726 20.837 58.3159C19.3827 56.0892 17.9285 53.3058 17.1455 50.077C16.2505 46.8483 15.9149 43.2855 16.4743 39.5001C17.0336 35.7147 18.376 31.9292 20.6133 28.4778C22.8505 25.1378 26.3183 22.3543 30.3455 20.7956C32.359 20.0163 34.4844 19.5709 36.6099 19.3483C38.7353 19.2369 40.9726 19.3483 43.098 19.905C45.2234 20.4616 47.237 21.1297 49.1387 22.3543C50.9285 23.4677 52.4946 24.9151 53.7251 26.6965C56.1861 30.1479 57.3048 34.3786 56.8573 38.3867C56.6336 40.3908 55.9624 42.2835 55.1794 44.0649C54.9556 44.5102 54.7319 44.9556 54.3963 45.4009C54.0607 45.7349 53.9488 46.1803 53.6133 46.5143C53.0539 47.2936 52.3827 47.9616 51.5997 48.5183C48.6912 50.8564 44.9997 51.7471 41.7556 51.4131C38.5116 51.079 35.6031 49.6317 33.8133 47.6276C32.0234 45.6236 31.1285 43.2855 31.0166 41.3928C30.7929 39.5001 31.1285 37.9414 31.4641 36.9394C31.576 36.3827 31.7997 36.0487 31.9116 35.826C32.0234 35.3807 32.0234 35.2693 32.0234 35.2693C32.0234 35.2693 32.0234 35.3807 31.9116 35.6033C31.7997 35.826 31.576 36.16 31.4641 36.7167C31.1285 37.7187 30.681 39.2774 30.7929 41.2815C30.9048 43.2855 31.6878 45.7349 33.4777 47.9616C35.2675 50.1884 38.2878 51.8584 41.7556 52.3037C45.2234 52.7491 49.2505 51.8584 52.4946 49.409C53.2777 48.8523 54.0607 48.073 54.7319 47.2936C55.0675 46.9596 55.4031 46.4029 55.7387 46.0689C56.0743 45.6236 56.298 45.1782 56.5217 44.7329C57.5285 42.8402 58.1997 40.7248 58.5353 38.6094C59.0946 34.2673 58.0878 29.4799 55.2912 25.6944C53.9488 23.8017 52.159 22.1317 50.1455 20.907C48.2438 19.6823 45.8946 18.7916 43.6573 18.2349C41.9794 17.7896 40.1895 17.5669 38.5116 17.5669C37.8404 17.4556 37.1692 17.4556 36.6099 17.5669Z" fill="#DD8C50"/>
<path d="M36.9457 20.4616C35.044 20.5729 33.0305 20.907 31.1288 21.575C30.2339 21.909 29.2271 22.3543 28.444 22.911L27.7728 23.245C27.4373 23.4677 27.3254 23.579 27.1017 23.6904L25.8711 24.581C22.7389 27.1418 20.0542 30.4818 18.7118 34.3786C17.2576 38.2754 16.922 42.5061 17.705 46.5142C18.1525 48.5183 18.7118 50.411 19.6067 52.1924C20.0542 53.1944 20.5017 53.8624 21.061 54.7531C21.6203 55.5325 22.1796 56.3118 22.7389 57.0912C25.2 60.0972 28.1084 62.324 31.2406 63.994C34.3728 65.5527 37.6169 66.5547 40.5254 66.8887C43.5457 67.2227 46.3423 67.2227 48.8034 66.6661C49.3627 66.5547 50.0339 66.4434 50.5932 66.3321C51.1525 66.2207 51.7118 66.1094 52.1593 65.8867C53.1661 65.5527 54.061 65.2187 54.844 64.8847C55.6271 64.5507 56.2983 64.1053 56.9695 63.8827C57.5288 63.5486 58.0881 63.2146 58.4237 62.992C59.2067 62.5466 59.6542 62.2126 59.6542 62.2126C59.6542 62.2126 59.2067 62.4353 58.4237 62.8806C57.9762 63.1033 57.5288 63.4373 56.8576 63.66C56.2983 63.8827 55.5152 64.2167 54.7322 64.5507C53.9491 64.7733 52.9423 65.1074 52.0474 65.4414C51.4881 65.5527 51.0406 65.664 50.4813 65.7754C49.922 65.8867 49.3627 65.998 48.8034 65.998C48.244 66.1094 47.5728 66.1094 47.0135 66.2207C46.3423 66.2207 45.6712 66.2207 45 66.2207C44.3288 66.2207 43.6576 66.1094 42.9864 66.1094C42.3152 66.1094 41.5322 65.998 40.861 65.8867C37.9525 65.4414 34.9322 64.4393 32.0237 62.7693C29.1152 61.0993 26.4305 58.8725 24.0813 56.0891C23.522 55.3098 23.0745 54.6418 22.5152 53.8624C22.0678 53.0831 21.5084 52.1924 21.1728 51.413L20.6135 50.1883C20.3898 49.743 20.2779 49.2976 20.1661 48.8523C19.8305 47.9616 19.7186 47.0709 19.4949 46.1802C18.8237 42.5061 19.1593 38.6094 20.5017 35.0466C21.7322 31.4839 24.1932 28.3665 27.1017 26.0284L28.2203 25.2491C28.444 25.1377 28.6678 24.915 28.7796 24.915L29.4508 24.581C30.3457 24.0244 31.1288 23.6904 31.9118 23.3563C33.5898 22.6883 35.3796 22.3543 37.1695 22.243C38.9593 22.1316 40.7491 22.3543 42.3152 22.7997C43.9932 23.245 45.5593 23.913 46.9017 24.8037C48.244 25.6944 49.5864 26.6964 50.5932 27.8098C51.1525 28.3665 51.6 29.0345 52.0474 29.5912C52.383 30.1478 52.8305 30.9272 53.1661 31.4839C53.7254 32.7086 54.1728 34.1559 54.2847 35.3806C54.5084 36.7167 54.5084 37.9414 54.2847 39.0547C53.9491 41.3928 53.1661 43.2855 52.1593 44.7329C51.2644 46.1802 50.2576 47.0709 49.5864 47.7389C48.8034 48.2956 48.4678 48.6296 48.4678 48.6296C48.4678 48.6296 48.9152 48.407 49.6983 47.8503C50.3695 47.2936 51.4881 46.4029 52.4949 44.9555C53.5017 43.5082 54.5084 41.6155 54.9559 39.1661C55.4034 36.7167 55.2915 33.8219 54.061 31.0385C53.5017 29.5912 52.6067 28.2551 51.4881 27.0304C50.4813 25.6944 49.1389 24.581 47.6847 23.6904C44.8881 21.909 41.5322 20.6843 37.8406 20.6843C37.505 20.3503 37.2813 20.3503 36.9457 20.4616Z" fill="#DD8C50"/>
<path d="M69.9457 36.6056C69.9457 36.9396 69.9457 37.2736 69.8338 37.6076C69.7219 37.9416 69.7219 38.2756 69.6101 38.721C69.4982 39.5003 69.3863 40.391 69.0507 41.3931C68.9389 41.8384 68.827 42.3951 68.6033 42.8404C68.3796 43.2858 68.2677 43.8424 68.044 44.3991C67.7084 45.5125 67.149 46.5145 66.7016 47.6279C66.0304 48.6299 65.4711 49.8546 64.7999 50.8566C64.1287 51.97 63.2338 52.8607 62.4507 53.8627C61.5558 54.7534 60.6609 55.7554 59.6541 56.5347C58.7592 57.4254 57.6406 58.0935 56.6338 58.7615C55.5151 59.3182 54.6202 60.0975 53.5016 60.5428C52.9423 60.7655 52.4948 60.9882 52.0474 61.2109C51.488 61.4335 51.0406 61.5449 50.5931 61.7675C49.6982 62.1016 48.8033 62.4356 48.0202 62.6582C47.5728 62.7696 47.2372 62.8809 46.9016 62.9922C46.566 63.1036 46.2304 63.1036 45.8948 63.2149C44.7762 63.4376 44.105 63.5489 44.105 63.5489C44.105 63.5489 44.7762 63.5489 46.0067 63.5489C46.3423 63.5489 46.6779 63.5489 47.0135 63.5489C47.349 63.5489 47.7965 63.4376 48.1321 63.4376C48.9152 63.3262 49.9219 63.2149 50.9287 62.8809C51.3762 62.7696 51.9355 62.6582 52.4948 62.4356C53.0541 62.2129 53.5016 61.9902 54.0609 61.7675C55.1796 61.4335 56.2982 60.7655 57.4168 60.2088C58.5355 59.5408 59.6541 58.8728 60.6609 57.8708C61.7796 57.0914 62.6745 55.9781 63.6812 55.0874C64.5762 53.974 65.4711 52.972 66.1423 51.7473C66.9253 50.6339 67.4846 49.4092 68.044 48.2959C68.4914 47.0712 69.0507 45.9578 69.2745 44.7331C69.3863 44.1765 69.6101 43.6198 69.7219 43.0631C69.8338 42.5064 69.8338 41.9497 69.9457 41.5044C70.1694 40.5024 70.1694 39.5003 70.1694 38.721C70.1694 38.2756 70.1694 37.9416 70.1694 37.6076C70.1694 37.2736 70.0575 36.9396 70.0575 36.6056C70.1694 35.3809 70.0575 34.7129 70.0575 34.7129C70.0575 34.7129 69.9457 35.3809 69.9457 36.6056Z" fill="#DD8C50"/>
<path d="M175.881 25.2491C175.21 24.5811 174.427 24.2471 173.532 24.2471C172.637 24.2471 171.854 24.5811 171.183 25.2491C170.512 25.9171 170.176 26.6965 170.176 27.5872C170.176 28.4778 170.512 29.2572 171.183 29.9252C171.854 30.5932 172.637 30.9272 173.532 30.9272C174.427 30.9272 175.21 30.5932 175.881 29.9252C176.553 29.2572 176.888 28.4778 176.888 27.5872C176.888 26.6965 176.553 25.9171 175.881 25.2491ZM175.546 29.5912C174.986 30.1479 174.315 30.4819 173.532 30.4819C172.749 30.4819 172.078 30.1479 171.519 29.5912C170.959 29.0345 170.624 28.3665 170.624 27.4758C170.624 26.6965 170.959 26.0284 171.519 25.3604C172.078 24.8038 172.749 24.4697 173.532 24.4697C174.315 24.4697 174.986 24.8038 175.546 25.3604C176.105 25.9171 176.441 26.5851 176.441 27.4758C176.441 28.3665 176.105 29.0345 175.546 29.5912ZM174.203 27.6985C174.427 27.5872 174.651 27.4758 174.763 27.2531C174.875 27.1418 174.986 26.9191 174.986 26.5851C174.986 26.3625 174.986 26.2511 174.875 26.1398C174.763 26.0284 174.651 25.9171 174.539 25.8058C174.427 25.6944 174.203 25.6944 174.092 25.6944C173.98 25.6944 173.756 25.6944 173.532 25.6944H172.302V29.2572H172.973V27.9212H173.644L174.986 29.2572H175.881L174.203 27.6985ZM174.203 27.0305C174.203 27.1418 174.092 27.1418 173.98 27.2531C173.868 27.3645 173.756 27.3645 173.644 27.3645C173.532 27.3645 173.42 27.3645 173.197 27.3645H172.749V26.1398H173.308C173.42 26.1398 173.532 26.1398 173.644 26.1398C173.756 26.1398 173.868 26.1398 173.868 26.2511C173.98 26.2511 173.98 26.3625 174.092 26.4738C174.092 26.5851 174.092 26.5851 174.092 26.6965C174.315 26.9191 174.315 26.9191 174.203 27.0305Z" fill="#333030"/>
</svg>
