<svg width="27" height="89" fill="none" xmlns="http://www.w3.org/2000/svg"><path d="M25 74.475h1v-1h-1v1zm0 6.195v1h1v-1h-1zm-15.54 0v-1H8.017l.507 1.351.936-.351zm.525 6.615v1h1v-1h-1zm-5.775 0h-1v1h1v-1zm-.49-5.845l.844-.537-.009-.013-.009-.013-.826.563zm-1.68-.77h-1v1h1v-1zm0-6.195v-1h-1v1h1zm21.96 0v6.195h2v-6.195h-2zm1 5.195H9.46v2H25v-2zM8.524 81.021c.301.804.461 1.732.461 2.799h2c0-1.266-.19-2.438-.589-3.501l-1.872.702zm.461 2.799v3.465h2V83.82h-2zm1 2.465H4.21v2h5.775v-2zm-4.775 1v-3.36h-2v3.36h2zm0-3.36c0-1.192-.162-2.26-.646-3.022l-1.688 1.074c.169.265.334.853.334 1.948h2zm-.664-3.048c-.581-.853-1.495-1.207-2.506-1.207v2c.529 0 .735.16.854.333l1.652-1.126zM3.04 80.67v-6.195h-2v6.195h2zm-1-5.195H25v-2H2.04v2zm.665-24.82l.932.364-.932-.363zm3.22-4.374l.583.812.006-.004-.589-.808zm16.905 1.855l.792-.61-.792.61zm.56 18.13l.828.56.007-.01-.835-.55zm-5.95 3.045h-1v1h1v-1zm0-6.02v-1h-1v1h1zm2.03-1.54l-.918-.397.918.397zm-.49-9.1l-.83.558.006.008.824-.566zm-3.955-1.715v-1h-1.84l1.001 1.544.839-.544zm-.14 15.82l.846.533.007-.012-.853-.521zm-11.27-.245l.848-.531-.005-.007-.843.538zm7.595-4.375l.925.38-.925-.38zm.175-8.47l.976-.22-.002-.007-.002-.007-.972.234zM10.23 50.97l.79-.614-.357-.46-.576.084.143.99zm-7.645 6.51c0-2.546.36-4.692 1.052-6.462l-1.864-.727C.971 52.349.585 54.753.585 57.481h2zm1.052-6.462c.69-1.768 1.656-3.055 2.87-3.926l-1.165-1.625c-1.585 1.136-2.765 2.765-3.569 4.824l1.864.727zm2.877-3.93c1.183-.862 2.626-1.313 4.381-1.313v-2c-2.118 0-3.988.552-5.559 1.696l1.178 1.617zm4.381-1.313h4.655v-2h-4.655v2zm4.655 0c2.854 0 4.972 1.004 6.488 2.97l1.584-1.22c-1.938-2.515-4.673-3.75-8.072-3.75v2zm6.488 2.97c1.544 2.003 2.382 4.907 2.382 8.84h2c0-4.188-.889-7.584-2.798-10.06l-1.584 1.22zm2.382 8.84c0 3.632-.662 6.303-1.865 8.13l1.67 1.1c1.503-2.281 2.195-5.396 2.195-9.23h-2zm-1.858 8.118c-1.188 1.753-2.802 2.607-4.947 2.607v2c2.802 0 5.038-1.177 6.603-3.484l-1.656-1.123zm-4.947 2.607h-.175v2h.175v-2zm.825 1v-6.02h-2v6.02h2zm-1-5.02h.175v-2h-.175v2zm.175 0c1.355 0 2.248-.927 2.773-2.144l-1.836-.793c-.361.837-.705.937-.937.937v2zm2.773-2.144c.52-1.205.747-2.771.747-4.631h-2c0 1.733-.217 2.99-.583 3.838l1.836.793zm.747-4.631c0-2.22-.399-4.076-1.331-5.432l-1.648 1.133c.608.884.979 2.272.979 4.299h2zm-1.326-5.424c-.966-1.435-2.394-2.156-4.154-2.156v2c1.134 0 1.922.422 2.496 1.273l1.658-1.117zm-4.154-2.156h-.63v2h.63v-2zm-1.469 1.544c.972 1.499 1.519 3.729 1.519 6.806h2c0-3.27-.573-5.94-1.841-7.895l-1.678 1.089zm1.519 6.806c0 3.575-.596 6.187-1.673 7.948l1.706 1.043c1.35-2.206 1.967-5.24 1.967-8.991h-2zm-1.666 7.936c-1.054 1.67-2.509 2.474-4.474 2.474v2c2.655 0 4.747-1.158 6.166-3.407l-1.692-1.067zm-4.474 2.474H9.32v2h.245v-2zm-.245 0c-2.123 0-3.707-.88-4.858-2.716L2.768 67.04c1.51 2.411 3.729 3.655 6.552 3.655v-2zm-4.862-2.723c-1.209-1.897-1.873-4.69-1.873-8.492h-2c0 3.99.69 7.218 2.187 9.567l1.686-1.075zM9.46 64.5c.602 0 1.167-.178 1.647-.553.467-.364.796-.868 1.028-1.433l-1.85-.759c-.142.345-.291.524-.408.615a.633.633 0 01-.417.13v2zm2.675-1.986c.452-1.1.635-2.725.635-4.754h-2c0 1.983-.19 3.276-.485 3.995l1.85.76zm.635-4.754c0-1.637-.132-3.079-.41-4.315l-1.95.439c.235 1.05.36 2.339.36 3.876h2zm-.413-4.329c-.298-1.242-.728-2.291-1.338-3.075l-1.578 1.227c.37.476.71 1.223.972 2.315l1.944-.467zm-2.27-3.451c-1.492.215-2.602 1.091-3.297 2.474-.667 1.328-.955 3.117-.955 5.27h2c0-2.022.278-3.448.742-4.372.437-.868 1.024-1.281 1.796-1.393l-.286-1.98zm-4.252 7.745c0 1.965.204 3.571.692 4.721.248.586.592 1.104 1.068 1.479a2.684 2.684 0 001.69.575v-2a.687.687 0 01-.454-.148c-.136-.106-.303-.31-.463-.687-.329-.774-.533-2.056-.533-3.94h-2zm3.45 6.775h.175v-2h-.175v2zm-6.58-41.36l.932.364-.932-.364zm3.22-4.375l.583.813.006-.005-.589-.808zM22.83 20.62l.792-.61-.792.61zm.56 18.13l.828.561.007-.01-.835-.551zm-5.95 3.045h-1v1h1v-1zm0-6.02v-1h-1v1h1zm2.03-1.54l-.918-.396.918.396zm-.49-9.1l-.83.559.006.008.824-.567zm-3.955-1.715v-1h-1.84l1.001 1.544.839-.544zm-.14 15.82l.846.534.007-.012-.853-.522zm-11.27-.245l.848-.53-.005-.008-.843.538zm7.595-4.375l.925.38-.925-.38zm.175-8.47l.976-.22-.002-.006-.002-.007-.972.233zm-1.155-2.695l.79-.614-.357-.459-.576.083.143.99zm-7.645 6.51c0-2.546.36-4.692 1.052-6.462l-1.864-.727C.971 24.834.585 27.24.585 29.966h2zm1.052-6.462c.69-1.768 1.656-3.055 2.87-3.925l-1.165-1.626c-1.585 1.136-2.765 2.766-3.569 4.824l1.864.727zm2.877-3.93c1.183-.862 2.626-1.313 4.381-1.313v-2c-2.118 0-3.988.552-5.559 1.697l1.178 1.616zm4.381-1.313h4.655v-2h-4.655v2zm4.655 0c2.854 0 4.972 1.004 6.488 2.97l1.584-1.22c-1.938-2.514-4.673-3.75-8.072-3.75v2zm6.488 2.97c1.544 2.004 2.382 4.907 2.382 8.84h2c0-4.188-.889-7.584-2.798-10.06l-1.584 1.22zm2.382 8.84c0 3.632-.662 6.304-1.865 8.13l1.67 1.1c1.503-2.28 2.195-5.396 2.195-9.23h-2zm-1.858 8.119c-1.188 1.753-2.802 2.606-4.947 2.606v2c2.802 0 5.038-1.177 6.603-3.484l-1.656-1.122zm-4.947 2.606h-.175v2h.175v-2zm.825 1v-6.02h-2v6.02h2zm-1-5.02h.175v-2h-.175v2zm.175 0c1.355 0 2.248-.927 2.773-2.144l-1.836-.792c-.361.836-.705.936-.937.936v2zm2.773-2.144c.52-1.204.747-2.771.747-4.631h-2c0 1.733-.217 2.99-.583 3.838l1.836.793zM21.135 30c0-2.22-.399-4.075-1.331-5.432l-1.648 1.134c.608.883.979 2.272.979 4.298h2zm-1.326-5.424c-.966-1.435-2.394-2.156-4.154-2.156v2c1.134 0 1.922.422 2.496 1.274l1.658-1.118zm-4.154-2.156h-.63v2h.63v-2zm-1.469 1.544c.972 1.5 1.519 3.729 1.519 6.806h2c0-3.27-.573-5.94-1.841-7.894l-1.678 1.088zm1.519 6.806c0 3.576-.596 6.188-1.673 7.948l1.706 1.044c1.35-2.207 1.967-5.241 1.967-8.992h-2zm-1.666 7.936c-1.054 1.671-2.509 2.474-4.474 2.474v2c2.655 0 4.747-1.157 6.166-3.406l-1.692-1.068zM9.565 41.18H9.32v2h.245v-2zm-.245 0c-2.123 0-3.707-.88-4.858-2.716l-1.694 1.062c1.51 2.41 3.729 3.654 6.552 3.654v-2zm-4.862-2.722c-1.209-1.898-1.873-4.69-1.873-8.493h-2c0 3.99.69 7.218 2.187 9.567l1.686-1.075zm5.002-1.473c.602 0 1.167-.178 1.647-.553.467-.364.796-.868 1.028-1.432l-1.85-.76c-.142.346-.291.524-.408.615a.633.633 0 01-.417.13v2zM12.135 35c.452-1.101.635-2.725.635-4.755h-2c0 1.984-.19 3.276-.485 3.995l1.85.76zm.635-4.755c0-1.636-.132-3.079-.41-4.314l-1.95.438c.235 1.051.36 2.339.36 3.876h2zm-.413-4.328c-.298-1.242-.728-2.292-1.338-3.076L9.441 24.07c.37.476.71 1.223.972 2.314l1.944-.466zm-2.27-3.452c-1.492.215-2.602 1.091-3.297 2.475-.667 1.328-.955 3.116-.955 5.27h2c0-2.023.278-3.449.742-4.372.437-.869 1.024-1.282 1.796-1.393l-.286-1.98zM5.835 30.21c0 1.965.204 3.572.692 4.722.248.585.592 1.104 1.068 1.478a2.684 2.684 0 001.69.575v-2a.687.687 0 01-.454-.147c-.136-.107-.303-.31-.463-.687-.329-.775-.533-2.056-.533-3.941h-2zm3.45 6.775h.175v-2h-.175v2zM25 1.296h1v-1h-1v1zm0 6.195v1h1v-1h-1zm-15.54 0v-1H8.017l.507 1.351.936-.35zm.525 6.615v1h1v-1h-1zm-5.775 0h-1v1h1v-1zm-.49-5.845l.844-.537-.009-.013-.009-.013-.826.563zm-1.68-.77h-1v1h1v-1zm0-6.195v-1h-1v1h1zm21.96 0v6.195h2V1.296h-2zm1 5.195H9.46v2H25v-2zM8.524 7.842c.301.804.461 1.732.461 2.8h2c0-1.267-.19-2.439-.589-3.502l-1.872.702zm.461 2.8v3.464h2v-3.465h-2zm1 2.464H4.21v2h5.775v-2zm-4.775 1v-3.36h-2v3.36h2zm0-3.36c0-1.191-.162-2.26-.646-3.022L2.876 8.798c.169.265.334.853.334 1.948h2zm-.664-3.048C3.965 6.845 3.051 6.49 2.04 6.49v2c.529 0 .735.16.854.334l1.652-1.127zM3.04 7.49V1.296h-2v6.195h2zm-1-5.195H25v-2H2.04v2z" fill="#313131"/></svg>