<svg width="27" height="99" fill="none" xmlns="http://www.w3.org/2000/svg"><path d="M19.995 75.325v-1h-1v1h1zm5.005 0h1v-1h-1v1zm0 22.4v1h1v-1h-1zm-4.76 0l-.873.487.286.513h.587v-1zm-6.44-11.55l.873-.487v-.002l-.873.489zm-1.61-2.625l.812-.584-.005-.006-.807.59zM11 82.325l-.53.848.008.005.008.005.514-.858zm-3.5.875l.862.507.009-.015.008-.015L7.5 83.2zm.175 7.245l.839-.544-.004-.006-.835.55zm3.185 1.295h1v-1h-1v1zm0 5.985v1h1v-1h-1zM3.755 94.96l.792-.611-.005-.006-.787.617zM3.58 78.65l.824.566.005-.007-.829-.559zm10.15-1.26l-.65.76.002.001.648-.761zm4.095 5.565l.875-.484-.002-.003-.873.487zm2.17 3.92l-.875.484 1.875 3.387v-3.871h-1zm0-10.55H25v-2h-5.005v2zm4.005-1v22.4h2v-22.4h-2zm1 21.4h-4.76v2H25v-2zm-3.887.513l-6.44-11.55-1.746.974 6.44 11.55 1.746-.974zm-6.44-11.552c-.66-1.176-1.218-2.09-1.671-2.72l-1.623 1.168c.386.537.9 1.373 1.549 2.53l1.744-.978zm-1.676-2.726c-.467-.64-.959-1.178-1.482-1.492l-1.03 1.715c.177.105.478.383.898.957l1.614-1.18zm-1.467-1.483a3.328 3.328 0 00-1.79-.502v2c.291 0 .525.07.73.198l1.06-1.696zm-1.79-.502h-.315v2h.315v-2zm-.315 0c-.59 0-1.15.146-1.648.463-.493.313-.871.76-1.156 1.285l1.758.954c.158-.292.323-.457.472-.552a1.03 1.03 0 01.574-.15v-2zm-2.787 1.718c-.598 1.017-.838 2.38-.838 3.972h2c0-1.442.227-2.388.562-2.958l-1.724-1.014zM5.8 86.665c0 1.731.306 3.214 1.04 4.33l1.67-1.1c-.432-.657-.71-1.694-.71-3.23h-2zm1.036 4.324c.758 1.17 1.915 1.751 3.324 1.751v-2c-.784 0-1.284-.282-1.646-.84l-1.678 1.09zm3.324 1.751h.7v-2h-.7v2zm-.3-1v5.985h2V91.74h-2zm1 4.985h-.735v2h.735v-2zm-.735 0c-2.587 0-4.385-.83-5.579-2.376L2.963 95.57c1.654 2.141 4.102 3.154 7.162 3.154v-2zm-5.583-2.382c-1.251-1.595-1.957-4.065-1.957-7.573h-2c0 3.726.741 6.715 2.383 8.807l1.574-1.234zM2.585 86.77c0-3.366.647-5.846 1.82-7.554l-1.65-1.132C1.269 80.249.586 83.183.586 86.77h2zm1.824-7.56c1.119-1.659 2.638-2.465 4.666-2.465v-2c-2.686 0-4.83 1.13-6.324 3.346l1.658 1.118zm4.666-2.465h.35v-2h-.35v2zm.35 0c1.332 0 2.54.453 3.655 1.405l1.3-1.52c-1.452-1.24-3.114-1.885-4.955-1.885v2zm3.656 1.406c1.123.957 2.419 2.687 3.87 5.291l1.747-.974c-1.488-2.67-2.923-4.65-4.32-5.84l-1.296 1.523zm3.87 5.288l2.17 3.92 1.749-.968-2.17-3.92-1.75.968zm4.044 3.436v-11.55h-2v11.55h2zm3.095-20.89l.905.424.002-.004-.907-.42zm-3.815 4.55l.544.838.007-.004.006-.005-.557-.83zm-13.475 0l-.552.833.008.005.544-.839zm-3.85-4.55l-.907.42.002.004.905-.425zm0-13.476l-.905-.425.905.425zm3.85-4.48l.535.845.007-.005.007-.004-.549-.836zm13.51 0l-.544.84.003.001.541-.84zm3.815 4.48l.91-.416-.005-.01-.905.426zm-15.47 1.785l.798.603-.798-.603zm.035 9.975l.798-.603-.002-.002-.796.605zm9.73 0l.806.592-.806-.592zm6.035-5.04c0 2.424-.433 4.527-1.272 6.334l1.814.842c.981-2.113 1.458-4.513 1.458-7.176h-2zm-1.27 6.33c-.84 1.787-1.998 3.158-3.467 4.145l1.114 1.66c1.797-1.206 3.183-2.869 4.163-4.955l-1.81-.85zm-3.454 4.136c-1.48.96-3.19 1.45-5.161 1.45v2c2.322 0 4.416-.584 6.249-1.772l-1.088-1.678zm-5.161 1.45h-2.065v2h2.065v-2zm-2.065 0c-1.971 0-3.68-.49-5.161-1.45l-1.088 1.678c1.833 1.188 3.927 1.771 6.249 1.771v-2zM7.352 69.7c-1.492-.987-2.659-2.357-3.497-4.141l-1.81.85c.982 2.09 2.382 3.753 4.203 4.959L7.352 69.7zm-3.495-4.137c-.839-1.807-1.272-3.91-1.272-6.334h-2c0 2.663.477 5.063 1.458 7.176l1.814-.842zm-1.272-6.334c0-2.424.433-4.514 1.27-6.295l-1.81-.85c-.983 2.092-1.46 4.482-1.46 7.145h2zm1.27-6.295c.837-1.78 1.999-3.121 3.48-4.06l-1.07-1.69c-1.832 1.162-3.237 2.807-4.22 4.9l1.81.85zm3.494-4.07c1.453-.954 3.159-1.445 5.156-1.445v-2c-2.343 0-4.44.582-6.254 1.774l1.098 1.672zm5.156-1.445h2.065v-2h-2.065v2zm2.065 0c1.997 0 3.718.491 5.196 1.45l1.088-1.68c-1.835-1.188-3.94-1.77-6.284-1.77v2zm5.2 1.451c1.459.938 2.611 2.28 3.45 4.064l1.81-.85c-.981-2.089-2.372-3.734-4.18-4.896l-1.08 1.682zm3.446 4.055c.816 1.784 1.239 3.877 1.239 6.304h2c0-2.66-.464-5.046-1.42-7.136l-1.82.832zM20.68 59.23c0-2.313-.43-4.23-1.452-5.589-1.063-1.411-2.642-2.06-4.553-2.06v2c1.426 0 2.349.458 2.955 1.263.646.859 1.05 2.266 1.05 4.386h2zm-6.005-7.65h-2.24v2h2.24v-2zm-2.24 0c-1.915 0-3.495.678-4.578 2.112l1.596 1.206c.643-.852 1.583-1.318 2.982-1.318v-2zm-4.578 2.112c-1.046 1.386-1.497 3.292-1.497 5.573h2c0-2.059.413-3.467 1.093-4.367L7.857 53.69zM6.36 59.264c0 2.288.465 4.204 1.534 5.61l1.592-1.21c-.704-.927-1.126-2.348-1.126-4.4h-2zm1.532 5.608c1.08 1.43 2.646 2.112 4.543 2.112v-2c-1.37 0-2.3-.462-2.947-1.317l-1.596 1.205zm4.543 2.112h2.24v-2h-2.24v2zm2.24 0c1.914 0 3.49-.678 4.55-2.123l-1.61-1.184c-.62.842-1.54 1.307-2.94 1.307v2zm4.55-2.123c1.02-1.387 1.455-3.314 1.455-5.632h-2c0 2.115-.405 3.549-1.066 4.448l1.612 1.184zm4.865-27.485l.905.425.002-.004-.907-.421zm-3.815 4.55l.544.839.007-.005.006-.004-.557-.83zm-13.475 0l-.552.834.008.005.544-.84zm-3.85-4.55l-.907.42.002.005.905-.425zm0-13.475l-.905-.426.905.426zm3.85-4.48l.535.844.007-.004.007-.005-.549-.835zm13.51 0l-.544.839.003.002.541-.841zm3.815 4.48l.91-.417-.005-.009-.905.426zm-15.47 1.785l.798.602-.798-.602zm.035 9.975l.798-.603-.002-.002-.796.605zm9.73 0l.806.592-.806-.592zm6.035-5.04c0 2.423-.433 4.527-1.272 6.334l1.814.842c.981-2.113 1.458-4.513 1.458-7.176h-2zm-1.27 6.33c-.84 1.787-1.998 3.158-3.467 4.145l1.114 1.66c1.797-1.206 3.183-2.87 4.163-4.955l-1.81-.85zm-3.454 4.135c-1.48.96-3.19 1.45-5.161 1.45v2c2.322 0 4.416-.584 6.249-1.771l-1.088-1.679zm-5.161 1.45h-2.065v2h2.065v-2zm-2.065 0c-1.971 0-3.68-.49-5.161-1.45l-1.088 1.679c1.833 1.187 3.927 1.77 6.249 1.77v-2zm-5.153-1.444c-1.492-.988-2.659-2.358-3.497-4.142l-1.81.851c.982 2.09 2.382 3.753 4.203 4.959l1.104-1.668zm-3.495-4.137c-.839-1.807-1.272-3.91-1.272-6.334h-2c0 2.663.477 5.063 1.458 7.176l1.814-.842zM2.585 30.62c0-2.424.433-4.514 1.27-6.295l-1.81-.85c-.983 2.092-1.46 4.482-1.46 7.145h2zm1.27-6.295c.837-1.78 1.999-3.122 3.48-4.06l-1.07-1.69c-1.832 1.161-3.237 2.807-4.22 4.9l1.81.85zm3.494-4.07c1.453-.954 3.159-1.445 5.156-1.445v-2c-2.343 0-4.44.582-6.254 1.774l1.098 1.671zm5.156-1.445h2.065v-2h-2.065v2zm2.065 0c1.997 0 3.718.49 5.196 1.449l1.088-1.679c-1.835-1.188-3.94-1.77-6.284-1.77v2zm5.2 1.45c1.459.939 2.611 2.28 3.45 4.065l1.81-.85c-.981-2.09-2.372-3.735-4.18-4.896l-1.08 1.682zm3.446 4.056c.816 1.783 1.239 3.877 1.239 6.304h2c0-2.66-.464-5.046-1.42-7.137l-1.82.833zM20.68 30.62c0-2.314-.43-4.231-1.452-5.59-1.063-1.41-2.642-2.06-4.553-2.06v2c1.426 0 2.349.458 2.955 1.264.646.858 1.05 2.266 1.05 4.386h2zm-6.005-7.65h-2.24v2h2.24v-2zm-2.24 0c-1.915 0-3.495.677-4.578 2.112l1.596 1.205c.643-.851 1.583-1.317 2.982-1.317v-2zm-4.578 2.112C6.811 26.47 6.36 28.374 6.36 30.656h2c0-2.059.413-3.467 1.093-4.368l-1.596-1.205zM6.36 30.656c0 2.288.465 4.203 1.534 5.61l1.592-1.21c-.704-.927-1.126-2.348-1.126-4.4h-2zm1.532 5.607c1.08 1.431 2.646 2.113 4.543 2.113v-2c-1.37 0-2.3-.462-2.947-1.318l-1.596 1.205zm4.543 2.113h2.24v-2h-2.24v2zm2.24 0c1.914 0 3.49-.678 4.55-2.123l-1.61-1.184c-.62.841-1.54 1.307-2.94 1.307v2zm4.55-2.123c1.02-1.388 1.455-3.314 1.455-5.632h-2c0 2.115-.405 3.548-1.066 4.448l1.612 1.184zM25 1.837h1v-1h-1v1zm0 6.195v1h1v-1h-1zm-15.54 0v-1H8.017l.507 1.351.936-.35zm.525 6.615v1h1v-1h-1zm-5.775 0h-1v1h1v-1zm-.49-5.845l.844-.537-.009-.013-.009-.013-.826.563zm-1.68-.77h-1v1h1v-1zm0-6.195v-1h-1v1h1zm21.96 0v6.195h2V1.837h-2zm1 5.195H9.46v2H25v-2zM8.524 8.383c.301.804.461 1.733.461 2.8h2c0-1.267-.19-2.439-.589-3.502l-1.872.702zm.461 2.8v3.464h2v-3.465h-2zm1 2.464H4.21v2h5.775v-2zm-4.775 1v-3.36h-2v3.36h2zm0-3.36c0-1.192-.162-2.26-.646-3.022L2.876 9.34c.169.265.334.853.334 1.948h2zM4.546 8.24c-.581-.853-1.495-1.207-2.506-1.207v2c.529 0 .735.16.854.334L4.546 8.24zM3.04 8.032V1.837h-2v6.195h2zm-1-5.195H25v-2H2.04v2z" fill="#313131"/></svg>